g AttackHint_Circle_01
v 0.9914461 0 -0.1305262
v 0.965927 0 -0.2588192
v 0.9238808 0 -0.3826838
v 0.8660266 0 -0.5000004
v 0.7933544 0 -0.608762
v 0.7071078 0 -0.7071074
v 0.6087623 0 -0.7933542
v 0.5000007 0 -0.8660263
v 0.382684 0 -0.9238806
v 0.2588195 0 -0.9659269
v 0.1305265 0 -0.9914459
v 1.341105E-07 0 -1.000001
v -0.1305262 0 -0.9914459
v -0.2588192 0 -0.9659269
v -0.3826837 0 -0.9238806
v -0.5000004 0 -0.8660263
v -0.608762 0 -0.7933543
v -0.7071074 0 -0.7071076
v -0.7933541 0 -0.6087621
v -0.8660262 0 -0.5000006
v -0.9238803 0 -0.3826839
v -0.9659267 0 -0.2588194
v -0.9914457 0 -0.1305265
v -1.000001 0 -1.490116E-07
v -0.9914457 0 0.1305262
v -0.9659266 0 0.2588191
v -0.9238802 0 0.3826835
v -0.866026 0 0.5000002
v -0.7933539 0 0.6087617
v -0.7071073 0 0.7071071
v -0.6087618 0 0.7933537
v -0.5000004 0 0.8660258
v -0.3826837 0 0.92388
v -0.2588192 0 0.9659262
v -0.1305263 0 0.9914452
v -7.450581E-08 0 1
v 0.1305262 0 0.9914451
v 0.258819 0 0.9659261
v 0.3826834 0 0.9238797
v 0.5000001 0 0.8660256
v 0.6087615 0 0.7933536
v 0.7071068 0 0.7071069
v 0.7933534 0 0.6087615
v 0.8660255 0 0.5000001
v 0.9238796 0 0.3826835
v 0.9659259 0 0.2588191
v 0.9914448 0 0.1305262
v 1 0 0
v 0 0 0
v 0.965927 0 -0.2588192
v 0 0 0
v 0.9238808 0 -0.3826838
v 0 0 0
v 0.8660266 0 -0.5000004
v 0 0 0
v 0.7933544 0 -0.608762
v 0 0 0
v 0.7071078 0 -0.7071074
v 0 0 0
v 0.6087623 0 -0.7933542
v 0 0 0
v 0.5000007 0 -0.8660263
v 0 0 0
v 0.382684 0 -0.9238806
v 0 0 0
v 0.2588195 0 -0.9659269
v 0 0 0
v 0.1305265 0 -0.9914459
v 0 0 0
v 1.341105E-07 0 -1.000001
v 0 0 0
v -0.1305262 0 -0.9914459
v 0 0 0
v -0.2588192 0 -0.9659269
v 0 0 0
v -0.3826837 0 -0.9238806
v 0 0 0
v -0.5000004 0 -0.8660263
v 0 0 0
v -0.608762 0 -0.7933543
v 0 0 0
v -0.7071074 0 -0.7071076
v 0 0 0
v -0.7933541 0 -0.6087621
v 0 0 0
v -0.8660262 0 -0.5000006
v 0 0 0
v -0.9238803 0 -0.3826839
v 0 0 0
v -0.9659267 0 -0.2588194
v 0 0 0
v -0.9914457 0 -0.1305265
v 0 0 0
v -1.000001 0 -1.490116E-07
v 0 0 0
v -0.9914457 0 0.1305262
v 0 0 0
v -0.9659266 0 0.2588191
v 0 0 0
v -0.9238802 0 0.3826835
v 0 0 0
v -0.866026 0 0.5000002
v 0 0 0
v -0.7933539 0 0.6087617
v 0 0 0
v -0.7071073 0 0.7071071
v 0 0 0
v -0.6087618 0 0.7933537
v 0 0 0
v -0.5000004 0 0.8660258
v 0 0 0
v -0.3826837 0 0.92388
v 0 0 0
v -0.2588192 0 0.9659262
v 0 0 0
v -0.1305263 0 0.9914452
v 0 0 0
v -7.450581E-08 0 1
v 0 0 0
v 0.1305262 0 0.9914451
v 0 0 0
v 0.258819 0 0.9659261
v 0 0 0
v 0.3826834 0 0.9238797
v 0 0 0
v 0.5000001 0 0.8660256
v 0 0 0
v 0.6087615 0 0.7933536
v 0 0 0
v 0.7071068 0 0.7071069
v 0 0 0
v 0.7933534 0 0.6087615
v 0 0 0
v 0.8660255 0 0.5000001
v 0 0 0
v 0.9238796 0 0.3826835
v 0 0 0
v 0.9659259 0 0.2588191
v 0 0 0
v 0.9914448 0 0.1305262
v 0 0 0
v 1 0 0
v 0 0 0
v 0.9914461 0 -0.1305262
vt 0.03598741 0.03383935
vt 0.9640126 0.03383935
vt 0.9640126 0.03383935
vt 0.9640126 0.03383935
vt 0.9640126 0.03383935
vt 0.9640126 0.03383935
vt 0.9640126 0.03383935
vt 0.9640126 0.03383935
vt 0.9640126 0.03383935
vt 0.9640126 0.03383935
vt 0.9640126 0.03383935
vt 0.9640126 0.03383935
vt 0.9640126 0.03383935
vt 0.9640126 0.03383935
vt 0.9640126 0.03383935
vt 0.9640126 0.03383935
vt 0.9640126 0.03383935
vt 0.9640126 0.03383935
vt 0.9640126 0.03383935
vt 0.9640126 0.03383935
vt 0.9640126 0.03383935
vt 0.9640126 0.03383935
vt 0.9640126 0.03383935
vt 0.9640126 0.03383935
vt 0.9640126 0.03383935
vt 0.9640126 0.03383935
vt 0.9640126 0.03383935
vt 0.9640126 0.03383935
vt 0.9640126 0.03383935
vt 0.9640126 0.03383935
vt 0.9640126 0.03383935
vt 0.9640126 0.03383935
vt 0.9640126 0.03383935
vt 0.9640126 0.03383935
vt 0.9640126 0.03383935
vt 0.9640126 0.03383935
vt 0.9640126 0.03383935
vt 0.9640126 0.03383935
vt 0.9640126 0.03383935
vt 0.9640126 0.03383935
vt 0.9640126 0.03383935
vt 0.9640126 0.03383935
vt 0.9640126 0.03383935
vt 0.9640126 0.03383935
vt 0.9640126 0.03383935
vt 0.9640126 0.03383935
vt 0.9640126 0.03383935
vt 0.9640126 0.03383935
vt 0.5000033 0.9775062
vt 0.03598741 0.03383935
vt 0.4999977 0.9775081
vt 0.03598741 0.03383935
vt 0.4999992 0.9775076
vt 0.03598741 0.03383935
vt 0.5000036 0.9775043
vt 0.03598741 0.03383935
vt 0.5000013 0.977509
vt 0.03598741 0.03383935
vt 0.4999992 0.9775028
vt 0.03598741 0.03383935
vt 0.5000031 0.9775066
vt 0.03598741 0.03383935
vt 0.4999952 0.9775019
vt 0.03598741 0.03383935
vt 0.5000041 0.9775076
vt 0.03598741 0.03383935
vt 0.5000031 0.9775062
vt 0.03598741 0.03383935
vt 0.5000013 0.9775062
vt 0.03598741 0.03383935
vt 0.500001 0.9775047
vt 0.03598741 0.03383935
vt 0.4999988 0.9775066
vt 0.03598741 0.03383935
vt 0.4999982 0.9775085
vt 0.03598741 0.03383935
vt 0.500003 0.9775047
vt 0.03598741 0.03383935
vt 0.4999992 0.9775066
vt 0.03598741 0.03383935
vt 0.5000024 0.9775071
vt 0.03598741 0.03383935
vt 0.499999 0.9775019
vt 0.03598741 0.03383935
vt 0.5000014 0.9775081
vt 0.03598741 0.03383935
vt 0.5000019 0.9775071
vt 0.03598741 0.03383935
vt 0.5000002 0.9775047
vt 0.03598741 0.03383935
vt 0.500007 0.9775085
vt 0.03598741 0.03383935
vt 0.5000011 0.9775071
vt 0.03598741 0.03383935
vt 0.500001 0.9775076
vt 0.03598741 0.03383935
vt 0.5000042 0.9775062
vt 0.03598741 0.03383935
vt 0.5000032 0.9775071
vt 0.03598741 0.03383935
vt 0.5000002 0.9775057
vt 0.03598741 0.03383935
vt 0.500006 0.9775043
vt 0.03598741 0.03383935
vt 0.4999978 0.9775047
vt 0.03598741 0.03383935
vt 0.500004 0.9775066
vt 0.03598741 0.03383935
vt 0.5000011 0.9775052
vt 0.03598741 0.03383935
vt 0.5000012 0.9775052
vt 0.03598741 0.03383935
vt 0.5000067 0.9775071
vt 0.03598741 0.03383935
vt 0.5000014 0.9775071
vt 0.03598741 0.03383935
vt 0.5000005 0.9775052
vt 0.03598741 0.03383935
vt 0.5000052 0.9775057
vt 0.03598741 0.03383935
vt 0.4999997 0.9775076
vt 0.03598741 0.03383935
vt 0.5000044 0.9775071
vt 0.03598741 0.03383935
vt 0.5 0.9775043
vt 0.03598741 0.03383935
vt 0.5000004 0.9775095
vt 0.03598741 0.03383935
vt 0.5000032 0.9775038
vt 0.03598741 0.03383935
vt 0.5000007 0.9775057
vt 0.03598741 0.03383935
vt 0.4999992 0.9775033
vt 0.03598741 0.03383935
vt 0.5000029 0.9775081
vt 0.03598741 0.03383935
vt 0.5000015 0.9775043
vt 0.03598741 0.03383935
vt 0.5000048 0.9775085
vt 0.03598741 0.03383935
vt 0.4999997 0.9775057
vt 0.03598741 0.03383935
vt 0.4999251 0.9775157
vt 0.9640126 0.03383935
vn 0 1 0
vn 0 1 0
vn 0 1 0
vn 0 1 0
vn 0 1 0
vn 0 1 0
vn 0 1 0
vn 0 1 0
vn 0 1 0
vn 0 1 0
vn 0 1 0
vn 0 1 0
vn 0 1 0
vn 0 1 0
vn 0 1 0
vn 0 1 0
vn 0 1 0
vn 0 1 0
vn 0 1 0
vn 0 1 0
vn 0 1 0
vn 0 1 0
vn 0 1 0
vn 0 1 0
vn 0 1 0
vn 0 1 0
vn 0 1 0
vn 0 1 0
vn 0 1 0
vn 0 1 0
vn 0 1 0
vn 0 1 0
vn 0 1 0
vn 0 1 0
vn 0 1 0
vn 0 1 0
vn 0 1 0
vn 0 1 0
vn 0 1 0
vn 0 1 0
vn 0 1 0
vn 0 1 0
vn 0 1 0
vn 0 1 0
vn 0 1 0
vn 0 1 0
vn 0 1 0
vn 0 1 0
vn 0 1 0
vn 0 1 0
vn 0 1 0
vn 0 1 0
vn 0 1 0
vn 0 1 0
vn 0 1 0
vn 0 1 0
vn 0 1 0
vn 0 1 0
vn 0 1 0
vn 0 1 0
vn 0 1 0
vn 0 1 0
vn 0 1 0
vn 0 1 0
vn 0 1 0
vn 0 1 0
vn 0 1 0
vn 0 1 0
vn 0 1 0
vn 0 1 0
vn 0 1 0
vn 0 1 0
vn 0 1 0
vn 0 1 0
vn 0 1 0
vn 0 1 0
vn 0 1 0
vn 0 1 0
vn 0 1 0
vn 0 1 0
vn 0 1 0
vn 0 1 0
vn 0 1 0
vn 0 1 0
vn 0 1 0
vn 0 1 0
vn 0 1 0
vn 0 1 0
vn 0 1 0
vn 0 1 0
vn 0 1 0
vn 0 1 0
vn 0 1 0
vn 0 1 0
vn 0 1 0
vn 0 1 0
vn 0 1 0
vn 0 1 0
vn 0 1 0
vn 0 1 0
vn 0 1 0
vn 0 1 0
vn 0 1 0
vn 0 1 0
vn 0 1 0
vn 0 1 0
vn 0 1 0
vn 0 1 0
vn 0 1 0
vn 0 1 0
vn 0 1 0
vn 0 1 0
vn 0 1 0
vn 0 1 0
vn 0 1 0
vn 0 1 0
vn 0 1 0
vn 0 1 0
vn 0 1 0
vn 0 1 0
vn 0 1 0
vn 0 1 0
vn 0 1 0
vn 0 1 0
vn 0 1 0
vn 0 1 0
vn 0 1 0
vn 0 1 0
vn 0 1 0
vn 0 1 0
vn 0 1 0
vn 0 1 0
vn 0 1 0
vn 0 1 0
vn 0 1 0
vn 0 1 0
vn 0 1 0
vn 0 1 0
vn 0 1 0
vn 0 1 0
vn 0 1 0
vn 0 1 0
vn 0 1 0
vn 0 1 0
g AttackHint_Circle_01_0
f 2/2/2 49/49/49 1/1/1
f 3/3/3 51/51/51 50/50/50
f 4/4/4 53/53/53 52/52/52
f 5/5/5 55/55/55 54/54/54
f 6/6/6 57/57/57 56/56/56
f 7/7/7 59/59/59 58/58/58
f 8/8/8 61/61/61 60/60/60
f 9/9/9 63/63/63 62/62/62
f 10/10/10 65/65/65 64/64/64
f 11/11/11 67/67/67 66/66/66
f 12/12/12 69/69/69 68/68/68
f 13/13/13 71/71/71 70/70/70
f 14/14/14 73/73/73 72/72/72
f 15/15/15 75/75/75 74/74/74
f 16/16/16 77/77/77 76/76/76
f 17/17/17 79/79/79 78/78/78
f 18/18/18 81/81/81 80/80/80
f 19/19/19 83/83/83 82/82/82
f 20/20/20 85/85/85 84/84/84
f 21/21/21 87/87/87 86/86/86
f 22/22/22 89/89/89 88/88/88
f 23/23/23 91/91/91 90/90/90
f 24/24/24 93/93/93 92/92/92
f 25/25/25 95/95/95 94/94/94
f 26/26/26 97/97/97 96/96/96
f 27/27/27 99/99/99 98/98/98
f 28/28/28 101/101/101 100/100/100
f 29/29/29 103/103/103 102/102/102
f 30/30/30 105/105/105 104/104/104
f 31/31/31 107/107/107 106/106/106
f 32/32/32 109/109/109 108/108/108
f 33/33/33 111/111/111 110/110/110
f 34/34/34 113/113/113 112/112/112
f 35/35/35 115/115/115 114/114/114
f 36/36/36 117/117/117 116/116/116
f 37/37/37 119/119/119 118/118/118
f 38/38/38 121/121/121 120/120/120
f 39/39/39 123/123/123 122/122/122
f 40/40/40 125/125/125 124/124/124
f 41/41/41 127/127/127 126/126/126
f 42/42/42 129/129/129 128/128/128
f 43/43/43 131/131/131 130/130/130
f 44/44/44 133/133/133 132/132/132
f 45/45/45 135/135/135 134/134/134
f 46/46/46 137/137/137 136/136/136
f 47/47/47 139/139/139 138/138/138
f 48/48/48 141/141/141 140/140/140
f 144/144/144 143/143/143 142/142/142
