g Bingtanghulu_partA
v 0.01867965 -0.01867965 -1.457124
v -0.01867964 -0.01867965 -1.457124
v -0.01177321 -0.01177322 -1.409261
v 0.01177322 -0.01177322 -1.409261
v 3.238436E-09 -1.619218E-09 -1.543785
v 0.01177322 -0.01177322 -0.05629234
v -0.01177321 -0.01177322 -0.05629234
v 3.238436E-09 -1.619218E-09 0
v -0.01867964 -0.01867965 -1.457124
v -0.01867964 0.01867964 -1.457124
v -0.01177321 0.01177322 -1.409261
v -0.01177321 -0.01177322 -1.409261
v -0.01177321 -0.01177322 -0.05629234
v -0.01177321 0.01177322 -0.05629234
v -0.01867964 0.01867964 -1.457124
v 0.01867965 0.01867965 -1.457124
v 0.01177322 0.01177322 -1.409261
v -0.01177321 0.01177322 -1.409261
v -0.01177321 0.01177322 -0.05629234
v 0.01177322 0.01177322 -0.05629234
v 0.01867965 0.01867965 -1.457124
v 0.01867965 -0.01867965 -1.457124
v 0.01177322 -0.01177322 -1.409261
v 0.01177322 0.01177322 -1.409261
v 0.01177322 0.01177322 -0.05629234
v 0.01177322 -0.01177322 -0.05629234
vt 0.8977966 0.9246197
vt 0.9730269 0.9246197
vt 0.9591195 0.9057527
vt 0.9117041 0.9057527
vt 0.9354118 0.976048
vt 0.911704 0.06595778
vt 0.9591193 0.06595777
vt 0.9354118 0.0268862
vt 0.8977965 0.9246197
vt 0.9730269 0.9246197
vt 0.9591193 0.9057527
vt 0.9117039 0.9057527
vt 0.9117042 0.06595777
vt 0.9591194 0.06595777
vt 0.8977966 0.9246197
vt 0.9730269 0.9246197
vt 0.9591194 0.9057527
vt 0.911704 0.9057527
vt 0.9117042 0.06595778
vt 0.9591194 0.06595776
vt 0.8977965 0.9246198
vt 0.9730269 0.9246197
vt 0.9591196 0.9057527
vt 0.9117042 0.9057527
vt 0.9117042 0.06595777
vt 0.9591194 0.06595777
vn 0.7062659 -0.7062664 -0.04874777
vn -0.7062665 -0.7062659 -0.04874744
vn -0.7034919 -0.7034919 0.1009875
vn 0.7034919 -0.7034919 0.1009874
vn 0 0 -1
vn 0.6996584 -0.6996582 0.1447633
vn -0.6996582 -0.6996584 0.1447634
vn 5.184636E-07 0 1
vn -0.7062665 -0.7062659 -0.04874744
vn -0.7062659 0.7062664 -0.04874745
vn -0.7034919 0.7034919 0.1009875
vn -0.7034919 -0.7034919 0.1009875
vn -0.6996582 -0.6996584 0.1447634
vn -0.6996582 0.6996584 0.1447634
vn -0.7062659 0.7062664 -0.04874745
vn 0.7062665 0.7062659 -0.04874771
vn 0.7034919 0.7034919 0.1009874
vn -0.7034919 0.7034919 0.1009875
vn -0.6996582 0.6996584 0.1447634
vn 0.6996584 0.6996582 0.1447633
vn 0.7062665 0.7062659 -0.04874771
vn 0.7062659 -0.7062664 -0.04874777
vn 0.7034919 -0.7034919 0.1009874
vn 0.7034919 0.7034919 0.1009874
vn 0.6996584 0.6996582 0.1447633
vn 0.6996584 -0.6996582 0.1447633
g Bingtanghulu_partA_0
f 3/3/3 2/2/2 1/1/1
f 4/4/4 3/3/3 1/1/1
f 2/2/2 5/5/5 1/1/1
f 4/4/4 6/6/6 3/3/3
f 6/6/6 7/7/7 3/3/3
f 6/6/6 8/8/8 7/7/7
f 10/10/10 5/5/5 9/9/9
f 11/11/11 10/10/10 9/9/9
f 12/12/12 11/11/11 9/9/9
f 12/12/12 13/13/13 11/11/11
f 13/13/13 14/14/14 11/11/11
f 13/13/13 8/8/8 14/14/14
f 16/16/16 5/5/5 15/15/15
f 17/17/17 16/16/16 15/15/15
f 18/18/18 17/17/17 15/15/15
f 17/17/17 18/18/18 19/19/19
f 20/20/20 17/17/17 19/19/19
f 19/19/19 8/8/8 20/20/20
f 22/22/22 5/5/5 21/21/21
f 23/23/23 22/22/22 21/21/21
f 24/24/24 23/23/23 21/21/21
f 24/24/24 25/25/25 23/23/23
f 25/25/25 26/26/26 23/23/23
f 25/25/25 8/8/8 26/26/26
