g BombOfBucketExploded2
v -0.1457304 0.09005783 -0.01809436
v -0.1356533 0.136803 -0.0340955
v -0.1328263 0.1476271 0.01837157
v -0.1401824 0.09507748 0.01321376
v -0.1045088 0.1881996 0.02163136
v -0.1065209 0.1707899 -0.04190923
v -0.1153053 0.03534411 0.006728224
v -0.108563 0.07449455 0.0399792
v -0.07671707 0.03776461 0.05067952
v -0.0593766 0.01019537 0.03274168
v -0.009585113 0.02323335 0.03993514
v -0.0354232 0.05981027 0.06043988
v 0.02896843 0.05101766 0.03547335
v -7.377625E-05 0.08968805 0.05893361
v -0.1240652 0.1199347 -0.05585984
v -0.06593933 0.002250266 -0.0056059
v -0.01455414 0.008568521 -0.02167665
v -0.09280632 0.1520309 -0.06777833
v 0.0262207 0.03646581 -0.02710442
v -0.06260498 0.2137314 0.01340942
v 0.05564781 0.0761153 -0.02942513
v 0.06149338 0.08368579 0.02896152
v 0.08317985 0.1165498 0.01625276
v 0.03425033 0.1230441 0.05482595
v 0.06156372 0.1511478 0.04532627
v 0.1055997 0.1673057 -0.003214626
v 0.09139977 0.1884621 0.01605544
v 0.06132156 0.2167783 0.01225349
v 0.0171196 0.2004095 0.04283193
v 0.007991638 0.1511368 0.05216197
v 0.03673767 0.2324722 -0.01304615
v -0.02320076 0.2252253 0.003022921
v -0.06991401 0.199561 -0.04541154
v -0.03152695 0.2137067 -0.04511815
v -0.04365608 0.2023342 0.0446734
v 0.03212654 0.2296709 -0.04532482
v 0.07660286 0.2247121 -0.02453063
v 0.0747081 0.2231809 -0.03505592
v 0.0910025 0.2150476 -0.0280187
v 0.08515991 0.2187577 -0.01519963
v 0.0962033 0.2091655 -0.01360542
v 0.1022767 0.2014617 -0.01948137
v -0.01945633 0.1986261 -0.06383621
v -0.05607971 0.1795614 -0.07000351
v 0.08004783 0.2153599 -0.04104555
v 0.09021202 0.2059557 -0.03905794
v 0.09966408 0.2003612 -0.0302444
v 0.04919586 0.2050953 -0.06156182
v 0.1012621 0.1645801 -0.03197154
v 0.07904915 0.113129 -0.02898995
v 0.07854439 0.1790946 -0.06092376
v 0.01922195 0.1599043 -0.06621655
v 0.06492294 0.1233654 -0.05221698
v -0.003883667 0.1801819 -0.07335443
v -0.03897751 0.1574868 -0.08161265
v -0.01276123 0.1319789 -0.07331746
v -0.04682831 0.1001692 -0.07858025
v -0.07501961 0.1294456 -0.08176462
v -0.1063538 0.09903605 -0.06680486
v -0.08095123 0.0687231 -0.06818037
v -0.1247071 0.06041218 -0.03898829
v -0.1086685 0.04192938 -0.03996177
v -0.01539589 0.06449872 -0.08455037
v 0.02075638 0.1041213 -0.08121632
v 0.008427429 0.04422142 -0.06596029
v -0.05263305 0.03363552 -0.071178
v -0.03201561 0.01546727 -0.05061086
v -0.09254677 0.02139769 -0.03689228
v -0.07678939 0.008604565 -0.02252266
v 0.04308144 0.0853999 -0.06099494
v 0.04548531 0.1383552 -0.07354082
v -0.1117114 0.1354233 0.04329648
v -0.08489212 0.1140824 0.04781064
v -0.059403 0.08640457 0.04983915
v -0.05533607 0.1495171 0.0542284
v -0.08330963 0.1739368 0.05007033
v -0.02855644 0.1176764 0.04727887
v -0.01754158 0.1811934 0.0544552
vt 0.7316015 0.04118884
vt 0.6781645 0.1000116
vt 0.7391311 0.1095286
vt 0.7649284 0.0565708
vt 0.7302266 0.1595276
vt 0.6665751 0.1497518
vt 0.8134001 0.008556485
vt 0.812876 0.05944259
vt 0.8609622 0.05685189
vt 0.8936427 0.04060178
vt 0.9474235 0.09894598
vt 0.8868137 0.1088084
vt 0.9593988 0.1486885
vt 0.8960125 0.1585859
vt 0.7086478 0.1047701
vt 0.8609622 0.05685188
vt 0.8868136 0.1088084
vt 0.6984009 0.1546397
vt 0.8960126 0.1585859
vt 0.7285222 0.2262926
vt 0.8983148 0.2252012
vt 0.9655333 0.214657
vt 0.9551571 0.2830934
vt 0.8983148 0.2252012
vt 0.8944114 0.283475
vt 0.9052286 0.406051
vt 0.8667826 0.3830839
vt 0.8140124 0.3745843
vt 0.8136546 0.2853205
vt 0.8558979 0.2269347
vt 0.7608241 0.3826695
vt 0.7330055 0.2847036
vt 0.6611565 0.2158471
vt 0.6726512 0.2844394
vt 0.7710016 0.2274804
vt 0.7233246 0.4067113
vt 0.7915286 0.4422222
vt 0.7769726 0.4511738
vt 0.8134 0.4642154
vt 0.8140674 0.4393466
vt 0.8364564 0.4421284
vt 0.8513838 0.450904
vt 0.7028284 0.2845716
vt 0.6948394 0.2210698
vt 0.7915285 0.4422221
vt 0.8140674 0.4393466
vt 0.8364564 0.4421284
vt 0.7608241 0.3826695
vt 0.8667827 0.3830839
vt 0.8944114 0.283475
vt 0.8140124 0.3745843
vt 0.7733301 0.2850121
vt 0.854033 0.2843978
vt 0.7330055 0.2847036
vt 0.7285222 0.2262926
vt 0.7710016 0.2274804
vt 0.7717465 0.1608174
vt 0.7302266 0.1595276
vt 0.7391311 0.1095286
vt 0.7761353 0.1104199
vt 0.7649284 0.0565708
vt 0.7889023 0.0580067
vt 0.8132665 0.1621072
vt 0.813481 0.2286682
vt 0.8546395 0.1603465
vt 0.8131394 0.1113113
vt 0.8499765 0.1100598
vt 0.8128761 0.05944261
vt 0.8369192 0.05814724
vt 0.8558979 0.2269347
vt 0.8136546 0.2853206
vt 0.7761353 0.1104199
vt 0.8131394 0.1113113
vt 0.8499765 0.1100598
vt 0.8132665 0.1621072
vt 0.7717465 0.1608174
vt 0.8546395 0.1603465
vt 0.813481 0.2286681
vn -0.9923616 -0.0952887 -0.07834865
vn -0.8825332 0.4113616 -0.2278525
vn -0.8717179 0.4369754 0.2217212
vn -0.9329407 -0.0519613 0.3562606
vn -0.6244187 0.7610484 0.1758028
vn -0.6249247 0.6981761 -0.3493125
vn -0.7394322 -0.5994158 0.3064974
vn -0.5637857 -0.2017059 0.8009123
vn -0.2767891 -0.4215952 0.8635076
vn -0.01784029 -0.8559472 0.5167553
vn 0.3748958 -0.7397202 0.5588086
vn 0.06808781 -0.1811475 0.9810961
vn 0.6502714 -0.5601397 0.513216
vn 0.1934495 -0.05556813 0.9795353
vn -0.6560037 0.1332552 -0.7429012
vn -0.0409319 -0.9968314 0.06820477
vn 0.3772853 -0.9253042 -0.03831438
vn -0.4346454 0.397176 -0.8082912
vn 0.7043354 -0.6979444 -0.1295581
vn -0.3860853 0.9195496 0.07325681
vn 0.8384702 -0.5051203 -0.2045024
vn 0.7754548 -0.4253465 0.4666371
vn 0.8755264 -0.3176495 0.3640774
vn 0.3286355 -0.04478271 0.9433945
vn 0.5429249 0.1150911 0.8318573
vn 0.940634 -0.1642537 0.2970326
vn 0.6061261 0.2861684 0.7421043
vn 0.2809756 0.6901419 0.6669009
vn 0.1920757 0.6452745 0.7394104
vn 0.07382174 0.08614828 0.9935436
vn -0.002599238 0.9796017 0.2009319
vn -0.1258708 0.9867038 0.1028212
vn -0.4077867 0.8352159 -0.3689505
vn -0.218695 0.9118223 -0.3474947
vn -0.112438 0.6310318 0.7675654
vn -0.06457248 0.9203073 -0.38583
vn 0.26374 0.9587743 0.105797
vn 0.226146 0.863766 -0.4502958
vn 0.6824523 0.6956629 -0.2243034
vn 0.4404209 0.7863311 0.4332582
vn 0.6890676 0.5491585 0.472875
vn 0.9687735 0.2302547 0.09198119
vn -0.08653581 0.6016433 -0.7940635
vn -0.2304436 0.5437031 -0.8070208
vn 0.3657418 0.545054 -0.7544197
vn 0.6439838 0.2752692 -0.713801
vn 0.8838935 0.08968011 -0.4590094
vn 0.1761829 0.4080276 -0.8958086
vn 0.9066887 -0.2586145 -0.3332177
vn 0.87225 -0.4281276 -0.2364034
vn 0.5192068 0.07151722 -0.8516511
vn 0.1245245 0.1556884 -0.9799259
vn 0.6994621 -0.2884484 -0.6538733
vn 0.1497274 0.2146704 -0.9651416
vn 0.0583067 0.1790774 -0.9821057
vn 0.08974113 0.1345789 -0.9868308
vn -0.08578563 -0.0005829483 -0.9963135
vn -0.1637548 0.05017833 -0.9852241
vn -0.4152311 -0.1558002 -0.8962753
vn -0.3547618 -0.2444734 -0.9024283
vn -0.7089587 -0.4165304 -0.5691045
vn -0.5754709 -0.4627646 -0.6743013
vn 0.1068875 -0.1839891 -0.9770993
vn 0.3031785 0.01053254 -0.9528756
vn 0.504738 -0.5523178 -0.663464
vn -0.2022241 -0.49036 -0.8477337
vn 0.1272125 -0.8322093 -0.5396708
vn -0.4659929 -0.6664186 -0.5820109
vn -0.2391603 -0.913687 -0.3286008
vn 0.6782916 -0.3313641 -0.6558341
vn 0.3362811 0.04974422 -0.940447
vn -0.502022 0.1204964 0.8564196
vn -0.1071149 -0.0583317 0.992534
vn -0.1089513 0.0788983 0.990911
vn -0.009320124 0.02986277 0.9995105
vn -0.3205546 0.4153723 0.8512993
vn -0.006363095 0.05987748 0.9981855
vn 0.09058976 0.1377909 0.9863099
g BombOfBucketExploded2_0
f 3/3/3 2/2/2 1/1/1
f 4/4/4 3/3/3 1/1/1
f 3/3/3 5/5/5 2/2/2
f 5/5/5 6/6/6 2/2/2
f 1/1/1 7/7/7 4/4/4
f 4/4/4 7/7/7 8/8/8
f 8/8/8 7/7/7 9/9/9
f 9/9/9 7/7/7 10/10/10
f 10/10/10 11/11/11 9/9/9
f 11/11/11 12/12/12 9/9/9
f 11/11/11 13/13/13 12/12/12
f 13/13/13 14/14/14 12/12/12
f 2/2/2 15/15/15 1/1/1
f 11/11/11 10/10/10 16/16/16
f 7/7/7 16/16/16 10/10/10
f 17/17/17 11/11/11 16/16/16
f 13/13/13 11/11/11 17/17/17
f 18/18/18 15/15/15 2/2/2
f 6/6/6 18/18/18 2/2/2
f 19/19/19 13/13/13 17/17/17
f 5/5/5 20/20/20 6/6/6
f 19/19/19 21/21/21 13/13/13
f 21/21/21 22/22/22 13/13/13
f 13/13/13 22/22/22 14/14/14
f 23/23/23 22/22/22 21/21/21
f 22/22/22 23/23/23 24/24/24
f 22/22/22 24/24/24 14/14/14
f 23/23/23 25/25/25 24/24/24
f 23/23/23 26/26/26 25/25/25
f 26/26/26 27/27/27 25/25/25
f 25/25/25 27/27/27 28/28/28
f 29/29/29 25/25/25 28/28/28
f 30/30/30 25/25/25 29/29/29
f 30/30/30 24/24/24 25/25/25
f 28/28/28 31/31/31 29/29/29
f 31/31/31 32/32/32 29/29/29
f 20/20/20 32/32/32 33/33/33
f 32/32/32 34/34/34 33/33/33
f 32/32/32 31/31/31 34/34/34
f 29/29/29 32/32/32 35/35/35
f 31/31/31 36/36/36 34/34/34
f 31/31/31 37/37/37 36/36/36
f 37/37/37 31/31/31 28/28/28
f 37/37/37 38/38/38 36/36/36
f 37/37/37 39/39/39 38/38/38
f 40/40/40 39/39/39 37/37/37
f 40/40/40 37/37/37 28/28/28
f 41/41/41 39/39/39 40/40/40
f 28/28/28 27/27/27 41/41/41
f 40/40/40 28/28/28 41/41/41
f 42/42/42 39/39/39 41/41/41
f 42/42/42 41/41/41 27/27/27
f 26/26/26 42/42/42 27/27/27
f 34/34/34 43/43/43 33/33/33
f 36/36/36 43/43/43 34/34/34
f 43/43/43 44/44/44 33/33/33
f 39/39/39 45/45/45 38/38/38
f 38/38/38 45/45/45 36/36/36
f 39/39/39 46/46/46 45/45/45
f 39/39/39 47/47/47 46/46/46
f 39/39/39 42/42/42 47/47/47
f 45/45/45 48/48/48 36/36/36
f 45/45/45 46/46/46 48/48/48
f 36/36/36 48/48/48 43/43/43
f 42/42/42 26/26/26 49/49/49
f 47/47/47 42/42/42 49/49/49
f 49/49/49 26/26/26 50/50/50
f 26/26/26 23/23/23 50/50/50
f 50/50/50 23/23/23 21/21/21
f 47/47/47 49/49/49 51/51/51
f 46/46/46 47/47/47 51/51/51
f 46/46/46 51/51/51 48/48/48
f 48/48/48 51/51/51 52/52/52
f 51/51/51 49/49/49 53/53/53
f 49/49/49 50/50/50 53/53/53
f 48/48/48 54/54/54 43/43/43
f 43/43/43 54/54/54 44/44/44
f 48/48/48 52/52/52 54/54/54
f 54/54/54 52/52/52 55/55/55
f 54/54/54 55/55/55 44/44/44
f 52/52/52 56/56/56 55/55/55
f 55/55/55 56/56/56 57/57/57
f 58/58/58 55/55/55 57/57/57
f 58/58/58 57/57/57 59/59/59
f 57/57/57 60/60/60 59/59/59
f 59/59/59 60/60/60 61/61/61
f 60/60/60 62/62/62 61/61/61
f 44/44/44 55/55/55 58/58/58
f 18/18/18 44/44/44 58/58/58
f 33/33/33 44/44/44 18/18/18
f 6/6/6 33/33/33 18/18/18
f 20/20/20 33/33/33 6/6/6
f 58/58/58 59/59/59 15/15/15
f 18/18/18 58/58/58 15/15/15
f 15/15/15 59/59/59 61/61/61
f 57/57/57 56/56/56 63/63/63
f 57/57/57 63/63/63 60/60/60
f 56/56/56 64/64/64 63/63/63
f 63/63/63 64/64/64 65/65/65
f 63/63/63 65/65/65 66/66/66
f 63/63/63 66/66/66 60/60/60
f 60/60/60 66/66/66 62/62/62
f 65/65/65 67/67/67 66/66/66
f 66/66/66 67/67/67 68/68/68
f 66/66/66 68/68/68 62/62/62
f 67/67/67 69/69/69 68/68/68
f 7/7/7 62/62/62 68/68/68
f 7/7/7 68/68/68 69/69/69
f 7/7/7 61/61/61 62/62/62
f 7/7/7 1/1/1 61/61/61
f 64/64/64 70/70/70 65/65/65
f 53/53/53 70/70/70 64/64/64
f 71/71/71 53/53/53 64/64/64
f 71/71/71 64/64/64 56/56/56
f 52/52/52 71/71/71 56/56/56
f 53/53/53 50/50/50 70/70/70
f 50/50/50 21/21/21 70/70/70
f 70/70/70 21/21/21 19/19/19
f 65/65/65 70/70/70 19/19/19
f 65/65/65 19/19/19 67/67/67
f 19/19/19 17/17/17 67/67/67
f 67/67/67 17/17/17 69/69/69
f 17/17/17 16/16/16 69/69/69
f 7/7/7 69/69/69 16/16/16
f 51/51/51 71/71/71 52/52/52
f 51/51/51 53/53/53 71/71/71
f 1/1/1 15/15/15 61/61/61
f 8/8/8 73/73/73 72/72/72
f 73/73/73 8/8/8 74/74/74
f 73/73/73 75/75/75 72/72/72
f 75/75/75 76/76/76 72/72/72
f 77/77/77 75/75/75 73/73/73
f 74/74/74 77/77/77 73/73/73
f 77/77/77 30/30/30 75/75/75
f 30/30/30 78/78/78 75/75/75
f 75/75/75 78/78/78 76/76/76
f 78/78/78 35/35/35 76/76/76
f 76/76/76 35/35/35 5/5/5
f 35/35/35 20/20/20 5/5/5
f 76/76/76 5/5/5 3/3/3
f 72/72/72 76/76/76 3/3/3
f 72/72/72 3/3/3 4/4/4
f 8/8/8 72/72/72 4/4/4
f 35/35/35 32/32/32 20/20/20
f 78/78/78 29/29/29 35/35/35
f 78/78/78 30/30/30 29/29/29
f 74/74/74 12/12/12 77/77/77
f 12/12/12 14/14/14 77/77/77
f 77/77/77 14/14/14 30/30/30
f 14/14/14 24/24/24 30/30/30
f 9/9/9 12/12/12 74/74/74
f 8/8/8 9/9/9 74/74/74
