g BombOfBucketExploded1
v -0.1750492 0.09052686 7.08578E-09
v -0.1628262 0.1537846 3.580806E-08
v -0.1425314 0.132811 0.07521505
v -0.1622055 0.07627916 0.04527417
v -0.09203663 0.07787381 0.1055911
v -0.1310309 0.04164272 0.06405801
v -0.05176666 0.03330665 0.07501024
v -0.105367 0.01304052 0.04539629
v -0.03588272 0.01648977 2.032243E-08
v -0.09488788 0.001394081 6.251771E-09
v -0.09380584 0.1751011 0.08146341
v -0.1147415 0.1958599 8.939333E-05
v -0.04172386 0.1231792 0.1146313
v 0.001995087 0.07580461 0.08087581
v 0.01257271 0.06453008 0.0003931037
v -0.02896011 0.2031476 0.06451964
v -0.03999191 0.2153725 0.0007706706
v 0.01171822 0.1635216 0.09044162
v 0.04673035 0.1302647 0.0645459
v 0.0526033 0.1205949 0.0009047925
v 0.03008758 0.2235765 0.03675704
v 0.02124619 0.2330538 0.002032993
v 0.05213135 0.2002106 0.05182336
v 0.07276337 0.1799961 0.03708635
v 0.08064926 0.1701791 0.002001571
v 0.07589523 0.2647082 0.02907559
v 0.06821495 0.2730673 0.002062916
v 0.1228951 0.219126 0.002080476
v 0.114119 0.2280462 0.02916909
v 0.09420066 0.2476815 0.04100769
v 0.1572967 0.2367708 0.001543574
v 0.1460571 0.2475347 0.03526029
v 0.1207496 0.2710247 0.04932218
v 0.09592163 0.2943221 0.03508873
v 0.08705124 0.3033641 0.001606072
v 0.1733588 0.2596935 0.001143105
v 0.1639005 0.2690021 0.03080371
v 0.1423687 0.2903759 0.04327755
v 0.1205272 0.3117981 0.03086685
v 0.1114164 0.320869 0.001196164
v 0.1435486 0.3171222 0.01934894
v 0.1380073 0.3226217 0.0008771798
v 0.1637936 0.3093615 0.0006701857
v 0.1570084 0.3038811 0.02698396
v 0.1706659 0.2904758 0.01931763
v 0.1764996 0.2848026 0.0008296789
v 0.1435286 0.3172001 -0.01767247
v 0.157039 0.3039349 -0.02556168
v 0.1706644 0.2905168 -0.01777656
v 0.1205705 0.3118125 -0.02860145
v 0.09597328 0.2943392 -0.03194496
v 0.1425076 0.2903493 -0.04142021
v 0.1208078 0.2710195 -0.04651967
v 0.07586731 0.2646503 -0.02468359
v 0.09435936 0.2474136 -0.03649323
v 0.02967773 0.2232713 -0.0328839
v -0.02948669 0.2027484 -0.06237402
v -0.09415283 0.1748576 -0.08037878
v -0.1425945 0.1327664 -0.0750236
v -0.1622055 0.07627913 -0.04527415
v -0.09220539 0.0777422 -0.1050579
v -0.1309927 0.04158884 -0.064058
v -0.05187576 0.03320896 -0.07464024
v -0.105367 0.01304048 -0.04539629
v -0.04220543 0.1228059 -0.1130312
v 0.001619568 0.07547093 -0.07953437
v 0.01094841 0.1629063 -0.08726648
v 0.04624725 0.1298353 -0.0621962
v 0.05174804 0.1999012 -0.04805361
v 0.07243256 0.1797383 -0.03327765
v -0.1462778 0.02775774 7.328249E-18
v 0.1140918 0.2279925 -0.02481835
v 0.1461095 0.2475519 -0.03221924
v 0.1639558 0.269006 -0.02864834
vt 0.7394574 0.04118884
vt 0.6836457 0.1075675
vt 0.7593014 0.1344041
vt 0.7804808 0.07249006
vt 0.8242955 0.1412967
vt 0.8242956 0.08092783
vt 0.8883271 0.1339539
vt 0.8667161 0.07218868
vt 0.9637941 0.1065895
vt 0.9075201 0.04060178
vt 0.7501563 0.1991851
vt 0.6595416 0.1919361
vt 0.8242955 0.2016098
vt 0.8979247 0.1986694
vt 0.9884869 0.1907874
vt 0.7524573 0.2742999
vt 0.6708592 0.286714
vt 0.8242955 0.2719563
vt 0.8961486 0.2737984
vt 0.9778313 0.2856419
vt 0.7681126 0.3625911
vt 0.7142387 0.3756101
vt 0.8242955 0.3590719
vt 0.8811096 0.3621965
vt 0.9350739 0.3748392
vt 0.7825904 0.4655162
vt 0.7421751 0.4719399
vt 0.9078109 0.4713619
vt 0.8673534 0.4655163
vt 0.8242955 0.4636618
vt 0.9072953 0.5310835
vt 0.8637447 0.522907
vt 0.8242955 0.5200443
vt 0.7866002 0.5231763
vt 0.7431079 0.5316569
vt 0.8947374 0.5697373
vt 0.8575387 0.5537164
vt 0.8242955 0.5493479
vt 0.793021 0.5539414
vt 0.7559352 0.5702218
vt 0.8032855 0.5807008
vt 0.7830046 0.5977188
vt 0.8242955 0.6124724
vt 0.8242955 0.5758044
vt 0.8474615 0.5805464
vt 0.8678607 0.5974228
vt 0.8032855 0.5807008
vt 0.8242955 0.5758044
vt 0.8474615 0.5805464
vt 0.793021 0.5539414
vt 0.7866002 0.5231763
vt 0.8242955 0.5493479
vt 0.8242955 0.5200443
vt 0.7825904 0.4655162
vt 0.8242955 0.4636618
vt 0.7681126 0.3625911
vt 0.7524573 0.2742999
vt 0.7501563 0.1991851
vt 0.7593014 0.1344041
vt 0.7804808 0.07249006
vt 0.8242955 0.1412967
vt 0.8242956 0.08092783
vt 0.8883271 0.1339539
vt 0.8667161 0.07218868
vt 0.8242955 0.2016098
vt 0.8979247 0.1986694
vt 0.8242955 0.2719563
vt 0.8961486 0.2737984
vt 0.8242955 0.3590719
vt 0.8811096 0.3621965
vt 0.8242956 0.008556493
vt 0.8673534 0.4655163
vt 0.8637447 0.522907
vt 0.8575387 0.5537164
vn -0.9982606 0.05895466 0.0002557668
vn -0.8409375 0.5411322 0.0003473338
vn -0.6818058 0.3181262 0.6587387
vn -0.8576236 -0.1037732 0.5036992
vn -0.2368388 -0.2207405 0.9461401
vn -0.5160335 -0.4743255 0.7132494
vn 0.3164923 -0.7400413 0.5934404
vn -0.07117192 -0.8804625 0.4687432
vn 0.5050132 -0.8631116 -0.0001695652
vn 0.09308383 -0.9956582 0.0003602937
vn -0.3629394 0.6542918 0.6634586
vn -0.4968508 0.8678357 -0.0006266183
vn 0.07212043 0.0790083 0.9942617
vn 0.600192 -0.5366811 0.5930791
vn 0.7328714 -0.6803672 -2.686809E-06
vn -0.1266472 0.8041193 0.5808205
vn -0.2745753 0.9615647 -0.001306379
vn 0.3127497 0.280148 0.9075819
vn 0.7691581 -0.3452874 0.5377476
vn 0.84262 -0.5385067 -0.001453319
vn -0.1838891 0.7799441 0.598224
vn -0.3824559 0.9239737 0.0003425789
vn 0.316636 0.3114537 0.8959566
vn 0.7589755 -0.3025385 0.5765645
vn 0.8553092 -0.5181176 -0.0005705003
vn -0.5240909 0.5045635 0.6861082
vn -0.7344013 0.6787154 0.0004078361
vn 0.6695031 -0.7428088 0.000847359
vn 0.4995735 -0.5302445 0.6850308
vn 0.004797349 0.003146682 0.9999835
vn 0.663718 -0.7479829 -0.0002157348
vn 0.4602683 -0.5235877 0.7169442
vn -0.02383654 -0.02898726 0.9992955
vn -0.5459863 0.4647685 0.6970576
vn -0.7625456 0.6469343 -0.0005140394
vn 0.9194728 -0.3931528 -0.0007648034
vn 0.7110998 -0.1878649 0.6775278
vn 0.2431807 0.2684751 0.932086
vn -0.2315089 0.7163557 0.6582083
vn -0.4403673 0.8978172 -0.0009445778
vn 0.1452072 0.860256 0.4887479
vn 0.002117977 0.9999977 -0.0003517845
vn 0.6746259 0.7381598 -2.703825E-05
vn 0.4867295 0.5300413 0.6943706
vn 0.8400531 0.1912029 0.5076929
vn 0.999129 0.04170961 -0.001247961
vn 0.135114 0.860432 -0.4913257
vn 0.480135 0.5264032 -0.7016909
vn 0.8403522 0.1826392 -0.510344
vn -0.2470576 0.7084365 -0.6611204
vn -0.5606413 0.4472753 -0.696869
vn 0.2273919 0.2519368 -0.9406492
vn -0.04869217 -0.05279519 -0.9974175
vn -0.5277637 0.5001293 -0.6865393
vn -0.001781459 -0.005502297 -0.9999833
vn -0.1732799 0.7820414 -0.5986529
vn -0.1130296 0.8046634 -0.5828732
vn -0.3528036 0.6568643 -0.6663773
vn -0.6777142 0.3195812 -0.6622472
vn -0.8571333 -0.1036867 -0.5045508
vn -0.230169 -0.2157209 -0.9489397
vn -0.5145007 -0.4736349 -0.7148139
vn 0.3195381 -0.7360374 -0.5967783
vn -0.07065894 -0.8799759 -0.4697337
vn 0.08426304 0.08801648 -0.9925486
vn 0.6052644 -0.5277612 -0.595922
vn 0.322647 0.2889752 -0.901328
vn 0.7724684 -0.3337032 -0.5403097
vn 0.3221685 0.3182432 -0.8915878
vn 0.7615388 -0.2945135 -0.5773392
vn -0.740266 -0.672314 9.092853E-06
vn 0.4956492 -0.5374771 -0.6822392
vn 0.4447204 -0.5406265 -0.7141057
vn 0.7042249 -0.2053603 -0.6796283
g BombOfBucketExploded1_0
f 3/3/3 2/2/2 1/1/1
f 4/4/4 3/3/3 1/1/1
f 5/5/5 3/3/3 4/4/4
f 6/6/6 5/5/5 4/4/4
f 7/7/7 5/5/5 6/6/6
f 8/8/8 7/7/7 6/6/6
f 9/9/9 7/7/7 8/8/8
f 10/10/10 9/9/9 8/8/8
f 3/3/3 11/11/11 2/2/2
f 11/11/11 12/12/12 2/2/2
f 13/13/13 11/11/11 3/3/3
f 5/5/5 13/13/13 3/3/3
f 14/14/14 13/13/13 5/5/5
f 7/7/7 14/14/14 5/5/5
f 15/15/15 14/14/14 7/7/7
f 9/9/9 15/15/15 7/7/7
f 11/11/11 16/16/16 12/12/12
f 16/16/16 17/17/17 12/12/12
f 18/18/18 16/16/16 11/11/11
f 13/13/13 18/18/18 11/11/11
f 19/19/19 18/18/18 13/13/13
f 14/14/14 19/19/19 13/13/13
f 20/20/20 19/19/19 14/14/14
f 15/15/15 20/20/20 14/14/14
f 16/16/16 21/21/21 17/17/17
f 21/21/21 22/22/22 17/17/17
f 23/23/23 21/21/21 16/16/16
f 18/18/18 23/23/23 16/16/16
f 24/24/24 23/23/23 18/18/18
f 19/19/19 24/24/24 18/18/18
f 25/25/25 24/24/24 19/19/19
f 20/20/20 25/25/25 19/19/19
f 21/21/21 26/26/26 22/22/22
f 26/26/26 27/27/27 22/22/22
f 25/25/25 28/28/28 24/24/24
f 28/28/28 29/29/29 24/24/24
f 24/24/24 29/29/29 23/23/23
f 29/29/29 30/30/30 23/23/23
f 30/30/30 26/26/26 21/21/21
f 23/23/23 30/30/30 21/21/21
f 28/28/28 31/31/31 29/29/29
f 31/31/31 32/32/32 29/29/29
f 29/29/29 32/32/32 30/30/30
f 32/32/32 33/33/33 30/30/30
f 30/30/30 33/33/33 26/26/26
f 33/33/33 34/34/34 26/26/26
f 26/26/26 34/34/34 27/27/27
f 34/34/34 35/35/35 27/27/27
f 31/31/31 36/36/36 32/32/32
f 36/36/36 37/37/37 32/32/32
f 32/32/32 37/37/37 33/33/33
f 37/37/37 38/38/38 33/33/33
f 33/33/33 38/38/38 34/34/34
f 38/38/38 39/39/39 34/34/34
f 34/34/34 39/39/39 35/35/35
f 39/39/39 40/40/40 35/35/35
f 39/39/39 41/41/41 40/40/40
f 41/41/41 42/42/42 40/40/40
f 41/41/41 43/43/43 42/42/42
f 44/44/44 43/43/43 41/41/41
f 44/44/44 41/41/41 39/39/39
f 38/38/38 44/44/44 39/39/39
f 45/45/45 43/43/43 44/44/44
f 45/45/45 44/44/44 38/38/38
f 37/37/37 45/45/45 38/38/38
f 46/46/46 43/43/43 45/45/45
f 46/46/46 45/45/45 37/37/37
f 36/36/36 46/46/46 37/37/37
f 43/43/43 47/47/47 42/42/42
f 42/42/42 47/47/47 40/40/40
f 43/43/43 48/48/48 47/47/47
f 43/43/43 49/49/49 48/48/48
f 43/43/43 46/46/46 49/49/49
f 40/40/40 50/50/50 35/35/35
f 47/47/47 50/50/50 40/40/40
f 47/47/47 48/48/48 50/50/50
f 50/50/50 51/51/51 35/35/35
f 50/50/50 52/52/52 51/51/51
f 48/48/48 49/49/49 52/52/52
f 48/48/48 52/52/52 50/50/50
f 52/52/52 53/53/53 51/51/51
f 51/51/51 53/53/53 54/54/54
f 53/53/53 55/55/55 54/54/54
f 54/54/54 55/55/55 56/56/56
f 54/54/54 56/56/56 22/22/22
f 22/22/22 56/56/56 17/17/17
f 56/56/56 57/57/57 17/17/17
f 17/17/17 57/57/57 12/12/12
f 57/57/57 58/58/58 12/12/12
f 12/12/12 58/58/58 2/2/2
f 58/58/58 59/59/59 2/2/2
f 2/2/2 59/59/59 1/1/1
f 59/59/59 60/60/60 1/1/1
f 59/59/59 61/61/61 60/60/60
f 61/61/61 62/62/62 60/60/60
f 61/61/61 63/63/63 62/62/62
f 63/63/63 64/64/64 62/62/62
f 63/63/63 9/9/9 64/64/64
f 9/9/9 10/10/10 64/64/64
f 65/65/65 61/61/61 59/59/59
f 58/58/58 65/65/65 59/59/59
f 66/66/66 63/63/63 61/61/61
f 65/65/65 66/66/66 61/61/61
f 15/15/15 9/9/9 63/63/63
f 66/66/66 15/15/15 63/63/63
f 67/67/67 65/65/65 58/58/58
f 57/57/57 67/67/67 58/58/58
f 68/68/68 66/66/66 65/65/65
f 67/67/67 68/68/68 65/65/65
f 20/20/20 15/15/15 66/66/66
f 68/68/68 20/20/20 66/66/66
f 69/69/69 67/67/67 57/57/57
f 56/56/56 69/69/69 57/57/57
f 70/70/70 68/68/68 67/67/67
f 69/69/69 70/70/70 67/67/67
f 25/25/25 20/20/20 68/68/68
f 70/70/70 25/25/25 68/68/68
f 71/71/71 62/62/62 64/64/64
f 71/71/71 64/64/64 10/10/10
f 8/8/8 71/71/71 10/10/10
f 6/6/6 71/71/71 8/8/8
f 4/4/4 71/71/71 6/6/6
f 1/1/1 71/71/71 4/4/4
f 71/71/71 1/1/1 60/60/60
f 71/71/71 60/60/60 62/62/62
f 28/28/28 25/25/25 70/70/70
f 72/72/72 28/28/28 70/70/70
f 72/72/72 70/70/70 69/69/69
f 55/55/55 72/72/72 69/69/69
f 55/55/55 69/69/69 56/56/56
f 31/31/31 28/28/28 72/72/72
f 73/73/73 31/31/31 72/72/72
f 73/73/73 72/72/72 55/55/55
f 53/53/53 73/73/73 55/55/55
f 36/36/36 31/31/31 73/73/73
f 74/74/74 36/36/36 73/73/73
f 74/74/74 73/73/73 53/53/53
f 52/52/52 74/74/74 53/53/53
f 46/46/46 36/36/36 74/74/74
f 49/49/49 46/46/46 74/74/74
f 49/49/49 74/74/74 52/52/52
f 27/27/27 54/54/54 22/22/22
f 51/51/51 54/54/54 27/27/27
f 35/35/35 51/51/51 27/27/27
