g Box001
v 0.2036963 -0.2036963 0.002393536
v -0.2036963 -0.2036963 -0.00239354
v -0.2036963 -0.2036963 0.002393536
v 0.2036963 -0.2036963 -0.00239354
v 0.2036963 0.2036963 0.002393541
v 0.2036963 -0.2036963 -0.00239354
v 0.2036963 -0.2036963 0.002393536
v 0.2036963 0.2036963 -0.002393538
v -0.2036963 0.2036963 0.002393541
v 0.2036963 0.2036963 -0.002393538
v 0.2036963 0.2036963 0.002393541
v -0.2036963 0.2036963 -0.002393538
v -0.2036963 -0.2036963 0.002393536
v -0.2036963 0.2036963 -0.002393538
v -0.2036963 0.2036963 0.002393541
v -0.2036963 -0.2036963 -0.00239354
v -0.1891838 -0.1891837 0.002389901
v -0.2036963 0.2036963 0.002393541
v -0.1891838 0.1891838 0.002389904
v -0.2036963 -0.2036963 0.002393536
v 0.2036963 -0.2036963 0.002393536
v 0.1891838 -0.1891837 0.002389901
v 0.2036963 0.2036963 0.002393541
v 0.1891838 0.1891838 0.002389904
v 0.1891838 0.1891838 -0.002389901
v -0.2036963 0.2036963 -0.002393538
v -0.1891838 0.1891838 -0.002389901
v 0.2036963 0.2036963 -0.002393538
v 0.1891838 -0.1891837 -0.002389904
v 0.2036963 -0.2036963 -0.00239354
v -0.1891838 -0.1891837 -0.002389906
v -0.2036963 -0.2036963 -0.00239354
v 0.1891838 0.1891838 -0.002389901
v -0.1891838 0.1891838 0.002389904
v 0.1891838 0.1891838 0.002389904
v -0.1891838 0.1891838 -0.002389901
v -0.1891838 0.1891838 -0.002389901
v -0.1891838 -0.1891837 0.002389901
v -0.1891838 0.1891838 0.002389904
v -0.1891838 -0.1891837 -0.002389906
v 0.1891838 -0.1891837 -0.002389904
v -0.1891838 -0.1891837 0.002389901
v -0.1891838 -0.1891837 -0.002389906
v 0.1891838 -0.1891837 0.002389901
v 0.1891838 0.1891838 -0.002389901
v 0.1891838 -0.1891837 0.002389901
v 0.1891838 -0.1891837 -0.002389904
v 0.1891838 0.1891838 0.002389904
vt 1 1
vt 0 0
vt 0 1
vt 1 0
vt 1 1
vt 0 0
vt 0 1
vt 1 0
vt 1 1
vt 0 0
vt 0 1
vt 1 0
vt 1 1
vt 0 0
vt 0 1
vt 1 0
vt 0.1318048 0.1318048
vt 0 1
vt 0.1318047 0.8681953
vt 0 0
vt 1 0
vt 0.8681952 0.1318048
vt 1 1
vt 0.8681953 0.8681953
vt 0.1318047 0.8681952
vt 1 1
vt 0.8681952 0.8681953
vt 0 1
vt 0.1318047 0.1318048
vt 0 0
vt 0.8681952 0.1318048
vt 1 0
vt 0 0.4568654
vt 1 0.5673223
vt 0 0.5673223
vt 1 0.4568654
vt 0 0.4568654
vt 1 0.5673211
vt 0 0.5673223
vt 1 0.4568642
vt 1 0.4568642
vt 0 0.5673211
vt 0 0.4568642
vt 1 0.5673211
vt 1 0.4568654
vt 0 0.5673211
vt 0 0.4568642
vt 1 0.5673223
vn 0 -1 0
vn 0 -1 0
vn 0 -1 0
vn 0 -1 0
vn 1 0 0
vn 1 0 0
vn 1 0 0
vn 1 0 0
vn 0 1 0
vn 0 1 0
vn 0 1 0
vn 0 1 0
vn -1 0 0
vn -1 0 0
vn -1 0 0
vn -1 0 0
vn 0.0001252435 0.0001252314 1
vn 0.0001252834 -0.0001252935 1
vn 0.0001252854 -0.0001252934 1
vn 0.0001252427 0.0001252316 1
vn -0.0001252427 0.0001252315 1
vn -0.0001252435 0.0001252314 1
vn -0.0001252833 -0.0001252935 1
vn -0.0001252854 -0.0001252934 1
vn -0.0001253004 -0.0001252914 -1
vn 0.0001252987 -0.00012529 -1
vn 0.0001253019 -0.0001252899 -1
vn -0.0001252991 -0.0001252915 -1
vn -0.0001252719 0.0001252811 -1
vn -0.0001252714 0.0001252793 -1
vn 0.0001252349 0.0001252411 -1
vn 0.0001252336 0.0001252406 -1
vn 0 -1 0
vn 0 -1 0
vn 0 -1 0
vn 0 -1 0
vn 1 0 0
vn 1 0 0
vn 1 0 0
vn 1 0 0
vn 0 1 0
vn 0 1 0
vn 0 1 0
vn 0 1 0
vn -1 0 0
vn -1 0 0
vn -1 0 0
vn -1 0 0
g Box001_0
f 3/3/3 2/2/2 1/1/1
f 4/4/4 1/1/1 2/2/2
f 7/7/7 6/6/6 5/5/5
f 8/8/8 5/5/5 6/6/6
f 11/11/11 10/10/10 9/9/9
f 12/12/12 9/9/9 10/10/10
f 15/15/15 14/14/14 13/13/13
f 16/16/16 13/13/13 14/14/14
f 19/19/19 18/18/18 17/17/17
f 18/18/18 20/20/20 17/17/17
f 20/20/20 21/21/21 17/17/17
f 17/17/17 21/21/21 22/22/22
f 21/21/21 23/23/23 22/22/22
f 22/22/22 23/23/23 24/24/24
f 23/23/23 18/18/18 24/24/24
f 18/18/18 19/19/19 24/24/24
f 27/27/27 26/26/26 25/25/25
f 26/26/26 28/28/28 25/25/25
f 25/25/25 28/28/28 29/29/29
f 28/28/28 30/30/30 29/29/29
f 29/29/29 30/30/30 31/31/31
f 26/26/26 27/27/27 31/31/31
f 30/30/30 32/32/32 31/31/31
f 32/32/32 26/26/26 31/31/31
f 35/35/35 34/34/34 33/33/33
f 36/36/36 33/33/33 34/34/34
f 39/39/39 38/38/38 37/37/37
f 40/40/40 37/37/37 38/38/38
f 43/43/43 42/42/42 41/41/41
f 44/44/44 41/41/41 42/42/42
f 47/47/47 46/46/46 45/45/45
f 48/48/48 45/45/45 46/46/46
