g Circle001
v -1.525879E-07 -0.3497223 0.07275604
v 0 -0.4581507 0
v -0.1217152 -0.4457352 -0.007467384
v -0.1217153 -0.35617 0.05691507
v -0.2311356 -0.4143066 -0.00957917
v -0.2311371 -0.3122026 0.04088061
v -0.3282442 -0.3391651 -0.003801901
v -0.3335495 -0.2186644 0.0283361
v -0.410176 -0.23304 -0.000285511
v -0.4159058 -0.1227075 0.01262414
v -0.4498635 -0.1217153 1.125395E-05
v -0.4501254 -0.0132869 0.002809108
v 0.121715 -0.33114 0.06560942
v 0.1217152 -0.4457352 0.007467384
v 0.2311454 -0.2871204 0.04916096
v 0.2311356 -0.4143066 0.00957917
v 0.3360619 -0.2154474 0.02955802
v 0.3282442 -0.3391651 0.003801901
v 0.4130689 -0.1227075 0.01234411
v 0.410176 -0.23304 0.000285511
v 0.4492528 -0.01328682 0.002793026
v 0.4498635 -0.1217153 -1.125395E-05
v 1.525879E-07 -0.3497223 -0.07275604
v 0.1217152 -0.4457352 0.007467384
v 0.1217153 -0.35617 -0.05691507
v 0.2311356 -0.4143066 0.00957917
v 0.2311371 -0.3122026 -0.04088061
v 0.3282442 -0.3391651 0.003801901
v 0.3335495 -0.2186644 -0.0283361
v 0.410176 -0.23304 0.000285511
v 0.4159058 -0.1227075 -0.01262414
v 0.4498635 -0.1217153 -1.125395E-05
v 0.4501254 -0.0132869 -0.002809108
v -0.121715 -0.33114 -0.06560942
v -0.1217152 -0.4457352 -0.007467384
v -0.2311454 -0.2871204 -0.04916096
v -0.2311356 -0.4143066 -0.00957917
v -0.3360619 -0.2154474 -0.02955802
v -0.3282442 -0.3391651 -0.003801901
v -0.4130689 -0.1227075 -0.01234411
v -0.410176 -0.23304 -0.000285511
v -0.4492528 -0.01328682 -0.002793026
v -0.4498635 -0.1217153 1.125395E-05
vt 0.5001655 0.8271645
vt 0.5001655 0.9157419
vt 0.6326061 0.9157419
vt 0.6326061 0.8271645
vt 0.7516686 0.9157419
vt 0.7516686 0.8271645
vt 0.8525805 0.9157419
vt 0.8525805 0.8271645
vt 0.9305692 0.9157419
vt 0.9305693 0.8271645
vt 0.9808624 0.9157419
vt 0.9808624 0.8271645
vt 0.3677249 0.8271645
vt 0.3677249 0.9157419
vt 0.2486624 0.8271644
vt 0.2486624 0.9157419
vt 0.1477506 0.8271644
vt 0.1477506 0.9157419
vt 0.06976169 0.8271644
vt 0.06976169 0.9157419
vt 0.01946861 0.8271644
vt 0.01946861 0.9157419
vt 0.5001655 0.8271645
vt 0.6326061 0.9157419
vt 0.6326061 0.8271645
vt 0.7516686 0.9157419
vt 0.7516686 0.8271645
vt 0.8525805 0.9157419
vt 0.8525805 0.8271645
vt 0.9305692 0.9157419
vt 0.9305693 0.8271645
vt 0.9808624 0.9157419
vt 0.9808624 0.8271645
vt 0.3677249 0.8271645
vt 0.3677249 0.9157419
vt 0.2486624 0.8271644
vt 0.2486624 0.9157419
vt 0.1477506 0.8271644
vt 0.1477506 0.9157419
vt 0.06976169 0.8271644
vt 0.06976169 0.9157419
vt 0.01946861 0.8271644
vt 0.01946861 0.9157419
vn -0.01570142 -0.2836276 0.958806
vn 0 -1 0
vn -0.2712615 -0.9603332 -0.06463324
vn -0.1501443 -0.3157346 0.9368929
vn -0.5362606 -0.8403378 -0.0791008
vn -0.2289927 -0.2319234 0.9453962
vn -0.7546896 -0.6555183 -0.02719299
vn -0.2462817 -0.1259424 0.9609807
vn -0.8853586 -0.4648992 0.002977809
vn -0.2854356 -0.05697895 0.9567026
vn -0.9783055 -0.2065342 -0.01618284
vn -0.3095655 -0.009492308 0.9508308
vn 0.1185109 -0.2340268 0.9649801
vn 0.2712615 -0.9603332 0.06463323
vn 0.2130465 -0.1585464 0.9640924
vn 0.5362606 -0.8403378 0.07910088
vn 0.2629797 -0.1034213 0.9592423
vn 0.7546896 -0.6555182 0.02719299
vn 0.2783506 -0.04895662 0.9592311
vn 0.8853586 -0.4648992 -0.002977751
vn 0.2884021 -0.009216428 0.957465
vn 0.9783055 -0.2065342 0.01618284
vn 0.01570142 -0.2836276 -0.958806
vn 0.2712615 -0.9603332 0.06463323
vn 0.1501443 -0.3157346 -0.9368929
vn 0.5362606 -0.8403378 0.07910088
vn 0.2289927 -0.2319234 -0.9453962
vn 0.7546896 -0.6555182 0.02719299
vn 0.2462817 -0.1259424 -0.9609807
vn 0.8853586 -0.4648992 -0.002977751
vn 0.2854356 -0.05697895 -0.9567026
vn 0.9783055 -0.2065342 0.01618284
vn 0.3095655 -0.009492308 -0.9508308
vn -0.1185109 -0.2340268 -0.9649801
vn -0.2712615 -0.9603332 -0.06463324
vn -0.2130465 -0.1585464 -0.9640924
vn -0.5362606 -0.8403378 -0.0791008
vn -0.2629797 -0.1034213 -0.9592423
vn -0.7546896 -0.6555183 -0.02719299
vn -0.2783506 -0.04895662 -0.9592311
vn -0.8853586 -0.4648992 0.002977809
vn -0.2884021 -0.009216428 -0.957465
vn -0.9783055 -0.2065342 -0.01618284
g Circle001_0
f 3/3/3 2/2/2 1/1/1
f 4/4/4 3/3/3 1/1/1
f 3/3/3 4/4/4 5/5/5
f 4/4/4 6/6/6 5/5/5
f 5/5/5 6/6/6 7/7/7
f 6/6/6 8/8/8 7/7/7
f 7/7/7 8/8/8 9/9/9
f 8/8/8 10/10/10 9/9/9
f 9/9/9 10/10/10 11/11/11
f 10/10/10 12/12/12 11/11/11
f 13/13/13 1/1/1 2/2/2
f 14/14/14 13/13/13 2/2/2
f 15/15/15 13/13/13 14/14/14
f 16/16/16 15/15/15 14/14/14
f 17/17/17 15/15/15 16/16/16
f 18/18/18 17/17/17 16/16/16
f 19/19/19 17/17/17 18/18/18
f 20/20/20 19/19/19 18/18/18
f 21/21/21 19/19/19 20/20/20
f 22/22/22 21/21/21 20/20/20
f 24/24/24 2/2/2 23/23/23
f 25/25/25 24/24/24 23/23/23
f 24/24/24 25/25/25 26/26/26
f 25/25/25 27/27/27 26/26/26
f 26/26/26 27/27/27 28/28/28
f 27/27/27 29/29/29 28/28/28
f 28/28/28 29/29/29 30/30/30
f 29/29/29 31/31/31 30/30/30
f 30/30/30 31/31/31 32/32/32
f 31/31/31 33/33/33 32/32/32
f 34/34/34 23/23/23 2/2/2
f 35/35/35 34/34/34 2/2/2
f 36/36/36 34/34/34 35/35/35
f 37/37/37 36/36/36 35/35/35
f 38/38/38 36/36/36 37/37/37
f 39/39/39 38/38/38 37/37/37
f 40/40/40 38/38/38 39/39/39
f 41/41/41 40/40/40 39/39/39
f 42/42/42 40/40/40 41/41/41
f 43/43/43 42/42/42 41/41/41
