g Cone_Trail_03
v 0.4161641 2.632661E-08 -0.02566207
v 0.508 0 1.211166E-07
v 0.5030562 0.07069994 1.211166E-07
v 0.412114 0.05791888 -0.02566207
v 0.4883209 0.1400238 1.211166E-07
v 0.4000426 0.1147104 -0.02566207
v 0.4640811 0.2066222 1.211166E-07
v 0.3801848 0.1692692 -0.02566207
v 0.4308084 0.269199 1.211166E-07
v 0.3529272 0.2205334 -0.02566207
v 0.3891506 0.3265361 1.211166E-07
v 0.3188002 0.2675052 -0.02566207
v 0.3399183 0.3775176 1.211166E-07
v 0.2784681 0.3092702 -0.02566207
v 0.28407 0.4211511 1.211166E-07
v 0.232716 0.3450157 -0.02566207
v 0.2226925 0.4565874 1.211166E-07
v 0.1824343 0.3740458 -0.02566207
v 0.1569806 0.4831367 1.211166E-07
v 0.1286018 0.3957956 -0.02566207
v 0.08821324 0.5002823 1.211166E-07
v 0.07226611 0.4098417 -0.02566207
v 0.01772888 0.5076905 1.211166E-07
v 0.01452387 0.4159106 -0.02566207
v -0.05310054 0.5052171 1.211166E-07
v -0.04350105 0.4138843 -0.02566207
v 0.2784681 0.3092702 0.02566248
v 0.232716 0.3450157 0.02566248
v 0.1824343 0.3740458 0.02566248
v 0.1286018 0.3957956 0.02566248
v 0.07226611 0.4098417 0.02566248
v 0.01452387 0.4159106 0.02566248
v -0.04350105 0.4138843 0.02566248
v 0.3188002 0.2675051 0.02566248
v 0.3529272 0.2205334 0.02566248
v 0.3801848 0.1692692 0.02566248
v 0.4000426 0.1147104 0.02566248
v 0.412114 0.05791887 0.02566248
v 0.4161641 2.70792E-08 0.02566248
v 0.5030563 -0.07069897 1.211166E-07
v 0.4121141 -0.05791802 -0.02566207
v 0.4000428 -0.1147097 -0.02566207
v 0.4883212 -0.1400229 1.211166E-07
v 0.380185 -0.1692685 -0.02566207
v 0.4640814 -0.2066215 1.211166E-07
v 0.3529274 -0.2205328 -0.02566207
v 0.4308088 -0.2691984 1.211166E-07
v 0.3188005 -0.2675046 -0.02566207
v 0.389151 -0.3265356 1.211166E-07
v 0.2784684 -0.3092698 -0.02566207
v 0.3399188 -0.3775172 1.211166E-07
v 0.2327164 -0.3450154 -0.02566207
v 0.2840704 -0.4211508 1.211166E-07
v 0.1824346 -0.3740456 -0.02566207
v 0.2226929 -0.4565872 1.211166E-07
v 0.128602 -0.3957954 -0.02566207
v 0.1569809 -0.4831366 1.211166E-07
v 0.07226633 -0.4098415 -0.02566207
v 0.0882135 -0.5002823 1.211166E-07
v 0.01452404 -0.4159105 -0.02566207
v 0.01772909 -0.5076905 1.211166E-07
v -0.04350092 -0.4138843 -0.02566207
v -0.05310039 -0.5052171 1.211166E-07
v -0.1006792 -0.4038022 -0.02566207
v -0.1228963 -0.4929102 1.211166E-07
v -0.1558979 -0.3858606 -0.02566207
v -0.1903003 -0.4710094 1.211166E-07
v -0.2080821 -0.3604086 -0.02566207
v -0.2540002 -0.4399408 1.211166E-07
v -0.2562163 -0.3279416 -0.02566207
v -0.3127562 -0.4003093 1.211166E-07
v -0.2993636 -0.2890916 -0.02566207
v -0.3654248 -0.3528862 1.211166E-07
v -0.336684 -0.2446149 -0.02566207
v -0.4109808 -0.2985947 1.211166E-07
v -0.3674512 -0.195377 -0.02566207
v -0.4485375 -0.2384913 1.211166E-07
v -0.3910664 -0.1423363 -0.02566207
v -0.4773639 -0.173746 1.211166E-07
v -0.4070699 -0.08652518 -0.02566207
v -0.496899 -0.1056189 1.211166E-07
v -0.4151503 -0.02902998 -0.02566207
v -0.5067626 -0.03543613 1.211166E-07
v -0.4151503 0.02903026 -0.02566207
v -0.5067625 0.03543641 1.211166E-07
v -0.4070699 0.08652548 -0.02566207
v -0.496899 0.1056192 1.211166E-07
v -0.3910663 0.1423365 -0.02566207
v -0.4773638 0.1737463 1.211166E-07
v -0.3674511 0.1953772 -0.02566207
v -0.4485373 0.2384916 1.211166E-07
v -0.3366839 0.2446151 -0.02566207
v -0.4109807 0.2985949 1.211166E-07
v -0.2993634 0.2890919 -0.02566207
v -0.3654247 0.3528864 1.211166E-07
v -0.2562163 0.3279417 -0.02566207
v -0.3127561 0.4003094 1.211166E-07
v -0.2080821 0.3604086 -0.02566207
v -0.2540001 0.4399408 1.211166E-07
v -0.1558979 0.3858606 -0.02566207
v -0.1903003 0.4710093 1.211166E-07
v -0.1006793 0.4038022 -0.02566207
v -0.1228964 0.4929102 1.211166E-07
v -0.04350105 0.4138843 -0.02566207
v -0.05310054 0.5052171 1.211166E-07
v -0.1006793 0.4038022 0.02566248
v -0.04350105 0.4138843 0.02566248
v -0.1558979 0.3858606 0.02566248
v -0.2080821 0.3604086 0.02566248
v -0.2562163 0.3279417 0.02566248
v -0.2993634 0.2890919 0.02566248
v -0.3366839 0.2446151 0.02566248
v -0.3674511 0.1953772 0.02566248
v -0.3910663 0.1423365 0.02566248
v -0.4070699 0.08652548 0.02566248
v -0.4151503 0.02903027 0.02566248
v -0.4151503 -0.02902998 0.02566248
v -0.4070699 -0.08652519 0.02566248
v -0.3910664 -0.1423363 0.02566248
v -0.3674512 -0.195377 0.02566248
v -0.336684 -0.2446149 0.02566248
v -0.2993636 -0.2890916 0.02566248
v -0.2562163 -0.3279416 0.02566248
v -0.2080821 -0.3604086 0.02566248
v -0.1558979 -0.3858606 0.02566248
v -0.1006792 -0.4038022 0.02566248
v -0.04350092 -0.4138843 0.02566248
v 0.01452404 -0.4159105 0.02566248
v 0.07226633 -0.4098415 0.02566248
v 0.128602 -0.3957955 0.02566248
v 0.1824346 -0.3740456 0.02566248
v 0.2327164 -0.3450154 0.02566248
v 0.2784684 -0.3092698 0.02566248
v 0.3188005 -0.2675046 0.02566248
v 0.3529274 -0.2205328 0.02566248
v 0.380185 -0.1692685 0.02566248
v 0.4000428 -0.1147097 0.02566248
v 0.4121141 -0.05791802 0.02566248
vt 0.75 0
vt 0.75 0.5
vt 0.7722222 0.5
vt 0.7722222 0
vt 0.7944444 0.5
vt 0.7944444 0
vt 0.8166667 0.5
vt 0.8166667 0
vt 0.8388889 0.5
vt 0.8388889 0
vt 0.861111 0.5
vt 0.861111 0
vt 0.8833333 0.5
vt 0.8833333 0
vt 0.9055555 0.5
vt 0.9055555 0
vt 0.9277778 0.5
vt 0.9277778 0
vt 0.95 0.5
vt 0.95 0
vt 0.9722222 0.5
vt 0.9722222 0
vt 0.9944444 0.5
vt 0.9944444 0
vt 1.016667 0.5
vt 1.016667 0
vt 0.8833333 1
vt 0.9055555 1
vt 0.9277778 1
vt 0.95 1
vt 0.9722222 1
vt 0.9944444 1
vt 1.016667 1
vt 0.861111 1
vt 0.8388889 1
vt 0.8166667 1
vt 0.7944444 1
vt 0.7722222 1
vt 0.75 1
vt 0.7277781 0.5
vt 0.7277781 0
vt 0.7055558 0
vt 0.7055558 0.5
vt 0.6833335 0
vt 0.6833335 0.5
vt 0.6611113 0
vt 0.6611113 0.5
vt 0.6388891 0
vt 0.6388891 0.5
vt 0.6166669 0
vt 0.6166669 0.5
vt 0.5944446 0
vt 0.5944446 0.5
vt 0.5722224 0
vt 0.5722224 0.5
vt 0.5500001 0
vt 0.5500001 0.5
vt 0.5277779 0
vt 0.5277779 0.5
vt 0.5055556 0
vt 0.5055556 0.5
vt 0.4833333 0
vt 0.4833333 0.5
vt 0.4611111 0
vt 0.4611111 0.5
vt 0.4388888 0
vt 0.4388888 0.5
vt 0.4166666 0
vt 0.4166666 0.5
vt 0.3944444 0
vt 0.3944444 0.5
vt 0.3722222 0
vt 0.3722222 0.5
vt 0.3499999 0
vt 0.3499999 0.5
vt 0.3277777 0
vt 0.3277777 0.5
vt 0.3055555 0
vt 0.3055555 0.5
vt 0.2833333 0
vt 0.2833333 0.5
vt 0.2611111 0
vt 0.2611111 0.5
vt 0.2388889 0
vt 0.2388889 0.5
vt 0.2166667 0
vt 0.2166667 0.5
vt 0.1944444 0
vt 0.1944444 0.5
vt 0.1722222 0
vt 0.1722222 0.5
vt 0.1500001 0
vt 0.1500001 0.5
vt 0.1277778 0
vt 0.1277778 0.5
vt 0.1055556 0
vt 0.1055556 0.5
vt 0.08333339 0
vt 0.08333339 0.5
vt 0.06111118 0
vt 0.06111118 0.5
vt 0.03888893 0
vt 0.03888893 0.5
vt 0.01666672 0
vt 0.01666672 0.5
vt 0.03888893 1
vt 0.01666672 1
vt 0.06111118 1
vt 0.08333339 1
vt 0.1055556 1
vt 0.1277778 1
vt 0.1500001 1
vt 0.1722222 1
vt 0.1944444 1
vt 0.2166667 1
vt 0.2388889 1
vt 0.2611111 1
vt 0.2833333 1
vt 0.3055555 1
vt 0.3277777 1
vt 0.3499999 1
vt 0.3722222 1
vt 0.3944444 1
vt 0.4166666 1
vt 0.4388888 1
vt 0.4611111 1
vt 0.4833333 1
vt 0.5055556 1
vt 0.5277779 1
vt 0.5500001 1
vt 0.5722224 1
vt 0.5944446 1
vt 0.6166669 1
vt 0.6388891 1
vt 0.6611113 1
vt 0.6833335 1
vt 0.7055558 1
vt 0.7277781 1
vn 0.329628 0 -0.9441109
vn 1 4.713666E-07 -9.014183E-07
vn 0.9902681 0.1391733 -9.014184E-07
vn 0.3264201 0.04587543 -0.9441109
vn 0.9612617 0.2756374 -9.014184E-07
vn 0.3168588 0.09085785 -0.9441109
vn 0.9135455 0.4067365 -8.413238E-07
vn 0.3011302 0.1340718 -0.9441109
vn 0.8480481 0.5299192 -9.615129E-07
vn 0.2795404 0.1746763 -0.9441109
vn 0.7660444 0.6427876 -7.812289E-07
vn 0.2525098 0.2118809 -0.9441108
vn 0.6691307 0.7431448 -6.6104E-07
vn 0.2205643 0.2449614 -0.9441109
vn 0.559193 0.8290375 -8.413238E-07
vn 0.1843257 0.273274 -0.9441109
vn 0.4383713 0.8987939 -8.413237E-07
vn 0.1444995 0.2962677 -0.9441109
vn 0.3090172 0.9510565 -1.021607E-06
vn 0.1018608 0.313495 -0.9441108
vn 0.1736476 0.9848078 -1.021607E-06
vn 0.05723912 0.3246204 -0.9441108
vn 0.03489919 0.9993908 -1.021607E-06
vn 0.01150375 0.3294273 -0.9441109
vn -0.1045282 0.9945219 -8.41324E-07
vn -0.03445542 0.3278223 -0.9441109
vn 0.2205655 0.2449627 0.9441102
vn 0.1843267 0.2732755 0.9441102
vn 0.1445003 0.2962694 0.9441102
vn 0.1018613 0.3134966 0.9441102
vn 0.05723942 0.3246221 0.9441102
vn 0.01150381 0.3294291 0.9441102
vn -0.03445561 0.3278241 0.9441103
vn 0.2525111 0.2118821 0.9441102
vn 0.279542 0.1746772 0.9441102
vn 0.3011318 0.1340725 0.9441103
vn 0.3168605 0.09085831 0.9441103
vn 0.3264219 0.04587565 0.9441103
vn 0.3296298 0 0.9441103
vn 0.9902683 -0.1391718 -9.014183E-07
vn 0.3264202 -0.04587494 -0.9441109
vn 0.3168589 -0.09085726 -0.9441109
vn 0.9612622 -0.2756358 -9.014185E-07
vn 0.3011303 -0.1340712 -0.9441109
vn 0.9135461 -0.4067352 -9.014186E-07
vn 0.2795406 -0.1746757 -0.9441109
vn 0.8480489 -0.5299179 -9.615137E-07
vn 0.2525099 -0.2118804 -0.9441109
vn 0.7660452 -0.6427866 -9.615129E-07
vn 0.2205644 -0.244961 -0.9441109
vn 0.6691316 -0.743144 -9.014188E-07
vn 0.1843259 -0.2732737 -0.9441109
vn 0.5591937 -0.829037 -9.615134E-07
vn 0.1444995 -0.2962675 -0.9441109
vn 0.4383716 -0.8987938 -1.081702E-06
vn 0.1018609 -0.3134947 -0.9441109
vn 0.3090177 -0.9510562 -9.61513E-07
vn 0.05723946 -0.3246202 -0.9441109
vn 0.1736487 -0.9848076 -9.014187E-07
vn 0.01150393 -0.3294272 -0.9441109
vn 0.03489974 -0.9993908 -9.014184E-07
vn -0.03445547 -0.3278222 -0.9441109
vn -0.1045284 -0.9945219 -8.413241E-07
vn -0.07974423 -0.3198366 -0.9441109
vn -0.2419219 -0.9702957 -9.014186E-07
vn -0.1234809 -0.3056256 -0.9441109
vn -0.3746069 -0.9271837 -9.615136E-07
vn -0.1648141 -0.2854661 -0.9441109
vn -0.5000005 -0.8660251 -9.615129E-07
vn -0.2029394 -0.2597503 -0.9441109
vn -0.6156619 -0.7880105 -9.014187E-07
vn -0.2371146 -0.2289788 -0.9441109
vn -0.71934 -0.6946582 -9.014185E-07
vn -0.2666747 -0.1937504 -0.9441109
vn -0.8090172 -0.5877849 -7.211348E-07
vn -0.2910444 -0.1547508 -0.9441109
vn -0.8829479 -0.469471 -8.413235E-07
vn -0.3097491 -0.1127392 -0.9441109
vn -0.9396929 -0.3420195 -9.014184E-07
vn -0.3224248 -0.06853332 -0.9441109
vn -0.9781477 -0.2079111 -9.615129E-07
vn -0.328825 -0.02299358 -0.9441109
vn -0.9975641 -0.06975617 -9.01419E-07
vn -0.328825 0.02299369 -0.9441109
vn -0.9975641 0.06975648 -8.413238E-07
vn -0.3224249 0.06853357 -0.9441109
vn -0.9781476 0.2079118 -9.014186E-07
vn -0.309749 0.1127395 -0.9441109
vn -0.9396925 0.3420205 -7.211347E-07
vn -0.2910444 0.1547509 -0.9441109
vn -0.8829478 0.4694712 -1.021607E-06
vn -0.2666748 0.1937505 -0.9441109
vn -0.8090171 0.587785 -9.014184E-07
vn -0.2371146 0.228979 -0.9441108
vn -0.7193397 0.6946585 -7.812291E-07
vn -0.2029393 0.2597505 -0.9441109
vn -0.6156615 0.7880108 -7.812289E-07
vn -0.1648141 0.2854663 -0.9441109
vn -0.5000001 0.8660254 -7.211347E-07
vn -0.123481 0.3056258 -0.9441108
vn -0.374607 0.9271837 -8.413235E-07
vn -0.07974436 0.3198366 -0.9441109
vn -0.2419222 0.9702956 -9.014184E-07
vn -0.03445542 0.3278223 -0.9441109
vn -0.1045282 0.9945219 -8.41324E-07
vn -0.07974479 0.3198384 0.9441102
vn -0.03445561 0.3278241 0.9441103
vn -0.1234816 0.3056275 0.9441102
vn -0.1648149 0.2854678 0.9441102
vn -0.2029404 0.2597519 0.9441102
vn -0.2371159 0.2289802 0.9441102
vn -0.2666762 0.1937515 0.9441102
vn -0.291046 0.1547517 0.9441102
vn -0.3097507 0.1127402 0.9441103
vn -0.3224266 0.06853393 0.9441103
vn -0.3288268 0.02299382 0.9441103
vn -0.3288267 -0.02299368 0.9441103
vn -0.3224266 -0.06853367 0.9441103
vn -0.3097508 -0.1127398 0.9441103
vn -0.291046 -0.1547517 0.9441102
vn -0.2666762 -0.1937515 0.9441103
vn -0.2371158 -0.22898 0.9441103
vn -0.2029404 -0.2597517 0.9441103
vn -0.164815 -0.2854677 0.9441103
vn -0.1234815 -0.3056273 0.9441103
vn -0.07974466 -0.3198383 0.9441103
vn -0.03445565 -0.327824 0.9441103
vn 0.011504 -0.329429 0.9441103
vn 0.05723978 -0.3246219 0.9441103
vn 0.1018615 -0.3134964 0.9441103
vn 0.1445003 -0.2962691 0.9441103
vn 0.1843269 -0.2732752 0.9441103
vn 0.2205656 -0.2449623 0.9441103
vn 0.2525113 -0.2118816 0.9441103
vn 0.2795421 -0.1746767 0.9441103
vn 0.3011319 -0.134072 0.9441103
vn 0.3168606 -0.09085777 0.9441103
vn 0.3264219 -0.04587518 0.9441103
g Cone_Trail_03_0
f 3/3/3 2/2/2 1/1/1
f 4/4/4 3/3/3 1/1/1
f 5/5/5 3/3/3 4/4/4
f 6/6/6 5/5/5 4/4/4
f 7/7/7 5/5/5 6/6/6
f 8/8/8 7/7/7 6/6/6
f 9/9/9 7/7/7 8/8/8
f 10/10/10 9/9/9 8/8/8
f 11/11/11 9/9/9 10/10/10
f 12/12/12 11/11/11 10/10/10
f 13/13/13 11/11/11 12/12/12
f 14/14/14 13/13/13 12/12/12
f 15/15/15 13/13/13 14/14/14
f 16/16/16 15/15/15 14/14/14
f 17/17/17 15/15/15 16/16/16
f 18/18/18 17/17/17 16/16/16
f 19/19/19 17/17/17 18/18/18
f 20/20/20 19/19/19 18/18/18
f 21/21/21 19/19/19 20/20/20
f 22/22/22 21/21/21 20/20/20
f 23/23/23 21/21/21 22/22/22
f 24/24/24 23/23/23 22/22/22
f 25/25/25 23/23/23 24/24/24
f 26/26/26 25/25/25 24/24/24
f 13/13/13 27/27/27 11/11/11
f 28/28/28 27/27/27 13/13/13
f 15/15/15 28/28/28 13/13/13
f 29/29/29 28/28/28 15/15/15
f 17/17/17 29/29/29 15/15/15
f 30/30/30 29/29/29 17/17/17
f 19/19/19 30/30/30 17/17/17
f 31/31/31 30/30/30 19/19/19
f 21/21/21 31/31/31 19/19/19
f 32/32/32 31/31/31 21/21/21
f 23/23/23 32/32/32 21/21/21
f 33/33/33 32/32/32 23/23/23
f 25/25/25 33/33/33 23/23/23
f 27/27/27 34/34/34 11/11/11
f 11/11/11 34/34/34 9/9/9
f 34/34/34 35/35/35 9/9/9
f 9/9/9 35/35/35 7/7/7
f 35/35/35 36/36/36 7/7/7
f 7/7/7 36/36/36 5/5/5
f 36/36/36 37/37/37 5/5/5
f 5/5/5 37/37/37 3/3/3
f 37/37/37 38/38/38 3/3/3
f 3/3/3 38/38/38 2/2/2
f 38/38/38 39/39/39 2/2/2
f 2/2/2 39/39/39 40/40/40
f 2/2/2 40/40/40 41/41/41
f 41/41/41 40/40/40 42/42/42
f 40/40/40 43/43/43 42/42/42
f 42/42/42 43/43/43 44/44/44
f 43/43/43 45/45/45 44/44/44
f 44/44/44 45/45/45 46/46/46
f 45/45/45 47/47/47 46/46/46
f 46/46/46 47/47/47 48/48/48
f 47/47/47 49/49/49 48/48/48
f 48/48/48 49/49/49 50/50/50
f 49/49/49 51/51/51 50/50/50
f 50/50/50 51/51/51 52/52/52
f 51/51/51 53/53/53 52/52/52
f 52/52/52 53/53/53 54/54/54
f 53/53/53 55/55/55 54/54/54
f 54/54/54 55/55/55 56/56/56
f 55/55/55 57/57/57 56/56/56
f 56/56/56 57/57/57 58/58/58
f 57/57/57 59/59/59 58/58/58
f 58/58/58 59/59/59 60/60/60
f 59/59/59 61/61/61 60/60/60
f 60/60/60 61/61/61 62/62/62
f 61/61/61 63/63/63 62/62/62
f 62/62/62 63/63/63 64/64/64
f 63/63/63 65/65/65 64/64/64
f 64/64/64 65/65/65 66/66/66
f 65/65/65 67/67/67 66/66/66
f 66/66/66 67/67/67 68/68/68
f 67/67/67 69/69/69 68/68/68
f 68/68/68 69/69/69 70/70/70
f 69/69/69 71/71/71 70/70/70
f 70/70/70 71/71/71 72/72/72
f 71/71/71 73/73/73 72/72/72
f 72/72/72 73/73/73 74/74/74
f 73/73/73 75/75/75 74/74/74
f 74/74/74 75/75/75 76/76/76
f 75/75/75 77/77/77 76/76/76
f 76/76/76 77/77/77 78/78/78
f 77/77/77 79/79/79 78/78/78
f 78/78/78 79/79/79 80/80/80
f 79/79/79 81/81/81 80/80/80
f 80/80/80 81/81/81 82/82/82
f 81/81/81 83/83/83 82/82/82
f 82/82/82 83/83/83 84/84/84
f 83/83/83 85/85/85 84/84/84
f 84/84/84 85/85/85 86/86/86
f 85/85/85 87/87/87 86/86/86
f 86/86/86 87/87/87 88/88/88
f 87/87/87 89/89/89 88/88/88
f 88/88/88 89/89/89 90/90/90
f 89/89/89 91/91/91 90/90/90
f 90/90/90 91/91/91 92/92/92
f 91/91/91 93/93/93 92/92/92
f 92/92/92 93/93/93 94/94/94
f 93/93/93 95/95/95 94/94/94
f 94/94/94 95/95/95 96/96/96
f 95/95/95 97/97/97 96/96/96
f 96/96/96 97/97/97 98/98/98
f 97/97/97 99/99/99 98/98/98
f 98/98/98 99/99/99 100/100/100
f 99/99/99 101/101/101 100/100/100
f 100/100/100 101/101/101 102/102/102
f 101/101/101 103/103/103 102/102/102
f 102/102/102 103/103/103 104/104/104
f 103/103/103 105/105/105 104/104/104
f 103/103/103 106/106/106 105/105/105
f 106/106/106 107/107/107 105/105/105
f 108/108/108 106/106/106 103/103/103
f 101/101/101 108/108/108 103/103/103
f 109/109/109 108/108/108 101/101/101
f 99/99/99 109/109/109 101/101/101
f 110/110/110 109/109/109 99/99/99
f 97/97/97 110/110/110 99/99/99
f 111/111/111 110/110/110 97/97/97
f 95/95/95 111/111/111 97/97/97
f 112/112/112 111/111/111 95/95/95
f 93/93/93 112/112/112 95/95/95
f 113/113/113 112/112/112 93/93/93
f 91/91/91 113/113/113 93/93/93
f 114/114/114 113/113/113 91/91/91
f 89/89/89 114/114/114 91/91/91
f 115/115/115 114/114/114 89/89/89
f 87/87/87 115/115/115 89/89/89
f 116/116/116 115/115/115 87/87/87
f 85/85/85 116/116/116 87/87/87
f 117/117/117 116/116/116 85/85/85
f 83/83/83 117/117/117 85/85/85
f 118/118/118 117/117/117 83/83/83
f 81/81/81 118/118/118 83/83/83
f 119/119/119 118/118/118 81/81/81
f 79/79/79 119/119/119 81/81/81
f 120/120/120 119/119/119 79/79/79
f 77/77/77 120/120/120 79/79/79
f 121/121/121 120/120/120 77/77/77
f 75/75/75 121/121/121 77/77/77
f 122/122/122 121/121/121 75/75/75
f 73/73/73 122/122/122 75/75/75
f 123/123/123 122/122/122 73/73/73
f 71/71/71 123/123/123 73/73/73
f 124/124/124 123/123/123 71/71/71
f 69/69/69 124/124/124 71/71/71
f 125/125/125 124/124/124 69/69/69
f 67/67/67 125/125/125 69/69/69
f 126/126/126 125/125/125 67/67/67
f 65/65/65 126/126/126 67/67/67
f 127/127/127 126/126/126 65/65/65
f 63/63/63 127/127/127 65/65/65
f 128/128/128 127/127/127 63/63/63
f 61/61/61 128/128/128 63/63/63
f 129/129/129 128/128/128 61/61/61
f 59/59/59 129/129/129 61/61/61
f 130/130/130 129/129/129 59/59/59
f 57/57/57 130/130/130 59/59/59
f 131/131/131 130/130/130 57/57/57
f 55/55/55 131/131/131 57/57/57
f 132/132/132 131/131/131 55/55/55
f 53/53/53 132/132/132 55/55/55
f 133/133/133 132/132/132 53/53/53
f 51/51/51 133/133/133 53/53/53
f 134/134/134 133/133/133 51/51/51
f 49/49/49 134/134/134 51/51/51
f 135/135/135 134/134/134 49/49/49
f 47/47/47 135/135/135 49/49/49
f 136/136/136 135/135/135 47/47/47
f 45/45/45 136/136/136 47/47/47
f 137/137/137 136/136/136 45/45/45
f 43/43/43 137/137/137 45/45/45
f 138/138/138 137/137/137 43/43/43
f 40/40/40 138/138/138 43/43/43
f 39/39/39 138/138/138 40/40/40
f 1/1/1 2/2/2 41/41/41
