g Cone001
v 0.2642124 0.42709 1.008281E-09
v 0.2266511 0.256254 1.364489E-09
v 0.2189281 0.256254 0.05866163
v 0.2552096 0.42709 0.06838321
v 0.1962856 0.256254 0.1133256
v 0.2288146 0.42709 0.1321062
v 0.1602665 0.256254 0.1602665
v 0.1868264 0.42709 0.1868264
v 0.1133255 0.256254 0.1962857
v 0.1321062 0.42709 0.2288147
v 0.05866159 0.256254 0.2189282
v 0.06838316 0.42709 0.2552096
v -2.421153E-08 0.256254 0.2266511
v -2.353212E-08 0.42709 0.2642124
v -0.05866165 0.256254 0.2189282
v -0.06838322 0.42709 0.2552096
v -0.1133256 0.256254 0.1962857
v -0.1321062 0.42709 0.2288147
v -0.1602666 0.256254 0.1602666
v -0.1868264 0.42709 0.1868265
v -0.1962857 0.256254 0.1133256
v -0.2288147 0.42709 0.1321063
v -0.2189282 0.256254 0.05866171
v -0.2552096 0.42709 0.0683833
v -0.2266512 0.256254 8.962569E-08
v -0.2642125 0.42709 1.038964E-07
v -0.2189282 0.256254 -0.05866153
v -0.2552097 0.42709 -0.06838309
v -0.1962857 0.256254 -0.1133255
v -0.2288148 0.42709 -0.1321061
v -0.1602667 0.256254 -0.1602665
v -0.1868265 0.42709 -0.1868263
v -0.1133257 0.256254 -0.1962856
v -0.1321063 0.42709 -0.2288146
v -0.05866177 0.256254 -0.2189281
v -0.06838336 0.42709 -0.2552096
v -1.466961E-07 0.256254 -0.2266511
v -1.663152E-07 0.42709 -0.2642124
v 0.05866146 0.256254 -0.2189282
v 0.06838302 0.42709 -0.2552096
v 0.1133254 0.256254 -0.1962857
v 0.132106 0.42709 -0.2288148
v 0.1602664 0.256254 -0.1602666
v 0.1868262 0.42709 -0.1868265
v 0.1962855 0.256254 -0.1133257
v 0.2288146 0.42709 -0.1321064
v 0.2189281 0.256254 -0.05866178
v 0.2552095 0.42709 -0.06838339
v -1.233278E-07 0.08541802 -0.1833223
v 0.04744716 0.08541802 -0.1770757
v 0.09166098 0.08541802 -0.1587618
v 0.1296283 0.08541802 -0.1296285
v 0.1587616 0.08541802 -0.09166123
v 0.1770757 0.08541802 -0.04744743
v 0.1833223 0.08541802 -1.909939E-10
v 0.1770757 0.08541802 0.04744729
v 0.1587617 0.08541802 0.09166113
v 0.1296283 0.08541802 0.1296284
v 0.09166107 0.08541802 0.1587618
v 0.04744726 0.08541802 0.1770757
v -2.425855E-08 0.08541802 0.1833223
v -0.04744731 0.08541802 0.1770757
v -0.09166116 0.08541802 0.1587618
v -0.1296284 0.08541802 0.1296284
v -0.1587618 0.08541802 0.09166118
v -0.1770757 0.08541802 0.04744735
v -0.1833223 0.08541802 7.119733E-08
v -0.1770757 0.08541802 -0.04744722
v -0.1587618 0.08541802 -0.09166105
v -0.1296286 0.08541802 -0.1296283
v -0.09166124 0.08541802 -0.1587617
v -0.0474474 0.08541802 -0.1770757
v -0.128127 -0.08541797 4.936747E-08
v -0.1237612 -0.08541797 0.03316174
v -0.1237612 -0.08541797 -0.03316165
v -0.1109613 -0.08541797 -0.06406344
v -0.09059954 -0.08541797 -0.09059941
v -0.06406356 -0.08541797 -0.1109612
v -0.03316179 -0.08541797 -0.1237611
v -9.643423E-08 -0.08541797 -0.128127
v 0.0331616 -0.08541797 -0.1237612
v 0.06406339 -0.08541797 -0.1109613
v 0.09059937 -0.08541797 -0.09059952
v 0.1109611 -0.08541797 -0.06406356
v 0.1237611 -0.08541797 -0.03316179
v 0.1281269 -0.08541797 -5.270158E-10
v 0.1237611 -0.08541797 0.0331617
v 0.1109612 -0.08541797 0.06406349
v 0.09059942 -0.08541797 0.09059945
v 0.06406344 -0.08541797 0.1109612
v 0.03316167 -0.08541797 0.1237612
v -2.719311E-08 -0.08541797 0.128127
v -0.03316173 -0.08541797 0.1237612
v -0.06406351 -0.08541797 0.1109612
v -0.09059947 -0.08541797 0.09059948
v -0.1109612 -0.08541797 0.06406352
v 0.01866627 -0.256254 0.06966361
v -3.026082E-08 -0.256254 0.07212108
v -0.01866634 -0.256254 0.06966361
v -0.03606056 -0.256254 0.06245869
v -0.05099732 -0.256254 0.05099731
v -0.06245871 -0.256254 0.03606055
v -0.06966364 -0.256254 0.01866633
v -0.07212111 -0.256254 2.718556E-08
v -0.06966366 -0.256254 -0.01866628
v -0.06245873 -0.256254 -0.03606051
v -0.05099737 -0.256254 -0.05099728
v -0.03606059 -0.256254 -0.06245867
v -0.01866637 -0.256254 -0.0696636
v -6.923577E-08 -0.256254 -0.07212108
v 0.01866623 -0.256254 -0.06966362
v 0.03606046 -0.256254 -0.0624587
v 0.05099723 -0.256254 -0.05099734
v 0.06245862 -0.256254 -0.03606058
v 0.06966355 -0.256254 -0.01866636
v 0.07212104 -0.256254 -8.994208E-10
v 0.06966358 -0.256254 0.01866631
v 0.06245864 -0.256254 0.03606053
v 0.05099726 -0.256254 0.0509973
v 0.0360605 -0.256254 0.06245869
v -3.686644E-08 -0.42709 -5.270158E-10
v -3.686644E-08 -0.42709 -5.270158E-10
v -3.686644E-08 -0.42709 -5.270158E-10
v -3.686644E-08 -0.42709 -5.270158E-10
v -3.686644E-08 -0.42709 -5.270158E-10
v -3.686644E-08 -0.42709 -5.270158E-10
v -3.686644E-08 -0.42709 -5.270158E-10
v -3.686644E-08 -0.42709 -5.270158E-10
v -3.686644E-08 -0.42709 -5.270158E-10
v -3.686644E-08 -0.42709 -5.270158E-10
v -3.686644E-08 -0.42709 -5.270158E-10
v -3.686644E-08 -0.42709 -5.270158E-10
v -3.686644E-08 -0.42709 -5.270158E-10
v -3.686644E-08 -0.42709 -5.270158E-10
v -3.686644E-08 -0.42709 -5.270158E-10
v -3.686644E-08 -0.42709 -5.270158E-10
v -3.686644E-08 -0.42709 -5.270158E-10
v -3.686644E-08 -0.42709 -5.270158E-10
v -3.686644E-08 -0.42709 -5.270158E-10
v -3.686644E-08 -0.42709 -5.270158E-10
v -3.686644E-08 -0.42709 -5.270158E-10
v -3.686644E-08 -0.42709 -5.270158E-10
v -3.686644E-08 -0.42709 -5.270158E-10
v -3.686644E-08 -0.42709 -5.270158E-10
vt 0.9999999 0.4999999
vt 0.9289182 0.4999999
vt 0.9143032 0.6110122
vt 0.9829628 0.6294094
vt 0.8714541 0.7144591
vt 0.9330126 0.7499999
vt 0.803291 0.803291
vt 0.8535534 0.8535532
vt 0.7144592 0.8714541
vt 0.75 0.9330126
vt 0.6110123 0.9143033
vt 0.6294096 0.9829628
vt 0.5000001 0.9289183
vt 0.5000001 0.9999999
vt 0.3889878 0.9143033
vt 0.3705906 0.982963
vt 0.285541 0.8714543
vt 0.2500001 0.9330127
vt 0.196709 0.8032911
vt 0.1464468 0.8535535
vt 0.1285459 0.7144594
vt 0.0669874 0.7500002
vt 0.0856967 0.6110125
vt 0.01703715 0.6294098
vt 0.07108158 0.5000003
vt 2.980232E-08 0.5000003
vt 0.08569661 0.388988
vt 0.017037 0.3705908
vt 0.1285456 0.2855411
vt 0.06698713 0.2500003
vt 0.1967086 0.1967092
vt 0.1464463 0.1464469
vt 0.2855406 0.128546
vt 0.2499997 0.06698748
vt 0.3889874 0.08569685
vt 0.3705901 0.01703721
vt 0.4999996 0.0710817
vt 0.4999996 5.960464E-08
vt 0.6110119 0.08569673
vt 0.6294091 0.01703706
vt 0.7144588 0.1285457
vt 0.7499995 0.06698716
vt 0.8032907 0.1967087
vt 0.8535529 0.1464463
vt 0.8714539 0.2855405
vt 0.9330124 0.2499996
vt 0.9143031 0.3889874
vt 0.9829627 0.37059
vt 0.4999997 0.1530779
vt 0.5897897 0.164899
vt 0.6734607 0.1995566
vt 0.7453107 0.2546888
vt 0.8004431 0.3265387
vt 0.8351009 0.4102096
vt 0.8469221 0.4999999
vt 0.835101 0.58979
vt 0.8004433 0.673461
vt 0.7453109 0.7453109
vt 0.673461 0.8004433
vt 0.5897901 0.835101
vt 0.5000001 0.846922
vt 0.41021 0.835101
vt 0.326539 0.8004434
vt 0.2546891 0.745311
vt 0.1995566 0.6734612
vt 0.1648991 0.5897902
vt 0.1530779 0.5000002
vt 0.164899 0.4102102
vt 0.1995565 0.3265392
vt 0.2546887 0.2546892
vt 0.3265387 0.1995568
vt 0.4102097 0.1648991
vt 0.2575303 0.5000002
vt 0.2657923 0.5627559
vt 0.2657923 0.4372444
vt 0.290015 0.3787653
vt 0.3285479 0.3285483
vt 0.378765 0.2900152
vt 0.4372441 0.2657924
vt 0.4999998 0.2575304
vt 0.5627555 0.2657923
vt 0.6212346 0.2900151
vt 0.6714517 0.3285479
vt 0.7099847 0.378765
vt 0.7342075 0.437244
vt 0.7424695 0.4999999
vt 0.7342076 0.5627557
vt 0.7099848 0.6212348
vt 0.6714519 0.6714519
vt 0.6212348 0.7099848
vt 0.5627558 0.7342076
vt 0.5 0.7424696
vt 0.4372443 0.7342077
vt 0.3787652 0.7099849
vt 0.3285481 0.671452
vt 0.2900152 0.6212349
vt 0.5353244 0.6318325
vt 0.5 0.6364831
vt 0.4646756 0.6318326
vt 0.4317585 0.6181979
vt 0.4034919 0.5965081
vt 0.3818021 0.5682416
vt 0.3681674 0.5353245
vt 0.3635168 0.5000001
vt 0.3681673 0.4646757
vt 0.3818021 0.4317585
vt 0.4034917 0.4034919
vt 0.4317583 0.3818022
vt 0.4646754 0.3681675
vt 0.4999999 0.3635169
vt 0.5353243 0.3681674
vt 0.5682414 0.3818021
vt 0.596508 0.4034918
vt 0.6181977 0.4317583
vt 0.6318325 0.4646755
vt 0.6364831 0.5
vt 0.6318325 0.5353244
vt 0.6181978 0.5682415
vt 0.5965081 0.5965081
vt 0.5682415 0.6181978
vt 0.4999999 0.5
vt 0.4999999 0.5
vt 0.4999999 0.5
vt 0.4999999 0.5
vt 0.4999999 0.5
vt 0.4999999 0.5
vt 0.4999999 0.5
vt 0.4999999 0.5
vt 0.4999999 0.5
vt 0.4999999 0.5
vt 0.4999999 0.5
vt 0.4999999 0.5
vt 0.4999999 0.5
vt 0.4999999 0.5
vt 0.4999999 0.5
vt 0.4999999 0.5
vt 0.4999999 0.5
vt 0.4999999 0.5
vt 0.4999999 0.5
vt 0.4999999 0.5
vt 0.4999999 0.5
vt 0.4999999 0.5
vt 0.4999999 0.5
vt 0.4999999 0.5
vn 0.9766715 -0.2147387 -1.947653E-07
vn 0.9731851 -0.2300236 -2.154938E-07
vn 0.9400245 -0.2300237 0.2518791
vn 0.9433922 -0.2147386 0.2527814
vn 0.8428028 -0.2300237 0.4865927
vn 0.8458224 -0.2147385 0.4883358
vn 0.6881459 -0.2300237 0.6881456
vn 0.6906112 -0.2147385 0.690611
vn 0.4865927 -0.2300237 0.8428028
vn 0.488336 -0.2147384 0.8458223
vn 0.2518788 -0.2300237 0.9400246
vn 0.2527812 -0.2147384 0.9433923
vn 0 -0.2300237 0.9731851
vn 0 -0.2147384 0.9766716
vn -0.2518786 -0.2300237 0.9400246
vn -0.2527811 -0.2147385 0.9433924
vn -0.4865924 -0.2300237 0.842803
vn -0.4883358 -0.2147384 0.8458225
vn -0.6881456 -0.2300237 0.6881459
vn -0.6906109 -0.2147384 0.6906112
vn -0.8428028 -0.2300237 0.4865928
vn -0.8458222 -0.2147384 0.4883361
vn -0.9400245 -0.2300237 0.2518789
vn -0.9433923 -0.2147383 0.2527814
vn -0.9731851 -0.2300237 1.987332E-07
vn -0.9766716 -0.2147383 2.2398E-07
vn -0.9400247 -0.2300237 -0.2518784
vn -0.9433924 -0.2147383 -0.2527808
vn -0.8428034 -0.2300237 -0.4865918
vn -0.8458228 -0.2147384 -0.4883352
vn -0.6881461 -0.2300237 -0.6881454
vn -0.6906115 -0.2147384 -0.6906108
vn -0.4865926 -0.2300237 -0.8428029
vn -0.488336 -0.2147385 -0.8458223
vn -0.2518792 -0.2300237 -0.9400244
vn -0.2527816 -0.2147385 -0.9433922
vn -3.136633E-07 -0.2300237 -0.9731851
vn -2.824096E-07 -0.2147385 -0.9766716
vn 0.2518785 -0.2300237 -0.9400246
vn 0.2527809 -0.2147385 -0.9433924
vn 0.4865919 -0.2300237 -0.8428033
vn 0.4883351 -0.2147385 -0.8458228
vn 0.6881452 -0.2300237 -0.6881462
vn 0.6906106 -0.2147385 -0.6906115
vn 0.8428026 -0.2300237 -0.4865932
vn 0.845822 -0.2147386 -0.4883364
vn 0.9400244 -0.2300237 -0.2518795
vn 0.9433921 -0.2147387 -0.2527817
vn -3.764633E-07 -0.276079 -0.961135
vn 0.2487597 -0.276079 -0.9283851
vn 0.4805669 -0.2760791 -0.8323676
vn 0.6796246 -0.276079 -0.6796255
vn 0.8323668 -0.276079 -0.4805682
vn 0.9283849 -0.276079 -0.2487608
vn 0.961135 -0.276079 -2.373877E-07
vn 0.928385 -0.276079 0.2487603
vn 0.8323671 -0.276079 0.4805678
vn 0.679625 -0.276079 0.679625
vn 0.4805677 -0.2760791 0.8323672
vn 0.24876 -0.2760791 0.9283851
vn 0 -0.2760791 0.9611349
vn -0.2487599 -0.2760791 0.9283851
vn -0.4805675 -0.2760791 0.8323672
vn -0.6796249 -0.2760791 0.6796252
vn -0.8323672 -0.2760791 0.4805676
vn -0.928385 -0.2760791 0.2487601
vn -0.9611349 -0.2760791 1.966241E-07
vn -0.9283851 -0.2760791 -0.2487595
vn -0.8323677 -0.2760791 -0.4805667
vn -0.6796255 -0.2760791 -0.6796247
vn -0.4805676 -0.2760791 -0.8323672
vn -0.2487604 -0.276079 -0.928385
vn -0.9509224 -0.3094292 2.677379E-07
vn -0.9185206 -0.3094293 0.246117
vn -0.9185207 -0.3094292 -0.2461164
vn -0.8235233 -0.3094293 -0.4754607
vn -0.6724041 -0.3094293 -0.6724034
vn -0.4754615 -0.3094293 -0.8235229
vn -0.2461172 -0.3094293 -0.9185205
vn -4.231215E-07 -0.3094293 -0.9509224
vn 0.2461165 -0.3094293 -0.9185206
vn 0.4754607 -0.3094293 -0.8235233
vn 0.6724032 -0.3094293 -0.6724043
vn 0.8235226 -0.3094293 -0.4754619
vn 0.9185203 -0.3094294 -0.2461174
vn 0.9509224 -0.3094294 -2.533948E-07
vn 0.9185205 -0.3094294 0.246117
vn 0.8235229 -0.3094293 0.4754614
vn 0.6724037 -0.3094293 0.6724037
vn 0.4754613 -0.3094293 0.8235229
vn 0.2461168 -0.3094294 0.9185206
vn 0 -0.3094293 0.9509224
vn -0.2461167 -0.3094293 0.9185206
vn -0.4754612 -0.3094293 0.823523
vn -0.6724035 -0.3094293 0.6724039
vn -0.8235229 -0.3094294 0.4754615
vn 0.2425065 -0.3494012 0.9050466
vn 0 -0.3494012 0.9369732
vn -0.2425064 -0.3494012 0.9050466
vn -0.4684865 -0.3494012 0.8114426
vn -0.6625399 -0.3494011 0.6625403
vn -0.8114424 -0.3494012 0.4684869
vn -0.9050466 -0.3494012 0.2425068
vn -0.9369732 -0.3494012 3.287052E-07
vn -0.9050467 -0.3494012 -0.2425062
vn -0.8114428 -0.3494011 -0.4684863
vn -0.6625404 -0.3494012 -0.6625398
vn -0.4684869 -0.3494012 -0.8114424
vn -0.2425069 -0.3494012 -0.9050465
vn -4.486707E-07 -0.3494012 -0.9369732
vn 0.2425061 -0.3494012 -0.9050468
vn 0.468486 -0.3494011 -0.8114429
vn 0.6625395 -0.3494012 -0.6625406
vn 0.8114424 -0.3494011 -0.468487
vn 0.9050466 -0.3494012 -0.2425068
vn 0.9369732 -0.3494012 -2.855177E-07
vn 0.9050466 -0.3494012 0.2425066
vn 0.8114427 -0.3494011 0.4684866
vn 0.6625402 -0.3494012 0.66254
vn 0.4684866 -0.3494012 0.8114426
vn 0.8898768 -0.3889278 0.2384418
vn 0.7978417 -0.3889278 0.4606341
vn 0.6514351 -0.3889278 0.6514349
vn 0.4606341 -0.3889279 0.7978416
vn 0.2384417 -0.3889278 0.8898768
vn 0 -0.3889279 0.9212682
vn -0.2384416 -0.3889278 0.8898768
vn -0.460634 -0.3889278 0.7978418
vn -0.6514348 -0.3889278 0.6514352
vn -0.7978415 -0.3889278 0.4606345
vn -0.8898767 -0.3889279 0.238442
vn -0.9212682 -0.3889278 3.535681E-07
vn -0.8898768 -0.3889278 -0.2384414
vn -0.7978419 -0.3889278 -0.4606338
vn -0.6514354 -0.3889278 -0.6514347
vn -0.4606344 -0.3889278 -0.7978415
vn -0.2384421 -0.3889278 -0.8898767
vn -4.634608E-07 -0.3889278 -0.9212682
vn 0.2384414 -0.3889278 -0.8898769
vn 0.4606336 -0.3889278 -0.797842
vn 0.6514345 -0.3889278 -0.6514356
vn 0.7978414 -0.3889278 -0.4606345
vn 0.8898767 -0.3889278 -0.2384421
vn 0.9212682 -0.3889278 -3.010107E-07
g Cone001_0
f 3/3/3 2/2/2 1/1/1
f 4/4/4 3/3/3 1/1/1
f 5/5/5 3/3/3 4/4/4
f 6/6/6 5/5/5 4/4/4
f 7/7/7 5/5/5 6/6/6
f 8/8/8 7/7/7 6/6/6
f 9/9/9 7/7/7 8/8/8
f 10/10/10 9/9/9 8/8/8
f 11/11/11 9/9/9 10/10/10
f 12/12/12 11/11/11 10/10/10
f 13/13/13 11/11/11 12/12/12
f 14/14/14 13/13/13 12/12/12
f 15/15/15 13/13/13 14/14/14
f 16/16/16 15/15/15 14/14/14
f 17/17/17 15/15/15 16/16/16
f 18/18/18 17/17/17 16/16/16
f 19/19/19 17/17/17 18/18/18
f 20/20/20 19/19/19 18/18/18
f 21/21/21 19/19/19 20/20/20
f 22/22/22 21/21/21 20/20/20
f 23/23/23 21/21/21 22/22/22
f 24/24/24 23/23/23 22/22/22
f 25/25/25 23/23/23 24/24/24
f 26/26/26 25/25/25 24/24/24
f 27/27/27 25/25/25 26/26/26
f 28/28/28 27/27/27 26/26/26
f 29/29/29 27/27/27 28/28/28
f 30/30/30 29/29/29 28/28/28
f 31/31/31 29/29/29 30/30/30
f 32/32/32 31/31/31 30/30/30
f 33/33/33 31/31/31 32/32/32
f 34/34/34 33/33/33 32/32/32
f 35/35/35 33/33/33 34/34/34
f 36/36/36 35/35/35 34/34/34
f 37/37/37 35/35/35 36/36/36
f 38/38/38 37/37/37 36/36/36
f 39/39/39 37/37/37 38/38/38
f 40/40/40 39/39/39 38/38/38
f 41/41/41 39/39/39 40/40/40
f 42/42/42 41/41/41 40/40/40
f 43/43/43 41/41/41 42/42/42
f 44/44/44 43/43/43 42/42/42
f 45/45/45 43/43/43 44/44/44
f 46/46/46 45/45/45 44/44/44
f 47/47/47 45/45/45 46/46/46
f 48/48/48 47/47/47 46/46/46
f 2/2/2 47/47/47 48/48/48
f 1/1/1 2/2/2 48/48/48
f 37/37/37 49/49/49 35/35/35
f 50/50/50 49/49/49 37/37/37
f 39/39/39 50/50/50 37/37/37
f 51/51/51 50/50/50 39/39/39
f 41/41/41 51/51/51 39/39/39
f 52/52/52 51/51/51 41/41/41
f 43/43/43 52/52/52 41/41/41
f 53/53/53 52/52/52 43/43/43
f 45/45/45 53/53/53 43/43/43
f 54/54/54 53/53/53 45/45/45
f 47/47/47 54/54/54 45/45/45
f 55/55/55 54/54/54 47/47/47
f 2/2/2 55/55/55 47/47/47
f 56/56/56 55/55/55 2/2/2
f 3/3/3 56/56/56 2/2/2
f 57/57/57 56/56/56 3/3/3
f 5/5/5 57/57/57 3/3/3
f 58/58/58 57/57/57 5/5/5
f 7/7/7 58/58/58 5/5/5
f 59/59/59 58/58/58 7/7/7
f 9/9/9 59/59/59 7/7/7
f 60/60/60 59/59/59 9/9/9
f 11/11/11 60/60/60 9/9/9
f 61/61/61 60/60/60 11/11/11
f 13/13/13 61/61/61 11/11/11
f 62/62/62 61/61/61 13/13/13
f 15/15/15 62/62/62 13/13/13
f 63/63/63 62/62/62 15/15/15
f 17/17/17 63/63/63 15/15/15
f 64/64/64 63/63/63 17/17/17
f 19/19/19 64/64/64 17/17/17
f 65/65/65 64/64/64 19/19/19
f 21/21/21 65/65/65 19/19/19
f 66/66/66 65/65/65 21/21/21
f 23/23/23 66/66/66 21/21/21
f 67/67/67 66/66/66 23/23/23
f 25/25/25 67/67/67 23/23/23
f 68/68/68 67/67/67 25/25/25
f 27/27/27 68/68/68 25/25/25
f 69/69/69 68/68/68 27/27/27
f 29/29/29 69/69/69 27/27/27
f 70/70/70 69/69/69 29/29/29
f 31/31/31 70/70/70 29/29/29
f 71/71/71 70/70/70 31/31/31
f 33/33/33 71/71/71 31/31/31
f 72/72/72 71/71/71 33/33/33
f 35/35/35 72/72/72 33/33/33
f 49/49/49 72/72/72 35/35/35
f 67/67/67 73/73/73 66/66/66
f 73/73/73 74/74/74 66/66/66
f 75/75/75 73/73/73 67/67/67
f 68/68/68 75/75/75 67/67/67
f 76/76/76 75/75/75 68/68/68
f 69/69/69 76/76/76 68/68/68
f 77/77/77 76/76/76 69/69/69
f 70/70/70 77/77/77 69/69/69
f 78/78/78 77/77/77 70/70/70
f 71/71/71 78/78/78 70/70/70
f 79/79/79 78/78/78 71/71/71
f 72/72/72 79/79/79 71/71/71
f 80/80/80 79/79/79 72/72/72
f 49/49/49 80/80/80 72/72/72
f 81/81/81 80/80/80 49/49/49
f 50/50/50 81/81/81 49/49/49
f 82/82/82 81/81/81 50/50/50
f 51/51/51 82/82/82 50/50/50
f 83/83/83 82/82/82 51/51/51
f 52/52/52 83/83/83 51/51/51
f 84/84/84 83/83/83 52/52/52
f 53/53/53 84/84/84 52/52/52
f 85/85/85 84/84/84 53/53/53
f 54/54/54 85/85/85 53/53/53
f 86/86/86 85/85/85 54/54/54
f 55/55/55 86/86/86 54/54/54
f 87/87/87 86/86/86 55/55/55
f 56/56/56 87/87/87 55/55/55
f 88/88/88 87/87/87 56/56/56
f 57/57/57 88/88/88 56/56/56
f 89/89/89 88/88/88 57/57/57
f 58/58/58 89/89/89 57/57/57
f 90/90/90 89/89/89 58/58/58
f 59/59/59 90/90/90 58/58/58
f 91/91/91 90/90/90 59/59/59
f 60/60/60 91/91/91 59/59/59
f 92/92/92 91/91/91 60/60/60
f 61/61/61 92/92/92 60/60/60
f 93/93/93 92/92/92 61/61/61
f 62/62/62 93/93/93 61/61/61
f 94/94/94 93/93/93 62/62/62
f 63/63/63 94/94/94 62/62/62
f 95/95/95 94/94/94 63/63/63
f 64/64/64 95/95/95 63/63/63
f 96/96/96 95/95/95 64/64/64
f 65/65/65 96/96/96 64/64/64
f 74/74/74 96/96/96 65/65/65
f 66/66/66 74/74/74 65/65/65
f 91/91/91 97/97/97 90/90/90
f 98/98/98 97/97/97 91/91/91
f 92/92/92 98/98/98 91/91/91
f 99/99/99 98/98/98 92/92/92
f 93/93/93 99/99/99 92/92/92
f 100/100/100 99/99/99 93/93/93
f 94/94/94 100/100/100 93/93/93
f 101/101/101 100/100/100 94/94/94
f 95/95/95 101/101/101 94/94/94
f 102/102/102 101/101/101 95/95/95
f 96/96/96 102/102/102 95/95/95
f 103/103/103 102/102/102 96/96/96
f 74/74/74 103/103/103 96/96/96
f 104/104/104 103/103/103 74/74/74
f 73/73/73 104/104/104 74/74/74
f 105/105/105 104/104/104 73/73/73
f 75/75/75 105/105/105 73/73/73
f 106/106/106 105/105/105 75/75/75
f 76/76/76 106/106/106 75/75/75
f 107/107/107 106/106/106 76/76/76
f 77/77/77 107/107/107 76/76/76
f 108/108/108 107/107/107 77/77/77
f 78/78/78 108/108/108 77/77/77
f 109/109/109 108/108/108 78/78/78
f 79/79/79 109/109/109 78/78/78
f 110/110/110 109/109/109 79/79/79
f 80/80/80 110/110/110 79/79/79
f 111/111/111 110/110/110 80/80/80
f 81/81/81 111/111/111 80/80/80
f 112/112/112 111/111/111 81/81/81
f 82/82/82 112/112/112 81/81/81
f 113/113/113 112/112/112 82/82/82
f 83/83/83 113/113/113 82/82/82
f 114/114/114 113/113/113 83/83/83
f 84/84/84 114/114/114 83/83/83
f 115/115/115 114/114/114 84/84/84
f 85/85/85 115/115/115 84/84/84
f 116/116/116 115/115/115 85/85/85
f 86/86/86 116/116/116 85/85/85
f 117/117/117 116/116/116 86/86/86
f 87/87/87 117/117/117 86/86/86
f 118/118/118 117/117/117 87/87/87
f 88/88/88 118/118/118 87/87/87
f 119/119/119 118/118/118 88/88/88
f 89/89/89 119/119/119 88/88/88
f 120/120/120 119/119/119 89/89/89
f 90/90/90 120/120/120 89/89/89
f 97/97/97 120/120/120 90/90/90
f 117/117/117 121/121/121 116/116/116
f 118/118/118 122/122/122 117/117/117
f 119/119/119 123/123/123 118/118/118
f 120/120/120 124/124/124 119/119/119
f 97/97/97 125/125/125 120/120/120
f 98/98/98 126/126/126 97/97/97
f 99/99/99 127/127/127 98/98/98
f 100/100/100 128/128/128 99/99/99
f 101/101/101 129/129/129 100/100/100
f 102/102/102 130/130/130 101/101/101
f 103/103/103 131/131/131 102/102/102
f 104/104/104 132/132/132 103/103/103
f 105/105/105 133/133/133 104/104/104
f 106/106/106 134/134/134 105/105/105
f 107/107/107 135/135/135 106/106/106
f 108/108/108 136/136/136 107/107/107
f 109/109/109 137/137/137 108/108/108
f 110/110/110 138/138/138 109/109/109
f 111/111/111 139/139/139 110/110/110
f 112/112/112 140/140/140 111/111/111
f 113/113/113 141/141/141 112/112/112
f 114/114/114 142/142/142 113/113/113
f 115/115/115 143/143/143 114/114/114
f 116/116/116 144/144/144 115/115/115
