g Cone_Trail_01
v 0.2688279 6.605151E-08 -0.03068829
v 0.508 0 0
v 0.5030562 0.07069994 0
v 0.2662117 0.03741368 -0.03068829
v 0.4883209 0.1400238 0
v 0.258414 0.07409909 -0.03068829
v 0.4640811 0.2066222 0
v 0.2455866 0.1093422 -0.03068829
v 0.4308084 0.269199 0
v 0.227979 0.1424572 -0.03068829
v 0.3891506 0.3265361 0
v 0.2059342 0.1727993 -0.03068829
v 0.3399183 0.3775176 0
v 0.179881 0.1997782 -0.03068829
v 0.28407 0.4211511 0
v 0.1503267 0.2228685 -0.03068829
v 0.2226925 0.4565874 0
v 0.1178464 0.241621 -0.03068829
v 0.1569806 0.4831367 0
v 0.08307242 0.2556707 -0.03068829
v 0.08821324 0.5002823 0
v 0.04668148 0.2647439 -0.03068829
v 0.01772888 0.5076905 0
v 0.009381939 0.2686642 -0.03068829
v -0.05310054 0.5052171 0
v -0.0281002 0.2673553 -0.03068829
v 0.179881 0.1997782 0.03068858
v 0.1503267 0.2228685 0.03068858
v 0.1178464 0.241621 0.03068858
v 0.08307242 0.2556707 0.03068858
v 0.04668148 0.2647439 0.03068858
v 0.009381939 0.2686642 0.03068858
v -0.0281002 0.2673553 0.03068858
v 0.2059342 0.1727993 0.03068858
v 0.227979 0.1424572 0.03068858
v 0.2455866 0.1093422 0.03068858
v 0.258414 0.07409909 0.03068858
v 0.2662117 0.03741368 0.03068858
v 0.2688279 6.605151E-08 0.03068858
v 0.5030563 -0.07069897 0
v 0.2662118 -0.03741305 -0.03068829
v 0.2584141 -0.07409851 -0.03068829
v 0.4883212 -0.1400229 0
v 0.2455867 -0.1093417 -0.03068829
v 0.4640814 -0.2066215 0
v 0.2279792 -0.1424567 -0.03068829
v 0.4308088 -0.2691984 0
v 0.2059344 -0.1727989 -0.03068829
v 0.389151 -0.3265356 0
v 0.1798812 -0.1997778 -0.03068829
v 0.3399188 -0.3775172 0
v 0.1503269 -0.2228683 -0.03068829
v 0.2840704 -0.4211508 0
v 0.1178466 -0.2416208 -0.03068829
v 0.2226929 -0.4565872 0
v 0.08307257 -0.2556705 -0.03068829
v 0.1569809 -0.4831366 0
v 0.04668162 -0.2647438 -0.03068829
v 0.0882135 -0.5002823 0
v 0.009382049 -0.2686641 -0.03068829
v 0.01772909 -0.5076905 0
v -0.02810012 -0.2673552 -0.03068829
v -0.05310039 -0.5052171 0
v -0.06503537 -0.2608425 -0.03068829
v -0.1228963 -0.4929102 0
v -0.1007048 -0.2492529 -0.03068829
v -0.1903003 -0.4710094 0
v -0.134414 -0.2328117 -0.03068829
v -0.2540002 -0.4399408 0
v -0.1655071 -0.2118392 -0.03068829
v -0.3127562 -0.4003093 0
v -0.1933788 -0.1867434 -0.03068829
v -0.3654248 -0.3528862 0
v -0.2174865 -0.1580129 -0.03068829
v -0.4109808 -0.2985947 0
v -0.2373611 -0.1262069 -0.03068829
v -0.4485375 -0.2384913 0
v -0.2526157 -0.09194438 -0.03068829
v -0.4773639 -0.173746 0
v -0.2629534 -0.0558923 -0.03068829
v -0.496899 -0.1056189 0
v -0.2681731 -0.01875234 -0.03068829
v -0.5067626 -0.03543613 0
v -0.2681731 0.01875262 -0.03068829
v -0.5067625 0.03543641 0
v -0.2629534 0.05589258 -0.03068829
v -0.496899 0.1056192 0
v -0.2526156 0.09194465 -0.03068829
v -0.4773638 0.1737463 0
v -0.237361 0.1262071 -0.03068829
v -0.4485373 0.2384916 0
v -0.2174864 0.1580132 -0.03068829
v -0.4109807 0.2985949 0
v -0.1933787 0.1867436 -0.03068829
v -0.3654247 0.3528864 0
v -0.1655071 0.2118393 -0.03068829
v -0.3127561 0.4003094 0
v -0.134414 0.2328118 -0.03068829
v -0.2540001 0.4399408 0
v -0.1007048 0.2492529 -0.03068829
v -0.1903003 0.4710093 0
v -0.06503541 0.2608427 -0.03068829
v -0.1228964 0.4929102 0
v -0.0281002 0.2673553 -0.03068829
v -0.05310054 0.5052171 0
v -0.06503541 0.2608427 0.03068858
v -0.0281002 0.2673553 0.03068858
v -0.1007048 0.2492529 0.03068858
v -0.134414 0.2328118 0.03068858
v -0.1655071 0.2118393 0.03068858
v -0.1933787 0.1867436 0.03068858
v -0.2174864 0.1580132 0.03068858
v -0.237361 0.1262071 0.03068858
v -0.2526156 0.09194465 0.03068858
v -0.2629534 0.05589258 0.03068858
v -0.2681731 0.01875262 0.03068858
v -0.2681731 -0.01875234 0.03068858
v -0.2629534 -0.0558923 0.03068858
v -0.2526157 -0.09194438 0.03068858
v -0.2373611 -0.1262069 0.03068858
v -0.2174865 -0.1580129 0.03068858
v -0.1933788 -0.1867434 0.03068858
v -0.1655071 -0.2118392 0.03068858
v -0.134414 -0.2328117 0.03068858
v -0.1007048 -0.2492529 0.03068858
v -0.06503537 -0.2608425 0.03068858
v -0.02810012 -0.2673552 0.03068858
v 0.009382049 -0.2686641 0.03068858
v 0.04668162 -0.2647438 0.03068858
v 0.08307257 -0.2556705 0.03068858
v 0.1178466 -0.2416208 0.03068858
v 0.1503269 -0.2228683 0.03068858
v 0.1798812 -0.1997778 0.03068858
v 0.2059344 -0.1727989 0.03068858
v 0.2279792 -0.1424567 0.03068858
v 0.2455867 -0.1093417 0.03068858
v 0.2584141 -0.07409851 0.03068858
v 0.2662118 -0.03741305 0.03068858
vt 0.75 0
vt 0.75 0.5
vt 0.7722222 0.5
vt 0.7722222 0
vt 0.7944444 0.5
vt 0.7944444 0
vt 0.8166667 0.5
vt 0.8166667 0
vt 0.8388889 0.5
vt 0.8388889 0
vt 0.861111 0.5
vt 0.861111 0
vt 0.8833333 0.5
vt 0.8833333 0
vt 0.9055555 0.5
vt 0.9055555 0
vt 0.9277778 0.5
vt 0.9277778 0
vt 0.95 0.5
vt 0.95 0
vt 0.9722222 0.5
vt 0.9722222 0
vt 0.9944444 0.5
vt 0.9944444 0
vt 1.016667 0.5
vt 1.016667 0
vt 0.8833333 1
vt 0.9055555 1
vt 0.9277778 1
vt 0.95 1
vt 0.9722222 1
vt 0.9944444 1
vt 1.016667 1
vt 0.861111 1
vt 0.8388889 1
vt 0.8166667 1
vt 0.7944444 1
vt 0.7722222 1
vt 0.75 1
vt 0.7277781 0.5
vt 0.7277781 0
vt 0.7055558 0
vt 0.7055558 0.5
vt 0.6833335 0
vt 0.6833335 0.5
vt 0.6611113 0
vt 0.6611113 0.5
vt 0.6388891 0
vt 0.6388891 0.5
vt 0.6166669 0
vt 0.6166669 0.5
vt 0.5944446 0
vt 0.5944446 0.5
vt 0.5722224 0
vt 0.5722224 0.5
vt 0.5500001 0
vt 0.5500001 0.5
vt 0.5277779 0
vt 0.5277779 0.5
vt 0.5055556 0
vt 0.5055556 0.5
vt 0.4833333 0
vt 0.4833333 0.5
vt 0.4611111 0
vt 0.4611111 0.5
vt 0.4388888 0
vt 0.4388888 0.5
vt 0.4166666 0
vt 0.4166666 0.5
vt 0.3944444 0
vt 0.3944444 0.5
vt 0.3722222 0
vt 0.3722222 0.5
vt 0.3499999 0
vt 0.3499999 0.5
vt 0.3277777 0
vt 0.3277777 0.5
vt 0.3055555 0
vt 0.3055555 0.5
vt 0.2833333 0
vt 0.2833333 0.5
vt 0.2611111 0
vt 0.2611111 0.5
vt 0.2388889 0
vt 0.2388889 0.5
vt 0.2166667 0
vt 0.2166667 0.5
vt 0.1944444 0
vt 0.1944444 0.5
vt 0.1722222 0
vt 0.1722222 0.5
vt 0.1500001 0
vt 0.1500001 0.5
vt 0.1277778 0
vt 0.1277778 0.5
vt 0.1055556 0
vt 0.1055556 0.5
vt 0.08333339 0
vt 0.08333339 0.5
vt 0.06111118 0
vt 0.06111118 0.5
vt 0.03888893 0
vt 0.03888893 0.5
vt 0.01666672 0
vt 0.01666672 0.5
vt 0.03888893 1
vt 0.01666672 1
vt 0.06111118 1
vt 0.08333339 1
vt 0.1055556 1
vt 0.1277778 1
vt 0.1500001 1
vt 0.1722222 1
vt 0.1944444 1
vt 0.2166667 1
vt 0.2388889 1
vt 0.2611111 1
vt 0.2833333 1
vt 0.3055555 1
vt 0.3277777 1
vt 0.3499999 1
vt 0.3722222 1
vt 0.3944444 1
vt 0.4166666 1
vt 0.4388888 1
vt 0.4611111 1
vt 0.4833333 1
vt 0.5055556 1
vt 0.5277779 1
vt 0.5500001 1
vt 0.5722224 1
vt 0.5944446 1
vt 0.6166669 1
vt 0.6388891 1
vt 0.6611113 1
vt 0.6833335 1
vt 0.7055558 1
vt 0.7277781 1
vn 0.1272672 0 -0.9918684
vn 1 4.82496E-07 -7.797915E-07
vn 0.9902681 0.1391732 -9.357498E-07
vn 0.1260286 0.01771219 -0.9918684
vn 0.9612617 0.2756373 -4.678749E-07
vn 0.1223371 0.03507959 -0.9918684
vn 0.9135455 0.4067365 -3.119166E-07
vn 0.1162644 0.0517642 -0.9918684
vn 0.8480481 0.5299192 -7.797917E-07
vn 0.1079287 0.06744134 -0.9918684
vn 0.7660445 0.6427875 -6.23833E-07
vn 0.09749233 0.08180578 -0.9918684
vn 0.6691308 0.7431446 -4.678749E-07
vn 0.08515841 0.09457793 -0.9918684
vn 0.5591929 0.8290375 -3.119166E-07
vn 0.07116692 0.1055093 -0.9918684
vn 0.4383712 0.8987941 -6.238332E-07
vn 0.05579027 0.114387 -0.9918684
vn 0.3090171 0.9510565 -6.238333E-07
vn 0.03932774 0.1210383 -0.9918684
vn 0.1736477 0.9848078 -7.797916E-07
vn 0.02209966 0.1253337 -0.9918684
vn 0.03489929 0.9993908 -9.357495E-07
vn 0.00444153 0.1271897 -0.9918684
vn -0.1045283 0.9945219 -6.238334E-07
vn -0.01330301 0.12657 -0.9918684
vn 0.0851592 0.09457881 0.9918683
vn 0.07116758 0.1055103 0.9918683
vn 0.05579079 0.1143881 0.9918683
vn 0.03932812 0.1210394 0.9918683
vn 0.02209986 0.1253349 0.9918683
vn 0.004441577 0.1271909 0.9918683
vn -0.01330313 0.1265712 0.9918683
vn 0.09749325 0.08180654 0.9918683
vn 0.1079297 0.06744197 0.9918683
vn 0.1162655 0.0517647 0.9918683
vn 0.1223382 0.03507992 0.9918683
vn 0.1260298 0.01771234 0.9918683
vn 0.1272683 0 0.9918683
vn 0.9902683 -0.1391718 -4.67875E-07
vn 0.1260286 -0.01771201 -0.9918684
vn 0.1223371 -0.03507937 -0.9918684
vn 0.9612622 -0.2756358 -6.238334E-07
vn 0.1162644 -0.051764 -0.9918684
vn 0.9135462 -0.4067351 -3.119167E-07
vn 0.1079288 -0.06744113 -0.9918684
vn 0.8480489 -0.529918 -6.238337E-07
vn 0.09749237 -0.0818056 -0.9918684
vn 0.7660452 -0.6427867 -4.67875E-07
vn 0.08515844 -0.09457782 -0.9918684
vn 0.6691315 -0.743144 -3.119168E-07
vn 0.07116699 -0.1055091 -0.9918684
vn 0.5591938 -0.829037 0
vn 0.05579031 -0.1143869 -0.9918684
vn 0.4383716 -0.8987938 -4.67875E-07
vn 0.03932779 -0.1210382 -0.9918684
vn 0.3090177 -0.9510562 -3.119167E-07
vn 0.02209976 -0.1253337 -0.9918684
vn 0.1736486 -0.9848077 -3.119168E-07
vn 0.004441578 -0.1271896 -0.9918684
vn 0.03489967 -0.9993908 -3.119167E-07
vn -0.01330303 -0.1265699 -0.9918684
vn -0.1045284 -0.9945219 -3.119168E-07
vn -0.0307887 -0.1234867 -0.9918684
vn -0.2419219 -0.9702957 -3.119168E-07
vn -0.04767514 -0.118 -0.9918684
vn -0.3746068 -0.9271837 0
vn -0.06363365 -0.1102165 -0.9918684
vn -0.5000005 -0.8660251 -6.238333E-07
vn -0.07835352 -0.1002878 -0.9918684
vn -0.6156618 -0.7880105 -4.678751E-07
vn -0.09154835 -0.08840717 -0.9918684
vn -0.7193401 -0.6946581 0
vn -0.1029613 -0.07480572 -0.9918684
vn -0.8090173 -0.5877848 -3.119168E-07
vn -0.1123703 -0.05974824 -0.9918684
vn -0.8829479 -0.4694711 -4.67875E-07
vn -0.119592 -0.04352786 -0.9918684
vn -0.9396929 -0.3420196 0
vn -0.1244861 -0.02646028 -0.9918684
vn -0.9781477 -0.2079113 -4.67875E-07
vn -0.1269571 -0.008877668 -0.9918684
vn -0.9975641 -0.06975617 -4.678751E-07
vn -0.1269572 0.008877723 -0.9918684
vn -0.9975641 0.0697566 0
vn -0.1244861 0.02646035 -0.9918684
vn -0.9781476 0.2079118 0
vn -0.119592 0.04352799 -0.9918684
vn -0.9396925 0.3420205 -6.238334E-07
vn -0.1123703 0.0597483 -0.9918684
vn -0.8829477 0.4694713 -4.678747E-07
vn -0.1029613 0.07480575 -0.9918684
vn -0.8090172 0.587785 -7.797918E-07
vn -0.09154834 0.08840723 -0.9918684
vn -0.7193397 0.6946585 -9.357498E-07
vn -0.0783535 0.1002879 -0.9918684
vn -0.6156614 0.7880108 -4.678748E-07
vn -0.0636336 0.1102166 -0.9918684
vn -0.5000001 0.8660254 -7.797917E-07
vn -0.04767519 0.1180001 -0.9918684
vn -0.3746071 0.9271836 -6.238331E-07
vn -0.03078877 0.1234868 -0.9918684
vn -0.2419223 0.9702956 -3.119167E-07
vn -0.01330301 0.12657 -0.9918684
vn -0.1045283 0.9945219 -6.238334E-07
vn -0.03078906 0.1234879 0.9918683
vn -0.01330313 0.1265712 0.9918683
vn -0.04767564 0.1180012 0.9918683
vn -0.0636342 0.1102176 0.9918683
vn -0.07835424 0.1002889 0.9918683
vn -0.0915492 0.08840806 0.9918683
vn -0.1029623 0.07480644 0.9918683
vn -0.1123713 0.05974887 0.9918683
vn -0.1195931 0.0435284 0.9918683
vn -0.1244872 0.0264606 0.9918683
vn -0.1269583 0.00887781 0.9918683
vn -0.1269583 -0.00887775 0.9918683
vn -0.1244872 -0.02646052 0.9918683
vn -0.1195932 -0.04352827 0.9918683
vn -0.1123713 -0.0597488 0.9918683
vn -0.1029623 -0.0748064 0.9918683
vn -0.09154921 -0.08840799 0.9918683
vn -0.07835424 -0.1002888 0.9918683
vn -0.06363423 -0.1102176 0.9918683
vn -0.04767558 -0.1180011 0.9918683
vn -0.03078899 -0.1234879 0.9918683
vn -0.01330315 -0.1265711 0.9918683
vn 0.004441625 -0.1271908 0.9918683
vn 0.02209997 -0.1253348 0.9918683
vn 0.03932818 -0.1210394 0.9918683
vn 0.05579084 -0.114388 0.9918683
vn 0.07116766 -0.1055101 0.9918683
vn 0.08515923 -0.09457869 0.9918683
vn 0.09749331 -0.08180638 0.9918683
vn 0.1079298 -0.06744175 0.9918683
vn 0.1162655 -0.05176449 0.9918683
vn 0.1223382 -0.03507971 0.9918683
vn 0.1260298 -0.01771218 0.9918683
g Cone_Trail_01_0
f 3/3/3 2/2/2 1/1/1
f 4/4/4 3/3/3 1/1/1
f 5/5/5 3/3/3 4/4/4
f 6/6/6 5/5/5 4/4/4
f 7/7/7 5/5/5 6/6/6
f 8/8/8 7/7/7 6/6/6
f 9/9/9 7/7/7 8/8/8
f 10/10/10 9/9/9 8/8/8
f 11/11/11 9/9/9 10/10/10
f 12/12/12 11/11/11 10/10/10
f 13/13/13 11/11/11 12/12/12
f 14/14/14 13/13/13 12/12/12
f 15/15/15 13/13/13 14/14/14
f 16/16/16 15/15/15 14/14/14
f 17/17/17 15/15/15 16/16/16
f 18/18/18 17/17/17 16/16/16
f 19/19/19 17/17/17 18/18/18
f 20/20/20 19/19/19 18/18/18
f 21/21/21 19/19/19 20/20/20
f 22/22/22 21/21/21 20/20/20
f 23/23/23 21/21/21 22/22/22
f 24/24/24 23/23/23 22/22/22
f 25/25/25 23/23/23 24/24/24
f 26/26/26 25/25/25 24/24/24
f 13/13/13 27/27/27 11/11/11
f 28/28/28 27/27/27 13/13/13
f 15/15/15 28/28/28 13/13/13
f 29/29/29 28/28/28 15/15/15
f 17/17/17 29/29/29 15/15/15
f 30/30/30 29/29/29 17/17/17
f 19/19/19 30/30/30 17/17/17
f 31/31/31 30/30/30 19/19/19
f 21/21/21 31/31/31 19/19/19
f 32/32/32 31/31/31 21/21/21
f 23/23/23 32/32/32 21/21/21
f 33/33/33 32/32/32 23/23/23
f 25/25/25 33/33/33 23/23/23
f 27/27/27 34/34/34 11/11/11
f 11/11/11 34/34/34 9/9/9
f 34/34/34 35/35/35 9/9/9
f 9/9/9 35/35/35 7/7/7
f 35/35/35 36/36/36 7/7/7
f 7/7/7 36/36/36 5/5/5
f 36/36/36 37/37/37 5/5/5
f 5/5/5 37/37/37 3/3/3
f 37/37/37 38/38/38 3/3/3
f 3/3/3 38/38/38 2/2/2
f 38/38/38 39/39/39 2/2/2
f 2/2/2 39/39/39 40/40/40
f 2/2/2 40/40/40 41/41/41
f 41/41/41 40/40/40 42/42/42
f 40/40/40 43/43/43 42/42/42
f 42/42/42 43/43/43 44/44/44
f 43/43/43 45/45/45 44/44/44
f 44/44/44 45/45/45 46/46/46
f 45/45/45 47/47/47 46/46/46
f 46/46/46 47/47/47 48/48/48
f 47/47/47 49/49/49 48/48/48
f 48/48/48 49/49/49 50/50/50
f 49/49/49 51/51/51 50/50/50
f 50/50/50 51/51/51 52/52/52
f 51/51/51 53/53/53 52/52/52
f 52/52/52 53/53/53 54/54/54
f 53/53/53 55/55/55 54/54/54
f 54/54/54 55/55/55 56/56/56
f 55/55/55 57/57/57 56/56/56
f 56/56/56 57/57/57 58/58/58
f 57/57/57 59/59/59 58/58/58
f 58/58/58 59/59/59 60/60/60
f 59/59/59 61/61/61 60/60/60
f 60/60/60 61/61/61 62/62/62
f 61/61/61 63/63/63 62/62/62
f 62/62/62 63/63/63 64/64/64
f 63/63/63 65/65/65 64/64/64
f 64/64/64 65/65/65 66/66/66
f 65/65/65 67/67/67 66/66/66
f 66/66/66 67/67/67 68/68/68
f 67/67/67 69/69/69 68/68/68
f 68/68/68 69/69/69 70/70/70
f 69/69/69 71/71/71 70/70/70
f 70/70/70 71/71/71 72/72/72
f 71/71/71 73/73/73 72/72/72
f 72/72/72 73/73/73 74/74/74
f 73/73/73 75/75/75 74/74/74
f 74/74/74 75/75/75 76/76/76
f 75/75/75 77/77/77 76/76/76
f 76/76/76 77/77/77 78/78/78
f 77/77/77 79/79/79 78/78/78
f 78/78/78 79/79/79 80/80/80
f 79/79/79 81/81/81 80/80/80
f 80/80/80 81/81/81 82/82/82
f 81/81/81 83/83/83 82/82/82
f 82/82/82 83/83/83 84/84/84
f 83/83/83 85/85/85 84/84/84
f 84/84/84 85/85/85 86/86/86
f 85/85/85 87/87/87 86/86/86
f 86/86/86 87/87/87 88/88/88
f 87/87/87 89/89/89 88/88/88
f 88/88/88 89/89/89 90/90/90
f 89/89/89 91/91/91 90/90/90
f 90/90/90 91/91/91 92/92/92
f 91/91/91 93/93/93 92/92/92
f 92/92/92 93/93/93 94/94/94
f 93/93/93 95/95/95 94/94/94
f 94/94/94 95/95/95 96/96/96
f 95/95/95 97/97/97 96/96/96
f 96/96/96 97/97/97 98/98/98
f 97/97/97 99/99/99 98/98/98
f 98/98/98 99/99/99 100/100/100
f 99/99/99 101/101/101 100/100/100
f 100/100/100 101/101/101 102/102/102
f 101/101/101 103/103/103 102/102/102
f 102/102/102 103/103/103 104/104/104
f 103/103/103 105/105/105 104/104/104
f 103/103/103 106/106/106 105/105/105
f 106/106/106 107/107/107 105/105/105
f 108/108/108 106/106/106 103/103/103
f 101/101/101 108/108/108 103/103/103
f 109/109/109 108/108/108 101/101/101
f 99/99/99 109/109/109 101/101/101
f 110/110/110 109/109/109 99/99/99
f 97/97/97 110/110/110 99/99/99
f 111/111/111 110/110/110 97/97/97
f 95/95/95 111/111/111 97/97/97
f 112/112/112 111/111/111 95/95/95
f 93/93/93 112/112/112 95/95/95
f 113/113/113 112/112/112 93/93/93
f 91/91/91 113/113/113 93/93/93
f 114/114/114 113/113/113 91/91/91
f 89/89/89 114/114/114 91/91/91
f 115/115/115 114/114/114 89/89/89
f 87/87/87 115/115/115 89/89/89
f 116/116/116 115/115/115 87/87/87
f 85/85/85 116/116/116 87/87/87
f 117/117/117 116/116/116 85/85/85
f 83/83/83 117/117/117 85/85/85
f 118/118/118 117/117/117 83/83/83
f 81/81/81 118/118/118 83/83/83
f 119/119/119 118/118/118 81/81/81
f 79/79/79 119/119/119 81/81/81
f 120/120/120 119/119/119 79/79/79
f 77/77/77 120/120/120 79/79/79
f 121/121/121 120/120/120 77/77/77
f 75/75/75 121/121/121 77/77/77
f 122/122/122 121/121/121 75/75/75
f 73/73/73 122/122/122 75/75/75
f 123/123/123 122/122/122 73/73/73
f 71/71/71 123/123/123 73/73/73
f 124/124/124 123/123/123 71/71/71
f 69/69/69 124/124/124 71/71/71
f 125/125/125 124/124/124 69/69/69
f 67/67/67 125/125/125 69/69/69
f 126/126/126 125/125/125 67/67/67
f 65/65/65 126/126/126 67/67/67
f 127/127/127 126/126/126 65/65/65
f 63/63/63 127/127/127 65/65/65
f 128/128/128 127/127/127 63/63/63
f 61/61/61 128/128/128 63/63/63
f 129/129/129 128/128/128 61/61/61
f 59/59/59 129/129/129 61/61/61
f 130/130/130 129/129/129 59/59/59
f 57/57/57 130/130/130 59/59/59
f 131/131/131 130/130/130 57/57/57
f 55/55/55 131/131/131 57/57/57
f 132/132/132 131/131/131 55/55/55
f 53/53/53 132/132/132 55/55/55
f 133/133/133 132/132/132 53/53/53
f 51/51/51 133/133/133 53/53/53
f 134/134/134 133/133/133 51/51/51
f 49/49/49 134/134/134 51/51/51
f 135/135/135 134/134/134 49/49/49
f 47/47/47 135/135/135 49/49/49
f 136/136/136 135/135/135 47/47/47
f 45/45/45 136/136/136 47/47/47
f 137/137/137 136/136/136 45/45/45
f 43/43/43 137/137/137 45/45/45
f 138/138/138 137/137/137 43/43/43
f 40/40/40 138/138/138 43/43/43
f 39/39/39 138/138/138 40/40/40
f 1/1/1 2/2/2 41/41/41
