g Cross_T6_BOSS_A
v -0.05698624 -7.629394E-08 -0.3583749
v -0.008790649 -1.239777E-07 -0.020879
v -6.300386E-10 -0.009419489 -0.03756632
v -6.300386E-10 -0.03118677 -0.3351839
v 0.008790648 -1.239777E-07 -0.020879
v 0.05698624 -7.629394E-08 -0.3583749
v 0.03566056 -7.629394E-08 -0.3780548
v 0.0257051 -7.629394E-08 -0.4144614
v -6.300386E-10 -0.02346184 -0.4395163
v -0.0257051 -7.629394E-08 -0.4144615
v -0.03566056 -7.629394E-08 -0.3780548
v -6.300386E-10 -1.245719E-07 -1.818989E-14
v 0.03393091 -7.629394E-08 -0.4410279
v -0.03393091 -7.629394E-08 -0.4410279
v -0.0226658 -7.629394E-08 -0.4755948
v -0.0161419 -7.629394E-08 -0.6171827
v -6.300386E-10 -0.01645138 -0.6180463
v 0.0226658 -7.629394E-08 -0.4755948
v 0.0161419 -7.629394E-08 -0.6171827
v 0.01587296 0 -1.23764
v -6.300386E-10 -0.01645134 -1.238661
v -6.300386E-10 -0.01869522 -1.409535
v 0.02072336 0 -1.412234
v 0.04503337 0 -1.450849
v -6.300386E-10 -0.02221619 -1.457124
v -6.300386E-10 0 -1.543785
v -0.04503337 0 -1.450849
v -0.02072336 0 -1.412234
v -0.01587296 0 -1.23764
v 0.04503337 0 -1.450849
v -6.300386E-10 0.02221619 -1.457124
v -0.04503337 0 -1.450849
v -0.0005293852 0.01869522 -1.409261
v 0.02072336 0 -1.412234
v -0.02072336 0 -1.412234
v -6.300386E-10 0.01645126 -1.238661
v 0.01587296 0 -1.23764
v -0.01587296 0 -1.23764
v -6.300386E-10 0.01645122 -0.6180463
v 0.0161419 -7.629394E-08 -0.6171827
v -6.300386E-10 0.02346168 -0.4395163
v 0.0226658 -7.629394E-08 -0.4755948
v 0.03393091 -7.629394E-08 -0.4410279
v -0.0226658 -7.629394E-08 -0.4755948
v -0.0161419 -7.629394E-08 -0.6171827
v 0.0257051 -7.629394E-08 -0.4144614
v -6.300386E-10 0.03118656 -0.3351839
v 0.03566056 -7.629394E-08 -0.3780548
v 0.05698624 -7.629394E-08 -0.3583749
v -0.0257051 -7.629394E-08 -0.4144615
v -0.03566056 -7.629394E-08 -0.3780548
v -0.05698624 -7.629394E-08 -0.3583749
v -0.008790649 -1.239777E-07 -0.020879
v -6.300386E-10 0.009419246 -0.0375663
v 0.008790648 -1.239777E-07 -0.020879
v -0.03393091 -7.629394E-08 -0.4410279
vt 0.9140613 0.7638932
vt 0.9463125 0.9753479
vt 0.9521952 0.9648929
vt 0.9521952 0.7784233
vt 0.9580777 0.9753479
vt 0.9903288 0.7638932
vt 0.9760584 0.751563
vt 0.9693962 0.7287527
vt 0.9521952 0.7130549
vt 0.9349939 0.7287527
vt 0.9283319 0.751563
vt 0.952195 0.9884297
vt 0.9749007 0.7121078
vt 0.9294893 0.7121077
vt 0.9370277 0.6904502
vt 0.9413933 0.6017398
vt 0.9521952 0.6011987
vt 0.9673625 0.6904502
vt 0.9629968 0.6017398
vt 0.962817 0.212998
vt 0.9521952 0.2123584
vt 0.9521952 0.1052989
vt 0.9660627 0.1036082
vt 0.9823303 0.07941391
vt 0.9521952 0.07548238
vt 0.9521952 0.02118581
vt 0.9220597 0.07941391
vt 0.9383274 0.1036082
vt 0.9415733 0.212998
vt 0.9220597 0.07941391
vt 0.952195 0.07548238
vt 0.9823303 0.07941391
vt 0.952195 0.1052989
vt 0.9383274 0.1036082
vt 0.9660627 0.1036082
vt 0.952195 0.2123584
vt 0.9415733 0.212998
vt 0.962817 0.212998
vt 0.952195 0.6011987
vt 0.9413933 0.6017398
vt 0.952195 0.7130549
vt 0.9370277 0.6904502
vt 0.9294895 0.7121078
vt 0.9673625 0.6904502
vt 0.9629968 0.6017398
vt 0.9349939 0.7287527
vt 0.952195 0.7784233
vt 0.9283319 0.751563
vt 0.9140613 0.7638932
vt 0.9693962 0.7287527
vt 0.9760584 0.751563
vt 0.9903288 0.7638932
vt 0.9580777 0.9753479
vt 0.952195 0.9648929
vt 0.9463125 0.9753479
vt 0.974901 0.7121077
vn -0.9407086 0 -0.3392157
vn -0.9497321 -2.113113E-07 0.3130637
vn 0 -0.9939306 0.1100091
vn 0 -0.9994174 -0.03413008
vn 0.9497321 -2.57297E-07 0.3130637
vn 0.9407086 0 -0.3392157
vn 0.9212139 0 -0.3890564
vn 0.9998485 1.081048E-07 0.01740807
vn 0 -0.9980423 -0.06254236
vn -0.9998485 0 0.01740798
vn -0.921214 1.512351E-07 -0.3890564
vn 0 -1.662267E-07 1
vn 0.9999356 0 -0.01135036
vn -0.9999356 0 -0.01135063
vn -0.9922122 1.025952E-07 -0.124559
vn -0.9997632 1.479294E-07 -0.02176075
vn 0 -0.9997701 -0.02143984
vn 0.9922122 0 -0.124559
vn 0.9997632 1.296761E-07 -0.02176074
vn 0.9999498 0.00261798 0.009670337
vn 0 -0.9999459 0.01039688
vn 0 -0.9919283 0.1267997
vn 0.9821554 0.004955277 0.1880057
vn 0.9996662 0.001209326 -0.0258092
vn 0 -0.9995415 -0.03027808
vn 0 3.604385E-07 -1
vn -0.9995934 -0.001770145 -0.02845724
vn -0.9826733 -0.005251841 0.1852715
vn -0.9999424 -0.002702758 0.01039117
vn 0.9996662 0.001209326 -0.0258092
vn 0.0003715009 0.9995343 -0.03051262
vn -0.9995934 -0.001770145 -0.02845724
vn -0.00527158 0.992002 0.1261117
vn 0.9821554 0.004955277 0.1880057
vn -0.9826733 -0.005251841 0.1852715
vn -0.001567476 0.9999446 0.0104085
vn 0.9999498 0.00261798 0.009670337
vn -0.9999424 -0.002702758 0.01039117
vn 0 0.9997701 -0.02143968
vn 0.9997632 1.296761E-07 -0.02176074
vn 0 0.9980423 -0.06254216
vn 0.9922122 0 -0.124559
vn 0.9999356 0 -0.01135036
vn -0.9922122 1.025952E-07 -0.124559
vn -0.9997632 1.479294E-07 -0.02176075
vn 0.9998485 1.081048E-07 0.01740807
vn 0 0.9994174 -0.03412989
vn 0.9212139 0 -0.3890564
vn 0.9407086 0 -0.3392157
vn -0.9998485 0 0.01740798
vn -0.921214 1.512351E-07 -0.3890564
vn -0.9407086 0 -0.3392157
vn -0.9497321 -2.113113E-07 0.3130637
vn 0 0.9939306 0.1100094
vn 0.9497321 -2.57297E-07 0.3130637
vn -0.9999356 0 -0.01135063
g Cross_T6_BOSS_A_0
f 3/3/3 2/2/2 1/1/1
f 4/4/4 3/3/3 1/1/1
f 5/5/5 3/3/3 4/4/4
f 6/6/6 5/5/5 4/4/4
f 6/6/6 4/4/4 7/7/7
f 8/8/8 7/7/7 4/4/4
f 9/9/9 8/8/8 4/4/4
f 10/10/10 9/9/9 4/4/4
f 11/11/11 10/10/10 4/4/4
f 11/11/11 4/4/4 1/1/1
f 12/12/12 3/3/3 5/5/5
f 12/12/12 2/2/2 3/3/3
f 13/13/13 8/8/8 9/9/9
f 14/14/14 9/9/9 10/10/10
f 15/15/15 9/9/9 14/14/14
f 9/9/9 15/15/15 16/16/16
f 17/17/17 9/9/9 16/16/16
f 18/18/18 9/9/9 17/17/17
f 13/13/13 9/9/9 18/18/18
f 19/19/19 18/18/18 17/17/17
f 20/20/20 19/19/19 17/17/17
f 21/21/21 20/20/20 17/17/17
f 20/20/20 21/21/21 22/22/22
f 23/23/23 20/20/20 22/22/22
f 24/24/24 23/23/23 22/22/22
f 25/25/25 24/24/24 22/22/22
f 26/26/26 24/24/24 25/25/25
f 26/26/26 25/25/25 27/27/27
f 25/25/25 22/22/22 27/27/27
f 22/22/22 28/28/28 27/27/27
f 22/22/22 21/21/21 28/28/28
f 21/21/21 29/29/29 28/28/28
f 17/17/17 16/16/16 29/29/29
f 21/21/21 17/17/17 29/29/29
f 26/26/26 31/31/31 30/30/30
f 26/26/26 32/32/32 31/31/31
f 31/31/31 33/33/33 30/30/30
f 31/31/31 32/32/32 33/33/33
f 33/33/33 34/34/34 30/30/30
f 32/32/32 35/35/35 33/33/33
f 33/33/33 36/36/36 34/34/34
f 36/36/36 37/37/37 34/34/34
f 38/38/38 36/36/36 33/33/33
f 35/35/35 38/38/38 33/33/33
f 36/36/36 39/39/39 37/37/37
f 36/36/36 38/38/38 39/39/39
f 39/39/39 40/40/40 37/37/37
f 39/39/39 41/41/41 40/40/40
f 41/41/41 42/42/42 40/40/40
f 42/42/42 41/41/41 43/43/43
f 44/44/44 41/41/41 39/39/39
f 45/45/45 44/44/44 39/39/39
f 38/38/38 45/45/45 39/39/39
f 43/43/43 41/41/41 46/46/46
f 41/41/41 47/47/47 46/46/46
f 47/47/47 48/48/48 46/46/46
f 49/49/49 48/48/48 47/47/47
f 47/47/47 41/41/41 50/50/50
f 51/51/51 47/47/47 50/50/50
f 51/51/51 52/52/52 47/47/47
f 52/52/52 53/53/53 47/47/47
f 53/53/53 54/54/54 47/47/47
f 54/54/54 53/53/53 12/12/12
f 54/54/54 12/12/12 55/55/55
f 47/47/47 54/54/54 55/55/55
f 49/49/49 47/47/47 55/55/55
f 56/56/56 50/50/50 41/41/41
f 56/56/56 41/41/41 44/44/44
