g Crystal
v -1.749272 -0.04138914 -0.7138538
v -1.618903 0.4511229 -0.6497496
v -1.699312 -0.0191686 0.01723906
v -1.462087 0.5495974 0.6217744
v -1.251048 1.264673 0.5106685
v -1.352805 -0.08102819 0.700785
v -1.699312 -0.0191686 0.01723906
v -1.462087 0.5495974 0.6217744
v -0.3529986 -0.05556986 -1.230662
v -0.4587212 2.979419 -0.1265934
v -0.6833051 1.307959 -0.7534574
v -1.749272 -0.04138914 -0.7138538
v -1.170013 0.007372806 -1.290224
v -1.618903 0.4511229 -0.6497496
v -0.6833051 1.307959 -0.7534574
v -0.9469889 1.880744 -0.02396802
v -1.618903 0.4511229 -0.6497496
v -1.170013 0.007372806 -1.290224
v -1.170013 0.007372806 -1.290224
v -0.3529986 -0.05556986 -1.230662
v -0.6833051 1.307959 -0.7534574
v -1.618903 0.4511229 -0.6497496
v -0.9469889 1.880744 -0.02396802
v -1.251048 1.264673 0.5106685
v -0.6833051 1.307959 -0.7534574
v -0.4587212 2.979419 -0.1265934
v -0.9469889 1.880744 -0.02396802
v -0.9469889 1.880744 -0.02396802
v -0.497463 2.97505 0.2083237
v -0.7807803 1.867025 0.4784465
v -1.251048 1.264673 0.5106685
v -0.497463 2.97505 0.2083237
v -0.1122859 4.314259 0.5667403
v -0.7807803 1.867025 0.4784465
v 0.03380578 6.758425 0.2175631
v -0.4587212 2.979419 -0.1265934
v -1.080728 0.8987535 0.7049664
v -1.352805 -0.08102819 0.700785
v -1.462087 0.5495974 0.6217744
v -0.7807803 1.867025 0.4784465
v 0.01416193 2.334955 0.8880957
v -1.080728 0.8987535 0.7049664
v -1.251048 1.264673 0.5106685
v 0.07118703 3.450723 0.8400649
v -0.1122859 4.314259 0.5667403
v -1.080728 0.8987535 0.7049664
v -1.240578 0.1153387 1.52172
v -1.352805 -0.08102819 0.700785
v -1.024357 -0.1110771 1.297142
v -0.3172401 0.515885 1.786811
v -0.3015937 -0.1162567 1.514591
v -1.240578 0.1153387 1.52172
v -1.024357 -0.1110771 1.297142
v 0.7372424 -0.1069396 -1.828644
v 0.4009662 0.03607609 -1.531405
v 1.141584 -0.1988475 -1.461675
v 0.7372424 -0.1069396 -1.828644
v -0.1001054 2.435572 -0.5907
v -0.3529986 -0.05556986 -1.230662
v 0.4009662 0.03607609 -1.531405
v 0.3457711 2.74823 -0.2737548
v 0.7372424 -0.1069396 -1.828644
v 1.141584 -0.1988475 -1.461675
v 1.201661 -0.1349567 -0.3962047
v -0.1001054 2.435572 -0.5907
v 0.1286575 4.07647 -0.1261284
v 0.03380578 6.758425 0.2175631
v -0.4587212 2.979419 -0.1265934
v -0.3529986 -0.05556986 -1.230662
v -0.1001054 2.435572 -0.5907
v -0.4587212 2.979419 -0.1265934
v 0.1286575 4.07647 -0.1261284
v -0.1001054 2.435572 -0.5907
v 0.3457711 2.74823 -0.2737548
v 0.7372424 -0.1069396 -1.828644
v 0.07118703 3.450723 0.8400649
v -0.1122859 4.314259 0.5667403
v 0.4333565 4.105623 0.3522106
v 0.5062947 3.190813 0.597189
v -0.1122859 4.314259 0.5667403
v 0.03380578 6.758425 0.2175631
v 0.4333565 4.105623 0.3522106
v 0.03380578 6.758425 0.2175631
v 0.1286575 4.07647 -0.1261284
v 0.4333565 4.105623 0.3522106
v 0.1286575 4.07647 -0.1261284
v 0.3457711 2.74823 -0.2737548
v 0.4333565 4.105623 0.3522106
v 0.5960357 2.817003 0.1027049
v 0.01416193 2.334955 0.8880957
v 0.07118703 3.450723 0.8400649
v 0.5062947 3.190813 0.597189
v 0.3044295 1.08595 1.040284
v 0.6714045 1.056276 0.09502646
v 1.202205 0.2733616 0.2527184
v 0.5960357 2.817003 0.1027049
v 1.551604 0.1773504 0.7624357
v 0.5062947 3.190813 0.597189
v 0.5960357 2.817003 0.1027049
v 1.202205 0.2733616 0.2527184
v 0.3044295 1.08595 1.040284
v 0.8087288 0.348127 1.552535
v -0.3015937 -0.1162567 1.514591
v 0.3457711 2.74823 -0.2737548
v 0.6714045 1.056276 0.09502646
v 0.5960357 2.817003 0.1027049
v 1.233924 0.1806444 1.281578
v 0.3044295 1.08595 1.040284
v 0.5062947 3.190813 0.597189
v -0.3172401 0.515885 1.786811
v 0.3044295 1.08595 1.040284
v -0.3015937 -0.1162567 1.514591
v -0.3172401 0.515885 1.786811
v 0.01416193 2.334955 0.8880957
v 0.3044295 1.08595 1.040284
v 0.8087288 0.348127 1.552535
v 0.3044295 1.08595 1.040284
v 1.233924 0.1806444 1.281578
v 1.462875 -0.1970603 1.751908
v 1.233924 0.1806444 1.281578
v 1.551604 0.1773504 0.7624357
v 1.780935 -0.1218734 0.8569049
v 1.462875 -0.1970603 1.751908
v 0.6714045 1.056276 0.09502646
v 1.201661 -0.1349567 -0.3962047
v 1.202205 0.2733616 0.2527184
v 1.654037 -0.1607607 -0.186796
v 1.780935 -0.1218734 0.8569049
v 1.551604 0.1773504 0.7624357
v 1.202205 0.2733616 0.2527184
v 1.780935 -0.1218734 0.8569049
v -1.080728 0.8987535 0.7049664
v -1.462087 0.5495974 0.6217744
v -1.251048 1.264673 0.5106685
v -0.4587212 2.979419 -0.1265934
v -0.497463 2.97505 0.2083237
v -0.9469889 1.880744 -0.02396802
v 1.551604 0.1773504 0.7624357
v 1.233924 0.1806444 1.281578
v 0.5062947 3.190813 0.597189
v 0.5960357 2.817003 0.1027049
v 0.5062947 3.190813 0.597189
v 0.4333565 4.105623 0.3522106
v -0.3015937 -0.1162567 1.514591
v 0.8087288 0.348127 1.552535
v 1.462875 -0.1970603 1.751908
v 0.01416193 2.334955 0.8880957
v -0.3172401 0.515885 1.786811
v -1.240578 0.1153387 1.52172
v -1.080728 0.8987535 0.7049664
v 0.3457711 2.74823 -0.2737548
v 1.201661 -0.1349567 -0.3962047
v 0.6714045 1.056276 0.09502646
vt 0.06592244 0.5775346
vt 0.07064995 0.6517881
vt 0.1236754 0.6081223
vt 0.1668057 0.6531335
vt 0.1633544 0.7067481
vt 0.1837172 0.602301
vt 0.1236754 0.6081223
vt 0.1668057 0.6531335
vt 0.8508195 0.6652002
vt 0.81458 0.4035765
vt 0.7960849 0.5809036
vt 0.06592244 0.5775346
vt 0.0100905 0.6273511
vt 0.07064995 0.6517881
vt 0.03262502 0.7373276
vt 0.1191788 0.7610411
vt 0.07064995 0.6517881
vt 0.0100905 0.6273511
vt 0.7755036 0.7011087
vt 0.8508195 0.6652002
vt 0.7960849 0.5809036
vt 0.07064995 0.6517881
vt 0.1191788 0.7610411
vt 0.1633544 0.7067481
vt 0.03262502 0.7373276
vt 0.1089476 0.8590733
vt 0.1191788 0.7610411
vt 0.1191788 0.7610411
vt 0.1506464 0.8585889
vt 0.1777016 0.7636068
vt 0.1633544 0.7067481
vt 0.1506464 0.8585889
vt 0.195678 0.9593299
vt 0.1777016 0.7636068
vt 0.1529771 0.9900282
vt 0.1089476 0.8590733
vt 0.1937165 0.6812026
vt 0.1837172 0.602301
vt 0.1668057 0.6531335
vt 0.1777016 0.7636068
vt 0.2700211 0.8254771
vt 0.1937165 0.6812026
vt 0.1633544 0.7067481
vt 0.2545964 0.9097865
vt 0.195678 0.9593299
vt 0.1937165 0.6812026
vt 0.2499991 0.6090761
vt 0.1837172 0.602301
vt 0.2395664 0.4968005
vt 0.3129978 0.4666958
vt 0.3510772 0.2935388
vt 0.2337921 0.3991233
vt 0.2844743 0.2794868
vt 0.9510719 0.7288098
vt 0.9174542 0.7988616
vt 0.9800783 0.7803028
vt 0.9510719 0.7288098
vt 0.8849829 0.4703853
vt 0.8508195 0.6652002
vt 0.9174542 0.7988616
vt 0.7240283 0.5642067
vt 0.8197136 0.2846822
vt 0.7744945 0.247888
vt 0.6980888 0.334277
vt 0.8849829 0.4703853
vt 0.9091437 0.3125792
vt 0.8656849 0.2430111
vt 0.81458 0.4035765
vt 0.8508195 0.6652002
vt 0.8849829 0.4703853
vt 0.81458 0.4035765
vt 0.9091437 0.3125792
vt 0.8849829 0.4703853
vt 0.956062 0.4288297
vt 0.9510719 0.7288098
vt 0.3503995 0.7795103
vt 0.3175078 0.8694317
vt 0.4065085 0.8697832
vt 0.4112138 0.7674655
vt 0.3175078 0.8694317
vt 0.3355195 0.932156
vt 0.4065085 0.8697832
vt 0.6799801 0.7608828
vt 0.7099913 0.6861433
vt 0.6326633 0.683015
vt 0.7099913 0.6861433
vt 0.7240283 0.5642067
vt 0.6326633 0.683015
vt 0.6582504 0.566048
vt 0.3566867 0.6705518
vt 0.3503995 0.7795103
vt 0.4112138 0.7674655
vt 0.4073252 0.5404125
vt 0.6694045 0.4036214
vt 0.6361683 0.3262905
vt 0.6582504 0.566048
vt 0.5839309 0.3145271
vt 0.5638512 0.6119349
vt 0.6582504 0.566048
vt 0.6361683 0.3262905
vt 0.4073252 0.5404125
vt 0.4551076 0.4521928
vt 0.3510772 0.2935388
vt 0.7240283 0.5642067
vt 0.6694045 0.4036214
vt 0.6582504 0.566048
vt 0.5059504 0.4515185
vt 0.4073252 0.5404125
vt 0.4112138 0.7674655
vt 0.3129978 0.4666958
vt 0.4073252 0.5404125
vt 0.3510772 0.2935388
vt 0.3129978 0.4666958
vt 0.3566867 0.6705518
vt 0.4073252 0.5404125
vt 0.4551076 0.4521928
vt 0.4073252 0.5404125
vt 0.5059504 0.4515185
vt 0.5028926 0.3930509
vt 0.5314575 0.3201025
vt 0.5839309 0.3145271
vt 0.5787358 0.2854017
vt 0.507024 0.2699726
vt 0.6694045 0.4036214
vt 0.6980888 0.334277
vt 0.6361683 0.3262905
vt 0.6542104 0.2790582
vt 0.5787358 0.2854017
vt 0.5839309 0.3145271
vt 0.6361683 0.3262905
vt 0.5787358 0.2854017
vt 0.1937165 0.6812026
vt 0.1668057 0.6531335
vt 0.1633544 0.7067481
vt 0.1089476 0.8590733
vt 0.1506464 0.8585889
vt 0.1191788 0.7610411
vt 0.5839309 0.3145271
vt 0.5314575 0.3201025
vt 0.5638512 0.6119349
vt 0.6582504 0.566048
vt 0.5638512 0.6119349
vt 0.6326633 0.683015
vt 0.3510772 0.2935388
vt 0.4551076 0.4521928
vt 0.5028926 0.3930509
vt 0.2700211 0.8254771
vt 0.3130278 0.6647132
vt 0.2499991 0.6090761
vt 0.1937165 0.6812026
vt 0.7240283 0.5642067
vt 0.6980888 0.334277
vt 0.6694045 0.4036214
vn -0.9927357 -0.07609203 0.09319799
vn -0.9944218 -0.06597409 0.08229581
vn -0.9936005 -0.05802483 0.09690745
vn -0.9929432 -0.06163828 0.1013135
vn -0.9917541 -0.07648489 0.1028297
vn -0.8677664 -0.3101897 0.3882832
vn -0.8968402 -0.3218721 0.3034401
vn -0.8007045 -0.3917206 0.4532408
vn 0.4953573 0.2822895 -0.8215435
vn 0.3949014 0.4823828 -0.781895
vn 0.4836046 0.3847462 -0.7861914
vn -0.6863446 -0.08572019 -0.7222071
vn -0.6714483 -0.08696291 -0.735931
vn -0.6859683 -0.100402 -0.7206711
vn -0.620836 0.3728745 -0.6895848
vn -0.5800657 0.4062413 -0.7060395
vn -0.5841313 0.3142836 -0.7483425
vn -0.642718 0.2789086 -0.713529
vn 0.06358322 0.08285087 -0.9945315
vn 0.04158453 0.08127885 -0.9958235
vn 0.05143838 0.1145063 -0.9920899
vn -0.9614278 0.2691363 -0.05676473
vn -0.928012 0.3597405 -0.09685322
vn -0.9363078 0.3247097 -0.1337583
vn -0.7243878 0.4171282 -0.5488774
vn -0.6732198 0.4999936 -0.5447765
vn -0.6731635 0.4598164 -0.5791544
vn -0.705154 0.6467417 0.2906599
vn -0.7385087 0.6244605 0.2542713
vn -0.7131081 0.6586829 0.2400285
vn -0.6269042 0.7452056 0.2272877
vn -0.8657742 0.5003564 -0.008864583
vn -0.866873 0.494565 0.06274333
vn -0.8744705 0.4779476 -0.08286993
vn -0.8882664 0.4534608 0.07318512
vn -0.884252 0.4625625 0.06430018
vn -0.2786075 -0.1793512 0.9435099
vn -0.2870328 -0.133422 0.9485835
vn -0.295425 -0.1617137 0.9415799
vn -0.4985591 0.2626316 0.8261135
vn -0.5604656 0.2139025 0.8000775
vn -0.4564408 0.2533437 0.8529237
vn -0.4406776 0.2787037 0.8533038
vn -0.5573273 0.2214684 0.8002113
vn -0.5546551 0.2366529 0.7977174
vn -0.9963955 -0.06114779 0.05879596
vn -0.9856849 -0.1271852 0.1106755
vn -0.9905804 -0.1133083 0.07688777
vn -0.9788721 -0.1646701 0.1212155
vn -0.2989779 -0.2465928 0.9218483
vn -0.2930977 -0.205224 0.933797
vn -0.3588372 -0.2195783 0.9072052
vn -0.3161627 -0.1951621 0.9284142
vn 0.4920849 -0.2387446 -0.8371699
vn 0.4627006 -0.2324733 -0.8554907
vn 0.5130755 -0.2237937 -0.8286555
vn -0.4556644 0.03589346 -0.8894277
vn -0.4411401 0.06883037 -0.8947948
vn -0.4450624 0.03644508 -0.8947576
vn -0.4519601 0.03808653 -0.8912247
vn 0.8856144 0.291389 -0.3616346
vn 0.9390984 0.1552282 -0.3065918
vn 0.9316494 0.1524287 -0.3298406
vn 0.9152 0.1533784 -0.3726715
vn -0.4238679 0.6071622 -0.6720789
vn -0.3849402 0.6389483 -0.6660076
vn -0.4009184 0.622161 -0.6724434
vn -0.4033187 0.6183283 -0.67454
vn -0.7482716 0.08718336 -0.6576386
vn -0.7313145 0.1580097 -0.6634847
vn -0.726199 0.1659883 -0.6671454
vn 0.4135061 0.4644863 -0.7831125
vn 0.4245885 0.4515624 -0.7847394
vn 0.4052677 0.4583028 -0.7910225
vn 0.4526709 0.2943084 -0.8417075
vn 0.3025719 0.7852268 0.540249
vn 0.289456 0.7899032 0.5406182
vn 0.3226365 0.7854159 0.5282307
vn 0.308037 0.7859105 0.5361509
vn 0.2469056 0.8812209 0.4030972
vn 0.2782887 0.8711648 0.4045086
vn 0.2837113 0.8783201 0.3847879
vn 0.469194 0.8472109 -0.2491797
vn 0.4435396 0.8582779 -0.2581314
vn 0.4622668 0.856955 -0.2278983
vn 0.7581462 0.5091472 -0.4074107
vn 0.7067259 0.5419857 -0.4547416
vn 0.7382867 0.5342744 -0.411684
vn 0.6504279 0.5824155 -0.4875814
vn 0.2130653 0.04333531 0.9760764
vn 0.2351953 0.02133291 0.971714
vn 0.2228917 0.03857741 0.9740796
vn 0.2083314 0.04016028 0.9772334
vn 0.3667374 -0.03626167 -0.9296175
vn 0.3766795 -0.02609325 -0.925976
vn 0.3643445 -0.04886254 -0.9299815
vn 0.9431981 0.09689463 -0.3177873
vn 0.941574 0.1779353 -0.2859674
vn 0.9421418 0.1753313 -0.2857056
vn 0.9484155 0.09921244 -0.3011063
vn -0.4188259 0.1726588 0.8915008
vn -0.4423518 0.1426941 0.885417
vn -0.4055701 0.1245972 0.9055321
vn 0.8275172 -0.1033079 -0.5518538
vn 0.8347415 -0.07051843 -0.5461079
vn 0.8322838 -0.101395 -0.544998
vn 0.06176936 0.04782144 0.9969442
vn 0.07409245 0.06398892 0.9951963
vn 0.07687728 0.08969016 0.9929982
vn 0.6914245 -0.1630524 0.7038082
vn 0.7207795 -0.1935945 0.665581
vn 0.7065582 -0.136547 0.6943561
vn 0.621922 0.1329755 0.7717062
vn 0.58753 0.2001419 0.784061
vn 0.5950971 0.1562881 0.7883105
vn 0.7247544 0.5806561 0.3709037
vn 0.6857072 0.6155581 0.3884505
vn 0.6891681 0.5748712 0.4411015
vn 0.7238142 0.5530725 0.4125578
vn 0.8595378 0.3224222 0.3965334
vn 0.8331546 0.3233251 0.4486805
vn 0.839746 0.3018507 0.4513456
vn 0.8773227 0.2964309 0.3774037
vn 0.8998508 0.4151821 -0.1337616
vn 0.9271138 0.3677807 -0.07209338
vn 0.8602049 0.4844103 -0.1593559
vn 0.8484747 0.5199329 -0.098795
vn 0.7842639 0.5376254 -0.3096597
vn 0.8340504 0.1094945 -0.5407134
vn 0.8463902 0.1122975 -0.5205889
vn 0.8318863 0.09965305 -0.5459253
vn -0.4674275 0.03542947 0.8833212
vn -0.4627276 0.03297346 0.8858871
vn -0.4664112 0.03857536 0.8837265
vn -0.7121026 0.7000179 0.05370981
vn -0.707974 0.7044073 0.05082433
vn -0.7316326 0.6773683 0.07671852
vn 0.8657936 0.146173 0.4785759
vn 0.8789173 0.1455487 0.4542245
vn 0.850749 0.2553293 0.4593835
vn 0.8408978 0.513224 -0.1717326
vn 0.8362843 0.521219 -0.1701741
vn 0.8324342 0.5313022 -0.1573892
vn -0.05251063 -0.08020855 0.995394
vn -0.02516427 -0.0933727 0.9953132
vn -0.01010328 -0.07858104 0.9968566
vn -0.5966966 0.5278097 0.6044585
vn -0.6905949 0.4049734 0.5992289
vn -0.6307958 0.3802697 0.6763813
vn -0.5797331 0.4385273 0.6867338
vn 0.9384931 0.3069547 0.1581439
vn 0.9674696 0.1612449 0.1949426
vn 0.9601505 0.2244063 0.1665917
g Crystal_0
f 3/3/3 2/2/2 1/1/1
f 3/3/3 4/4/4 2/2/2
f 4/4/4 5/5/5 2/2/2
f 8/8/8 7/7/7 6/6/6
f 11/11/11 10/10/10 9/9/9
f 14/14/14 13/13/13 12/12/12
f 17/17/17 16/16/16 15/15/15
f 18/18/18 17/17/17 15/15/15
f 21/21/21 20/20/20 19/19/19
f 24/24/24 23/23/23 22/22/22
f 27/27/27 26/26/26 25/25/25
f 30/30/30 29/29/29 28/28/28
f 28/28/28 31/31/31 30/30/30
f 34/34/34 33/33/33 32/32/32
f 35/35/35 32/32/32 33/33/33
f 35/35/35 36/36/36 32/32/32
f 39/39/39 38/38/38 37/37/37
f 42/42/42 41/41/41 40/40/40
f 43/43/43 42/42/42 40/40/40
f 40/40/40 41/41/41 44/44/44
f 45/45/45 40/40/40 44/44/44
f 48/48/48 47/47/47 46/46/46
f 47/47/47 48/48/48 49/49/49
f 52/52/52 51/51/51 50/50/50
f 52/52/52 53/53/53 51/51/51
f 56/56/56 55/55/55 54/54/54
f 59/59/59 58/58/58 57/57/57
f 60/60/60 59/59/59 57/57/57
f 63/63/63 62/62/62 61/61/61
f 64/64/64 63/63/63 61/61/61
f 67/67/67 66/66/66 65/65/65
f 68/68/68 67/67/67 65/65/65
f 71/71/71 70/70/70 69/69/69
f 74/74/74 73/73/73 72/72/72
f 74/74/74 75/75/75 73/73/73
f 78/78/78 77/77/77 76/76/76
f 79/79/79 78/78/78 76/76/76
f 82/82/82 81/81/81 80/80/80
f 85/85/85 84/84/84 83/83/83
f 88/88/88 87/87/87 86/86/86
f 88/88/88 89/89/89 87/87/87
f 92/92/92 91/91/91 90/90/90
f 92/92/92 90/90/90 93/93/93
f 96/96/96 95/95/95 94/94/94
f 99/99/99 98/98/98 97/97/97
f 100/100/100 99/99/99 97/97/97
f 103/103/103 102/102/102 101/101/101
f 106/106/106 105/105/105 104/104/104
f 109/109/109 108/108/108 107/107/107
f 112/112/112 111/111/111 110/110/110
f 115/115/115 114/114/114 113/113/113
f 118/118/118 117/117/117 116/116/116
f 119/119/119 118/118/118 116/116/116
f 122/122/122 121/121/121 120/120/120
f 123/123/123 122/122/122 120/120/120
f 126/126/126 125/125/125 124/124/124
f 126/126/126 127/127/127 125/125/125
f 128/128/128 127/127/127 126/126/126
f 131/131/131 130/130/130 129/129/129
f 134/134/134 133/133/133 132/132/132
f 137/137/137 136/136/136 135/135/135
f 140/140/140 139/139/139 138/138/138
f 143/143/143 142/142/142 141/141/141
f 146/146/146 145/145/145 144/144/144
f 149/149/149 148/148/148 147/147/147
f 150/150/150 149/149/149 147/147/147
f 153/153/153 152/152/152 151/151/151
