g Cylinder001_frag_032
v 0.01350546 -0.0114349 -0.001547643
v -0.006233567 -0.009881432 -0.009430675
v -0.006233567 -0.009881425 0.00953225
v 0.01350546 -0.01143489 0.00953225
v -0.006604007 -0.009792504 -0.00953225
v -0.01471069 -0.00784626 0.00953225
v 0.01365492 -0.01142314 -0.001469708
v 0.01471069 -0.01134004 0.00953225
v 0.01350546 -0.0114349 -0.001547643
v 0.01365492 -0.01142314 -0.001469708
v 0.01147538 0.004056252 0.00953225
v -0.006233567 -0.009881432 -0.009430675
v -0.0009544134 0.0114349 0.00953225
v -0.006604007 -0.009792504 -0.00953225
v 0.01365492 -0.01142314 -0.001469708
v 0.01471069 -0.01134004 0.00953225
v 0.01147538 0.004056252 0.00953225
v 0.01147538 0.004056252 0.00953225
v 0.01471069 -0.01134004 0.00953225
v 0.01350546 -0.01143489 0.00953225
v -0.006233567 -0.009881425 0.00953225
v -0.0009544134 0.0114349 0.00953225
v -0.01471069 -0.00784626 0.00953225
v -0.01471069 -0.00784626 0.00953225
v -0.006604007 -0.009792504 -0.00953225
v -0.0009544134 0.0114349 0.00953225
vt 0.7485507 0.5000003
vt 0.7553033 0.4595642
vt 0.7317347 0.4632971
vt 0.7346233 0.5000003
vt 0.7553085 0.4587751
vt 0.7285998 0.4473851
vt 0.748452 0.5002946
vt 0.7346017 0.5022428
vt 0.7485507 0.5000003
vt 0.748452 0.5002946
vt 0.7324514 0.4957371
vt 0.7553033 0.4595642
vt 0.7291933 0.4679214
vt 0.7553085 0.4587751
vt 0.748452 0.5002946
vt 0.7346017 0.5022428
vt 0.7324514 0.4957371
vt 0.7324514 0.4957371
vt 0.7346017 0.5022428
vt 0.7346233 0.5000003
vt 0.7317347 0.4632971
vt 0.7291933 0.4679214
vt 0.7285998 0.4473851
vt 0.7285998 0.4473851
vt 0.7553085 0.4587751
vt 0.7291933 0.4679214
vn -0.02220854 -0.9997534 7.258899E-07
vn -0.1728502 -0.9849481 6.091505E-07
vn -0.1564327 -0.9876886 5.913121E-07
vn -3.487505E-06 -1 8.12374E-07
vn -0.2334432 -0.9723704 6.739645E-07
vn -0.2334433 -0.9723704 6.739646E-07
vn 0.07845081 -0.996918 1.114726E-06
vn 0.07845081 -0.996918 1.114726E-06
vn 0.3418843 0.5759259 -0.7425797
vn 0.3418843 0.5759259 -0.7425797
vn 0.3418843 0.5759258 -0.7425797
vn 0.3418843 0.5759259 -0.7425797
vn 0.3418843 0.5759259 -0.7425797
vn 0.3418843 0.5759259 -0.7425797
vn 0.9741976 0.2047139 -0.09503245
vn 0.9741976 0.2047139 -0.09503244
vn 0.9741976 0.2047139 -0.09503244
vn 0 0 1
vn 0 0 1
vn 0 0 1
vn 0 0 1
vn 0 0 1
vn 0 0 1
vn -0.7544036 0.5382346 -0.3757376
vn -0.7544036 0.5382345 -0.3757376
vn -0.7544036 0.5382345 -0.3757376
g Cylinder001_frag_032_0
f 3/3/3 2/2/2 1/1/1
f 4/4/4 3/3/3 1/1/1
f 5/5/5 2/2/2 3/3/3
f 6/6/6 5/5/5 3/3/3
f 1/1/1 7/7/7 4/4/4
f 7/7/7 8/8/8 4/4/4
f 11/11/11 10/10/10 9/9/9
f 9/9/9 12/12/12 11/11/11
f 12/12/12 13/13/13 11/11/11
f 12/12/12 14/14/14 13/13/13
f 17/17/17 16/16/16 15/15/15
f 20/20/20 19/19/19 18/18/18
f 18/18/18 21/21/21 20/20/20
f 18/18/18 22/22/22 21/21/21
f 22/22/22 23/23/23 21/21/21
f 26/26/26 25/25/25 24/24/24
