g Cylinder001_frag_031
v -0.02290259 0.001765495 0.01208122
v -0.02290259 0.001765495 -0.01208122
v -0.03047977 0.02005836 -0.01208122
v -0.03047977 0.02005836 0.01208122
v -0.01255707 -0.01511683 0.01208122
v -0.01255707 -0.01511683 -0.01208122
v -0.003595421 -0.02560954 -0.01208122
v 0.000302063 -0.0301729 0.006252
v 0.000302063 -0.0301729 0.01208122
v 0.001791824 -0.03144528 0.01208122
v -0.03240421 0.02807422 -0.01208122
v -0.03321353 0.03144527 0.01208122
v -0.003595421 -0.02560954 -0.01208122
v 0.03235542 1.822662E-05 -0.01208122
v 0.02431804 0.01406853 -0.01208122
v 0.01126877 0.0280646 -0.01208122
v -0.03240421 0.02807422 -0.01208122
v -0.01255707 -0.01511683 -0.01208122
v -0.02290259 0.001765495 -0.01208122
v -0.03047977 0.02005836 -0.01208122
v 0.03278073 -0.0009015275 -0.009027394
v 0.03235542 1.822662E-05 -0.01208122
v -0.003595421 -0.02560954 -0.01208122
v 0.000302063 -0.0301729 0.006252
v 0.03281646 -0.001019318 -0.00866965
v 0.01700824 -0.02059817 0.01208122
v 0.001791824 -0.03144528 0.01208122
v 0.03281646 -0.001019318 -0.00866965
v 0.03283476 -0.00103561 -0.008340872
v 0.03278073 -0.0009015275 -0.009027394
v 0.03283476 -0.00103561 -0.008340872
v 0.03281646 -0.001019318 -0.00866965
v 0.01700824 -0.02059817 0.01208122
v 0.03321353 -0.002876495 0.01208122
v 0.01832101 0.0231574 0.01208122
v 0.03321353 -0.002876495 0.01208122
v 0.01700824 -0.02059817 0.01208122
v 0.01060279 0.03143562 0.01208122
v 0.001791824 -0.03144528 0.01208122
v -0.03321353 0.03144527 0.01208122
v 0.000302063 -0.0301729 0.01208122
v -0.01255707 -0.01511683 0.01208122
v -0.02290259 0.001765495 0.01208122
v -0.03047977 0.02005836 0.01208122
v 0.01060279 0.03143562 0.01208122
v -0.03321353 0.03144527 0.01208122
v -0.03240421 0.02807422 -0.01208122
v 0.01126877 0.0280646 -0.01208122
v 0.03283476 -0.00103561 -0.008340872
v 0.03321353 -0.002876495 0.01208122
v 0.01832101 0.0231574 0.01208122
v 0.03278073 -0.0009015275 -0.009027394
v 0.03235542 1.822662E-05 -0.01208122
v 0.02431804 0.01406853 -0.01208122
v 0.01126877 0.0280646 -0.01208122
v 0.02431804 0.01406853 -0.01208122
v 0.01832101 0.0231574 0.01208122
v 0.01060279 0.03143562 0.01208122
vt 0.606783 0.290427
vt 0.620577 0.2633548
vt 0.582073 0.2474059
vt 0.5726838 0.2763027
vt 0.6382527 0.3097118
vt 0.656112 0.2851307
vt 0.6786901 0.3034521
vt 0.671491 0.3285093
vt 0.6663183 0.3336821
vt 0.668864 0.3362905
vt 0.5654082 0.2425388
vt 0.551602 0.2705659
vt 0.6786901 0.3034521
vt 0.6967121 0.309494
vt 0.6559927 0.2738682
vt 0.6006081 0.2459089
vt 0.5654082 0.2425388
vt 0.656112 0.2851307
vt 0.620577 0.2633548
vt 0.582073 0.2474059
vt 0.6946017 0.3158096
vt 0.6967121 0.309494
vt 0.6786901 0.3034521
vt 0.671491 0.3285093
vt 0.6943353 0.316538
vt 0.672061 0.3433451
vt 0.668864 0.3362905
vt 0.6943353 0.316538
vt 0.6939343 0.3170254
vt 0.6946017 0.3158096
vt 0.6939343 0.3170254
vt 0.6943353 0.316538
vt 0.672061 0.3433451
vt 0.6685269 0.3467543
vt 0.6020424 0.2975694
vt 0.6685269 0.3467543
vt 0.672061 0.3433451
vt 0.5752215 0.285019
vt 0.668864 0.3362905
vt 0.551602 0.2705659
vt 0.6663183 0.3336821
vt 0.6382527 0.3097118
vt 0.606783 0.290427
vt 0.5726838 0.2763027
vt 0.5752215 0.285019
vt 0.551602 0.2705659
vt 0.5654082 0.2425388
vt 0.6006081 0.2459089
vt 0.6939343 0.3170254
vt 0.6685269 0.3467543
vt 0.6020424 0.2975694
vt 0.6946017 0.3158096
vt 0.6967121 0.309494
vt 0.6559927 0.2738682
vt 0.6006081 0.2459089
vt 0.6559927 0.2738682
vt 0.6020424 0.2975694
vt 0.5752215 0.285019
vn -0.8910061 -0.4539914 0
vn -0.8910061 -0.4539914 0
vn -0.9510562 -0.309018 3.720226E-08
vn -0.9510562 -0.309018 3.720226E-08
vn -0.8090164 -0.5877861 0
vn -0.8090164 -0.5877861 0
vn -0.7604051 -0.6494491 1.126191E-08
vn -0.7498353 -0.6616245 1.011402E-08
vn -0.7071064 -0.7071071 0
vn -0.6494482 -0.7604058 0
vn -0.9723697 -0.2334463 7.417514E-08
vn -0.9723697 -0.2334463 7.417514E-08
vn 0 0 -1
vn 0 0 -1
vn 0 0 -1
vn 0 0 -1
vn 0 0 -1
vn 0 0 -1
vn 0 0 -1
vn 0 0 -1
vn 0.5518671 -0.7741638 -0.3100208
vn 0.5518671 -0.7741639 -0.3100208
vn 0.5518671 -0.7741639 -0.3100208
vn 0.5518671 -0.7741639 -0.3100208
vn 0.5518671 -0.7741639 -0.3100209
vn 0.5518671 -0.7741639 -0.3100208
vn 0.5518671 -0.7741639 -0.3100208
vn 0.9866299 0.1559974 -0.0471833
vn 0.9866298 0.1559975 -0.04718329
vn 0.9866298 0.1559975 -0.04718329
vn 0.7359341 -0.6729627 -0.07431158
vn 0.7359341 -0.6729627 -0.07431158
vn 0.7359341 -0.6729627 -0.07431158
vn 0.7359341 -0.6729627 -0.07431158
vn 4.250483E-08 1.531581E-08 1
vn 4.250483E-08 1.531581E-08 1
vn 4.250483E-08 1.531581E-08 1
vn 4.250483E-08 1.531581E-08 1
vn 4.250483E-08 1.531581E-08 1
vn 4.250483E-08 1.531581E-08 1
vn 4.250483E-08 1.531581E-08 1
vn 4.250483E-08 1.531581E-08 1
vn 4.250483E-08 1.531581E-08 1
vn 4.250483E-08 1.531581E-08 1
vn 0.0002180733 0.9904084 -0.1381709
vn 0.0002180733 0.9904084 -0.1381709
vn 0.0002180733 0.9904084 -0.1381709
vn 0.0002180733 0.9904084 -0.1381709
vn 0.8676569 0.4963374 0.0286485
vn 0.8676569 0.4963374 0.02864851
vn 0.8676569 0.4963374 0.0286485
vn 0.8676569 0.4963374 0.02864851
vn 0.8676569 0.4963374 0.0286485
vn 0.8676569 0.4963374 0.02864851
vn 0.7293658 0.6800256 -0.0747705
vn 0.7293658 0.6800256 -0.0747705
vn 0.7293659 0.6800256 -0.07477051
vn 0.7293659 0.6800256 -0.0747705
g Cylinder001_frag_031_0
f 3/3/3 2/2/2 1/1/1
f 4/4/4 3/3/3 1/1/1
f 1/1/1 2/2/2 5/5/5
f 2/2/2 6/6/6 5/5/5
f 5/5/5 6/6/6 7/7/7
f 5/5/5 7/7/7 8/8/8
f 8/8/8 9/9/9 5/5/5
f 9/9/9 8/8/8 10/10/10
f 3/3/3 4/4/4 11/11/11
f 4/4/4 12/12/12 11/11/11
f 15/15/15 14/14/14 13/13/13
f 13/13/13 16/16/16 15/15/15
f 13/13/13 17/17/17 16/16/16
f 13/13/13 18/18/18 17/17/17
f 18/18/18 19/19/19 17/17/17
f 19/19/19 20/20/20 17/17/17
f 23/23/23 22/22/22 21/21/21
f 21/21/21 24/24/24 23/23/23
f 21/21/21 25/25/25 24/24/24
f 25/25/25 26/26/26 24/24/24
f 26/26/26 27/27/27 24/24/24
f 30/30/30 29/29/29 28/28/28
f 33/33/33 32/32/32 31/31/31
f 34/34/34 33/33/33 31/31/31
f 37/37/37 36/36/36 35/35/35
f 35/35/35 38/38/38 37/37/37
f 38/38/38 39/39/39 37/37/37
f 38/38/38 40/40/40 39/39/39
f 40/40/40 41/41/41 39/39/39
f 40/40/40 42/42/42 41/41/41
f 40/40/40 43/43/43 42/42/42
f 40/40/40 44/44/44 43/43/43
f 47/47/47 46/46/46 45/45/45
f 48/48/48 47/47/47 45/45/45
f 51/51/51 50/50/50 49/49/49
f 49/49/49 52/52/52 51/51/51
f 52/52/52 53/53/53 51/51/51
f 53/53/53 54/54/54 51/51/51
f 57/57/57 56/56/56 55/55/55
f 58/58/58 57/57/57 55/55/55
