g Cylinder034
v 0.03160132 0 0
v 0 -3.576279E-09 0.6388977
v 0.02234551 0.02234551 0
v -1.381338E-09 0.03160132 0
v -0.02234551 0.02234551 0
v -0.03160132 -2.762676E-09 0
v -0.03160132 -2.762676E-09 0
v 0 -3.576279E-09 0.6388977
v -0.0223455 -0.02234551 0
v 3.76842E-10 -0.03160132 0
v 0.02234551 -0.02234551 0
v 0.03160132 0 0
vt 0.1933626 0.01136311
vt 0.2559972 0.9769748
vt 0.229912 0.009685509
vt 0.2664999 0.009390827
vt 0.3030739 0.01047934
vt 0.3395784 0.0129499
vt 0.02383015 0.0116403
vt 0.09456643 0.9766923
vt 0.06036375 0.00965598
vt 0.09694687 0.009054203
vt 0.133527 0.009835811
vt 0.1700505 0.0119998
vn 0.998779 0 0.04940188
vn -2.697558E-07 -8.092675E-07 1
vn 0.7062434 0.7062434 0.04940188
vn 0 0.998779 0.04940188
vn -0.7062434 0.7062434 0.04940188
vn -0.998779 -1.662594E-07 0.04940186
vn -0.998779 -1.662594E-07 0.04940186
vn -2.697558E-07 -8.092675E-07 1
vn -0.7062434 -0.7062435 0.04940186
vn 0 -0.998779 0.04940186
vn 0.7062434 -0.7062434 0.04940187
vn 0.998779 0 0.04940188
g Cylinder034_0
f 3/3/3 2/2/2 1/1/1
f 4/4/4 2/2/2 3/3/3
f 5/5/5 2/2/2 4/4/4
f 6/6/6 2/2/2 5/5/5
f 9/9/9 8/8/8 7/7/7
f 10/10/10 8/8/8 9/9/9
f 11/11/11 8/8/8 10/10/10
f 12/12/12 8/8/8 11/11/11
