g Cylinder001_frag_045
v 0.009415139 -0.008557511 0.01208122
v 0.009415139 -0.008557511 -0.01208122
v -0.00983784 -0.01317978 -0.01208122
v -0.00983784 -0.01317978 0.01208122
v 0.027708 -0.0009803239 0.01208122
v 0.027708 -0.0009803239 -0.01208122
v 0.0298782 0.0003495789 0.01208122
v 0.03160695 0.001408958 -0.01208122
v -0.02290561 -0.01420825 -0.01208122
v -0.02942741 -0.01472154 0.001079278
v -0.02837163 -0.01463845 0.01208122
v -0.03160695 0.0007578583 0.01208122
v -0.02942741 -0.01472154 0.001079278
v -0.02290561 -0.01420825 -0.01208122
v -0.01825415 0.008403252 -0.01208122
v -0.02873445 0.01472154 0.01208122
v -0.03160695 0.0007578583 0.01208122
v -0.02837163 -0.01463845 0.01208122
v -0.02942741 -0.01472154 0.001079278
v 0.02818551 0.01204751 0.01208122
v 0.0298782 0.0003495789 0.01208122
v 0.027708 -0.0009803239 0.01208122
v -0.02873445 0.01472154 0.01208122
v 0.009415139 -0.008557511 0.01208122
v -0.00983784 -0.01317978 0.01208122
v -0.02837163 -0.01463845 0.01208122
v -0.03160695 0.0007578583 0.01208122
v 0.027708 -0.0009803239 -0.01208122
v 0.03160695 0.001408958 -0.01208122
v 0.03092921 0.006092682 -0.01208122
v -0.01825415 0.008403252 -0.01208122
v 0.009415139 -0.008557511 -0.01208122
v -0.00983784 -0.01317978 -0.01208122
v -0.02290561 -0.01420825 -0.01208122
v -0.01825415 0.008403252 -0.01208122
v 0.03092921 0.006092682 -0.01208122
v 0.02818551 0.01204751 0.01208122
v -0.02873445 0.01472154 0.01208122
v 0.03092921 0.006092682 -0.01208122
v 0.03160695 0.001408958 -0.01208122
v 0.0298782 0.0003495789 0.01208122
v 0.02818551 0.01204751 0.01208122
vt 0.7231808 0.5725161
vt 0.7520777 0.5819054
vt 0.761787 0.5414633
vt 0.7317771 0.5367102
vt 0.709089 0.6065366
vt 0.7361614 0.6203306
vt 0.7068827 0.6107154
vt 0.7316782 0.6288185
vt 0.7647188 0.5140547
vt 0.7484953 0.5002947
vt 0.7346447 0.5022432
vt 0.7325002 0.4957362
vt 0.7484953 0.5002947
vt 0.7647188 0.5140547
vt 0.7666878 0.5293047
vt 0.730032 0.5020038
vt 0.7325002 0.4957362
vt 0.7346447 0.5022432
vt 0.7484953 0.5002947
vt 0.7016113 0.6171588
vt 0.7068827 0.6107154
vt 0.709089 0.6065366
vt 0.730032 0.5020038
vt 0.7231808 0.5725161
vt 0.7317771 0.5367102
vt 0.7346447 0.5022432
vt 0.7325002 0.4957362
vt 0.7361614 0.6203306
vt 0.7316782 0.6288185
vt 0.7303426 0.632288
vt 0.7666878 0.5293047
vt 0.7520777 0.5819054
vt 0.761787 0.5414633
vt 0.7647188 0.5140547
vt 0.7666878 0.5293047
vt 0.7303426 0.632288
vt 0.7016113 0.6171588
vt 0.730032 0.5020038
vt 0.7303426 0.632288
vt 0.7316782 0.6288185
vt 0.7068827 0.6107154
vt 0.7016113 0.6171588
vn 0.3090186 -0.9510559 0
vn 0.3090186 -0.9510559 0
vn 0.156436 -0.9876881 -7.70661E-08
vn 0.156436 -0.9876881 -7.70661E-08
vn 0.4539917 -0.8910059 -1.216707E-08
vn 0.4539917 -0.8910059 -1.216707E-08
vn 0.5224993 -0.8526397 -2.425914E-08
vn 0.5224993 -0.8526397 -2.425914E-08
vn 0.07846042 -0.9969172 -1.536571E-07
vn 0.07846042 -0.9969172 -1.536571E-07
vn 0.07846041 -0.9969172 -1.536571E-07
vn -0.8838806 0.181825 -0.4309233
vn -0.8838805 0.181825 -0.4309233
vn -0.8838806 0.181825 -0.4309233
vn -0.8838806 0.181825 -0.4309233
vn -0.8838806 0.181825 -0.4309233
vn -0.9741977 -0.2047138 0.09503248
vn -0.9741977 -0.2047138 0.09503248
vn -0.9741977 -0.2047138 0.09503248
vn 0 4.156195E-08 1
vn 0 4.156195E-08 1
vn 0 4.156196E-08 1
vn 0 4.156195E-08 1
vn 0 4.156195E-08 1
vn 0 4.156195E-08 1
vn 0 4.156195E-08 1
vn 0 4.156195E-08 1
vn 0 0 -1
vn 0 0 -1
vn 0 0 -1
vn 0 0 -1
vn 0 0 -1
vn 0 0 -1
vn 0 0 -1
vn 0.04562236 0.9711285 -0.2341539
vn 0.04562236 0.9711285 -0.2341539
vn 0.04562236 0.9711285 -0.2341539
vn 0.04562236 0.9711285 -0.2341539
vn 0.9867649 0.1427847 0.07686009
vn 0.9867649 0.1427847 0.0768601
vn 0.9867649 0.1427847 0.07686009
vn 0.9867649 0.1427847 0.0768601
g Cylinder001_frag_045_0
f 3/3/3 2/2/2 1/1/1
f 4/4/4 3/3/3 1/1/1
f 1/1/1 2/2/2 5/5/5
f 2/2/2 6/6/6 5/5/5
f 7/7/7 5/5/5 6/6/6
f 8/8/8 7/7/7 6/6/6
f 9/9/9 3/3/3 4/4/4
f 4/4/4 10/10/10 9/9/9
f 4/4/4 11/11/11 10/10/10
f 14/14/14 13/13/13 12/12/12
f 12/12/12 15/15/15 14/14/14
f 12/12/12 16/16/16 15/15/15
f 19/19/19 18/18/18 17/17/17
f 22/22/22 21/21/21 20/20/20
f 20/20/20 23/23/23 22/22/22
f 23/23/23 24/24/24 22/22/22
f 23/23/23 25/25/25 24/24/24
f 23/23/23 26/26/26 25/25/25
f 23/23/23 27/27/27 26/26/26
f 30/30/30 29/29/29 28/28/28
f 28/28/28 31/31/31 30/30/30
f 28/28/28 32/32/32 31/31/31
f 32/32/32 33/33/33 31/31/31
f 33/33/33 34/34/34 31/31/31
f 37/37/37 36/36/36 35/35/35
f 38/38/38 37/37/37 35/35/35
f 41/41/41 40/40/40 39/39/39
f 42/42/42 41/41/41 39/39/39
