g Cylinder001_frag_037
v 0.02965561 -0.01658555 -6.917954E-05
v 0.02116907 -0.02363835 -0.01208122
v 0.01235118 -0.02534004 -0.01208122
v 0.007404163 -0.01540224 0.01208122
v 0.02586811 -0.01183904 0.01208122
v 0.02116907 -0.02363835 -0.01208122
v 0.03168848 -0.01695932 -0.01208122
v 0.02025165 0.01189969 -0.01208122
v 0.01235118 -0.02534004 -0.01208122
v -0.004822682 0.02534004 -0.01208122
v -0.02929829 -0.01408645 -0.01208122
v -0.03168848 0.0199004 -0.01208122
v -0.03036342 0.01810237 0.01208122
v -0.03168848 0.0199004 -0.01208122
v -0.004822682 0.02534004 -0.01208122
v -0.002356197 0.02377313 0.01208122
v 0.02965561 -0.01658555 -6.917954E-05
v 0.03168848 -0.01695932 -0.01208122
v 0.02116907 -0.02363835 -0.01208122
v -0.004822682 0.02534004 -0.01208122
v 0.02025165 0.01189969 -0.01208122
v 0.01556108 0.0141691 0.01208122
v -0.002356197 0.02377313 0.01208122
v 0.02025165 0.01189969 -0.01208122
v 0.03168848 -0.01695932 -0.01208122
v 0.02965561 -0.01658555 -6.917954E-05
v 0.02586811 -0.01183904 0.01208122
v 0.01556108 0.0141691 0.01208122
v 0.01556108 0.0141691 0.01208122
v 0.02586811 -0.01183904 0.01208122
v 0.007404163 -0.01540224 0.01208122
v -0.002356197 0.02377313 0.01208122
v -0.02869306 -0.005648859 0.01208122
v -0.03036342 0.01810237 0.01208122
v -0.02869306 -0.005648859 0.01208122
v -0.02929829 -0.01408645 -0.01208122
v -0.03168848 0.0199004 -0.01208122
v -0.03036342 0.01810237 0.01208122
v 0.007404163 -0.01540224 0.01208122
v 0.01235118 -0.02534004 -0.01208122
v -0.02929829 -0.01408645 -0.01208122
v -0.02869306 -0.005648859 0.01208122
vt 0.6287488 0.2905011
vt 0.6816937 0.2406282
vt 0.6458713 0.235878
vt 0.536972 0.3071647
vt 0.5278114 0.3538868
vt 0.6816937 0.2406282
vt 0.7198973 0.212204
vt 0.2909968 0.273438
vt 0.6458713 0.235878
vt 0.3359426 0.2714791
vt 0.520728 0.2253264
vt 0.4019226 0.2451273
vt 0.4226191 0.2892341
vt 0.4019226 0.2451273
vt 0.3359426 0.2714791
vt 0.3743479 0.3260747
vt 0.6287488 0.2905011
vt 0.7198973 0.212204
vt 0.6816937 0.2406282
vt 0.3359426 0.2714791
vt 0.2909968 0.273438
vt 0.3735548 0.3505803
vt 0.3743479 0.3260747
vt 0.2909968 0.273438
vt 0.7198973 0.212204
vt 0.6287488 0.2905011
vt 0.5278114 0.3538868
vt 0.3735548 0.3505803
vt 0.3735548 0.3505803
vt 0.5278114 0.3538868
vt 0.536972 0.3071647
vt 0.3743479 0.3260747
vt 0.4905969 0.2779076
vt 0.4226191 0.2892341
vt 0.4905969 0.2779076
vt 0.520728 0.2253264
vt 0.4019226 0.2451273
vt 0.4226191 0.2892341
vt 0.536972 0.3071647
vt 0.6458713 0.235878
vt 0.520728 0.2253264
vt 0.4905969 0.2779076
vn 0.1732699 -0.8978584 0.4047565
vn 0.1732699 -0.8978584 0.4047565
vn 0.1732699 -0.8978584 0.4047565
vn 0.1732699 -0.8978584 0.4047565
vn 0.1732699 -0.8978584 0.4047565
vn 0 0 -1
vn 0 0 -1
vn 0 0 -1
vn 0 0 -1
vn 0 0 -1
vn 0 0 -1
vn 0 0 -1
vn -0.1977543 0.9766867 0.083524
vn -0.1977543 0.9766867 0.083524
vn -0.1977543 0.9766867 0.083524
vn -0.1977543 0.9766867 0.083524
vn 0.53238 -0.8384938 0.1161885
vn 0.53238 -0.8384937 0.1161884
vn 0.53238 -0.8384938 0.1161885
vn 0.4724119 0.8813327 0.008930227
vn 0.4724119 0.8813327 0.008930228
vn 0.472412 0.8813326 0.008930227
vn 0.4724119 0.8813327 0.008930228
vn 0.9199228 0.3645654 0.1443402
vn 0.9199228 0.3645653 0.1443402
vn 0.9199228 0.3645654 0.1443402
vn 0.9199228 0.3645654 0.1443402
vn 0.9199228 0.3645653 0.1443402
vn 0 0 1
vn 0 0 1
vn 0 0 1
vn 0 0 1
vn 0 0 1
vn 0 0 1
vn -0.9963171 -0.07006801 0.04942403
vn -0.9963171 -0.07006801 0.04942402
vn -0.9963171 -0.07006802 0.04942403
vn -0.9963171 -0.070068 0.04942402
vn -0.2466841 -0.9129767 0.3249932
vn -0.2466841 -0.9129767 0.3249932
vn -0.2466841 -0.9129767 0.3249932
vn -0.2466841 -0.9129767 0.3249932
g Cylinder001_frag_037_0
f 3/3/3 2/2/2 1/1/1
f 1/1/1 4/4/4 3/3/3
f 1/1/1 5/5/5 4/4/4
f 8/8/8 7/7/7 6/6/6
f 6/6/6 9/9/9 8/8/8
f 9/9/9 10/10/10 8/8/8
f 9/9/9 11/11/11 10/10/10
f 11/11/11 12/12/12 10/10/10
f 15/15/15 14/14/14 13/13/13
f 16/16/16 15/15/15 13/13/13
f 19/19/19 18/18/18 17/17/17
f 22/22/22 21/21/21 20/20/20
f 23/23/23 22/22/22 20/20/20
f 26/26/26 25/25/25 24/24/24
f 24/24/24 27/27/27 26/26/26
f 24/24/24 28/28/28 27/27/27
f 31/31/31 30/30/30 29/29/29
f 29/29/29 32/32/32 31/31/31
f 32/32/32 33/33/33 31/31/31
f 32/32/32 34/34/34 33/33/33
f 37/37/37 36/36/36 35/35/35
f 38/38/38 37/37/37 35/35/35
f 41/41/41 40/40/40 39/39/39
f 42/42/42 41/41/41 39/39/39
