g Cylinder001_frag_040
v 0.03724704 0.02339379 0.008402208
v 0.03750933 0.02341444 0.01208122
v 0.03724704 0.02339379 0.01208122
v 0.01799405 0.01877155 0.01208122
v 0.01799405 0.01877155 -0.003944924
v 0.03578214 0.02304211 -0.01208122
v 0.03197006 0.02212691 -0.01208122
v -0.0002988243 0.01119439 0.001024195
v -0.0002988243 0.01119439 0.01208122
v -0.01718115 0.0008488846 0.01208122
v -0.01718115 0.000848877 -0.0003682032
v -0.03223723 -0.01201024 0.007619489
v -0.02558169 -0.006325852 -0.004675422
v -0.03223723 -0.01201024 0.01208122
v -0.03675556 -0.01730054 0.01208122
v 0.03724704 0.02339379 0.01208122
v 0.03750933 0.02341444 0.01208122
v 0.03696051 -0.005312623 0.01208122
v 0.01799405 0.01877155 0.01208122
v 0.02497208 -0.01554166 0.01208122
v -0.03750933 -0.0184573 0.01208122
v -0.0002988243 0.01119439 0.01208122
v -0.01718115 0.0008488846 0.01208122
v -0.03223723 -0.01201024 0.01208122
v -0.03675556 -0.01730054 0.01208122
v 0.03578214 0.02304211 -0.01208122
v 0.03517789 -0.008587052 -0.01208122
v 0.03696051 -0.005312623 0.01208122
v 0.03750933 0.02341444 0.01208122
v 0.03724704 0.02339379 0.008402208
v 0.03517789 -0.008587052 -0.01208122
v 0.03578214 0.02304211 -0.01208122
v 0.03197006 0.02212691 -0.01208122
v 0.02085137 -0.02081102 -0.01208122
v -0.02705343 -0.01131276 -0.01208122
v -0.03493913 -0.02341444 -0.01208122
v -0.03750933 -0.0184573 0.01208122
v 0.02497208 -0.01554166 0.01208122
v 0.02085137 -0.02081102 -0.01208122
v -0.03493913 -0.02341444 -0.01208122
v -0.03750933 -0.0184573 0.01208122
v -0.03493913 -0.02341444 -0.01208122
v -0.02705343 -0.01131276 -0.01208122
v -0.03675556 -0.01730054 0.01208122
v -0.03223723 -0.01201024 0.007619489
v -0.02558169 -0.006325852 -0.004675422
v -0.02558169 -0.006325852 -0.004675422
v -0.02705343 -0.01131276 -0.01208122
v 0.03197006 0.02212691 -0.01208122
v 0.01799405 0.01877155 -0.003944924
v -0.01718115 0.000848877 -0.0003682032
v -0.0002988243 0.01119439 0.001024195
v 0.02497208 -0.01554166 0.01208122
v 0.03696051 -0.005312623 0.01208122
v 0.03517789 -0.008587052 -0.01208122
v 0.02085137 -0.02081102 -0.01208122
vt 0.2635345 0.4625475
vt 0.268014 0.4637513
vt 0.2680874 0.4632687
vt 0.2766888 0.4274418
vt 0.2575096 0.4212101
vt 0.2385774 0.455396
vt 0.2400663 0.4472886
vt 0.2784035 0.3870909
vt 0.2907887 0.3934015
vt 0.3100401 0.361986
vt 0.2973738 0.3527834
vt 0.3300142 0.3300141
vt 0.3069302 0.3320332
vt 0.333969 0.3339689
vt 0.3434017 0.3251011
vt 0.2680874 0.4632687
vt 0.268014 0.4637513
vt 0.274394 0.4528999
vt 0.2766888 0.4274418
vt 0.2853925 0.4198239
vt 0.3453269 0.3234288
vt 0.2907887 0.3934015
vt 0.3100401 0.361986
vt 0.333969 0.3339689
vt 0.3434017 0.3251011
vt 0.2385774 0.455396
vt 0.2370971 0.4381149
vt 0.274394 0.4528999
vt 0.268014 0.4637513
vt 0.2635345 0.4625475
vt 0.2370971 0.4381149
vt 0.2385774 0.455396
vt 0.2400663 0.4472886
vt 0.2521973 0.3886596
vt 0.3059775 0.3186675
vt 0.3281932 0.29705
vt 0.3453269 0.3234288
vt 0.2853925 0.4198239
vt 0.2521973 0.3886596
vt 0.3281932 0.29705
vt 0.3453269 0.3234288
vt 0.3281932 0.29705
vt 0.3059775 0.3186675
vt 0.3434017 0.3251011
vt 0.3300142 0.3300141
vt 0.3069302 0.3320332
vt 0.3069302 0.3320332
vt 0.3059775 0.3186675
vt 0.2400663 0.4472886
vt 0.2575096 0.4212101
vt 0.2973738 0.3527834
vt 0.2784035 0.3870909
vt 0.2853925 0.4198239
vt 0.274394 0.4528999
vt 0.2370971 0.4381149
vt 0.2521973 0.3886596
vn -0.2299845 0.9731943 1.829266E-07
vn -0.07846815 0.9969166 0
vn -0.1564391 0.9876876 9.385521E-08
vn -0.3090174 0.9510564 9.385524E-08
vn -0.2922725 0.9563351 1.147777E-07
vn -0.2334457 0.9723698 1.871318E-07
vn -0.2334457 0.9723698 1.871318E-07
vn -0.4504243 0.8928146 -2.106986E-07
vn -0.4539908 0.8910064 -2.219787E-07
vn -0.5877855 0.8090169 -1.932819E-07
vn -0.5959278 0.8030379 -1.610969E-07
vn -0.6826677 0.7307289 4.107184E-08
vn -0.6494483 0.7604058 5.721649E-08
vn -0.7071071 0.7071064 2.869671E-08
vn -0.7604066 0.6494474 0
vn 2.750838E-08 -4.593836E-08 1
vn 2.750838E-08 -4.593836E-08 1
vn 2.750838E-08 -4.593836E-08 1
vn 2.750838E-08 -4.593836E-08 1
vn 2.750838E-08 -4.593836E-08 1
vn 2.750838E-08 -4.593836E-08 1
vn 2.750838E-08 -4.593836E-08 1
vn 2.750838E-08 -4.593836E-08 1
vn 2.750838E-08 -4.593836E-08 1
vn 2.750838E-08 -4.593836E-08 1
vn 0.9972947 -0.01905271 -0.07099514
vn 0.9972947 -0.01905271 -0.07099514
vn 0.9972947 -0.01905271 -0.07099514
vn 0.9972947 -0.01905271 -0.07099514
vn 0.9972947 -0.01905271 -0.07099514
vn 0 0 -1
vn 0 0 -1
vn 0 0 -1
vn 0 0 -1
vn 0 0 -1
vn 0 0 -1
vn 0.04561943 -0.9776105 0.2054182
vn 0.04561943 -0.9776105 0.2054182
vn 0.04561943 -0.9776105 0.2054182
vn 0.04561943 -0.9776105 0.2054182
vn -0.821375 0.5352237 -0.1971773
vn -0.821375 0.5352236 -0.1971774
vn -0.821375 0.5352236 -0.1971774
vn -0.821375 0.5352237 -0.1971774
vn -0.821375 0.5352237 -0.1971774
vn -0.821375 0.5352237 -0.1971774
vn -0.4430135 0.7819518 -0.4385093
vn -0.4430135 0.7819518 -0.4385093
vn -0.4430135 0.7819518 -0.4385093
vn -0.4430135 0.7819518 -0.4385093
vn -0.4430136 0.7819518 -0.4385093
vn -0.4430136 0.7819518 -0.4385093
vn 0.6480921 -0.7595646 0.0551198
vn 0.6480922 -0.7595646 0.0551198
vn 0.6480921 -0.7595646 0.0551198
vn 0.6480921 -0.7595646 0.0551198
g Cylinder001_frag_040_0
f 3/3/3 2/2/2 1/1/1
f 4/4/4 3/3/3 1/1/1
f 5/5/5 4/4/4 1/1/1
f 5/5/5 1/1/1 6/6/6
f 6/6/6 7/7/7 5/5/5
f 4/4/4 5/5/5 8/8/8
f 9/9/9 4/4/4 8/8/8
f 9/9/9 8/8/8 10/10/10
f 8/8/8 11/11/11 10/10/10
f 12/12/12 10/10/10 11/11/11
f 11/11/11 13/13/13 12/12/12
f 12/12/12 14/14/14 10/10/10
f 14/14/14 12/12/12 15/15/15
f 18/18/18 17/17/17 16/16/16
f 16/16/16 19/19/19 18/18/18
f 19/19/19 20/20/20 18/18/18
f 19/19/19 21/21/21 20/20/20
f 19/19/19 22/22/22 21/21/21
f 22/22/22 23/23/23 21/21/21
f 23/23/23 24/24/24 21/21/21
f 24/24/24 25/25/25 21/21/21
f 28/28/28 27/27/27 26/26/26
f 26/26/26 29/29/29 28/28/28
f 26/26/26 30/30/30 29/29/29
f 33/33/33 32/32/32 31/31/31
f 31/31/31 34/34/34 33/33/33
f 34/34/34 35/35/35 33/33/33
f 34/34/34 36/36/36 35/35/35
f 39/39/39 38/38/38 37/37/37
f 40/40/40 39/39/39 37/37/37
f 43/43/43 42/42/42 41/41/41
f 41/41/41 44/44/44 43/43/43
f 44/44/44 45/45/45 43/43/43
f 45/45/45 46/46/46 43/43/43
f 49/49/49 48/48/48 47/47/47
f 47/47/47 50/50/50 49/49/49
f 47/47/47 51/51/51 50/50/50
f 51/51/51 52/52/52 50/50/50
f 55/55/55 54/54/54 53/53/53
f 56/56/56 55/55/55 53/53/53
