g Cylinder001_frag_052
v 0.003639803 -0.02680963 -0.01208122
v 0.006641708 -0.02887752 0.01208122
v 0.03579594 0.002601607 0.01208122
v 0.03529605 0.007371039 -0.01208122
v 0.006641708 -0.02887752 0.01208122
v 0.003639803 -0.02680963 -0.01208122
v -0.01966854 -0.01754113 -0.01208122
v -0.02170141 -0.01716736 -6.918336E-05
v -0.01980035 -0.01836291 0.01208122
v -0.02548891 -0.01242085 0.01208122
v -0.01980035 -0.01836291 0.01208122
v -0.02170141 -0.01716736 -6.918336E-05
v 0.03258593 0.01964011 0.01208122
v 0.03579594 0.002601607 0.01208122
v 0.006641708 -0.02887752 0.01208122
v -0.01738491 0.02887752 0.01208122
v -0.01980035 -0.01836291 0.01208122
v -0.03579594 0.0135873 0.01208122
v -0.02548891 -0.01242085 0.01208122
v -0.01351581 0.02592588 -0.01208122
v 0.03343551 0.01724665 -0.01208122
v 0.03258593 0.01964011 0.01208122
v -0.01738491 0.02887752 0.01208122
v 0.03529605 0.007371039 -0.01208122
v 0.03579594 0.002601607 0.01208122
v 0.03258593 0.01964011 0.01208122
v 0.03343551 0.01724665 -0.01208122
v 0.003639803 -0.02680963 -0.01208122
v 0.03529605 0.007371039 -0.01208122
v 0.03343551 0.01724665 -0.01208122
v -0.01351581 0.02592588 -0.01208122
v -0.01966854 -0.01754113 -0.01208122
v -0.03110537 0.01131788 -0.01208122
v -0.02170141 -0.01716736 -6.918336E-05
v -0.01966854 -0.01754113 -0.01208122
v -0.03110537 0.01131788 -0.01208122
v -0.02548891 -0.01242085 0.01208122
v -0.03579594 0.0135873 0.01208122
v -0.03110537 0.01131788 -0.01208122
v -0.01351581 0.02592588 -0.01208122
v -0.01738491 0.02887752 0.01208122
v -0.03579594 0.0135873 0.01208122
vt 0.7700593 0.6914837
vt 0.6398704 0.6101159
vt 0.4463318 0.702061
vt 0.3978487 0.7711437
vt 0.6398704 0.6101159
vt 0.7700593 0.6914837
vt 0.7215178 0.2100832
vt 0.6309555 0.2869106
vt 0.5880202 0.3939134
vt 0.528271 0.3514724
vt 0.5880202 0.3939134
vt 0.6309555 0.2869106
vt 0.3784351 0.6742198
vt 0.4463318 0.702061
vt 0.6398704 0.6101159
vt 0.3028614 0.4556754
vt 0.5880202 0.3939134
vt 0.3725161 0.3493528
vt 0.528271 0.3514724
vt 0.2006727 0.4599785
vt 0.3471797 0.7437001
vt 0.3784351 0.6742198
vt 0.3028614 0.4556754
vt 0.3978487 0.7711437
vt 0.4463318 0.702061
vt 0.3784351 0.6742198
vt 0.3471797 0.7437001
vt 0.7700593 0.6914837
vt 0.3978487 0.7711437
vt 0.3471797 0.7437001
vt 0.2006727 0.4599785
vt 0.7215178 0.2100832
vt 0.2897593 0.2720964
vt 0.6309555 0.2869106
vt 0.7215178 0.2100832
vt 0.2897593 0.2720964
vt 0.528271 0.3514724
vt 0.3725161 0.3493528
vt 0.2897593 0.2720964
vt 0.2006727 0.4599785
vt 0.3028614 0.4556754
vt 0.3725161 0.3493528
vn 0.7256374 -0.6720451 -0.1476679
vn 0.7256374 -0.6720451 -0.1476678
vn 0.7256374 -0.6720451 -0.1476679
vn 0.7256374 -0.6720451 -0.1476679
vn -0.3692966 -0.9287039 -0.03360062
vn -0.3692965 -0.928704 -0.03360062
vn -0.3692966 -0.928704 -0.03360062
vn -0.3692965 -0.928704 -0.03360062
vn -0.3692966 -0.9287039 -0.03360062
vn -0.7216183 -0.6908317 0.0449296
vn -0.7216183 -0.6908317 0.0449296
vn -0.7216183 -0.6908317 0.04492959
vn 5.31652E-08 -3.417185E-08 1
vn 5.316519E-08 -3.417185E-08 1
vn 5.31652E-08 -3.417185E-08 1
vn 5.31652E-08 -3.417185E-08 1
vn 5.31652E-08 -3.417185E-08 1
vn 5.31652E-08 -3.417185E-08 1
vn 5.31652E-08 -3.417185E-08 1
vn 0.181028 0.9792922 -0.09064074
vn 0.181028 0.9792921 -0.09064074
vn 0.181028 0.9792921 -0.09064074
vn 0.181028 0.9792921 -0.09064074
vn 0.982583 0.1851158 0.01621163
vn 0.982583 0.1851158 0.01621163
vn 0.982583 0.1851158 0.01621163
vn 0.982583 0.1851158 0.01621163
vn 0 0 -1
vn 0 0 -1
vn 0 0 -1
vn 0 0 -1
vn 0 0 -1
vn 0 0 -1
vn -0.9199228 -0.3645654 -0.1443403
vn -0.9199228 -0.3645654 -0.1443403
vn -0.9199228 -0.3645654 -0.1443403
vn -0.9199228 -0.3645654 -0.1443403
vn -0.9199228 -0.3645654 -0.1443403
vn -0.6269314 0.7548907 -0.1926058
vn -0.6269313 0.7548907 -0.1926058
vn -0.6269313 0.7548907 -0.1926058
vn -0.6269313 0.7548907 -0.1926058
g Cylinder001_frag_052_0
f 3/3/3 2/2/2 1/1/1
f 4/4/4 3/3/3 1/1/1
f 7/7/7 6/6/6 5/5/5
f 5/5/5 8/8/8 7/7/7
f 5/5/5 9/9/9 8/8/8
f 12/12/12 11/11/11 10/10/10
f 15/15/15 14/14/14 13/13/13
f 13/13/13 16/16/16 15/15/15
f 16/16/16 17/17/17 15/15/15
f 16/16/16 18/18/18 17/17/17
f 18/18/18 19/19/19 17/17/17
f 22/22/22 21/21/21 20/20/20
f 23/23/23 22/22/22 20/20/20
f 26/26/26 25/25/25 24/24/24
f 27/27/27 26/26/26 24/24/24
f 30/30/30 29/29/29 28/28/28
f 28/28/28 31/31/31 30/30/30
f 28/28/28 32/32/32 31/31/31
f 32/32/32 33/33/33 31/31/31
f 36/36/36 35/35/35 34/34/34
f 34/34/34 37/37/37 36/36/36
f 37/37/37 38/38/38 36/36/36
f 41/41/41 40/40/40 39/39/39
f 42/42/42 41/41/41 39/39/39
