g Cylinder001_frag_029
v -0.006444939 -0.01371468 0.01208122
v -0.006444939 -0.01371468 -0.01208122
v -0.02150104 -0.0008555909 -0.01208122
v -0.02150104 -0.0008555909 0.006252026
v -0.02001128 -0.00212796 0.01208122
v 0.0104374 -0.02406017 0.003307594
v 0.0104374 -0.02406017 -0.01208122
v 0.0008004685 -0.01815466 0.01208122
v 0.02317328 -0.02933553 -0.01208122
v 0.02099027 -0.0284313 -0.006755253
v -0.02539853 0.003707771 -0.01208122
v -0.006444939 -0.01371468 0.01208122
v -0.02001128 -0.00212796 0.01208122
v -0.00479483 0.00871917 0.01208122
v 0.0008004685 -0.01815466 0.01208122
v -0.02150104 -0.0008555909 0.006252026
v -0.02539853 0.003707771 -0.01208122
v 0.01055232 0.02933553 -0.01208122
v 0.01097764 0.02841574 -0.00902728
v 0.01101336 0.02829799 -0.008669657
v -0.00479483 0.00871917 0.01208122
v -0.02001128 -0.00212796 0.01208122
v 0.02539853 -0.02509147 -0.01208122
v 0.02099027 -0.0284313 -0.006755253
v 0.0104374 -0.02406017 0.003307594
v 0.01460437 0.02675212 -0.01208122
v 0.0008004685 -0.01815466 0.01208122
v -0.00479483 0.00871917 0.01208122
v 0.01101336 0.02829799 -0.008669657
v 0.01092697 0.0292486 -0.01208122
v 0.01460437 0.02675212 -0.01208122
v 0.01101336 0.02829799 -0.008669657
v 0.01097764 0.02841574 -0.00902728
v 0.01097764 0.02841574 -0.00902728
v 0.01055232 0.02933553 -0.01208122
v 0.01092697 0.0292486 -0.01208122
v 0.02317328 -0.02933553 -0.01208122
v 0.02539853 -0.02509147 -0.01208122
v 0.01460437 0.02675212 -0.01208122
v 0.0104374 -0.02406017 -0.01208122
v 0.01092697 0.0292486 -0.01208122
v 0.01055232 0.02933553 -0.01208122
v -0.02539853 0.003707771 -0.01208122
v -0.006444939 -0.01371468 -0.01208122
v -0.02150104 -0.0008555909 -0.01208122
v 0.02317328 -0.02933553 -0.01208122
v 0.02099027 -0.0284313 -0.006755253
v 0.02539853 -0.02509147 -0.01208122
vt 0.6902397 0.3617831
vt 0.7148209 0.3439238
vt 0.6877604 0.31224
vt 0.6714481 0.3285522
vt 0.6688206 0.3363325
vt 0.7193418 0.3882401
vt 0.7365918 0.3794508
vt 0.6990776 0.3749315
vt 0.7483783 0.4059927
vt 0.7403574 0.4038318
vt 0.6786495 0.3034968
vt 0.6902397 0.3617831
vt 0.6688206 0.3363325
vt 0.6720089 0.3433926
vt 0.6990776 0.3749315
vt 0.6714481 0.3285522
vt 0.6786495 0.3034968
vt 0.6966465 0.3095575
vt 0.6945349 0.315873
vt 0.6942685 0.3166011
vt 0.6720089 0.3433926
vt 0.6688206 0.3363325
vt 0.749394 0.4069687
vt 0.7403574 0.4038318
vt 0.7193418 0.3882401
vt 0.7075185 0.321102
vt 0.6990776 0.3749315
vt 0.6720089 0.3433926
vt 0.6942685 0.3166011
vt 0.6974512 0.3103106
vt 0.7075185 0.321102
vt 0.6942685 0.3166011
vt 0.6945349 0.315873
vt 0.6945349 0.315873
vt 0.6966465 0.3095575
vt 0.6974512 0.3103106
vt 0.7483783 0.4059927
vt 0.749394 0.4069687
vt 0.7075185 0.321102
vt 0.7365918 0.3794508
vt 0.6974512 0.3103106
vt 0.6966465 0.3095575
vt 0.6786495 0.3034968
vt 0.7148209 0.3439238
vt 0.6877604 0.31224
vt 0.7483783 0.4059927
vt 0.7403574 0.4038318
vt 0.749394 0.4069687
vn -0.5877843 -0.8090177 2.150449E-08
vn -0.5877843 -0.8090177 2.150449E-08
vn -0.7071058 -0.7071077 3.237936E-08
vn -0.6613878 -0.7500441 5.810682E-08
vn -0.6494472 -0.7604067 6.455911E-08
vn -0.4851637 -0.8744233 -6.014812E-08
vn -0.4539896 -0.8910069 -9.149053E-08
vn -0.5224975 -0.8526407 -2.168271E-08
vn -0.3826827 -0.9238799 -1.607343E-07
vn -0.3826827 -0.9238799 -1.607343E-07
vn -0.7604049 -0.6494492 0
vn -6.196318E-08 -8.046333E-08 1
vn -6.196319E-08 -8.046334E-08 1
vn -6.196318E-08 -8.046333E-08 1
vn -6.196319E-08 -8.046333E-08 1
vn -0.551867 0.774164 0.3100207
vn -0.5518671 0.774164 0.3100207
vn -0.551867 0.774164 0.3100207
vn -0.551867 0.774164 0.3100207
vn -0.551867 0.774164 0.3100207
vn -0.551867 0.774164 0.3100207
vn -0.551867 0.774164 0.3100207
vn 0.7139938 0.148658 0.6841882
vn 0.7139938 0.148658 0.6841882
vn 0.7139939 0.148658 0.6841882
vn 0.7139938 0.148658 0.6841882
vn 0.7139938 0.148658 0.6841882
vn 0.7139938 0.148658 0.6841882
vn 0.7139938 0.148658 0.6841882
vn 0.5489741 0.8086571 0.2114261
vn 0.5489742 0.8086571 0.2114261
vn 0.5489742 0.8086571 0.2114261
vn 0.5489742 0.8086571 0.2114262
vn 0.2186403 0.9423392 0.2533638
vn 0.2186403 0.9423392 0.2533638
vn 0.2186403 0.9423392 0.2533638
vn 0 0 -1
vn 0 0 -1
vn 0 0 -1
vn 0 0 -1
vn 0 0 -1
vn 0 0 -1
vn 0 0 -1
vn 0 0 -1
vn 0 0 -1
vn 0.8100916 -0.4247484 0.4041539
vn 0.8100916 -0.4247485 0.4041539
vn 0.8100916 -0.4247485 0.4041539
g Cylinder001_frag_029_0
f 3/3/3 2/2/2 1/1/1
f 1/1/1 4/4/4 3/3/3
f 1/1/1 5/5/5 4/4/4
f 6/6/6 1/1/1 2/2/2
f 2/2/2 7/7/7 6/6/6
f 6/6/6 8/8/8 1/1/1
f 7/7/7 9/9/9 6/6/6
f 9/9/9 10/10/10 6/6/6
f 3/3/3 4/4/4 11/11/11
f 14/14/14 13/13/13 12/12/12
f 15/15/15 14/14/14 12/12/12
f 18/18/18 17/17/17 16/16/16
f 16/16/16 19/19/19 18/18/18
f 16/16/16 20/20/20 19/19/19
f 16/16/16 21/21/21 20/20/20
f 16/16/16 22/22/22 21/21/21
f 25/25/25 24/24/24 23/23/23
f 23/23/23 26/26/26 25/25/25
f 26/26/26 27/27/27 25/25/25
f 26/26/26 28/28/28 27/27/27
f 26/26/26 29/29/29 28/28/28
f 32/32/32 31/31/31 30/30/30
f 33/33/33 32/32/32 30/30/30
f 36/36/36 35/35/35 34/34/34
f 39/39/39 38/38/38 37/37/37
f 37/37/37 40/40/40 39/39/39
f 40/40/40 41/41/41 39/39/39
f 40/40/40 42/42/42 41/41/41
f 40/40/40 43/43/43 42/42/42
f 40/40/40 44/44/44 43/43/43
f 44/44/44 45/45/45 43/43/43
f 48/48/48 47/47/47 46/46/46
