g Cylinder001_frag_033
v 0.01417407 0.02446941 0.01208122
v 0.01417407 0.02446941 -0.01208122
v 0.03246694 0.01689226 -0.01208122
v 0.03246694 0.01689226 0.01208122
v -0.005078913 0.02909165 0.01208122
v -0.005078913 0.02909165 -0.01208122
v -0.02481794 0.03064514 0.01208122
v -0.02481794 0.03064514 -0.01208122
v -0.04455697 0.02909164 0.008402208
v -0.04455697 0.02909164 -0.01208122
v -0.04429467 0.02911228 0.01208122
v -0.04602186 0.02873995 -0.01208122
v 0.03700508 0.01411129 0.01208122
v 0.04176891 0.011192 -0.01208122
v 0.02423363 -0.03064513 -0.01208122
v 0.04662612 -0.0105375 -0.01208122
v 0.04176891 0.011192 -0.01208122
v 0.03246694 0.01689226 -0.01208122
v 0.01417407 0.02446941 -0.01208122
v -0.02306359 -0.02236699 -0.01208122
v -0.005078913 0.02909165 -0.01208122
v -0.02481794 0.03064514 -0.01208122
v -0.04662612 -0.002889198 -0.01208122
v -0.04455697 0.02909164 -0.01208122
v -0.04602186 0.02873995 -0.01208122
v -0.04484348 0.0003852234 0.01208122
v -0.04662612 -0.002889198 -0.01208122
v -0.04602186 0.02873995 -0.01208122
v -0.04429467 0.02911228 0.01208122
v -0.04455697 0.02909164 0.008402208
v 0.02416415 -0.02384874 0.01208122
v 0.02423363 -0.03064513 -0.01208122
v -0.02306359 -0.02236699 -0.01208122
v -0.02618842 -0.01503584 0.01208122
v 0.03700508 0.01411129 0.01208122
v 0.04192526 -0.007899918 0.01208122
v 0.02416415 -0.02384874 0.01208122
v 0.03246694 0.01689226 0.01208122
v 0.01417407 0.02446941 0.01208122
v -0.02618842 -0.01503584 0.01208122
v -0.005078913 0.02909165 0.01208122
v -0.02481794 0.03064514 0.01208122
v -0.04429467 0.02911228 0.01208122
v -0.04484348 0.0003852234 0.01208122
v 0.02416415 -0.02384874 0.01208122
v 0.04192526 -0.007899918 0.01208122
v 0.04662612 -0.0105375 -0.01208122
v 0.02423363 -0.03064513 -0.01208122
v 0.04192526 -0.007899918 0.01208122
v 0.03700508 0.01411129 0.01208122
v 0.04176891 0.011192 -0.01208122
v 0.04662612 -0.0105375 -0.01208122
v -0.02618842 -0.01503584 0.01208122
v -0.02306359 -0.02236699 -0.01208122
v -0.04662612 -0.002889198 -0.01208122
v -0.04484348 0.0003852234 0.01208122
vt 0.2765104 0.5726163
vt 0.2476134 0.5820054
vt 0.2635492 0.6204777
vt 0.2906215 0.6066837
vt 0.2679022 0.5367607
vt 0.2378922 0.5415138
vt 0.265009 0.5
vt 0.234625 0.5
vt 0.2633484 0.4625181
vt 0.2378922 0.4584862
vt 0.2678286 0.4637223
vt 0.2383924 0.4553645
vt 0.2953363 0.615397
vt 0.2748111 0.6404943
vt 0.2816243 0.665073
vt 0.2952616 0.6720902
vt 0.2748111 0.6404943
vt 0.2635492 0.6204777
vt 0.2476134 0.5820054
vt 0.2237331 0.506624
vt 0.2378922 0.5415138
vt 0.234625 0.5
vt 0.2368567 0.4380583
vt 0.2378922 0.4584862
vt 0.2383924 0.4553645
vt 0.274159 0.4528508
vt 0.2368567 0.4380583
vt 0.2383924 0.4553645
vt 0.2678286 0.4637223
vt 0.2633484 0.4625181
vt 0.3115347 0.6287743
vt 0.2816243 0.665073
vt 0.2237331 0.506624
vt 0.273455 0.4961432
vt 0.2953363 0.615397
vt 0.3147774 0.6410652
vt 0.3115347 0.6287743
vt 0.2906215 0.6066837
vt 0.2765104 0.5726163
vt 0.273455 0.4961432
vt 0.2679022 0.5367607
vt 0.265009 0.5
vt 0.2678286 0.4637223
vt 0.274159 0.4528508
vt 0.3115347 0.6287743
vt 0.3147774 0.6410652
vt 0.2952616 0.6720902
vt 0.2816243 0.665073
vt 0.3147774 0.6410652
vt 0.2953363 0.615397
vt 0.2748111 0.6404943
vt 0.2952616 0.6720902
vt 0.273455 0.4961432
vt 0.2237331 0.506624
vt 0.2368567 0.4380583
vt 0.274159 0.4528508
vn 0.309017 0.9510565 0
vn 0.309017 0.9510565 0
vn 0.4539905 0.8910065 -1.240884E-07
vn 0.4539905 0.8910065 -1.240884E-07
vn 0.1564343 0.9876884 0
vn 0.1564343 0.9876884 0
vn -1.879352E-07 1 -2.126679E-08
vn -1.879352E-07 1 -2.126679E-08
vn -0.08210187 0.9966239 -4.142384E-08
vn -0.1564356 0.9876881 -2.12668E-08
vn -0.07845919 0.9969173 -4.240248E-08
vn -0.2334475 0.9723694 0
vn 0.5224985 0.8526402 -2.474117E-07
vn 0.5224985 0.8526402 -2.474117E-07
vn 0 0 -1
vn 0 0 -1
vn 0 0 -1
vn 0 0 -1
vn 0 0 -1
vn 0 0 -1
vn 0 0 -1
vn 0 0 -1
vn 0 0 -1
vn 0 0 -1
vn 0 0 -1
vn -0.9972947 0.01905278 0.0709953
vn -0.9972947 0.01905278 0.0709953
vn -0.9972947 0.01905278 0.0709953
vn -0.9972947 0.01905277 0.07099529
vn -0.9972947 0.01905278 0.07099529
vn -0.166165 -0.9493854 0.2665644
vn -0.166165 -0.9493854 0.2665644
vn -0.166165 -0.9493854 0.2665644
vn -0.166165 -0.9493854 0.2665644
vn 0 -2.31184E-08 1
vn 0 -2.31184E-08 1
vn 0 -2.31184E-08 1
vn 0 -2.31184E-08 1
vn 0 -2.31184E-08 1
vn 0 -2.31184E-08 1
vn 0 -2.31184E-08 1
vn 0 -2.31184E-08 1
vn 0 -2.31184E-08 1
vn 0 -2.31184E-08 1
vn 0.653706 -0.7279872 0.2066473
vn 0.653706 -0.7279872 0.2066473
vn 0.653706 -0.7279873 0.2066474
vn 0.653706 -0.7279872 0.2066473
vn 0.962733 0.2152002 0.1638105
vn 0.9627331 0.2152002 0.1638105
vn 0.9627331 0.2152002 0.1638106
vn 0.962733 0.2152002 0.1638105
vn -0.6299518 -0.7620605 0.1497482
vn -0.6299518 -0.7620605 0.1497482
vn -0.6299518 -0.7620605 0.1497482
vn -0.6299518 -0.7620605 0.1497482
g Cylinder001_frag_033_0
f 3/3/3 2/2/2 1/1/1
f 4/4/4 3/3/3 1/1/1
f 1/1/1 2/2/2 5/5/5
f 2/2/2 6/6/6 5/5/5
f 5/5/5 6/6/6 7/7/7
f 6/6/6 8/8/8 7/7/7
f 9/9/9 7/7/7 8/8/8
f 8/8/8 10/10/10 9/9/9
f 9/9/9 11/11/11 7/7/7
f 12/12/12 9/9/9 10/10/10
f 4/4/4 13/13/13 3/3/3
f 13/13/13 14/14/14 3/3/3
f 17/17/17 16/16/16 15/15/15
f 15/15/15 18/18/18 17/17/17
f 15/15/15 19/19/19 18/18/18
f 15/15/15 20/20/20 19/19/19
f 20/20/20 21/21/21 19/19/19
f 20/20/20 22/22/22 21/21/21
f 20/20/20 23/23/23 22/22/22
f 23/23/23 24/24/24 22/22/22
f 23/23/23 25/25/25 24/24/24
f 28/28/28 27/27/27 26/26/26
f 26/26/26 29/29/29 28/28/28
f 29/29/29 30/30/30 28/28/28
f 33/33/33 32/32/32 31/31/31
f 34/34/34 33/33/33 31/31/31
f 37/37/37 36/36/36 35/35/35
f 35/35/35 38/38/38 37/37/37
f 38/38/38 39/39/39 37/37/37
f 39/39/39 40/40/40 37/37/37
f 39/39/39 41/41/41 40/40/40
f 41/41/41 42/42/42 40/40/40
f 42/42/42 43/43/43 40/40/40
f 43/43/43 44/44/44 40/40/40
f 47/47/47 46/46/46 45/45/45
f 48/48/48 47/47/47 45/45/45
f 51/51/51 50/50/50 49/49/49
f 52/52/52 51/51/51 49/49/49
f 55/55/55 54/54/54 53/53/53
f 56/56/56 55/55/55 53/53/53
