g Cylinder001_frag_049
v -0.02591835 -0.02129752 0.01208122
v -0.02591835 -0.02129752 -0.01208122
v -0.02747186 -0.001558493 -0.01208122
v -0.02747186 -0.001558493 0.01208122
v -0.02402987 -0.02916359 0.01208122
v -0.02322055 -0.03253465 -0.01208122
v -0.02668498 0.008440034 -0.01208122
v -0.0262235 0.01430374 0.01208122
v 0.02045242 -0.03254426 -0.01208122
v 0.02686662 -0.006979905 -0.01208122
v 0.02447643 0.02700693 -0.01208122
v 0.01894644 0.03002126 -0.01208122
v -0.02322055 -0.03253465 -0.01208122
v -0.02668498 0.008440034 -0.01208122
v -0.02591835 -0.02129752 -0.01208122
v -0.02747186 -0.001558493 -0.01208122
v -0.02322055 -0.03253465 -0.01208122
v -0.02402987 -0.02916359 0.01208122
v 0.01978644 -0.02917324 0.01208122
v 0.02045242 -0.03254426 -0.01208122
v 0.02747186 0.001457689 0.01208122
v 0.02580151 0.02520891 0.01208122
v 0.02447643 0.02700693 -0.01208122
v 0.02686662 -0.006979905 -0.01208122
v 0.02580151 0.02520891 0.01208122
v 0.02747186 0.001457689 0.01208122
v 0.01978644 -0.02917324 0.01208122
v 0.0123443 0.03254426 0.01208122
v -0.02402987 -0.02916359 0.01208122
v -0.0262235 0.01430374 0.01208122
v -0.02591835 -0.02129752 0.01208122
v -0.02747186 -0.001558493 0.01208122
v 0.02580151 0.02520891 0.01208122
v 0.0123443 0.03254426 0.01208122
v 0.01894644 0.03002126 -0.01208122
v 0.02447643 0.02700693 -0.01208122
v 0.0123443 0.03254426 0.01208122
v -0.0262235 0.01430374 0.01208122
v -0.02668498 0.008440034 -0.01208122
v 0.01894644 0.03002126 -0.01208122
v 0.02686662 -0.006979905 -0.01208122
v 0.02045242 -0.03254426 -0.01208122
v 0.01978644 -0.02917324 0.01208122
v 0.02747186 0.001457689 0.01208122
vt 0.5367658 0.2678712
vt 0.5415189 0.2378613
vt 0.5000001 0.2345937
vt 0.5000001 0.2649777
vt 0.5515609 0.2707489
vt 0.565362 0.2427205
vt 0.4789006 0.2353862
vt 0.4704015 0.2668782
vt 0.6005061 0.2461663
vt 0.52083 0.2239745
vt 0.4014795 0.2439756
vt 0.3996584 0.2465619
vt 0.565362 0.2427205
vt 0.4789006 0.2353862
vt 0.5415189 0.2378613
vt 0.5000001 0.2345937
vt 0.565362 0.2427205
vt 0.5515609 0.2707489
vt 0.5751293 0.2852825
vt 0.6005061 0.2461663
vt 0.490539 0.2765415
vt 0.4221845 0.2880504
vt 0.4014795 0.2439756
vt 0.52083 0.2239745
vt 0.4221845 0.2880504
vt 0.490539 0.2765415
vt 0.5751293 0.2852825
vt 0.4156385 0.2863557
vt 0.5515609 0.2707489
vt 0.4704015 0.2668782
vt 0.5367658 0.2678712
vt 0.5000001 0.2649777
vt 0.4221845 0.2880504
vt 0.4156385 0.2863557
vt 0.3996584 0.2465619
vt 0.4014795 0.2439756
vt 0.4156385 0.2863557
vt 0.4704015 0.2668782
vt 0.4789006 0.2353862
vt 0.3996584 0.2465619
vt 0.52083 0.2239745
vt 0.6005061 0.2461663
vt 0.5751293 0.2852825
vt 0.490539 0.2765415
vn -0.9876882 -0.1564351 1.78852E-08
vn -0.9876882 -0.1564351 1.78852E-08
vn -1 -1.027696E-06 2.356107E-08
vn -1 -1.027696E-06 2.356107E-08
vn -0.9723698 -0.2334458 3.566014E-08
vn -0.9723698 -0.2334458 3.566014E-08
vn -0.9969174 0.07845793 4.697688E-08
vn -0.9969174 0.07845793 4.697688E-08
vn 0 0 -1
vn 0 0 -1
vn 0 0 -1
vn 0 0 -1
vn 0 0 -1
vn 0 0 -1
vn 0 0 -1
vn 0 0 -1
vn -0.000218077 -0.9904084 0.1381709
vn -0.0002180769 -0.9904084 0.1381709
vn -0.0002180769 -0.9904084 0.1381709
vn -0.0002180769 -0.9904084 0.1381709
vn 0.9963171 0.07006805 -0.04942436
vn 0.9963171 0.07006805 -0.04942436
vn 0.9963171 0.07006805 -0.04942436
vn 0.9963171 0.07006805 -0.04942436
vn 0 -2.310145E-08 1
vn 0 -2.310145E-08 1
vn 0 -2.310145E-08 1
vn 0 -2.310145E-08 1
vn 0 -2.310145E-08 1
vn 0 -2.310145E-08 1
vn 0 -2.310145E-08 1
vn 0 -2.310145E-08 1
vn 0.4782386 0.8773608 0.03906112
vn 0.4782386 0.8773608 0.03906112
vn 0.4782386 0.8773608 0.03906112
vn 0.4782386 0.8773608 0.03906113
vn -0.4183128 0.8844817 -0.2066555
vn -0.4183128 0.8844817 -0.2066555
vn -0.4183128 0.8844817 -0.2066556
vn -0.4183128 0.8844817 -0.2066555
vn 0.9681547 -0.2429139 0.06057518
vn 0.9681547 -0.2429139 0.06057518
vn 0.9681547 -0.2429139 0.06057518
vn 0.9681547 -0.2429139 0.06057518
g Cylinder001_frag_049_0
f 3/3/3 2/2/2 1/1/1
f 4/4/4 3/3/3 1/1/1
f 5/5/5 1/1/1 2/2/2
f 6/6/6 5/5/5 2/2/2
f 3/3/3 4/4/4 7/7/7
f 4/4/4 8/8/8 7/7/7
f 11/11/11 10/10/10 9/9/9
f 9/9/9 12/12/12 11/11/11
f 9/9/9 13/13/13 12/12/12
f 13/13/13 14/14/14 12/12/12
f 13/13/13 15/15/15 14/14/14
f 15/15/15 16/16/16 14/14/14
f 19/19/19 18/18/18 17/17/17
f 20/20/20 19/19/19 17/17/17
f 23/23/23 22/22/22 21/21/21
f 24/24/24 23/23/23 21/21/21
f 27/27/27 26/26/26 25/25/25
f 25/25/25 28/28/28 27/27/27
f 28/28/28 29/29/29 27/27/27
f 28/28/28 30/30/30 29/29/29
f 30/30/30 31/31/31 29/29/29
f 30/30/30 32/32/32 31/31/31
f 35/35/35 34/34/34 33/33/33
f 36/36/36 35/35/35 33/33/33
f 39/39/39 38/38/38 37/37/37
f 40/40/40 39/39/39 37/37/37
f 43/43/43 42/42/42 41/41/41
f 44/44/44 43/43/43 41/41/41
