g Cylinder001_frag_048
v -0.009849755 0.0128153 0.01208122
v -0.009849755 0.0128153 -0.01208122
v 0.0004957505 0.02969764 -0.01208122
v 0.0004957505 0.02969764 0.01208122
v -0.0174269 -0.005477577 0.01208122
v -0.0174269 -0.005477577 -0.01208122
v -0.02204912 -0.02473057 0.01208122
v -0.02204912 -0.02473057 -0.01208122
v -0.02235422 -0.02860735 0.01208122
v -0.02281571 -0.03447106 -0.01208122
v 0.002941086 0.03256077 0.01208122
v 0.004572624 0.03447106 -0.01208122
v 0.004544419 0.03443803 0.003018339
v 0.002941086 0.03256077 0.01208122
v 0.01621358 -0.01036684 0.01208122
v -0.02235422 -0.02860735 0.01208122
v 0.0004957505 0.02969764 0.01208122
v -0.009849755 0.0128153 0.01208122
v -0.0174269 -0.005477577 0.01208122
v -0.02204912 -0.02473057 0.01208122
v 0.008777977 0.03251277 -0.01208122
v 0.004544419 0.03443803 0.003018339
v 0.004572624 0.03447106 -0.01208122
v 0.008777977 0.03251277 -0.01208122
v 0.02281571 -0.01288985 -0.01208122
v 0.01621358 -0.01036684 0.01208122
v 0.002941086 0.03256077 0.01208122
v 0.004544419 0.03443803 0.003018339
v -0.02281571 -0.03447106 -0.01208122
v 0.02281571 -0.01288985 -0.01208122
v 0.008777977 0.03251277 -0.01208122
v 0.004572624 0.03447106 -0.01208122
v 0.0004957505 0.02969764 -0.01208122
v -0.009849755 0.0128153 -0.01208122
v -0.0174269 -0.005477577 -0.01208122
v -0.02204912 -0.02473057 -0.01208122
v -0.02281571 -0.03447106 -0.01208122
v -0.02235422 -0.02860735 0.01208122
v 0.01621358 -0.01036684 0.01208122
v 0.02281571 -0.01288985 -0.01208122
vt 0.3930219 0.2900435
vt 0.3792282 0.2629718
vt 0.3436357 0.2847829
vt 0.3614945 0.3093634
vt 0.4271834 0.2758933
vt 0.4177945 0.2469971
vt 0.463138 0.2672614
vt 0.458385 0.2372522
vt 0.4703235 0.2662646
vt 0.4788515 0.2347697
vt 0.3558908 0.3135977
vt 0.3330999 0.2927918
vt 0.3451107 0.3075675
vt 0.3558908 0.3135977
vt 0.4153326 0.2855809
vt 0.4703235 0.2662646
vt 0.3614945 0.3093634
vt 0.3930219 0.2900435
vt 0.4271834 0.2758933
vt 0.463138 0.2672614
vt 0.3308315 0.2938741
vt 0.3451107 0.3075675
vt 0.3330999 0.2927918
vt 0.3308315 0.2938741
vt 0.3993283 0.245728
vt 0.4153326 0.2855809
vt 0.3558908 0.3135977
vt 0.3451107 0.3075675
vt 0.4788515 0.2347697
vt 0.3993283 0.245728
vt 0.3308315 0.2938741
vt 0.3330999 0.2927918
vt 0.3436357 0.2847829
vt 0.3792282 0.2629718
vt 0.4177945 0.2469971
vt 0.458385 0.2372522
vt 0.4788515 0.2347697
vt 0.4703235 0.2662646
vt 0.4153326 0.2855809
vt 0.3993283 0.245728
vn -0.8910068 0.45399 0
vn -0.8910068 0.45399 0
vn -0.8090173 0.5877848 -1.668291E-08
vn -0.8090173 0.5877848 -1.668291E-08
vn -0.9510567 0.3090163 0
vn -0.9510567 0.3090163 0
vn -0.9876885 0.1564336 1.095759E-07
vn -0.9876885 0.1564336 1.095759E-07
vn -0.9969174 0.07845785 2.184761E-07
vn -0.9969174 0.07845786 2.184761E-07
vn -0.7604065 0.6494474 -3.326296E-08
vn -0.7604066 0.6494474 -3.326297E-08
vn -0.7604065 0.6494474 -3.326296E-08
vn 5.095881E-08 -2.107338E-08 1
vn 5.095881E-08 -2.107338E-08 1
vn 5.095881E-08 -2.107337E-08 1
vn 5.095881E-08 -2.107337E-08 1
vn 5.095881E-08 -2.107338E-08 1
vn 5.095881E-08 -2.107337E-08 1
vn 5.095881E-08 -2.107337E-08 1
vn 0.4221389 0.9065269 0.00277142
vn 0.4221389 0.9065269 0.00277142
vn 0.4221389 0.9065269 0.002771419
vn 0.9310271 0.2878578 0.2243353
vn 0.9310271 0.2878578 0.2243353
vn 0.9310271 0.2878578 0.2243353
vn 0.9310271 0.2878578 0.2243353
vn 0.9310271 0.2878578 0.2243353
vn 0 0 -1
vn 0 0 -1
vn 0 0 -1
vn 0 0 -1
vn 0 0 -1
vn 0 0 -1
vn 0 0 -1
vn 0 0 -1
vn 0.4183126 -0.8844819 0.2066554
vn 0.4183125 -0.8844819 0.2066554
vn 0.4183125 -0.8844818 0.2066554
vn 0.4183125 -0.8844819 0.2066554
g Cylinder001_frag_048_0
f 3/3/3 2/2/2 1/1/1
f 4/4/4 3/3/3 1/1/1
f 1/1/1 2/2/2 5/5/5
f 2/2/2 6/6/6 5/5/5
f 5/5/5 6/6/6 7/7/7
f 6/6/6 8/8/8 7/7/7
f 9/9/9 7/7/7 8/8/8
f 10/10/10 9/9/9 8/8/8
f 3/3/3 4/4/4 11/11/11
f 11/11/11 12/12/12 3/3/3
f 11/11/11 13/13/13 12/12/12
f 16/16/16 15/15/15 14/14/14
f 14/14/14 17/17/17 16/16/16
f 17/17/17 18/18/18 16/16/16
f 18/18/18 19/19/19 16/16/16
f 19/19/19 20/20/20 16/16/16
f 23/23/23 22/22/22 21/21/21
f 26/26/26 25/25/25 24/24/24
f 24/24/24 27/27/27 26/26/26
f 24/24/24 28/28/28 27/27/27
f 31/31/31 30/30/30 29/29/29
f 29/29/29 32/32/32 31/31/31
f 29/29/29 33/33/33 32/32/32
f 29/29/29 34/34/34 33/33/33
f 29/29/29 35/35/35 34/34/34
f 29/29/29 36/36/36 35/35/35
f 39/39/39 38/38/38 37/37/37
f 40/40/40 39/39/39 37/37/37
