g Cylinder001_frag_050
v 0.0142343 -0.02011849 0.01208122
v 0.02143566 0.02225705 0.01208122
v 0.0245605 0.01492589 -0.01208122
v 0.0181034 -0.02307013 -0.01208122
v 0.0181034 -0.02307013 -0.01208122
v 0.0245605 0.01492589 -0.01208122
v 0.0009979726 0.03440369 -0.01208122
v 0.0005138474 -0.03767812 -0.01208122
v -0.01332856 0.02217969 -0.01208122
v -0.02456049 -0.02423776 -0.01208122
v 0.02143566 0.02225705 0.01208122
v 0.002780602 0.03767812 0.01208122
v 0.0009979726 0.03440369 -0.01208122
v 0.0245605 0.01492589 -0.01208122
v -0.009207848 0.02744906 0.01208122
v -0.01332856 0.02217969 -0.01208122
v 0.0009979726 0.03440369 -0.01208122
v 0.002780602 0.03767812 0.01208122
v -0.01332856 0.02217969 -0.01208122
v -0.009207848 0.02744906 0.01208122
v -0.02209401 -0.02580468 0.01208122
v -0.02456049 -0.02423776 -0.01208122
v 0.002780602 0.03767812 0.01208122
v 0.02143566 0.02225705 0.01208122
v 0.0142343 -0.02011849 0.01208122
v -0.004176724 -0.03540871 0.01208122
v -0.009207848 0.02744906 0.01208122
v -0.02209401 -0.02580468 0.01208122
v -0.004176724 -0.03540871 0.01208122
v 0.0005138474 -0.03767812 -0.01208122
v -0.02456049 -0.02423776 -0.01208122
v -0.02209401 -0.02580468 0.01208122
v 0.0142343 -0.02011849 0.01208122
v 0.0181034 -0.02307013 -0.01208122
v 0.0005138474 -0.03767812 -0.01208122
v -0.004176724 -0.03540871 0.01208122
vt 0.3037589 0.4558772
vt 0.2743303 0.4961581
vt 0.224692 0.506601
vt 0.2016642 0.460111
vt 0.2016642 0.460111
vt 0.224692 0.506601
vt 0.2375824 0.4382292
vt 0.2905242 0.2729257
vt 0.252687 0.3888795
vt 0.3357092 0.271154
vt 0.2743303 0.4961581
vt 0.2748681 0.4529989
vt 0.2375824 0.4382292
vt 0.224692 0.506601
vt 0.2858773 0.420005
vt 0.252687 0.3888795
vt 0.2375824 0.4382292
vt 0.2748681 0.4529989
vt 0.252687 0.3888795
vt 0.2858773 0.420005
vt 0.3741035 0.3257365
vt 0.3357092 0.271154
vt 0.2748681 0.4529989
vt 0.2743303 0.4961581
vt 0.3037589 0.4558772
vt 0.3731601 0.3501139
vt 0.2858773 0.420005
vt 0.3741035 0.3257365
vt 0.3731601 0.3501139
vt 0.2905242 0.2729257
vt 0.3357092 0.271154
vt 0.3741035 0.3257365
vt 0.3037589 0.4558772
vt 0.2016642 0.460111
vt 0.2905242 0.2729257
vt 0.3731601 0.3501139
vn 0.9705533 -0.1649371 0.1755617
vn 0.9705533 -0.1649372 0.1755617
vn 0.9705533 -0.1649372 0.1755617
vn 0.9705533 -0.1649372 0.1755617
vn 0 0 -1
vn 0 0 -1
vn 0 0 -1
vn 0 0 -1
vn 0 0 -1
vn 0 0 -1
vn 0.6299518 0.7620605 -0.1497483
vn 0.6299518 0.7620605 -0.1497483
vn 0.6299518 0.7620605 -0.1497483
vn 0.6299518 0.7620605 -0.1497483
vn -0.6480924 0.7595644 -0.05511991
vn -0.6480924 0.7595644 -0.05511992
vn -0.6480923 0.7595644 -0.05511991
vn -0.6480924 0.7595644 -0.05511991
vn -0.9656439 0.2336633 0.1137252
vn -0.9656439 0.2336633 0.1137252
vn -0.9656439 0.2336633 0.1137252
vn -0.9656439 0.2336633 0.1137252
vn 0 3.174619E-08 1
vn 0 3.174619E-08 1
vn 0 3.174619E-08 1
vn 0 3.174619E-08 1
vn 0 3.174619E-08 1
vn 0 3.174619E-08 1
vn -0.472412 -0.8813326 -0.008930385
vn -0.4724119 -0.8813327 -0.008930386
vn -0.4724119 -0.8813327 -0.008930386
vn -0.472412 -0.8813326 -0.008930385
vn 0.6269313 -0.7548909 0.1926056
vn 0.6269312 -0.7548909 0.1926056
vn 0.6269312 -0.7548909 0.1926056
vn 0.6269312 -0.7548909 0.1926056
g Cylinder001_frag_050_0
f 3/3/3 2/2/2 1/1/1
f 4/4/4 3/3/3 1/1/1
f 7/7/7 6/6/6 5/5/5
f 5/5/5 8/8/8 7/7/7
f 8/8/8 9/9/9 7/7/7
f 8/8/8 10/10/10 9/9/9
f 13/13/13 12/12/12 11/11/11
f 14/14/14 13/13/13 11/11/11
f 17/17/17 16/16/16 15/15/15
f 18/18/18 17/17/17 15/15/15
f 21/21/21 20/20/20 19/19/19
f 22/22/22 21/21/21 19/19/19
f 25/25/25 24/24/24 23/23/23
f 23/23/23 26/26/26 25/25/25
f 23/23/23 27/27/27 26/26/26
f 27/27/27 28/28/28 26/26/26
f 31/31/31 30/30/30 29/29/29
f 32/32/32 31/31/31 29/29/29
f 35/35/35 34/34/34 33/33/33
f 36/36/36 35/35/35 33/33/33
