g Hedra001
v 6.541254E-12 0.04787271 0.02958696
v -0.1720787 0.1743408 -0.1733338
v 0.2802517 0 0.1070466
v -0.2802517 0 0.1070466
v 0.1732051 0.1732051 -0.1732051
v 6.541254E-12 0.04787271 0.02958696
v -0.01113537 -0.1451882 0.4095751
v -0.1720787 0.1743408 -0.1733338
v 6.541254E-12 0.04787271 0.02958696
v 0.1732051 0.1732051 -0.1732051
v -0.01113537 -0.1451882 0.4095751
v -1.153835E-11 -0.04787271 0.02958696
v 0.1732051 -0.1732051 -0.1732051
v -0.2802517 0 0.1070466
v -1.249214E-11 0.1070466 0.2802517
v 0.2802517 0 0.1070466
v -1.153835E-11 -0.04787271 0.02958696
v -0.1411272 -0.1304366 -0.1521732
v -1.249214E-11 0.1070466 0.2802517
v -1.153835E-11 -0.04787271 0.02958696
v 0.2802517 0 0.1070466
v -0.1411272 -0.1304366 -0.1521732
v 0.02958696 -1.100186E-11 -0.04787271
v 0.1070466 0.2802517 7.887481E-12
v -0.1411272 -0.1304366 -0.1521732
v 0.1247965 -0.3972453 0.007171461
v -0.1720787 0.1743408 -0.1733338
v 0.2802517 0 0.1070466
v -0.04787271 0.02958696 -1.272521E-11
v -1.249214E-11 0.1070466 0.2802517
v -0.1411272 -0.1304366 -0.1521732
v -0.04787271 0.02958696 -1.272521E-11
v 0.001988445 0.07388688 -0.2105933
v -1.249214E-11 0.1070466 0.2802517
v -0.04787271 0.02958696 -1.272521E-11
v -0.1418963 -0.1609754 0.1615748
v 0.001988445 0.07388688 -0.2105933
v -0.04787271 0.02958696 -1.272521E-11
v 0.1070466 0.2802517 7.887481E-12
v -0.1418963 -0.1609754 0.1615748
v -0.04787271 0.02958696 -1.272521E-11
v -0.1411272 -0.1304366 -0.1521732
v 0.1070466 0.2802517 7.887481E-12
v 0.02958696 -1.812113E-11 0.04787271
v 0.3925362 -0.01843647 -0.1126995
v -0.1418963 -0.1609754 0.1615748
v 0.02958696 -1.812113E-11 0.04787271
v -0.2079487 0.2358149 0.2436637
v 0.3925362 -0.01843647 -0.1126995
v 0.02958696 -1.812113E-11 0.04787271
v 0.1247965 -0.3972453 0.007171461
v -0.2079487 0.2358149 0.2436637
v 0.02958696 -1.812113E-11 0.04787271
v 0.1070466 0.2802517 7.887481E-12
v 0.1247965 -0.3972453 0.007171461
v 0.02958696 -1.812113E-11 0.04787271
v -0.1418963 -0.1609754 0.1615748
v 0.1070466 0.2802517 7.887481E-12
v -1.243489E-11 -0.04787271 -0.02958696
v 0.001988445 0.07388688 -0.2105933
v -0.1418963 -0.1609754 0.1615748
v -1.243489E-11 -0.04787271 -0.02958696
v 0.1732051 -0.1732051 0.1732051
v 0.001988445 0.07388688 -0.2105933
v -0.3435254 -0.005385136 -0.1272404
v -1.243489E-11 -0.04787271 -0.02958696
v 0.3925362 -0.01843647 -0.1126995
v -0.3435254 -0.005385136 -0.1272404
v -1.243489E-11 -0.04787271 -0.02958696
v -0.1418963 -0.1609754 0.1615748
v 0.3925362 -0.01843647 -0.1126995
v 2.453866E-11 0.04787271 -0.02958696
v 0.2094988 0.2059237 0.2274793
v -0.3435254 -0.005385136 -0.1272404
v 0.3925362 -0.01843647 -0.1126995
v -0.2079487 0.2358149 0.2436637
v 2.453866E-11 0.04787271 -0.02958696
v -0.003350377 -0.1109743 -0.298176
v 0.2094988 0.2059237 0.2274793
v 2.453866E-11 0.04787271 -0.02958696
v -0.2079487 0.2358149 0.2436637
v -0.003350377 -0.1109743 -0.298176
v -0.02958696 2.476432E-12 0.04787271
v 0.1732051 -0.1732051 0.1732051
v -0.3435254 -0.005385136 -0.1272404
v -0.02958696 2.476432E-12 0.04787271
v -0.1243834 0.3396816 0.03149139
v 0.1732051 -0.1732051 0.1732051
v -0.02958696 2.476432E-12 0.04787271
v -0.1070466 -0.2802517 -6.409347E-11
v -0.1243834 0.3396816 0.03149139
v -0.02958696 2.476432E-12 0.04787271
v 0.2094988 0.2059237 0.2274793
v -0.1070466 -0.2802517 -6.409347E-11
v -0.02958696 2.476432E-12 0.04787271
v -0.3435254 -0.005385136 -0.1272404
v 0.2094988 0.2059237 0.2274793
v 0.04787271 -0.02958696 -4.382042E-12
v 0.1732051 0.1732051 -0.1732051
v -0.1070466 -0.2802517 -6.409347E-11
v -0.01113537 -0.1451882 0.4095751
v -0.003350377 -0.1109743 -0.298176
v -0.01113537 -0.1451882 0.4095751
v 0.04787271 -0.02958696 -4.382042E-12
v 0.2094988 0.2059237 0.2274793
v -0.003350377 -0.1109743 -0.298176
v 0.04787271 -0.02958696 -4.382042E-12
v -0.1070466 -0.2802517 -6.409347E-11
v 0.2094988 0.2059237 0.2274793
v -0.02958696 1.100184E-11 -0.04787271
v -0.1243834 0.3396816 0.03149139
v -0.1070466 -0.2802517 -6.409347E-11
v -0.02958696 1.100184E-11 -0.04787271
v 0.1732051 -0.1732051 -0.1732051
v -0.1243834 0.3396816 0.03149139
v -0.02958696 1.100184E-11 -0.04787271
v -0.2802517 0 0.1070466
v 0.1732051 -0.1732051 -0.1732051
v 0.1732051 0.1732051 -0.1732051
v -0.1070466 -0.2802517 -6.409347E-11
v 0.04787271 0.02958696 2.804271E-11
v 0.1732051 -0.1732051 0.1732051
v -0.1243834 0.3396816 0.03149139
v 0.001988445 0.07388688 -0.2105933
v 0.04787271 0.02958696 2.804271E-11
v -1.249214E-11 0.1070466 0.2802517
v 0.001988445 0.07388688 -0.2105933
v 0.04787271 0.02958696 2.804271E-11
v 0.1732051 -0.1732051 -0.1732051
v -1.249214E-11 0.1070466 0.2802517
v 0.04787271 0.02958696 2.804271E-11
v -0.1243834 0.3396816 0.03149139
v 0.1732051 -0.1732051 -0.1732051
v -0.04787271 -0.02958696 -5.865501E-12
v -0.1720787 0.1743408 -0.1733338
v -0.01113537 -0.1451882 0.4095751
v -0.04787271 -0.02958696 -5.865501E-12
v 0.1247965 -0.3972453 0.007171461
v -0.1720787 0.1743408 -0.1733338
v -0.04787271 -0.02958696 -5.865501E-12
v -0.2079487 0.2358149 0.2436637
v 0.1247965 -0.3972453 0.007171461
v -0.04787271 -0.02958696 -5.865501E-12
v -0.003350377 -0.1109743 -0.298176
v -0.2079487 0.2358149 0.2436637
v -0.04787271 -0.02958696 -5.865501E-12
v -0.01113537 -0.1451882 0.4095751
v -0.003350377 -0.1109743 -0.298176
vt 0.0527864 1.167032E-11
vt -0.309017 -0.309017
vt 0.190983 0.5
vt 0.190983 -0.5
vt -0.309017 0.309017
vt 0.0527864 1.167032E-11
vt 0.5 -9.441441E-11
vt -0.309017 -0.309017
vt 0.0527864 1.167032E-11
vt -0.309017 0.309017
vt 0.5 -9.441441E-11
vt 0.0527864 -2.058569E-11
vt -0.309017 0.309017
vt 0.190983 -0.5
vt 0.5 -2.228736E-11
vt 0.190983 0.5
vt 0.0527864 -2.058569E-11
vt -0.309017 -0.309017
vt 0.5 -2.228736E-11
vt 0.0527864 -2.058569E-11
vt 0.190983 0.5
vt -0.309017 -0.309017
vt 0.0527864 -1.962853E-11
vt 0.190983 0.5
vt -0.309017 -0.309017
vt 0.190983 -0.5
vt -0.309017 0.309017
vt 0.5 0
vt 0.0527864 -2.270318E-11
vt 0.190983 0.5
vt -0.309017 -0.309017
vt 0.0527864 -2.270318E-11
vt 0.190983 -0.5
vt 0.190983 0.5
vt 0.0527864 -2.270318E-11
vt -0.309017 0.309017
vt 0.190983 -0.5
vt 0.0527864 -2.270318E-11
vt 0.5 1.407214E-11
vt -0.309017 0.309017
vt 0.0527864 -2.270318E-11
vt -0.309017 -0.309017
vt 0.5 1.407214E-11
vt 0.0527864 -3.23301E-11
vt 0.5 -1.386921E-10
vt -0.309017 -0.309017
vt 0.0527864 -3.23301E-11
vt -0.309017 0.309017
vt 0.5 -1.386921E-10
vt 0.0527864 -3.23301E-11
vt 0.190983 -0.5
vt -0.309017 0.309017
vt 0.0527864 -3.23301E-11
vt 0.190983 0.5
vt 0.190983 -0.5
vt 0.0527864 -3.23301E-11
vt -0.309017 -0.309017
vt 0.190983 0.5
vt -0.0527864 -2.218522E-11
vt -0.5 2.28434E-10
vt 0.309017 -0.309017
vt -0.0527864 -2.218522E-11
vt 0.309017 0.309017
vt -0.5 2.28434E-10
vt -0.190983 -0.5
vt -0.0527864 -2.218522E-11
vt -0.190983 0.5
vt -0.190983 -0.5
vt -0.0527864 -2.218522E-11
vt 0.309017 -0.309017
vt -0.190983 0.5
vt -0.0527864 4.377967E-11
vt 0.309017 0.309017
vt -0.190983 -0.5
vt -0.190983 0.5
vt 0.309017 -0.309017
vt -0.0527864 4.377967E-11
vt -0.5 -5.884148E-11
vt 0.309017 0.309017
vt -0.0527864 4.377967E-11
vt 0.309017 -0.309017
vt -0.5 -5.884148E-11
vt -0.0527864 4.418229E-12
vt 0.309017 -0.309017
vt -0.5 1.445495E-10
vt -0.0527864 4.418229E-12
vt -0.190983 0.5
vt 0.309017 -0.309017
vt -0.0527864 4.418229E-12
vt -0.190983 -0.5
vt -0.190983 0.5
vt -0.0527864 4.418229E-12
vt 0.309017 0.309017
vt -0.190983 -0.5
vt -0.0527864 4.418229E-12
vt -0.5 1.445495E-10
vt 0.309017 0.309017
vt -0.0527864 -7.818046E-12
vt 0.309017 -0.309017
vt -0.5 -1.143498E-10
vt -0.190983 0.5
vt -0.190983 -0.5
vt -0.190983 0.5
vt -0.0527864 -7.818046E-12
vt 0.309017 0.309017
vt -0.190983 -0.5
vt -0.0527864 -7.818046E-12
vt -0.5 -1.143498E-10
vt 0.309017 0.309017
vt -0.0527864 1.96285E-11
vt -0.190983 0.5
vt -0.190983 -0.5
vt -0.0527864 1.96285E-11
vt 0.309017 -0.309017
vt -0.190983 0.5
vt -0.0527864 1.96285E-11
vt -0.5 0
vt 0.309017 -0.309017
vt 0.309017 0.309017
vt -0.190983 -0.5
vt 0.0527864 5.00313E-11
vt -0.309017 0.309017
vt 0.5 1.587158E-10
vt 0.190983 -0.5
vt 0.0527864 5.00313E-11
vt 0.190983 0.5
vt 0.190983 -0.5
vt 0.0527864 5.00313E-11
vt -0.309017 -0.309017
vt 0.190983 0.5
vt 0.0527864 5.00313E-11
vt 0.5 1.587158E-10
vt -0.309017 -0.309017
vt -0.0527864 -1.04647E-11
vt 0.309017 -0.309017
vt -0.190983 0.5
vt -0.0527864 -1.04647E-11
vt -0.5 3.539639E-12
vt 0.309017 -0.309017
vt -0.0527864 -1.04647E-11
vt 0.309017 0.309017
vt -0.5 3.539639E-12
vt -0.0527864 -1.04647E-11
vt -0.190983 -0.5
vt 0.309017 0.309017
vt -0.0527864 -1.04647E-11
vt -0.190983 0.5
vt -0.190983 -0.5
vn -0.001593443 0.8480613 0.5298958
vn -0.001593443 0.8480613 0.5298958
vn -0.001593443 0.8480613 0.5298958
vn 0 0.8506508 0.525731
vn 0 0.8506508 0.525731
vn 0.1160622 0.8841279 0.4526008
vn 0.1160622 0.8841278 0.4526008
vn 0.1160622 0.8841279 0.4526008
vn -0.1182125 0.886674 0.4470291
vn -0.1182125 0.886674 0.4470291
vn -0.1182124 0.886674 0.4470291
vn 0 -0.8506508 0.5257311
vn 0 -0.8506508 0.525731
vn 0 -0.8506508 0.5257311
vn 0 -0.8506509 0.525731
vn 0 -0.8506508 0.5257311
vn -0.1766195 -0.8372779 0.5174661
vn -0.1766195 -0.8372779 0.5174661
vn -0.1766195 -0.8372779 0.5174661
vn 0.05326485 -0.924103 0.3784129
vn 0.05326485 -0.924103 0.3784129
vn 0.05326485 -0.924103 0.3784129
vn 0.5201811 0.002115249 -0.8540534
vn 0.5201811 0.002115249 -0.8540534
vn 0.5201811 0.002115249 -0.8540534
vn 0.5141786 0.004392416 -0.8576719
vn 0.5351914 0.01123221 -0.8446561
vn 0.5257267 -0.004024808 -0.850644
vn -0.8686541 0.4952858 0.01149021
vn -0.8686541 0.4952859 0.01149021
vn -0.8686541 0.4952859 0.01149021
vn -0.7658742 0.6413121 -0.04642737
vn -0.7658743 0.6413121 -0.04642738
vn -0.7658743 0.6413121 -0.04642737
vn -0.9312683 0.3316984 -0.1507165
vn -0.9312683 0.3316984 -0.1507165
vn -0.9312683 0.3316984 -0.1507165
vn -0.8440779 0.5216687 0.1240734
vn -0.8440779 0.5216687 0.1240734
vn -0.8440779 0.5216687 0.1240734
vn -0.8502275 0.5254695 -0.03154283
vn -0.8502275 0.5254695 -0.03154283
vn -0.8502275 0.5254695 -0.03154283
vn 0.4049285 0.1989928 0.892432
vn 0.4049285 0.1989928 0.892432
vn 0.4049285 0.1989928 0.892432
vn 0.3640879 -0.3498985 0.8631402
vn 0.3640879 -0.3498985 0.8631402
vn 0.3640879 -0.3498985 0.8631402
vn 0.6852368 0.09018528 0.7227151
vn 0.6852368 0.09018528 0.7227151
vn 0.6852368 0.09018528 0.7227152
vn 0.4678678 0.02161018 0.8835342
vn 0.4678678 0.02161018 0.8835342
vn 0.4678678 0.02161018 0.8835342
vn 0.5615895 -0.01389998 0.8272992
vn 0.5615895 -0.01389998 0.8272992
vn 0.5615895 -0.01389998 0.8272992
vn -0.09149084 -0.8257941 -0.5565012
vn -0.09149084 -0.8257941 -0.5565012
vn -0.09149083 -0.8257941 -0.5565012
vn 0.05235924 -0.828868 -0.5569887
vn 0.05235924 -0.8288679 -0.5569887
vn 0.05235924 -0.828868 -0.5569887
vn 0.05679069 -0.8268603 -0.5595327
vn -0.009114146 -0.9282634 -0.3718118
vn -0.009114146 -0.9282634 -0.3718118
vn -0.009114146 -0.9282634 -0.3718118
vn -0.05027869 -0.8427545 -0.5359448
vn -0.05027869 -0.8427545 -0.5359448
vn -0.0502787 -0.8427545 -0.5359448
vn 0.02167888 0.8436913 -0.5363907
vn 0.02167888 0.8436913 -0.5363908
vn 0.02167888 0.8436913 -0.5363907
vn 0.02309983 0.8318278 -0.5545529
vn 0.02309983 0.8318278 -0.5545529
vn -0.02510876 0.8606024 -0.5086581
vn -0.02510876 0.8606024 -0.5086581
vn -0.02510876 0.8606024 -0.5086581
vn 0.1065767 0.8552511 -0.507136
vn 0.1065767 0.8552511 -0.507136
vn 0.1065767 0.8552511 -0.5071359
vn -0.4870396 0.0602425 0.8712998
vn -0.4870396 0.0602425 0.8712998
vn -0.4870396 0.0602425 0.8712997
vn -0.5987116 -0.1289621 0.7905145
vn -0.5987116 -0.128962 0.7905145
vn -0.5987116 -0.128962 0.7905145
vn -0.366246 -0.05742064 0.9287447
vn -0.366246 -0.05742064 0.9287447
vn -0.366246 -0.05742064 0.9287447
vn -0.6208208 0.03783165 0.783039
vn -0.6208208 0.03783165 0.783039
vn -0.6208209 0.03783166 0.783039
vn -0.4750617 -0.1965399 0.8577229
vn -0.4750617 -0.1965399 0.8577229
vn -0.4750617 -0.1965399 0.8577228
vn 0.8506508 -0.5257311 0
vn 0.8506508 -0.5257311 0
vn 0.8506508 -0.5257311 0
vn 0.8371272 -0.5459818 -0.03349549
vn 0.8690937 -0.4944394 -0.01434239
vn 0.8690937 -0.4944395 -0.01434239
vn 0.81655 -0.5770178 0.01722381
vn 0.81655 -0.5770178 0.01722381
vn 0.81655 -0.5770177 0.01722381
vn 0.8491186 -0.5247841 -0.05999435
vn 0.8491186 -0.5247841 -0.05999435
vn 0.8491186 -0.524784 -0.05999434
vn -0.5884567 0.02459618 -0.8081545
vn -0.5884567 0.02459618 -0.8081545
vn -0.5884567 0.02459618 -0.8081545
vn -0.4803559 0.07020912 -0.874259
vn -0.4803559 0.07020912 -0.874259
vn -0.4803559 0.07020912 -0.8742591
vn -0.525731 0 -0.8506509
vn -0.525731 0 -0.8506509
vn -0.525731 0 -0.8506508
vn -0.5257311 0 -0.8506508
vn -0.525731 0 -0.8506508
vn 0.8702944 0.489228 -0.05695278
vn 0.8702944 0.4892281 -0.05695279
vn 0.8702944 0.489228 -0.05695279
vn 0.880887 0.4638258 -0.09435919
vn 0.780823 0.6235363 -0.03896074
vn 0.7808229 0.6235363 -0.03896075
vn 0.7808229 0.6235364 -0.03896074
vn 0.8506508 0.5257311 0
vn 0.8506508 0.525731 0
vn 0.8506508 0.5257311 0
vn 0.8749821 0.4786638 0.07271355
vn 0.8749821 0.4786638 0.07271355
vn 0.8749821 0.4786638 0.07271356
vn -0.8156539 -0.5717744 -0.08822042
vn -0.8156539 -0.5717743 -0.08822042
vn -0.8156539 -0.5717744 -0.08822042
vn -0.8959743 -0.4178565 0.1504196
vn -0.8959743 -0.4178565 0.1504196
vn -0.8959743 -0.4178564 0.1504196
vn -0.8967773 -0.4236584 -0.1276874
vn -0.8967773 -0.4236584 -0.1276874
vn -0.8967773 -0.4236584 -0.1276874
vn -0.8490492 -0.5280289 0.01734949
vn -0.8490492 -0.5280289 0.01734949
vn -0.8490492 -0.5280289 0.01734949
vn -0.9181111 -0.3952456 -0.02920575
vn -0.9181111 -0.3952456 -0.02920575
vn -0.9181111 -0.3952457 -0.02920575
g Hedra001_0
f 3/3/3 2/2/2 1/1/1
f 4/4/4 3/3/3 1/1/1
f 5/5/5 4/4/4 1/1/1
f 8/8/8 7/7/7 6/6/6
f 11/11/11 10/10/10 9/9/9
f 14/14/14 13/13/13 12/12/12
f 13/13/13 15/15/15 12/12/12
f 16/16/16 14/14/14 12/12/12
f 19/19/19 18/18/18 17/17/17
f 22/22/22 21/21/21 20/20/20
f 25/25/25 24/24/24 23/23/23
f 24/24/24 26/26/26 23/23/23
f 26/26/26 27/27/27 23/23/23
f 27/27/27 28/28/28 23/23/23
f 28/28/28 25/25/25 23/23/23
f 31/31/31 30/30/30 29/29/29
f 34/34/34 33/33/33 32/32/32
f 37/37/37 36/36/36 35/35/35
f 40/40/40 39/39/39 38/38/38
f 43/43/43 42/42/42 41/41/41
f 46/46/46 45/45/45 44/44/44
f 49/49/49 48/48/48 47/47/47
f 52/52/52 51/51/51 50/50/50
f 55/55/55 54/54/54 53/53/53
f 58/58/58 57/57/57 56/56/56
f 61/61/61 60/60/60 59/59/59
f 64/64/64 63/63/63 62/62/62
f 63/63/63 65/65/65 62/62/62
f 68/68/68 67/67/67 66/66/66
f 71/71/71 70/70/70 69/69/69
f 74/74/74 73/73/73 72/72/72
f 75/75/75 74/74/74 72/72/72
f 76/76/76 75/75/75 72/72/72
f 79/79/79 78/78/78 77/77/77
f 82/82/82 81/81/81 80/80/80
f 85/85/85 84/84/84 83/83/83
f 88/88/88 87/87/87 86/86/86
f 91/91/91 90/90/90 89/89/89
f 94/94/94 93/93/93 92/92/92
f 97/97/97 96/96/96 95/95/95
f 100/100/100 99/99/99 98/98/98
f 99/99/99 101/101/101 98/98/98
f 103/103/103 102/102/102 98/98/98
f 106/106/106 105/105/105 104/104/104
f 109/109/109 108/108/108 107/107/107
f 112/112/112 111/111/111 110/110/110
f 115/115/115 114/114/114 113/113/113
f 118/118/118 117/117/117 116/116/116
f 117/117/117 119/119/119 116/116/116
f 119/119/119 120/120/120 116/116/116
f 123/123/123 122/122/122 121/121/121
f 122/122/122 124/124/124 121/121/121
f 127/127/127 126/126/126 125/125/125
f 130/130/130 129/129/129 128/128/128
f 133/133/133 132/132/132 131/131/131
f 136/136/136 135/135/135 134/134/134
f 139/139/139 138/138/138 137/137/137
f 142/142/142 141/141/141 140/140/140
f 145/145/145 144/144/144 143/143/143
f 148/148/148 147/147/147 146/146/146
