g k6-ray01
v -0.4115498 0.07367811 0.004288254
v -0.01117834 0.003081622 0.7547317
v -0.003199368 0.001675012 0.004288254
v -0.6968148 0.1239776 0.7547317
v 0.3985724 -0.1067359 0.004288254
v 0.005877438 -0.001513309 0.7547317
v -0.001948528 0.0005833626 0.004288254
v 0.6783684 -0.1817065 0.7547317
vt 1 0.01071613
vt 0 0.994642
vt 0 0.01071613
vt 1 0.994642
vt 1 0.01071613
vt 0 0.994642
vt 0 0.01071613
vt 1 0.994642
vn -0.1736479 -0.9848078 -3.977346E-07
vn -0.1736479 -0.9848078 -4.024242E-07
vn -0.1736479 -0.9848078 -3.887684E-07
vn -0.1736479 -0.9848078 -4.088723E-07
vn 0.2588189 0.9659259 -3.980522E-07
vn 0.2588188 0.9659259 -4.124456E-07
vn 0.2588189 0.9659259 -3.70533E-07
vn 0.2588188 0.9659259 -4.322362E-07
g k6-ray01_0
f 3/3/3 2/2/2 1/1/1
f 4/4/4 1/1/1 2/2/2
f 7/7/7 6/6/6 5/5/5
f 8/8/8 5/5/5 6/6/6
