g Kallen_Spark
v 1.1328 -0.3680687 -0.5768041
v 0.435959 -0.3167427 -0.2481775
v 1.419896E-07 2.126864E-07 1.3411E-09
v 0.5388753 9.536743E-08 -0.2481775
v 0.7001089 -0.9636168 -0.5768043
v 0.1665216 -0.5125002 -0.2481775
v 1.459942E-07 -1.191096 -0.5768042
v -0.1665214 -0.5125002 -0.2481775
v -0.7001084 -0.9636166 -0.5768042
v -0.435959 -0.3167425 -0.2481775
v -1.132799 -0.3680686 -0.5768042
v -0.5388752 9.536743E-08 -0.2481775
v -1.132799 0.368069 -0.5768042
v -0.435959 0.3167428 -0.2481775
v -0.7001083 0.9636168 -0.5768042
v -0.1665213 0.5125002 -0.2481775
v 9.995889E-08 1.191096 -0.5768042
v 0.1665214 0.5125002 -0.2481775
v 0.7001085 0.9636168 -0.5768042
v 0.435959 0.3167427 -0.2481775
v 1.132799 0.3680689 -0.5768041
vt 1 0.6545085
vt 0.6924253 0.6329627
vt 0.4999999 0.4999999
vt 0.7378509 0.4999999
vt 0.8090169 0.9045086
vt 0.5734999 0.7151382
vt 0.4999999 1
vt 0.4264999 0.7151381
vt 0.1909829 0.9045085
vt 0.3075743 0.6329627
vt 0 0.6545084
vt 0.2621487 0.4999999
vt 0 0.3454914
vt 0.3075743 0.3670372
vt 0.190983 0.09549141
vt 0.4264999 0.2848619
vt 0.4999999 0
vt 0.5734998 0.2848619
vt 0.8090167 0.09549147
vt 0.6924253 0.3670372
vt 0.9999996 0.3454914
vn 0.414515 -0.1346846 0.9000208
vn 0.3384334 -0.2458865 0.9082966
vn 0 0 1
vn 0.4183266 -1.852978E-07 0.9082966
vn 0.2561845 -0.3526078 0.9000207
vn 0.12927 -0.3978525 0.9082966
vn -1.107836E-07 -0.4358472 0.9000207
vn -0.1292701 -0.3978525 0.9082966
vn -0.2561843 -0.3526079 0.9000207
vn -0.3384334 -0.2458865 0.9082966
vn -0.4145151 -0.1346844 0.9000207
vn -0.4183267 0 0.9082966
vn -0.4145151 0.1346844 0.9000207
vn -0.3384333 0.2458866 0.9082966
vn -0.2561842 0.3526081 0.9000207
vn -0.12927 0.3978527 0.9082965
vn 0 0.4358473 0.9000207
vn 0.12927 0.3978526 0.9082965
vn 0.2561843 0.3526081 0.9000206
vn 0.3384334 0.2458866 0.9082966
vn 0.4145151 0.1346844 0.9000207
g Kallen_Spark_0
f 3/3/3 2/2/2 1/1/1
f 4/4/4 3/3/3 1/1/1
f 2/2/2 3/3/3 5/5/5
f 3/3/3 6/6/6 5/5/5
f 6/6/6 3/3/3 7/7/7
f 3/3/3 8/8/8 7/7/7
f 8/8/8 3/3/3 9/9/9
f 3/3/3 10/10/10 9/9/9
f 10/10/10 3/3/3 11/11/11
f 3/3/3 12/12/12 11/11/11
f 12/12/12 3/3/3 13/13/13
f 3/3/3 14/14/14 13/13/13
f 14/14/14 3/3/3 15/15/15
f 3/3/3 16/16/16 15/15/15
f 16/16/16 3/3/3 17/17/17
f 3/3/3 18/18/18 17/17/17
f 18/18/18 3/3/3 19/19/19
f 3/3/3 20/20/20 19/19/19
f 20/20/20 3/3/3 21/21/21
f 3/3/3 4/4/4 21/21/21
