g Kallen_Attack_01_Trail_2_Model
v 0.2689744 1.153362 1.250015
v 0.5260767 1.731332 1.360276
v 0.8007032 1.131369 -0.07534552
v 0.5436007 0.5533995 -0.1856064
v 0.8066755 1.10498 -0.1442994
v 0.5495731 0.5270106 -0.2545603
v 0.7987185 1.08295 -0.2141735
v 0.541616 0.5049809 -0.3244344
v 0.7771863 1.066269 -0.2818356
v 0.5200839 0.488299 -0.3920965
v 0.743023 1.055679 -0.3442814
v 0.4859206 0.4777095 -0.4545422
v 0.6977139 1.051653 -0.3987662
v 0.4406115 0.4736834 -0.5090271
v 0.6432137 1.05437 -0.4429212
v 0.3861113 0.4764007 -0.5531821
v 0.5818571 1.063716 -0.4748518
v 0.3247547 0.4857464 -0.5851127
v -0.6485052 0.6767802 -0.9705841
v -0.3914027 1.25475 -0.8603232
vt 0.9906964 1
vt 1 0
vt 0.546147 0
vt 0.4544398 1
vt 0.5202389 0
vt 0.4299567 1
vt 0.4942985 0
vt 0.4060296 1
vt 0.4683292 0
vt 0.3829409 1
vt 0.4423614 0
vt 0.3608159 1
vt 0.4164318 0
vt 0.3395844 1
vt 0.3906234 0
vt 0.3190517 1
vt 0.3650664 0
vt 0.2988967 1
vt 0 1
vt 0 0
vn 0.8328829 -0.4356229 0.3413777
vn 0.8328829 -0.4356229 0.3413778
vn 0.8338935 -0.4356046 0.3389251
vn 0.8360054 -0.4355559 0.3337453
vn 0.8883239 -0.4272661 0.1682982
vn 0.901508 -0.4205212 0.1022018
vn 0.9160519 -0.3978843 -0.05036987
vn 0.915278 -0.3838322 -0.1222259
vn 0.8967988 -0.3464271 -0.2752092
vn 0.8802637 -0.3257599 -0.3449873
vn 0.8273351 -0.2745423 -0.4900442
vn 0.7972984 -0.2498486 -0.5494461
vn 0.7113023 -0.1871634 -0.6775093
vn 0.6738724 -0.1622521 -0.7208122
vn 0.5591823 -0.09155318 -0.823974
vn 0.52207 -0.0700756 -0.850019
vn 0.3779468 0.008490434 -0.9257884
vn 0.3740799 0.010506 -0.9273369
vn 0.3703174 0.01246298 -0.9288217
vn 0.3703174 0.01246297 -0.9288217
g Kallen_Attack_01_Trail_2_Model_0
f 3/3/3 2/2/2 1/1/1
f 4/4/4 3/3/3 1/1/1
f 3/3/3 4/4/4 5/5/5
f 4/4/4 6/6/6 5/5/5
f 5/5/5 6/6/6 7/7/7
f 6/6/6 8/8/8 7/7/7
f 7/7/7 8/8/8 9/9/9
f 8/8/8 10/10/10 9/9/9
f 9/9/9 10/10/10 11/11/11
f 10/10/10 12/12/12 11/11/11
f 11/11/11 12/12/12 13/13/13
f 12/12/12 14/14/14 13/13/13
f 13/13/13 14/14/14 15/15/15
f 14/14/14 16/16/16 15/15/15
f 15/15/15 16/16/16 17/17/17
f 16/16/16 18/18/18 17/17/17
f 18/18/18 19/19/19 17/17/17
f 19/19/19 20/20/20 17/17/17
