g Kallen_Wave_02
v 0.7496099 -0.1593344 -0.05378754
v 0.953127 -0.2025932 -0.2678241
v 0.8901773 -0.3963323 -0.2678241
v 0.7001017 -0.3117052 -0.05378754
v 0.7883228 -0.5727497 -0.2678241
v 0.6199957 -0.450453 -0.05378754
v 0.6520146 -0.7241351 -0.2678241
v 0.5127927 -0.569514 -0.05378754
v 0.4872103 -0.8438724 -0.2678241
v 0.3831784 -0.6636842 -0.05378754
v 0.3011126 -0.9267284 -0.2678241
v 0.2368173 -0.7288483 -0.05378754
v 0.1018549 -0.9690822 -0.2678241
v 0.0801062 -0.7621583 -0.05378754
v -0.1018545 -0.9690822 -0.2678241
v -0.08010595 -0.7621583 -0.05378754
v -0.3011122 -0.9267284 -0.2678241
v -0.2368171 -0.7288483 -0.05378754
v -0.4872098 -0.8438725 -0.2678241
v -0.3831782 -0.6636842 -0.05378754
v -0.6520141 -0.7241352 -0.2678241
v -0.5127924 -0.569514 -0.05378754
v -0.788322 -0.5727497 -0.2678241
v -0.6199952 -0.450453 -0.05378754
v -0.8901768 -0.3963324 -0.2678241
v -0.7001013 -0.3117053 -0.05378754
v -0.9531264 -0.2025933 -0.2678241
v -0.7496096 -0.1593345 -0.05378754
v -0.9744196 -3.052014E-08 -0.2678241
v -0.7663563 -6.985921E-08 -0.05378754
v -0.9531264 0.2025932 -0.2678241
v -0.7496096 0.1593344 -0.05378754
v -0.8901768 0.3963322 -0.2678241
v -0.7001013 0.311705 -0.05378754
v -0.788322 0.5727496 -0.2678241
v -0.6199952 0.4504529 -0.05378754
v -0.6520141 0.7241349 -0.2678241
v -0.5127924 0.5695136 -0.05378754
v -0.4872099 0.8438721 -0.2678241
v -0.3831782 0.6636838 -0.05378754
v -0.3011122 0.9267284 -0.2678241
v -0.2368171 0.728848 -0.05378754
v -0.1018546 0.9690818 -0.2678241
v -0.08010609 0.762158 -0.05378754
v 0.1018546 0.9690818 -0.2678241
v 0.08010598 0.762158 -0.05378754
v 0.3011122 0.926728 -0.2678241
v 0.236817 0.7288479 -0.05378754
v 0.4872098 0.8438721 -0.2678241
v 0.383178 0.6636838 -0.05378754
v 0.6520138 0.7241348 -0.2678241
v 0.5127922 0.5695136 -0.05378754
v 0.7883218 0.5727494 -0.2678241
v 0.6199949 0.4504527 -0.05378754
v 0.8901766 0.3963322 -0.2678241
v 0.700101 0.311705 -0.05378754
v 0.9531261 0.2025932 -0.2678241
v 0.7496093 0.1593344 -0.05378754
v 0.9744192 5.650264E-08 -0.2678241
v 0.7663559 -1.31387E-09 -0.05378754
v 0.953127 -0.2025932 -0.2678241
v 0.7496099 -0.1593344 -0.05378754
vt -5.960464E-08 0
vt -5.960464E-08 1
vt 0.0333333 1
vt 0.0333333 0
vt 0.06666663 1
vt 0.06666663 0
vt 0.09999996 1
vt 0.09999996 0
vt 0.1333333 1
vt 0.1333333 0
vt 0.1666666 1
vt 0.1666666 0
vt 0.2 1
vt 0.2 0
vt 0.2333333 1
vt 0.2333333 0
vt 0.2666667 1
vt 0.2666667 0
vt 0.3 1
vt 0.3 0
vt 0.3333333 1
vt 0.3333333 0
vt 0.3666667 1
vt 0.3666667 0
vt 0.4 1
vt 0.4 0
vt 0.4333333 1
vt 0.4333333 0
vt 0.4666667 1
vt 0.4666667 0
vt 0.5 1
vt 0.5 0
vt 0.5333334 1
vt 0.5333334 0
vt 0.5666667 1
vt 0.5666667 0
vt 0.6 1
vt 0.6 0
vt 0.6333333 1
vt 0.6333333 0
vt 0.6666667 1
vt 0.6666667 0
vt 0.7 1
vt 0.7 0
vt 0.7333333 1
vt 0.7333333 0
vt 0.7666667 1
vt 0.7666667 0
vt 0.8 1
vt 0.8 0
vt 0.8333334 1
vt 0.8333334 0
vt 0.8666667 1
vt 0.8666667 0
vt 0.9 1
vt 0.9 0
vt 0.9333334 1
vt 0.9333334 0
vt 0.9666667 1
vt 0.9666667 0
vt 1 1
vt 1 0
vn 0.778763 -0.1655292 0.6050854
vn 0.7787629 -0.1655293 0.6050854
vn 0.7273289 -0.3238278 0.6050854
vn 0.7273288 -0.3238277 0.6050853
vn 0.6441075 -0.4679714 0.6050854
vn 0.6441074 -0.4679714 0.6050854
vn 0.5327353 -0.5916627 0.6050854
vn 0.5327354 -0.5916628 0.6050853
vn 0.3980805 -0.6894954 0.6050851
vn 0.3980805 -0.6894954 0.6050851
vn 0.2460276 -0.7571937 0.6050851
vn 0.2460276 -0.7571937 0.6050851
vn 0.08322173 -0.7917991 0.6050855
vn 0.08322172 -0.791799 0.6050855
vn -0.08322171 -0.7917991 0.6050854
vn -0.08322174 -0.7917991 0.6050854
vn -0.2460273 -0.7571939 0.6050851
vn -0.2460273 -0.7571939 0.6050851
vn -0.3980803 -0.6894956 0.605085
vn -0.3980803 -0.6894956 0.605085
vn -0.5327355 -0.5916629 0.605085
vn -0.5327356 -0.5916629 0.605085
vn -0.6441076 -0.4679716 0.6050851
vn -0.6441076 -0.4679716 0.6050851
vn -0.727329 -0.3238279 0.6050851
vn -0.727329 -0.3238279 0.6050851
vn -0.7787628 -0.1655308 0.6050851
vn -0.7787628 -0.1655308 0.6050851
vn -0.7961609 2.114488E-07 0.605085
vn -0.7961609 2.027192E-07 0.6050851
vn -0.7787627 0.165531 0.6050853
vn -0.7787627 0.165531 0.6050853
vn -0.7273287 0.323828 0.6050854
vn -0.7273288 0.3238281 0.6050854
vn -0.6441075 0.4679716 0.6050852
vn -0.6441076 0.4679716 0.6050853
vn -0.5327356 0.5916628 0.6050851
vn -0.5327356 0.5916628 0.605085
vn -0.3980805 0.6894954 0.6050851
vn -0.3980805 0.6894954 0.6050851
vn -0.2460272 0.7571937 0.6050853
vn -0.2460273 0.7571937 0.6050853
vn -0.08322141 0.7917991 0.6050854
vn -0.08322144 0.7917991 0.6050854
vn 0.08322187 0.7917991 0.6050854
vn 0.08322189 0.7917991 0.6050854
vn 0.2460275 0.7571938 0.6050851
vn 0.2460275 0.7571939 0.6050851
vn 0.3980803 0.6894954 0.6050853
vn 0.3980803 0.6894954 0.6050853
vn 0.5327356 0.5916626 0.6050852
vn 0.5327356 0.5916626 0.6050852
vn 0.6441076 0.4679716 0.6050851
vn 0.6441076 0.4679716 0.6050851
vn 0.727329 0.3238276 0.6050853
vn 0.727329 0.3238276 0.6050853
vn 0.7787628 0.1655309 0.6050851
vn 0.7787628 0.1655308 0.6050851
vn 0.7961609 1.940353E-06 0.6050849
vn 0.796161 2.065443E-06 0.6050848
vn 0.7787629 -0.1655293 0.6050854
vn 0.778763 -0.1655292 0.6050854
g Kallen_Wave_02_0
f 3/3/3 2/2/2 1/1/1
f 4/4/4 3/3/3 1/1/1
f 5/5/5 3/3/3 4/4/4
f 6/6/6 5/5/5 4/4/4
f 7/7/7 5/5/5 6/6/6
f 8/8/8 7/7/7 6/6/6
f 9/9/9 7/7/7 8/8/8
f 10/10/10 9/9/9 8/8/8
f 11/11/11 9/9/9 10/10/10
f 12/12/12 11/11/11 10/10/10
f 13/13/13 11/11/11 12/12/12
f 14/14/14 13/13/13 12/12/12
f 15/15/15 13/13/13 14/14/14
f 16/16/16 15/15/15 14/14/14
f 17/17/17 15/15/15 16/16/16
f 18/18/18 17/17/17 16/16/16
f 19/19/19 17/17/17 18/18/18
f 20/20/20 19/19/19 18/18/18
f 21/21/21 19/19/19 20/20/20
f 22/22/22 21/21/21 20/20/20
f 23/23/23 21/21/21 22/22/22
f 24/24/24 23/23/23 22/22/22
f 25/25/25 23/23/23 24/24/24
f 26/26/26 25/25/25 24/24/24
f 27/27/27 25/25/25 26/26/26
f 28/28/28 27/27/27 26/26/26
f 29/29/29 27/27/27 28/28/28
f 30/30/30 29/29/29 28/28/28
f 31/31/31 29/29/29 30/30/30
f 32/32/32 31/31/31 30/30/30
f 33/33/33 31/31/31 32/32/32
f 34/34/34 33/33/33 32/32/32
f 35/35/35 33/33/33 34/34/34
f 36/36/36 35/35/35 34/34/34
f 37/37/37 35/35/35 36/36/36
f 38/38/38 37/37/37 36/36/36
f 39/39/39 37/37/37 38/38/38
f 40/40/40 39/39/39 38/38/38
f 41/41/41 39/39/39 40/40/40
f 42/42/42 41/41/41 40/40/40
f 43/43/43 41/41/41 42/42/42
f 44/44/44 43/43/43 42/42/42
f 45/45/45 43/43/43 44/44/44
f 46/46/46 45/45/45 44/44/44
f 47/47/47 45/45/45 46/46/46
f 48/48/48 47/47/47 46/46/46
f 49/49/49 47/47/47 48/48/48
f 50/50/50 49/49/49 48/48/48
f 51/51/51 49/49/49 50/50/50
f 52/52/52 51/51/51 50/50/50
f 53/53/53 51/51/51 52/52/52
f 54/54/54 53/53/53 52/52/52
f 55/55/55 53/53/53 54/54/54
f 56/56/56 55/55/55 54/54/54
f 57/57/57 55/55/55 56/56/56
f 58/58/58 57/57/57 56/56/56
f 59/59/59 57/57/57 58/58/58
f 60/60/60 59/59/59 58/58/58
f 61/61/61 59/59/59 60/60/60
f 62/62/62 61/61/61 60/60/60
