g kallen_C3_Ultra_Missle
v 0.02973274 0.2093252 -0.02973274
v 0.02973274 0.2093252 0.02973274
v 7.978427E-10 0.2093252 0.04204845
v 7.978427E-10 0.2093252 -0.04204845
v 0.04204845 0.2093252 5.16744E-10
v -0.02973274 0.2093252 0.02973274
v -0.02973274 0.2093252 -0.02973274
v -0.04204844 0.2093252 5.16744E-10
v 0.05442668 0.1939373 0
v 0.03848547 0.1939373 0.03848547
v 0.02973274 0.2093252 0.02973274
v 0.04204845 0.2093252 5.16744E-10
v 0.03848547 0.0001914666 -0.03848547
v 0.05442668 0.0001914666 0
v 0.05442668 0.1939373 0
v 0.03848547 0.1939373 -0.03848547
v 0 0.0001914666 -0.05442668
v 0 0.1939373 -0.05442668
v -0.03848547 0.0001914666 -0.03848547
v -0.03848547 0.1939373 -0.03848547
v -0.05442668 0.0001914666 0
v -0.05442668 0.1939373 0
v 0.03848547 0.0001914666 0.03848547
v 0.03848547 0.1939373 0.03848547
v 0.05442668 0.1939373 0
v 0.05442668 0.0001914666 0
v 0 0.1939373 0.05442668
v 0 0.0001914666 0.05442668
v -0.03848547 0.1939373 0.03848547
v -0.03848547 0.0001914666 0.03848547
v -0.05442668 0.0001914666 0
v -0.05442668 0.1939373 0
v 0.05442668 0.1939373 0
v 0.04204845 0.2093252 5.16744E-10
v 0.02973274 0.2093252 -0.02973274
v 0.03848547 0.1939373 -0.03848547
v 7.978427E-10 0.2093252 0.04204845
v 0.02973274 0.2093252 0.02973274
v 0.03848547 0.1939373 0.03848547
v 0 0.1939373 0.05442668
v 0.03848547 0.0001914666 0.03848547
v 0.03848547 0.0001914666 -0.03848547
v 0 0.0001914666 -0.05442668
v 0 0.0001914666 0.05442668
v 0.05442668 0.0001914666 0
v -0.03848547 0.0001914666 -0.03848547
v -0.03848547 0.0001914666 0.03848547
v -0.05442668 0.0001914666 0
v 0.02973274 0.2093252 -0.02973274
v 7.978427E-10 0.2093252 -0.04204845
v 0 0.1939373 -0.05442668
v 0.03848547 0.1939373 -0.03848547
v -0.05442668 0.1939373 0
v -0.03848547 0.1939373 -0.03848547
v -0.02973274 0.2093252 -0.02973274
v -0.04204844 0.2093252 5.16744E-10
v -0.04204844 0.2093252 5.16744E-10
v -0.02973274 0.2093252 0.02973274
v -0.03848547 0.1939373 0.03848547
v -0.05442668 0.1939373 0
v -0.03848547 0.1939373 -0.03848547
v 0 0.1939373 -0.05442668
v 7.978427E-10 0.2093252 -0.04204845
v -0.02973274 0.2093252 -0.02973274
v 0 0.1939373 0.05442668
v -0.03848547 0.1939373 0.03848547
v -0.02973274 0.2093252 0.02973274
v 7.978427E-10 0.2093252 0.04204845
vt 0.9344622 0.72323
vt 0.9344622 0.4582954
vt 0.8019949 0.4034257
vt 0.8019949 0.7780998
vt 0.989332 0.5907627
vt 0.6695275 0.4582954
vt 0.6695275 0.72323
vt 0.6146579 0.5907627
vt 0.0385834 0.9841716
vt 0.2375737 0.9841716
vt 0.2375737 0.8216567
vt 0.0385834 0.8216567
vt 0.2447201 0.0159991
vt 0.126457 0.01599914
vt 0.126457 0.6562958
vt 0.2447204 0.6562958
vt 0.3629838 0.01599906
vt 0.3629838 0.6562958
vt 0.4812472 0.01599906
vt 0.4812472 0.6562958
vt 0.5999576 0.01599906
vt 0.5999576 0.6562958
vt 0.4816608 0.01599906
vt 0.4816608 0.6562958
vt 0.5999576 0.6562958
vt 0.5999576 0.01599905
vt 0.3633975 0.6562958
vt 0.3633975 0.01599906
vt 0.2449272 0.6562958
vt 0.2449272 0.01599906
vt 0.126457 0.01599905
vt 0.126457 0.6562958
vt 0.03858352 0.9841716
vt 0.03858352 0.8216567
vt 0.2375738 0.8216567
vt 0.2375738 0.9841716
vt 0.4365638 0.8216567
vt 0.2375737 0.8216567
vt 0.2375737 0.9841716
vt 0.4365638 0.9841716
vt 0.9344621 0.3337725
vt 0.9344621 0.0688379
vt 0.8019949 0.01396815
vt 0.8019949 0.3886423
vt 0.9893318 0.2013052
vt 0.6695275 0.0688379
vt 0.6695275 0.3337725
vt 0.6146578 0.2013052
vt 0.2375738 0.8216567
vt 0.4365638 0.8216567
vt 0.4365638 0.9841716
vt 0.2375738 0.9841716
vt 0.8345441 0.9841716
vt 0.6355539 0.9841716
vt 0.6355539 0.8216567
vt 0.8345441 0.8216567
vt 0.8345441 0.8216567
vt 0.635554 0.8216567
vt 0.635554 0.9841716
vt 0.8345441 0.9841716
vt 0.6355539 0.9841716
vt 0.4365638 0.9841716
vt 0.4365638 0.8216567
vt 0.6355539 0.8216567
vt 0.4365638 0.9841716
vt 0.635554 0.9841716
vt 0.635554 0.8216567
vt 0.4365638 0.8216567
vn 0 1 0
vn 0 1 0
vn 0 1 0
vn 0 1 0
vn 0 1 0
vn 0 1 0
vn 0 1 0
vn 0 1 0
vn 0.7791891 0.6267889 -1.465242E-07
vn 0.5509698 0.6267889 0.5509701
vn 0.5509698 0.6267888 0.55097
vn 0.7791891 0.6267889 -1.171335E-07
vn 0.7071068 0 -0.7071068
vn 1 0 0
vn 1 0 0
vn 0.7071068 0 -0.7071068
vn 0 0 -1
vn 0 0 -1
vn -0.7071068 0 -0.7071068
vn -0.7071068 0 -0.7071068
vn -1 0 0
vn -1 0 0
vn 0.7071068 0 0.7071068
vn 0.7071068 0 0.7071068
vn 1 0 0
vn 1 0 0
vn 0 0 1
vn 0 0 1
vn -0.7071068 0 0.7071068
vn -0.7071068 0 0.7071068
vn -1 0 0
vn -1 0 0
vn 0.7791891 0.6267889 -1.465242E-07
vn 0.7791891 0.6267889 -1.171335E-07
vn 0.5509698 0.6267887 -0.5509701
vn 0.5509698 0.6267887 -0.5509701
vn 0 0.6267887 0.7791893
vn 0.5509698 0.6267888 0.55097
vn 0.5509698 0.6267889 0.5509701
vn 0 0.6267887 0.7791893
vn 0 -1 0
vn 0 -1 0
vn 0 -1 0
vn 0 -1 0
vn 0 -1 0
vn 0 -1 0
vn 0 -1 0
vn 0 -1 0
vn 0.5509698 0.6267887 -0.5509701
vn 0 0.6267887 -0.7791892
vn 0 0.6267887 -0.7791893
vn 0.5509698 0.6267887 -0.5509701
vn -0.7742803 0.6228405 0.1120696
vn -0.4854181 0.6242696 -0.6120921
vn -0.4785704 0.6237352 -0.6180006
vn -0.7729986 0.6218092 0.125803
vn -0.7729986 0.6218092 0.125803
vn -0.5509699 0.626789 0.5509699
vn -0.5509698 0.626789 0.55097
vn -0.7742803 0.6228405 0.1120696
vn -0.4854181 0.6242696 -0.6120921
vn 0 0.6267887 -0.7791893
vn 0 0.6267887 -0.7791892
vn -0.4785704 0.6237352 -0.6180006
vn 0 0.6267887 0.7791893
vn -0.5509698 0.626789 0.55097
vn -0.5509699 0.626789 0.5509699
vn 0 0.6267887 0.7791893
g kallen_C3_Ultra_Missle_0
f 3/3/3 2/2/2 1/1/1
f 4/4/4 3/3/3 1/1/1
f 2/2/2 5/5/5 1/1/1
f 6/6/6 3/3/3 4/4/4
f 7/7/7 6/6/6 4/4/4
f 7/7/7 8/8/8 6/6/6
f 11/11/11 10/10/10 9/9/9
f 12/12/12 11/11/11 9/9/9
f 15/15/15 14/14/14 13/13/13
f 16/16/16 15/15/15 13/13/13
f 13/13/13 17/17/17 16/16/16
f 17/17/17 18/18/18 16/16/16
f 18/18/18 17/17/17 19/19/19
f 20/20/20 18/18/18 19/19/19
f 19/19/19 21/21/21 20/20/20
f 21/21/21 22/22/22 20/20/20
f 25/25/25 24/24/24 23/23/23
f 26/26/26 25/25/25 23/23/23
f 23/23/23 24/24/24 27/27/27
f 28/28/28 23/23/23 27/27/27
f 27/27/27 29/29/29 28/28/28
f 29/29/29 30/30/30 28/28/28
f 30/30/30 29/29/29 31/31/31
f 29/29/29 32/32/32 31/31/31
f 35/35/35 34/34/34 33/33/33
f 36/36/36 35/35/35 33/33/33
f 39/39/39 38/38/38 37/37/37
f 40/40/40 39/39/39 37/37/37
f 43/43/43 42/42/42 41/41/41
f 44/44/44 43/43/43 41/41/41
f 42/42/42 45/45/45 41/41/41
f 46/46/46 43/43/43 44/44/44
f 47/47/47 46/46/46 44/44/44
f 47/47/47 48/48/48 46/46/46
f 51/51/51 50/50/50 49/49/49
f 52/52/52 51/51/51 49/49/49
f 55/55/55 54/54/54 53/53/53
f 56/56/56 55/55/55 53/53/53
f 59/59/59 58/58/58 57/57/57
f 60/60/60 59/59/59 57/57/57
f 63/63/63 62/62/62 61/61/61
f 64/64/64 63/63/63 61/61/61
f 67/67/67 66/66/66 65/65/65
f 68/68/68 67/67/67 65/65/65
