g Kallen_Attack_02_Trail_2_Model
v 0.6940955 1.230418 -0.3406
v -0.4152818 1.622551 -0.5773084
v -0.5267427 1.02874 -0.6875693
v 0.5826355 0.6366071 -0.4508607
v 0.6584575 0.6033865 -0.4199384
v 0.7699175 1.197197 -0.3096774
v 0.7161264 0.5645002 -0.3651399
v 0.8275865 1.158311 -0.254879
v 0.7488518 0.5245221 -0.2929065
v 0.8603118 1.118333 -0.1826456
v 0.7527831 0.4881414 -0.2117032
v 0.864243 1.081952 -0.1014424
v 0.7274523 0.4596129 -0.1310226
v 0.8389122 1.053424 -0.02076172
v -0.117162 -0.04382459 1.530684
v -0.005702286 0.5499862 1.640945
vt 0.2449789 0
vt 0 0
vt 0.004881993 1
vt 0.1842699 1
vt 0.2470805 1
vt 0.2834343 0
vt 0.3057905 1
vt 0.3249865 0
vt 0.3602407 1
vt 0.3709226 0
vt 0.4110394 1
vt 0.4204441 0
vt 0.4581011 1
vt 0.4742695 0
vt 0.9999999 1
vt 1 0
vn 0.2604592 0.1287834 -0.9568573
vn 0.3703174 0.01246297 -0.9288217
vn 0.3703174 0.01246298 -0.9288217
vn 0.2638793 0.1279872 -0.9560267
vn 0.5734446 0.04426087 -0.8180478
vn 0.5424359 0.0538546 -0.8383692
vn 0.8154299 -0.0459131 -0.5770321
vn 0.7883441 -0.03390907 -0.6142994
vn 0.9554846 -0.1301844 -0.2647662
vn 0.9424174 -0.118848 -0.3126094
vn 0.9774014 -0.19747 0.07544605
vn 0.9814515 -0.1895501 0.02869926
vn 0.8954524 -0.2379387 0.3762313
vn 0.8968709 -0.2376133 0.3730449
vn 0.8328829 -0.435623 0.3413777
vn 0.8328829 -0.4356229 0.3413777
g Kallen_Attack_02_Trail_2_Model_0
f 3/3/3 2/2/2 1/1/1
f 4/4/4 3/3/3 1/1/1
f 5/5/5 4/4/4 1/1/1
f 6/6/6 5/5/5 1/1/1
f 7/7/7 5/5/5 6/6/6
f 8/8/8 7/7/7 6/6/6
f 9/9/9 7/7/7 8/8/8
f 10/10/10 9/9/9 8/8/8
f 11/11/11 9/9/9 10/10/10
f 12/12/12 11/11/11 10/10/10
f 13/13/13 11/11/11 12/12/12
f 14/14/14 13/13/13 12/12/12
f 13/13/13 14/14/14 15/15/15
f 14/14/14 16/16/16 15/15/15
