g laser_inner
v 0.146979 0.146979 27.52114
v 1.665334E-17 3.048522E-16 27.93329
v 0 0.2078598 27.52114
v -0.146979 0.146979 27.52114
v -0.2078597 2.309686E-16 27.52114
v -0.146979 -0.146979 27.52114
v 8.940696E-09 -0.2078598 27.52114
v 0.146979 -0.146979 27.52114
v 0.2078597 -1.341104E-08 27.52114
v 0.3470302 0.3470302 25.81602
v 0 0.4907748 25.81602
v 0.424264 0.424264 23.25735
v 0 0.5999999 23.25735
v -0.3470302 0.3470302 25.81602
v -0.424264 0.424264 23.25735
v -0.4907748 1.918821E-16 25.81602
v -0.5999999 1.332268E-16 23.25735
v -0.3470302 -0.3470302 25.81602
v -0.424264 -0.424264 23.25735
v 0 -0.4907748 25.81602
v 0 -0.6 23.25735
v 0.3470302 -0.3470302 25.81602
v 0.4242641 -0.4242641 23.25735
v 0.4907748 -2.235174E-09 25.81602
v 0.6 1.332268E-16 23.25735
v 0.146979 0.146979 0.5296764
v 0 0.2078598 0.5296764
v 7.71644E-18 -1.680383E-16 1.430511E-07
v -0.146979 0.146979 0.5296764
v -0.2078597 -2.400164E-16 0.5296764
v -0.146979 -0.146979 0.5296764
v 8.940696E-09 -0.2078598 0.5296764
v 0.146979 -0.146979 0.5296764
v 0.2078597 -1.341104E-08 0.5296764
v -0.2678766 0.2678766 1.159157
v -0.3788347 -2.551738E-16 1.159157
v -0.3470302 0.3470302 1.803112
v -4.367212E-18 0.4907748 1.803112
v -4.281398E-18 0.3788347 1.159157
v 0.3470302 0.3470302 1.803112
v 0.2678766 0.2678766 1.159157
v -0.4907748 -2.323668E-16 1.803112
v -0.2678766 -0.2678766 1.159157
v -0.3470302 -0.3470302 1.803112
v 6.40088E-09 -0.3788347 1.159157
v 2.590882E-18 -0.4907748 1.803112
v 0.2678766 -0.2678766 1.159157
v 0.3470302 -0.3470302 1.803112
v 0.3788347 -1.084517E-08 1.159157
v 0.4907748 -2.235174E-09 1.803112
v 0.5755748 7.489298E-11 2.593295
v 0.4069928 0.4069928 2.593295
v 0.6 -1.457168E-16 3.390103
v 0.4242641 -0.4242641 3.390103
v 0.4069929 -0.4069929 2.593295
v 8.326672E-18 -0.6 3.390103
v -9.539841E-10 -0.5755748 2.593295
v -0.424264 -0.424264 3.390103
v -0.4069928 -0.4069928 2.593295
v -0.5999999 -1.665335E-16 3.390103
v -0.5755748 -2.00734E-16 2.593295
v -0.424264 0.424264 3.390103
v -0.4069928 0.4069928 2.593295
v 4.163334E-18 0.5999999 3.390103
v -5.387576E-19 0.5755748 2.593295
v 0.424264 0.424264 3.390103
v -0.424264 0.424264 23.25735
v -0.5999999 1.332268E-16 23.25735
v -0.5999999 -1.665335E-16 3.390103
v -0.424264 0.424264 3.390103
v 0 0.5999999 23.25735
v 4.163334E-18 0.5999999 3.390103
v 0.424264 0.424264 23.25735
v 0.424264 0.424264 3.390103
v -0.424264 -0.424264 3.390103
v -0.424264 -0.424264 23.25735
v 8.326672E-18 -0.6 3.390103
v 0 -0.6 23.25735
v 0.4242641 -0.4242641 3.390103
v 0.4242641 -0.4242641 23.25735
v 0.6 -1.457168E-16 3.390103
v 0.6 1.332268E-16 23.25735
v 0.424264 0.424264 3.390103
v 0.424264 0.424264 23.25735
vt 0.6104854 0.9542354
vt 0.5 0.8375
vt 0.5 1
vt 0.3895146 0.9542354
vt 0.34375 0.84375
vt 0.3895146 0.7332646
vt 0.5 0.6875
vt 0.6104854 0.7332646
vt 0.65625 0.84375
vt 0.6104854 0.9542354
vt 0.5 1
vt 0.6104854 0.9542354
vt 0.5 1
vt 0.3895146 0.9542354
vt 0.3895146 0.9542354
vt 0.34375 0.84375
vt 0.34375 0.84375
vt 0.3895146 0.7332646
vt 0.3895146 0.7332646
vt 0.5 0.6875
vt 0.5 0.6875
vt 0.6104854 0.7332646
vt 0.6104854 0.7332646
vt 0.65625 0.84375
vt 0.65625 0.84375
vt 0.6104854 0.9542354
vt 0.5 1
vt 0.5 0.8375
vt 0.3895146 0.9542354
vt 0.34375 0.84375
vt 0.3895146 0.7332646
vt 0.5 0.6875
vt 0.6104854 0.7332646
vt 0.65625 0.84375
vt 0.3895146 0.9542354
vt 0.34375 0.84375
vt 0.3895146 0.9542354
vt 0.5 1
vt 0.5 1
vt 0.6104854 0.9542354
vt 0.6104854 0.9542354
vt 0.34375 0.84375
vt 0.3895146 0.7332646
vt 0.3895146 0.7332646
vt 0.5 0.6875
vt 0.5 0.6875
vt 0.6104854 0.7332646
vt 0.6104854 0.7332646
vt 0.65625 0.84375
vt 0.65625 0.84375
vt 0.65625 0.84375
vt 0.6104854 0.9542354
vt 0.65625 0.84375
vt 0.6104854 0.7332646
vt 0.6104854 0.7332646
vt 0.5 0.6875
vt 0.5 0.6875
vt 0.3895146 0.7332646
vt 0.3895146 0.7332646
vt 0.34375 0.84375
vt 0.34375 0.84375
vt 0.3895146 0.9542354
vt 0.3895146 0.9542354
vt 0.5 1
vt 0.5 1
vt 0.6104854 0.9542354
vt 0.4375 0.6884398
vt 0.46875 0.6884398
vt 0.46875 0.6884398
vt 0.4375 0.6884398
vt 0.40625 0.6884398
vt 0.40625 0.6884398
vt 0.375 0.6884398
vt 0.375 0.6884398
vt 0.5 0.6884398
vt 0.5 0.6884398
vt 0.53125 0.6884398
vt 0.53125 0.6884398
vt 0.5625 0.6884398
vt 0.5625 0.6884398
vt 0.59375 0.6884398
vt 0.59375 0.6884398
vt 0.625 0.6884398
vt 0.625 0.6884398
vn 0.6952418 0.6952416 0.1824225
vn 2.523376E-07 -7.389887E-07 1
vn -6.409408E-07 0.9832203 0.1824224
vn -0.6952422 0.6952413 0.1824223
vn -0.9832203 0 0.1824225
vn -0.6952417 -0.6952417 0.1824224
vn 2.958189E-07 -0.9832203 0.1824224
vn 0.6952417 -0.6952417 0.1824225
vn 0.9832202 0 0.1824226
vn 0.704952 0.7049519 0.07800882
vn -1.769146E-07 0.9969527 0.07800879
vn 0.7070999 0.7070999 0.004431928
vn 0 0.9999902 0.004431927
vn -0.7049521 0.7049519 0.07800879
vn -0.7070999 0.7070999 0.004431928
vn -0.9969527 0 0.07800882
vn -0.9999902 0 0.004431928
vn -0.704952 -0.704952 0.07800881
vn -0.7070999 -0.7070999 0.004431927
vn 3.261863E-07 -0.9969527 0.07800879
vn 0 -0.9999902 0.004431928
vn 0.7049521 -0.7049518 0.07800881
vn 0.7070999 -0.7070999 0.00443193
vn 0.9969527 0 0.07800887
vn 0.9999902 0 0.004431929
vn 0.6779954 0.677995 -0.2839808
vn 0 0.95883 -0.2839808
vn 4.006132E-07 1.669222E-07 -1
vn -0.6779953 0.6779951 -0.2839808
vn -0.95883 0 -0.2839807
vn -0.6779952 -0.6779951 -0.2839807
vn 0 -0.95883 -0.2839808
vn 0.6779953 -0.6779951 -0.2839808
vn 0.95883 -1.068293E-07 -0.2839807
vn -0.6919826 0.6919826 -0.2057186
vn -0.9786112 0 -0.2057186
vn -0.7009536 0.7009537 -0.1316356
vn 0 0.9912982 -0.1316356
vn 0 0.9786112 -0.2057186
vn 0.7009537 0.7009537 -0.1316356
vn 0.6919827 0.6919825 -0.2057186
vn -0.9912982 0 -0.1316356
vn -0.6919826 -0.6919826 -0.2057186
vn -0.7009537 -0.7009536 -0.1316356
vn 0 -0.9786112 -0.2057186
vn 0 -0.9912982 -0.1316356
vn 0.6919826 -0.6919826 -0.2057187
vn 0.7009537 -0.7009536 -0.1316356
vn 0.9786112 0 -0.2057186
vn 0.9912982 0 -0.1316356
vn 0.9978085 0 -0.06616786
vn 0.7055572 0.7055572 -0.06616785
vn 0.9999993 0 -0.001150536
vn 0.7071063 -0.7071064 -0.001150537
vn 0.7055573 -0.7055571 -0.06616788
vn 0 -0.9999993 -0.001150536
vn 0 -0.9978085 -0.06616786
vn -0.7071063 -0.7071063 -0.001150536
vn -0.7055572 -0.7055571 -0.06616785
vn -0.9999993 0 -0.001150536
vn -0.9978085 0 -0.06616785
vn -0.7071063 0.7071063 -0.001150536
vn -0.7055572 0.7055571 -0.06616784
vn 0 0.9999993 -0.001150535
vn 0 0.9978085 -0.06616784
vn 0.7071063 0.7071064 -0.001150536
vn -0.7070999 0.7070999 0.004431928
vn -0.9999902 0 0.004431928
vn -0.9999993 0 -0.001150536
vn -0.7071063 0.7071063 -0.001150536
vn 0 0.9999902 0.004431927
vn 0 0.9999993 -0.001150535
vn 0.7070999 0.7070999 0.004431928
vn 0.7071063 0.7071064 -0.001150536
vn -0.7071063 -0.7071063 -0.001150536
vn -0.7070999 -0.7070999 0.004431927
vn 0 -0.9999993 -0.001150536
vn 0 -0.9999902 0.004431928
vn 0.7071063 -0.7071064 -0.001150537
vn 0.7070999 -0.7070999 0.00443193
vn 0.9999993 0 -0.001150536
vn 0.9999902 0 0.004431929
vn 0.7071063 0.7071064 -0.001150536
vn 0.7070999 0.7070999 0.004431928
g laser_inner_0
f 3/3/3 2/2/2 1/1/1
f 4/4/4 2/2/2 3/3/3
f 5/5/5 2/2/2 4/4/4
f 6/6/6 2/2/2 5/5/5
f 7/7/7 2/2/2 6/6/6
f 8/8/8 2/2/2 7/7/7
f 9/9/9 2/2/2 8/8/8
f 1/1/1 2/2/2 9/9/9
f 3/3/3 1/1/1 10/10/10
f 11/11/11 3/3/3 10/10/10
f 4/4/4 3/3/3 11/11/11
f 11/11/11 10/10/10 12/12/12
f 13/13/13 11/11/11 12/12/12
f 14/14/14 11/11/11 13/13/13
f 14/14/14 4/4/4 11/11/11
f 5/5/5 4/4/4 14/14/14
f 15/15/15 14/14/14 13/13/13
f 16/16/16 14/14/14 15/15/15
f 16/16/16 5/5/5 14/14/14
f 6/6/6 5/5/5 16/16/16
f 17/17/17 16/16/16 15/15/15
f 18/18/18 16/16/16 17/17/17
f 18/18/18 6/6/6 16/16/16
f 7/7/7 6/6/6 18/18/18
f 19/19/19 18/18/18 17/17/17
f 20/20/20 18/18/18 19/19/19
f 20/20/20 7/7/7 18/18/18
f 8/8/8 7/7/7 20/20/20
f 21/21/21 20/20/20 19/19/19
f 22/22/22 20/20/20 21/21/21
f 22/22/22 8/8/8 20/20/20
f 9/9/9 8/8/8 22/22/22
f 23/23/23 22/22/22 21/21/21
f 24/24/24 22/22/22 23/23/23
f 24/24/24 9/9/9 22/22/22
f 25/25/25 24/24/24 23/23/23
f 10/10/10 24/24/24 25/25/25
f 12/12/12 10/10/10 25/25/25
f 10/10/10 1/1/1 24/24/24
f 1/1/1 9/9/9 24/24/24
f 28/28/28 27/27/27 26/26/26
f 28/28/28 29/29/29 27/27/27
f 28/28/28 30/30/30 29/29/29
f 28/28/28 31/31/31 30/30/30
f 28/28/28 32/32/32 31/31/31
f 28/28/28 33/33/33 32/32/32
f 28/28/28 34/34/34 33/33/33
f 28/28/28 26/26/26 34/34/34
f 29/29/29 30/30/30 35/35/35
f 27/27/27 29/29/29 35/35/35
f 30/30/30 36/36/36 35/35/35
f 35/35/35 36/36/36 37/37/37
f 35/35/35 37/37/37 38/38/38
f 39/39/39 35/35/35 38/38/38
f 26/26/26 27/27/27 39/39/39
f 39/39/39 27/27/27 35/35/35
f 39/39/39 38/38/38 40/40/40
f 41/41/41 39/39/39 40/40/40
f 34/34/34 26/26/26 41/41/41
f 41/41/41 26/26/26 39/39/39
f 36/36/36 42/42/42 37/37/37
f 36/36/36 43/43/43 42/42/42
f 30/30/30 31/31/31 43/43/43
f 36/36/36 30/30/30 43/43/43
f 43/43/43 44/44/44 42/42/42
f 43/43/43 45/45/45 44/44/44
f 31/31/31 32/32/32 45/45/45
f 43/43/43 31/31/31 45/45/45
f 45/45/45 46/46/46 44/44/44
f 45/45/45 47/47/47 46/46/46
f 32/32/32 33/33/33 47/47/47
f 45/45/45 32/32/32 47/47/47
f 47/47/47 48/48/48 46/46/46
f 47/47/47 49/49/49 48/48/48
f 49/49/49 34/34/34 41/41/41
f 49/49/49 50/50/50 48/48/48
f 41/41/41 40/40/40 50/50/50
f 49/49/49 41/41/41 50/50/50
f 50/50/50 40/40/40 51/51/51
f 48/48/48 50/50/50 51/51/51
f 40/40/40 52/52/52 51/51/51
f 51/51/51 52/52/52 53/53/53
f 51/51/51 53/53/53 54/54/54
f 55/55/55 51/51/51 54/54/54
f 46/46/46 48/48/48 55/55/55
f 55/55/55 48/48/48 51/51/51
f 55/55/55 54/54/54 56/56/56
f 57/57/57 55/55/55 56/56/56
f 44/44/44 46/46/46 57/57/57
f 57/57/57 46/46/46 55/55/55
f 57/57/57 56/56/56 58/58/58
f 59/59/59 57/57/57 58/58/58
f 59/59/59 44/44/44 57/57/57
f 59/59/59 58/58/58 60/60/60
f 61/61/61 59/59/59 60/60/60
f 61/61/61 60/60/60 62/62/62
f 63/63/63 61/61/61 62/62/62
f 63/63/63 62/62/62 64/64/64
f 65/65/65 63/63/63 64/64/64
f 65/65/65 64/64/64 66/66/66
f 52/52/52 65/65/65 66/66/66
f 52/52/52 66/66/66 53/53/53
f 52/52/52 40/40/40 65/65/65
f 40/40/40 38/38/38 65/65/65
f 65/65/65 38/38/38 63/63/63
f 38/38/38 37/37/37 63/63/63
f 63/63/63 37/37/37 61/61/61
f 37/37/37 42/42/42 61/61/61
f 61/61/61 42/42/42 59/59/59
f 42/42/42 44/44/44 59/59/59
f 69/69/69 68/68/68 67/67/67
f 70/70/70 69/69/69 67/67/67
f 70/70/70 67/67/67 71/71/71
f 72/72/72 70/70/70 71/71/71
f 72/72/72 71/71/71 73/73/73
f 74/74/74 72/72/72 73/73/73
f 69/69/69 75/75/75 68/68/68
f 75/75/75 76/76/76 68/68/68
f 75/75/75 77/77/77 76/76/76
f 77/77/77 78/78/78 76/76/76
f 77/77/77 79/79/79 78/78/78
f 79/79/79 80/80/80 78/78/78
f 79/79/79 81/81/81 80/80/80
f 81/81/81 82/82/82 80/80/80
f 81/81/81 83/83/83 82/82/82
f 83/83/83 84/84/84 82/82/82
f 33/33/33 34/34/34 49/49/49
f 47/47/47 33/33/33 49/49/49
