g Line002
v -0.0258566 0.1247008 -0.007635949
v -0.01869423 0.1909409 -0.072171
v -0.01869422 0.1909409 0.03729679
v -0.0258566 0.1247007 -0.072171
v -0.1280219 0.1195278 0.0475154
v -0.0258566 0.1247007 -0.072171
v -0.0258566 0.1247008 -0.007635949
v -0.1280219 0.1195278 -0.072171
v -0.1074802 0.05090985 0.08561427
v -0.1280219 0.1195278 -0.072171
v -0.1280219 0.1195278 0.0475154
v -0.1074802 0.05090984 -0.072171
v -0.1143773 -0.02495851 0.04959192
v -0.1143773 -0.02495851 -0.072171
v -0.07741309 -0.05767397 0.003151154
v -0.1143773 -0.02495851 -0.072171
v -0.1143773 -0.02495851 0.04959192
v -0.07741309 -0.05767398 -0.05290289
v -0.09089483 -0.07747529 -0.01449521
v -0.07741309 -0.05767398 -0.05290289
v -0.07741309 -0.05767397 0.003151154
v -0.09089483 -0.07747529 -0.072171
v -0.0754232 -0.1159333 -0.01730222
v -0.09089483 -0.07747529 -0.072171
v -0.09089483 -0.07747529 -0.01449521
v -0.0754232 -0.1159333 -0.072171
v -0.060275 -0.1209827 0.001459526
v -0.0754232 -0.1159333 -0.072171
v -0.0754232 -0.1159333 -0.01730222
v -0.060275 -0.1209827 -0.072171
v -0.03428101 -0.1096628 -0.007635949
v -0.060275 -0.1209827 -0.072171
v -0.060275 -0.1209827 0.001459526
v -0.034281 -0.1096628 -0.072171
v -0.02590165 -0.1247456 0.0003566971
v -0.034281 -0.1096628 -0.072171
v -0.03428101 -0.1096628 -0.007635949
v -0.02590165 -0.1247456 -0.072171
v 0.006051503 -0.1251957 0.01317396
v -0.02590165 -0.1247456 -0.072171
v -0.02590165 -0.1247456 0.0003566971
v 0.006051508 -0.1251956 -0.072171
v 0.01676029 -0.1033497 0.04112605
v 0.006051508 -0.1251956 -0.072171
v 0.006051503 -0.1251957 0.01317396
v 0.01676029 -0.1033497 -0.072171
v 0.07954977 -0.1063602 0.003092568
v 0.01676029 -0.1033497 -0.072171
v 0.01676029 -0.1033497 0.04112605
v 0.07954977 -0.1063602 -0.072171
v 0.09038132 -0.0675471 0.02032493
v 0.07954977 -0.1063602 -0.072171
v 0.07954977 -0.1063602 0.003092568
v 0.09038132 -0.06754709 -0.072171
v 0.02437056 -0.03389457 0.05892811
v 0.09038132 -0.06754709 -0.072171
v 0.09038132 -0.0675471 0.02032493
v 0.02437056 -0.03389456 -0.072171
v 0.01863972 -0.009743182 0.03825899
v 0.02437056 -0.03389456 -0.072171
v 0.02437056 -0.03389457 0.05892811
v 0.01863972 -0.009743176 -0.0513611
v 0.05112203 0.03023506 -0.01534419
v 0.01863972 -0.009743176 -0.0513611
v 0.01863972 -0.009743182 0.03825899
v 0.05112204 0.03023506 -0.072171
v 0.1133707 0.004227071 0.009813088
v 0.05112204 0.03023506 -0.072171
v 0.05112203 0.03023506 -0.01534419
v 0.1133707 0.004227071 -0.072171
v 0.1385141 0.01519876 0.08790225
v 0.1133707 0.004227071 -0.072171
v 0.1133707 0.004227071 0.009813088
v 0.1385141 0.01519877 -0.072171
v 0.1013666 0.1165897 0.01108804
v 0.1385141 0.01519877 -0.072171
v 0.1385141 0.01519876 0.08790225
v 0.1013666 0.1165897 -0.072171
v 0.07901108 0.1170459 -0.007635949
v 0.1013666 0.1165897 -0.072171
v 0.1013666 0.1165897 0.01108804
v 0.07901108 0.1170459 -0.072171
v 0.05593342 0.09610505 -0.007635949
v 0.07901108 0.1170459 -0.072171
v 0.07901108 0.1170459 -0.007635949
v 0.05593341 0.09610505 -0.072171
v 0.001554341 0.105379 0.03167527
v 0.05593341 0.09610505 -0.072171
v 0.05593342 0.09610505 -0.007635949
v 0.001554335 0.105379 -0.072171
v -0.01750286 0.1223647 -0.007635949
v -0.01750286 0.1223647 -0.072171
v -0.01869422 0.1909409 0.03729679
v -0.01750286 0.1223647 -0.072171
v -0.01750286 0.1223647 -0.007635949
v -0.01869423 0.1909409 -0.072171
vt 0.07477462 0.6494201
vt -0.2319615 0.3505799
vt -0.2319615 0.6494201
vt 0.07477462 0.3505799
vt 1.11712 0.6494201
vt 0.6440263 0.3505799
vt 0.6440263 0.6494201
vt 1.11712 0.3505799
vt 0.4164756 0.6494201
vt 0.0987286 0.3505799
vt 0.09872854 0.6494201
vt 0.4164756 0.3505799
vt 0.7677966 0.6494201
vt 0.7677966 0.3505799
vt 0.1172327 0.6494201
vt -0.05393624 0.3505799
vt -0.05393624 0.6494201
vt 0.1172327 0.3505799
vt 1.010984 0.6494201
vt 0.9192911 0.3505799
vt 0.9192911 0.6494201
vt 1.010984 0.3505799
vt 1.189071 0.6494201
vt 1.010984 0.3505799
vt 1.010984 0.6494201
vt 1.189071 0.3505799
vt 0.1965933 0.6494201
vt 0.1264471 0.3505799
vt 0.1264471 0.6494201
vt 0.1965934 0.3505799
vt 0.3169629 0.6494201
vt 0.1965934 0.3505799
vt 0.1965933 0.6494201
vt 0.3169629 0.3505799
vt 1.229877 0.6494201
vt 1.160034 0.3505799
vt 1.160034 0.6494201
vt 1.229877 0.3505799
vt 0.5037293 0.6494201
vt 0.3557649 0.3505799
vt 0.3557649 0.6494201
vt 0.5037293 0.3505799
vt -0.1308004 0.6494201
vt -0.2319615 0.3505799
vt -0.2319615 0.6494201
vt -0.1308004 0.3505799
vt 0.8440753 0.6494201
vt 0.5533181 0.3505799
vt 0.5533181 0.6494201
vt 0.8440752 0.3505799
vt 0.0349896 0.6494201
vt -0.1447408 0.3505799
vt -0.1447408 0.6494201
vt 0.03498966 0.3505799
vt 0.4114412 0.6494201
vt 0.1057675 0.3505799
vt 0.1057674 0.6494201
vt 0.4114412 0.3505799
vt 0.3026603 0.6494201
vt 0.1908233 0.3505799
vt 0.1908233 0.6494201
vt 0.3026603 0.3505799
vt 0.4877862 0.6494201
vt 0.3026603 0.3505799
vt 0.3026603 0.6494201
vt 0.4877862 0.3505799
vt 1.000689 0.6494201
vt 0.712436 0.3505799
vt 0.712436 0.6494201
vt 1.000689 0.3505799
vt 1.11712 0.6494201
vt 1.000689 0.3505799
vt 1.000689 0.6494201
vt 1.11712 0.3505799
vt 0.8876655 0.6494201
vt 0.4181581 0.3505799
vt 0.418158 0.6494201
vt 0.8876655 0.3505799
vt 0.158419 0.6494201
vt 0.05489814 0.3505799
vt 0.05489814 0.6494201
vt 0.158419 0.3505799
vt 0.2652839 0.6494201
vt 0.158419 0.3505799
vt 0.158419 0.6494201
vt 0.265284 0.3505799
vt 0.5170953 0.6494201
vt 0.265284 0.3505799
vt 0.2652839 0.6494201
vt 0.5170953 0.3505799
vt 0.6053429 0.6494201
vt 0.6053429 0.3505799
vt 1.231961 0.6494201
vt 0.9144081 0.3505799
vt 0.9144081 0.6494201
vt 1.231961 0.3505799
vn -0.994205 0.1075008 3.890003E-08
vn -0.994205 0.1075008 3.468006E-08
vn -0.994205 0.1075008 5.196859E-08
vn -0.994205 0.1075007 1.667512E-08
vn -0.0505681 0.9987206 -8.180884E-08
vn -0.0505681 0.9987206 -8.748573E-08
vn -0.05056814 0.9987206 -1.165751E-07
vn -0.05056808 0.9987206 -6.366332E-08
vn -0.9953967 -0.09584054 0
vn -0.957994 -0.2867882 1.506459E-08
vn -0.957994 -0.2867883 1.828128E-08
vn -0.9949936 -0.09993915 2.533966E-08
vn -0.9958932 0.0905358 1.299131E-08
vn -0.9958932 0.09053586 5.814588E-08
vn -0.6627595 -0.7488323 8.300428E-08
vn -0.6627596 -0.7488322 8.972319E-08
vn -0.6627595 -0.7488323 7.671716E-08
vn -0.6627596 -0.7488322 1.019219E-07
vn -0.8265994 0.5627907 -4.841024E-08
vn -0.8265994 0.5627908 0
vn -0.8265995 0.5627906 -7.660024E-08
vn -0.8265994 0.5627908 3.489677E-08
vn -0.9277394 -0.3732286 7.368432E-08
vn -0.9277394 -0.3732286 2.554082E-08
vn -0.9277395 -0.3732284 1.72093E-07
vn -0.9277393 -0.3732288 -7.71036E-08
vn -0.3162282 -0.9486832 5.634532E-08
vn -0.3162279 -0.9486833 0
vn -0.3162284 -0.9486831 8.79416E-08
vn -0.3162278 -0.9486833 -1.638333E-08
vn 0.3992669 -0.9168347 2.652004E-08
vn 0.3992669 -0.9168348 4.021406E-08
vn 0.3992669 -0.9168347 2.068547E-08
vn 0.3992669 -0.9168347 4.72017E-08
vn -0.8741572 -0.485643 -9.628206E-08
vn -0.8741573 -0.4856429 -7.407776E-08
vn -0.8741572 -0.4856431 -1.033437E-07
vn -0.8741573 -0.4856429 -6.896633E-08
vn -0.01408322 -0.9999008 -2.796347E-08
vn -0.01408311 -0.9999008 -6.991976E-08
vn -0.01408329 -0.9999008 0
vn -0.01408306 -0.9999008 -9.025145E-08
vn 0.8979207 -0.4401572 1.133511E-08
vn 0.8979208 -0.4401572 0
vn 0.8979207 -0.4401572 1.583748E-08
vn 0.8979208 -0.4401571 0
vn -0.04789022 -0.9988526 -4.461635E-08
vn -0.04789024 -0.9988526 -2.780702E-08
vn -0.04789019 -0.9988526 -6.887495E-08
vn -0.04789029 -0.9988526 0
vn 0.9631964 -0.2687986 -9.904024E-08
vn 0.9631964 -0.2687986 -1.005781E-07
vn 0.9631964 -0.2687986 -9.763829E-08
vn 0.9631964 -0.2687986 -1.016193E-07
vn 0.4541873 0.8909062 2.19067E-08
vn 0.4541873 0.8909062 1.589894E-08
vn 0.4541873 0.8909063 3.602213E-08
vn 0.4541873 0.8909063 0
vn 0.9729829 0.2308774 -3.082112E-08
vn 0.9729829 0.2308773 0
vn 0.9729828 0.2308774 -3.574948E-08
vn 0.9729829 0.2308772 1.4741E-08
vn 0.776114 -0.6305925 -2.003577E-08
vn 0.776114 -0.6305926 -1.481746E-08
vn 0.776114 -0.6305925 -4.026196E-08
vn 0.776114 -0.6305926 0
vn -0.3855126 -0.9227026 -3.800531E-08
vn -0.3855126 -0.9227026 -3.849417E-08
vn -0.3855126 -0.9227026 -8.78185E-08
vn -0.3855127 -0.9227026 0
vn 0.3999447 -0.9165393 -1.920353E-08
vn 0.3999448 -0.9165393 -3.409333E-08
vn 0.3999446 -0.9165393 0
vn 0.3999449 -0.9165392 -3.82235E-08
vn 0.9389634 0.3440169 -2.756555E-08
vn 0.9389634 0.3440169 -2.763092E-08
vn 0.9389635 0.3440168 1.434694E-08
vn 0.9389634 0.3440169 -8.604137E-08
vn 0.02040401 0.9997918 -1.933228E-08
vn 0.02040379 0.9997918 -9.539599E-08
vn 0.02040405 0.9997918 0
vn 0.02040371 0.9997918 -1.206085E-07
vn -0.6719899 0.7405604 0
vn -0.6719898 0.7405604 2.602431E-08
vn -0.6719899 0.7405604 0
vn -0.6719898 0.7405604 3.972163E-08
vn 0.3690358 0.9294152 2.421279E-08
vn 0.1681151 0.9857674 4.017016E-08
vn 0.168115 0.9857674 0
vn 0.4335726 0.9011187 1.91786E-08
vn 0.6653704 0.7465134 0
vn 0.6653703 0.7465135 -3.933035E-08
vn 0.9998491 0.0173703 -5.523887E-08
vn 0.9998491 0.0173703 -5.470013E-08
vn 0.9998491 0.01737031 -5.910156E-08
vn 0.9998491 0.01737029 -5.226362E-08
g Line002_0
f 3/3/3 2/2/2 1/1/1
f 4/4/4 1/1/1 2/2/2
f 7/7/7 6/6/6 5/5/5
f 8/8/8 5/5/5 6/6/6
f 11/11/11 10/10/10 9/9/9
f 12/12/12 9/9/9 10/10/10
f 9/9/9 12/12/12 13/13/13
f 14/14/14 13/13/13 12/12/12
f 17/17/17 16/16/16 15/15/15
f 18/18/18 15/15/15 16/16/16
f 21/21/21 20/20/20 19/19/19
f 22/22/22 19/19/19 20/20/20
f 25/25/25 24/24/24 23/23/23
f 26/26/26 23/23/23 24/24/24
f 29/29/29 28/28/28 27/27/27
f 30/30/30 27/27/27 28/28/28
f 33/33/33 32/32/32 31/31/31
f 34/34/34 31/31/31 32/32/32
f 37/37/37 36/36/36 35/35/35
f 38/38/38 35/35/35 36/36/36
f 41/41/41 40/40/40 39/39/39
f 42/42/42 39/39/39 40/40/40
f 45/45/45 44/44/44 43/43/43
f 46/46/46 43/43/43 44/44/44
f 49/49/49 48/48/48 47/47/47
f 50/50/50 47/47/47 48/48/48
f 53/53/53 52/52/52 51/51/51
f 54/54/54 51/51/51 52/52/52
f 57/57/57 56/56/56 55/55/55
f 58/58/58 55/55/55 56/56/56
f 61/61/61 60/60/60 59/59/59
f 62/62/62 59/59/59 60/60/60
f 65/65/65 64/64/64 63/63/63
f 66/66/66 63/63/63 64/64/64
f 69/69/69 68/68/68 67/67/67
f 70/70/70 67/67/67 68/68/68
f 73/73/73 72/72/72 71/71/71
f 74/74/74 71/71/71 72/72/72
f 77/77/77 76/76/76 75/75/75
f 78/78/78 75/75/75 76/76/76
f 81/81/81 80/80/80 79/79/79
f 82/82/82 79/79/79 80/80/80
f 85/85/85 84/84/84 83/83/83
f 86/86/86 83/83/83 84/84/84
f 89/89/89 88/88/88 87/87/87
f 90/90/90 87/87/87 88/88/88
f 87/87/87 90/90/90 91/91/91
f 92/92/92 91/91/91 90/90/90
f 95/95/95 94/94/94 93/93/93
f 96/96/96 93/93/93 94/94/94
