g map_water05
v -0.07253778 0.05402075 -1.710867
v -0.01792322 0.0234501 -2.035815
v -0.02426813 0.04664154 -2.039335
v -0.01792322 0.0234501 -2.035815
v -0.07253778 0.05402075 -1.710867
v -0.06280696 0.01519866 -1.740988
v -0.06038992 0.08724102 -1.701107
v -0.02426813 0.04664154 -2.039335
v -0.01554043 0.06957161 -2.083804
v -0.02426813 0.04664154 -2.039335
v -0.06038992 0.08724102 -1.701107
v -0.07253778 0.05402075 -1.710867
v -0.06725662 0.02476641 -1.45575
v -0.07253778 0.05402075 -1.710867
v -0.07555366 0.0630838 -1.430841
v -0.06280696 0.01519866 -1.740988
v -0.06878826 0.01277087 -1.29371
v -0.07555366 0.0630838 -1.430841
v -0.06038992 0.08724102 -1.701107
v -0.05907798 0.09608474 -1.410347
v -0.05907798 0.09608474 -1.410347
v -0.07439549 0.05419334 -1.274013
v -0.05739919 0.09011037 -1.242785
v -0.06038992 0.08724102 -1.701107
v -0.07555366 0.0630838 -1.430841
v -0.07253778 0.05402075 -1.710867
v -0.09010979 0.05455677 -1.019383
v -0.06878826 0.01277087 -1.29371
v -0.07439549 0.05419334 -1.274013
v -0.06878826 0.01277087 -1.29371
v -0.09010979 0.05455677 -1.019383
v -0.0703195 0.02036371 -1.049601
v -0.09555761 0.05706314 -0.7905854
v -0.07204925 0.08484149 -1.008157
v -0.07439549 0.05419334 -1.274013
v -0.05739919 0.09011037 -1.242785
v -0.07439549 0.05419334 -1.274013
v -0.07204925 0.08484149 -1.008157
v -0.09010979 0.05455677 -1.019383
v -0.07634314 0.09011055 -0.7735938
v -0.09555761 0.05706314 -0.7905854
v -0.08731189 0.09209269 -0.4582751
v -0.1015499 0.06424207 -0.4850241
v -0.0703195 0.02036371 -1.049601
v -0.09555761 0.05706314 -0.7905854
v -0.09279566 0.02475139 -0.7818444
v -0.07204925 0.08484149 -1.008157
v -0.04933205 0.1042227 -0.784928
v -0.07634314 0.09011055 -0.7735938
v -0.04539032 0.1001804 -1.020466
v -0.0683957 0.1070087 -0.4596426
v -0.05739919 0.09011037 -1.242785
v -0.1015499 0.06424207 -0.4850241
v -0.09279566 0.02475139 -0.7818444
v -0.09555761 0.05706314 -0.7905854
v -0.09848534 0.0295884 -0.5003796
v -0.100392 0.03987434 -0.2530092
v -0.07634314 0.09011055 -0.7735938
v -0.0683957 0.1070087 -0.4596426
v -0.08731189 0.09209269 -0.4582751
v -0.09848534 0.0295884 -0.5003796
v -0.100392 0.03987434 -0.2530092
v -0.09159933 0.006412785 -0.232959
v -0.08685564 0.06723733 -0.2552886
v -0.1015499 0.06424207 -0.4850241
v -0.08731189 0.09209269 -0.4582751
v -0.100392 0.03987434 -0.2530092
v -0.0683957 0.1070087 -0.4596426
v -0.08685564 0.06723733 -0.2552886
v -0.08731189 0.09209269 -0.4582751
v -0.08685564 0.06723733 -0.2552886
v -0.0683957 0.1070087 -0.4596426
v -0.06603882 0.08651028 -0.2435586
v -0.09159933 0.006412785 -0.232959
v -0.07804541 0.02939717 -0.0885614
v -0.07314196 0.0005227709 -0.0724865
v -0.07804541 0.02939717 -0.0885614
v -0.09159933 0.006412785 -0.232959
v -0.100392 0.03987434 -0.2530092
v -0.100392 0.03987434 -0.2530092
v -0.06002237 0.05338426 -0.1006932
v -0.07804541 0.02939717 -0.0885614
v -0.06002237 0.05338426 -0.1006932
v -0.100392 0.03987434 -0.2530092
v -0.08685564 0.06723733 -0.2552886
v 0.002530994 0.04058247 0.02962624
v -0.06002237 0.05338426 -0.1006932
v -0.03593041 0.06940778 -0.107737
v -0.06002237 0.05338426 -0.1006932
v 0.002530994 0.04058247 0.02962624
v -0.01231849 0.0313512 0.05842148
v -0.03890298 0.1029481 -1.709743
v -0.01554043 0.06957161 -2.083804
v 0.000256424 0.08057875 -2.071039
v -0.01554043 0.06957161 -2.083804
v -0.03890298 0.1029481 -1.709743
v -0.06038992 0.08724102 -1.701107
v -0.06038992 0.08724102 -1.701107
v -0.03320576 0.1116725 -1.413414
v -0.05907798 0.09608474 -1.410347
v -0.03320576 0.1116725 -1.413414
v -0.06038992 0.08724102 -1.701107
v -0.03890298 0.1029481 -1.709743
v -0.04539032 0.1001804 -1.020466
v -0.05739919 0.09011037 -1.242785
v -0.03267905 0.1070578 -1.240283
v -0.03320576 0.1116725 -1.413414
v 0.001108379 0.009188478 -2.013984
v -0.06280696 0.01519866 -1.740988
v -0.03709861 -0.005018854 -1.735994
v -0.06280696 0.01519866 -1.740988
v 0.001108379 0.009188478 -2.013984
v -0.01792322 0.0234501 -2.035815
v -0.06878826 0.01277087 -1.29371
v -0.04017744 0.002332449 -1.443126
v -0.06725662 0.02476641 -1.45575
v -0.04017744 0.002332449 -1.443126
v -0.06878826 0.01277087 -1.29371
v -0.04554484 -0.01430188 -1.273456
v -0.04554484 -0.01430188 -1.273456
v -0.0703195 0.02036371 -1.049601
v -0.04587089 -0.002638578 -1.049194
v -0.0703195 0.02036371 -1.049601
v -0.04554484 -0.01430188 -1.273456
v -0.06878826 0.01277087 -1.29371
v -0.04587089 -0.002638578 -1.049194
v -0.09279566 0.02475139 -0.7818444
v -0.06767673 0.002323871 -0.777031
v -0.0703195 0.02036371 -1.049601
v -0.09848534 0.0295884 -0.5003796
v -0.06767673 0.002323871 -0.777031
v -0.09848534 0.0295884 -0.5003796
v -0.08112104 0.005833464 -0.4967905
v -0.09159933 0.006412785 -0.232959
v -0.08112104 0.005833464 -0.4967905
v -0.09159933 0.006412785 -0.232959
v -0.0753917 -0.01105436 -0.2210375
v -0.07314196 0.0005227709 -0.0724865
v -0.01600214 -0.01734159 0.07138908
v -0.05595922 -0.01730398 -0.07401909
v -0.02554307 -0.002366176 0.08910003
v -0.06878826 0.01277087 -1.29371
v -0.07555366 0.0630838 -1.430841
v -0.07439549 0.05419334 -1.274013
v -0.03320576 0.1116725 -1.413414
v -0.05739919 0.09011037 -1.242785
v -0.05907798 0.09608474 -1.410347
v -0.06725662 0.02476641 -1.45575
v -0.03709861 -0.005018854 -1.735994
v -0.06280696 0.01519866 -1.740988
v -0.04017744 0.002332449 -1.443126
v -0.07314196 0.0005227709 -0.0724865
v -0.02486061 0.01577003 0.08069382
v -0.02554307 -0.002366176 0.08910003
v -0.02486061 0.01577003 0.08069382
v -0.07314196 0.0005227709 -0.0724865
v -0.07804541 0.02939717 -0.0885614
v -0.07804541 0.02939717 -0.0885614
v -0.01231849 0.0313512 0.05842148
v -0.02486061 0.01577003 0.08069382
v -0.01231849 0.0313512 0.05842148
v -0.07804541 0.02939717 -0.0885614
v -0.06002237 0.05338426 -0.1006932
v -0.03593041 0.06940778 -0.107737
v -0.08685564 0.06723733 -0.2552886
v -0.06603882 0.08651028 -0.2435586
v -0.08685564 0.06723733 -0.2552886
v -0.03593041 0.06940778 -0.107737
v -0.06002237 0.05338426 -0.1006932
v -0.07314196 0.0005227709 -0.0724865
v -0.0753917 -0.01105436 -0.2210375
v -0.09159933 0.006412785 -0.232959
v -0.0753917 -0.01105436 -0.2210375
v -0.07314196 0.0005227709 -0.0724865
v -0.05595922 -0.01730398 -0.07401909
vt 0.4987858 0.1133822
vt 0.2434435 0.001542019
vt 0.4987858 0.001542019
vt 0.2434435 0.001542019
vt 0.4987858 0.1133822
vt 0.2434435 0.1133822
vt 0.7541281 0.1133822
vt 0.4987858 0.001542019
vt 0.7541281 0.001542019
vt 0.4987858 0.001542019
vt 0.7541281 0.1133822
vt 0.4987858 0.1133822
vt 0.2434435 0.1693023
vt 0.4987858 0.1133822
vt 0.4987858 0.1693023
vt 0.2434435 0.1133822
vt 0.2434435 0.2252225
vt 0.4987858 0.1693023
vt 0.7541281 0.1133822
vt 0.7541281 0.1693023
vt 0.7541281 0.1693023
vt 0.4987858 0.2252225
vt 0.7541281 0.2252225
vt 0.7541281 0.1133822
vt 0.4987858 0.1693023
vt 0.4987858 0.1133822
vt 0.4987858 0.3370627
vt 0.2434435 0.2252225
vt 0.4987858 0.2252225
vt 0.2434435 0.2252225
vt 0.4987858 0.3370627
vt 0.2434435 0.3370627
vt 0.4987858 0.4489029
vt 0.7541281 0.3370627
vt 0.4987858 0.2252225
vt 0.7541281 0.2252225
vt 0.4987858 0.2252225
vt 0.7541281 0.3370627
vt 0.4987858 0.3370627
vt 0.7541281 0.4489029
vt 0.4987858 0.4489029
vt 0.7541281 0.5607431
vt 0.4987858 0.5607431
vt 0.2434435 0.3370627
vt 0.4987858 0.4489029
vt 0.2434435 0.4489029
vt 0.7541281 0.3370627
vt 0.8804908 0.4489029
vt 0.7541281 0.4489029
vt 0.8804908 0.3370627
vt 0.8804908 0.5607431
vt 0.7541281 0.2252225
vt 0.4987858 0.5607431
vt 0.2434435 0.4489029
vt 0.4987858 0.4489029
vt 0.2434435 0.5607431
vt 0.4987858 0.6725833
vt 0.7541281 0.4489029
vt 0.8804908 0.5607431
vt 0.7541281 0.5607431
vt 0.2434435 0.5607431
vt 0.4987858 0.6725833
vt 0.2434435 0.6725833
vt 0.7541281 0.6725833
vt 0.4987858 0.5607431
vt 0.7541281 0.5607431
vt 0.4987858 0.6725833
vt 0.8804908 0.5607431
vt 0.7541281 0.6725833
vt 0.7541281 0.5607431
vt 0.7541281 0.6725833
vt 0.8804908 0.5607431
vt 0.8804908 0.6725833
vt 0.2434435 0.6725833
vt 0.4987858 0.7285033
vt 0.2434435 0.7285033
vt 0.4987858 0.7285033
vt 0.2434435 0.6725833
vt 0.4987858 0.6725833
vt 0.4987858 0.6725833
vt 0.7541281 0.7285033
vt 0.4987858 0.7285033
vt 0.7541281 0.7285033
vt 0.4987858 0.6725833
vt 0.7541281 0.6725833
vt 0.8804908 0.7844235
vt 0.7541281 0.7285033
vt 0.8804908 0.7285033
vt 0.7541281 0.7285033
vt 0.8804908 0.7844235
vt 0.7541281 0.7844235
vt 0.8804908 0.1133822
vt 0.7541281 0.001542019
vt 0.8804908 0.001542019
vt 0.7541281 0.001542019
vt 0.8804908 0.1133822
vt 0.7541281 0.1133822
vt 0.7541281 0.1133822
vt 0.8804908 0.1693023
vt 0.7541281 0.1693023
vt 0.8804908 0.1693023
vt 0.7541281 0.1133822
vt 0.8804908 0.1133822
vt 0.8804908 0.3370627
vt 0.7541281 0.2252225
vt 0.8804908 0.2252225
vt 0.8804908 0.1693023
vt 0.1190435 0.001542019
vt 0.2434435 0.1133822
vt 0.1190435 0.1133822
vt 0.2434435 0.1133822
vt 0.1190435 0.001542019
vt 0.2434435 0.001542019
vt 0.2434435 0.2252225
vt 0.1190435 0.1693023
vt 0.2434435 0.1693023
vt 0.1190435 0.1693023
vt 0.2434435 0.2252225
vt 0.1190435 0.2252225
vt 0.1190435 0.2252225
vt 0.2434435 0.3370627
vt 0.1190435 0.3370627
vt 0.2434435 0.3370627
vt 0.1190435 0.2252225
vt 0.2434435 0.2252225
vt 0.1190435 0.3370627
vt 0.2434435 0.4489029
vt 0.1190435 0.4489029
vt 0.2434435 0.3370627
vt 0.2434435 0.5607431
vt 0.1190435 0.4489029
vt 0.2434435 0.5607431
vt 0.1190435 0.5607431
vt 0.2434435 0.6725833
vt 0.1190435 0.5607431
vt 0.2434435 0.6725833
vt 0.1190435 0.6725833
vt 0.2434435 0.7285033
vt 0.1190435 0.7844235
vt 0.1190435 0.7285033
vt 0.2434435 0.7844235
vt 0.2434435 0.2252225
vt 0.4987858 0.1693023
vt 0.4987858 0.2252225
vt 0.8804908 0.1693023
vt 0.7541281 0.2252225
vt 0.7541281 0.1693023
vt 0.2434435 0.1693023
vt 0.1190435 0.1133822
vt 0.2434435 0.1133822
vt 0.1190435 0.1693023
vt 0.2434435 0.7285033
vt 0.4987858 0.7844235
vt 0.2434435 0.7844235
vt 0.4987858 0.7844235
vt 0.2434435 0.7285033
vt 0.4987858 0.7285033
vt 0.4987858 0.7285033
vt 0.7541281 0.7844235
vt 0.4987858 0.7844235
vt 0.7541281 0.7844235
vt 0.4987858 0.7285033
vt 0.7541281 0.7285033
vt 0.8804908 0.7285033
vt 0.7541281 0.6725833
vt 0.8804908 0.6725833
vt 0.7541281 0.6725833
vt 0.8804908 0.7285033
vt 0.7541281 0.7285033
vt 0.2434435 0.7285033
vt 0.1190435 0.6725833
vt 0.2434435 0.6725833
vt 0.1190435 0.6725833
vt 0.2434435 0.7285033
vt 0.1190435 0.7285033
vn -0.9505938 -0.280316 -0.1333959
vn -0.9505938 -0.280316 -0.1333959
vn -0.9505938 -0.280316 -0.1333959
vn -0.9800525 -0.1271296 -0.1527586
vn -0.9800525 -0.1271296 -0.1527586
vn -0.9800525 -0.1271296 -0.1527586
vn -0.9828948 0.1383371 -0.1215758
vn -0.9828948 0.1383371 -0.1215758
vn -0.9828948 0.1383371 -0.1215758
vn -0.915244 0.3766836 -0.142961
vn -0.915244 0.3766836 -0.142961
vn -0.915244 0.3766836 -0.142961
vn -0.9778454 -0.2092943 -0.003757568
vn -0.9778454 -0.2092943 -0.003757568
vn -0.9778454 -0.2092943 -0.003757568
vn -0.9712669 -0.2378846 -0.007172209
vn -0.9801645 -0.196748 -0.02382961
vn -0.8922319 0.4514731 -0.009706123
vn -0.8922319 0.4514731 -0.009706123
vn -0.8922319 0.4514731 -0.009706122
vn -0.911482 0.4106524 0.02377368
vn -0.911482 0.4106524 0.02377369
vn -0.911482 0.4106524 0.02377369
vn -0.9369193 0.3488911 -0.02138249
vn -0.9369193 0.348891 -0.02138249
vn -0.9369193 0.3488911 -0.02138249
vn -0.9925611 -0.1053028 -0.06110499
vn -0.9925611 -0.1053028 -0.06110499
vn -0.9925611 -0.1053028 -0.06110499
vn -0.8614339 -0.5077634 0.01039003
vn -0.8614339 -0.5077634 0.01039003
vn -0.8614339 -0.5077634 0.01039003
vn -0.8712154 -0.4906603 -0.01536923
vn -0.8872582 0.4590639 -0.04509111
vn -0.8872582 0.4590639 -0.04509111
vn -0.8872582 0.459064 -0.04509111
vn -0.848868 0.5259273 -0.053138
vn -0.848868 0.5259273 -0.053138
vn -0.848868 0.5259274 -0.053138
vn -0.8540648 0.5194495 -0.02730302
vn -0.858326 0.5124431 -0.02605087
vn -0.8565522 0.5150021 -0.03303362
vn -0.8787033 0.4765211 -0.02842761
vn -0.9909473 -0.1067338 -0.08143358
vn -0.9909473 -0.1067338 -0.08143358
vn -0.9909473 -0.1067338 -0.08143358
vn -0.4722274 0.881018 -0.02843515
vn -0.4722275 0.8810179 -0.02843515
vn -0.4722274 0.881018 -0.02843515
vn -0.506631 0.8618489 -0.02326974
vn -0.474386 0.8796075 -0.03533531
vn -0.5028325 0.8643008 -0.01198761
vn -0.9958046 -0.08983162 -0.01741804
vn -0.9958046 -0.08983162 -0.01741804
vn -0.9958046 -0.08983162 -0.01741804
vn -0.9966327 -0.07981724 -0.01877483
vn -0.9962615 -0.08629113 -0.004090754
vn -0.6201507 0.784035 -0.02650129
vn -0.6201507 0.784035 -0.02650129
vn -0.6201507 0.7840349 -0.02650128
vn -0.9676086 -0.2524368 0.003038616
vn -0.9676086 -0.2524367 0.003038616
vn -0.9676086 -0.2524367 0.003038616
vn -0.9087728 0.4139464 0.05272972
vn -0.9087728 0.4139463 0.05272973
vn -0.9087728 0.4139463 0.05272972
vn -0.8934335 0.4462533 0.05132738
vn -0.6118835 0.7849171 0.09748716
vn -0.6118835 0.7849171 0.09748716
vn -0.6118835 0.7849171 0.09748716
vn -0.6998906 0.7102998 0.0750152
vn -0.6998906 0.7102998 0.0750152
vn -0.6998906 0.7102998 0.07501519
vn -0.9882138 -0.1067208 0.1097461
vn -0.9882138 -0.1067208 0.1097462
vn -0.9882138 -0.1067207 0.1097461
vn -0.9754851 -0.18392 0.1208395
vn -0.9754851 -0.18392 0.1208395
vn -0.9754851 -0.18392 0.1208395
vn -0.7550372 0.6398167 0.1433644
vn -0.7550372 0.6398167 0.1433644
vn -0.7550372 0.6398167 0.1433644
vn -0.8732544 0.4479653 0.1917131
vn -0.8732544 0.4479653 0.1917131
vn -0.8732544 0.4479653 0.1917131
vn -0.4641702 0.8317574 0.3045086
vn -0.4641702 0.8317574 0.3045086
vn -0.4641702 0.8317574 0.3045086
vn -0.2136905 0.9569197 0.1965735
vn -0.2136905 0.9569197 0.1965735
vn -0.2136905 0.9569197 0.1965735
vn -0.5081416 0.8544779 -0.1079797
vn -0.5081416 0.8544779 -0.1079797
vn -0.5081416 0.8544779 -0.1079797
vn -0.6146362 0.7813675 -0.1081075
vn -0.6146362 0.7813675 -0.1081075
vn -0.6146362 0.7813675 -0.1081075
vn -0.5179755 0.8550678 -0.02367051
vn -0.5179756 0.8550678 -0.02367051
vn -0.5179756 0.8550678 -0.02367051
vn -0.5933108 0.8048797 -0.01228997
vn -0.5933108 0.8048797 -0.01228997
vn -0.5933109 0.8048796 -0.01228997
vn -0.5649635 0.8250874 -0.006855332
vn -0.5649634 0.8250875 -0.006855332
vn -0.5649634 0.8250875 -0.006855332
vn -0.5669191 0.8234332 0.02367257
vn -0.5986494 -0.7915527 -0.1227324
vn -0.5986494 -0.7915527 -0.1227324
vn -0.5986494 -0.7915527 -0.1227325
vn -0.5183948 -0.8489546 -0.1026791
vn -0.5183948 -0.8489546 -0.102679
vn -0.5183948 -0.8489546 -0.102679
vn -0.6188588 -0.7829064 -0.06380674
vn -0.6188589 -0.7829064 -0.06380673
vn -0.6188589 -0.7829064 -0.06380674
vn -0.7213086 -0.6867226 -0.09014381
vn -0.7213086 -0.6867226 -0.09014381
vn -0.7213086 -0.6867226 -0.09014381
vn -0.6850958 -0.7275208 0.03684045
vn -0.6850958 -0.7275208 0.03684045
vn -0.6850958 -0.7275208 0.03684045
vn -0.7642531 -0.6447359 0.01526005
vn -0.7642531 -0.6447359 0.01526005
vn -0.7642531 -0.6447359 0.01526005
vn -0.6612955 -0.749094 -0.03932485
vn -0.6612955 -0.749094 -0.03932485
vn -0.6612956 -0.7490939 -0.03932485
vn -0.6841241 -0.7279451 -0.04549838
vn -0.6659456 -0.746 -0.0006416921
vn -0.8046688 -0.5929047 -0.03117808
vn -0.8046688 -0.5929047 -0.03117808
vn -0.8046688 -0.5929048 -0.03117808
vn -0.8047194 -0.5928632 -0.0306583
vn -0.7234401 -0.6898505 -0.02721725
vn -0.7234401 -0.6898505 -0.02721726
vn -0.7234401 -0.6898504 -0.02721726
vn -0.6983486 -0.6896026 0.1917226
vn -0.6983486 -0.6896026 0.1917226
vn -0.6983486 -0.6896026 0.1917226
vn -0.7056463 -0.6810062 0.1956883
vn -0.9909795 -0.1340133 -0.0002788156
vn -0.9909795 -0.1340133 -0.0002788156
vn -0.9909795 -0.1340133 -0.0002788156
vn -0.5126227 0.8578705 0.03572299
vn -0.5126227 0.8578705 0.03572299
vn -0.5126227 0.8578705 0.03572299
vn -0.6200727 -0.7843679 0.01663709
vn -0.6200728 -0.7843679 0.0166371
vn -0.6200727 -0.7843679 0.01663709
vn -0.6413689 -0.7671306 0.01251331
vn -0.9451326 0.1659853 0.2813773
vn -0.9451326 0.1659853 0.2813773
vn -0.9451326 0.1659853 0.2813773
vn -0.9538791 0.005109797 0.3001474
vn -0.9538792 0.005109798 0.3001474
vn -0.9538792 0.005109797 0.3001474
vn -0.5597165 0.7932463 0.239745
vn -0.5597164 0.7932464 0.239745
vn -0.5597164 0.7932464 0.239745
vn -0.6849592 0.6650956 0.297454
vn -0.6849592 0.6650955 0.297454
vn -0.6849592 0.6650955 0.297454
vn -0.7291129 0.6400942 0.2422268
vn -0.7291129 0.6400942 0.2422268
vn -0.7291129 0.6400942 0.2422268
vn -0.5124645 0.8428103 0.1644719
vn -0.5124645 0.8428103 0.1644719
vn -0.5124644 0.8428103 0.1644719
vn -0.7525154 -0.6556032 0.06249008
vn -0.7525154 -0.6556032 0.06249008
vn -0.7525154 -0.6556032 0.06249008
vn -0.7156687 -0.6954055 0.06503399
vn -0.7156687 -0.6954055 0.06503399
vn -0.7156687 -0.6954055 0.06503399
g map_water05_0
f 3/3/3 2/2/2 1/1/1
f 6/6/6 5/5/5 4/4/4
f 9/9/9 8/8/8 7/7/7
f 12/12/12 11/11/11 10/10/10
f 15/15/15 14/14/14 13/13/13
f 16/16/16 13/13/13 14/14/14
f 13/13/13 17/17/17 15/15/15
f 20/20/20 19/19/19 18/18/18
f 18/18/18 22/22/22 21/21/21
f 23/23/23 21/21/21 22/22/22
f 26/26/26 25/25/25 24/24/24
f 29/29/29 28/28/28 27/27/27
f 32/32/32 31/31/31 30/30/30
f 31/31/31 32/32/32 33/33/33
f 36/36/36 35/35/35 34/34/34
f 39/39/39 38/38/38 37/37/37
f 38/38/38 39/39/39 40/40/40
f 41/41/41 40/40/40 39/39/39
f 40/40/40 41/41/41 42/42/42
f 43/43/43 42/42/42 41/41/41
f 46/46/46 45/45/45 44/44/44
f 49/49/49 48/48/48 47/47/47
f 50/50/50 47/47/47 48/48/48
f 48/48/48 49/49/49 51/51/51
f 47/47/47 50/50/50 52/52/52
f 55/55/55 54/54/54 53/53/53
f 56/56/56 53/53/53 54/54/54
f 53/53/53 56/56/56 57/57/57
f 60/60/60 59/59/59 58/58/58
f 63/63/63 62/62/62 61/61/61
f 66/66/66 65/65/65 64/64/64
f 67/67/67 64/64/64 65/65/65
f 70/70/70 69/69/69 68/68/68
f 73/73/73 72/72/72 71/71/71
f 76/76/76 75/75/75 74/74/74
f 79/79/79 78/78/78 77/77/77
f 82/82/82 81/81/81 80/80/80
f 85/85/85 84/84/84 83/83/83
f 88/88/88 87/87/87 86/86/86
f 91/91/91 90/90/90 89/89/89
f 94/94/94 93/93/93 92/92/92
f 97/97/97 96/96/96 95/95/95
f 100/100/100 99/99/99 98/98/98
f 103/103/103 102/102/102 101/101/101
f 106/106/106 105/105/105 104/104/104
f 106/106/106 107/107/107 105/105/105
f 110/110/110 109/109/109 108/108/108
f 113/113/113 112/112/112 111/111/111
f 116/116/116 115/115/115 114/114/114
f 119/119/119 118/118/118 117/117/117
f 122/122/122 121/121/121 120/120/120
f 125/125/125 124/124/124 123/123/123
f 128/128/128 127/127/127 126/126/126
f 129/129/129 126/126/126 127/127/127
f 127/127/127 128/128/128 130/130/130
f 133/133/133 132/132/132 131/131/131
f 132/132/132 133/133/133 134/134/134
f 137/137/137 136/136/136 135/135/135
f 140/140/140 139/139/139 138/138/138
f 141/141/141 138/138/138 139/139/139
f 144/144/144 143/143/143 142/142/142
f 147/147/147 146/146/146 145/145/145
f 150/150/150 149/149/149 148/148/148
f 151/151/151 148/148/148 149/149/149
f 154/154/154 153/153/153 152/152/152
f 157/157/157 156/156/156 155/155/155
f 160/160/160 159/159/159 158/158/158
f 163/163/163 162/162/162 161/161/161
f 166/166/166 165/165/165 164/164/164
f 169/169/169 168/168/168 167/167/167
f 172/172/172 171/171/171 170/170/170
f 175/175/175 174/174/174 173/173/173
