g map_water04
v -0.0777909 0.1402531 -0.893506
v -0.07465915 0.02749901 -1.258644
v -0.06579447 0.04366825 -1.24118
v -0.07465915 0.02749901 -1.258644
v -0.0777909 0.1402531 -0.893506
v -0.104286 0.07866641 -0.9201088
v -0.09182968 0.1749088 -0.7494974
v -0.104286 0.07866641 -0.9201088
v -0.0777909 0.1402531 -0.893506
v -0.1186507 0.1197063 -0.7496606
v -0.05695609 0.2387099 -0.7491711
v -0.1334153 0.0595664 -0.6080434
v -0.1186507 0.1197063 -0.7496606
v -0.1131044 0.129309 -0.6055114
v -0.1186507 0.1197063 -0.7496606
v -0.1334153 0.0595664 -0.6080434
v -0.1267033 0.04622521 -0.7498237
v -0.1120127 0.02849939 -0.9169067
v -0.0778615 0.01477162 -1.242042
v -0.104286 0.07866641 -0.9201088
v -0.07465915 0.02749901 -1.258644
v -0.1186507 0.1197063 -0.7496606
v -0.1185844 0.0651407 -0.4824266
v -0.1131044 0.129309 -0.6055114
v -0.1099885 0.1278793 -0.4793251
v -0.117959 0.04693766 -0.3188722
v -0.1098456 0.09533495 -0.3169926
v -0.08831138 0.2178092 -0.4762236
v -0.08354495 0.2527022 -0.3151131
v -0.1131044 0.129309 -0.6055114
v -0.1185844 0.0651407 -0.4824266
v -0.1334153 0.0595664 -0.6080434
v -0.09841001 0.01943663 -0.2098646
v -0.1098456 0.09533495 -0.3169926
v -0.09182167 0.06155461 -0.2086287
v -0.117959 0.04693766 -0.3188722
v -0.08121037 0.007298264 -0.1246357
v -0.08354495 0.2527022 -0.3151131
v -0.07016267 0.2423213 -0.2073928
v -0.07485192 0.03596203 -0.1246548
v -0.001634245 -0.01325651 -0.01941887
v -0.04191063 0.02649734 -0.05880893
v 0.004247804 0.007633445 -0.009198303
v -0.04191063 0.02649734 -0.05880893
v -0.001634245 -0.01325651 -0.01941887
v -0.04827539 -0.004823313 -0.05753475
v -0.04827539 -0.004823313 -0.05753475
v -0.07485192 0.03596203 -0.1246548
v -0.04191063 0.02649734 -0.05880893
v -0.08121037 0.007298264 -0.1246357
v -0.08121037 0.007298264 -0.1246357
v -0.09182167 0.06155461 -0.2086287
v -0.07485192 0.03596203 -0.1246548
v -0.0777909 0.1402531 -0.893506
v -0.04980122 0.08298681 -1.115508
v -0.0435691 0.1927821 -0.8999103
v -0.05695609 0.2387099 -0.7491711
v -0.04980122 0.08298681 -1.115508
v -0.0777909 0.1402531 -0.893506
v -0.06579447 0.04366825 -1.24118
v -0.05695609 0.2387099 -0.7491711
v -0.084498 0.2104276 -0.6029794
v -0.09182968 0.1749088 -0.7494974
v -0.05529013 0.2666891 -0.5979153
v -0.08831138 0.2178092 -0.4762236
v -0.08831138 0.2178092 -0.4762236
v -0.05529013 0.2666891 -0.5979153
v -0.04666376 0.3209603 -0.4700207
v -0.08354495 0.2527022 -0.3151131
v -0.04666376 0.3209603 -0.4700207
v -0.0490116 0.3333755 -0.3113539
v -0.0490116 0.3333755 -0.3113539
v -0.07016267 0.2423213 -0.2073928
v -0.08354495 0.2527022 -0.3151131
v -0.07016267 0.2423213 -0.2073928
v -0.0490116 0.3333755 -0.3113539
v -0.04191533 0.3019616 -0.204921
v 0.007327127 0.1510168 -0.06263141
v 0.02656342 0.06723969 -0.01020294
v -0.02047412 0.09172569 -0.06008308
v -0.02480497 0.2334457 -0.1247122
v -0.05250317 0.177844 -0.124674
v 0.02656342 0.06723969 -0.01020294
v 0.007327127 0.1510168 -0.06263141
v 0.0400412 0.09248025 -0.0221949
v -0.04191533 0.3019616 -0.204921
v -0.05250317 0.177844 -0.124674
v -0.07016267 0.2423213 -0.2073928
v -0.05250317 0.177844 -0.124674
v -0.04191533 0.3019616 -0.204921
v -0.02480497 0.2334457 -0.1247122
v -0.1131044 0.129309 -0.6055114
v -0.09182968 0.1749088 -0.7494974
v -0.084498 0.2104276 -0.6029794
v -0.09182968 0.1749088 -0.7494974
v -0.1131044 0.129309 -0.6055114
v -0.1186507 0.1197063 -0.7496606
v -0.1099885 0.1278793 -0.4793251
v -0.084498 0.2104276 -0.6029794
v -0.08831138 0.2178092 -0.4762236
v -0.084498 0.2104276 -0.6029794
v -0.1099885 0.1278793 -0.4793251
v -0.1131044 0.129309 -0.6055114
v -0.09182167 0.06155461 -0.2086287
v -0.08354495 0.2527022 -0.3151131
v -0.07016267 0.2423213 -0.2073928
v 0.004247804 0.007633445 -0.009198303
v -0.02047412 0.09172569 -0.06008308
v 0.02656342 0.06723969 -0.01020294
v -0.04191063 0.02649734 -0.05880893
v -0.04191063 0.02649734 -0.05880893
v -0.05250317 0.177844 -0.124674
v -0.02047412 0.09172569 -0.06008308
v -0.05250317 0.177844 -0.124674
v -0.04191063 0.02649734 -0.05880893
v -0.07485192 0.03596203 -0.1246548
v -0.08831138 0.2178092 -0.4762236
v -0.1098456 0.09533495 -0.3169926
v -0.1099885 0.1278793 -0.4793251
v -0.07485192 0.03596203 -0.1246548
v -0.07016267 0.2423213 -0.2073928
v -0.05250317 0.177844 -0.124674
vt 0.501336 0.1751816
vt 0.7460372 0.01151819
vt 0.501336 0.01151819
vt 0.7460372 0.01151819
vt 0.501336 0.1751816
vt 0.7460372 0.1751816
vt 0.501336 0.3388448
vt 0.7460372 0.1751816
vt 0.501336 0.1751816
vt 0.7460372 0.3388448
vt 0.0119338 0.3388448
vt 0.9907386 0.5025081
vt 0.7460372 0.3388448
vt 0.7460372 0.5025081
vt 0.7460372 0.3388448
vt 0.9907386 0.5025081
vt 0.9907386 0.3388448
vt 0.9907386 0.1751816
vt 0.9907386 0.01151819
vt 0.7460372 0.1751816
vt 0.7460372 0.01151819
vt 0.7460372 0.3388448
vt 0.9907386 0.6661714
vt 0.7460372 0.5025081
vt 0.7460372 0.6661714
vt 0.9907386 0.7480031
vt 0.7460372 0.7480031
vt 0.501336 0.6661714
vt 0.501336 0.7480031
vt 0.7460372 0.5025081
vt 0.9907386 0.6661714
vt 0.9907386 0.5025081
vt 0.9907386 0.8298351
vt 0.7460372 0.7480031
vt 0.7460372 0.8298351
vt 0.9907386 0.7480031
vt 0.9907386 0.8707507
vt 0.501336 0.7480031
vt 0.501336 0.8298351
vt 0.7460372 0.8707507
vt 0.9907386 0.9934982
vt 0.7460372 0.9116665
vt 0.7460372 0.9934982
vt 0.7460372 0.9116665
vt 0.9907386 0.9934982
vt 0.9907386 0.9116665
vt 0.9907386 0.9116665
vt 0.7460372 0.8707507
vt 0.7460372 0.9116665
vt 0.9907386 0.8707507
vt 0.9907386 0.8707507
vt 0.7460372 0.8298351
vt 0.7460372 0.8707507
vt 0.501336 0.1751816
vt 0.0119338 0.01151819
vt 0.0119338 0.1751816
vt 0.0119338 0.3388448
vt 0.0119338 0.01151819
vt 0.501336 0.1751816
vt 0.501336 0.01151819
vt 0.0119338 0.3388448
vt 0.501336 0.5025081
vt 0.501336 0.3388448
vt 0.0119338 0.5025081
vt 0.501336 0.6661714
vt 0.501336 0.6661714
vt 0.0119338 0.5025081
vt 0.0119338 0.6661714
vt 0.501336 0.7480031
vt 0.0119338 0.6661714
vt 0.0119338 0.7480031
vt 0.0119338 0.7480031
vt 0.501336 0.8298351
vt 0.501336 0.7480031
vt 0.501336 0.8298351
vt 0.0119338 0.7480031
vt 0.0119338 0.8298351
vt 0.0119338 0.9116665
vt 0.501336 0.9934982
vt 0.501336 0.9116665
vt 0.0119338 0.8707507
vt 0.501336 0.8707507
vt 0.501336 0.9934982
vt 0.0119338 0.9116665
vt 0.0119338 0.9934982
vt 0.0119338 0.8298351
vt 0.501336 0.8707507
vt 0.501336 0.8298351
vt 0.501336 0.8707507
vt 0.0119338 0.8298351
vt 0.0119338 0.8707507
vt 0.7460372 0.5025081
vt 0.501336 0.3388448
vt 0.501336 0.5025081
vt 0.501336 0.3388448
vt 0.7460372 0.5025081
vt 0.7460372 0.3388448
vt 0.7460372 0.6661714
vt 0.501336 0.5025081
vt 0.501336 0.6661714
vt 0.501336 0.5025081
vt 0.7460372 0.6661714
vt 0.7460372 0.5025081
vt 0.7460372 0.8298351
vt 0.501336 0.7480031
vt 0.501336 0.8298351
vt 0.7460372 0.9934982
vt 0.501336 0.9116665
vt 0.501336 0.9934982
vt 0.7460372 0.9116665
vt 0.7460372 0.9116665
vt 0.501336 0.8707507
vt 0.501336 0.9116665
vt 0.501336 0.8707507
vt 0.7460372 0.9116665
vt 0.7460372 0.8707507
vt 0.501336 0.6661714
vt 0.7460372 0.7480031
vt 0.7460372 0.6661714
vt 0.7460372 0.8707507
vt 0.501336 0.8298351
vt 0.501336 0.8707507
vn -0.7514436 0.6285796 -0.2005497
vn -0.7514436 0.6285797 -0.2005497
vn -0.7514435 0.6285797 -0.2005497
vn -0.8848057 0.4430229 -0.1443939
vn -0.8848057 0.4430229 -0.1443939
vn -0.8848057 0.443023 -0.1443939
vn -0.8677062 0.4573781 -0.1946568
vn -0.8677062 0.4573781 -0.1946568
vn -0.8677062 0.4573781 -0.1946568
vn -0.8848488 0.430445 -0.1782123
vn -0.8598244 0.4709868 -0.1971634
vn -0.9601305 0.2789488 0.01835966
vn -0.9601305 0.2789488 0.01835966
vn -0.9601305 0.2789488 0.01835966
vn -0.9924061 0.1088822 -0.05722662
vn -0.9924061 0.1088822 -0.05722663
vn -0.9924061 0.1088822 -0.05722662
vn -0.9834409 0.1444857 -0.1093981
vn -0.9834409 0.1444857 -0.1093981
vn -0.9834409 0.1444857 -0.1093981
vn -0.9881246 0.1134544 -0.1036237
vn -0.9826067 0.1438436 -0.1174441
vn -0.9905815 0.1344369 0.02598312
vn -0.9905815 0.1344369 0.02598312
vn -0.9905815 0.1344369 0.02598312
vn -0.9858891 0.1639643 0.03373916
vn -0.9858891 0.1639643 0.03373916
vn -0.986286 0.1649154 -0.006537973
vn -0.986286 0.1649154 -0.006537973
vn -0.9562087 0.2748174 0.1006987
vn -0.9562087 0.2748174 0.1006987
vn -0.9562087 0.2748174 0.1006987
vn -0.96765 0.1453134 0.206246
vn -0.96765 0.1453134 0.2062461
vn -0.96765 0.1453134 0.2062461
vn -0.9651642 0.1535734 0.2118328
vn -0.9657173 0.1447395 0.2155008
vn -0.9647426 0.1587293 0.2099446
vn -0.9664374 0.1142228 0.2301128
vn -0.9664374 0.1142228 0.2301128
vn -0.748143 -0.1095303 0.6544351
vn -0.748143 -0.1095303 0.6544351
vn -0.748143 -0.1095303 0.654435
vn -0.6081349 0.1552518 0.7785042
vn -0.6081349 0.1552518 0.7785042
vn -0.608135 0.1552518 0.7785042
vn -0.8657323 0.1946858 0.4610913
vn -0.8657322 0.1946859 0.4610912
vn -0.8657323 0.1946858 0.4610912
vn -0.8666903 0.1925641 0.4601814
vn -0.9440474 0.2095871 0.2546522
vn -0.9440474 0.2095871 0.2546522
vn -0.9440474 0.2095871 0.2546522
vn -0.8271365 0.5101092 -0.2358685
vn -0.8271365 0.5101092 -0.2358685
vn -0.8271364 0.5101092 -0.2358685
vn -0.8280871 0.5115181 -0.2293928
vn -0.2040563 0.9414001 -0.2685646
vn -0.2040563 0.9414001 -0.2685646
vn -0.2040563 0.9414001 -0.2685646
vn -0.8750246 0.4786564 -0.07224987
vn -0.8750246 0.4786564 -0.07224987
vn -0.8750246 0.4786564 -0.07224987
vn -0.8821189 0.4648118 -0.07626478
vn -0.884269 0.4638896 -0.05361733
vn -0.9207314 0.3776506 -0.09815113
vn -0.9207314 0.3776506 -0.09815111
vn -0.9207314 0.3776506 -0.09815111
vn -0.9247721 0.3766398 -0.05421275
vn -0.9176525 0.394887 -0.04447728
vn -0.9176525 0.3948869 -0.04447728
vn -0.9114038 0.3831431 0.1501485
vn -0.9114038 0.3831431 0.1501485
vn -0.9114038 0.3831431 0.1501485
vn -0.8915815 0.4147414 0.1818568
vn -0.8915815 0.4147415 0.1818568
vn -0.8915815 0.4147415 0.1818568
vn -0.6077746 0.3162886 0.7284034
vn -0.6077746 0.3162886 0.7284034
vn -0.6077746 0.3162886 0.7284034
vn -0.6205125 0.3096061 0.7204917
vn -0.6205125 0.309606 0.7204917
vn -0.1682539 0.4948794 0.8525169
vn -0.1682539 0.4948794 0.8525169
vn -0.1682539 0.4948794 0.8525168
vn -0.8107607 0.3650332 0.457622
vn -0.8107607 0.3650332 0.457622
vn -0.8107607 0.3650332 0.457622
vn -0.7768035 0.3873091 0.4965561
vn -0.7768035 0.3873091 0.4965561
vn -0.7768036 0.387309 0.4965561
vn -0.9422126 0.3333207 -0.03365565
vn -0.9422126 0.3333207 -0.03365565
vn -0.9422126 0.3333207 -0.03365565
vn -0.8994473 0.4369948 0.005496266
vn -0.8994473 0.4369948 0.005496265
vn -0.8994473 0.4369948 0.005496266
vn -0.9709221 0.235516 -0.04292498
vn -0.9709221 0.235516 -0.04292497
vn -0.9709221 0.235516 -0.04292498
vn -0.9429963 0.3317025 0.02704328
vn -0.9429963 0.3317025 0.02704328
vn -0.9429963 0.3317025 0.02704328
vn -0.9841136 0.117001 0.1335335
vn -0.9841136 0.117001 0.1335336
vn -0.9841136 0.117001 0.1335336
vn -0.6394235 0.251635 0.7265105
vn -0.6394235 0.251635 0.7265105
vn -0.6394235 0.2516349 0.7265105
vn -0.6662768 0.2328021 0.7084337
vn -0.7000731 0.2431852 0.6713856
vn -0.7000731 0.2431852 0.6713856
vn -0.7000731 0.2431852 0.6713856
vn -0.8776357 0.1383038 0.458942
vn -0.8776357 0.1383038 0.4589419
vn -0.8776357 0.1383038 0.4589419
vn -0.9714321 0.2325214 0.04747073
vn -0.9714321 0.2325214 0.04747073
vn -0.9714321 0.2325214 0.04747073
vn -0.937439 0.1477045 0.315264
vn -0.9374391 0.1477045 0.315264
vn -0.9374391 0.1477045 0.315264
g map_water04_0
f 3/3/3 2/2/2 1/1/1
f 6/6/6 5/5/5 4/4/4
f 9/9/9 8/8/8 7/7/7
f 10/10/10 7/7/7 8/8/8
f 7/7/7 11/11/11 9/9/9
f 14/14/14 13/13/13 12/12/12
f 17/17/17 16/16/16 15/15/15
f 17/17/17 15/15/15 18/18/18
f 18/18/18 20/20/20 19/19/19
f 21/21/21 19/19/19 20/20/20
f 20/20/20 18/18/18 22/22/22
f 25/25/25 24/24/24 23/23/23
f 23/23/23 26/26/26 25/25/25
f 27/27/27 25/25/25 26/26/26
f 29/29/29 28/28/28 27/27/27
f 32/32/32 31/31/31 30/30/30
f 35/35/35 34/34/34 33/33/33
f 36/36/36 33/33/33 34/34/34
f 33/33/33 37/37/37 35/35/35
f 34/34/34 35/35/35 38/38/38
f 35/35/35 40/40/40 39/39/39
f 43/43/43 42/42/42 41/41/41
f 46/46/46 45/45/45 44/44/44
f 49/49/49 48/48/48 47/47/47
f 50/50/50 47/47/47 48/48/48
f 53/53/53 52/52/52 51/51/51
f 56/56/56 55/55/55 54/54/54
f 56/56/56 54/54/54 57/57/57
f 60/60/60 59/59/59 58/58/58
f 63/63/63 62/62/62 61/61/61
f 64/64/64 61/61/61 62/62/62
f 62/62/62 65/65/65 64/64/64
f 68/68/68 67/67/67 66/66/66
f 66/66/66 69/69/69 68/68/68
f 71/71/71 70/70/70 69/69/69
f 74/74/74 73/73/73 72/72/72
f 77/77/77 76/76/76 75/75/75
f 80/80/80 79/79/79 78/78/78
f 78/78/78 81/81/81 80/80/80
f 82/82/82 80/80/80 81/81/81
f 85/85/85 84/84/84 83/83/83
f 88/88/88 87/87/87 86/86/86
f 91/91/91 90/90/90 89/89/89
f 94/94/94 93/93/93 92/92/92
f 97/97/97 96/96/96 95/95/95
f 100/100/100 99/99/99 98/98/98
f 103/103/103 102/102/102 101/101/101
f 106/106/106 105/105/105 104/104/104
f 109/109/109 108/108/108 107/107/107
f 110/110/110 107/107/107 108/108/108
f 113/113/113 112/112/112 111/111/111
f 116/116/116 115/115/115 114/114/114
f 119/119/119 118/118/118 117/117/117
f 122/122/122 121/121/121 120/120/120
