g Plane001
v -0.9460161 -0.5852907 0.02682375
v -0.6441498 -0.4180647 0.02968053
v -0.6308314 -0.5852907 0.02682375
v -0.9653431 -0.4180647 0.02730469
v -0.3222736 -0.4180648 0.03110604
v -0.3154582 -0.5852907 0.02682375
v -7.812163E-08 -0.4180648 0.0315812
v 1.017449E-09 -0.5852907 0.02682375
v 0.3222735 -0.4180648 0.03110604
v 0.3154583 -0.5852907 0.02682375
v 0.6441498 -0.4180647 0.02968053
v 0.6308315 -0.5852907 0.02682375
v 0.9653428 -0.4180647 0.02730469
v 0.9460161 -0.5852907 0.02682375
v -0.64273 -0.2508388 0.0315889
v -0.9608558 -0.2508388 0.02764835
v -0.3219385 -0.2508388 0.03395322
v -7.934276E-08 -0.2508388 0.03474133
v 0.3219384 -0.2508388 0.03395322
v 0.6427299 -0.2508388 0.03158889
v 0.9608554 -0.2508388 0.02764835
v -0.6218798 -0.08361296 0.03254654
v -0.9289892 -0.08361302 0.0278409
v -0.3116588 -0.08361311 0.03536991
v -8.037487E-08 -0.08361302 0.03631103
v 0.3116586 -0.08361302 0.03536991
v 0.6218796 -0.08361299 0.03254653
v 0.928989 -0.08361302 0.0278409
v -0.5754821 0.08361309 0.03255114
v -0.8594375 0.08361302 0.02786854
v -0.2879612 0.08361296 0.0353607
v 6.26846E-09 0.08361296 0.03629722
v 0.2879611 0.08361302 0.0353607
v 0.5754822 0.08361302 0.03255114
v 0.8594372 0.08361302 0.02786854
v -0.5135168 0.250839 0.03160042
v -0.7627041 0.2508389 0.02771743
v -0.2569863 0.2508389 0.0339302
v -3.885662E-08 0.2508389 0.0347068
v 0.2569863 0.2508388 0.0339302
v 0.5135168 0.2508389 0.03160041
v 0.7627041 0.2508389 0.02771743
v -0.4417278 0.4180651 0.02969205
v -0.6605695 0.418065 0.02737378
v -0.22175 0.4180647 0.03108301
v 2.333363E-09 0.418065 0.03154667
v 0.2217501 0.418065 0.03108301
v 0.4417278 0.418065 0.02969205
v 0.6605695 0.418065 0.02737378
v -0.3651164 0.5852908 0.02682375
v -0.5485093 0.5852907 0.02682375
v -0.1828607 0.5852907 0.02682375
v 1.069466E-10 0.5852907 0.02682375
v 0.1828607 0.5852907 0.02682375
v 0.3651165 0.5852907 0.02682375
v 0.5485093 0.5852907 0.02682375
vt 1 0
vt 0.857143 0.1666667
vt 1 0.1666667
vt 0.857143 -6.244484E-09
vt 0.8571429 0.3333333
vt 1 0.3333333
vt 0.8571429 0.5
vt 1 0.5
vt 0.8571429 0.6666667
vt 1 0.6666667
vt 0.8571429 0.8333334
vt 1 0.8333334
vt 0.8571429 1
vt 1 1
vt 0.7142859 0.1666667
vt 0.7142859 -1.248897E-08
vt 0.7142859 0.3333333
vt 0.7142858 0.5
vt 0.7142858 0.6666667
vt 0.7142858 0.8333334
vt 0.7142858 1
vt 0.5714287 0.1666667
vt 0.5714287 -1.873345E-08
vt 0.5714287 0.3333333
vt 0.5714287 0.5
vt 0.5714287 0.6666667
vt 0.5714287 0.8333334
vt 0.5714287 1
vt 0.4285715 0.1666666
vt 0.4285715 -2.497794E-08
vt 0.4285715 0.3333333
vt 0.4285715 0.5
vt 0.4285715 0.6666667
vt 0.4285715 0.8333334
vt 0.4285715 1
vt 0.2857144 0.1666666
vt 0.2857144 -3.122242E-08
vt 0.2857144 0.3333333
vt 0.2857144 0.5
vt 0.2857144 0.6666666
vt 0.2857143 0.8333333
vt 0.2857143 0.9999999
vt 0.1428573 0.1666666
vt 0.1428573 -3.74669E-08
vt 0.1428573 0.3333333
vt 0.1428573 0.5
vt 0.1428573 0.6666666
vt 0.1428572 0.8333333
vt 0.1428572 0.9999999
vt 1.192093E-07 0.1666666
vt 1.192093E-07 -4.371139E-08
vt 1.192093E-07 0.3333333
vt 1.192093E-07 0.5
vt 1.192093E-07 0.6666666
vt 1.192093E-07 0.8333333
vt 1.192093E-07 0.9999999
vn -0.005177016 -0.007737397 0.9999567
vn -0.005114018 -0.01365522 0.9998937
vn -0.00162583 -0.01855744 0.9998265
vn -0.009169239 -0.004231645 0.999949
vn -0.002354437 -0.02082006 0.9997805
vn -0.0005273039 -0.02606145 0.9996602
vn 0.000423209 -0.02330758 0.9997283
vn 0.0005123018 -0.02800522 0.9996077
vn 0.003235463 -0.02113829 0.9997713
vn 0.001492945 -0.02438402 0.9997016
vn 0.00610271 -0.014286 0.9998793
vn 0.002419551 -0.0151776 0.9998819
vn 0.004950219 -0.004637866 0.999977
vn 0 -0.002875993 0.9999959
vn -0.0093789 -0.0073819 0.9999288
vn -0.01329597 -0.00101812 0.9999111
vn -0.004538768 -0.01223387 0.9999148
vn 0.0002672978 -0.01391381 0.9999031
vn 0.005095259 -0.01245306 0.9999095
vn 0.01000052 -0.007814677 0.9999195
vn 0.01052448 -0.001974847 0.9999427
vn -0.01198327 -7.343593E-05 0.9999282
vn -0.01561277 0.003370232 0.9998724
vn -0.005884815 -0.003373773 0.999977
vn 0.0001379902 -0.004534426 0.9999897
vn 0.00615568 -0.003548454 0.9999747
vn 0.01225731 -0.0004152399 0.9999248
vn 0.01409051 0.002307237 0.9998981
vn -0.01297947 0.007300823 0.9998891
vn -0.01630816 0.008093323 0.9998343
vn -0.006420916 0.005484393 0.9999644
vn 3.47892E-06 0.004797881 0.9999885
vn 0.006389201 0.005210707 0.999966
vn 0.01291042 0.006772025 0.9998937
vn 0.01596379 0.00734009 0.9998456
vn -0.01220977 0.01363145 0.9998326
vn -0.01471231 0.01093427 0.999832
vn -0.006057463 0.0140116 0.9998835
vn -0.0001752621 0.014042 0.9999014
vn 0.005660229 0.01351899 0.9998926
vn 0.01162949 0.01242867 0.9998552
vn 0.01597748 0.01104881 0.9998113
vn -0.008445558 0.01807926 0.9998009
vn -0.009001922 0.009978089 0.9999097
vn -0.004358273 0.02208924 0.9997465
vn -0.0004232856 0.02316222 0.9997317
vn 0.00344514 0.02119918 0.9997693
vn 0.007335949 0.01615305 0.9998426
vn 0.01263499 0.01239795 0.9998434
vn -0.002111195 0.01584451 0.9998722
vn 0 0.003289111 0.9999946
vn -0.001546752 0.02430374 0.9997034
vn -0.000615073 0.02766176 0.9996172
vn 0.0007040884 0.02627877 0.9996544
vn 0.002290265 0.02048001 0.9997876
vn 0.005678714 0.01352429 0.9998924
g Plane001_0
f 3/3/3 2/2/2 1/1/1
f 4/4/4 1/1/1 2/2/2
f 2/2/2 3/3/3 5/5/5
f 6/6/6 5/5/5 3/3/3
f 5/5/5 6/6/6 7/7/7
f 8/8/8 7/7/7 6/6/6
f 7/7/7 8/8/8 9/9/9
f 10/10/10 9/9/9 8/8/8
f 9/9/9 10/10/10 11/11/11
f 12/12/12 11/11/11 10/10/10
f 11/11/11 12/12/12 13/13/13
f 14/14/14 13/13/13 12/12/12
f 2/2/2 15/15/15 4/4/4
f 16/16/16 4/4/4 15/15/15
f 5/5/5 17/17/17 2/2/2
f 15/15/15 2/2/2 17/17/17
f 7/7/7 18/18/18 5/5/5
f 17/17/17 5/5/5 18/18/18
f 9/9/9 19/19/19 7/7/7
f 18/18/18 7/7/7 19/19/19
f 11/11/11 20/20/20 9/9/9
f 19/19/19 9/9/9 20/20/20
f 13/13/13 21/21/21 11/11/11
f 20/20/20 11/11/11 21/21/21
f 15/15/15 22/22/22 16/16/16
f 23/23/23 16/16/16 22/22/22
f 17/17/17 24/24/24 15/15/15
f 22/22/22 15/15/15 24/24/24
f 18/18/18 25/25/25 17/17/17
f 24/24/24 17/17/17 25/25/25
f 19/19/19 26/26/26 18/18/18
f 25/25/25 18/18/18 26/26/26
f 20/20/20 27/27/27 19/19/19
f 26/26/26 19/19/19 27/27/27
f 21/21/21 28/28/28 20/20/20
f 27/27/27 20/20/20 28/28/28
f 22/22/22 29/29/29 23/23/23
f 30/30/30 23/23/23 29/29/29
f 24/24/24 31/31/31 22/22/22
f 29/29/29 22/22/22 31/31/31
f 25/25/25 32/32/32 24/24/24
f 31/31/31 24/24/24 32/32/32
f 26/26/26 33/33/33 25/25/25
f 32/32/32 25/25/25 33/33/33
f 27/27/27 34/34/34 26/26/26
f 33/33/33 26/26/26 34/34/34
f 28/28/28 35/35/35 27/27/27
f 34/34/34 27/27/27 35/35/35
f 29/29/29 36/36/36 30/30/30
f 37/37/37 30/30/30 36/36/36
f 31/31/31 38/38/38 29/29/29
f 36/36/36 29/29/29 38/38/38
f 32/32/32 39/39/39 31/31/31
f 38/38/38 31/31/31 39/39/39
f 33/33/33 40/40/40 32/32/32
f 39/39/39 32/32/32 40/40/40
f 34/34/34 41/41/41 33/33/33
f 40/40/40 33/33/33 41/41/41
f 35/35/35 42/42/42 34/34/34
f 41/41/41 34/34/34 42/42/42
f 36/36/36 43/43/43 37/37/37
f 44/44/44 37/37/37 43/43/43
f 38/38/38 45/45/45 36/36/36
f 43/43/43 36/36/36 45/45/45
f 39/39/39 46/46/46 38/38/38
f 45/45/45 38/38/38 46/46/46
f 40/40/40 47/47/47 39/39/39
f 46/46/46 39/39/39 47/47/47
f 41/41/41 48/48/48 40/40/40
f 47/47/47 40/40/40 48/48/48
f 42/42/42 49/49/49 41/41/41
f 48/48/48 41/41/41 49/49/49
f 43/43/43 50/50/50 44/44/44
f 51/51/51 44/44/44 50/50/50
f 45/45/45 52/52/52 43/43/43
f 50/50/50 43/43/43 52/52/52
f 46/46/46 53/53/53 45/45/45
f 52/52/52 45/45/45 53/53/53
f 47/47/47 54/54/54 46/46/46
f 53/53/53 46/46/46 54/54/54
f 48/48/48 55/55/55 47/47/47
f 54/54/54 47/47/47 55/55/55
f 49/49/49 56/56/56 48/48/48
f 55/55/55 48/48/48 56/56/56
