g Plane001
v -1.419755 -0.000916481 0
v -1.401029 -0.2303587 0
v -0.008204575 -1.399994E-05 0
v -0.00808342 -0.00193615 0
v -1.346863 -0.4494454 0
v -0.007979278 -0.002380829 0
v -1.260376 -0.6536061 0
v -0.007721405 -0.002967415 0
v -1.144865 -0.8394244 0
v -0.006967239 -0.004161071 0
v -1.003331 -1.004239 0
v -0.005663757 -0.005672493 0
v -0.8383861 -1.145626 0
v -0.004152641 -0.006973419 0
v -0.652451 -1.260976 0
v -0.002962227 -0.007724151 0
v -0.4481916 -1.347281 0
v -0.002378845 -0.007979965 0
v -0.2290291 -1.401247 0
v -0.001931419 -0.008084183 0
v 0.0004579925 -1.419755 0
v 6.942749E-06 -0.008204651 0
v 0.2299152 -1.401102 0
v 0.001934586 -0.008083648 0
v 0.4490272 -1.347002 0
v 0.002380142 -0.007979431 0
v 0.6532206 -1.260577 0
v 0.002965546 -0.007722282 0
v 0.8390779 -1.145119 0
v 0.004158172 -0.006969261 0
v 1.003936 -1.003634 0
v 0.005669556 -0.005666542 0
v 1.145372 -0.8387326 0
v 0.006971397 -0.004155464 0
v 1.260776 -0.6528363 0
v 0.007723236 -0.002963829 0
v 1.347141 -0.4486095 0
v 0.00797966 -0.002379417 0
v 1.401175 -0.2294721 0
v 0.008083877 -0.001933021 0
v 1.419755 0.0001142883 0
v 0.008204651 -0.0001148605 0
v 1.401175 0.2294718 0
v 0.00808403 0.001932945 0
v 1.347142 0.4486088 0
v 0.00797966 0.002379379 0
v 1.260776 0.6528355 0
v 0.007723198 0.002963791 0
v 1.145373 0.8387316 0
v 0.006971397 0.004155426 0
v 1.003937 1.003633 0
v 0.005669441 0.005666504 0
v 0.8390787 1.145118 0
v 0.004158135 0.006969376 0
v 0.6532214 1.260576 0
v 0.002965622 0.007722282 0
v 0.4490281 1.347002 0
v 0.002379989 0.007979508 0
v 0.2299161 1.401102 0
v 0.001934471 0.008083724 0
v 0.0004631424 1.419755 0
v 2.861023E-06 0.008204727 0
v -0.2290278 1.401247 0
v -0.001931381 0.008084183 0
v -0.4481904 1.347281 0
v -0.002378693 0.007979888 0
v -0.6524501 1.260976 0
v -0.002962036 0.007724075 0
v -0.8383853 1.145627 0
v -0.00415245 0.006973495 0
v -1.003331 1.004239 0
v -0.005663643 0.005672493 0
v -1.144864 0.839425 0
v -0.006967125 0.00416111 0
v -1.260376 0.653607 0
v -0.007721405 0.002967377 0
v -1.346862 0.4494464 0
v -0.007979278 0.002380829 0
v -1.401029 0.2303601 0
v -0.008083344 0.001936111 0
v -1.419755 0.0008963394 0
v -0.008204651 3.559113E-05 0
vt 0 1
vt 0.025 1
vt 0 0
vt 0.025 0
vt 0.05 1
vt 0.05 0
vt 0.075 1
vt 0.075 0
vt 0.1 1
vt 0.1 0
vt 0.125 1
vt 0.125 0
vt 0.15 1
vt 0.15 0
vt 0.175 1
vt 0.175 0
vt 0.2 1
vt 0.2 0
vt 0.225 1
vt 0.225 0
vt 0.25 1
vt 0.25 0
vt 0.275 1
vt 0.275 0
vt 0.3 1
vt 0.3 0
vt 0.325 1
vt 0.325 0
vt 0.3500001 1
vt 0.3500001 0
vt 0.3750001 1
vt 0.3750001 0
vt 0.4000001 1
vt 0.4000001 0
vt 0.4250001 1
vt 0.4250001 0
vt 0.4500001 1
vt 0.4500001 0
vt 0.4750001 1
vt 0.4750001 0
vt 0.5000001 1
vt 0.5000001 0
vt 0.525 1
vt 0.525 0
vt 0.55 1
vt 0.55 0
vt 0.575 1
vt 0.575 0
vt 0.6 1
vt 0.6 0
vt 0.6249999 1
vt 0.6249999 0
vt 0.6499999 1
vt 0.6499999 0
vt 0.6749999 1
vt 0.6749999 0
vt 0.6999999 1
vt 0.6999999 0
vt 0.7249998 1
vt 0.7249998 0
vt 0.7499998 1
vt 0.7499998 0
vt 0.7749998 1
vt 0.7749998 0
vt 0.7999998 1
vt 0.7999998 0
vt 0.8249997 1
vt 0.8249997 0
vt 0.8499997 1
vt 0.8499997 0
vt 0.8749997 1
vt 0.8749997 0
vt 0.8999997 1
vt 0.8999997 0
vt 0.9249997 1
vt 0.9249997 0
vt 0.9499996 1
vt 0.9499996 0
vt 0.9749996 1
vt 0.9749996 0
vt 0.9999996 1
vt 0.9999996 0
vn 0 0 -1
vn 0 0 -1
vn 0 0 -1
vn 0 0 -1
vn 0 0 -1
vn 0 0 -1
vn 0 0 -1
vn 0 0 -1
vn 0 0 -1
vn 0 0 -1
vn 0 0 -1
vn 0 0 -1
vn 0 0 -1
vn 0 0 -1
vn 0 0 -1
vn 0 0 -1
vn 0 0 -1
vn 0 0 -1
vn 0 0 -1
vn 0 0 -1
vn 0 0 -1
vn 0 0 -1
vn 0 0 -1
vn 0 0 -1
vn 0 0 -1
vn 0 0 -1
vn 0 0 -1
vn 0 0 -1
vn 0 0 -1
vn 0 0 -1
vn 0 0 -1
vn 0 0 -1
vn 0 0 -1
vn 0 0 -1
vn 0 0 -1
vn 0 0 -1
vn 0 0 -1
vn 0 0 -1
vn 0 0 -1
vn 0 0 -1
vn 0 0 -1
vn 0 0 -1
vn 0 0 -1
vn 0 0 -1
vn 0 0 -1
vn 0 0 -1
vn 0 0 -1
vn 0 0 -1
vn 0 0 -1
vn 0 0 -1
vn 0 0 -1
vn 0 0 -1
vn 0 0 -1
vn 0 0 -1
vn 0 0 -1
vn 0 0 -1
vn 0 0 -1
vn 0 0 -1
vn 0 0 -1
vn 0 0 -1
vn 0 0 -1
vn 0 0 -1
vn 0 0 -1
vn 0 0 -1
vn 0 0 -1
vn 0 0 -1
vn 0 0 -1
vn 0 0 -1
vn 0 0 -1
vn 0 0 -1
vn 0 0 -1
vn 0 0 -1
vn 0 0 -1
vn 0 0 -1
vn 0 0 -1
vn 0 0 -1
vn 0 0 -1
vn 0 0 -1
vn 0 0 -1
vn 0 0 -1
vn 0 0 -1
vn 0 0 -1
g Plane001_0
f 3/3/3 2/2/2 1/1/1
f 2/2/2 3/3/3 4/4/4
f 4/4/4 5/5/5 2/2/2
f 5/5/5 4/4/4 6/6/6
f 6/6/6 7/7/7 5/5/5
f 7/7/7 6/6/6 8/8/8
f 8/8/8 9/9/9 7/7/7
f 9/9/9 8/8/8 10/10/10
f 10/10/10 11/11/11 9/9/9
f 11/11/11 10/10/10 12/12/12
f 12/12/12 13/13/13 11/11/11
f 13/13/13 12/12/12 14/14/14
f 14/14/14 15/15/15 13/13/13
f 15/15/15 14/14/14 16/16/16
f 16/16/16 17/17/17 15/15/15
f 17/17/17 16/16/16 18/18/18
f 18/18/18 19/19/19 17/17/17
f 19/19/19 18/18/18 20/20/20
f 20/20/20 21/21/21 19/19/19
f 21/21/21 20/20/20 22/22/22
f 22/22/22 23/23/23 21/21/21
f 23/23/23 22/22/22 24/24/24
f 24/24/24 25/25/25 23/23/23
f 25/25/25 24/24/24 26/26/26
f 26/26/26 27/27/27 25/25/25
f 27/27/27 26/26/26 28/28/28
f 28/28/28 29/29/29 27/27/27
f 29/29/29 28/28/28 30/30/30
f 30/30/30 31/31/31 29/29/29
f 31/31/31 30/30/30 32/32/32
f 32/32/32 33/33/33 31/31/31
f 33/33/33 32/32/32 34/34/34
f 34/34/34 35/35/35 33/33/33
f 35/35/35 34/34/34 36/36/36
f 36/36/36 37/37/37 35/35/35
f 37/37/37 36/36/36 38/38/38
f 38/38/38 39/39/39 37/37/37
f 39/39/39 38/38/38 40/40/40
f 40/40/40 41/41/41 39/39/39
f 41/41/41 40/40/40 42/42/42
f 42/42/42 43/43/43 41/41/41
f 43/43/43 42/42/42 44/44/44
f 44/44/44 45/45/45 43/43/43
f 45/45/45 44/44/44 46/46/46
f 46/46/46 47/47/47 45/45/45
f 47/47/47 46/46/46 48/48/48
f 48/48/48 49/49/49 47/47/47
f 49/49/49 48/48/48 50/50/50
f 50/50/50 51/51/51 49/49/49
f 51/51/51 50/50/50 52/52/52
f 52/52/52 53/53/53 51/51/51
f 53/53/53 52/52/52 54/54/54
f 54/54/54 55/55/55 53/53/53
f 55/55/55 54/54/54 56/56/56
f 56/56/56 57/57/57 55/55/55
f 57/57/57 56/56/56 58/58/58
f 58/58/58 59/59/59 57/57/57
f 59/59/59 58/58/58 60/60/60
f 60/60/60 61/61/61 59/59/59
f 61/61/61 60/60/60 62/62/62
f 62/62/62 63/63/63 61/61/61
f 63/63/63 62/62/62 64/64/64
f 64/64/64 65/65/65 63/63/63
f 65/65/65 64/64/64 66/66/66
f 66/66/66 67/67/67 65/65/65
f 67/67/67 66/66/66 68/68/68
f 68/68/68 69/69/69 67/67/67
f 69/69/69 68/68/68 70/70/70
f 70/70/70 71/71/71 69/69/69
f 71/71/71 70/70/70 72/72/72
f 72/72/72 73/73/73 71/71/71
f 73/73/73 72/72/72 74/74/74
f 74/74/74 75/75/75 73/73/73
f 75/75/75 74/74/74 76/76/76
f 76/76/76 77/77/77 75/75/75
f 77/77/77 76/76/76 78/78/78
f 78/78/78 79/79/79 77/77/77
f 79/79/79 78/78/78 80/80/80
f 80/80/80 81/81/81 79/79/79
f 81/81/81 80/80/80 82/82/82
