g Plane006
v -0.1328964 -0.4752129 0.07175788
v -0.1249128 -0.4977519 0.03587893
v -0.2349115 -0.4996727 0.07175788
v -0.2318014 -0.5233808 0.03587893
v -0.1222516 -0.5052649 -1.144409E-08
v -0.2307647 -0.5312835 1.144409E-08
v -0.1249128 -0.4977519 -0.03587894
v -0.2318014 -0.5233808 -0.03587892
v -0.1328964 -0.4752129 -0.07175788
v -0.2349115 -0.4996727 -0.07175786
v -0.02769068 -0.4516173 0.03587893
v -0.04009503 -0.4311752 0.07175788
v -0.02355594 -0.4584313 3.814697E-09
v -0.02769068 -0.4516173 -0.03587894
v -0.04009503 -0.4311752 -0.07175786
v 0.05737012 -0.3874728 0.03587893
v 0.04113065 -0.3699221 0.07175788
v 0.06278326 -0.3933229 1.144409E-08
v 0.05737012 -0.3874728 -0.03587892
v 0.04113065 -0.3699221 -0.07175785
v 0.1278281 -0.3077801 0.03587893
v 0.1084182 -0.2938158 0.07175788
v 0.134298 -0.312435 3.814697E-09
v 0.1278281 -0.3077801 -0.03587894
v 0.1084182 -0.2938158 -0.07175786
v 0.1812344 -0.2149778 0.03587893
v 0.1594054 -0.2052186 0.07175788
v 0.1885107 -0.2182308 3.814697E-09
v 0.1812344 -0.2149778 -0.03587892
v 0.1594054 -0.2052186 -0.07175786
v 0.2151043 -0.1115317 0.03587893
v 0.1917301 -0.1064926 0.07175788
v 0.2228956 -0.1132114 1.144409E-08
v 0.2151043 -0.1115317 -0.03587894
v 0.1917301 -0.1064926 -0.07175786
v 0.2269411 3.856921E-06 0.03587893
v 0.2030299 -3.051758E-08 0.07175788
v 0.2349115 5.152735E-06 1.144409E-08
v 0.2269411 3.856921E-06 -0.03587892
v 0.2030299 -3.051758E-08 -0.07175786
v 0.2151043 0.1115316 0.03587893
v 0.1917301 0.1064924 0.07175788
v 0.2228956 0.1132113 3.814697E-09
v 0.2151043 0.1115316 -0.03587892
v 0.1917301 0.1064924 -0.07175786
v 0.1812344 0.2149776 0.03587893
v 0.1594055 0.2052185 0.07175788
v 0.1885107 0.2182307 3.814697E-09
v 0.1812344 0.2149776 -0.03587892
v 0.1594055 0.2052185 -0.07175786
v 0.1278281 0.3077801 0.03587893
v 0.1084182 0.2938157 0.07175788
v 0.1342982 0.3124348 1.144409E-08
v 0.1278281 0.3077801 -0.03587892
v 0.1084182 0.2938157 -0.07175786
v 0.05737012 0.3874727 0.03587893
v 0.04113065 0.369922 0.07175786
v 0.06278326 0.3933229 1.120567E-08
v 0.05737012 0.3874727 -0.03587892
v 0.04113065 0.369922 -0.07175786
v -0.02769065 0.4516172 0.03587893
v -0.04009497 0.4311752 0.07175788
v -0.02355585 0.4584312 1.144409E-08
v -0.02769065 0.4516172 -0.03587892
v -0.04009497 0.4311752 -0.07175786
v -0.1249128 0.4977518 0.03587893
v -0.1328963 0.4752127 0.07175788
v -0.1222516 0.5052648 1.144409E-08
v -0.1249128 0.4977518 -0.03587892
v -0.1328963 0.4752127 -0.07175786
v -0.2318013 0.5233808 0.03587893
v -0.2349114 0.4996727 0.07175788
v -0.2307646 0.5312835 1.144409E-08
v -0.2318013 0.5233808 -0.03587892
v -0.2349114 0.4996727 -0.07175786
vt 0.9285714 8.628472E-08
vt 0.9285714 0.2500001
vt 1 8.940697E-08
vt 1 0.2500001
vt 0.9285714 0.5000001
vt 1 0.5000001
vt 0.9285714 0.7500001
vt 0.9999999 0.7500001
vt 0.9285714 1
vt 0.9999999 1
vt 0.8571428 0.2500001
vt 0.8571429 8.316248E-08
vt 0.8571428 0.5000001
vt 0.8571428 0.7500001
vt 0.8571428 1
vt 0.7857143 0.2500001
vt 0.7857143 8.004024E-08
vt 0.7857143 0.5000001
vt 0.7857143 0.7500001
vt 0.7857142 1
vt 0.7142857 0.2500001
vt 0.7142857 7.6918E-08
vt 0.7142857 0.5000001
vt 0.7142857 0.7500001
vt 0.7142857 1
vt 0.6428571 0.2500001
vt 0.6428571 7.379576E-08
vt 0.6428571 0.5000001
vt 0.6428571 0.7500001
vt 0.6428571 1
vt 0.5714285 0.2500001
vt 0.5714285 7.067352E-08
vt 0.5714285 0.5000001
vt 0.5714285 0.7500001
vt 0.5714285 1
vt 0.5 0.2500001
vt 0.5 6.755127E-08
vt 0.5 0.5000001
vt 0.4999999 0.7500001
vt 0.4999999 1
vt 0.4285714 0.2500001
vt 0.4285714 6.442903E-08
vt 0.4285714 0.5000001
vt 0.4285713 0.7500001
vt 0.4285713 1
vt 0.3571428 0.2500001
vt 0.3571428 6.130679E-08
vt 0.3571428 0.5000001
vt 0.3571427 0.7500001
vt 0.3571427 1
vt 0.2857142 0.2500001
vt 0.2857142 5.818454E-08
vt 0.2857142 0.5000001
vt 0.2857141 0.75
vt 0.2857141 1
vt 0.2142856 0.2500001
vt 0.2142856 5.50623E-08
vt 0.2142856 0.5000001
vt 0.2142856 0.75
vt 0.2142856 1
vt 0.142857 0.2500001
vt 0.142857 5.194006E-08
vt 0.142857 0.5000001
vt 0.142857 0.75
vt 0.142857 1
vt 0.07142842 0.2500001
vt 0.07142842 4.881781E-08
vt 0.07142842 0.5000001
vt 0.07142836 0.75
vt 0.07142836 1
vt -1.192093E-07 0.2500001
vt -1.192093E-07 4.569558E-08
vt -1.192093E-07 0.5000001
vt -1.192093E-07 0.75
vt -1.192093E-07 1
vn 0.2768376 -0.7847366 0.5545713
vn 0.3066591 -0.869113 0.3880757
vn 0.194351 -0.8105703 0.5524523
vn 0.2150722 -0.8969828 0.3862197
vn 0.3327452 -0.9430168 -1.090063E-07
vn 0.2331644 -0.9724373 6.210305E-07
vn 0.3066616 -0.869112 -0.388076
vn 0.2150699 -0.8969836 -0.3862192
vn 0.2768415 -0.7847356 -0.5545708
vn 0.1943477 -0.8105696 -0.5524544
vn 0.4774518 -0.7882663 0.3881702
vn 0.4310853 -0.7117695 0.5545715
vn 0.5180779 -0.8553334 -5.595854E-07
vn 0.4774512 -0.7882662 -0.3881711
vn 0.4310856 -0.7117712 -0.5545691
vn 0.6257948 -0.6765113 0.3882181
vn 0.5650637 -0.6108643 0.5545698
vn 0.6790546 -0.7340878 -2.425847E-07
vn 0.6257937 -0.6765122 -0.3882183
vn 0.565062 -0.6108661 -0.5545695
vn 0.7483931 -0.5377829 0.3881975
vn 0.6757734 -0.485576 0.5545684
vn 0.8120778 -0.5835493 5.198904E-07
vn 0.7483926 -0.5377842 -0.3881968
vn 0.6757713 -0.4855765 -0.5545706
vn 0.8417693 -0.3752208 0.3881157
vn 0.7600635 -0.3387568 0.5545695
vn 0.9133655 -0.4071406 5.548124E-07
vn 0.8417701 -0.3752197 -0.388115
vn 0.760063 -0.3387546 -0.5545716
vn 0.901196 -0.1931047 0.3880159
vn 0.8136761 -0.1742989 0.5545729
vn 0.9778026 -0.2095281 -6.493124E-07
vn 0.9011964 -0.1931006 -0.3880169
vn 0.8136795 -0.1742929 -0.5545698
vn 0.9216608 8.668862E-06 0.3879966
vn 0.8321404 2.933353E-06 0.5545651
vn 1 6.65237E-06 3.618651E-07
vn 0.921661 -2.14515E-07 -0.387996
vn 0.8321394 -1.105401E-05 -0.5545666
vn 0.9011956 0.1931025 0.3880178
vn 0.8136796 0.1742928 0.5545697
vn 0.9778017 0.2095321 1.055751E-06
vn 0.9011951 0.1931082 -0.3880163
vn 0.8136747 0.1743009 -0.5545744
vn 0.8417701 0.3752195 0.3881152
vn 0.7600629 0.3387545 0.5545716
vn 0.9133656 0.4071404 -5.696735E-07
vn 0.8417693 0.3752207 -0.3881158
vn 0.7600635 0.3387567 -0.5545695
vn 0.7483923 0.5377842 0.3881972
vn 0.6757713 0.4855764 0.5545707
vn 0.8120779 0.583549 -4.456204E-07
vn 0.7483929 0.5377828 -0.3881978
vn 0.6757734 0.4855759 -0.5545686
vn 0.6257938 0.6765121 0.3882183
vn 0.5650623 0.6108661 0.5545694
vn 0.6790546 0.7340877 3.168453E-07
vn 0.6257951 0.6765111 -0.3882181
vn 0.565064 0.610864 -0.55457
vn 0.4774511 0.7882664 0.3881707
vn 0.4310856 0.7117715 0.5545688
vn 0.5180779 0.8553334 5.100646E-07
vn 0.4774515 0.7882667 -0.3881698
vn 0.4310853 0.7117697 -0.5545713
vn 0.3066618 0.8691116 0.3880766
vn 0.2768417 0.7847355 0.5545708
vn 0.3327456 0.9430166 0
vn 0.3066595 0.8691126 -0.3880763
vn 0.2768379 0.7847366 -0.5545713
vn 0.2150713 0.8969833 0.3862192
vn 0.194349 0.8105692 0.5524545
vn 0.2331656 0.9724371 -4.140203E-07
vn 0.2150733 0.8969826 -0.3862199
vn 0.1943523 0.8105699 -0.5524523
g Plane006_0
f 3/3/3 2/2/2 1/1/1
f 2/2/2 3/3/3 4/4/4
f 4/4/4 5/5/5 2/2/2
f 5/5/5 4/4/4 6/6/6
f 6/6/6 7/7/7 5/5/5
f 7/7/7 6/6/6 8/8/8
f 8/8/8 9/9/9 7/7/7
f 9/9/9 8/8/8 10/10/10
f 11/11/11 1/1/1 2/2/2
f 1/1/1 11/11/11 12/12/12
f 2/2/2 13/13/13 11/11/11
f 13/13/13 2/2/2 5/5/5
f 5/5/5 14/14/14 13/13/13
f 14/14/14 5/5/5 7/7/7
f 7/7/7 15/15/15 14/14/14
f 15/15/15 7/7/7 9/9/9
f 16/16/16 12/12/12 11/11/11
f 12/12/12 16/16/16 17/17/17
f 11/11/11 18/18/18 16/16/16
f 18/18/18 11/11/11 13/13/13
f 13/13/13 19/19/19 18/18/18
f 19/19/19 13/13/13 14/14/14
f 14/14/14 20/20/20 19/19/19
f 20/20/20 14/14/14 15/15/15
f 21/21/21 17/17/17 16/16/16
f 17/17/17 21/21/21 22/22/22
f 16/16/16 23/23/23 21/21/21
f 23/23/23 16/16/16 18/18/18
f 18/18/18 24/24/24 23/23/23
f 24/24/24 18/18/18 19/19/19
f 19/19/19 25/25/25 24/24/24
f 25/25/25 19/19/19 20/20/20
f 26/26/26 22/22/22 21/21/21
f 22/22/22 26/26/26 27/27/27
f 21/21/21 28/28/28 26/26/26
f 28/28/28 21/21/21 23/23/23
f 23/23/23 29/29/29 28/28/28
f 29/29/29 23/23/23 24/24/24
f 24/24/24 30/30/30 29/29/29
f 30/30/30 24/24/24 25/25/25
f 31/31/31 27/27/27 26/26/26
f 27/27/27 31/31/31 32/32/32
f 26/26/26 33/33/33 31/31/31
f 33/33/33 26/26/26 28/28/28
f 28/28/28 34/34/34 33/33/33
f 34/34/34 28/28/28 29/29/29
f 29/29/29 35/35/35 34/34/34
f 35/35/35 29/29/29 30/30/30
f 36/36/36 32/32/32 31/31/31
f 32/32/32 36/36/36 37/37/37
f 31/31/31 38/38/38 36/36/36
f 38/38/38 31/31/31 33/33/33
f 33/33/33 39/39/39 38/38/38
f 39/39/39 33/33/33 34/34/34
f 34/34/34 40/40/40 39/39/39
f 40/40/40 34/34/34 35/35/35
f 41/41/41 37/37/37 36/36/36
f 37/37/37 41/41/41 42/42/42
f 36/36/36 43/43/43 41/41/41
f 43/43/43 36/36/36 38/38/38
f 38/38/38 44/44/44 43/43/43
f 44/44/44 38/38/38 39/39/39
f 39/39/39 45/45/45 44/44/44
f 45/45/45 39/39/39 40/40/40
f 46/46/46 42/42/42 41/41/41
f 42/42/42 46/46/46 47/47/47
f 41/41/41 48/48/48 46/46/46
f 48/48/48 41/41/41 43/43/43
f 43/43/43 49/49/49 48/48/48
f 49/49/49 43/43/43 44/44/44
f 44/44/44 50/50/50 49/49/49
f 50/50/50 44/44/44 45/45/45
f 51/51/51 47/47/47 46/46/46
f 47/47/47 51/51/51 52/52/52
f 46/46/46 53/53/53 51/51/51
f 53/53/53 46/46/46 48/48/48
f 48/48/48 54/54/54 53/53/53
f 54/54/54 48/48/48 49/49/49
f 49/49/49 55/55/55 54/54/54
f 55/55/55 49/49/49 50/50/50
f 56/56/56 52/52/52 51/51/51
f 52/52/52 56/56/56 57/57/57
f 51/51/51 58/58/58 56/56/56
f 58/58/58 51/51/51 53/53/53
f 53/53/53 59/59/59 58/58/58
f 59/59/59 53/53/53 54/54/54
f 54/54/54 60/60/60 59/59/59
f 60/60/60 54/54/54 55/55/55
f 61/61/61 57/57/57 56/56/56
f 57/57/57 61/61/61 62/62/62
f 56/56/56 63/63/63 61/61/61
f 63/63/63 56/56/56 58/58/58
f 58/58/58 64/64/64 63/63/63
f 64/64/64 58/58/58 59/59/59
f 59/59/59 65/65/65 64/64/64
f 65/65/65 59/59/59 60/60/60
f 66/66/66 62/62/62 61/61/61
f 62/62/62 66/66/66 67/67/67
f 61/61/61 68/68/68 66/66/66
f 68/68/68 61/61/61 63/63/63
f 63/63/63 69/69/69 68/68/68
f 69/69/69 63/63/63 64/64/64
f 64/64/64 70/70/70 69/69/69
f 70/70/70 64/64/64 65/65/65
f 71/71/71 67/67/67 66/66/66
f 67/67/67 71/71/71 72/72/72
f 66/66/66 73/73/73 71/71/71
f 73/73/73 66/66/66 68/68/68
f 68/68/68 74/74/74 73/73/73
f 74/74/74 68/68/68 69/69/69
f 69/69/69 75/75/75 74/74/74
f 75/75/75 69/69/69 70/70/70
