g polySurface5
v -0.5111139 0.03159633 -0.03651312
v -0.5226139 0.04405282 0.02899676
v -0.5101798 -0.1175146 0.03625395
v -0.4986798 -0.1299711 -0.02925592
v -0.4483684 -0.2669692 0.04491492
v -0.4368683 -0.2794257 -0.02059497
v -0.3432305 -0.3896812 0.05413184
v -0.3317304 -0.4021377 -0.01137803
v -0.2050576 -0.4736391 0.06300251
v -0.1935576 -0.4860955 -0.002507381
v -0.04737512 -0.5106239 0.07065865
v -0.03587511 -0.5230805 0.005148782
v 0.1143819 -0.497016 0.07635073
v 0.1258819 -0.5094724 0.0108409
v 0.2643795 -0.4341468 0.07952169
v 0.2758795 -0.4466032 0.01401182
v 0.3879351 -0.3281707 0.07986102
v 0.3994351 -0.3406272 0.01435116
v 0.4729539 -0.1894613 0.07733563
v 0.4844539 -0.2019178 0.01182574
v 0.5111139 -0.03159645 0.0721926
v 0.5226139 -0.04405295 0.006682729
v 0.2689927 -0.3537147 -0.0683432
v 0.2689927 -0.3777604 -0.0003202629
v 0.3703931 -0.2778588 0.007468481
v 0.3703931 -0.2538131 -0.06055444
v 0.435537 -0.1519354 0.01728599
v 0.435537 -0.1278898 -0.05073696
v -0.4357207 -0.1273313 -0.05069341
v -0.4357207 -0.151377 0.01732951
v -0.370743 -0.2773837 0.007505503
v -0.370743 -0.253338 -0.0605174
v -0.2694742 -0.377415 -0.0002933502
v -0.2694742 -0.3533694 -0.06831627
v -0.1418274 -0.4416792 -0.00530365
v -0.1418274 -0.4176335 -0.07332658
v -0.000297622 -0.4638857 -0.007035007
v -0.000297622 -0.43984 -0.07505792
v 0.1412613 -0.4418606 -0.00531784
v 0.1412613 -0.417815 -0.07334073
v 0.2689927 -0.3777604 -0.0003202629
v 0.2689927 -0.3537147 -0.0683432
v 0.2359886 -0.3044652 -0.04076207
v 0.1984399 -0.3044652 0.02531207
v 0.2803218 -0.2213003 0.03024978
v 0.3178704 -0.2213002 -0.03582434
v -0.2806041 -0.2209047 -0.07191426
v -0.3181527 -0.2209048 -0.00584012
v -0.2363772 -0.3041777 -0.0009088039
v -0.1988286 -0.3041776 -0.06698295
v -0.1333013 -0.3576757 0.005307016
v -0.09575269 -0.3576756 -0.06076714
v -0.01901461 -0.3761618 0.01219889
v 0.01853401 -0.3761618 -0.05387526
v 0.09529557 -0.3578267 0.01909219
v 0.1328442 -0.3578266 -0.046982
v 0.1984399 -0.3044652 0.02531207
v 0.2359886 -0.3044652 -0.04076207
vt 0.5 -0.09537277
vt 0.3 -0.09537292
vt 0.3 0.004258931
vt 0.5 0.00425896
vt 0.3 0.1038912
vt 0.5 0.1038912
vt 0.3 0.203523
vt 0.5 0.203523
vt 0.3 0.303156
vt 0.5 0.3031557
vt 0.3 0.4027874
vt 0.5 0.4027873
vt 0.3 0.5024193
vt 0.5 0.5024191
vt 0.3 0.6020512
vt 0.5 0.6020509
vt 0.3 0.7016835
vt 0.5 0.701683
vt 0.3 0.8013161
vt 0.5 0.8013153
vt 0.3 0.9009474
vt 0.5 0.9009474
vt 0.7 -0.992061
vt 0.5 -0.9920613
vt 0.5 -0.8924292
vt 0.7 -0.8924292
vt 0.5 -0.7927974
vt 0.7 -0.7927972
vt 0.7 0.4027873
vt 0.5 0.4027874
vt 0.5 0.5024193
vt 0.7 0.5024191
vt 0.5 0.6020512
vt 0.7 0.6020509
vt 0.5 0.7016835
vt 0.7 0.701683
vt 0.5 0.8013161
vt 0.7 0.8013153
vt 0.5 0.9009474
vt 0.7 0.9009474
vt 0.5 1.00058
vt 0.7 1.000579
vt 1 0.003465094
vt 0.8 0.003464974
vt 0.8 0.05292363
vt 1 0.05292363
vt 1 0.7453448
vt 0.8 0.7453449
vt 0.8 0.7948034
vt 1 0.7948033
vt 0.8 0.8442622
vt 1 0.844262
vt 0.8 0.8937212
vt 1 0.8937208
vt 0.8 0.9431795
vt 1 0.9431795
vt 0.8 0.9926385
vt 1 0.9926382
vn -0.9934291 0.07270011 -0.08839239
vn -0.9934291 0.07270012 -0.0883924
vn -0.96953 -0.2378377 -0.05869142
vn -0.96953 -0.2378377 -0.05869142
vn -0.8507267 -0.5250941 -0.0232453
vn -0.8507266 -0.5250942 -0.0232453
vn -0.6486482 -0.7609507 0.01447617
vn -0.6486482 -0.7609507 0.01447617
vn -0.3830755 -0.9223201 0.05078072
vn -0.3830755 -0.9223201 0.05078072
vn -0.08000487 -0.9934065 0.0821147
vn -0.08000486 -0.9934065 0.08211469
vn 0.2308972 -0.9672513 0.1054104
vn 0.2308973 -0.9672513 0.1054104
vn 0.5191979 -0.8464147 0.1183877
vn 0.5191978 -0.8464147 0.1183877
vn 0.7566754 -0.6427254 0.1197766
vn 0.7566754 -0.6427254 0.1197766
vn 0.9200844 -0.3761215 0.109441
vn 0.9200844 -0.3761216 0.109441
vn 0.993429 -0.07270127 0.08839262
vn 0.993429 -0.07270128 0.08839262
vn 0.5872586 -0.7984713 -0.1325554
vn 0.5872588 -0.7984712 -0.1325554
vn 0.8086349 -0.5803677 -0.09634778
vn 0.8086349 -0.5803677 -0.09634778
vn 0.9508556 -0.3054542 -0.05070893
vn 0.9508556 -0.3054542 -0.05070894
vn -0.9512571 -0.3042352 -0.05050653
vn -0.9512571 -0.3042352 -0.05050653
vn -0.8093987 -0.5793307 -0.09617534
vn -0.8093987 -0.5793307 -0.09617537
vn -0.5883107 -0.7977173 -0.13243
vn -0.5883105 -0.7977173 -0.13243
vn -0.3096347 -0.9380177 -0.1557216
vn -0.3096347 -0.9380177 -0.1557216
vn -0.0006496446 -0.9864984 -0.1637702
vn -0.0006496396 -0.9864984 -0.1637702
vn 0.3083982 -0.938414 -0.1557875
vn 0.3083981 -0.938414 -0.1557875
vn 0.5872588 -0.7984712 -0.1325554
vn 0.5872586 -0.7984713 -0.1325554
vn 0.5774478 -0.8093992 0.1068967
vn 0.5774478 -0.8093992 0.1068967
vn 0.7951257 -0.5883105 0.147193
vn 0.7951257 -0.5883105 0.147193
vn -0.7958765 -0.5872597 -0.147332
vn -0.7958766 -0.5872596 -0.147332
vn -0.5784822 -0.8086349 -0.1070882
vn -0.5784822 -0.8086349 -0.1070882
vn -0.3044621 -0.9508555 -0.05636182
vn -0.3044621 -0.9508555 -0.05636181
vn -0.0006387819 -0.9999998 -0.0001182073
vn -0.0006388017 -0.9999998 -0.0001182105
vn 0.303246 -0.9512573 0.0561368
vn 0.303246 -0.9512573 0.0561368
vn 0.5774478 -0.8093992 0.1068967
vn 0.5774478 -0.8093992 0.1068967
g polySurface5_0
f 3/3/3 2/2/2 1/1/1
f 4/4/4 3/3/3 1/1/1
f 5/5/5 3/3/3 4/4/4
f 6/6/6 5/5/5 4/4/4
f 7/7/7 5/5/5 6/6/6
f 8/8/8 7/7/7 6/6/6
f 9/9/9 7/7/7 8/8/8
f 10/10/10 9/9/9 8/8/8
f 11/11/11 9/9/9 10/10/10
f 12/12/12 11/11/11 10/10/10
f 13/13/13 11/11/11 12/12/12
f 14/14/14 13/13/13 12/12/12
f 15/15/15 13/13/13 14/14/14
f 16/16/16 15/15/15 14/14/14
f 17/17/17 15/15/15 16/16/16
f 18/18/18 17/17/17 16/16/16
f 19/19/19 17/17/17 18/18/18
f 20/20/20 19/19/19 18/18/18
f 21/21/21 19/19/19 20/20/20
f 22/22/22 21/21/21 20/20/20
f 25/25/25 24/24/24 23/23/23
f 26/26/26 25/25/25 23/23/23
f 27/27/27 25/25/25 26/26/26
f 28/28/28 27/27/27 26/26/26
f 31/31/31 30/30/30 29/29/29
f 32/32/32 31/31/31 29/29/29
f 33/33/33 31/31/31 32/32/32
f 34/34/34 33/33/33 32/32/32
f 35/35/35 33/33/33 34/34/34
f 36/36/36 35/35/35 34/34/34
f 37/37/37 35/35/35 36/36/36
f 38/38/38 37/37/37 36/36/36
f 39/39/39 37/37/37 38/38/38
f 40/40/40 39/39/39 38/38/38
f 41/41/41 39/39/39 40/40/40
f 42/42/42 41/41/41 40/40/40
f 45/45/45 44/44/44 43/43/43
f 46/46/46 45/45/45 43/43/43
f 49/49/49 48/48/48 47/47/47
f 50/50/50 49/49/49 47/47/47
f 51/51/51 49/49/49 50/50/50
f 52/52/52 51/51/51 50/50/50
f 53/53/53 51/51/51 52/52/52
f 54/54/54 53/53/53 52/52/52
f 55/55/55 53/53/53 54/54/54
f 56/56/56 55/55/55 54/54/54
f 57/57/57 55/55/55 56/56/56
f 58/58/58 57/57/57 56/56/56
