g Pyramid001
v 0 0 1.2
v 0.0025 -0.0025 1.08
v -0.0025 -0.0025 1.08
v 0.005 -0.005 0.96
v -0.005 -0.005 0.96
v 0.009096375 -0.009096375 0.84
v -0.009096375 -0.009096375 0.84
v 0.01289571 -0.01275824 0.72
v -0.01293731 -0.01368949 0.72
v 0.01791123 -0.01818536 0.6
v -0.01627426 -0.01744427 0.6
v 0.02043208 -0.02161868 0.48
v -0.01961118 -0.0207794 0.48
v 0.02547033 -0.02871597 0.36
v -0.02419765 -0.02579588 0.36
v 0.02880955 -0.03283946 0.24
v -0.02330015 -0.02864724 0.24
v 0.0284051 -0.03041242 0.1199999
v -0.02806056 -0.02787576 0.1199999
v 0.025 -0.025 0
v -0.025 -0.025 0
v 0 0 1.2
v 0.0025 0.0025 1.08
v 0.0025 -0.0025 1.08
v 0.005 0.005 0.96
v 0.005 -0.005 0.96
v 0.009096375 0.009096375 0.84
v 0.009096375 -0.009096375 0.84
v 0.01417785 0.0129916 0.72
v 0.01289571 -0.01275824 0.72
v 0.01791489 0.01634697 0.6
v 0.01791123 -0.01818536 0.6
v 0.02085172 0.02050116 0.48
v 0.02043208 -0.02161868 0.48
v 0.02251012 0.02299702 0.36
v 0.02547033 -0.02871597 0.36
v 0.02925436 0.0279718 0.24
v 0.02880955 -0.03283946 0.24
v 0.02674537 0.02625739 0.1199999
v 0.0284051 -0.03041242 0.1199999
v 0.025 0.025 0
v 0.025 -0.025 0
v 0 0 1.2
v -0.0025 0.0025 1.08
v 0.0025 0.0025 1.08
v -0.005 0.005 0.96
v 0.005 0.005 0.96
v -0.009096375 0.009096375 0.84
v 0.009096375 0.009096375 0.84
v -0.01125876 0.01341124 0.72
v 0.01417785 0.0129916 0.72
v -0.01459571 0.01758566 0.6
v 0.01791489 0.01634697 0.6
v -0.01750895 0.02180239 0.48
v 0.02085172 0.02050116 0.48
v -0.02209946 0.02970845 0.36
v 0.02251012 0.02299702 0.36
v -0.01828499 0.03656711 0.24
v 0.02925436 0.0279718 0.24
v -0.03280383 0.02706831 0.1199999
v 0.02674537 0.02625739 0.1199999
v -0.025 0.025 0
v 0.025 0.025 0
v 0 0 1.2
v -0.0025 -0.0025 1.08
v -0.0025 0.0025 1.08
v -0.005 -0.005 0.96
v -0.005 0.005 0.96
v -0.009096375 -0.009096375 0.84
v -0.009096375 0.009096375 0.84
v -0.01293731 -0.01368949 0.72
v -0.01125876 0.01341124 0.72
v -0.01627426 -0.01744427 0.6
v -0.01459571 0.01758566 0.6
v -0.01961118 -0.0207794 0.48
v -0.01750895 0.02180239 0.48
v -0.02419765 -0.02579588 0.36
v -0.02209946 0.02970845 0.36
v -0.02330015 -0.02864724 0.24
v -0.01828499 0.03656711 0.24
v -0.02806056 -0.02787576 0.1199999
v -0.03280383 0.02706831 0.1199999
v -0.025 -0.025 0
v -0.025 0.025 0
v -0.025 -0.025 0
v 0.025 -0.025 0
v 0 0 0
v 0.025 0.025 0
v -0.025 0.025 0
vt 0.5 1
vt 0.55 0.9
vt 0.45 0.9
vt 0.6 0.8000001
vt 0.4 0.8000001
vt 0.65 0.7
vt 0.35 0.7
vt 0.7 0.6
vt 0.3 0.6
vt 0.75 0.5
vt 0.25 0.5
vt 0.8 0.4
vt 0.2 0.4
vt 0.85 0.3
vt 0.15 0.3
vt 0.9 0.2
vt 0.09999996 0.2
vt 0.95 0.09999996
vt 0.04999995 0.09999996
vt 1 0
vt 0 0
vt 0.5 1
vt 0.55 0.9
vt 0.45 0.9
vt 0.6 0.8000001
vt 0.4 0.8000001
vt 0.65 0.7
vt 0.35 0.7
vt 0.7 0.6
vt 0.3 0.6
vt 0.75 0.5
vt 0.25 0.5
vt 0.8 0.4
vt 0.2 0.4
vt 0.85 0.3
vt 0.15 0.3
vt 0.9 0.2
vt 0.09999996 0.2
vt 0.95 0.09999996
vt 0.04999995 0.09999996
vt 1 0
vt 0 0
vt 0.5 1
vt 0.55 0.9
vt 0.45 0.9
vt 0.6 0.8000001
vt 0.4 0.8000001
vt 0.65 0.7
vt 0.35 0.7
vt 0.7 0.6
vt 0.3 0.6
vt 0.75 0.5
vt 0.25 0.5
vt 0.8 0.4
vt 0.2 0.4
vt 0.85 0.3
vt 0.15 0.3
vt 0.9 0.2
vt 0.09999996 0.2
vt 0.95 0.09999996
vt 0.04999995 0.09999996
vt 1 0
vt 0 0
vt 0.5 1
vt 0.55 0.9
vt 0.45 0.9
vt 0.6 0.8000001
vt 0.4 0.8000001
vt 0.65 0.7
vt 0.35 0.7
vt 0.7 0.6
vt 0.3 0.6
vt 0.75 0.5
vt 0.25 0.5
vt 0.8 0.4
vt 0.2 0.4
vt 0.85 0.3
vt 0.15 0.3
vt 0.9 0.2
vt 0.09999996 0.2
vt 0.95 0.09999996
vt 0.04999995 0.09999996
vt 1 0
vt 0 0
vt 0 1
vt 1 1
vt 0.5 0.5
vt 1 -3.027916E-08
vt 0 -3.027916E-08
vn 0 -0.999783 0.02082881
vn 0 -0.999783 0.02082882
vn 0 -0.999783 0.02082882
vn 0 -0.9996194 0.02758899
vn 0 -0.9996194 0.02758898
vn 0 -0.9994792 0.03227117
vn 0.002445785 -0.9994616 0.03271867
vn 0.03428641 -0.9985434 0.04165914
vn 0.03086611 -0.9986967 0.04064786
vn -0.01778902 -0.9993622 0.03096278
vn -0.02158939 -0.9993169 0.02999395
vn -0.02099743 -0.9988307 0.04354575
vn -0.02569358 -0.9987966 0.04177536
vn -0.05483042 -0.99771 0.03960268
vn -0.06149256 -0.9974222 0.0369807
vn -0.07750611 -0.9969884 0.002618167
vn -0.07524976 -0.9971585 0.003523765
vn -0.04953136 -0.9984343 -0.02599332
vn -0.03917563 -0.9989948 -0.02178783
vn -0.01247688 -0.9994878 -0.02946931
vn 0 -0.9997129 -0.02395779
vn 0.999783 0 0.02082881
vn 0.999783 0 0.02082882
vn 0.999783 0 0.02082882
vn 0.9996194 0 0.02758899
vn 0.9996194 0 0.02758898
vn 0.9992663 0 0.03829924
vn 0.9992843 -0.003367858 0.03767766
vn 0.998372 -0.04734086 0.03181542
vn 0.9984477 -0.04526466 0.03245629
vn 0.9994775 -0.003415901 0.03214097
vn 0.9994689 -0.001179366 0.03256478
vn 0.9998027 -0.009087707 0.01766184
vn 0.9997869 -0.001175153 0.02060963
vn 0.9976903 0.04998316 0.04599854
vn 0.9979058 0.04727674 0.04414789
vn 0.9999723 0.001040208 0.007362881
vn 0.9999793 -0.002128114 0.006076969
vn 0.9996513 0.02378777 -0.01146871
vn 0.9996176 0.02563681 -0.01036419
vn 0.9996642 0.008202782 -0.02457854
vn 0.9995977 0 -0.02836445
vn 0 0.999783 0.02082881
vn 0 0.999783 0.02082882
vn 0 0.999783 0.02082882
vn 0 0.9996194 0.02758899
vn 0 0.9996194 0.02758898
vn 0 0.9993859 0.03504046
vn 0.00110044 0.9993916 0.0348609
vn 0.01570158 0.9993032 0.03386167
vn 0.0183224 0.9992777 0.03329211
vn 0.03662917 0.9988155 0.03202954
vn 0.03764012 0.998785 0.03180784
vn 0.03420582 0.9981576 0.05011528
vn 0.04712085 0.9978608 0.04531498
vn 0.1373249 0.9894481 0.04619825
vn 0.1522098 0.9874983 0.04097807
vn 0.174642 0.9843166 -0.02492101
vn 0.1537887 0.9880241 -0.01254826
vn 0.03373301 0.999096 -0.02587276
vn 0.01191705 0.9998207 -0.01471597
vn 0.00392917 0.9999182 -0.01217169
vn 0 0.9999451 -0.01047767
vn -0.999783 0 0.02082881
vn -0.999783 0 0.02082882
vn -0.999783 0 0.02082882
vn -0.9996194 0 0.02758899
vn -0.9996194 0 0.02758898
vn -0.9994543 0 0.03302959
vn -0.9994719 0.004402781 0.0321949
vn -0.9979861 0.0588637 0.02363673
vn -0.9978921 0.06052944 0.02339885
vn -0.9984246 0.04882565 0.02764887
vn -0.9984589 0.04800284 0.02784928
vn -0.9983041 0.04915625 0.03118872
vn -0.9983557 0.04767439 0.03182867
vn -0.999124 0.03901127 0.01514278
vn -0.9989528 0.04411947 0.0121142
vn -0.9974114 0.07131804 0.009179278
vn -0.9983544 0.05441543 0.01809129
vn -0.9975134 -0.06011223 0.03679217
vn -0.9960396 -0.07537051 0.04716419
vn -0.9982251 -0.02340794 -0.05475973
vn -0.9978921 0 -0.06489485
vn 0 0 -1
vn 0 0 -1
vn 0 0 -1
vn 0 0 -1
vn 0 0 -1
g Pyramid001_0
f 3/3/3 2/2/2 1/1/1
f 2/2/2 3/3/3 4/4/4
f 5/5/5 4/4/4 3/3/3
f 4/4/4 5/5/5 6/6/6
f 7/7/7 6/6/6 5/5/5
f 6/6/6 7/7/7 8/8/8
f 9/9/9 8/8/8 7/7/7
f 8/8/8 9/9/9 10/10/10
f 11/11/11 10/10/10 9/9/9
f 10/10/10 11/11/11 12/12/12
f 13/13/13 12/12/12 11/11/11
f 12/12/12 13/13/13 14/14/14
f 15/15/15 14/14/14 13/13/13
f 14/14/14 15/15/15 16/16/16
f 17/17/17 16/16/16 15/15/15
f 16/16/16 17/17/17 18/18/18
f 19/19/19 18/18/18 17/17/17
f 18/18/18 19/19/19 20/20/20
f 21/21/21 20/20/20 19/19/19
f 24/24/24 23/23/23 22/22/22
f 23/23/23 24/24/24 25/25/25
f 26/26/26 25/25/25 24/24/24
f 25/25/25 26/26/26 27/27/27
f 28/28/28 27/27/27 26/26/26
f 27/27/27 28/28/28 29/29/29
f 30/30/30 29/29/29 28/28/28
f 29/29/29 30/30/30 31/31/31
f 32/32/32 31/31/31 30/30/30
f 31/31/31 32/32/32 33/33/33
f 34/34/34 33/33/33 32/32/32
f 33/33/33 34/34/34 35/35/35
f 36/36/36 35/35/35 34/34/34
f 35/35/35 36/36/36 37/37/37
f 38/38/38 37/37/37 36/36/36
f 37/37/37 38/38/38 39/39/39
f 40/40/40 39/39/39 38/38/38
f 39/39/39 40/40/40 41/41/41
f 42/42/42 41/41/41 40/40/40
f 45/45/45 44/44/44 43/43/43
f 44/44/44 45/45/45 46/46/46
f 47/47/47 46/46/46 45/45/45
f 46/46/46 47/47/47 48/48/48
f 49/49/49 48/48/48 47/47/47
f 48/48/48 49/49/49 50/50/50
f 51/51/51 50/50/50 49/49/49
f 50/50/50 51/51/51 52/52/52
f 53/53/53 52/52/52 51/51/51
f 52/52/52 53/53/53 54/54/54
f 55/55/55 54/54/54 53/53/53
f 54/54/54 55/55/55 56/56/56
f 57/57/57 56/56/56 55/55/55
f 56/56/56 57/57/57 58/58/58
f 59/59/59 58/58/58 57/57/57
f 58/58/58 59/59/59 60/60/60
f 61/61/61 60/60/60 59/59/59
f 60/60/60 61/61/61 62/62/62
f 63/63/63 62/62/62 61/61/61
f 66/66/66 65/65/65 64/64/64
f 65/65/65 66/66/66 67/67/67
f 68/68/68 67/67/67 66/66/66
f 67/67/67 68/68/68 69/69/69
f 70/70/70 69/69/69 68/68/68
f 69/69/69 70/70/70 71/71/71
f 72/72/72 71/71/71 70/70/70
f 71/71/71 72/72/72 73/73/73
f 74/74/74 73/73/73 72/72/72
f 73/73/73 74/74/74 75/75/75
f 76/76/76 75/75/75 74/74/74
f 75/75/75 76/76/76 77/77/77
f 78/78/78 77/77/77 76/76/76
f 77/77/77 78/78/78 79/79/79
f 80/80/80 79/79/79 78/78/78
f 79/79/79 80/80/80 81/81/81
f 82/82/82 81/81/81 80/80/80
f 81/81/81 82/82/82 83/83/83
f 84/84/84 83/83/83 82/82/82
f 87/87/87 86/86/86 85/85/85
f 87/87/87 88/88/88 86/86/86
f 87/87/87 89/89/89 88/88/88
f 87/87/87 85/85/85 89/89/89
