g Ring_wide
v 0.9944846 0 -0.1045153
v 0.6906556 0 -0.07259098
v 0.6792837 0 -0.1443864
v 0.9781637 0 -0.2080531
v 0.6604705 0 -0.2146
v 0.9511183 0 -0.3091471
v 0.6344204 0 -0.2824624
v 0.913508 0 -0.4066989
v 0.6014196 0 -0.3472299
v 0.866026 0 -0.5001149
v 0.5618294 0 -0.4081933
v 0.8090385 0 -0.5877476
v 0.5160838 0 -0.4646845
v 0.7430308 0 -0.6691693
v 0.4646843 0 -0.516084
v 0.6690928 0 -0.7432141
v 0.4081932 0 -0.5618297
v 0.5877245 0 -0.8090023
v 0.3472296 0 -0.6014197
v 0.5001376 0 -0.866026
v 0.282462 0 -0.6344205
v 0.4066758 0 -0.913588
v 0.2145998 0 -0.6604705
v 0.308979 0 -0.9510037
v 0.1443861 0 -0.6792838
v 0.2078774 0 -0.9780185
v 0.07259064 0 -0.6906556
v 0.104557 0 -0.9945759
v -1.218986E-07 0 -0.6944594
v -9.778887E-08 0 -0.9998862
v -0.07259093 0 -0.6906556
v -0.1045477 0 -0.9944767
v -0.1443863 0 -0.6792838
v -0.2078699 0 -0.9780109
v -0.2146 0 -0.6604705
v -0.3089486 0 -0.9509159
v -0.2824623 0 -0.6344204
v -0.4067904 0 -0.9135574
v -0.3472297 0 -0.6014195
v -0.5001682 0 -0.8660258
v -0.4081933 0 -0.5618296
v -0.5876597 0 -0.8089964
v -0.4646844 0 -0.5160838
v -0.6691615 0 -0.7431108
v -0.5160838 0 -0.4646843
v -0.7431891 0 -0.6691042
v -0.5618295 0 -0.4081932
v -0.809027 0 -0.5879189
v -0.6014194 0 -0.3472296
v -0.8660258 0 -0.500004
v -0.6344202 0 -0.2824621
v -0.9135229 0 -0.4068741
v -0.6604702 0 -0.2145998
v -0.9510226 0 -0.3089904
v -0.6792837 0 -0.1443863
v -0.9780793 0 -0.207885
v -0.6906555 0 -0.07259084
v -0.9946634 0 -0.1045103
v -0.6944591 0 -4.697609E-08
v -1.000004 0 3.723017E-08
v -0.6906554 0 0.07259071
v -0.9946634 0 0.1045028
v -0.6792836 0 0.1443861
v -0.9780793 0 0.2078698
v -0.6604702 0 0.2145998
v -0.9509919 0 0.3089904
v -0.6344201 0 0.2824619
v -0.9135276 0 0.4068703
v -0.6014193 0 0.3472295
v -0.8660256 0 0.5000002
v -0.5618294 0 0.4081931
v -0.8090363 0 0.5879189
v -0.5160837 0 0.4646842
v -0.7431792 0 0.6691042
v -0.4646841 0 0.5160836
v -0.6692032 0 0.7431088
v -0.408193 0 0.5618293
v -0.587648 0 0.8089972
v -0.3472295 0 0.6014192
v -0.4999962 0 0.8660256
v -0.2824619 0 0.63442
v -0.4067366 0 0.9135456
v -0.2145997 0 0.6604699
v -0.3090169 0 0.9510567
v -0.1443862 0 0.6792834
v -0.2079116 0 0.9781477
v -0.07259075 0 0.6906552
v -0.1045284 0 0.994522
v 1.780283E-08 0 0.6944589
v 1.043081E-07 0 1
v 0.07259075 0 0.6906551
v 0.1045286 0 0.9945219
v 0.1443862 0 0.6792834
v 0.2079118 0 0.9781477
v 0.2145998 0 0.6604699
v 0.3090171 0 0.9510566
v 0.2824619 0 0.6344199
v 0.4067368 0 0.9135454
v 0.3472295 0 0.601419
v 0.5000001 0 0.8660254
v 0.4081929 0 0.5618291
v 0.5877853 0 0.8090169
v 0.4646841 0 0.5160834
v 0.6691307 0 0.7431448
v 0.5160835 0 0.4646839
v 0.7431449 0 0.6691306
v 0.5618291 0 0.4081928
v 0.809017 0 0.5877852
v 0.601419 0 0.3472294
v 0.8660254 0 0.5
v 0.6344199 0 0.2824619
v 0.9135454 0 0.4067366
v 0.6604699 0 0.2145997
v 0.9510565 0 0.309017
v 0.6792833 0 0.1443861
v 0.9781476 0 0.2079117
v 0.6906551 0 0.07259066
v 0.9945219 0 0.1045285
v 0.6944588 0 -7.284668E-08
v 1 0 0
v 0.6906556 0 -0.07259098
v 0.9944846 0 -0.1045153
vt 0 0
vt 0 1
vt 0.01666668 1
vt 0.01666668 0
vt 0.03333333 1
vt 0.03333333 0
vt 0.05000001 1
vt 0.05000001 0
vt 0.06666666 1
vt 0.06666666 0
vt 0.08333334 1
vt 0.08333334 0
vt 0.09999999 1
vt 0.09999999 0
vt 0.1166667 1
vt 0.1166667 0
vt 0.1333333 1
vt 0.1333333 0
vt 0.15 1
vt 0.15 0
vt 0.1666667 1
vt 0.1666667 0
vt 0.1833333 1
vt 0.1833333 0
vt 0.2 1
vt 0.2 0
vt 0.2166667 1
vt 0.2166667 0
vt 0.2333333 1
vt 0.2333333 0
vt 0.25 1
vt 0.25 0
vt 0.2666667 1
vt 0.2666667 0
vt 0.2833333 1
vt 0.2833333 0
vt 0.3 1
vt 0.3 0
vt 0.3166667 1
vt 0.3166667 0
vt 0.3333333 1
vt 0.3333333 0
vt 0.35 1
vt 0.35 0
vt 0.3666667 1
vt 0.3666667 0
vt 0.3833333 1
vt 0.3833333 0
vt 0.4 1
vt 0.4 0
vt 0.4166667 1
vt 0.4166667 0
vt 0.4333333 1
vt 0.4333333 0
vt 0.45 1
vt 0.45 0
vt 0.4666667 1
vt 0.4666667 0
vt 0.4833333 1
vt 0.4833333 0
vt 0.5 1
vt 0.5 0
vt 0.5166667 1
vt 0.5166667 0
vt 0.5333334 1
vt 0.5333334 0
vt 0.55 1
vt 0.55 0
vt 0.5666667 1
vt 0.5666667 0
vt 0.5833333 1
vt 0.5833333 0
vt 0.6 1
vt 0.6 0
vt 0.6166667 1
vt 0.6166667 0
vt 0.6333333 1
vt 0.6333333 0
vt 0.65 1
vt 0.65 0
vt 0.6666667 1
vt 0.6666667 0
vt 0.6833333 1
vt 0.6833333 0
vt 0.7 1
vt 0.7 0
vt 0.7166667 1
vt 0.7166667 0
vt 0.7333333 1
vt 0.7333333 0
vt 0.75 1
vt 0.75 0
vt 0.7666667 1
vt 0.7666667 0
vt 0.7833333 1
vt 0.7833333 0
vt 0.8 1
vt 0.8 0
vt 0.8166667 1
vt 0.8166667 0
vt 0.8333334 1
vt 0.8333334 0
vt 0.85 1
vt 0.85 0
vt 0.8666667 1
vt 0.8666667 0
vt 0.8833333 1
vt 0.8833333 0
vt 0.9 1
vt 0.9 0
vt 0.9166666 1
vt 0.9166666 0
vt 0.9333333 1
vt 0.9333333 0
vt 0.95 1
vt 0.95 0
vt 0.9666667 1
vt 0.9666667 0
vt 0.9833333 1
vt 0.9833333 0
vt 1 1
vt 1 0
vn 0 1 0
vn 0 1 0
vn 0 1 0
vn 0 1 0
vn 0 1 0
vn 0 1 0
vn 0 1 0
vn 0 1 0
vn 0 1 0
vn 0 1 0
vn 0 1 0
vn 0 1 0
vn 0 1 0
vn 0 1 0
vn 0 1 0
vn 0 1 0
vn 0 1 0
vn 0 1 0
vn 0 1 0
vn 0 1 0
vn 0 1 0
vn 0 1 0
vn 0 1 0
vn 0 1 0
vn 0 1 0
vn 0 1 0
vn 0 1 0
vn 0 1 0
vn 0 1 0
vn 0 1 0
vn 0 1 0
vn 0 1 0
vn 0 1 0
vn 0 1 0
vn 0 1 0
vn 0 1 0
vn 0 1 0
vn 0 1 0
vn 0 1 0
vn 0 1 0
vn 0 1 0
vn 0 1 0
vn 0 1 0
vn 0 1 0
vn 0 1 0
vn 0 1 0
vn 0 1 0
vn 0 1 0
vn 0 1 0
vn 0 1 0
vn 0 1 0
vn 0 1 0
vn 0 1 0
vn 0 1 0
vn 0 1 0
vn 0 1 0
vn 0 1 0
vn 0 1 0
vn 0 1 0
vn 0 1 0
vn 0 1 0
vn 0 1 0
vn 0 1 0
vn 0 1 0
vn 0 1 0
vn 0 1 0
vn 0 1 0
vn 0 1 0
vn 0 1 0
vn 0 1 0
vn 0 1 0
vn 0 1 0
vn 0 1 0
vn 0 1 0
vn 0 1 0
vn 0 1 0
vn 0 1 0
vn 0 1 0
vn 0 1 0
vn 0 1 0
vn 0 1 0
vn 0 1 0
vn 0 1 0
vn 0 1 0
vn 0 1 0
vn 0 1 0
vn 0 1 0
vn 0 1 0
vn 0 1 0
vn 0 1 0
vn 0 1 0
vn 0 1 0
vn 0 1 0
vn 0 1 0
vn 0 1 0
vn 0 1 0
vn 0 1 0
vn 0 1 0
vn 0 1 0
vn 0 1 0
vn 0 1 0
vn 0 1 0
vn 0 1 0
vn 0 1 0
vn 0 1 0
vn 0 1 0
vn 0 1 0
vn 0 1 0
vn 0 1 0
vn 0 1 0
vn 0 1 0
vn 0 1 0
vn 0 1 0
vn 0 1 0
vn 0 1 0
vn 0 1 0
vn 0 1 0
vn 0 1 0
vn 0 1 0
vn 0 1 0
vn 0 1 0
vn 0 1 0
g Ring_wide_0
f 3/3/3 2/2/2 1/1/1
f 4/4/4 3/3/3 1/1/1
f 5/5/5 3/3/3 4/4/4
f 6/6/6 5/5/5 4/4/4
f 7/7/7 5/5/5 6/6/6
f 8/8/8 7/7/7 6/6/6
f 9/9/9 7/7/7 8/8/8
f 10/10/10 9/9/9 8/8/8
f 11/11/11 9/9/9 10/10/10
f 12/12/12 11/11/11 10/10/10
f 13/13/13 11/11/11 12/12/12
f 14/14/14 13/13/13 12/12/12
f 15/15/15 13/13/13 14/14/14
f 16/16/16 15/15/15 14/14/14
f 17/17/17 15/15/15 16/16/16
f 18/18/18 17/17/17 16/16/16
f 19/19/19 17/17/17 18/18/18
f 20/20/20 19/19/19 18/18/18
f 21/21/21 19/19/19 20/20/20
f 22/22/22 21/21/21 20/20/20
f 23/23/23 21/21/21 22/22/22
f 24/24/24 23/23/23 22/22/22
f 25/25/25 23/23/23 24/24/24
f 26/26/26 25/25/25 24/24/24
f 27/27/27 25/25/25 26/26/26
f 28/28/28 27/27/27 26/26/26
f 29/29/29 27/27/27 28/28/28
f 30/30/30 29/29/29 28/28/28
f 31/31/31 29/29/29 30/30/30
f 32/32/32 31/31/31 30/30/30
f 33/33/33 31/31/31 32/32/32
f 34/34/34 33/33/33 32/32/32
f 35/35/35 33/33/33 34/34/34
f 36/36/36 35/35/35 34/34/34
f 37/37/37 35/35/35 36/36/36
f 38/38/38 37/37/37 36/36/36
f 39/39/39 37/37/37 38/38/38
f 40/40/40 39/39/39 38/38/38
f 41/41/41 39/39/39 40/40/40
f 42/42/42 41/41/41 40/40/40
f 43/43/43 41/41/41 42/42/42
f 44/44/44 43/43/43 42/42/42
f 45/45/45 43/43/43 44/44/44
f 46/46/46 45/45/45 44/44/44
f 47/47/47 45/45/45 46/46/46
f 48/48/48 47/47/47 46/46/46
f 49/49/49 47/47/47 48/48/48
f 50/50/50 49/49/49 48/48/48
f 51/51/51 49/49/49 50/50/50
f 52/52/52 51/51/51 50/50/50
f 53/53/53 51/51/51 52/52/52
f 54/54/54 53/53/53 52/52/52
f 55/55/55 53/53/53 54/54/54
f 56/56/56 55/55/55 54/54/54
f 57/57/57 55/55/55 56/56/56
f 58/58/58 57/57/57 56/56/56
f 59/59/59 57/57/57 58/58/58
f 60/60/60 59/59/59 58/58/58
f 61/61/61 59/59/59 60/60/60
f 62/62/62 61/61/61 60/60/60
f 63/63/63 61/61/61 62/62/62
f 64/64/64 63/63/63 62/62/62
f 65/65/65 63/63/63 64/64/64
f 66/66/66 65/65/65 64/64/64
f 67/67/67 65/65/65 66/66/66
f 68/68/68 67/67/67 66/66/66
f 69/69/69 67/67/67 68/68/68
f 70/70/70 69/69/69 68/68/68
f 71/71/71 69/69/69 70/70/70
f 72/72/72 71/71/71 70/70/70
f 73/73/73 71/71/71 72/72/72
f 74/74/74 73/73/73 72/72/72
f 75/75/75 73/73/73 74/74/74
f 76/76/76 75/75/75 74/74/74
f 77/77/77 75/75/75 76/76/76
f 78/78/78 77/77/77 76/76/76
f 79/79/79 77/77/77 78/78/78
f 80/80/80 79/79/79 78/78/78
f 81/81/81 79/79/79 80/80/80
f 82/82/82 81/81/81 80/80/80
f 83/83/83 81/81/81 82/82/82
f 84/84/84 83/83/83 82/82/82
f 85/85/85 83/83/83 84/84/84
f 86/86/86 85/85/85 84/84/84
f 87/87/87 85/85/85 86/86/86
f 88/88/88 87/87/87 86/86/86
f 89/89/89 87/87/87 88/88/88
f 90/90/90 89/89/89 88/88/88
f 91/91/91 89/89/89 90/90/90
f 92/92/92 91/91/91 90/90/90
f 93/93/93 91/91/91 92/92/92
f 94/94/94 93/93/93 92/92/92
f 95/95/95 93/93/93 94/94/94
f 96/96/96 95/95/95 94/94/94
f 97/97/97 95/95/95 96/96/96
f 98/98/98 97/97/97 96/96/96
f 99/99/99 97/97/97 98/98/98
f 100/100/100 99/99/99 98/98/98
f 101/101/101 99/99/99 100/100/100
f 102/102/102 101/101/101 100/100/100
f 103/103/103 101/101/101 102/102/102
f 104/104/104 103/103/103 102/102/102
f 105/105/105 103/103/103 104/104/104
f 106/106/106 105/105/105 104/104/104
f 107/107/107 105/105/105 106/106/106
f 108/108/108 107/107/107 106/106/106
f 109/109/109 107/107/107 108/108/108
f 110/110/110 109/109/109 108/108/108
f 111/111/111 109/109/109 110/110/110
f 112/112/112 111/111/111 110/110/110
f 113/113/113 111/111/111 112/112/112
f 114/114/114 113/113/113 112/112/112
f 115/115/115 113/113/113 114/114/114
f 116/116/116 115/115/115 114/114/114
f 117/117/117 115/115/115 116/116/116
f 118/118/118 117/117/117 116/116/116
f 119/119/119 117/117/117 118/118/118
f 120/120/120 119/119/119 118/118/118
f 121/121/121 119/119/119 120/120/120
f 122/122/122 121/121/121 120/120/120
