g ring_wide_02
v 1.845815 -0.002474338 0
v 6.137964 -4.735065E-07 9.689331E-08
v 6.039325 1.095975 9.689331E-08
v 1.816057 0.3281698 0
v 5.746576 2.156726 9.689331E-08
v 1.727738 0.6481867 0
v 5.269128 3.148158 9.689331E-08
v 1.583697 0.9472909 0
v 4.622325 4.038404 9.689331E-08
v 1.388564 1.215869 0
v 3.826958 4.798855 9.689331E-08
v 1.14861 1.445288 0
v 2.908588 5.405065 9.689331E-08
v 0.8715476 1.628175 0
v 1.896735 5.837552 9.689331E-08
v 0.5662823 1.758652 0
v 0.8239189 6.082415 9.689331E-08
v 0.2426253 1.832525 0
v -0.2753789 6.131785 9.689331E-08
v -0.08902093 1.847419 0
v -0.08902093 1.847419 0
v -0.2753789 6.131785 9.689331E-08
v -1.365826 5.984074 9.689331E-08
v -0.4179969 1.802856 0
v -2.412374 5.64403 9.689331E-08
v -0.7337292 1.700269 0
v -3.381386 5.122583 9.689331E-08
v -1.02607 1.542954 0
v -4.241719 4.436491 9.689331E-08
v -1.285623 1.335967 0
v -4.965719 3.607806 9.689331E-08
v -1.504046 1.085962 0
v -5.530117 2.663163 9.689331E-08
v -1.674319 0.8009734 0
v -5.916772 1.632925 9.689331E-08
v -1.790968 0.4901615 0
v -6.113257 0.5502024 9.689331E-08
v -1.850246 0.1635159 0
v -6.113257 -0.5502042 9.689331E-08
v -1.850246 -0.1684649 0
v -5.916772 -1.632927 9.689331E-08
v -1.790968 -0.4951105 0
v -5.530117 -2.663166 9.689331E-08
v -1.674319 -0.8059224 0
v -4.965719 -3.607808 9.689331E-08
v -1.504046 -1.090911 0
v -4.241718 -4.436492 9.689331E-08
v -1.285623 -1.340916 0
v -3.381387 -5.122583 9.689331E-08
v -1.02607 -1.547902 0
v -2.412374 -5.644031 9.689331E-08
v -0.7337291 -1.705217 0
v -1.365825 -5.984075 9.689331E-08
v -0.4179966 -1.807805 0
v -0.2753771 -6.131786 9.689331E-08
v -0.08902039 -1.852368 0
v 0.8239213 -6.082416 9.689331E-08
v 0.2426261 -1.837473 0
v 1.896738 -5.837552 9.689331E-08
v 0.5662833 -1.7636 0
v 2.908592 -5.405064 9.689331E-08
v 0.8715487 -1.633123 0
v 3.826961 -4.798853 9.689331E-08
v 1.148611 -1.450236 0
v 4.622329 -4.038402 9.689331E-08
v 1.388565 -1.220816 0
v 5.269131 -3.148154 9.689331E-08
v 1.583698 -0.9522381 0
v 5.746578 -2.156721 9.689331E-08
v 1.727738 -0.6531337 0
v 6.039326 -1.09597 9.689331E-08
v 1.816057 -0.3331166 0
vt 0.75 0
vt 0.75 1
vt 0.7785714 1
vt 0.7785714 0
vt 0.8071429 1
vt 0.8071429 0
vt 0.8357143 1
vt 0.8357143 0
vt 0.8642857 1
vt 0.8642857 0
vt 0.8928572 1
vt 0.8928572 0
vt 0.9214285 1
vt 0.9214285 0
vt 0.95 1
vt 0.95 0
vt 0.9785714 1
vt 0.9785714 0
vt 1.007143 1
vt 1.007143 0
vt 0.00714286 0
vt 0.00714286 1
vt 0.03571426 1
vt 0.03571426 0
vt 0.0642857 1
vt 0.0642857 0
vt 0.0928571 1
vt 0.0928571 0
vt 0.1214285 1
vt 0.1214285 0
vt 0.15 1
vt 0.15 0
vt 0.1785714 1
vt 0.1785714 0
vt 0.2071429 1
vt 0.2071429 0
vt 0.2357143 1
vt 0.2357143 0
vt 0.2642857 1
vt 0.2642857 0
vt 0.2928572 1
vt 0.2928572 0
vt 0.3214286 1
vt 0.3214286 0
vt 0.3500001 1
vt 0.3500001 0
vt 0.3785715 1
vt 0.3785715 0
vt 0.4071429 1
vt 0.4071429 0
vt 0.4357143 1
vt 0.4357143 0
vt 0.4642858 1
vt 0.4642858 0
vt 0.4928572 1
vt 0.4928572 0
vt 0.5214286 1
vt 0.5214286 0
vt 0.5500001 1
vt 0.5500001 0
vt 0.5785715 1
vt 0.5785715 0
vt 0.607143 1
vt 0.607143 0
vt 0.6357144 1
vt 0.6357144 0
vt 0.6642858 1
vt 0.6642858 0
vt 0.6928573 1
vt 0.6928573 0
vt 0.7214287 1
vt 0.7214287 0
vn 0 0 -1
vn 0 0 -1
vn 0 0 -1
vn 0 0 -1
vn 0 0 -1
vn 0 0 -1
vn 0 0 -1
vn 0 0 -1
vn 0 0 -1
vn 0 0 -1
vn 0 0 -1
vn 0 0 -1
vn 0 0 -1
vn 0 0 -1
vn 0 0 -1
vn 0 0 -1
vn 0 0 -1
vn 0 0 -1
vn 0 0 -1
vn 0 0 -1
vn 0 0 -1
vn 0 0 -1
vn 0 0 -1
vn 0 0 -1
vn 0 0 -1
vn 0 0 -1
vn 0 0 -1
vn 0 0 -1
vn 0 0 -1
vn 0 0 -1
vn 0 0 -1
vn 0 0 -1
vn 0 0 -1
vn 0 0 -1
vn 0 0 -1
vn 0 0 -1
vn 0 0 -1
vn 0 0 -1
vn 0 0 -1
vn 0 0 -1
vn 0 0 -1
vn 0 0 -1
vn 0 0 -1
vn 0 0 -1
vn 0 0 -1
vn 0 0 -1
vn 0 0 -1
vn 0 0 -1
vn 0 0 -1
vn 0 0 -1
vn 0 0 -1
vn 0 0 -1
vn 0 0 -1
vn 0 0 -1
vn 0 0 -1
vn 0 0 -1
vn 0 0 -1
vn 0 0 -1
vn 0 0 -1
vn 0 0 -1
vn 0 0 -1
vn 0 0 -1
vn 0 0 -1
vn 0 0 -1
vn 0 0 -1
vn 0 0 -1
vn 0 0 -1
vn 0 0 -1
vn 0 0 -1
vn 0 0 -1
vn 0 0 -1
vn 0 0 -1
g ring_wide_02_0
f 3/3/3 2/2/2 1/1/1
f 4/4/4 3/3/3 1/1/1
f 5/5/5 3/3/3 4/4/4
f 6/6/6 5/5/5 4/4/4
f 7/7/7 5/5/5 6/6/6
f 8/8/8 7/7/7 6/6/6
f 9/9/9 7/7/7 8/8/8
f 10/10/10 9/9/9 8/8/8
f 11/11/11 9/9/9 10/10/10
f 12/12/12 11/11/11 10/10/10
f 13/13/13 11/11/11 12/12/12
f 14/14/14 13/13/13 12/12/12
f 15/15/15 13/13/13 14/14/14
f 16/16/16 15/15/15 14/14/14
f 17/17/17 15/15/15 16/16/16
f 18/18/18 17/17/17 16/16/16
f 19/19/19 17/17/17 18/18/18
f 20/20/20 19/19/19 18/18/18
f 23/23/23 22/22/22 21/21/21
f 24/24/24 23/23/23 21/21/21
f 25/25/25 23/23/23 24/24/24
f 26/26/26 25/25/25 24/24/24
f 27/27/27 25/25/25 26/26/26
f 28/28/28 27/27/27 26/26/26
f 29/29/29 27/27/27 28/28/28
f 30/30/30 29/29/29 28/28/28
f 31/31/31 29/29/29 30/30/30
f 32/32/32 31/31/31 30/30/30
f 33/33/33 31/31/31 32/32/32
f 34/34/34 33/33/33 32/32/32
f 35/35/35 33/33/33 34/34/34
f 36/36/36 35/35/35 34/34/34
f 37/37/37 35/35/35 36/36/36
f 38/38/38 37/37/37 36/36/36
f 39/39/39 37/37/37 38/38/38
f 40/40/40 39/39/39 38/38/38
f 41/41/41 39/39/39 40/40/40
f 42/42/42 41/41/41 40/40/40
f 43/43/43 41/41/41 42/42/42
f 44/44/44 43/43/43 42/42/42
f 45/45/45 43/43/43 44/44/44
f 46/46/46 45/45/45 44/44/44
f 47/47/47 45/45/45 46/46/46
f 48/48/48 47/47/47 46/46/46
f 49/49/49 47/47/47 48/48/48
f 50/50/50 49/49/49 48/48/48
f 51/51/51 49/49/49 50/50/50
f 52/52/52 51/51/51 50/50/50
f 53/53/53 51/51/51 52/52/52
f 54/54/54 53/53/53 52/52/52
f 55/55/55 53/53/53 54/54/54
f 56/56/56 55/55/55 54/54/54
f 57/57/57 55/55/55 56/56/56
f 58/58/58 57/57/57 56/56/56
f 59/59/59 57/57/57 58/58/58
f 60/60/60 59/59/59 58/58/58
f 61/61/61 59/59/59 60/60/60
f 62/62/62 61/61/61 60/60/60
f 63/63/63 61/61/61 62/62/62
f 64/64/64 63/63/63 62/62/62
f 65/65/65 63/63/63 64/64/64
f 66/66/66 65/65/65 64/64/64
f 67/67/67 65/65/65 66/66/66
f 68/68/68 67/67/67 66/66/66
f 69/69/69 67/67/67 68/68/68
f 70/70/70 69/69/69 68/68/68
f 71/71/71 69/69/69 70/70/70
f 72/72/72 71/71/71 70/70/70
f 2/2/2 71/71/71 72/72/72
f 1/1/1 2/2/2 72/72/72
