g ShockWave_A
v 0.04980067 0 0
v 0.04980067 0 0.707143
v 0.04904408 0.008647796 0.707143
v 0.04904408 0.008647796 0
v 0.04679732 0.01703283 0.707143
v 0.04679732 0.01703283 0
v 0.04312864 0.02490033 0.707143
v 0.04312864 0.02490033 0
v 0.03814952 0.03201125 0.707143
v 0.03814952 0.03201125 0
v 0.03201125 0.03814953 0.707143
v 0.03201125 0.03814953 0
v 0.02490033 0.04312865 0.707143
v 0.02490033 0.04312865 0
v 0.01703283 0.04679732 0.707143
v 0.01703283 0.04679732 0
v 0.008647798 0.04904408 0.707143
v 0.008647798 0.04904408 0
v 3.759846E-09 0.04980067 0.707143
v 3.759846E-09 0.04980067 0
v -0.00864779 0.04904408 0.707143
v -0.00864779 0.04904408 0
v -0.00864779 0.04904408 0
v -0.00864779 0.04904408 0.707143
v -0.01703282 0.04679732 0.707143
v -0.01703282 0.04679732 0
v -0.02490033 0.04312865 0.707143
v -0.02490033 0.04312865 0
v -0.03201124 0.03814953 0.707143
v -0.03201124 0.03814953 0
v -0.03814952 0.03201126 0.707143
v -0.03814952 0.03201126 0
v -0.04312864 0.02490035 0.707143
v -0.04312864 0.02490035 0
v -0.04679731 0.01703285 0.707143
v -0.04679731 0.01703285 0
v -0.04904408 0.008647813 0.707143
v -0.04904408 0.008647813 0
v -0.04980067 1.93931E-08 0.707143
v -0.04980067 1.93931E-08 0
v -0.04904409 -0.008647774 0.707143
v -0.04904409 -0.008647774 0
v -0.04679733 -0.01703281 0.707143
v -0.04679733 -0.01703281 0
v -0.04312865 -0.02490031 0.707143
v -0.04312865 -0.02490031 0
v -0.03814954 -0.03201123 0.707143
v -0.03814954 -0.03201123 0
v -0.03201127 -0.03814952 0.707143
v -0.03201127 -0.03814952 0
v -0.02490035 -0.04312863 0.707143
v -0.02490035 -0.04312863 0
v -0.01703285 -0.04679731 0.707143
v -0.01703285 -0.04679731 0
v -0.008647816 -0.04904408 0.707143
v -0.008647816 -0.04904408 0
v -2.315294E-08 -0.04980067 0.707143
v -2.315294E-08 -0.04980067 0
v 0.008647771 -0.04904409 0.707143
v 0.008647771 -0.04904409 0
v 0.01703281 -0.04679733 0.707143
v 0.01703281 -0.04679733 0
v 0.02490031 -0.04312866 0.707143
v 0.02490031 -0.04312866 0
v 0.03201123 -0.03814954 0.707143
v 0.03201123 -0.03814954 0
v 0.0381495 -0.03201128 0.707143
v 0.0381495 -0.03201128 0
v 0.04312863 -0.02490036 0.707143
v 0.04312863 -0.02490036 0
v 0.04679731 -0.01703287 0.707143
v 0.04679731 -0.01703287 0
v 0.04904407 -0.008647831 0.707143
v 0.04904407 -0.008647831 0
vt 0.75 0
vt 0.75 1
vt 0.7777777 1
vt 0.7777777 0
vt 0.8055555 1
vt 0.8055555 0
vt 0.8333333 1
vt 0.8333333 0
vt 0.861111 1
vt 0.861111 0
vt 0.8888889 1
vt 0.8888889 0
vt 0.9166667 1
vt 0.9166667 0
vt 0.9444444 1
vt 0.9444444 0
vt 0.9722222 1
vt 0.9722222 0
vt 0.9999999 1
vt 0.9999999 0
vt 1.027778 1
vt 1.027778 0
vt 0.02777777 0
vt 0.02777777 1
vt 0.05555554 1
vt 0.05555554 0
vt 0.08333331 1
vt 0.08333331 0
vt 0.1111111 1
vt 0.1111111 0
vt 0.1388889 1
vt 0.1388889 0
vt 0.1666666 1
vt 0.1666666 0
vt 0.1944444 1
vt 0.1944444 0
vt 0.2222222 1
vt 0.2222222 0
vt 0.2499999 1
vt 0.2499999 0
vt 0.2777777 1
vt 0.2777777 0
vt 0.3055555 1
vt 0.3055555 0
vt 0.3333333 1
vt 0.3333333 0
vt 0.361111 1
vt 0.361111 0
vt 0.3888888 1
vt 0.3888888 0
vt 0.4166666 1
vt 0.4166666 0
vt 0.4444444 1
vt 0.4444444 0
vt 0.4722221 1
vt 0.4722221 0
vt 0.4999999 1
vt 0.4999999 0
vt 0.5277777 1
vt 0.5277777 0
vt 0.5555555 1
vt 0.5555555 0
vt 0.5833333 1
vt 0.5833333 0
vt 0.611111 1
vt 0.611111 0
vt 0.6388888 1
vt 0.6388888 0
vt 0.6666666 1
vt 0.6666666 0
vt 0.6944443 1
vt 0.6944443 0
vt 0.722222 1
vt 0.722222 0
vn 1 -3.666205E-07 0
vn 1 -3.666205E-07 0
vn 0.9848077 0.1736482 0
vn 0.9848077 0.1736482 0
vn 0.9396926 0.3420202 0
vn 0.9396926 0.3420202 0
vn 0.8660254 0.4999999 0
vn 0.8660254 0.4999999 0
vn 0.7660446 0.6427875 0
vn 0.7660446 0.6427875 0
vn 0.6427876 0.7660444 0
vn 0.6427876 0.7660444 0
vn 0.4999997 0.8660256 0
vn 0.4999997 0.8660256 0
vn 0.34202 0.9396926 0
vn 0.34202 0.9396926 0
vn 0.1736483 0.9848077 0
vn 0.1736483 0.9848077 0
vn 0 1 0
vn 0 1 0
vn -0.173648 0.9848077 0
vn -0.173648 0.9848077 0
vn -0.173648 0.9848077 0
vn -0.173648 0.9848077 0
vn -0.3420199 0.9396927 0
vn -0.3420199 0.9396927 0
vn -0.4999999 0.8660255 0
vn -0.4999999 0.8660255 0
vn -0.6427874 0.7660446 0
vn -0.6427874 0.7660446 0
vn -0.7660442 0.6427878 0
vn -0.7660442 0.6427878 0
vn -0.8660253 0.5000002 0
vn -0.8660253 0.5000002 0
vn -0.9396926 0.3420203 0
vn -0.9396926 0.3420203 0
vn -0.9848077 0.1736486 0
vn -0.9848077 0.1736486 0
vn -1 5.523115E-07 0
vn -1 5.523115E-07 0
vn -0.9848078 -0.1736478 0
vn -0.9848078 -0.1736478 0
vn -0.9396927 -0.3420199 0
vn -0.9396927 -0.3420199 0
vn -0.8660257 -0.4999995 0
vn -0.8660257 -0.4999995 0
vn -0.766045 -0.642787 0
vn -0.766045 -0.642787 0
vn -0.6427878 -0.7660443 0
vn -0.6427878 -0.7660443 0
vn -0.5000002 -0.8660253 0
vn -0.5000002 -0.8660253 0
vn -0.3420206 -0.9396925 0
vn -0.3420206 -0.9396925 0
vn -0.1736486 -0.9848077 0
vn -0.1736486 -0.9848077 0
vn -5.570727E-07 -1 0
vn -5.570727E-07 -1 0
vn 0.1736477 -0.9848078 0
vn 0.1736477 -0.9848078 0
vn 0.3420198 -0.9396927 0
vn 0.3420198 -0.9396927 0
vn 0.4999993 -0.8660258 0
vn 0.4999993 -0.8660258 0
vn 0.642787 -0.7660449 0
vn 0.642787 -0.7660449 0
vn 0.7660441 -0.6427881 0
vn 0.7660441 -0.6427881 0
vn 0.8660251 -0.5000006 0
vn 0.8660251 -0.5000006 0
vn 0.9396924 -0.3420206 0
vn 0.9396924 -0.3420206 0
vn 0.9848077 -0.1736487 0
vn 0.9848077 -0.1736487 0
g ShockWave_A_0
f 3/3/3 2/2/2 1/1/1
f 4/4/4 3/3/3 1/1/1
f 5/5/5 3/3/3 4/4/4
f 6/6/6 5/5/5 4/4/4
f 7/7/7 5/5/5 6/6/6
f 8/8/8 7/7/7 6/6/6
f 9/9/9 7/7/7 8/8/8
f 10/10/10 9/9/9 8/8/8
f 11/11/11 9/9/9 10/10/10
f 12/12/12 11/11/11 10/10/10
f 13/13/13 11/11/11 12/12/12
f 14/14/14 13/13/13 12/12/12
f 15/15/15 13/13/13 14/14/14
f 16/16/16 15/15/15 14/14/14
f 17/17/17 15/15/15 16/16/16
f 18/18/18 17/17/17 16/16/16
f 19/19/19 17/17/17 18/18/18
f 20/20/20 19/19/19 18/18/18
f 21/21/21 19/19/19 20/20/20
f 22/22/22 21/21/21 20/20/20
f 25/25/25 24/24/24 23/23/23
f 26/26/26 25/25/25 23/23/23
f 27/27/27 25/25/25 26/26/26
f 28/28/28 27/27/27 26/26/26
f 29/29/29 27/27/27 28/28/28
f 30/30/30 29/29/29 28/28/28
f 31/31/31 29/29/29 30/30/30
f 32/32/32 31/31/31 30/30/30
f 33/33/33 31/31/31 32/32/32
f 34/34/34 33/33/33 32/32/32
f 35/35/35 33/33/33 34/34/34
f 36/36/36 35/35/35 34/34/34
f 37/37/37 35/35/35 36/36/36
f 38/38/38 37/37/37 36/36/36
f 39/39/39 37/37/37 38/38/38
f 40/40/40 39/39/39 38/38/38
f 41/41/41 39/39/39 40/40/40
f 42/42/42 41/41/41 40/40/40
f 43/43/43 41/41/41 42/42/42
f 44/44/44 43/43/43 42/42/42
f 45/45/45 43/43/43 44/44/44
f 46/46/46 45/45/45 44/44/44
f 47/47/47 45/45/45 46/46/46
f 48/48/48 47/47/47 46/46/46
f 49/49/49 47/47/47 48/48/48
f 50/50/50 49/49/49 48/48/48
f 51/51/51 49/49/49 50/50/50
f 52/52/52 51/51/51 50/50/50
f 53/53/53 51/51/51 52/52/52
f 54/54/54 53/53/53 52/52/52
f 55/55/55 53/53/53 54/54/54
f 56/56/56 55/55/55 54/54/54
f 57/57/57 55/55/55 56/56/56
f 58/58/58 57/57/57 56/56/56
f 59/59/59 57/57/57 58/58/58
f 60/60/60 59/59/59 58/58/58
f 61/61/61 59/59/59 60/60/60
f 62/62/62 61/61/61 60/60/60
f 63/63/63 61/61/61 62/62/62
f 64/64/64 63/63/63 62/62/62
f 65/65/65 63/63/63 64/64/64
f 66/66/66 65/65/65 64/64/64
f 67/67/67 65/65/65 66/66/66
f 68/68/68 67/67/67 66/66/66
f 69/69/69 67/67/67 68/68/68
f 70/70/70 69/69/69 68/68/68
f 71/71/71 69/69/69 70/70/70
f 72/72/72 71/71/71 70/70/70
f 73/73/73 71/71/71 72/72/72
f 74/74/74 73/73/73 72/72/72
f 2/2/2 73/73/73 74/74/74
f 1/1/1 2/2/2 74/74/74
