g SkillTrail_Model_3_theresa
v 0.06520594 -0.06653882 -1.938181
v -0.2732088 -0.0501605 -1.862005
v -0.4400567 -0.5743733 -2.225416
v -0.06089012 -0.592733 -2.312433
v -0.7997788 -0.556323 -2.06757
v -0.5924246 -0.03414448 -1.722109
v -1.127111 -0.5385103 -1.843055
v -0.8808192 -0.01842111 -1.522781
v -1.42497 -0.5194923 -1.530256
v -1.110762 -0.003781552 -1.281281
v -1.637956 -0.5018906 -1.184471
v -1.297507 0.01155554 -0.9807426
v -1.784028 -0.484262 -0.8016046
v -1.424029 0.02684894 -0.6485005
v -1.856902 -0.4665262 -0.3943166
v -1.485122 0.0421765 -0.2961032
v -1.849302 -0.4633483 0.174414
v -1.470611 0.05656893 0.03930051
v -1.748478 -0.4451075 0.584426
v -1.385596 0.0721502 0.389846
v -1.571552 -0.4439383 0.9716924
v -1.234304 0.08793533 0.7192407
v -1.311072 -0.4582699 1.337299
v -1.030238 0.1033403 1.004697
v -0.96222 -0.4859352 1.638865
v -0.7673811 0.1189888 1.239169
v -0.5861117 -0.512581 1.862314
v -0.4517216 0.1355096 1.427605
v -0.1717415 -0.5216552 2.012971
v -0.1039449 0.1522548 1.55261
v 0.3099347 -0.4994331 2.083456
v 0.2321534 0.167722 1.603805
v 0.7577653 -0.4789107 2.051771
v 0.604583 0.1847769 1.58001
v 1.194859 -0.4582674 1.93643
v 0.9670171 0.2018908 1.484652
v 1.605975 -0.4375905 1.740228
v 1.306238 0.2189919 1.320465
v 2.006071 -0.4149249 1.432847
v 1.578779 0.2343792 1.109614
v 2.306497 -0.394521 1.080336
v 1.827215 0.2511487 0.8136065
v 2.537587 -0.3744166 0.6686153
v 2.016418 0.2676328 0.4735502
v 2.690455 -0.3547094 0.2170862
v 2.138872 0.2837453 0.1010575
v 2.750628 -0.3336051 -0.3093568
v 2.176699 0.2977656 -0.2522557
v 2.708584 -0.3151273 -0.7920237
v 2.14371 0.3128167 -0.6470599
v 2.578105 -0.2973256 -1.261548
v 2.034274 0.3272757 -1.030295
v 2.34744 -0.2793646 -1.724255
v 1.863788 0.3403676 -1.369909
v 2.018154 -0.2623893 -2.127605
v 1.614995 0.3527284 -1.666412
v 1.630771 -0.2470738 -2.447256
v 1.298242 0.3651127 -1.927393
v 1.18734 -0.2325434 -2.692735
v 0.9366411 0.3768214 -2.125937
v 0.6499552 -0.2173638 -2.863223
v 0.5858987 0.386654 -2.240831
v 0.1399788 -0.2044773 -2.912843
v 0.1732991 0.3970372 -2.285853
v -0.3716057 -0.1922307 -2.868923
v -0.2503628 0.4068791 -2.247123
v -0.8742834 -0.1805387 -2.728313
v -0.6617982 0.4162485 -2.130479
v -1.393166 -0.1681344 -2.460384
v -1.000174 0.4241737 -1.958624
v -1.803856 -0.1573384 -2.128626
v -1.336068 0.4328243 -1.695438
v -2.147305 -0.1467651 -1.728527
v -1.616048 0.4412819 -1.375547
v -2.411623 -0.1363125 -1.273158
v -1.830291 0.4496337 -1.010061
v -2.59111 -0.1247136 -0.7194974
v -1.947093 0.4569941 -0.6527539
v -2.648875 -0.1141513 -0.1960066
v -2.000705 0.4654192 -0.231415
v -2.608564 -0.1033973 0.3303304
v -1.973117 0.4739989 0.1898147
v -2.461592 -0.09176684 0.8666605
v -1.873426 0.4822521 0.5720712
v -2.199421 -0.0797508 1.353842
v -1.692639 0.4907887 0.9207591
v -1.867261 -0.06800362 1.758223
v -1.434579 0.5001357 1.244739
v -1.46496 -0.05591373 2.091541
v -1.109414 0.5104155 1.51496
v -0.9522938 -0.04229144 2.360144
v -0.7376628 0.5231442 1.709494
v -0.3795848 -0.02552012 2.512173
v -0.2777324 0.5380976 1.827705
v 0.2148689 -0.008134438 2.547699
v 0.2123429 0.5578647 1.842121
v 0.8158057 0.01345592 2.460104
v 0.7028024 0.5777766 1.758759
v 1.455607 0.03796285 2.209705
v 1.105185 0.5953282 1.600962
v 1.963443 0.06006888 1.861218
v 1.505366 0.6152171 1.325601
v 2.383962 0.08189365 1.416738
v 1.830249 0.6349441 0.9705409
v 2.699301 0.1032298 0.8956857
v 2.06731 0.6544216 0.5534071
v 2.902357 0.1264986 0.2522885
v 2.181453 0.6711845 0.1489315
v 2.948272 0.1468795 -0.3528914
v 2.215159 0.6897692 -0.3257485
v 2.864336 0.1664396 -0.9505231
v 2.14898 0.7077645 -0.7922863
v 2.643223 0.1860858 -1.543734
v 1.988749 0.7240532 -1.201031
v 2.283766 0.2047895 -2.060289
v 1.728281 0.7395989 -1.552842
v 1.844331 0.2215177 -2.459261
v 1.384452 0.7553319 -1.858429
v 1.329526 0.2371119 -2.749457
v 0.9895334 0.7702187 -2.078259
v 0.7014569 0.2532022 -2.923235
v 0.6059009 0.7826095 -2.18156
v 0.1102063 0.2666747 -2.928014
v 0.1527144 0.7958025 -2.179534
v -0.4709596 0.2792627 -2.794655
v -0.2899233 0.8082231 -2.067027
v -1.013014 0.2907985 -2.536921
v -0.6975942 0.819948 -1.84603
v -1.529214 0.3027626 -2.111419
v -1.003147 0.8296959 -1.564426
v -1.889816 0.3130882 -1.610312
v -1.266181 0.8402076 -1.161475
v -2.130589 0.3229885 -1.028496
v -1.430115 0.8504454 -0.6955098
v -2.236876 0.3324275 -0.3934277
v -1.482191 0.8609479 -0.1882438
v -2.176287 0.342194 0.3328702
v -1.416121 0.871084 0.2733207
v -1.973141 0.3568349 0.9674149
v -1.227223 0.88323 0.782244
v -1.661749 0.3678016 1.538608
v -0.9345555 0.89329 1.250839
v -1.298218 0.3692192 2.014439
v -0.6210057 0.8943568 1.618939
vt 0.01405516 1.001221
vt 0.02539352 0.9362059
vt 0.02049786 0.4077576
vt 0.01081094 0.460504
vt 0.03100532 0.3796784
vt 0.03603795 0.8928738
vt 0.04162914 0.3688606
vt 0.04698908 0.8672404
vt 0.05311629 0.3716483
vt 0.05753207 0.8585828
vt 0.06392315 0.379178
vt 0.06878456 0.8593344
vt 0.07483399 0.3894851
vt 0.08010811 0.861857
vt 0.08586049 0.3993528
vt 0.09151545 0.8606731
vt 0.1008385 0.3673229
vt 0.1021422 0.8637729
vt 0.1119675 0.3652204
vt 0.1138119 0.8663513
vt 0.1231005 0.344127
vt 0.1254899 0.8689404
vt 0.1346603 0.2979531
vt 0.1368646 0.8683687
vt 0.1464503 0.2386865
vt 0.1483856 0.8724028
vt 0.1575058 0.1720345
vt 0.1604858 0.8736143
vt 0.1687065 0.1283625
vt 0.1726779 0.8707396
vt 0.1813157 0.1245339
vt 0.1838832 0.8676661
vt 0.1929714 0.1253795
vt 0.1961717 0.8659592
vt 0.2047075 0.1257823
vt 0.2084936 0.863867
vt 0.216611 0.1219659
vt 0.2208206 0.8583422
vt 0.2297629 0.1212163
vt 0.2321106 0.8575527
vt 0.2417255 0.1207298
vt 0.2449183 0.8602497
vt 0.2540669 0.1198739
vt 0.2576921 0.8586265
vt 0.2664804 0.1194798
vt 0.2706061 0.8569039
vt 0.2802378 0.122278
vt 0.2823212 0.8577163
vt 0.2927166 0.1233258
vt 0.2954969 0.8596045
vt 0.3053893 0.1223198
vt 0.3086506 0.8569912
vt 0.3187729 0.1219102
vt 0.3212084 0.8546637
vt 0.332247 0.122217
vt 0.3340314 0.8588409
vt 0.3452905 0.1254875
vt 0.3476096 0.8614386
vt 0.3584323 0.1264064
vt 0.3612754 0.859915
vt 0.3730255 0.1282352
vt 0.3734726 0.8596271
vt 0.3862015 0.1302331
vt 0.3873272 0.8614317
vt 0.3995719 0.1302105
vt 0.4013888 0.8629275
vt 0.4131289 0.1318387
vt 0.415554 0.8613377
vt 0.428245 0.1352332
vt 0.4281156 0.8615135
vt 0.4418834 0.1385561
vt 0.4423186 0.8640084
vt 0.455561 0.1412618
vt 0.4564176 0.8633789
vt 0.469151 0.1407633
vt 0.470522 0.85992
vt 0.484115 0.1437478
vt 0.4830412 0.8618937
vt 0.4976691 0.1446963
vt 0.4972249 0.86329
vt 0.5112543 0.1460544
vt 0.5113149 0.8613707
vt 0.5254673 0.1407771
vt 0.5245462 0.8561857
vt 0.539558 0.1438368
vt 0.537744 0.8582953
vt 0.5528767 0.1394922
vt 0.5516946 0.8559069
vt 0.5661958 0.1362915
vt 0.5659168 0.8530335
vt 0.5809761 0.1296072
vt 0.5799839 0.8535429
vt 0.5961236 0.1300099
vt 0.5959081 0.8558109
vt 0.6113694 0.1253132
vt 0.6123551 0.8623921
vt 0.626938 0.1249541
vt 0.6290548 0.8593239
vt 0.6445066 0.1290161
vt 0.6435199 0.8552984
vt 0.660266 0.1318352
vt 0.6597943 0.8563564
vt 0.6758479 0.1320566
vt 0.6759726 0.856768
vt 0.6912723 0.1297084
vt 0.6921719 0.8522492
vt 0.7083006 0.1278203
vt 0.7063075 0.8563285
vt 0.7236984 0.1282247
vt 0.7222846 0.8571096
vt 0.7388944 0.1297484
vt 0.7381908 0.854099
vt 0.7546918 0.1266783
vt 0.7530626 0.8493324
vt 0.7703213 0.1262128
vt 0.7678702 0.8568029
vt 0.7850911 0.1273216
vt 0.7834358 0.8560621
vt 0.7996641 0.1307317
vt 0.7988284 0.8501953
vt 0.8155929 0.1331079
vt 0.8123533 0.8476222
vt 0.8300087 0.1378953
vt 0.8277557 0.8516895
vt 0.8445492 0.1405068
vt 0.8432566 0.8514593
vt 0.8591976 0.1368283
vt 0.8589838 0.8503297
vt 0.8755369 0.1351233
vt 0.8730068 0.8520173
vt 0.8906586 0.1376861
vt 0.8891461 0.8560915
vt 0.9061365 0.1373531
vt 0.9056342 0.8588634
vt 0.9220189 0.1381463
vt 0.9225816 0.8602897
vt 0.9400712 0.1427559
vt 0.9379219 0.8776764
vt 0.9568283 0.1529373
vt 0.9555311 0.9113798
vt 0.9735454 0.1768811
vt 0.9731262 0.9758872
vt 0.9890006 0.2311531
vt 0.9884579 1.05733
vn -0.07002133 0.545437 -0.8352218
vn -0.2315 0.5708479 -0.7877439
vn -0.2320191 0.5709262 -0.7875344
vn -0.07212371 0.5457904 -0.8348119
vn -0.36835 0.5918154 -0.7169887
vn -0.3687486 0.5918775 -0.7167326
vn -0.4922964 0.6107773 -0.6201575
vn -0.493782 0.6109934 -0.618762
vn -0.5974268 0.6311499 -0.4947031
vn -0.5963531 0.6308717 -0.4963507
vn -0.6681377 0.6504543 -0.3612496
vn -0.667996 0.6504112 -0.3615891
vn -0.7102458 0.6666654 -0.2260709
vn -0.7104132 0.6667556 -0.2252782
vn -0.7270643 0.6819565 -0.07945347
vn -0.7271286 0.682213 -0.07661267
vn -0.712259 0.6983288 0.07088026
vn -0.7126162 0.6981204 0.06932597
vn -0.6704859 0.7143327 0.2004432
vn -0.670524 0.7143223 0.2003528
vn -0.6094444 0.7273927 0.3154004
vn -0.6088001 0.7275038 0.3163868
vn -0.5203207 0.7418323 0.4230261
vn -0.520279 0.7418383 0.423067
vn -0.413184 0.7558618 0.5078897
vn -0.4141237 0.7557392 0.5073063
vn -0.3045878 0.7686138 0.5625471
vn -0.3043912 0.7686346 0.5626248
vn -0.188249 0.7793145 0.5976883
vn -0.1865035 0.7794488 0.5980603
vn -0.05908461 0.792078 0.6075535
vn -0.06205186 0.7917359 0.6077037
vn 0.06022273 0.8043953 0.5910342
vn 0.05946049 0.8043215 0.5912119
vn 0.1650696 0.8145598 0.5560976
vn 0.1655612 0.8146076 0.5558813
vn 0.2639333 0.8236208 0.5019841
vn 0.2659257 0.8237832 0.5006642
vn 0.3529923 0.8338064 0.4244564
vn 0.3514619 0.8335667 0.4261937
vn 0.4171929 0.843565 0.3381538
vn 0.4169522 0.8435278 0.3385435
vn 0.4620693 0.8514371 0.2480863
vn 0.4623765 0.8515008 0.2472942
vn 0.4910744 0.858519 0.1476176
vn 0.4916584 0.8586854 0.1446768
vn 0.4983746 0.8660397 0.03997388
vn 0.4984945 0.8658918 0.04164917
vn 0.4840296 0.873302 -0.05530722
vn 0.4840593 0.8732936 -0.05518034
vn 0.45551 0.8786777 -0.1429553
vn 0.4550579 0.8787379 -0.1440208
vn 0.4064159 0.8844317 -0.2293615
vn 0.4064121 0.8844321 -0.2293667
vn 0.3419831 0.8897341 -0.3023588
vn 0.3427983 0.8896687 -0.3016272
vn 0.2728197 0.8943805 -0.3544757
vn 0.2726646 0.8943892 -0.3545728
vn 0.1958431 0.8976892 -0.3947146
vn 0.1943083 0.8977342 -0.3953703
vn 0.1054385 0.9018358 -0.4190166
vn 0.1082335 0.901675 -0.4186497
vn 0.01867523 0.9058366 -0.4232155
vn 0.01942732 0.9058068 -0.4232453
vn -0.06084476 0.9088192 -0.4127294
vn -0.06131431 0.908836 -0.4126229
vn -0.139264 0.9111055 -0.3879334
vn -0.141297 0.9111449 -0.3871048
vn -0.2147749 0.9139763 -0.3442661
vn -0.2130861 0.9138738 -0.3455851
vn -0.2733333 0.9169999 -0.290517
vn -0.27304 0.9169864 -0.2908352
vn -0.3188379 0.9192227 -0.2310235
vn -0.3192437 0.9192443 -0.2303763
vn -0.3544619 0.9210529 -0.1613019
vn -0.3554956 0.9210927 -0.1587801
vn -0.3750927 0.9233333 -0.08222605
vn -0.3749266 0.9232638 -0.0837487
vn -0.3774411 0.9259875 -0.009232566
vn -0.377447 0.9259838 -0.009361262
vn -0.3682033 0.9277781 0.06044927
vn -0.3679785 0.9278009 0.06146031
vn -0.3428965 0.9299883 0.1324527
vn -0.3429069 0.9299876 0.1324306
vn -0.3037539 0.9322552 0.196555
vn -0.3043678 0.9322187 0.1957767
vn -0.257896 0.9344913 0.2453891
vn -0.2577814 0.9344959 0.2454917
vn -0.2043235 0.9360861 0.2863472
vn -0.2030796 0.9361097 0.287154
vn -0.1377322 0.9384508 0.3167649
vn -0.1401473 0.9383379 0.3160393
vn -0.07136927 0.9409524 0.3309304
vn -0.07203823 0.9409304 0.3308481
vn -0.008525928 0.9429495 0.3328267
vn -0.008106577 0.9429624 0.3328005
vn 0.05540543 0.9446121 0.3234785
vn 0.05728709 0.9446473 0.3230473
vn 0.119761 0.9467662 0.2988162
vn 0.1181091 0.9466829 0.2997361
vn 0.1720194 0.9490344 0.264089
vn 0.1717155 0.9490225 0.2643294
vn 0.2149723 0.9507693 0.2232143
vn 0.2154099 0.9507878 0.2227128
vn 0.2516147 0.9522327 0.1730402
vn 0.2528554 0.9522706 0.1710115
vn 0.2778255 0.9539257 0.1133082
vn 0.277475 0.9538733 0.1146007
vn 0.2888454 0.9557347 0.05603223
vn 0.2888319 0.9557318 0.05615091
vn 0.2904862 0.9568791 -0.0003082167
vn 0.2904354 0.9568939 -0.001205087
vn 0.2797174 0.9581491 -0.06089777
vn 0.2797302 0.9581481 -0.06085354
vn 0.2569075 0.959292 -0.1172918
vn 0.2573269 0.9592724 -0.1165299
vn 0.2266468 0.9602993 -0.1626543
vn 0.2265638 0.9603013 -0.1627583
vn 0.1890257 0.960741 -0.2030909
vn 0.1880736 0.9607415 -0.2039708
vn 0.1390398 0.961471 -0.2371529
vn 0.1410304 0.9614247 -0.2361629
vn 0.08671253 0.9622126 -0.2581236
vn 0.08728851 0.9622074 -0.2579488
vn 0.03511625 0.9625729 -0.2687382
vn 0.03474903 0.9625748 -0.2687792
vn -0.01945824 0.9625661 -0.2703475
vn -0.0211794 0.9625536 -0.270263
vn -0.07725535 0.9627342 -0.2591804
vn -0.07564638 0.9627118 -0.2597377
vn -0.1267724 0.9630617 -0.2375729
vn -0.1264613 0.9630613 -0.2377403
vn -0.1697852 0.9630452 -0.2090856
vn -0.1702552 0.9630443 -0.2087076
vn -0.2092336 0.962748 -0.1712823
vn -0.2106814 0.9627213 -0.1696497
vn -0.2414734 0.9625838 -0.1229753
vn -0.2409449 0.9625718 -0.1241013
vn -0.2601414 0.9627371 -0.07391664
vn -0.260109 0.9627374 -0.07402649
vn -0.270098 0.9625424 -0.02364837
vn -0.2701823 0.9625384 -0.02283062
vn -0.2727064 0.9620939 0.002538166
vn -0.2727064 0.9620939 0.0025382
g SkillTrail_Model_3_theresa_0
f 3/3/3 2/2/2 1/1/1
f 4/4/4 3/3/3 1/1/1
f 3/3/3 5/5/5 2/2/2
f 5/5/5 6/6/6 2/2/2
f 5/5/5 7/7/7 6/6/6
f 7/7/7 8/8/8 6/6/6
f 7/7/7 9/9/9 8/8/8
f 9/9/9 10/10/10 8/8/8
f 9/9/9 11/11/11 10/10/10
f 11/11/11 12/12/12 10/10/10
f 11/11/11 13/13/13 12/12/12
f 13/13/13 14/14/14 12/12/12
f 13/13/13 15/15/15 14/14/14
f 15/15/15 16/16/16 14/14/14
f 15/15/15 17/17/17 16/16/16
f 17/17/17 18/18/18 16/16/16
f 17/17/17 19/19/19 18/18/18
f 19/19/19 20/20/20 18/18/18
f 19/19/19 21/21/21 20/20/20
f 21/21/21 22/22/22 20/20/20
f 21/21/21 23/23/23 22/22/22
f 23/23/23 24/24/24 22/22/22
f 23/23/23 25/25/25 24/24/24
f 25/25/25 26/26/26 24/24/24
f 25/25/25 27/27/27 26/26/26
f 27/27/27 28/28/28 26/26/26
f 27/27/27 29/29/29 28/28/28
f 29/29/29 30/30/30 28/28/28
f 29/29/29 31/31/31 30/30/30
f 31/31/31 32/32/32 30/30/30
f 31/31/31 33/33/33 32/32/32
f 33/33/33 34/34/34 32/32/32
f 33/33/33 35/35/35 34/34/34
f 35/35/35 36/36/36 34/34/34
f 35/35/35 37/37/37 36/36/36
f 37/37/37 38/38/38 36/36/36
f 37/37/37 39/39/39 38/38/38
f 39/39/39 40/40/40 38/38/38
f 39/39/39 41/41/41 40/40/40
f 41/41/41 42/42/42 40/40/40
f 41/41/41 43/43/43 42/42/42
f 43/43/43 44/44/44 42/42/42
f 43/43/43 45/45/45 44/44/44
f 45/45/45 46/46/46 44/44/44
f 45/45/45 47/47/47 46/46/46
f 47/47/47 48/48/48 46/46/46
f 47/47/47 49/49/49 48/48/48
f 49/49/49 50/50/50 48/48/48
f 49/49/49 51/51/51 50/50/50
f 51/51/51 52/52/52 50/50/50
f 51/51/51 53/53/53 52/52/52
f 53/53/53 54/54/54 52/52/52
f 53/53/53 55/55/55 54/54/54
f 55/55/55 56/56/56 54/54/54
f 55/55/55 57/57/57 56/56/56
f 57/57/57 58/58/58 56/56/56
f 57/57/57 59/59/59 58/58/58
f 59/59/59 60/60/60 58/58/58
f 59/59/59 61/61/61 60/60/60
f 61/61/61 62/62/62 60/60/60
f 61/61/61 63/63/63 62/62/62
f 63/63/63 64/64/64 62/62/62
f 63/63/63 65/65/65 64/64/64
f 65/65/65 66/66/66 64/64/64
f 65/65/65 67/67/67 66/66/66
f 67/67/67 68/68/68 66/66/66
f 67/67/67 69/69/69 68/68/68
f 69/69/69 70/70/70 68/68/68
f 69/69/69 71/71/71 70/70/70
f 71/71/71 72/72/72 70/70/70
f 71/71/71 73/73/73 72/72/72
f 73/73/73 74/74/74 72/72/72
f 73/73/73 75/75/75 74/74/74
f 75/75/75 76/76/76 74/74/74
f 75/75/75 77/77/77 76/76/76
f 77/77/77 78/78/78 76/76/76
f 77/77/77 79/79/79 78/78/78
f 79/79/79 80/80/80 78/78/78
f 79/79/79 81/81/81 80/80/80
f 81/81/81 82/82/82 80/80/80
f 81/81/81 83/83/83 82/82/82
f 83/83/83 84/84/84 82/82/82
f 83/83/83 85/85/85 84/84/84
f 85/85/85 86/86/86 84/84/84
f 85/85/85 87/87/87 86/86/86
f 87/87/87 88/88/88 86/86/86
f 87/87/87 89/89/89 88/88/88
f 89/89/89 90/90/90 88/88/88
f 89/89/89 91/91/91 90/90/90
f 91/91/91 92/92/92 90/90/90
f 91/91/91 93/93/93 92/92/92
f 93/93/93 94/94/94 92/92/92
f 93/93/93 95/95/95 94/94/94
f 95/95/95 96/96/96 94/94/94
f 95/95/95 97/97/97 96/96/96
f 97/97/97 98/98/98 96/96/96
f 97/97/97 99/99/99 98/98/98
f 99/99/99 100/100/100 98/98/98
f 99/99/99 101/101/101 100/100/100
f 101/101/101 102/102/102 100/100/100
f 101/101/101 103/103/103 102/102/102
f 103/103/103 104/104/104 102/102/102
f 103/103/103 105/105/105 104/104/104
f 105/105/105 106/106/106 104/104/104
f 105/105/105 107/107/107 106/106/106
f 107/107/107 108/108/108 106/106/106
f 107/107/107 109/109/109 108/108/108
f 109/109/109 110/110/110 108/108/108
f 109/109/109 111/111/111 110/110/110
f 111/111/111 112/112/112 110/110/110
f 111/111/111 113/113/113 112/112/112
f 113/113/113 114/114/114 112/112/112
f 113/113/113 115/115/115 114/114/114
f 115/115/115 116/116/116 114/114/114
f 115/115/115 117/117/117 116/116/116
f 117/117/117 118/118/118 116/116/116
f 117/117/117 119/119/119 118/118/118
f 119/119/119 120/120/120 118/118/118
f 119/119/119 121/121/121 120/120/120
f 121/121/121 122/122/122 120/120/120
f 121/121/121 123/123/123 122/122/122
f 123/123/123 124/124/124 122/122/122
f 123/123/123 125/125/125 124/124/124
f 125/125/125 126/126/126 124/124/124
f 125/125/125 127/127/127 126/126/126
f 127/127/127 128/128/128 126/126/126
f 127/127/127 129/129/129 128/128/128
f 129/129/129 130/130/130 128/128/128
f 129/129/129 131/131/131 130/130/130
f 131/131/131 132/132/132 130/130/130
f 131/131/131 133/133/133 132/132/132
f 133/133/133 134/134/134 132/132/132
f 133/133/133 135/135/135 134/134/134
f 135/135/135 136/136/136 134/134/134
f 135/135/135 137/137/137 136/136/136
f 137/137/137 138/138/138 136/136/136
f 137/137/137 139/139/139 138/138/138
f 139/139/139 140/140/140 138/138/138
f 139/139/139 141/141/141 140/140/140
f 141/141/141 142/142/142 140/140/140
f 141/141/141 143/143/143 142/142/142
f 143/143/143 144/144/144 142/142/142
