g Sphere001
v -6.329551E-08 0.03248591 0.499263
v -0.06202784 0.0139757 0.4903328
v -0.06811808 0.03184668 0.4903328
v -0.1213447 0.007551549 0.4709521
v -0.133259 0.03176286 0.4709521
v -0.1041271 -0.01755199 0.4709521
v -0.05322671 -0.0005045962 0.4903328
v -6.329551E-08 0.03248591 0.499263
v -0.08235861 -0.04098159 0.4709521
v -0.04209931 -0.01248112 0.4903328
v -6.329551E-08 0.03248591 0.499263
v -0.05699063 -0.05848913 0.4709521
v -0.02913195 -0.02143046 0.4903328
v -6.329551E-08 0.03248591 0.499263
v -0.02913189 -0.0693094 0.4709521
v -0.01489138 -0.02696141 0.4903328
v -6.329551E-08 0.03248591 0.499263
v 7.000151E-08 -0.07296942 0.4709521
v 4.841969E-09 -0.02883234 0.4903328
v -6.329551E-08 0.03248591 0.499263
v 0.02913201 -0.0693093 0.4709521
v 0.01489139 -0.02696139 0.4903328
v -6.329551E-08 0.03248591 0.499263
v 0.05699074 -0.05848898 0.4709521
v 0.02913194 -0.02143039 0.4903328
v -6.329551E-08 0.03248591 0.499263
v 0.0823587 -0.0409814 0.4709521
v 0.04209928 -0.01248101 0.4903328
v -6.329551E-08 0.03248591 0.499263
v 0.1041272 -0.01755171 0.4709521
v 0.05322668 -0.000504475 0.4903328
v -6.329551E-08 0.03248591 0.499263
v 0.1213448 0.007551913 0.4709521
v 0.06202782 0.01397588 0.4903328
v -6.329551E-08 0.03248591 0.499263
v 0.133259 0.0317633 0.4709521
v 0.06811801 0.03184688 0.4903328
v -6.329551E-08 0.03248591 0.499263
v 0.1190186 -0.06084312 0.4395936
v 0.08235879 -0.08614383 0.4395936
v 0.1504768 -0.03095417 0.4395936
v 0.1753583 0.003385246 0.4395936
v 0.1925759 0.03154062 0.4395936
v 0.1504769 -0.0799896 0.3976277
v 0.1041273 -0.1086124 0.3976277
v 0.04209942 -0.1017805 0.4395936
v 1.293353E-07 -0.1070698 0.4395936
v -0.04209918 -0.1017806 0.4395936
v -0.08235853 -0.086144 0.4395936
v -0.1190185 -0.06084339 0.4395936
v -0.1504766 -0.03095453 0.4395936
v -0.1753583 0.003384738 0.4395936
v -0.1925759 0.03153997 0.4395936
v -0.2217078 0.0001224247 0.3976277
v -0.2434763 0.03309387 0.3976277
v -0.1902496 -0.04126024 0.3976277
v -0.1504766 -0.07998995 0.3976277
v -0.104127 -0.1086126 0.3976277
v -0.05322655 -0.1283822 0.3976277
v 1.802503E-07 -0.1350694 0.3976277
v 0.05322688 -0.128382 0.3976277
v -0.2583676 0.0003334462 0.3468885
v -0.2837356 0.03806053 0.3468884
v -0.2217078 -0.04609419 0.3468885
v -0.1753582 -0.09283786 0.3468885
v -0.1213446 -0.1244368 0.3468884
v -0.06202764 -0.1474753 0.3468884
v 2.205211E-07 -0.1552682 0.3468884
v 0.0620281 -0.1474751 0.3468884
v 0.121345 -0.1244365 0.3468884
v 0.1753586 -0.09283739 0.3468885
v 0.2217081 -0.04609356 0.3468885
v 0.1902498 -0.0412597 0.3976277
v 0.221708 0.0001231029 0.3976277
v 0.2434764 0.03309463 0.3976277
v 0.2583679 0.0003342213 0.3468885
v 0.2837358 0.03806147 0.3468884
v 2.483877E-07 -0.1652852 0.2895935
v -0.06811786 -0.1567272 0.2895935
v -0.1332589 -0.1314267 0.2895935
v -0.1925759 -0.09848388 0.2895935
v -0.2434762 -0.04779264 0.2895935
v -0.2837355 0.003248917 0.2895935
v -0.3115942 0.04826009 0.2895935
v 0.06811834 -0.156727 0.2895935
v 0.1332593 -0.1314263 0.2895935
v 0.1925762 -0.09848341 0.2895935
v 0.2434766 -0.04779196 0.2895935
v 0.2837359 0.003249765 0.2895935
v 0.3115945 0.04826112 0.2895935
v -0.2967029 0.009272508 0.228247
v -0.3258348 0.06318068 0.228247
v 0.1393496 -0.1383865 0.228247
v 0.07123151 -0.1648435 0.228247
v 2.626323E-07 -0.1737929 0.228247
v -0.07123098 -0.1648436 0.228247
v -0.1393491 -0.1383869 0.228247
v -0.201377 -0.09951453 0.228247
v -0.2546037 -0.04619748 0.228247
v -0.2975361 0.01938623 0.1655299
v -0.2553186 -0.04070349 0.1655299
v -0.2019425 -0.09412048 0.1655299
v -0.1397404 -0.1324106 0.1655299
v -0.07143101 -0.1588673 0.1655299
v 2.629054E-07 -0.1678167 0.1655299
v 0.07143155 -0.1588672 0.1655299
v 0.1397409 -0.1324102 0.1655299
v 0.2019428 -0.09412009 0.1655299
v 0.2013773 -0.09951414 0.228247
v 0.254604 -0.0461968 0.228247
v 0.2967032 0.009273356 0.228247
v 0.325835 0.06318171 0.228247
v 0.255319 -0.04070281 0.1655299
v 0.2975365 0.01938708 0.1655299
v 0.32675 0.08289386 0.1655299
v 0.19898 -0.08481983 0.1041833
v 0.1376906 -0.1241334 0.1041833
v 0.2515731 -0.02937547 0.1041833
v 0.2931711 0.03215555 0.1041833
v 0.3219562 0.1100762 0.1041833
v 0.1919071 -0.06808263 0.04688843
v 0.1327963 -0.1062669 0.0468884
v 0.07038353 -0.1494341 0.1041833
v 2.516062E-07 -0.1579923 0.1041833
v -0.07038303 -0.1494343 0.1041833
v -0.1376903 -0.1241338 0.1041833
v -0.1989798 -0.08482032 0.1041833
v -0.2515728 -0.02937612 0.1041833
v -0.2931708 0.03215474 0.1041833
v -0.3267498 0.0828928 0.1655299
v -0.3219559 0.1100752 0.1041833
v -0.2827497 0.04791868 0.04688836
v -0.3105116 0.1412352 0.04688838
v -0.2426303 -0.01511586 0.0468884
v -0.1919068 -0.06808302 0.04688843
v -0.1327959 -0.1062672 0.0468884
v -0.06788118 -0.1283986 0.0468884
v 2.277602E-07 -0.1361916 0.0468884
v 0.06788167 -0.1283984 0.0468884
v -0.2706885 0.06617472 -0.003850819
v -0.2972662 0.1729344 -0.003850819
v -0.2322805 -6.285954E-06 -0.00385077
v -0.1837206 -0.0493328 -0.00385077
v -0.1271312 -0.08652104 -0.00385077
v -0.06498561 -0.1084716 -0.00385077
v 1.915654E-07 -0.1159927 -0.003850794
v 0.06498598 -0.1084715 -0.00385077
v 0.1271316 -0.0865208 -0.00385077
v 0.1837209 -0.04933247 -0.00385077
v 0.2322807 -5.75304E-06 -0.00385077
v 0.2426306 -0.01511526 0.0468884
v 0.28275 0.04791946 0.04688836
v 0.3105118 0.1412361 0.04688838
v 0.2706887 0.06617536 -0.003850819
v 0.2972662 0.1729352 -0.003850819
vt 0.3 1
vt 0.3333334 0.9333333
vt 0.3 0.9333333
vt 0.3333334 0.8666667
vt 0.3 0.8666667
vt 0.3666667 0.8666667
vt 0.3666667 0.9333333
vt 0.3333334 1
vt 0.4 0.8666667
vt 0.4 0.9333333
vt 0.3666667 1
vt 0.4333334 0.8666667
vt 0.4333334 0.9333333
vt 0.4 1
vt 0.4666667 0.8666667
vt 0.4666667 0.9333333
vt 0.4333334 1
vt 0.5000001 0.8666667
vt 0.5000001 0.9333333
vt 0.4666667 1
vt 0.5333334 0.8666667
vt 0.5333334 0.9333333
vt 0.5000001 1
vt 0.5666667 0.8666667
vt 0.5666667 0.9333333
vt 0.5333334 1
vt 0.6 0.8666667
vt 0.6 0.9333333
vt 0.5666667 1
vt 0.6333334 0.8666667
vt 0.6333334 0.9333333
vt 0.6 1
vt 0.6666667 0.8666667
vt 0.6666667 0.9333333
vt 0.6333334 1
vt 0.7000001 0.8666667
vt 0.7000001 0.9333333
vt 0.6666667 1
vt 0.6 0.8
vt 0.5666667 0.8
vt 0.6333334 0.8
vt 0.6666667 0.8
vt 0.7000001 0.8
vt 0.6 0.7333333
vt 0.5666667 0.7333333
vt 0.5333334 0.8
vt 0.5000001 0.8
vt 0.4666667 0.8
vt 0.4333334 0.8
vt 0.4 0.8
vt 0.3666667 0.8
vt 0.3333334 0.8
vt 0.3 0.8
vt 0.3333334 0.7333333
vt 0.3 0.7333333
vt 0.3666667 0.7333333
vt 0.4 0.7333333
vt 0.4333334 0.7333333
vt 0.4666667 0.7333333
vt 0.5000001 0.7333333
vt 0.5333334 0.7333333
vt 0.3333334 0.6666666
vt 0.3 0.6666666
vt 0.3666667 0.6666666
vt 0.4 0.6666666
vt 0.4333334 0.6666666
vt 0.4666667 0.6666666
vt 0.5000001 0.6666666
vt 0.5333334 0.6666666
vt 0.5666667 0.6666666
vt 0.6 0.6666666
vt 0.6333334 0.6666666
vt 0.6333334 0.7333333
vt 0.6666667 0.7333333
vt 0.7000001 0.7333333
vt 0.6666667 0.6666666
vt 0.7000001 0.6666666
vt 0.5000001 0.6
vt 0.4666667 0.6
vt 0.4333334 0.6
vt 0.4 0.6
vt 0.3666667 0.6
vt 0.3333334 0.6
vt 0.3 0.6
vt 0.5333334 0.6
vt 0.5666667 0.6
vt 0.6 0.6
vt 0.6333334 0.6
vt 0.6666667 0.6
vt 0.7000001 0.6
vt 0.3333334 0.5333333
vt 0.3 0.5333333
vt 0.5666667 0.5333333
vt 0.5333334 0.5333333
vt 0.5000001 0.5333333
vt 0.4666667 0.5333333
vt 0.4333334 0.5333333
vt 0.4 0.5333333
vt 0.3666667 0.5333333
vt 0.3333334 0.4666666
vt 0.3666667 0.4666666
vt 0.4 0.4666666
vt 0.4333334 0.4666666
vt 0.4666667 0.4666666
vt 0.5000001 0.4666666
vt 0.5333334 0.4666666
vt 0.5666667 0.4666666
vt 0.6 0.4666666
vt 0.6 0.5333333
vt 0.6333334 0.5333333
vt 0.6666667 0.5333333
vt 0.7000001 0.5333333
vt 0.6333334 0.4666666
vt 0.6666667 0.4666666
vt 0.7000001 0.4666666
vt 0.6 0.4
vt 0.5666667 0.4
vt 0.6333334 0.4
vt 0.6666667 0.4
vt 0.7000001 0.4
vt 0.6 0.3333333
vt 0.5666667 0.3333333
vt 0.5333334 0.4
vt 0.5000001 0.4
vt 0.4666667 0.4
vt 0.4333334 0.4
vt 0.4 0.4
vt 0.3666667 0.4
vt 0.3333334 0.4
vt 0.3 0.4666666
vt 0.3 0.4
vt 0.3333334 0.3333333
vt 0.3 0.3333333
vt 0.3666667 0.3333333
vt 0.4 0.3333333
vt 0.4333334 0.3333333
vt 0.4666667 0.3333333
vt 0.5000001 0.3333333
vt 0.5333334 0.3333333
vt 0.3333334 0.2666666
vt 0.3 0.2666666
vt 0.3666667 0.2666666
vt 0.4 0.2666666
vt 0.4333334 0.2666666
vt 0.4666667 0.2666666
vt 0.5000001 0.2666666
vt 0.5333334 0.2666666
vt 0.5666667 0.2666666
vt 0.6 0.2666666
vt 0.6333334 0.2666666
vt 0.6333334 0.3333333
vt 0.6666667 0.3333333
vt 0.7000001 0.3333333
vt 0.6666667 0.2666666
vt 0.7000001 0.2666666
vn 0 -0.04563392 0.9989582
vn -0.1863492 -0.07977349 0.9792396
vn -0.2033089 -0.04897267 0.9778891
vn -0.3606446 -0.1560648 0.9195538
vn -0.3928771 -0.09569316 0.9145985
vn -0.3128434 -0.2110886 0.9260511
vn -0.1613389 -0.1077219 0.9810024
vn 0 -0.04563392 0.9989582
vn -0.2504511 -0.2582614 0.9330463
vn -0.1289141 -0.13157 0.9828888
vn 0 -0.04563392 0.9989582
vn -0.1752815 -0.2948816 0.9393196
vn -0.09008774 -0.1500231 0.9845696
vn 0 -0.04563392 0.9989582
vn -0.09033774 -0.3182823 0.9436818
vn -0.04639084 -0.1618029 0.9857321
vn 0 -0.04563392 0.9989582
vn 4.523238E-07 -0.3263577 0.9452464
vn 0 -0.1658693 0.9861478
vn 0 -0.04563392 0.9989582
vn 0.09033851 -0.3182822 0.9436818
vn 0.04639125 -0.1618028 0.985732
vn 0 -0.04563392 0.9989582
vn 0.1752823 -0.2948814 0.9393195
vn 0.09008821 -0.150023 0.9845696
vn 0 -0.04563392 0.9989582
vn 0.2504519 -0.258261 0.9330462
vn 0.1289145 -0.1315697 0.9828888
vn 0 -0.04563392 0.9989582
vn 0.3128442 -0.2110879 0.926051
vn 0.1613392 -0.1077218 0.9810024
vn 0 -0.04563392 0.9989582
vn 0.3606452 -0.156064 0.9195537
vn 0.1863496 -0.07977332 0.9792395
vn 0 -0.04563392 0.9989582
vn 0.3928776 -0.09569227 0.9145983
vn 0.2033089 -0.04897239 0.9778891
vn 0 -0.04563392 0.9989582
vn 0.3682277 -0.3816407 0.8477964
vn 0.2594494 -0.4386944 0.860368
vn 0.4565797 -0.3096485 0.834058
vn 0.5228205 -0.2274118 0.821549
vn 0.5666926 -0.138748 0.8121629
vn 0.4781759 -0.4975855 0.7237102
vn 0.3401553 -0.5775517 0.7421108
vn 0.1343515 -0.4757553 0.8692563
vn 7.052975E-07 -0.4886603 0.8724742
vn -0.1343504 -0.4757555 0.8692564
vn -0.2594483 -0.4386949 0.8603681
vn -0.3682264 -0.3816417 0.8477966
vn -0.4565787 -0.3096493 0.8340583
vn -0.5228199 -0.2274127 0.821549
vn -0.5666921 -0.1387493 0.812163
vn -0.6661255 -0.2908291 0.6868008
vn -0.717329 -0.1762695 0.6740683
vn -0.5869408 -0.3995996 0.7041454
vn -0.4781744 -0.4975866 0.7237104
vn -0.3401541 -0.5775522 0.7421109
vn -0.1773706 -0.6307771 0.7554203
vn 1.009104E-06 -0.6495697 0.7603021
vn 0.1773721 -0.6307767 0.7554203
vn -0.7831617 -0.342932 0.5187054
vn -0.8377908 -0.2064339 0.5054618
vn -0.6965171 -0.4757288 0.5371649
vn -0.5736635 -0.5990732 0.5585889
vn -0.4124517 -0.7030264 0.5793422
vn -0.2167882 -0.7741428 0.5947316
vn 1.082775E-06 -0.7996563 0.6004579
vn 0.2167901 -0.7741423 0.5947316
vn 0.4124534 -0.7030256 0.5793419
vn 0.5736651 -0.5990721 0.5585884
vn 0.6965179 -0.4757274 0.537165
vn 0.5869418 -0.3995985 0.7041452
vn 0.6661261 -0.2908278 0.6868008
vn 0.7173291 -0.1762685 0.6740685
vn 0.7831624 -0.3429304 0.5187055
vn 0.8377911 -0.2064325 0.5054619
vn 1.231575E-06 -0.9211575 0.38919
vn -0.2481049 -0.8892171 0.3843657
vn -0.4686425 -0.801447 0.3715601
vn -0.645698 -0.676233 0.3546593
vn -0.7766648 -0.5317733 0.3376522
vn -0.8665235 -0.3802403 0.3233485
vn -0.9219809 -0.2276093 0.3132814
vn 0.248107 -0.8892165 0.3843656
vn 0.4686446 -0.8014458 0.3715599
vn 0.6456991 -0.6762317 0.3546593
vn 0.7766657 -0.5317719 0.3376522
vn 0.8665243 -0.3802386 0.3233485
vn 0.9219813 -0.2276076 0.3132814
vn -0.9100026 -0.3997704 0.1099038
vn -0.9653149 -0.2385409 0.1061392
vn 0.4998643 -0.8565317 0.1284099
vn 0.2657911 -0.9547484 0.1334567
vn 1.221604E-06 -0.9907949 0.1353717
vn -0.2657886 -0.954749 0.1334567
vn -0.4998623 -0.8565329 0.12841
vn -0.6848521 -0.7184249 0.1218324
vn -0.8192644 -0.5617019 0.1153117
vn -0.9100026 -0.3997704 -0.109904
vn -0.8192644 -0.5617018 -0.1153117
vn -0.6848521 -0.718425 -0.1218325
vn -0.4998624 -0.8565328 -0.1284101
vn -0.2657885 -0.9547491 -0.1334567
vn 1.131115E-06 -0.9907949 -0.1353718
vn 0.2657911 -0.9547483 -0.133457
vn 0.4998643 -0.8565317 -0.1284102
vn 0.6848533 -0.7184238 -0.1218329
vn 0.6848533 -0.7184238 0.1218327
vn 0.8192655 -0.5617003 0.1153119
vn 0.9100034 -0.3997687 0.1099039
vn 0.9653153 -0.238539 0.1061392
vn 0.8192654 -0.5617003 -0.115312
vn 0.9100034 -0.3997686 -0.1099041
vn 0.9653153 -0.238539 -0.1061394
vn 0.6456991 -0.6762316 -0.3546598
vn 0.4686445 -0.8014457 -0.3715603
vn 0.7766655 -0.5317718 -0.3376528
vn 0.8665241 -0.3802385 -0.323349
vn 0.9219812 -0.2276076 -0.3132819
vn 0.573665 -0.5990719 -0.5585886
vn 0.4124533 -0.7030254 -0.5793423
vn 0.2481073 -0.8892162 -0.3843661
vn 1.30223E-06 -0.9211574 -0.3891903
vn -0.2481048 -0.8892168 -0.3843663
vn -0.4686426 -0.8014467 -0.3715607
vn -0.6456976 -0.676233 -0.3546598
vn -0.7766647 -0.531773 -0.3376527
vn -0.8665235 -0.38024 -0.323349
vn -0.9653149 -0.2385409 -0.1061394
vn -0.9219807 -0.2276093 -0.3132818
vn -0.7831616 -0.342932 -0.5187057
vn -0.8377905 -0.2064339 -0.5054621
vn -0.6965167 -0.4757287 -0.5371654
vn -0.5736633 -0.5990731 -0.5585892
vn -0.4124515 -0.7030262 -0.5793428
vn -0.2167883 -0.7741422 -0.5947325
vn 8.665836E-07 -0.7996559 -0.6004586
vn 0.21679 -0.7741419 -0.5947322
vn -0.6661252 -0.290829 -0.686801
vn -0.7173287 -0.1762694 -0.6740687
vn -0.5869406 -0.3995996 -0.7041456
vn -0.4781741 -0.4975867 -0.7237107
vn -0.3401535 -0.5775521 -0.7421113
vn -0.1773707 -0.6307766 -0.7554207
vn 9.735803E-07 -0.6495693 -0.7603024
vn 0.177372 -0.6307762 -0.7554208
vn 0.3401547 -0.5775514 -0.7421113
vn 0.4781756 -0.4975856 -0.7237104
vn 0.5869415 -0.3995984 -0.7041454
vn 0.6965178 -0.4757275 -0.5371652
vn 0.7831622 -0.3429305 -0.5187057
vn 0.837791 -0.2064324 -0.5054622
vn 0.6661258 -0.2908278 -0.686801
vn 0.7173288 -0.1762683 -0.6740689
g Sphere001_0
f 3/3/3 2/2/2 1/1/1
f 2/2/2 3/3/3 4/4/4
f 5/5/5 4/4/4 3/3/3
f 4/4/4 6/6/6 2/2/2
f 7/7/7 2/2/2 6/6/6
f 2/2/2 7/7/7 8/8/8
f 6/6/6 9/9/9 7/7/7
f 10/10/10 7/7/7 9/9/9
f 7/7/7 10/10/10 11/11/11
f 9/9/9 12/12/12 10/10/10
f 13/13/13 10/10/10 12/12/12
f 10/10/10 13/13/13 14/14/14
f 12/12/12 15/15/15 13/13/13
f 16/16/16 13/13/13 15/15/15
f 13/13/13 16/16/16 17/17/17
f 15/15/15 18/18/18 16/16/16
f 19/19/19 16/16/16 18/18/18
f 16/16/16 19/19/19 20/20/20
f 18/18/18 21/21/21 19/19/19
f 22/22/22 19/19/19 21/21/21
f 19/19/19 22/22/22 23/23/23
f 21/21/21 24/24/24 22/22/22
f 25/25/25 22/22/22 24/24/24
f 22/22/22 25/25/25 26/26/26
f 24/24/24 27/27/27 25/25/25
f 28/28/28 25/25/25 27/27/27
f 25/25/25 28/28/28 29/29/29
f 27/27/27 30/30/30 28/28/28
f 31/31/31 28/28/28 30/30/30
f 28/28/28 31/31/31 32/32/32
f 30/30/30 33/33/33 31/31/31
f 34/34/34 31/31/31 33/33/33
f 31/31/31 34/34/34 35/35/35
f 33/33/33 36/36/36 34/34/34
f 37/37/37 34/34/34 36/36/36
f 34/34/34 37/37/37 38/38/38
f 27/27/27 24/24/24 39/39/39
f 40/40/40 39/39/39 24/24/24
f 39/39/39 41/41/41 27/27/27
f 30/30/30 27/27/27 41/41/41
f 41/41/41 42/42/42 30/30/30
f 33/33/33 30/30/30 42/42/42
f 42/42/42 43/43/43 33/33/33
f 36/36/36 33/33/33 43/43/43
f 39/39/39 40/40/40 44/44/44
f 45/45/45 44/44/44 40/40/40
f 40/40/40 46/46/46 45/45/45
f 46/46/46 40/40/40 21/21/21
f 21/21/21 18/18/18 46/46/46
f 47/47/47 46/46/46 18/18/18
f 18/18/18 15/15/15 47/47/47
f 48/48/48 47/47/47 15/15/15
f 15/15/15 12/12/12 48/48/48
f 49/49/49 48/48/48 12/12/12
f 12/12/12 9/9/9 49/49/49
f 50/50/50 49/49/49 9/9/9
f 9/9/9 6/6/6 50/50/50
f 51/51/51 50/50/50 6/6/6
f 6/6/6 4/4/4 51/51/51
f 52/52/52 51/51/51 4/4/4
f 4/4/4 5/5/5 52/52/52
f 53/53/53 52/52/52 5/5/5
f 52/52/52 53/53/53 54/54/54
f 55/55/55 54/54/54 53/53/53
f 54/54/54 56/56/56 52/52/52
f 51/51/51 52/52/52 56/56/56
f 56/56/56 57/57/57 51/51/51
f 50/50/50 51/51/51 57/57/57
f 57/57/57 58/58/58 50/50/50
f 49/49/49 50/50/50 58/58/58
f 58/58/58 59/59/59 49/49/49
f 48/48/48 49/49/49 59/59/59
f 59/59/59 60/60/60 48/48/48
f 47/47/47 48/48/48 60/60/60
f 60/60/60 61/61/61 47/47/47
f 46/46/46 47/47/47 61/61/61
f 61/61/61 45/45/45 46/46/46
f 54/54/54 55/55/55 62/62/62
f 63/63/63 62/62/62 55/55/55
f 62/62/62 64/64/64 54/54/54
f 56/56/56 54/54/54 64/64/64
f 64/64/64 65/65/65 56/56/56
f 57/57/57 56/56/56 65/65/65
f 65/65/65 66/66/66 57/57/57
f 58/58/58 57/57/57 66/66/66
f 66/66/66 67/67/67 58/58/58
f 59/59/59 58/58/58 67/67/67
f 67/67/67 68/68/68 59/59/59
f 60/60/60 59/59/59 68/68/68
f 68/68/68 69/69/69 60/60/60
f 61/61/61 60/60/60 69/69/69
f 69/69/69 70/70/70 61/61/61
f 45/45/45 61/61/61 70/70/70
f 70/70/70 71/71/71 45/45/45
f 44/44/44 45/45/45 71/71/71
f 71/71/71 72/72/72 44/44/44
f 73/73/73 44/44/44 72/72/72
f 44/44/44 73/73/73 39/39/39
f 41/41/41 39/39/39 73/73/73
f 73/73/73 74/74/74 41/41/41
f 42/42/42 41/41/41 74/74/74
f 74/74/74 75/75/75 42/42/42
f 43/43/43 42/42/42 75/75/75
f 72/72/72 76/76/76 73/73/73
f 74/74/74 73/73/73 76/76/76
f 76/76/76 77/77/77 74/74/74
f 75/75/75 74/74/74 77/77/77
f 68/68/68 67/67/67 78/78/78
f 79/79/79 78/78/78 67/67/67
f 67/67/67 66/66/66 79/79/79
f 80/80/80 79/79/79 66/66/66
f 66/66/66 65/65/65 80/80/80
f 81/81/81 80/80/80 65/65/65
f 65/65/65 64/64/64 81/81/81
f 82/82/82 81/81/81 64/64/64
f 64/64/64 62/62/62 82/82/82
f 83/83/83 82/82/82 62/62/62
f 62/62/62 63/63/63 83/83/83
f 84/84/84 83/83/83 63/63/63
f 78/78/78 85/85/85 68/68/68
f 69/69/69 68/68/68 85/85/85
f 85/85/85 86/86/86 69/69/69
f 70/70/70 69/69/69 86/86/86
f 86/86/86 87/87/87 70/70/70
f 71/71/71 70/70/70 87/87/87
f 87/87/87 88/88/88 71/71/71
f 72/72/72 71/71/71 88/88/88
f 88/88/88 89/89/89 72/72/72
f 76/76/76 72/72/72 89/89/89
f 89/89/89 90/90/90 76/76/76
f 77/77/77 76/76/76 90/90/90
f 83/83/83 84/84/84 91/91/91
f 92/92/92 91/91/91 84/84/84
f 86/86/86 85/85/85 93/93/93
f 94/94/94 93/93/93 85/85/85
f 85/85/85 78/78/78 94/94/94
f 95/95/95 94/94/94 78/78/78
f 78/78/78 79/79/79 95/95/95
f 96/96/96 95/95/95 79/79/79
f 79/79/79 80/80/80 96/96/96
f 97/97/97 96/96/96 80/80/80
f 80/80/80 81/81/81 97/97/97
f 98/98/98 97/97/97 81/81/81
f 81/81/81 82/82/82 98/98/98
f 99/99/99 98/98/98 82/82/82
f 91/91/91 99/99/99 83/83/83
f 82/82/82 83/83/83 99/99/99
f 91/91/91 92/92/92 100/100/100
f 100/100/100 101/101/101 91/91/91
f 99/99/99 91/91/91 101/101/101
f 101/101/101 102/102/102 99/99/99
f 98/98/98 99/99/99 102/102/102
f 102/102/102 103/103/103 98/98/98
f 97/97/97 98/98/98 103/103/103
f 103/103/103 104/104/104 97/97/97
f 96/96/96 97/97/97 104/104/104
f 104/104/104 105/105/105 96/96/96
f 95/95/95 96/96/96 105/105/105
f 105/105/105 106/106/106 95/95/95
f 94/94/94 95/95/95 106/106/106
f 106/106/106 107/107/107 94/94/94
f 93/93/93 94/94/94 107/107/107
f 107/107/107 108/108/108 93/93/93
f 109/109/109 93/93/93 108/108/108
f 93/93/93 109/109/109 86/86/86
f 87/87/87 86/86/86 109/109/109
f 109/109/109 110/110/110 87/87/87
f 88/88/88 87/87/87 110/110/110
f 110/110/110 111/111/111 88/88/88
f 89/89/89 88/88/88 111/111/111
f 111/111/111 112/112/112 89/89/89
f 90/90/90 89/89/89 112/112/112
f 108/108/108 113/113/113 109/109/109
f 110/110/110 109/109/109 113/113/113
f 113/113/113 114/114/114 110/110/110
f 111/111/111 110/110/110 114/114/114
f 114/114/114 115/115/115 111/111/111
f 112/112/112 111/111/111 115/115/115
f 108/108/108 107/107/107 116/116/116
f 117/117/117 116/116/116 107/107/107
f 116/116/116 118/118/118 108/108/108
f 113/113/113 108/108/108 118/118/118
f 118/118/118 119/119/119 113/113/113
f 114/114/114 113/113/113 119/119/119
f 119/119/119 120/120/120 114/114/114
f 115/115/115 114/114/114 120/120/120
f 116/116/116 117/117/117 121/121/121
f 122/122/122 121/121/121 117/117/117
f 117/117/117 123/123/123 122/122/122
f 123/123/123 117/117/117 106/106/106
f 106/106/106 105/105/105 123/123/123
f 124/124/124 123/123/123 105/105/105
f 105/105/105 104/104/104 124/124/124
f 125/125/125 124/124/124 104/104/104
f 104/104/104 103/103/103 125/125/125
f 126/126/126 125/125/125 103/103/103
f 103/103/103 102/102/102 126/126/126
f 127/127/127 126/126/126 102/102/102
f 102/102/102 101/101/101 127/127/127
f 128/128/128 127/127/127 101/101/101
f 101/101/101 100/100/100 128/128/128
f 129/129/129 128/128/128 100/100/100
f 100/100/100 130/130/130 129/129/129
f 130/130/130 100/100/100 92/92/92
f 131/131/131 129/129/129 130/130/130
f 129/129/129 131/131/131 132/132/132
f 133/133/133 132/132/132 131/131/131
f 132/132/132 134/134/134 129/129/129
f 128/128/128 129/129/129 134/134/134
f 134/134/134 135/135/135 128/128/128
f 127/127/127 128/128/128 135/135/135
f 135/135/135 136/136/136 127/127/127
f 126/126/126 127/127/127 136/136/136
f 136/136/136 137/137/137 126/126/126
f 125/125/125 126/126/126 137/137/137
f 137/137/137 138/138/138 125/125/125
f 124/124/124 125/125/125 138/138/138
f 138/138/138 139/139/139 124/124/124
f 123/123/123 124/124/124 139/139/139
f 139/139/139 122/122/122 123/123/123
f 132/132/132 133/133/133 140/140/140
f 141/141/141 140/140/140 133/133/133
f 140/140/140 142/142/142 132/132/132
f 134/134/134 132/132/132 142/142/142
f 142/142/142 143/143/143 134/134/134
f 135/135/135 134/134/134 143/143/143
f 143/143/143 144/144/144 135/135/135
f 136/136/136 135/135/135 144/144/144
f 144/144/144 145/145/145 136/136/136
f 137/137/137 136/136/136 145/145/145
f 145/145/145 146/146/146 137/137/137
f 138/138/138 137/137/137 146/146/146
f 146/146/146 147/147/147 138/138/138
f 139/139/139 138/138/138 147/147/147
f 147/147/147 148/148/148 139/139/139
f 122/122/122 139/139/139 148/148/148
f 148/148/148 149/149/149 122/122/122
f 121/121/121 122/122/122 149/149/149
f 149/149/149 150/150/150 121/121/121
f 151/151/151 121/121/121 150/150/150
f 121/121/121 151/151/151 116/116/116
f 118/118/118 116/116/116 151/151/151
f 151/151/151 152/152/152 118/118/118
f 119/119/119 118/118/118 152/152/152
f 152/152/152 153/153/153 119/119/119
f 120/120/120 119/119/119 153/153/153
f 150/150/150 154/154/154 151/151/151
f 152/152/152 151/151/151 154/154/154
f 154/154/154 155/155/155 152/152/152
f 153/153/153 152/152/152 155/155/155
f 24/24/24 21/21/21 40/40/40
f 107/107/107 106/106/106 117/117/117
