g Spindle001
v 0.4045085 0.2938927 2.664566E-05
v 0.5 -6.078625E-07 14.60627
v 0.4045085 0.293892 14.60627
v 0.5 1.311225E-08 2.664566E-05
v 0.1545085 0.4755282 2.664566E-05
v 0.1545085 0.4755276 14.60627
v -0.1545085 0.4755282 2.664566E-05
v -0.1545085 0.4755276 14.60627
v -0.4045085 0.2938927 2.664566E-05
v -0.4045085 0.293892 14.60627
v -0.5 -3.059913E-08 2.664566E-05
v -0.5 -6.51574E-07 14.60627
v -0.4045085 -0.2938927 2.659721E-05
v -0.4045085 -0.2938933 14.60627
v -0.1545085 -0.4755283 2.659721E-05
v -0.1545085 -0.4755289 14.60627
v 0.1545086 -0.4755283 2.659721E-05
v 0.1545086 -0.4755289 14.60627
v 0.4045086 -0.2938924 2.659721E-05
v 0.4045086 -0.2938931 14.60627
v 0.5 1.311225E-08 2.664566E-05
v 0.5 -6.078625E-07 14.60627
vt 0.1 0
vt 0 1
vt 0.1 1
vt 0 0
vt 0.2 0
vt 0.2 1
vt 0.3 0
vt 0.3 1
vt 0.4 0
vt 0.4 1
vt 0.5 0
vt 0.5 1
vt 0.6 0
vt 0.6 1
vt 0.7 0
vt 0.7 1
vt 0.8 0
vt 0.8 1
vt 0.9 0
vt 0.9 1
vt 1 0
vt 1 1
vn 0.8090169 0.5877854 0
vn 1 0 0
vn 0.8090171 0.5877852 0
vn 1 0 0
vn 0.3090167 0.9510566 0
vn 0.3090171 0.9510565 0
vn -0.3090171 0.9510565 0
vn -0.309017 0.9510565 0
vn -0.8090171 0.5877851 0
vn -0.8090169 0.5877853 0
vn -1 -2.593387E-07 0
vn -1 0 0
vn -0.8090169 -0.5877853 0
vn -0.809017 -0.5877852 0
vn -0.3090169 -0.9510565 0
vn -0.3090171 -0.9510565 0
vn 0.3090173 -0.9510564 0
vn 0.309017 -0.9510565 0
vn 0.8090172 -0.5877849 0
vn 0.8090171 -0.5877852 0
vn 1 0 0
vn 1 0 0
g Spindle001_0
f 3/3/3 2/2/2 1/1/1
f 4/4/4 1/1/1 2/2/2
f 1/1/1 5/5/5 3/3/3
f 6/6/6 3/3/3 5/5/5
f 5/5/5 7/7/7 6/6/6
f 8/8/8 6/6/6 7/7/7
f 7/7/7 9/9/9 8/8/8
f 10/10/10 8/8/8 9/9/9
f 9/9/9 11/11/11 10/10/10
f 12/12/12 10/10/10 11/11/11
f 11/11/11 13/13/13 12/12/12
f 14/14/14 12/12/12 13/13/13
f 13/13/13 15/15/15 14/14/14
f 16/16/16 14/14/14 15/15/15
f 15/15/15 17/17/17 16/16/16
f 18/18/18 16/16/16 17/17/17
f 17/17/17 19/19/19 18/18/18
f 20/20/20 18/18/18 19/19/19
f 19/19/19 21/21/21 20/20/20
f 22/22/22 20/20/20 21/21/21
