g tornado_distortion
v 0.868929 0.9450544 -0.005728563
v 0.8625883 1.142501 -0.3637397
v 0.4845784 0.1915455 -0.1999484
v 0.4859286 -2.486334E-07 1.466226E-09
v 0.3987942 0.3827515 -0.396758
v 0.707042 1.334455 -0.7128345
v 0.2321244 0.5718183 -0.5543873
v 0.4104258 1.517422 -0.9901127
v 0.003472414 0.7571747 -0.639578
v 0.007252688 1.689264 -1.13838
v -0.2548128 0.9380106 -0.6283072
v -0.4452492 1.850088 -1.117101
v -0.501496 1.114688 -0.5111023
v -0.8752308 2.002759 -0.9112648
v -0.6930251 1.288915 -0.296161
v -1.207613 2.152855 -0.5364073
v -0.7910652 1.463603 -0.009550381
v -1.376965 2.307958 -0.03861671
v -0.7697158 1.642391 0.3077634
v -1.339697 2.476386 0.510837
v -0.6211016 1.828903 0.6057512
v -1.080171 2.654379 1.027069
v -0.3582411 2.025871 0.833194
v -0.6221088 2.847574 1.420893
v -0.0145049 2.234303 0.9463578
v -0.03110065 3.072927 1.614148
v 0.3604713 2.452897 0.9170167
v 0.6051027 3.323258 1.558809
v 0.7079435 2.67786 0.7383985
v 1.185487 3.584526 1.244842
v 0.9674372 2.892307 0.426347
v 1.595184 3.836259 0.7045733
v 1.088013 3.089081 0.02090673
v 1.74147 3.977357 0.0114458
v 1.041797 3.2154 -0.4160274
v 1.660369 4.073744 -0.7292391
v 0.8271507 3.291477 -0.8142784
v 1.315821 4.118108 -1.401112
v 0.4693 3.343179 -1.107493
v 0.7609521 4.111688 -1.892087
v 0.01773801 3.373942 -1.242177
v 0.01210016 4.065021 -2.112922
v -0.4603048 3.39159 -1.187429
v -0.7780631 3.997084 -2.013037
v -0.8899044 3.407391 -0.9412368
v -1.484857 3.932799 -1.590812
v -1.200219 3.434354 -0.5323759
v -1.991956 3.899218 -0.8964145
v -1.336145 3.48503 -0.0173611
v -2.209634 3.920942 -0.0263334
v -1.267931 3.569152 0.5272759
v -2.090386 4.015517 0.8898981
v -0.9971124 3.691551 1.01635
v -1.638374 4.189647 1.708971
v -0.5576202 3.850759 1.369338
v -0.9109348 4.436954 2.296204
v -0.0117175 4.038601 1.523571
v -0.01156879 4.737831 2.547577
v 0.5588034 4.240966 1.445143
v 0.9247571 5.061588 2.407817
v 1.050066 4.439701 1.135673
v 1.707624 5.370719 1.881412
v 1.315401 4.615422 0.6336448
v 2.049138 5.626736 1.034518
v 1.385106 4.750788 0.009871033
v 2.100913 5.830894 -0.01424982
v 1.292219 4.848819 -0.6389884
v 1.91835 5.946643 -1.075676
v 0.9803396 4.921752 -1.194209
v 1.52362 5.964984 -1.979595
v 0.5636068 4.943414 -1.569261
v 0.9269355 5.912004 -2.585949
v 0.00267169 4.929232 -1.705414
v -0.01826056 5.824886 -2.799666
v -0.6054165 4.901971 -1.580303
v -1.026729 5.745878 -2.585556
v -1.127102 4.93925 -1.211084
v -1.889538 5.715485 -1.974087
v -1.48113 5.025927 -0.653332
v -2.47215 5.766035 -1.057063
v -1.611034 5.175442 0.008198556
v -2.681652 5.916582 0.0261425
v -1.494236 5.391176 0.6722882
v -2.48154 6.169975 1.109769
v -1.145905 5.665914 1.236744
v -1.897986 6.512565 2.02704
v -0.6170498 5.983102 1.614119
v -1.016507 6.916528 2.635824
v 0.01293607 6.319581 1.745261
v 0.03053116 7.344462 2.840654
v 0.6481782 6.649346 1.608579
v 1.054493 7.755475 2.607696
v 1.079708 6.947732 1.223583
v 1.623267 8.111783 1.970307
v 1.282958 7.195347 0.6481158
v 1.985877 8.384759 1.024284
v 1.397182 7.381133 -0.03033583
v 2.165636 8.559 -0.08587044
v 1.30678 7.504059 -0.7079348
v 2.086589 8.622312 -1.138024
v 1.062393 7.58352 -1.240505
v 1.753583 8.617332 -1.956763
v 0.5895114 7.63613 -1.554675
v 0.9305968 8.60389 -2.437871
v -0.02523497 7.686441 -1.615705
v -0.04045603 8.615161 -2.52971
v -0.604965 7.757698 -1.42952
v -0.9472924 8.674477 -2.242871
v -1.058723 7.869784 -1.04126
v -1.657123 8.792693 -1.64489
v -1.324563 8.034842 -0.5257761
v -2.075303 8.968206 -0.8463947
v -1.376486 8.245102 0.03248091
v -2.157781 9.189263 0.01866006
v -1.220484 8.487464 0.5466439
v -1.914893 9.437887 0.8152417
v -0.8940678 8.745599 0.9424202
v -1.406367 9.694429 1.428291
v -0.4584823 9.003381 1.168804
v -0.7287854 9.941798 1.779307
v 0.01238142 9.247791 1.204458
v 0.002032876 10.16855 1.836082
v 0.4316655 9.470815 1.058997
v 0.6706318 10.37035 1.614426
v 0.7398146 9.670098 0.7692739
v 1.179396 10.54977 1.172102
v 0.9320778 9.848405 0.3915702
v 1.466614 10.71447 0.5964419
v 0.9634942 10.01213 -0.008793279
v 1.506266 10.87462 -0.0119399
vt 0 1
vt 0.01067332 1
vt 0.004845096 0
vt 0 0
vt 0.01485138 0
vt 0.02023676 1
vt 0.02463819 0
vt 0.02944222 1
vt 0.03405565 0
vt 0.03839367 1
vt 0.0432559 0
vt 0.04725411 1
vt 0.05241896 0
vt 0.05616562 1
vt 0.06166823 0
vt 0.06521361 1
vt 0.07106831 0
vt 0.07444121 1
vt 0.08065207 0
vt 0.08387249 1
vt 0.09044118 0
vt 0.09352458 1
vt 0.100451 0
vt 0.1034099 1
vt 0.1106926 0
vt 0.1135372 1
vt 0.1211731 0
vt 0.1239114 1
vt 0.1318949 0
vt 0.1345303 1
vt 0.142889 0
vt 0.1452993 1
vt 0.1556516 0
vt 0.1572106 1
vt 0.1714418 0
vt 0.1727646 1
vt 0.1885185 0
vt 0.1897956 1
vt 0.2059793 0
vt 0.2072185 1
vt 0.2238267 0
vt 0.2250298 1
vt 0.2420512 0
vt 0.2432197 1
vt 0.2606462 0
vt 0.2617818 1
vt 0.2796071 0
vt 0.2807112 1
vt 0.2989295 0
vt 0.3000031 1
vt 0.3186066 0
vt 0.3196529 1
vt 0.3386357 0
vt 0.3396564 1
vt 0.35902 0
vt 0.3600148 1
vt 0.3797713 0
vt 0.3807327 1
vt 0.4009018 0
vt 0.4018111 1
vt 0.4223477 0
vt 0.4232836 1
vt 0.4441373 0
vt 0.4451379 1
vt 0.4651451 0
vt 0.4662769 1
vt 0.4841449 0
vt 0.4854545 1
vt 0.5023405 0
vt 0.5036538 1
vt 0.5205817 0
vt 0.5218906 1
vt 0.5388651 0
vt 0.5401696 1
vt 0.5571886 0
vt 0.5584888 1
vt 0.5755545 0
vt 0.5768507 1
vt 0.5939723 0
vt 0.5952653 1
vt 0.6124489 0
vt 0.6137387 1
vt 0.6309764 0
vt 0.6322623 1
vt 0.6495443 0
vt 0.6508259 1
vt 0.6681465 0
vt 0.6694233 1
vt 0.6867816 0
vt 0.6880538 1
vt 0.7054529 0
vt 0.7067207 1
vt 0.7241625 0
vt 0.7254261 1
vt 0.7429138 0
vt 0.7441745 1
vt 0.7616777 0
vt 0.7629841 1
vt 0.7799433 0
vt 0.7814237 1
vt 0.7976362 0
vt 0.7991713 1
vt 0.8148564 0
vt 0.8164423 1
vt 0.8316007 0
vt 0.8332406 1
vt 0.8478771 0
vt 0.8495755 1
vt 0.8637016 0
vt 0.8654641 1
vt 0.8790878 0
vt 0.8809195 1
vt 0.894038 0
vt 0.8959435 1
vt 0.9085483 0
vt 0.9105322 1
vt 0.9226128 0
vt 0.9246799 1
vt 0.9362263 0
vt 0.9383839 1
vt 0.9494058 0
vt 0.9516692 1
vt 0.9622236 0
vt 0.9646237 1
vt 0.9748147 0
vt 0.9773916 1
vt 0.9872893 0
vt 0.9900494 1
vt 1 0
vt 1 1
vn 0.883053 -0.3791574 -0.2765088
vn 0.7667906 -0.4003001 -0.5017889
vn 0.8411656 -0.3910727 -0.3735005
vn 0.883053 -0.3791574 -0.2765087
vn 0.6213985 -0.4142542 -0.6650242
vn 0.5131401 -0.4234429 -0.7465811
vn 0.3108896 -0.4389072 -0.843035
vn 0.1919079 -0.4478774 -0.8732566
vn -0.0385567 -0.4647588 -0.8845974
vn -0.1478731 -0.4732235 -0.8684429
vn -0.3720205 -0.4910823 -0.7876794
vn -0.4572186 -0.4987484 -0.7363431
vn -0.6384884 -0.5167817 -0.5703238
vn -0.6918805 -0.5234328 -0.4973124
vn -0.7974604 -0.5405254 -0.2681217
vn -0.8168019 -0.5460374 -0.1862199
vn -0.8248868 -0.5608908 0.07045075
vn -0.8111813 -0.5651766 0.1502009
vn -0.7179728 -0.5772846 0.3889186
vn -0.6751661 -0.5808335 0.4547344
vn -0.4967878 -0.5918207 0.6347836
vn -0.4309341 -0.595207 0.6782509
vn -0.1939643 -0.6041471 0.7729063
vn -0.1115302 -0.6062753 0.7873952
vn 0.140872 -0.6087417 0.7807616
vn 0.2230654 -0.6084262 0.7616163
vn 0.4427068 -0.6044216 0.6623331
vn 0.5085575 -0.6022436 0.6153632
vn 0.6691651 -0.5932302 0.4475445
vn 0.7098826 -0.5896372 0.3852204
vn 0.7919689 -0.5816143 0.1857692
vn 0.8030072 -0.5812217 0.1317608
vn 0.805507 -0.5888817 -0.06615646
vn 0.7988108 -0.5930515 -0.1009513
vn 0.725702 -0.6238428 -0.2901321
vn 0.7069888 -0.6301158 -0.3211245
vn 0.5630057 -0.6732942 -0.4792697
vn 0.5379798 -0.6801977 -0.4979045
vn 0.3327431 -0.729994 -0.5969848
vn 0.3136121 -0.7340556 -0.6023369
vn 0.08551987 -0.7791784 -0.6209406
vn 0.07637467 -0.7809533 -0.6199023
vn -0.142994 -0.8225101 -0.5504815
vn -0.1453286 -0.8229571 -0.5492005
vn -0.3252057 -0.857434 -0.3988085
vn -0.3253889 -0.8574709 -0.3985795
vn -0.432741 -0.8811655 -0.1904799
vn -0.4338146 -0.8814678 -0.1865995
vn -0.4490559 -0.8925545 0.04117385
vn -0.4471458 -0.8928059 0.05439051
vn -0.3725936 -0.8907946 0.2601135
vn -0.359569 -0.8897496 0.2811684
vn -0.2164063 -0.8749379 0.4331882
vn -0.1891061 -0.8714056 0.452649
vn -0.006123486 -0.8450974 0.5345773
vn 0.02968706 -0.839128 0.5431232
vn 0.2240829 -0.8043785 0.5502382
vn 0.258684 -0.797433 0.5451452
vn 0.4447058 -0.7573609 0.4781643
vn 0.4727353 -0.7503994 0.4619763
vn 0.6599853 -0.6920381 0.2924088
vn 0.6756746 -0.685072 0.2722868
vn 0.7987559 -0.6000015 0.0445774
vn 0.8002089 -0.5983886 0.03995972
vn 0.8227218 -0.5555183 -0.1205328
vn 0.8218417 -0.5539866 -0.1329472
vn 0.7738192 -0.5707762 -0.2746238
vn 0.7562981 -0.5797752 -0.3031073
vn 0.6319554 -0.64128 -0.4351923
vn 0.6027364 -0.6550627 -0.4556333
vn 0.3626901 -0.7304825 -0.5786632
vn 0.3446108 -0.7338486 -0.585414
vn 0.05672087 -0.7708479 -0.6344889
vn 0.05957614 -0.7705892 -0.6345416
vn -0.2191122 -0.7948706 -0.5658363
vn -0.214304 -0.7945116 -0.5681771
vn -0.4430007 -0.8108567 -0.3824418
vn -0.4439024 -0.8109303 -0.3812385
vn -0.5612423 -0.8180736 -0.1255493
vn -0.5638803 -0.8181012 -0.112914
vn -0.5622631 -0.8122625 0.1552085
vn -0.5560239 -0.8110309 0.1818412
vn -0.4476301 -0.7939337 0.4114565
vn -0.4225924 -0.7903667 0.4435496
vn -0.2385478 -0.7652385 0.5979172
vn -0.1947691 -0.7594546 0.6207203
vn 0.02389279 -0.7312899 0.6816483
vn 0.07552884 -0.7248679 0.6847349
vn 0.2894487 -0.6981319 0.6548522
vn 0.336501 -0.6922747 0.638375
vn 0.5616286 -0.6495406 0.5125136
vn 0.6077042 -0.6357834 0.4758942
vn 0.794472 -0.552231 0.2526961
vn 0.8000121 -0.5490214 0.2419839
vn 0.8477803 -0.5228194 0.08904172
vn 0.8478194 -0.5237862 0.08276533
vn 0.8336483 -0.5508693 -0.03966804
vn 0.8288752 -0.5561366 -0.06064644
vn 0.766287 -0.6055349 -0.2147831
vn 0.7496558 -0.61607 -0.2418141
vn 0.5513025 -0.6827165 -0.4795453
vn 0.5309201 -0.685443 -0.4982889
vn 0.210572 -0.6997603 -0.6826383
vn 0.2109355 -0.6997563 -0.68253
vn -0.112761 -0.6971065 -0.7080448
vn -0.1097875 -0.6971511 -0.7084681
vn -0.4149648 -0.6857079 -0.598004
vn -0.4176703 -0.6855453 -0.5963045
vn -0.6474461 -0.6648651 -0.3725156
vn -0.6553547 -0.663837 -0.3603201
vn -0.7654518 -0.639457 -0.07196003
vn -0.7692409 -0.6373939 -0.04469347
vn -0.7494422 -0.6134484 0.2490331
vn -0.7384561 -0.6106204 0.2860509
vn -0.6050613 -0.5885737 0.5361732
vn -0.5750983 -0.5855484 0.57131
vn -0.3581336 -0.5667014 0.7420173
vn -0.3135708 -0.5640956 0.7638518
vn -0.051121 -0.5494491 0.8339618
vn -0.001680669 -0.5476578 0.8367007
vn 0.2665413 -0.5381957 0.7995631
vn 0.3121584 -0.5374137 0.7834179
vn 0.5504719 -0.5348629 0.6410167
vn 0.586018 -0.5355299 0.6081041
vn 0.7487269 -0.5366289 0.3891496
vn 0.7677007 -0.5372946 0.3492136
vn 0.8410963 -0.5332398 0.09062204
vn 0.8459191 -0.5313508 0.04568578
vn 0.8493867 -0.5169858 -0.1061503
vn 0.8493868 -0.5169858 -0.1061503
g tornado_distortion_0
f 3/3/3 2/2/2 1/1/1
f 4/4/4 3/3/3 1/1/1
f 3/3/3 5/5/5 2/2/2
f 5/5/5 6/6/6 2/2/2
f 5/5/5 7/7/7 6/6/6
f 7/7/7 8/8/8 6/6/6
f 7/7/7 9/9/9 8/8/8
f 9/9/9 10/10/10 8/8/8
f 9/9/9 11/11/11 10/10/10
f 11/11/11 12/12/12 10/10/10
f 11/11/11 13/13/13 12/12/12
f 13/13/13 14/14/14 12/12/12
f 13/13/13 15/15/15 14/14/14
f 15/15/15 16/16/16 14/14/14
f 15/15/15 17/17/17 16/16/16
f 17/17/17 18/18/18 16/16/16
f 17/17/17 19/19/19 18/18/18
f 19/19/19 20/20/20 18/18/18
f 19/19/19 21/21/21 20/20/20
f 21/21/21 22/22/22 20/20/20
f 21/21/21 23/23/23 22/22/22
f 23/23/23 24/24/24 22/22/22
f 23/23/23 25/25/25 24/24/24
f 25/25/25 26/26/26 24/24/24
f 25/25/25 27/27/27 26/26/26
f 27/27/27 28/28/28 26/26/26
f 27/27/27 29/29/29 28/28/28
f 29/29/29 30/30/30 28/28/28
f 29/29/29 31/31/31 30/30/30
f 31/31/31 32/32/32 30/30/30
f 31/31/31 33/33/33 32/32/32
f 33/33/33 34/34/34 32/32/32
f 33/33/33 35/35/35 34/34/34
f 35/35/35 36/36/36 34/34/34
f 35/35/35 37/37/37 36/36/36
f 37/37/37 38/38/38 36/36/36
f 37/37/37 39/39/39 38/38/38
f 39/39/39 40/40/40 38/38/38
f 39/39/39 41/41/41 40/40/40
f 41/41/41 42/42/42 40/40/40
f 41/41/41 43/43/43 42/42/42
f 43/43/43 44/44/44 42/42/42
f 43/43/43 45/45/45 44/44/44
f 45/45/45 46/46/46 44/44/44
f 45/45/45 47/47/47 46/46/46
f 47/47/47 48/48/48 46/46/46
f 47/47/47 49/49/49 48/48/48
f 49/49/49 50/50/50 48/48/48
f 49/49/49 51/51/51 50/50/50
f 51/51/51 52/52/52 50/50/50
f 51/51/51 53/53/53 52/52/52
f 53/53/53 54/54/54 52/52/52
f 53/53/53 55/55/55 54/54/54
f 55/55/55 56/56/56 54/54/54
f 55/55/55 57/57/57 56/56/56
f 57/57/57 58/58/58 56/56/56
f 57/57/57 59/59/59 58/58/58
f 59/59/59 60/60/60 58/58/58
f 59/59/59 61/61/61 60/60/60
f 61/61/61 62/62/62 60/60/60
f 61/61/61 63/63/63 62/62/62
f 63/63/63 64/64/64 62/62/62
f 63/63/63 65/65/65 64/64/64
f 65/65/65 66/66/66 64/64/64
f 65/65/65 67/67/67 66/66/66
f 67/67/67 68/68/68 66/66/66
f 67/67/67 69/69/69 68/68/68
f 69/69/69 70/70/70 68/68/68
f 69/69/69 71/71/71 70/70/70
f 71/71/71 72/72/72 70/70/70
f 71/71/71 73/73/73 72/72/72
f 73/73/73 74/74/74 72/72/72
f 73/73/73 75/75/75 74/74/74
f 75/75/75 76/76/76 74/74/74
f 75/75/75 77/77/77 76/76/76
f 77/77/77 78/78/78 76/76/76
f 77/77/77 79/79/79 78/78/78
f 79/79/79 80/80/80 78/78/78
f 79/79/79 81/81/81 80/80/80
f 81/81/81 82/82/82 80/80/80
f 81/81/81 83/83/83 82/82/82
f 83/83/83 84/84/84 82/82/82
f 83/83/83 85/85/85 84/84/84
f 85/85/85 86/86/86 84/84/84
f 85/85/85 87/87/87 86/86/86
f 87/87/87 88/88/88 86/86/86
f 87/87/87 89/89/89 88/88/88
f 89/89/89 90/90/90 88/88/88
f 89/89/89 91/91/91 90/90/90
f 91/91/91 92/92/92 90/90/90
f 91/91/91 93/93/93 92/92/92
f 93/93/93 94/94/94 92/92/92
f 93/93/93 95/95/95 94/94/94
f 95/95/95 96/96/96 94/94/94
f 95/95/95 97/97/97 96/96/96
f 97/97/97 98/98/98 96/96/96
f 97/97/97 99/99/99 98/98/98
f 99/99/99 100/100/100 98/98/98
f 99/99/99 101/101/101 100/100/100
f 101/101/101 102/102/102 100/100/100
f 101/101/101 103/103/103 102/102/102
f 103/103/103 104/104/104 102/102/102
f 103/103/103 105/105/105 104/104/104
f 105/105/105 106/106/106 104/104/104
f 105/105/105 107/107/107 106/106/106
f 107/107/107 108/108/108 106/106/106
f 107/107/107 109/109/109 108/108/108
f 109/109/109 110/110/110 108/108/108
f 109/109/109 111/111/111 110/110/110
f 111/111/111 112/112/112 110/110/110
f 111/111/111 113/113/113 112/112/112
f 113/113/113 114/114/114 112/112/112
f 113/113/113 115/115/115 114/114/114
f 115/115/115 116/116/116 114/114/114
f 115/115/115 117/117/117 116/116/116
f 117/117/117 118/118/118 116/116/116
f 117/117/117 119/119/119 118/118/118
f 119/119/119 120/120/120 118/118/118
f 119/119/119 121/121/121 120/120/120
f 121/121/121 122/122/122 120/120/120
f 121/121/121 123/123/123 122/122/122
f 123/123/123 124/124/124 122/122/122
f 123/123/123 125/125/125 124/124/124
f 125/125/125 126/126/126 124/124/124
f 125/125/125 127/127/127 126/126/126
f 127/127/127 128/128/128 126/126/126
f 127/127/127 129/129/129 128/128/128
f 129/129/129 130/130/130 128/128/128
