g Torus001
v 1.259968 0.4093883 0
v 1.324808 0 0
v 1.261906 0 0.1518608
v 1.200144 0.3899503 0.1518608
v 1.110045 0 0.2147636
v 1.055715 0.3430227 0.2147636
v 1.200144 0.3899503 -0.1518608
v 1.261906 0 -0.1518608
v 1.055715 0.3430227 -0.2147636
v 1.110045 0 -0.2147636
v 1.200144 -0.3899503 0.1518608
v 1.259968 -0.4093883 0
v 1.055715 -0.3430227 0.2147636
v 1.200144 -0.3899503 -0.1518608
v 1.055715 -0.3430227 -0.2147636
v 1.020903 -0.7417295 0.1518608
v 1.071793 -0.7787029 0
v 0.8980452 -0.652468 0.2147636
v 1.020903 -0.7417295 -0.1518608
v 0.8980452 -0.652468 -0.2147636
v 0.7417295 -1.020903 0.1518608
v 0.7787029 -1.071793 0
v 0.652468 -0.8980452 0.2147636
v 0.7417295 -1.020903 -0.1518608
v 0.652468 -0.8980452 -0.2147636
v 0.3899502 -1.200144 0.1518608
v 0.4093883 -1.259968 0
v 0.3430227 -1.055715 0.2147636
v 0.3899502 -1.200144 -0.1518608
v 0.3430227 -1.055715 -0.2147636
v -5.515965E-08 -1.261906 0.1518608
v -5.790922E-08 -1.324808 0
v -4.85216E-08 -1.110045 0.2147636
v -5.515965E-08 -1.261906 -0.1518608
v -4.85216E-08 -1.110045 -0.2147636
v -0.3899503 -1.200143 0.1518608
v -0.4093884 -1.259968 0
v -0.3430228 -1.055715 0.2147636
v -0.3899503 -1.200143 -0.1518608
v -0.3430228 -1.055715 -0.2147636
v -0.7417294 -1.020903 0.1518608
v -0.7787028 -1.071793 0
v -0.6524679 -0.8980452 0.2147636
v -0.7417294 -1.020903 -0.1518608
v -0.6524679 -0.8980452 -0.2147636
v -1.020903 -0.7417294 0.1518608
v -1.071793 -0.7787028 0
v -0.8980452 -0.6524679 0.2147636
v -1.020903 -0.7417294 -0.1518608
v -0.8980452 -0.6524679 -0.2147636
v -1.200144 -0.38995 0.1518608
v -1.259968 -0.409388 0
v -1.055715 -0.3430225 0.2147636
v -1.200144 -0.38995 -0.1518608
v -1.055715 -0.3430225 -0.2147636
v -1.261906 4.11181E-07 0.1518608
v -1.324808 4.316774E-07 0
v -1.110045 3.616985E-07 0.2147636
v -1.261906 4.11181E-07 -0.1518608
v -1.110045 3.616985E-07 -0.2147636
v -1.200143 0.3899508 0.1518608
v -1.259968 0.4093889 0
v -1.055715 0.3430232 0.2147636
v -1.200143 0.3899508 -0.1518608
v -1.055715 0.3430232 -0.2147636
vt 0.04329097 0.4969063
vt 0.1197026 0.4969063
vt 0.1197026 0.3921235
vt 0.04329097 0.3921236
vt 0.1197026 0.2873408
vt 0.04329097 0.2873408
vt 0.04329101 0.6042339
vt 0.1197026 0.6042339
vt 0.04329105 0.7090166
vt 0.1197027 0.7090166
vt 0.1961143 0.3921235
vt 0.1961143 0.4969063
vt 0.1961143 0.2873408
vt 0.1961143 0.6042339
vt 0.1961144 0.7090166
vt 0.272526 0.3921235
vt 0.272526 0.4969063
vt 0.272526 0.2873408
vt 0.272526 0.6042339
vt 0.272526 0.7090166
vt 0.3489376 0.3921235
vt 0.3489376 0.4969063
vt 0.3489376 0.2873408
vt 0.3489376 0.6042339
vt 0.3489377 0.7090166
vt 0.4253493 0.3921235
vt 0.4253493 0.4969063
vt 0.4253493 0.2873408
vt 0.4253493 0.6042339
vt 0.4253493 0.7090166
vt 0.501761 0.3921235
vt 0.501761 0.4969063
vt 0.501761 0.2873408
vt 0.501761 0.6042339
vt 0.501761 0.7090166
vt 0.5781726 0.3921235
vt 0.5781726 0.4969063
vt 0.5781726 0.2873408
vt 0.5781726 0.6042339
vt 0.5781726 0.7090166
vt 0.6545843 0.3921235
vt 0.6545843 0.4969063
vt 0.6545843 0.2873408
vt 0.6545843 0.6042339
vt 0.6545843 0.7090166
vt 0.7309959 0.3921235
vt 0.7309959 0.4969063
vt 0.7309959 0.2873408
vt 0.7309959 0.6042339
vt 0.7309959 0.7090166
vt 0.8074076 0.3921235
vt 0.8074076 0.4969063
vt 0.8074076 0.2873408
vt 0.8074076 0.6042339
vt 0.8074076 0.7090166
vt 0.8838192 0.3921235
vt 0.8838192 0.4969063
vt 0.8838192 0.2873408
vt 0.8838192 0.6042339
vt 0.8838192 0.7090166
vt 0.9602309 0.3921235
vt 0.9602309 0.4969063
vt 0.9602309 0.2873408
vt 0.9602309 0.6042339
vt 0.9602309 0.7090166
vn 0.9876884 0.1564344 0
vn 1 0 0
vn 0.7252233 0 0.6885137
vn 0.7204859 0.1141137 0.6840162
vn 0.3826834 0 0.9238796
vn 0.3819824 0.06050003 0.9221871
vn 0.7204859 0.1141137 -0.6840162
vn 0.7252232 0 -0.6885138
vn 0.3819823 0.06050001 -0.9221872
vn 0.3826833 0 -0.9238796
vn 0.6897284 -0.2241063 0.6885138
vn 0.9510565 -0.3090169 0
vn 0.3639536 -0.1182557 0.9238796
vn 0.6897283 -0.2241063 -0.6885138
vn 0.3639534 -0.1182556 -0.9238796
vn 0.586718 -0.4262756 0.6885137
vn 0.809017 -0.5877852 0
vn 0.3095974 -0.2249357 0.9238795
vn 0.586718 -0.4262756 -0.6885138
vn 0.3095973 -0.2249356 -0.9238796
vn 0.4262756 -0.586718 0.6885137
vn 0.5877852 -0.809017 0
vn 0.2249357 -0.3095974 0.9238795
vn 0.4262756 -0.586718 -0.6885137
vn 0.2249356 -0.3095973 -0.9238796
vn 0.2241063 -0.6897283 0.6885138
vn 0.3090169 -0.9510565 0
vn 0.1182557 -0.3639535 0.9238796
vn 0.2241063 -0.6897283 -0.6885138
vn 0.1182556 -0.3639534 -0.9238796
vn 0 -0.7252233 0.6885138
vn 0 -1 0
vn 0 -0.3826834 0.9238796
vn 0 -0.7252232 -0.6885138
vn 0 -0.3826832 -0.9238796
vn -0.2241064 -0.6897284 0.6885138
vn -0.3090171 -0.9510565 0
vn -0.1182557 -0.3639536 0.9238795
vn -0.2241064 -0.6897283 -0.6885138
vn -0.1182557 -0.3639534 -0.9238796
vn -0.4262755 -0.586718 0.6885137
vn -0.5877851 -0.8090171 0
vn -0.2249357 -0.3095974 0.9238795
vn -0.4262755 -0.586718 -0.6885138
vn -0.2249356 -0.3095973 -0.9238796
vn -0.586718 -0.4262756 0.6885137
vn -0.809017 -0.5877852 0
vn -0.3095974 -0.2249357 0.9238796
vn -0.586718 -0.4262755 -0.6885138
vn -0.3095973 -0.2249356 -0.9238796
vn -0.6897285 -0.2241062 0.6885138
vn -0.9510566 -0.3090167 0
vn -0.3639536 -0.1182556 0.9238796
vn -0.6897284 -0.2241062 -0.6885137
vn -0.3639534 -0.1182555 -0.9238796
vn -0.7252233 2.721169E-07 0.6885138
vn -1 3.668172E-07 0
vn -0.3826834 0 0.9238796
vn -0.7252232 2.760991E-07 -0.6885138
vn -0.3826832 0 -0.9238796
vn -0.7204859 0.114114 0.6840162
vn -0.9876882 0.1564348 0
vn -0.3819823 0.06050022 0.9221871
vn -0.7204859 0.114114 -0.6840162
vn -0.3819823 0.0605002 -0.9221872
g Torus001_0
f 3/3/3 2/2/2 1/1/1
f 4/4/4 3/3/3 1/1/1
f 5/5/5 3/3/3 4/4/4
f 6/6/6 5/5/5 4/4/4
f 1/1/1 2/2/2 7/7/7
f 2/2/2 8/8/8 7/7/7
f 7/7/7 8/8/8 9/9/9
f 8/8/8 10/10/10 9/9/9
f 3/3/3 11/11/11 2/2/2
f 11/11/11 12/12/12 2/2/2
f 2/2/2 12/12/12 8/8/8
f 13/13/13 11/11/11 3/3/3
f 5/5/5 13/13/13 3/3/3
f 8/8/8 14/14/14 10/10/10
f 12/12/12 14/14/14 8/8/8
f 14/14/14 15/15/15 10/10/10
f 11/11/11 16/16/16 12/12/12
f 16/16/16 17/17/17 12/12/12
f 12/12/12 17/17/17 14/14/14
f 18/18/18 16/16/16 11/11/11
f 13/13/13 18/18/18 11/11/11
f 14/14/14 19/19/19 15/15/15
f 17/17/17 19/19/19 14/14/14
f 19/19/19 20/20/20 15/15/15
f 16/16/16 21/21/21 17/17/17
f 21/21/21 22/22/22 17/17/17
f 17/17/17 22/22/22 19/19/19
f 23/23/23 21/21/21 16/16/16
f 18/18/18 23/23/23 16/16/16
f 19/19/19 24/24/24 20/20/20
f 22/22/22 24/24/24 19/19/19
f 24/24/24 25/25/25 20/20/20
f 21/21/21 26/26/26 22/22/22
f 26/26/26 27/27/27 22/22/22
f 22/22/22 27/27/27 24/24/24
f 28/28/28 26/26/26 21/21/21
f 23/23/23 28/28/28 21/21/21
f 24/24/24 29/29/29 25/25/25
f 27/27/27 29/29/29 24/24/24
f 29/29/29 30/30/30 25/25/25
f 26/26/26 31/31/31 27/27/27
f 31/31/31 32/32/32 27/27/27
f 27/27/27 32/32/32 29/29/29
f 33/33/33 31/31/31 26/26/26
f 28/28/28 33/33/33 26/26/26
f 29/29/29 34/34/34 30/30/30
f 32/32/32 34/34/34 29/29/29
f 34/34/34 35/35/35 30/30/30
f 31/31/31 36/36/36 32/32/32
f 36/36/36 37/37/37 32/32/32
f 32/32/32 37/37/37 34/34/34
f 38/38/38 36/36/36 31/31/31
f 33/33/33 38/38/38 31/31/31
f 34/34/34 39/39/39 35/35/35
f 37/37/37 39/39/39 34/34/34
f 39/39/39 40/40/40 35/35/35
f 36/36/36 41/41/41 37/37/37
f 41/41/41 42/42/42 37/37/37
f 37/37/37 42/42/42 39/39/39
f 43/43/43 41/41/41 36/36/36
f 38/38/38 43/43/43 36/36/36
f 39/39/39 44/44/44 40/40/40
f 42/42/42 44/44/44 39/39/39
f 44/44/44 45/45/45 40/40/40
f 41/41/41 46/46/46 42/42/42
f 46/46/46 47/47/47 42/42/42
f 42/42/42 47/47/47 44/44/44
f 48/48/48 46/46/46 41/41/41
f 43/43/43 48/48/48 41/41/41
f 44/44/44 49/49/49 45/45/45
f 47/47/47 49/49/49 44/44/44
f 49/49/49 50/50/50 45/45/45
f 46/46/46 51/51/51 47/47/47
f 51/51/51 52/52/52 47/47/47
f 47/47/47 52/52/52 49/49/49
f 53/53/53 51/51/51 46/46/46
f 48/48/48 53/53/53 46/46/46
f 49/49/49 54/54/54 50/50/50
f 52/52/52 54/54/54 49/49/49
f 54/54/54 55/55/55 50/50/50
f 51/51/51 56/56/56 52/52/52
f 56/56/56 57/57/57 52/52/52
f 52/52/52 57/57/57 54/54/54
f 58/58/58 56/56/56 51/51/51
f 53/53/53 58/58/58 51/51/51
f 54/54/54 59/59/59 55/55/55
f 57/57/57 59/59/59 54/54/54
f 59/59/59 60/60/60 55/55/55
f 56/56/56 61/61/61 57/57/57
f 61/61/61 62/62/62 57/57/57
f 57/57/57 62/62/62 59/59/59
f 63/63/63 61/61/61 56/56/56
f 58/58/58 63/63/63 56/56/56
f 59/59/59 64/64/64 60/60/60
f 62/62/62 64/64/64 59/59/59
f 64/64/64 65/65/65 60/60/60
