g Wave_02
v -0.1164046 0.1355781 0.1164046
v -0.1164046 0.1355781 -0.1164046
v 3.469128E-09 -0.02108508 3.469128E-09
v 3.469128E-09 -0.02108508 3.469128E-09
v -0.1164046 0.1355781 -0.1164046
v 0.1164046 0.1355781 -0.1164046
v 3.469128E-09 -0.02108508 3.469128E-09
v 0.1164046 0.1355781 0.1164046
v -0.1164046 0.1355781 0.1164046
v 0.1164046 0.1355781 -0.1164046
v 0.1164046 0.1355781 0.1164046
v 3.469128E-09 -0.02108508 3.469128E-09
vt 0 0
vt 0 1
vt 0.5 0.5
vt 0.5 0.5
vt 0 1
vt 1 1
vt 0.5 0.5
vt 1 0
vt 0 0
vt 1 1
vt 1 0
vt 0.5 0.5
vn 0.8026795 0.5964105 0
vn 0.8026795 0.5964105 0
vn 0.8026795 0.5964106 0
vn 0 0.5964106 0.8026795
vn 0 0.5964105 0.8026795
vn 0 0.5964105 0.8026795
vn 0 0.5964106 -0.8026795
vn 0 0.5964105 -0.8026795
vn 0 0.5964105 -0.8026795
vn -0.8026795 0.5964105 0
vn -0.8026795 0.5964105 0
vn -0.8026795 0.5964106 0
g Wave_02_0
f 3/3/3 2/2/2 1/1/1
f 6/6/6 5/5/5 4/4/4
f 9/9/9 8/8/8 7/7/7
f 12/12/12 11/11/11 10/10/10
