g Avatar_Yae_sakura_Mouth_q
v 0.01707084 1.606109 0.09856521
v 0.007109861 1.604471 0.1044688
v 0.006262243 1.609851 0.1080644
v 7.143458E-07 1.603871 0.1067343
v 7.196953E-07 1.60765 0.11041
v 7.069079E-07 1.59856 0.1043753
v 0.007816106 1.598709 0.1023627
v 6.985605E-07 1.592663 0.09860061
v 0.008357843 1.593709 0.09750152
v 0.01491457 1.599387 0.09849884
v 0.02376399 1.602856 0.09249359
v 0.01772301 1.596646 0.09350525
v 0.02092725 1.593117 0.08913635
v 0.03052429 1.599237 0.08663971
v 6.907866E-07 1.587139 0.09483688
v 0.008337999 1.588085 0.0929335
v 0.007614798 1.580499 0.08655487
v 0.01436924 1.58264 0.0847638
v 6.789459E-07 1.578749 0.08793335
v 0.02409565 1.587919 0.08183593
v 0.035608 1.594903 0.07927627
v -0.0170694 1.606109 0.09856521
v -0.006260798 1.609851 0.1080644
v -0.007108431 1.604471 0.1044688
v 7.143458E-07 1.603871 0.1067343
v 7.196953E-07 1.60765 0.11041
v 7.069079E-07 1.59856 0.1043753
v -0.007814692 1.598709 0.1023627
v 6.985605E-07 1.592663 0.09860061
v -0.008356444 1.593709 0.09750152
v -0.01491316 1.599387 0.09849884
v -0.02376256 1.602856 0.09249359
v -0.0177216 1.596646 0.09350525
v -0.02092585 1.593117 0.08913635
v -0.03052288 1.599237 0.08663971
v 6.907866E-07 1.587139 0.09483688
v -0.008336615 1.588085 0.0929335
v -0.007613435 1.580499 0.08655487
v -0.01436787 1.58264 0.0847638
v 6.789459E-07 1.578749 0.08793335
v -0.02409427 1.587919 0.08183593
v -0.0356066 1.594903 0.07927627
vt 0.7395989 0.6432533
vt 0.5935938 0.6243877
vt 0.5810807 0.7062032
vt 0.4979677 0.6206241
vt 0.4979677 0.6775462
vt 0.4979677 0.5437329
vt 0.5946982 0.5450223
vt 0.4979677 0.4580732
vt 0.6077896 0.4704763
vt 0.7104672 0.5525125
vt 0.8506231 0.5779327
vt 0.7384768 0.5005871
vt 0.7845079 0.4554775
vt 0.9353684 0.5210105
vt 0.4979677 0.3720645
vt 0.609949 0.3855731
vt 0.60967 0.2726026
vt 0.7080426 0.3162408
vt 0.4979677 0.2588043
vt 0.8367153 0.3852698
vt 0.9918653 0.4640884
vt 0.2563383 0.6432533
vt 0.4148564 0.7062032
vt 0.4023434 0.6243877
vt 0.4979677 0.6206241
vt 0.4979677 0.6775462
vt 0.4979677 0.5437329
vt 0.401239 0.5450223
vt 0.4979677 0.4580732
vt 0.3881477 0.4704763
vt 0.2854699 0.5525125
vt 0.145314 0.5779327
vt 0.2574607 0.5005871
vt 0.2118403 0.4565066
vt 0.06056876 0.5210105
vt 0.4979677 0.3720645
vt 0.3859882 0.3855731
vt 0.386267 0.2726026
vt 0.2878945 0.3162408
vt 0.4979677 0.2588043
vt 0.1592218 0.3852697
vt 0.004071863 0.4640884
vn 0.5648919 -0.2920749 0.7717444
vn 0.4263534 -0.3653698 0.8274828
vn 0.4189487 -0.5145375 0.7481532
vn 0 -0.4827782 0.8757427
vn 3.181432E-07 -0.5986879 0.8009824
vn 0 -0.5505052 0.8348317
vn 0.3637484 -0.4788136 0.7990148
vn 7.996571E-07 -0.6484424 0.7612637
vn 0.3353404 -0.6091291 0.7186853
vn 0.5298018 -0.4054839 0.7449113
vn 0.5376758 -0.3851311 0.7500525
vn 0.5021965 -0.4726207 0.7241743
vn 0.4828528 -0.5312284 0.6961678
vn 0.5051577 -0.5262085 0.6840469
vn 1.294886E-06 -0.6264419 0.7794681
vn 0.3577506 -0.5878386 0.7255759
vn 0.2895456 -0.6235344 0.7262013
vn 0.4562961 -0.5794097 0.6753358
vn 8.33249E-07 -0.6463887 0.7630083
vn 0.4891866 -0.568582 0.6613705
vn 0.506481 -0.5643587 0.6519021
vn -0.564894 -0.2920725 0.7717438
vn -0.418954 -0.5145361 0.7481511
vn -0.4263575 -0.3653677 0.8274815
vn 0 -0.4827782 0.8757427
vn 3.181432E-07 -0.5986879 0.8009824
vn 0 -0.5505052 0.8348317
vn -0.3637489 -0.478813 0.7990149
vn 7.996571E-07 -0.6484424 0.7612637
vn -0.3353398 -0.6091291 0.7186856
vn -0.5298023 -0.4054833 0.7449113
vn -0.5376762 -0.3851301 0.7500528
vn -0.5021966 -0.4726204 0.7241743
vn -0.4828529 -0.5312273 0.6961685
vn -0.5051547 -0.5262088 0.6840491
vn 1.294886E-06 -0.6264419 0.7794681
vn -0.3577507 -0.5878378 0.7255765
vn -0.2895455 -0.6235338 0.7262018
vn -0.4562997 -0.5794066 0.6753358
vn 8.33249E-07 -0.6463887 0.7630083
vn -0.4891858 -0.5685809 0.6613721
vn -0.5064767 -0.5643592 0.6519049
g Avatar_Yae_sakura_Mouth_q_0
f 3/3/3 2/2/2 1/1/1
f 4/4/4 2/2/2 3/3/3
f 5/5/5 4/4/4 3/3/3
f 2/2/2 4/4/4 6/6/6
f 7/7/7 2/2/2 6/6/6
f 6/6/6 8/8/8 7/7/7
f 8/8/8 9/9/9 7/7/7
f 7/7/7 9/9/9 10/10/10
f 2/2/2 7/7/7 10/10/10
f 1/1/1 2/2/2 10/10/10
f 11/11/11 1/1/1 10/10/10
f 12/12/12 11/11/11 10/10/10
f 9/9/9 12/12/12 10/10/10
f 11/11/11 12/12/12 13/13/13
f 14/14/14 11/11/11 13/13/13
f 8/8/8 15/15/15 9/9/9
f 15/15/15 16/16/16 9/9/9
f 16/16/16 13/13/13 12/12/12
f 9/9/9 16/16/16 12/12/12
f 17/17/17 16/16/16 15/15/15
f 16/16/16 17/17/17 18/18/18
f 16/16/16 18/18/18 13/13/13
f 19/19/19 17/17/17 15/15/15
f 13/13/13 20/20/20 14/14/14
f 18/18/18 20/20/20 13/13/13
f 20/20/20 21/21/21 14/14/14
f 24/24/24 23/23/23 22/22/22
f 24/24/24 25/25/25 23/23/23
f 25/25/25 26/26/26 23/23/23
f 25/25/25 24/24/24 27/27/27
f 24/24/24 28/28/28 27/27/27
f 29/29/29 27/27/27 28/28/28
f 30/30/30 29/29/29 28/28/28
f 30/30/30 28/28/28 31/31/31
f 24/24/24 22/22/22 31/31/31
f 28/28/28 24/24/24 31/31/31
f 22/22/22 32/32/32 31/31/31
f 32/32/32 33/33/33 31/31/31
f 33/33/33 30/30/30 31/31/31
f 33/33/33 32/32/32 34/34/34
f 32/32/32 35/35/35 34/34/34
f 36/36/36 29/29/29 30/30/30
f 37/37/37 36/36/36 30/30/30
f 37/37/37 30/30/30 33/33/33
f 34/34/34 37/37/37 33/33/33
f 37/37/37 38/38/38 36/36/36
f 38/38/38 37/37/37 39/39/39
f 39/39/39 37/37/37 34/34/34
f 38/38/38 40/40/40 36/36/36
f 41/41/41 34/34/34 35/35/35
f 41/41/41 39/39/39 34/34/34
f 42/42/42 41/41/41 35/35/35
