g Avatar_Yae_sakura_Eye_R_q
v -0.07233335 1.708535 0.0739566
v -0.07037919 1.687966 0.07448623
v -0.078175 1.685769 0.05820648
v -0.07973436 1.707258 0.05498886
v -0.06668849 1.671884 0.07361877
v -0.0753487 1.669971 0.05967788
v -0.05983864 1.70959 0.08982971
v -0.05876189 1.687851 0.08945007
v -0.0551673 1.672772 0.0858522
v -0.07145306 1.659793 0.06204803
v -0.06224727 1.660104 0.07289124
v -0.06684529 1.649717 0.06435913
v -0.06062477 1.648472 0.07206588
v -0.05269891 1.659687 0.08195785
v -0.04248957 1.709145 0.104772
v -0.040691 1.687626 0.1035854
v -0.01896541 1.708734 0.1140756
v -0.01710711 1.686973 0.1117824
v -0.02468833 1.673525 0.1025258
v -0.01519126 1.672223 0.1071576
v 8.296053E-07 1.686732 0.1156061
v 8.597925E-07 1.708446 0.1173569
v -0.008486493 1.670871 0.1098091
v -0.0116382 1.656726 0.1005354
v -0.02185836 1.660205 0.09452957
v -0.03871247 1.673144 0.09343994
v -0.03863175 1.659233 0.08850418
v -0.00547872 1.656359 0.1047842
v -0.004809144 1.643557 0.1034819
v -0.01004054 1.642353 0.1001666
v -0.02089442 1.649549 0.09220581
v -0.01707283 1.638851 0.09416931
v -0.02450944 1.645408 0.08968674
v -0.03884029 1.641287 0.084953
v -0.03784026 1.634665 0.08558792
v -0.02542662 1.636297 0.09078582
v -0.04990241 1.64278 0.07975814
v 8.055112E-07 1.669467 0.1109851
v 7.87167E-07 1.656335 0.1068437
v -0.04920014 1.633558 0.07987946
v -0.05901793 1.634655 0.0719693
v -0.06588887 1.637219 0.06003082
v -0.07156264 1.645566 0.05255463
v -0.07597036 1.656117 0.04454956
vt 0.1864534 0.9355993
vt 0.19825 0.687873
vt 0.06848861 0.6760768
vt 0.05669214 0.9002099
vt 0.2218555 0.4984227
vt 0.1039847 0.4861292
vt 0.3398078 0.9238027
vt 0.3398078 0.687873
vt 0.3516043 0.5105127
vt 0.1473446 0.3585021
vt 0.2580391 0.3585851
vt 0.1991668 0.2452861
vt 0.2906188 0.2200139
vt 0.37427 0.3513615
vt 0.516755 0.9238027
vt 0.516755 0.687873
vt 0.764481 0.9120064
vt 0.788074 0.6760768
vt 0.7010011 0.5338537
vt 0.8109301 0.5219873
vt 0.9882372 0.6760768
vt 0.9882372 0.9120064
vt 0.8914521 0.5071841
vt 0.8344064 0.3425948
vt 0.7124425 0.3676587
vt 0.540319 0.5107301
vt 0.5315048 0.3509186
vt 0.9157422 0.3483631
vt 0.9237476 0.2176472
vt 0.8510764 0.1899884
vt 0.7118709 0.2537421
vt 0.755123 0.1414932
vt 0.667855 0.2050492
vt 0.5151913 0.166828
vt 0.529058 0.08296794
vt 0.6636856 0.1016959
vt 0.3980851 0.1887657
vt 0.9882372 0.4747882
vt 0.9882372 0.3557074
vt 0.3990676 0.08126598
vt 0.292651 0.07698544
vt 0.1873974 0.09292305
vt 0.1041165 0.1785559
vt 0.01115961 0.2866679
vn -0.8577615 -0.04794008 0.5118076
vn -0.8375661 -0.1128377 0.5345564
vn -0.8953543 -0.09070978 0.4360189
vn -0.9160396 -0.04097854 0.398989
vn -0.7714373 -0.240998 0.5889011
vn -0.8309953 -0.1947747 0.5210658
vn -0.7073857 -0.06311945 0.7040038
vn -0.673264 -0.1847001 0.7159619
vn -0.5724629 -0.348246 0.7423012
vn -0.8335063 -0.2287146 0.5029482
vn -0.7120698 -0.2390484 0.6601608
vn -0.8488472 -0.1985078 0.4899522
vn -0.6943062 -0.1455959 0.7047984
vn -0.5350218 -0.2529904 0.8060692
vn -0.4965793 -0.08854081 0.8634637
vn -0.4776046 -0.2076348 0.853687
vn -0.2870587 -0.102539 0.9524091
vn -0.2896578 -0.1785391 0.9403309
vn -0.4145633 -0.4496734 0.7911581
vn -0.4295703 -0.4151047 0.801971
vn -0.1966729 -0.1483612 0.9691794
vn -0.1936904 -0.09907304 0.9760475
vn -0.2897229 -0.3022109 0.908146
vn -0.5333911 -0.3195723 0.7831778
vn -0.4129062 -0.3578127 0.8375431
vn -0.4366654 -0.4258789 0.7924333
vn -0.3597101 -0.2492968 0.8991439
vn -0.4251028 -0.2940801 0.85604
vn -0.5456466 -0.09671412 0.8324158
vn -0.5873499 -0.09149048 0.8041453
vn -0.5535915 -0.1389941 0.8211072
vn -0.5634646 -0.01487249 0.8260063
vn -0.327012 -0.1323134 0.9357117
vn -0.3792284 -0.1120919 0.9184886
vn -0.3978897 0.05422526 0.9158294
vn -0.3746471 0.110374 0.9205744
vn -0.5310541 -0.1254523 0.8379996
vn -0.2168352 -0.2717236 0.9376293
vn -0.2449222 -0.3290466 0.9119986
vn -0.5432795 -0.03690171 0.8387405
vn -0.6950912 -0.09849288 0.7121428
vn -0.8699636 -0.2194992 0.4415694
vn -0.9054492 -0.2229362 0.3611942
vn -0.9106222 -0.2244897 0.3469458
g Avatar_Yae_sakura_Eye_R_q_0
f 3/3/3 2/2/2 1/1/1
f 4/4/4 3/3/3 1/1/1
f 5/5/5 2/2/2 3/3/3
f 6/6/6 5/5/5 3/3/3
f 1/1/1 2/2/2 7/7/7
f 2/2/2 8/8/8 7/7/7
f 9/9/9 8/8/8 2/2/2
f 5/5/5 9/9/9 2/2/2
f 5/5/5 6/6/6 10/10/10
f 11/11/11 5/5/5 10/10/10
f 9/9/9 5/5/5 11/11/11
f 10/10/10 12/12/12 11/11/11
f 12/12/12 13/13/13 11/11/11
f 14/14/14 9/9/9 11/11/11
f 14/14/14 11/11/11 13/13/13
f 7/7/7 8/8/8 15/15/15
f 8/8/8 16/16/16 15/15/15
f 15/15/15 16/16/16 17/17/17
f 16/16/16 18/18/18 17/17/17
f 16/16/16 19/19/19 18/18/18
f 19/19/19 20/20/20 18/18/18
f 18/18/18 21/21/21 17/17/17
f 21/21/21 22/22/22 17/17/17
f 20/20/20 23/23/23 18/18/18
f 18/18/18 23/23/23 21/21/21
f 24/24/24 20/20/20 19/19/19
f 23/23/23 20/20/20 24/24/24
f 25/25/25 24/24/24 19/19/19
f 25/25/25 19/19/19 26/26/26
f 26/26/26 19/19/19 16/16/16
f 26/26/26 27/27/27 25/25/25
f 28/28/28 23/23/23 24/24/24
f 28/28/28 24/24/24 29/29/29
f 24/24/24 30/30/30 29/29/29
f 30/30/30 24/24/24 31/31/31
f 24/24/24 25/25/25 31/31/31
f 32/32/32 30/30/30 31/31/31
f 33/33/33 25/25/25 27/27/27
f 32/32/32 31/31/31 33/33/33
f 33/33/33 31/31/31 25/25/25
f 34/34/34 33/33/33 27/27/27
f 33/33/33 34/34/34 35/35/35
f 36/36/36 33/33/33 35/35/35
f 36/36/36 32/32/32 33/33/33
f 27/27/27 14/14/14 34/34/34
f 14/14/14 37/37/37 34/34/34
f 23/23/23 28/28/28 38/38/38
f 23/23/23 38/38/38 21/21/21
f 28/28/28 39/39/39 38/38/38
f 40/40/40 35/35/35 34/34/34
f 37/37/37 40/40/40 34/34/34
f 41/41/41 40/40/40 37/37/37
f 13/13/13 41/41/41 37/37/37
f 37/37/37 14/14/14 13/13/13
f 41/41/41 13/13/13 12/12/12
f 41/41/41 12/12/12 42/42/42
f 12/12/12 43/43/43 42/42/42
f 12/12/12 10/10/10 43/43/43
f 10/10/10 44/44/44 43/43/43
f 14/14/14 27/27/27 9/9/9
f 27/27/27 26/26/26 9/9/9
f 9/9/9 26/26/26 8/8/8
f 26/26/26 16/16/16 8/8/8
