g Ball
v 0.6921481 0.8481109 -0.07825767
v 0.7023876 0.8745458 -0.116472
v 0.657752 0.8745458 -0.116472
v 0.6679915 0.8481109 -0.07825767
v 0.6190964 0.8745458 -0.09415413
v 0.6470712 0.8481109 -0.06617935
v 0.5967786 0.8745458 -0.05549858
v 0.6349929 0.8481109 -0.04525909
v 0.5967786 0.8745458 -0.01086296
v 0.6349929 0.8481109 -0.02110245
v 0.6190964 0.8745458 0.02779266
v 0.6470712 0.8481109 -0.0001821899
v 0.657752 0.8745458 0.05011047
v 0.6679915 0.8481109 0.01189613
v 0.7023876 0.8745458 0.05011047
v 0.6921481 0.8481109 0.01189613
v 0.7130684 0.8481109 -0.06617935
v 0.6004042 0.9141081 -0.1128464
v 0.5712446 0.9141081 -0.06234039
v 0.5712446 0.9141081 -0.004021149
v 0.6004042 0.9141081 0.04648483
v 0.6509102 0.9141081 0.07564446
v 0.7092294 0.9141081 0.07564446
v 0.5622782 0.9607751 -0.06474289
v 0.5938404 0.9607751 -0.1194102
v 0.6509102 0.9141081 -0.1420061
v 0.7410432 0.8745458 -0.09415413
v 0.7251467 0.8481109 -0.04525909
v 0.763361 0.8745458 -0.05549858
v 0.7251467 0.8481109 -0.02110245
v 0.763361 0.8745458 -0.01086296
v 0.7130684 0.8481109 -0.0001821899
v 0.7410432 0.8745458 0.02779266
v 0.6921481 0.8481109 0.01189613
v 0.7023876 0.8745458 0.05011047
v 0.7092294 0.9141081 -0.1420061
v 0.7597354 0.9141081 0.04648483
v 0.7092294 0.9141081 0.07564446
v 0.788895 0.9141081 -0.004021149
v 0.788895 0.9141081 -0.06234039
v 0.7597354 0.9141081 -0.1128464
v 0.7662992 0.9607751 0.05304863
v 0.7116319 0.9607751 0.08461082
v 0.7978613 0.9607751 -0.001618576
v 0.7978613 0.9607751 -0.06474289
v 0.7662992 0.9607751 -0.1194102
v 0.7978613 0.9607751 -0.06474289
v 0.7116319 0.9607751 -0.1509723
v 0.6485077 0.9607751 -0.1509723
v 0.6509102 1.007442 -0.1420061
v 0.7092294 1.007442 -0.1420061
v 0.6004042 1.007442 -0.1128464
v 0.5712446 1.007442 -0.06234047
v 0.5712446 1.007442 -0.004021149
v 0.5622782 0.9607751 -0.001618576
v 0.5938404 0.9607751 0.05304863
v 0.6485077 0.9607751 0.08461082
v 0.7116319 0.9607751 0.08461082
v 0.6004042 1.007442 0.04648483
v 0.6509102 1.007442 0.07564446
v 0.7092294 1.007442 0.07564446
v 0.5967786 1.047005 -0.05549858
v 0.5967786 1.047004 -0.01086288
v 0.6190964 1.047005 0.02779266
v 0.657752 1.047005 0.0501104
v 0.7023876 1.047005 0.0501104
v 0.6349929 1.073439 -0.02110252
v 0.6349929 1.073439 -0.04525917
v 0.6190964 1.047005 -0.09415413
v 0.657752 1.047005 -0.1164721
v 0.7023876 1.047005 -0.1164721
v 0.7597354 1.007442 -0.1128464
v 0.788895 1.007442 -0.06234047
v 0.7410432 1.047005 -0.09415413
v 0.763361 1.047005 -0.05549858
v 0.788895 1.007442 -0.004021149
v 0.7597354 1.007442 0.04648483
v 0.7092294 1.007442 0.07564446
v 0.7410432 1.047005 0.02779266
v 0.7023876 1.047005 0.0501104
v 0.763361 1.047004 -0.01086288
v 0.7130684 1.073439 -0.0001822662
v 0.6921481 1.073439 0.01189613
v 0.7251467 1.073439 -0.02110252
v 0.7251467 1.073439 -0.04525917
v 0.7130684 1.073439 -0.06617935
v 0.6921481 1.073439 -0.0782576
v 0.6679915 1.073439 -0.0782576
v 0.6470712 1.073439 -0.06617935
v 0.6470712 1.073439 -0.0001822662
v 0.6679915 1.073439 0.01189613
v 0.6921481 1.073439 0.01189613
v 0.6800698 0.8388283 -0.03318077
v 0.6800698 0.8388283 -0.03318077
v 0.6800698 0.8388283 -0.03318077
v 0.6800698 0.8388283 -0.03318077
v 0.6800698 0.8388283 -0.03318077
v 0.6800698 0.8388283 -0.03318077
v 0.6800698 0.8388283 -0.03318077
v 0.6800698 0.8388283 -0.03318077
v 0.6800698 0.8388283 -0.03318077
v 0.6800698 0.8388283 -0.03318077
v 0.6800698 0.8388283 -0.03318077
v 0.6800698 0.8388283 -0.03318077
vt 0.4785932 0.5280477
vt 0.5032017 0.5280477
vt 0.5032486 0.5098811
vt 0.4787329 0.5090868
vt 0.503287 0.4917147
vt 0.4788845 0.4917147
vt 0.5032629 0.4735479
vt 0.4787637 0.4740931
vt 0.5032341 0.4553815
vt 0.4786563 0.4553815
vt 0.5032303 0.437215
vt 0.4786718 0.437215
vt 0.5032352 0.4190486
vt 0.4786844 0.4190486
vt 0.5032416 0.4008818
vt 0.4786892 0.4008817
vt 0.4786198 0.5462145
vt 0.5198722 0.4917148
vt 0.5198663 0.4735479
vt 0.5198532 0.4553815
vt 0.5198514 0.4372151
vt 0.5198593 0.4190486
vt 0.5198656 0.4008818
vt 0.5340756 0.473548
vt 0.5340797 0.4917147
vt 0.5198564 0.5098811
vt 0.5031927 0.5462145
vt 0.4786387 0.5643808
vt 0.5031961 0.5643809
vt 0.4786546 0.5825474
vt 0.5032063 0.5825474
vt 0.4786654 0.6007138
vt 0.5032176 0.6007138
vt 0.4786732 0.6188808
vt 0.5032239 0.6188808
vt 0.5198333 0.5280477
vt 0.5198402 0.6007139
vt 0.5198483 0.6188808
vt 0.519828 0.5825475
vt 0.5198223 0.5643809
vt 0.5198237 0.5462145
vt 0.534055 0.6007139
vt 0.5340645 0.6188808
vt 0.5340504 0.5825475
vt 0.5340458 0.5643809
vt 0.5340481 0.5462145
vt 0.5340458 0.5643809
vt 0.534058 0.5280476
vt 0.5340692 0.5098811
vt 0.5482897 0.5098816
vt 0.5482796 0.5280477
vt 0.5482922 0.4917147
vt 0.5482926 0.4735479
vt 0.5482882 0.4553819
vt 0.5340704 0.4553815
vt 0.5340708 0.437215
vt 0.5340724 0.4190486
vt 0.5340788 0.4008818
vt 0.5482854 0.437215
vt 0.5482886 0.4190482
vt 0.5482886 0.4008822
vt 0.5649104 0.4735479
vt 0.5649068 0.4553819
vt 0.5649048 0.437215
vt 0.5649016 0.4190482
vt 0.5649016 0.4008822
vt 0.5894514 0.4553819
vt 0.5894548 0.4735479
vt 0.5649135 0.4917147
vt 0.5649099 0.5098815
vt 0.5649061 0.5280477
vt 0.5482739 0.5462145
vt 0.5482699 0.5643814
vt 0.5648981 0.5462145
vt 0.5648924 0.5643812
vt 0.5482684 0.5825475
vt 0.5482727 0.6007134
vt 0.5482743 0.6188812
vt 0.564889 0.6007136
vt 0.5648905 0.6188812
vt 0.5648917 0.5825475
vt 0.5894303 0.6007134
vt 0.5894238 0.6188812
vt 0.5894354 0.5825475
vt 0.5894403 0.5643814
vt 0.5894466 0.5462145
vt 0.5894538 0.5280477
vt 0.5894591 0.5098816
vt 0.5894583 0.4917147
vt 0.5894461 0.437215
vt 0.5894415 0.4190482
vt 0.589435 0.4008822
vt 0.4505255 0.5185673
vt 0.4537045 0.5004008
vt 0.453243 0.4829038
vt 0.4510432 0.4647373
vt 0.4520287 0.4462981
vt 0.452037 0.4281316
vt 0.4520432 0.4099652
vt 0.4519783 0.5371311
vt 0.4520002 0.5552975
vt 0.4520144 0.5734643
vt 0.4520259 0.5916308
vt 0.4520339 0.6097973
vn 0.1262266 -0.8730103 -0.4710838
vn 0.1939077 -0.6623417 -0.7236735
vn -0.1939077 -0.6623417 -0.7236734
vn -0.1262265 -0.8730103 -0.4710838
vn -0.5297658 -0.6623417 -0.5297658
vn -0.3448573 -0.8730103 -0.3448573
vn -0.7236734 -0.6623417 -0.1939077
vn -0.4710839 -0.8730102 -0.1262266
vn -0.7236735 -0.6623417 0.1939077
vn -0.4710839 -0.8730102 0.1262265
vn -0.5297658 -0.6623417 0.5297658
vn -0.3448574 -0.8730103 0.3448572
vn -0.1939077 -0.6623417 0.7236735
vn -0.1262266 -0.8730103 0.4710838
vn 0.1939077 -0.6623417 0.7236734
vn 0.1262265 -0.8730103 0.4710838
vn 0.3448574 -0.8730103 -0.3448572
vn -0.6608385 -0.3557879 -0.6608385
vn -0.9027221 -0.3557879 -0.2418837
vn -0.9027221 -0.3557878 0.2418836
vn -0.6608385 -0.3557878 0.6608385
vn -0.2418836 -0.3557878 0.9027221
vn 0.2418837 -0.3557879 0.9027221
vn -0.9659258 0 -0.2588191
vn -0.7071068 0 -0.7071068
vn -0.2418837 -0.3557879 -0.9027221
vn 0.5297658 -0.6623417 -0.5297658
vn 0.4710839 -0.8730102 -0.1262265
vn 0.7236735 -0.6623417 -0.1939077
vn 0.4710839 -0.8730102 0.1262266
vn 0.7236734 -0.6623417 0.1939077
vn 0.3448573 -0.8730103 0.3448573
vn 0.5297658 -0.6623417 0.5297658
vn 0.1262265 -0.8730103 0.4710838
vn 0.1939077 -0.6623417 0.7236734
vn 0.2418837 -0.3557878 -0.9027221
vn 0.6608385 -0.3557879 0.6608385
vn 0.2418837 -0.3557879 0.9027221
vn 0.9027221 -0.3557879 0.2418837
vn 0.9027221 -0.3557878 -0.2418836
vn 0.6608385 -0.3557878 -0.6608385
vn 0.7071068 0 0.7071068
vn 0.2588191 0 0.9659258
vn 0.9659258 0 0.2588191
vn 0.9659258 0 -0.258819
vn 0.7071068 0 -0.7071068
vn 0.9659258 0 -0.258819
vn 0.258819 0 -0.9659258
vn -0.2588191 0 -0.9659258
vn -0.2418837 0.3557879 -0.9027221
vn 0.2418836 0.3557878 -0.9027221
vn -0.6608385 0.3557879 -0.6608385
vn -0.9027221 0.3557878 -0.2418837
vn -0.9027221 0.3557878 0.2418836
vn -0.9659258 0 0.258819
vn -0.7071068 0 0.7071068
vn -0.258819 0 0.9659258
vn 0.2588191 0 0.9659258
vn -0.6608385 0.3557879 0.6608385
vn -0.2418836 0.3557878 0.9027221
vn 0.2418837 0.3557879 0.9027221
vn -0.7236734 0.6623417 -0.1939077
vn -0.7236735 0.6623417 0.1939078
vn -0.5297658 0.6623417 0.5297658
vn -0.1939077 0.6623417 0.7236734
vn 0.1939078 0.6623417 0.7236735
vn -0.4710838 0.8730103 0.1262266
vn -0.4710838 0.8730103 -0.1262265
vn -0.5297658 0.6623417 -0.5297658
vn -0.1939078 0.6623417 -0.7236735
vn 0.1939078 0.6623417 -0.7236735
vn 0.6608385 0.3557879 -0.6608385
vn 0.9027221 0.3557878 -0.2418836
vn 0.5297658 0.6623417 -0.5297658
vn 0.7236735 0.6623417 -0.1939078
vn 0.9027221 0.3557878 0.2418837
vn 0.6608385 0.3557879 0.6608385
vn 0.2418837 0.3557879 0.9027221
vn 0.5297658 0.6623417 0.5297658
vn 0.1939078 0.6623417 0.7236735
vn 0.7236734 0.6623417 0.1939077
vn 0.3448573 0.8730103 0.3448573
vn 0.1262266 0.8730103 0.4710838
vn 0.4710838 0.8730103 0.1262265
vn 0.4710838 0.8730103 -0.1262266
vn 0.3448573 0.8730103 -0.3448574
vn 0.1262266 0.8730103 -0.4710838
vn -0.1262266 0.8730103 -0.4710838
vn -0.3448573 0.8730103 -0.3448573
vn -0.3448573 0.8730103 0.3448574
vn -0.1262266 0.8730103 0.4710838
vn 0.1262266 0.8730103 0.4710838
vn 0 -1 0
vn 0 -1 0
vn 0 -1 0
vn 0 -1 0
vn 0 -1 0
vn 0 -1 0
vn 0 -1 0
vn 0 -1 0
vn 0 -1 0
vn 0 -1 0
vn 0 -1 0
vn 0 -1 0
g Ball_0
f 3/3/3 2/2/2 1/1/1
f 4/4/4 3/3/3 1/1/1
f 5/5/5 3/3/3 4/4/4
f 6/6/6 5/5/5 4/4/4
f 7/7/7 5/5/5 6/6/6
f 8/8/8 7/7/7 6/6/6
f 9/9/9 7/7/7 8/8/8
f 10/10/10 9/9/9 8/8/8
f 11/11/11 9/9/9 10/10/10
f 12/12/12 11/11/11 10/10/10
f 13/13/13 11/11/11 12/12/12
f 14/14/14 13/13/13 12/12/12
f 15/15/15 13/13/13 14/14/14
f 16/16/16 15/15/15 14/14/14
f 1/1/1 2/2/2 17/17/17
f 5/5/5 18/18/18 3/3/3
f 19/19/19 18/18/18 5/5/5
f 7/7/7 19/19/19 5/5/5
f 20/20/20 19/19/19 7/7/7
f 9/9/9 20/20/20 7/7/7
f 21/21/21 20/20/20 9/9/9
f 11/11/11 21/21/21 9/9/9
f 22/22/22 21/21/21 11/11/11
f 13/13/13 22/22/22 11/11/11
f 23/23/23 22/22/22 13/13/13
f 15/15/15 23/23/23 13/13/13
f 19/19/19 24/24/24 18/18/18
f 24/24/24 25/25/25 18/18/18
f 18/18/18 25/25/25 26/26/26
f 18/18/18 26/26/26 3/3/3
f 3/3/3 26/26/26 2/2/2
f 2/2/2 27/27/27 17/17/17
f 17/17/17 27/27/27 28/28/28
f 27/27/27 29/29/29 28/28/28
f 28/28/28 29/29/29 30/30/30
f 29/29/29 31/31/31 30/30/30
f 30/30/30 31/31/31 32/32/32
f 31/31/31 33/33/33 32/32/32
f 32/32/32 33/33/33 34/34/34
f 33/33/33 35/35/35 34/34/34
f 26/26/26 36/36/36 2/2/2
f 2/2/2 36/36/36 27/27/27
f 33/33/33 37/37/37 35/35/35
f 37/37/37 38/38/38 35/35/35
f 39/39/39 37/37/37 33/33/33
f 31/31/31 39/39/39 33/33/33
f 40/40/40 39/39/39 31/31/31
f 29/29/29 40/40/40 31/31/31
f 41/41/41 40/40/40 29/29/29
f 27/27/27 41/41/41 29/29/29
f 36/36/36 41/41/41 27/27/27
f 37/37/37 42/42/42 38/38/38
f 42/42/42 43/43/43 38/38/38
f 44/44/44 42/42/42 37/37/37
f 39/39/39 44/44/44 37/37/37
f 45/45/45 44/44/44 39/39/39
f 40/40/40 45/45/45 39/39/39
f 41/41/41 46/46/46 40/40/40
f 46/46/46 47/47/47 40/40/40
f 48/48/48 46/46/46 41/41/41
f 36/36/36 48/48/48 41/41/41
f 49/49/49 48/48/48 36/36/36
f 26/26/26 49/49/49 36/36/36
f 25/25/25 49/49/49 26/26/26
f 49/49/49 50/50/50 48/48/48
f 50/50/50 51/51/51 48/48/48
f 48/48/48 51/51/51 46/46/46
f 52/52/52 50/50/50 49/49/49
f 25/25/25 52/52/52 49/49/49
f 53/53/53 52/52/52 25/25/25
f 24/24/24 53/53/53 25/25/25
f 54/54/54 53/53/53 24/24/24
f 55/55/55 54/54/54 24/24/24
f 55/55/55 24/24/24 19/19/19
f 20/20/20 55/55/55 19/19/19
f 56/56/56 55/55/55 20/20/20
f 21/21/21 56/56/56 20/20/20
f 57/57/57 56/56/56 21/21/21
f 22/22/22 57/57/57 21/21/21
f 58/58/58 57/57/57 22/22/22
f 23/23/23 58/58/58 22/22/22
f 59/59/59 54/54/54 55/55/55
f 56/56/56 59/59/59 55/55/55
f 60/60/60 59/59/59 56/56/56
f 57/57/57 60/60/60 56/56/56
f 61/61/61 60/60/60 57/57/57
f 58/58/58 61/61/61 57/57/57
f 53/53/53 62/62/62 52/52/52
f 63/63/63 62/62/62 53/53/53
f 54/54/54 63/63/63 53/53/53
f 64/64/64 63/63/63 54/54/54
f 59/59/59 64/64/64 54/54/54
f 65/65/65 64/64/64 59/59/59
f 60/60/60 65/65/65 59/59/59
f 66/66/66 65/65/65 60/60/60
f 61/61/61 66/66/66 60/60/60
f 63/63/63 67/67/67 62/62/62
f 67/67/67 68/68/68 62/62/62
f 62/62/62 68/68/68 69/69/69
f 62/62/62 69/69/69 52/52/52
f 52/52/52 69/69/69 50/50/50
f 69/69/69 70/70/70 50/50/50
f 50/50/50 70/70/70 51/51/51
f 70/70/70 71/71/71 51/51/51
f 51/51/51 71/71/71 72/72/72
f 51/51/51 72/72/72 46/46/46
f 46/46/46 72/72/72 45/45/45
f 72/72/72 73/73/73 45/45/45
f 72/72/72 74/74/74 73/73/73
f 71/71/71 74/74/74 72/72/72
f 74/74/74 75/75/75 73/73/73
f 73/73/73 75/75/75 76/76/76
f 73/73/73 76/76/76 44/44/44
f 44/44/44 76/76/76 42/42/42
f 76/76/76 77/77/77 42/42/42
f 42/42/42 77/77/77 43/43/43
f 77/77/77 78/78/78 43/43/43
f 47/47/47 73/73/73 44/44/44
f 77/77/77 79/79/79 78/78/78
f 79/79/79 80/80/80 78/78/78
f 81/81/81 79/79/79 77/77/77
f 76/76/76 81/81/81 77/77/77
f 75/75/75 81/81/81 76/76/76
f 79/79/79 82/82/82 80/80/80
f 82/82/82 83/83/83 80/80/80
f 84/84/84 82/82/82 79/79/79
f 81/81/81 84/84/84 79/79/79
f 85/85/85 84/84/84 81/81/81
f 75/75/75 85/85/85 81/81/81
f 86/86/86 85/85/85 75/75/75
f 74/74/74 86/86/86 75/75/75
f 87/87/87 86/86/86 74/74/74
f 71/71/71 87/87/87 74/74/74
f 88/88/88 87/87/87 71/71/71
f 70/70/70 88/88/88 71/71/71
f 89/89/89 88/88/88 70/70/70
f 69/69/69 89/89/89 70/70/70
f 68/68/68 89/89/89 69/69/69
f 90/90/90 67/67/67 63/63/63
f 64/64/64 90/90/90 63/63/63
f 91/91/91 90/90/90 64/64/64
f 65/65/65 91/91/91 64/64/64
f 92/92/92 91/91/91 65/65/65
f 66/66/66 92/92/92 65/65/65
f 1/1/1 93/93/93 4/4/4
f 4/4/4 94/94/94 6/6/6
f 6/6/6 95/95/95 8/8/8
f 8/8/8 96/96/96 10/10/10
f 10/10/10 97/97/97 12/12/12
f 12/12/12 98/98/98 14/14/14
f 14/14/14 99/99/99 16/16/16
f 17/17/17 100/100/100 1/1/1
f 28/28/28 101/101/101 17/17/17
f 30/30/30 102/102/102 28/28/28
f 32/32/32 103/103/103 30/30/30
f 34/34/34 104/104/104 32/32/32
