g BG_PerpStage_S04_Outside
v 17708.9 -13292.13 15834.72
v 17708.73 -13290.53 -11115.78
v 17708.82 13290.54 -11115.79
v 17709.02 13290.64 15834.72
v -51887.76 13290.61 -11115.8
v -51887.83 -13289.21 -11115.78
v 16765.8 39871.61 -11492.41
v 16765.91 39873.43 15803.17
v 14879.66 66452.72 -12245.65
v 14879.56 66456.23 15740.07
v 12050.4 93033.75 -13375.49
v 12049.95 93039.02 15645.41
v 8278.016 119614.8 -14881.95
v 8277.129 119621.8 15519.21
v 16765.53 -39874.92 15803.17
v 16765.52 -39871.61 -11492.38
v 14878.92 -66457.72 15740.06
v 14879.18 -66452.68 -12245.59
v 12049.08 -93040.5 15645.41
v 12049.75 -93033.77 -13375.42
v 8275.996 -119623.3 15519.2
v 8277.184 -119614.8 -14881.85
v -57546.21 -93028.64 -13375.18
v -61318.4 -119608.5 -14881.46
v -54717.05 -66448.83 -12245.47
v -52830.93 -39869.03 -11492.34
v -61317.77 119609.8 -14881.64
v -57545.72 93029.97 -13375.32
v -54716.7 66450.19 -12245.57
v -52830.71 39870.4 -11492.4
vt 0.6028973 0.9978702
vt 0.6028973 0.6878471
vt 0.4572654 0.6878471
vt 0.4572654 0.9978702
vt 0.4572654 0.001754703
vt 0.6028973 0.001754703
vt 0.3116336 0.6878471
vt 0.3116335 0.9978702
vt 0.1660017 0.6878471
vt 0.1660017 0.9978702
vt 0.02036978 0.6878471
vt 0.02036977 0.9978702
vt -0.1252621 0.6878471
vt -0.1252621 0.9978702
vt 0.7485292 0.9978702
vt 0.7485293 0.6878471
vt 0.8941611 0.9978702
vt 0.8941611 0.6878471
vt 1.039793 0.9978702
vt 1.039793 0.6878471
vt 1.185425 0.9978702
vt 1.185425 0.6878471
vt 1.039793 0.001754703
vt 1.185425 0.001754703
vt 0.8941611 0.001754703
vt 0.7485293 0.001754703
vt -0.1252621 0.001754703
vt 0.02036978 0.001754703
vt 0.1660017 0.001754703
vt 0.3116336 0.001754703
vn -0.9998427 0.01773671 0
vn -0.7069909 0.007532663 0.7071826
vn -0.7069909 -0.007526055 0.7071826
vn -0.9998429 -0.01772852 0
vn 0 0.007084067 0.9999749
vn 0 -0.007082904 0.9999749
vn -0.7064582 -0.02255178 0.7073954
vn -0.9985877 -0.0531268 0
vn -0.7053986 -0.03747972 0.7078193
vn -0.9960915 -0.08832639 0
vn -0.7038234 -0.05224634 0.708451
vn -0.992382 -0.1231984 0
vn -0.7028887 -0.05958698 0.7087996
vn -0.9900785 -0.1405153 0
vn -0.9985873 0.05313522 0
vn -0.7064582 0.02255854 0.7073953
vn -0.9960909 0.08833446 0
vn -0.7053984 0.03748628 0.707819
vn -0.9923811 0.1232063 0
vn -0.7038233 0.05225278 0.7084506
vn -0.9900773 0.1405235 0
vn -0.7028886 0.05959367 0.7087991
vn 0 -0.04952426 0.9987729
vn 0 -0.05658082 0.9983981
vn 0 -0.0353956 0.9993734
vn 0 -0.02124565 0.9997743
vn 0 0.05658195 0.9983979
vn 0 0.04952543 0.9987729
vn 0 0.03539677 0.9993733
vn 0 0.02124679 0.9997742
g BG_PerpStage_S04_Outside_0
f 3/3/3 2/2/2 1/1/1
f 4/4/4 3/3/3 1/1/1
f 2/2/2 3/3/3 5/5/5
f 6/6/6 2/2/2 5/5/5
f 7/7/7 3/3/3 4/4/4
f 8/8/8 7/7/7 4/4/4
f 9/9/9 7/7/7 8/8/8
f 10/10/10 9/9/9 8/8/8
f 11/11/11 9/9/9 10/10/10
f 12/12/12 11/11/11 10/10/10
f 13/13/13 11/11/11 12/12/12
f 14/14/14 13/13/13 12/12/12
f 15/15/15 1/1/1 2/2/2
f 16/16/16 15/15/15 2/2/2
f 16/16/16 2/2/2 6/6/6
f 17/17/17 15/15/15 16/16/16
f 18/18/18 17/17/17 16/16/16
f 19/19/19 17/17/17 18/18/18
f 20/20/20 19/19/19 18/18/18
f 21/21/21 19/19/19 20/20/20
f 22/22/22 21/21/21 20/20/20
f 22/22/22 20/20/20 23/23/23
f 24/24/24 22/22/22 23/23/23
f 20/20/20 18/18/18 25/25/25
f 23/23/23 20/20/20 25/25/25
f 18/18/18 16/16/16 26/26/26
f 25/25/25 18/18/18 26/26/26
f 26/26/26 16/16/16 6/6/6
f 13/13/13 27/27/27 11/11/11
f 27/27/27 28/28/28 11/11/11
f 11/11/11 28/28/28 9/9/9
f 28/28/28 29/29/29 9/9/9
f 9/9/9 29/29/29 7/7/7
f 29/29/29 30/30/30 7/7/7
f 7/7/7 30/30/30 3/3/3
f 30/30/30 5/5/5 3/3/3
