g Box_top
v -0.4263485 0.8602414 0.2842323
v -0.2842323 0.8602414 0.4263485
v -0.2842323 0.8602414 -0.4263486
v -0.4263485 0.8602414 -0.2842324
v 0.2842323 0.8602414 -0.4263486
v 0.2842323 0.8602414 0.4263485
v 0.4263485 0.8602414 0.2842323
v 0.4263485 0.8602414 -0.2842324
v -0.4391567 0.8783134 0.2927711
v -0.2927711 0.8783134 0.4391567
v -0.2927711 0.8783134 -0.4391567
v -0.4391567 0.8783134 -0.2927712
v 0.2927711 0.8783134 -0.4391567
v 0.2927711 0.8783134 0.4391567
v 0.4391567 0.8783134 0.2927711
v 0.4391567 0.8783134 -0.2927712
vt 0.477119 0.804207
vt 0.4003 0.958641
vt 0.4003 0.032034
vt 0.477119 0.186468
vt 0.093027 0.032034
vt 0.093027 0.958641
vt 0.016208 0.804207
vt 0.016208 0.186468
vt 0.477119 0.804207
vt 0.4003 0.958641
vt 0.4003 0.032034
vt 0.477119 0.186468
vt 0.093027 0.032034
vt 0.093027 0.958641
vt 0.016208 0.804207
vt 0.016208 0.186468
vn -0.8657289 -0.449003 0.221156
vn -0.6164542 -0.7491802 0.2423081
vn -0.6095732 -0.7722913 -0.1788481
vn -0.8428676 -0.4986407 -0.2023159
vn 0.6164542 -0.7491802 -0.2423081
vn 0.6095731 -0.7722912 0.178849
vn 0.8428676 -0.4986407 0.2023159
vn 0.8657289 -0.449003 -0.221156
vn -0.9761799 0.197459 0.089904
vn -0.5774531 0.7471901 0.3290211
vn -0.7278572 0.5604611 -0.3951041
vn -0.9241272 0.3817171 -0.016759
vn 0.5774527 0.7471906 -0.3290208
vn 0.7278568 0.5604618 0.3951039
vn 0.9241272 0.3817171 0.016759
vn 0.9761799 0.197459 -0.089904
g Box_top_0
f 3/3/3 2/2/2 1/1/1
f 4/4/4 3/3/3 1/1/1
f 3/3/3 5/5/5 2/2/2
f 5/5/5 6/6/6 2/2/2
f 6/6/6 5/5/5 7/7/7
f 5/5/5 8/8/8 7/7/7
f 1/1/1 2/2/2 9/9/9
f 2/2/2 10/10/10 9/9/9
f 2/2/2 6/6/6 10/10/10
f 10/10/10 11/11/11 9/9/9
f 3/3/3 4/4/4 11/11/11
f 11/11/11 12/12/12 9/9/9
f 4/4/4 12/12/12 11/11/11
f 1/1/1 9/9/9 12/12/12
f 4/4/4 1/1/1 12/12/12
f 13/13/13 11/11/11 10/10/10
f 3/3/3 11/11/11 13/13/13
f 5/5/5 3/3/3 13/13/13
f 14/14/14 13/13/13 10/10/10
f 6/6/6 14/14/14 10/10/10
f 6/6/6 7/7/7 14/14/14
f 13/13/13 14/14/14 15/15/15
f 7/7/7 8/8/8 15/15/15
f 7/7/7 15/15/15 14/14/14
f 16/16/16 13/13/13 15/15/15
f 8/8/8 16/16/16 15/15/15
f 5/5/5 13/13/13 16/16/16
f 8/8/8 5/5/5 16/16/16
