g Cannon_B10_In
v 0.5862954 1.19081 -0.0331964
v 0.5862954 0.9180099 -0.0331964
v 0.5951214 0.9180099 -0.0775673
v 0.5951214 1.19081 -0.0775673
v 0.6202555 0.9180099 -0.1151832
v 0.6202555 1.19081 -0.1151832
v 0.6202555 0.2450291 -0.1151832
v 0.5951214 0.2450291 -0.0775673
v 0.5862954 0.2450291 -0.0331964
v 0.5951214 0.9180099 0.0111745
v 0.5862954 1.19081 -0.0331964
v 0.5951214 1.19081 0.0111745
v 0.6202555 0.9180099 0.04879039
v 0.6202555 1.19081 0.04879037
v 0.6578713 0.9180099 0.0739245
v 0.6578713 1.19081 0.0739245
v 0.7022423 0.9180099 0.08275045
v 0.7022423 1.19081 0.08275045
v 0.7466131 0.9180099 0.07392453
v 0.7466131 1.19081 0.07392453
v 0.784229 0.9180099 0.0487904
v 0.784229 1.19081 0.0487904
v 0.8093631 0.9180099 0.01117454
v 0.8093631 1.19081 0.01117454
v 0.8181891 0.9180099 -0.0331964
v 0.8181891 1.19081 -0.0331964
v 0.6202555 0.2450291 0.04879039
v 0.5951214 0.2450291 0.0111745
v 0.6578713 0.2450291 0.07392453
v 0.7022423 0.2450291 0.08275045
v 0.7466131 0.2450291 0.07392454
v 0.784229 0.2450291 0.04879042
v 0.8093631 0.2450291 0.01117454
v 0.8181891 0.2450291 -0.0331964
v 0.8093631 0.9180099 -0.07756734
v 0.8093631 1.19081 -0.07756734
v 0.784229 1.19081 -0.1151832
v 0.784229 0.9180099 -0.1151832
v 0.7466131 1.19081 -0.1403173
v 0.7466131 0.9180099 -0.1403173
v 0.7022423 1.19081 -0.1491432
v 0.7022423 0.9180099 -0.1491432
v 0.6578713 1.19081 -0.1403173
v 0.6578713 0.9180099 -0.1403173
v 0.6202555 1.19081 -0.1151832
v 0.6578713 0.2450291 -0.1403173
v 0.6202555 0.2450291 -0.1151832
v 0.8093631 0.2450291 -0.07756734
v 0.8093631 0.2450291 -0.07756734
v 0.784229 0.2450291 -0.1151832
v 0.7466131 0.2450291 -0.1403173
v 0.7022423 0.2450291 -0.1491432
v 0.8181891 1.19081 -0.0331964
v 0.6316267 1.209416 -0.06244629
v 0.7022423 1.227058 -0.0331964
v 0.6258085 1.209416 -0.0331964
v 0.6481955 1.209416 -0.08724318
v 0.6729923 1.209416 -0.1038119
v 0.7022421 1.209416 -0.1096301
v 0.7314922 1.209416 -0.1038119
v 0.7562889 1.209416 -0.08724318
v 0.7728578 1.209416 -0.06244631
v 0.7786759 1.209416 -0.0331964
v 0.6316267 1.209416 -0.003946509
v 0.7022423 1.227058 -0.0331964
v 0.6481955 1.209416 0.02085039
v 0.6729923 1.209416 0.03741911
v 0.7022421 1.209416 0.04323728
v 0.7314922 1.209416 0.03741911
v 0.7562889 1.209416 0.02085038
v 0.7728578 1.209416 -0.00394649
v 0.5951214 1.19081 -0.0775673
v 0.6135261 1.233192 -0.06994383
v 0.6062164 1.233192 -0.0331964
v 0.5862954 1.19081 -0.0331964
v 0.5951214 1.19081 0.0111745
v 0.6135261 1.233192 0.003551037
v 0.6202555 1.19081 -0.1151832
v 0.6343418 1.233192 -0.1010968
v 0.6135261 1.233192 -0.06994383
v 0.5951214 1.19081 -0.0775673
v 0.6578713 1.19081 -0.1403173
v 0.6654947 1.233192 -0.1219127
v 0.6343418 1.233192 -0.1010968
v 0.6202555 1.19081 -0.1151832
v 0.7022423 1.19081 -0.1491432
v 0.7022423 1.233192 -0.1292221
v 0.6654947 1.233192 -0.1219127
v 0.6578713 1.19081 -0.1403173
v 0.7466131 1.19081 -0.1403173
v 0.7389898 1.233192 -0.1219127
v 0.7022423 1.233192 -0.1292221
v 0.7022423 1.19081 -0.1491432
v 0.784229 1.19081 -0.1151832
v 0.7701427 1.233192 -0.1010968
v 0.7389898 1.233192 -0.1219127
v 0.7466131 1.19081 -0.1403173
v 0.8093631 1.19081 -0.07756734
v 0.7909585 1.233192 -0.06994387
v 0.7701427 1.233192 -0.1010968
v 0.784229 1.19081 -0.1151832
v 0.8181891 1.19081 -0.0331964
v 0.798268 1.233192 -0.0331964
v 0.7909585 1.233192 -0.06994387
v 0.8093631 1.19081 -0.07756734
v 0.7909585 1.233192 0.003551061
v 0.8093631 1.19081 0.01117454
v 0.6135261 1.233192 -0.06994383
v 0.6268334 1.233192 -0.06443172
v 0.6206203 1.233192 -0.0331964
v 0.6062164 1.233192 -0.0331964
v 0.6135261 1.233192 0.003551037
v 0.6268334 1.233192 -0.001961072
v 0.6343418 1.233192 -0.1010968
v 0.644527 1.233192 -0.09091178
v 0.6268334 1.233192 -0.06443172
v 0.6135261 1.233192 -0.06994383
v 0.6654947 1.233192 -0.1219127
v 0.6710069 1.233192 -0.1086052
v 0.644527 1.233192 -0.09091178
v 0.6343418 1.233192 -0.1010968
v 0.7022423 1.233192 -0.1292221
v 0.7022423 1.233192 -0.1148183
v 0.6710069 1.233192 -0.1086052
v 0.6654947 1.233192 -0.1219127
v 0.7389898 1.233192 -0.1219127
v 0.7334775 1.233192 -0.1086052
v 0.7022423 1.233192 -0.1148183
v 0.7022423 1.233192 -0.1292221
v 0.7701427 1.233192 -0.1010968
v 0.7599576 1.233192 -0.0909118
v 0.7334775 1.233192 -0.1086052
v 0.7389898 1.233192 -0.1219127
v 0.7909585 1.233192 -0.06994387
v 0.777651 1.233192 -0.06443174
v 0.7599576 1.233192 -0.0909118
v 0.7701427 1.233192 -0.1010968
v 0.798268 1.233192 -0.0331964
v 0.7838641 1.233192 -0.0331964
v 0.777651 1.233192 -0.06443174
v 0.7909585 1.233192 -0.06994387
v 0.777651 1.233192 -0.001961052
v 0.7909585 1.233192 0.003551061
v 0.6268334 1.233192 -0.06443172
v 0.6316267 1.209416 -0.06244629
v 0.6258085 1.209416 -0.0331964
v 0.6206203 1.233192 -0.0331964
v 0.644527 1.233192 -0.09091178
v 0.6481955 1.209416 -0.08724318
v 0.6710069 1.233192 -0.1086052
v 0.6729923 1.209416 -0.1038119
v 0.7022423 1.233192 -0.1148183
v 0.7022421 1.209416 -0.1096301
v 0.7334775 1.233192 -0.1086052
v 0.7314922 1.209416 -0.1038119
v 0.7599576 1.233192 -0.0909118
v 0.7562889 1.209416 -0.08724318
v 0.777651 1.233192 -0.06443174
v 0.7728578 1.209416 -0.06244631
v 0.7838641 1.233192 -0.0331964
v 0.7786759 1.209416 -0.0331964
v 0.6268334 1.233192 -0.001961072
v 0.6316267 1.209416 -0.003946509
v 0.644527 1.233192 0.024519
v 0.6481955 1.209416 0.02085039
v 0.6710069 1.233192 0.04221238
v 0.6729923 1.209416 0.03741911
v 0.7022423 1.233192 0.0484255
v 0.7022421 1.209416 0.04323728
v 0.7334775 1.233192 0.04221242
v 0.7314922 1.209416 0.03741911
v 0.7599576 1.233192 0.02451899
v 0.7562889 1.209416 0.02085038
v 0.777651 1.233192 -0.001961052
v 0.7728578 1.209416 -0.00394649
v 0.6202555 1.19081 0.04879037
v 0.5951214 1.19081 0.0111745
v 0.6135261 1.233192 0.003551037
v 0.6343418 1.233192 0.03470405
v 0.6578713 1.19081 0.0739245
v 0.6202555 1.19081 0.04879037
v 0.6343418 1.233192 0.03470405
v 0.6654947 1.233192 0.05551984
v 0.7022423 1.19081 0.08275045
v 0.6578713 1.19081 0.0739245
v 0.6654947 1.233192 0.05551984
v 0.7022423 1.233192 0.06282934
v 0.7466131 1.19081 0.07392453
v 0.7022423 1.19081 0.08275045
v 0.7022423 1.233192 0.06282934
v 0.7389898 1.233192 0.05551987
v 0.784229 1.19081 0.0487904
v 0.7466131 1.19081 0.07392453
v 0.7389898 1.233192 0.05551987
v 0.7701427 1.233192 0.03470405
v 0.8093631 1.19081 0.01117454
v 0.784229 1.19081 0.0487904
v 0.7701427 1.233192 0.03470405
v 0.7909585 1.233192 0.003551061
v 0.6343418 1.233192 0.03470405
v 0.6135261 1.233192 0.003551037
v 0.6268334 1.233192 -0.001961072
v 0.644527 1.233192 0.024519
v 0.6654947 1.233192 0.05551984
v 0.6343418 1.233192 0.03470405
v 0.644527 1.233192 0.024519
v 0.6710069 1.233192 0.04221238
v 0.7022423 1.233192 0.06282934
v 0.6654947 1.233192 0.05551984
v 0.6710069 1.233192 0.04221238
v 0.7022423 1.233192 0.0484255
v 0.7389898 1.233192 0.05551987
v 0.7022423 1.233192 0.06282934
v 0.7022423 1.233192 0.0484255
v 0.7334775 1.233192 0.04221242
v 0.7701427 1.233192 0.03470405
v 0.7389898 1.233192 0.05551987
v 0.7334775 1.233192 0.04221242
v 0.7599576 1.233192 0.02451899
v 0.7909585 1.233192 0.003551061
v 0.7701427 1.233192 0.03470405
v 0.7599576 1.233192 0.02451899
v 0.777651 1.233192 -0.001961052
vt 0.7932163 0.6712911
vt 0.7932163 0.8323073
vt 0.8183909 0.832321
vt 0.818583 0.6712911
vt 0.8431823 0.8323356
vt 0.8431824 0.6712911
vt 0.8431822 0.99338
vt 0.8181988 0.9933509
vt 0.7932163 0.9933236
vt 0.8183909 0.832321
vt 0.7932163 0.6712911
vt 0.818583 0.6712911
vt 0.8431823 0.8323356
vt 0.8431824 0.6712911
vt 0.8681927 0.8323356
vt 0.8681927 0.6712911
vt 0.8931881 0.8323356
vt 0.8931881 0.6712911
vt 0.9181765 0.8323356
vt 0.9181765 0.6712911
vt 0.9431604 0.8323356
vt 0.9431604 0.6712911
vt 0.9681462 0.8323356
vt 0.9681462 0.6712911
vt 0.9931331 0.8323356
vt 0.9931331 0.6712911
vt 0.8431822 0.99338
vt 0.8181988 0.9933509
vt 0.8681927 0.99338
vt 0.8931881 0.99338
vt 0.9181765 0.99338
vt 0.9431604 0.99338
vt 0.9681462 0.99338
vt 0.9931331 0.99338
vt 0.9681462 0.8323356
vt 0.9681462 0.6712911
vt 0.9431604 0.6712911
vt 0.9431604 0.8323356
vt 0.9181765 0.6712911
vt 0.9181765 0.8323356
vt 0.8931881 0.6712911
vt 0.8931881 0.8323356
vt 0.8681927 0.6712911
vt 0.8681927 0.8323356
vt 0.8431824 0.6712911
vt 0.8681927 0.99338
vt 0.8431822 0.99338
vt 0.9681462 0.99338
vt 0.9681462 0.99338
vt 0.9431604 0.99338
vt 0.9181765 0.99338
vt 0.8931881 0.99338
vt 0.9931331 0.6712911
vt 0.6933721 0.8113217
vt 0.7183006 0.8724939
vt 0.7183008 0.8055421
vt 0.6723586 0.8259654
vt 0.6583944 0.8473668
vt 0.6534804 0.8724952
vt 0.6583782 0.8976266
vt 0.6723064 0.9190791
vt 0.6933277 0.9337997
vt 0.7183009 0.9396236
vt 0.6933721 0.8113217
vt 0.7183006 0.8724939
vt 0.6723586 0.8259654
vt 0.6583944 0.8473668
vt 0.6534804 0.8724952
vt 0.6583782 0.8976266
vt 0.6723064 0.9190791
vt 0.6933277 0.9337997
vt 0.818583 0.6712911
vt 0.818583 0.6441361
vt 0.7932163 0.6441361
vt 0.7932163 0.6712911
vt 0.818583 0.6712911
vt 0.818583 0.6441361
vt 0.8431824 0.6712911
vt 0.8431824 0.6441361
vt 0.818583 0.6441361
vt 0.818583 0.6712911
vt 0.8681927 0.6712911
vt 0.8681927 0.6441361
vt 0.8431824 0.6441361
vt 0.8431824 0.6712911
vt 0.8931881 0.6712911
vt 0.8931881 0.6441361
vt 0.8681927 0.6441361
vt 0.8681927 0.6712911
vt 0.9181765 0.6712911
vt 0.9181765 0.6441361
vt 0.8931881 0.6441361
vt 0.8931881 0.6712911
vt 0.9431604 0.6712911
vt 0.9431604 0.6441361
vt 0.9181765 0.6441361
vt 0.9181765 0.6712911
vt 0.9681462 0.6712911
vt 0.9681462 0.6441361
vt 0.9431604 0.6441361
vt 0.9431604 0.6712911
vt 0.9931331 0.6712911
vt 0.9931331 0.6441361
vt 0.9681462 0.6441361
vt 0.9681462 0.6712911
vt 0.9681462 0.6441361
vt 0.9681462 0.6712911
vt 0.818583 0.6441361
vt 0.818583 0.6304314
vt 0.7932163 0.6304314
vt 0.7932163 0.6441361
vt 0.818583 0.6441361
vt 0.818583 0.6304314
vt 0.8431824 0.6441361
vt 0.8431824 0.6304314
vt 0.818583 0.6304314
vt 0.818583 0.6441361
vt 0.8681927 0.6441361
vt 0.8681927 0.6304314
vt 0.8431824 0.6304314
vt 0.8431824 0.6441361
vt 0.8931881 0.6441361
vt 0.8931881 0.6304314
vt 0.8681927 0.6304314
vt 0.8681927 0.6441361
vt 0.9181765 0.6441361
vt 0.9181765 0.6304314
vt 0.8931881 0.6304314
vt 0.8931881 0.6441361
vt 0.9431604 0.6441361
vt 0.9431604 0.6304314
vt 0.9181765 0.6304314
vt 0.9181765 0.6441361
vt 0.9681462 0.6441361
vt 0.9681462 0.6304314
vt 0.9431604 0.6304314
vt 0.9431604 0.6441361
vt 0.9931331 0.6441361
vt 0.9931331 0.6304314
vt 0.9681462 0.6304314
vt 0.9681462 0.6441361
vt 0.9681462 0.6304314
vt 0.9681462 0.6441361
vt 0.6844984 0.7904401
vt 0.6933721 0.8113217
vt 0.7183008 0.8055421
vt 0.7183007 0.7836785
vt 0.6560696 0.8100355
vt 0.6723586 0.8259654
vt 0.6372555 0.8386845
vt 0.6583944 0.8473668
vt 0.6305748 0.8724845
vt 0.6534804 0.8724952
vt 0.637243 0.9062572
vt 0.6583782 0.8976266
vt 0.6559473 0.9349976
vt 0.6723064 0.9190791
vt 0.6843753 0.9547505
vt 0.6933277 0.9337997
vt 0.7183006 0.9616241
vt 0.7183009 0.9396236
vt 0.6844984 0.7904401
vt 0.6933721 0.8113217
vt 0.6560696 0.8100355
vt 0.6723586 0.8259654
vt 0.6372555 0.8386845
vt 0.6583944 0.8473668
vt 0.6305748 0.8724845
vt 0.6534804 0.8724952
vt 0.637243 0.9062572
vt 0.6583782 0.8976266
vt 0.6559473 0.9349976
vt 0.6723064 0.9190791
vt 0.6843753 0.9547505
vt 0.6933277 0.9337997
vt 0.8431824 0.6712911
vt 0.818583 0.6712911
vt 0.818583 0.6441361
vt 0.8431824 0.6441361
vt 0.8681927 0.6712911
vt 0.8431824 0.6712911
vt 0.8431824 0.6441361
vt 0.8681927 0.6441361
vt 0.8931881 0.6712911
vt 0.8681927 0.6712911
vt 0.8681927 0.6441361
vt 0.8931881 0.6441361
vt 0.9181765 0.6712911
vt 0.8931881 0.6712911
vt 0.8931881 0.6441361
vt 0.9181765 0.6441361
vt 0.9431604 0.6712911
vt 0.9181765 0.6712911
vt 0.9181765 0.6441361
vt 0.9431604 0.6441361
vt 0.9681462 0.6712911
vt 0.9431604 0.6712911
vt 0.9431604 0.6441361
vt 0.9681462 0.6441361
vt 0.8431824 0.6441361
vt 0.818583 0.6441361
vt 0.818583 0.6304314
vt 0.8431824 0.6304314
vt 0.8681927 0.6441361
vt 0.8431824 0.6441361
vt 0.8431824 0.6304314
vt 0.8681927 0.6304314
vt 0.8931881 0.6441361
vt 0.8681927 0.6441361
vt 0.8681927 0.6304314
vt 0.8931881 0.6304314
vt 0.9181765 0.6441361
vt 0.8931881 0.6441361
vt 0.8931881 0.6304314
vt 0.9181765 0.6304314
vt 0.9431604 0.6441361
vt 0.9181765 0.6441361
vt 0.9181765 0.6304314
vt 0.9431604 0.6304314
vt 0.9681462 0.6441361
vt 0.9431604 0.6441361
vt 0.9431604 0.6304314
vt 0.9681462 0.6304314
vn -1 0 0
vn -1 0 0
vn -0.9238795 0 -0.3826834
vn -0.9238795 0 -0.3826835
vn -0.7071073 0 -0.7071062
vn -0.7071072 0 -0.7071064
vn -0.7071073 0 -0.7071062
vn -0.9238796 0 -0.3826834
vn -1 0 0
vn -0.9238795 0 0.3826834
vn -1 0 0
vn -0.9238795 0 0.3826835
vn -0.7071073 0 0.7071063
vn -0.7071072 0 0.7071064
vn -0.3826835 0 0.9238795
vn -0.3826835 0 0.9238795
vn -1.807473E-07 0 1
vn -1.658751E-07 0 1
vn 0.3826837 0 0.9238794
vn 0.3826837 0 0.9238794
vn 0.7071064 0 0.7071072
vn 0.7071064 0 0.7071072
vn 0.9238796 0 0.3826834
vn 0.9238796 0 0.3826834
vn 1 0 0
vn 1 0 0
vn -0.7071073 0 0.7071063
vn -0.9238796 0 0.3826834
vn -0.3826835 0 0.9238795
vn -1.86776E-07 0 1
vn 0.3826838 0 0.9238794
vn 0.7071064 0 0.7071072
vn 0.9238796 0 0.3826834
vn 1 0 0
vn 0.9238796 0 -0.3826834
vn 0.9238796 0 -0.3826834
vn 0.7071064 0 -0.7071072
vn 0.7071064 0 -0.7071072
vn 0.3826835 0 -0.9238795
vn 0.3826835 0 -0.9238794
vn -2.395974E-07 0 -1
vn -2.020117E-07 0 -1
vn -0.3826834 0 -0.9238796
vn -0.3826834 0 -0.9238796
vn -0.7071072 0 -0.7071064
vn -0.3826834 0 -0.9238796
vn -0.7071073 0 -0.7071062
vn 0.9238796 0 -0.3826833
vn 0.9238796 0 -0.3826833
vn 0.7071064 0 -0.7071072
vn 0.3826835 0 -0.9238795
vn -1.867759E-07 0 -1
vn 1 0 0
vn -0.2077775 0.9743827 -0.08606331
vn 0 1 -2.919253E-07
vn -0.2248968 0.9743826 1.219543E-06
vn -0.1590261 0.9743825 -0.1590264
vn -0.08606467 0.9743828 -0.2077766
vn 0 0.9743824 -0.2248975
vn 0.08606416 0.9743824 -0.2077785
vn 0.1590261 0.9743825 -0.1590264
vn 0.207778 0.9743823 -0.08606612
vn 0.2248978 0.9743823 -1.219543E-06
vn -0.2077776 0.9743825 0.08606461
vn 0 1 -2.919253E-07
vn -0.1590263 0.9743825 0.1590265
vn -0.08606458 0.9743829 0.2077758
vn 0 0.9743826 0.2248969
vn 0.08606411 0.9743827 0.2077771
vn 0.1590259 0.9743828 0.1590251
vn 0.2077782 0.9743824 0.0860649
vn -0.836121 0.4253888 -0.3463322
vn -0.836121 0.4253888 -0.3463324
vn -0.9050112 0.4253877 1.952176E-07
vn -0.9050112 0.4253877 1.937702E-07
vn -0.8361213 0.425388 0.3463326
vn -0.8361213 0.425388 0.3463327
vn -0.6399401 0.425389 -0.6399382
vn -0.6399401 0.425389 -0.6399382
vn -0.836121 0.4253888 -0.3463324
vn -0.836121 0.4253888 -0.3463322
vn -0.3463328 0.4253886 -0.8361209
vn -0.3463329 0.4253887 -0.8361208
vn -0.6399401 0.425389 -0.6399382
vn -0.6399401 0.425389 -0.6399382
vn -1.782684E-07 0.4253884 -0.9050109
vn -1.882456E-07 0.4253883 -0.9050109
vn -0.3463329 0.4253887 -0.8361208
vn -0.3463328 0.4253886 -0.8361209
vn 0.346333 0.4253881 -0.8361211
vn 0.3463335 0.4253882 -0.8361208
vn -1.882456E-07 0.4253883 -0.9050109
vn -1.782684E-07 0.4253884 -0.9050109
vn 0.6399398 0.4253891 -0.6399384
vn 0.6399398 0.4253892 -0.6399384
vn 0.3463335 0.4253882 -0.8361208
vn 0.346333 0.4253881 -0.8361211
vn 0.8361205 0.4253899 -0.3463321
vn 0.8361205 0.4253899 -0.3463322
vn 0.6399398 0.4253892 -0.6399384
vn 0.6399398 0.4253891 -0.6399384
vn 0.9050106 0.425389 -1.782682E-07
vn 0.9050106 0.4253891 -1.812735E-07
vn 0.8361205 0.4253899 -0.3463322
vn 0.8361205 0.4253899 -0.3463321
vn 0.8361205 0.425389 0.3463333
vn 0.8361205 0.4253889 0.3463333
vn 0 1 0
vn 0 1 0
vn 0 1 0
vn 0 1 0
vn 0 1 0
vn 0 1 0
vn 0 1 7.157394E-07
vn 0 1 7.157407E-07
vn 0 1 0
vn 0 1 0
vn 0 1 7.157399E-07
vn 0 1 7.157374E-07
vn 0 1 7.157407E-07
vn 0 1 7.157394E-07
vn 0 1 0
vn 0 1 0
vn 0 1 7.157374E-07
vn 0 1 7.157399E-07
vn 0 1 0
vn 0 1 0
vn 0 1 0
vn 0 1 0
vn 0 1 1.431473E-06
vn 0 1 1.431469E-06
vn 0 1 0
vn 0 1 0
vn 0 1 0
vn 0 1 0
vn 0 1 1.431469E-06
vn 0 1 1.431473E-06
vn 0 1 -1.431468E-06
vn 0 1 -1.431468E-06
vn 0 1 0
vn 0 1 0
vn 0 1 -2.862938E-06
vn 0 1 -2.86293E-06
vn 0.9026382 0.2131978 0.3738863
vn 0.9026382 0.2131978 0.3738864
vn 0.9770089 0.2131983 0
vn 0.9770089 0.2131983 0
vn 0.6908504 0.2131973 0.6908493
vn 0.6908507 0.2131973 0.690849
vn 0.3738867 0.2131977 0.902638
vn 0.3738871 0.2131977 0.9026379
vn -5.15721E-07 0.2131989 0.9770088
vn 9.597562E-07 0.2131989 0.9770088
vn -0.3738849 0.2131984 0.9026386
vn -0.3738854 0.2131984 0.9026384
vn -0.6908497 0.2131973 0.6908499
vn -0.6908501 0.2131973 0.6908494
vn -0.9026387 0.2131978 0.3738852
vn -0.9026387 0.2131978 0.373885
vn -0.977009 0.213198 0
vn -0.977009 0.213198 0
vn 0.902638 0.2131979 -0.3738866
vn 0.902638 0.2131979 -0.3738867
vn 0.6908497 0.2131976 -0.6908499
vn 0.6908501 0.2131976 -0.6908494
vn 0.3738865 0.2131979 -0.9026381
vn 0.3738869 0.2131979 -0.9026379
vn -3.211094E-07 0.2131989 -0.9770088
vn 1.162782E-06 0.2131989 -0.9770088
vn -0.373885 0.2131988 -0.9026385
vn -0.3738855 0.2131988 -0.9026383
vn -0.69085 0.2131972 -0.6908497
vn -0.6908502 0.2131972 -0.6908494
vn -0.9026389 0.2131971 -0.3738852
vn -0.9026389 0.2131971 -0.373885
vn -0.6399404 0.4253882 0.6399384
vn -0.8361213 0.425388 0.3463326
vn -0.8361213 0.425388 0.3463327
vn -0.6399403 0.4253882 0.6399385
vn -0.3463327 0.425388 0.8361212
vn -0.6399404 0.4253882 0.6399384
vn -0.6399403 0.4253882 0.6399385
vn -0.3463329 0.4253881 0.8361211
vn -1.085111E-07 0.425388 0.9050111
vn -0.3463327 0.425388 0.8361212
vn -0.3463329 0.4253881 0.8361211
vn -1.185249E-07 0.4253879 0.9050111
vn 0.3463325 0.4253879 0.8361213
vn -1.085111E-07 0.425388 0.9050111
vn -1.185249E-07 0.4253879 0.9050111
vn 0.3463331 0.4253879 0.8361211
vn 0.6399389 0.4253885 0.6399398
vn 0.3463325 0.4253879 0.8361213
vn 0.3463331 0.4253879 0.8361211
vn 0.6399389 0.4253885 0.6399398
vn 0.8361205 0.4253889 0.3463333
vn 0.6399389 0.4253885 0.6399398
vn 0.6399389 0.4253885 0.6399398
vn 0.8361205 0.425389 0.3463333
vn 0 1 0
vn 0 1 0
vn 0 1 0
vn 0 1 0
vn 0 1 0
vn 0 1 0
vn 0 1 0
vn 0 1 0
vn 0 1 0
vn 0 1 0
vn 0 1 0
vn 0 1 0
vn 0 1 0
vn 0 1 0
vn 0 1 0
vn 0 1 0
vn 0 1 -2.86295E-06
vn 0 1 0
vn 0 1 0
vn 0 1 -2.862943E-06
vn 0 1 -2.86293E-06
vn 0 1 -2.86295E-06
vn 0 1 -2.862943E-06
vn 0 1 -2.862938E-06
g Cannon_B10_In_0
f 3/3/3 2/2/2 1/1/1
f 4/4/4 3/3/3 1/1/1
f 5/5/5 3/3/3 4/4/4
f 6/6/6 5/5/5 4/4/4
f 5/5/5 7/7/7 3/3/3
f 7/7/7 8/8/8 3/3/3
f 3/3/3 8/8/8 2/2/2
f 8/8/8 9/9/9 2/2/2
f 2/2/2 9/9/9 10/10/10
f 2/2/2 10/10/10 11/11/11
f 10/10/10 12/12/12 11/11/11
f 10/10/10 13/13/13 12/12/12
f 13/13/13 14/14/14 12/12/12
f 13/13/13 15/15/15 14/14/14
f 15/15/15 16/16/16 14/14/14
f 15/15/15 17/17/17 16/16/16
f 17/17/17 18/18/18 16/16/16
f 17/17/17 19/19/19 18/18/18
f 19/19/19 20/20/20 18/18/18
f 19/19/19 21/21/21 20/20/20
f 21/21/21 22/22/22 20/20/20
f 21/21/21 23/23/23 22/22/22
f 23/23/23 24/24/24 22/22/22
f 23/23/23 25/25/25 24/24/24
f 25/25/25 26/26/26 24/24/24
f 13/13/13 27/27/27 15/15/15
f 28/28/28 27/27/27 13/13/13
f 10/10/10 28/28/28 13/13/13
f 9/9/9 28/28/28 10/10/10
f 27/27/27 29/29/29 15/15/15
f 29/29/29 30/30/30 17/17/17
f 17/17/17 30/30/30 19/19/19
f 15/15/15 29/29/29 17/17/17
f 30/30/30 31/31/31 19/19/19
f 19/19/19 31/31/31 21/21/21
f 31/31/31 32/32/32 21/21/21
f 21/21/21 32/32/32 23/23/23
f 32/32/32 33/33/33 23/23/23
f 23/23/23 33/33/33 25/25/25
f 33/33/33 34/34/34 25/25/25
f 25/25/25 34/34/34 35/35/35
f 25/25/25 35/35/35 36/36/36
f 36/36/36 35/35/35 37/37/37
f 35/35/35 38/38/38 37/37/37
f 37/37/37 38/38/38 39/39/39
f 38/38/38 40/40/40 39/39/39
f 39/39/39 40/40/40 41/41/41
f 40/40/40 42/42/42 41/41/41
f 41/41/41 42/42/42 43/43/43
f 42/42/42 44/44/44 43/43/43
f 43/43/43 44/44/44 45/45/45
f 44/44/44 5/5/5 45/45/45
f 44/44/44 46/46/46 5/5/5
f 46/46/46 47/47/47 5/5/5
f 34/34/34 48/48/48 35/35/35
f 35/35/35 49/49/49 38/38/38
f 49/49/49 50/50/50 38/38/38
f 38/38/38 50/50/50 40/40/40
f 50/50/50 51/51/51 40/40/40
f 40/40/40 51/51/51 42/42/42
f 51/51/51 52/52/52 42/42/42
f 52/52/52 46/46/46 44/44/44
f 42/42/42 52/52/52 44/44/44
f 53/53/53 25/25/25 36/36/36
f 56/56/56 55/55/55 54/54/54
f 54/54/54 55/55/55 57/57/57
f 57/57/57 55/55/55 58/58/58
f 58/58/58 55/55/55 59/59/59
f 59/59/59 55/55/55 60/60/60
f 60/60/60 55/55/55 61/61/61
f 61/61/61 55/55/55 62/62/62
f 62/62/62 55/55/55 63/63/63
f 65/65/65 56/56/56 64/64/64
f 65/65/65 64/64/64 66/66/66
f 65/65/65 66/66/66 67/67/67
f 65/65/65 67/67/67 68/68/68
f 65/65/65 68/68/68 69/69/69
f 65/65/65 69/69/69 70/70/70
f 65/65/65 70/70/70 71/71/71
f 65/65/65 71/71/71 63/63/63
f 74/74/74 73/73/73 72/72/72
f 75/75/75 74/74/74 72/72/72
f 74/74/74 75/75/75 76/76/76
f 77/77/77 74/74/74 76/76/76
f 80/80/80 79/79/79 78/78/78
f 81/81/81 80/80/80 78/78/78
f 84/84/84 83/83/83 82/82/82
f 85/85/85 84/84/84 82/82/82
f 88/88/88 87/87/87 86/86/86
f 89/89/89 88/88/88 86/86/86
f 92/92/92 91/91/91 90/90/90
f 93/93/93 92/92/92 90/90/90
f 96/96/96 95/95/95 94/94/94
f 97/97/97 96/96/96 94/94/94
f 100/100/100 99/99/99 98/98/98
f 101/101/101 100/100/100 98/98/98
f 104/104/104 103/103/103 102/102/102
f 105/105/105 104/104/104 102/102/102
f 103/103/103 106/106/106 102/102/102
f 106/106/106 107/107/107 102/102/102
f 110/110/110 109/109/109 108/108/108
f 111/111/111 110/110/110 108/108/108
f 110/110/110 111/111/111 112/112/112
f 113/113/113 110/110/110 112/112/112
f 116/116/116 115/115/115 114/114/114
f 117/117/117 116/116/116 114/114/114
f 120/120/120 119/119/119 118/118/118
f 121/121/121 120/120/120 118/118/118
f 124/124/124 123/123/123 122/122/122
f 125/125/125 124/124/124 122/122/122
f 128/128/128 127/127/127 126/126/126
f 129/129/129 128/128/128 126/126/126
f 132/132/132 131/131/131 130/130/130
f 133/133/133 132/132/132 130/130/130
f 136/136/136 135/135/135 134/134/134
f 137/137/137 136/136/136 134/134/134
f 140/140/140 139/139/139 138/138/138
f 141/141/141 140/140/140 138/138/138
f 139/139/139 142/142/142 138/138/138
f 142/142/142 143/143/143 138/138/138
f 146/146/146 145/145/145 144/144/144
f 147/147/147 146/146/146 144/144/144
f 144/144/144 145/145/145 148/148/148
f 145/145/145 149/149/149 148/148/148
f 148/148/148 149/149/149 150/150/150
f 149/149/149 151/151/151 150/150/150
f 150/150/150 151/151/151 152/152/152
f 151/151/151 153/153/153 152/152/152
f 152/152/152 153/153/153 154/154/154
f 153/153/153 155/155/155 154/154/154
f 154/154/154 155/155/155 156/156/156
f 155/155/155 157/157/157 156/156/156
f 156/156/156 157/157/157 158/158/158
f 157/157/157 159/159/159 158/158/158
f 158/158/158 159/159/159 160/160/160
f 159/159/159 161/161/161 160/160/160
f 146/146/146 147/147/147 162/162/162
f 163/163/163 146/146/146 162/162/162
f 163/163/163 162/162/162 164/164/164
f 165/165/165 163/163/163 164/164/164
f 165/165/165 164/164/164 166/166/166
f 167/167/167 165/165/165 166/166/166
f 167/167/167 166/166/166 168/168/168
f 169/169/169 167/167/167 168/168/168
f 169/169/169 168/168/168 170/170/170
f 171/171/171 169/169/169 170/170/170
f 171/171/171 170/170/170 172/172/172
f 173/173/173 171/171/171 172/172/172
f 173/173/173 172/172/172 174/174/174
f 175/175/175 173/173/173 174/174/174
f 175/175/175 174/174/174 160/160/160
f 161/161/161 175/175/175 160/160/160
f 178/178/178 177/177/177 176/176/176
f 179/179/179 178/178/178 176/176/176
f 182/182/182 181/181/181 180/180/180
f 183/183/183 182/182/182 180/180/180
f 186/186/186 185/185/185 184/184/184
f 187/187/187 186/186/186 184/184/184
f 190/190/190 189/189/189 188/188/188
f 191/191/191 190/190/190 188/188/188
f 194/194/194 193/193/193 192/192/192
f 195/195/195 194/194/194 192/192/192
f 198/198/198 197/197/197 196/196/196
f 199/199/199 198/198/198 196/196/196
f 202/202/202 201/201/201 200/200/200
f 203/203/203 202/202/202 200/200/200
f 206/206/206 205/205/205 204/204/204
f 207/207/207 206/206/206 204/204/204
f 210/210/210 209/209/209 208/208/208
f 211/211/211 210/210/210 208/208/208
f 214/214/214 213/213/213 212/212/212
f 215/215/215 214/214/214 212/212/212
f 218/218/218 217/217/217 216/216/216
f 219/219/219 218/218/218 216/216/216
f 222/222/222 221/221/221 220/220/220
f 223/223/223 222/222/222 220/220/220
