g Clymor_H7_Model_Mid
v 0 -0.03046597 0.603817
v 0.05695401 0 0.603816
v 0.07577106 0 0.5552016
v 0 -0.03186111 0.5552016
v 0 -0.02903905 0.6533725
v 0.04692732 0 0.6533679
v 0 -0.02835522 0.7069607
v 0.04034305 0 0.7069517
v 0 -0.02170792 1.025411
v 0.02889576 0 1.025431
v 0 -0.0179528 1.198954
v 0.02711093 0 1.19739
v 0.04686515 0 0.5084801
v 0 -0.03313466 0.5084981
v 0.04039356 0 0.4612412
v 0 -0.03463599 0.4612335
v 0.04772292 0 0.3956736
v 0 -0.04038012 0.3956107
v 0.03815738 -0.02507256 0.3115772
v 0 -0.01639337 1.251082
v 0.02587572 0 1.250783
v 0 -0.01255828 1.351112
v 0.02017895 6.032547E-16 1.351094
v 0.009046735 7.349305E-06 1.417304
v 0.06977692 0 0.3116339
v 0.05913629 -0.0249634 0.2573664
v 0.04391833 -0.03415 0.2522242
v 0.04974615 -0.0472881 0.2067422
v 0 -0.05976668 0.2498084
v 0 -0.0665327 0.2067421
v 0.07921264 -0.03428142 0.2067423
v 0.06423205 -0.02405661 0.1600146
v 0.07897631 -0.01168475 0.171221
v 0.08666177 0 0.2738623
v 0.1197456 0 0.2403764
v 0.1438042 0 0.2299512
v 0.1438393 -0.01899431 0.2067424
v 0.09297145 0 0.1771242
v 0.1438614 0 0.1846971
v 0.275961 -0.006341515 0.2067449
v 0.2759692 0 0.1976536
v 0.2759502 0 0.2153211
v 0.3175599 0 0.2067492
v 0.07872676 0 0.167894
v 0.081883 0 0.1192302
v 0.05312093 0 0.153907
v 0.04147768 -0.033436 0.1771378
v 0.02098242 -0.03981686 0.1649596
v 0.03496428 0 0.1376353
v 0.02382844 0 0.1080746
v 0 -0.0410716 0.1080578
v 0.02017803 0 0.04186709
v 0 -0.01710432 0.04197279
v 0.02019003 5.497562E-09 -0.2377743
v 0 -0.01711432 -0.2375461
v 0.02884311 5.497565E-09 -0.2732024
v 0 -0.02931774 -0.273258
v 0.04258462 5.497566E-09 -0.291278
v 0 -0.04460166 -0.2915144
v 0.01855268 5.497566E-09 -0.3644865
v 0 -0.01918427 -0.3644351
v 0 5.497566E-09 -0.3951651
v 0 -0.05820872 0.1649332
v -0.02884311 5.497565E-09 -0.2732024
v -0.02019003 5.497562E-09 -0.2377743
v -0.04258462 5.497566E-09 -0.291278
v -0.01855268 5.497566E-09 -0.3644865
v -0.02098242 -0.03981686 0.1649596
v -0.04147768 -0.033436 0.1771378
v -0.05312093 0 0.153907
v -0.03496428 0 0.1376353
v -0.02382844 0 0.1080746
v -0.02017803 0 0.04186709
v -0.06423205 -0.02405661 0.1600146
v -0.081883 0 0.1192302
v -0.07897631 -0.01168475 0.171221
v -0.07921264 -0.03428142 0.2067423
v -0.04974615 -0.0472881 0.2067422
v -0.05913629 -0.0249634 0.2573664
v -0.04391833 -0.03415 0.2522242
v -0.03815738 -0.02507256 0.3115772
v -0.08666177 0 0.2738623
v -0.1197456 0 0.2403764
v -0.1438042 0 0.2299512
v -0.1438393 -0.01899431 0.2067424
v -0.09297145 0 0.1771242
v -0.1438614 0 0.1846971
v -0.275961 -0.006341515 0.2067449
v -0.2759692 0 0.1976536
v -0.2759502 0 0.2153211
v -0.3175599 0 0.2067492
v 0 -0.05049918 0.3115123
v -0.04772292 0 0.3956736
v -0.04039356 0 0.4612412
v -0.04686515 0 0.5084801
v -0.07577106 0 0.5552016
v -0.05695401 0 0.603816
v -0.04692732 0 0.6533679
v -0.04034305 0 0.7069517
v -0.02889576 0 1.025431
v -0.02711093 0 1.19739
v -0.02587572 0 1.250783
v -0.02017895 6.032547E-16 1.351094
v -0.009046735 7.349305E-06 1.417304
v 0 -0.004575018 1.417307
v 0 0.01255828 1.351112
v 0 0.01639329 1.251082
v 0 0.01795288 1.198954
v 0 0.02170792 1.025411
v 0 0.02835527 0.7069607
v 0 0.02903905 0.6533725
v 0 0.03046592 0.603817
v 0 0.03186111 0.5552016
v 0 0.03313466 0.5084981
v 0 0.03463599 0.4612335
v 0 0.04038012 0.3956107
v 0.03815738 0.02507256 0.3115772
v 0.05913629 0.0249634 0.2573664
v 0.04391833 0.03414997 0.2522242
v 0.04974615 0.0472881 0.2067422
v 0 0.05976668 0.2498084
v 0 0.06653271 0.2067421
v 0.07921264 0.03428143 0.2067423
v 0.06423205 0.02405661 0.1600146
v 0.07897631 0.01168475 0.171221
v 0.1438393 0.01899431 0.2067424
v 0.275961 0.006341515 0.2067449
v 0.04147768 0.033436 0.1771378
v 0.02098242 0.03981686 0.1649596
v 0 0.0410716 0.1080578
v 0 0.01710432 0.04197279
v 0 0.01711432 -0.2375461
v 0 0.02931773 -0.273258
v 0 0.04460167 -0.2915143
v 0 0.01918428 -0.3644351
v 0 5.497566E-09 -0.3951651
v 0 0.05820873 0.1649332
v -0.02098242 0.03981686 0.1649596
v -0.04147768 0.033436 0.1771378
v -0.06423205 0.02405661 0.1600146
v -0.07897631 0.01168475 0.171221
v -0.07921264 0.03428143 0.2067423
v -0.04974615 0.0472881 0.2067422
v -0.05913629 0.0249634 0.2573664
v -0.04391833 0.03414997 0.2522242
v -0.03815738 0.02507256 0.3115772
v -0.1438393 0.01899431 0.2067424
v -0.275961 0.006341515 0.2067449
v 0 0.05049924 0.3115123
v -0.06977692 0 0.3116339
v 0.081883 0 0.1192302
v 0.07872676 0 0.167894
v -0.07872676 0 0.167894
v -0.081883 0 0.1192302
v -0.07872676 0 0.167894
v 0 0 1.435874
v 0 0.004505957 1.417311
v 0 0 1.435874
vt 0.01672682 0.5329666
vt 0.05037277 0.5329661
vt 0.06148905 0.5062951
vt 0.01672681 0.5062951
vt 0.01672682 0.5601538
vt 0.04444946 0.5601513
vt 0.01672682 0.5895535
vt 0.04055972 0.5895485
vt 0.01672682 0.7642621
vt 0.03379722 0.7642727
vt 0.01672682 0.8594716
vt 0.03274281 0.8586133
vt 0.04441272 0.4788685
vt 0.0167268 0.4788792
vt 0.04058962 0.4511381
vt 0.0167268 0.4511337
vt 0.04491946 0.4126484
vt 0.0167268 0.4126115
vt 0.03926855 0.3632817
vt 0.01672682 0.88807
vt 0.03201307 0.887906
vt 0.01672682 0.9429482
vt 0.02994213 0.9429384
vt 0.01986341 0.9791673
vt 0.05794796 0.3633149
vt 0.05275385 0.3318253
vt 0.03997094 0.3275332
vt 0.04611472 0.3017409
vt 0.0167268 0.3270219
vt 0.0167268 0.3017409
vt 0.06352217 0.3017411
vt 0.05467231 0.2743106
vt 0.0633826 0.2808891
vt 0.06792277 0.3411421
vt 0.08746728 0.3214851
vt 0.1016801 0.3153653
vt 0.1017008 0.3017411
vt 0.0716503 0.2843545
vt 0.1017137 0.2887999
vt 0.1797525 0.3017426
vt 0.1797573 0.2964057
vt 0.179746 0.3067771
vt 0.2043272 0.3017451
vt 0.06928122 0.2789361
vt 0.06509969 0.2503693
vt 0.04810836 0.2707254
vt 0.04123005 0.2843625
vt 0.03110561 0.277396
vt 0.04068708 0.2611735
vt 0.03599519 0.2438207
vt 0.0167268 0.2438108
vt 0.02965011 0.2049552
vt 0.0167268 0.2050172
vt 0.02965774 0.1146734
vt 0.0167268 0.1146734
vt 0.03376606 0.09383161
vt 0.0167268 0.09379895
vt 0.04188398 0.08317451
vt 0.0167268 0.08317451
vt 0.02768695 0.04024549
vt 0.0167268 0.04027571
vt 0.0167268 0.02223645
vt 0.0167268 0.2770156
vt 0.03376606 0.09383161
vt 0.02965774 0.1146734
vt 0.04188398 0.08317451
vt 0.02768695 0.04024549
vt 0.03110561 0.277396
vt 0.04123005 0.2843625
vt 0.04810836 0.2707254
vt 0.04068708 0.2611735
vt 0.03599519 0.2438207
vt 0.02965011 0.2049552
vt 0.05467231 0.2743106
vt 0.06509969 0.2503693
vt 0.0633826 0.2808891
vt 0.06352217 0.3017411
vt 0.04611472 0.3017409
vt 0.05275385 0.3318253
vt 0.03997094 0.3275332
vt 0.03926855 0.3632817
vt 0.06792277 0.3411421
vt 0.08746728 0.3214851
vt 0.1016801 0.3153653
vt 0.1017008 0.3017411
vt 0.0716503 0.2843545
vt 0.1017137 0.2887999
vt 0.1797525 0.3017426
vt 0.1797573 0.2964057
vt 0.179746 0.3067771
vt 0.2043272 0.3017451
vt 0.0167268 0.3632436
vt 0.04491946 0.4126484
vt 0.04058962 0.4511381
vt 0.04441272 0.4788685
vt 0.06148905 0.5062951
vt 0.05037277 0.5329661
vt 0.04444946 0.5601513
vt 0.04055972 0.5895485
vt 0.03379722 0.7642727
vt 0.03274281 0.8586133
vt 0.03201307 0.887906
vt 0.02994213 0.9429384
vt 0.01986341 0.9791673
vt 0.01672682 0.9792681
vt 0.01672682 0.9429482
vt 0.01672682 0.88807
vt 0.01672682 0.8594716
vt 0.01672682 0.7642621
vt 0.01672682 0.5895535
vt 0.01672682 0.5601538
vt 0.01672682 0.5329666
vt 0.01672681 0.5062951
vt 0.0167268 0.4788792
vt 0.0167268 0.4511337
vt 0.0167268 0.4126115
vt 0.03926855 0.3632817
vt 0.05275385 0.3318253
vt 0.03997094 0.3275332
vt 0.04611472 0.3017409
vt 0.0167268 0.3270219
vt 0.0167268 0.3017409
vt 0.06352217 0.3017411
vt 0.05467231 0.2743106
vt 0.0633826 0.2808891
vt 0.1017008 0.3017411
vt 0.1797525 0.3017426
vt 0.04123005 0.2843625
vt 0.03110561 0.277396
vt 0.0167268 0.2438108
vt 0.0167268 0.2050172
vt 0.0167268 0.1146734
vt 0.0167268 0.09379895
vt 0.0167268 0.08317451
vt 0.0167268 0.04027571
vt 0.0167268 0.02223645
vt 0.0167268 0.2770156
vt 0.03110561 0.277396
vt 0.04123005 0.2843625
vt 0.05467231 0.2743106
vt 0.0633826 0.2808891
vt 0.06352217 0.3017411
vt 0.04611472 0.3017409
vt 0.05275385 0.3318253
vt 0.03997094 0.3275332
vt 0.03926855 0.3632817
vt 0.1017008 0.3017411
vt 0.1797525 0.3017426
vt 0.0167268 0.3632436
vt 0.05794796 0.3633149
vt 0.06509969 0.2503693
vt 0.06928122 0.2789361
vt 0.06928122 0.2789361
vt 0.06509969 0.2503693
vt 0.06928122 0.2789361
vt 0.01672682 0.9894508
vt 0.01672682 0.9794542
vt 0.01672682 0.9894508
vn 0 -0.9960402 0.08890477
vn 0.9843907 0 0.175997
vn 0.9997348 0 -0.02302932
vn 0 -0.9997662 -0.02162034
vn 0 -0.9982114 0.05978265
vn 0.9950687 0 0.09918793
vn 0 -0.9993756 0.03533198
vn 0.9986545 0 0.05185755
vn 0 -0.9998195 0.01899893
vn 0.9996474 0 0.02655377
vn 0 -0.9998273 0.01858786
vn 0.9996355 0 0.02699529
vn 0.9861115 0 -0.166085
vn 0 -0.995409 -0.09571291
vn 0.9995117 0 0.03124562
vn 0 -0.999626 0.02734792
vn 0.983991 0 0.1782184
vn 0 -0.9909425 0.1342867
vn 0.5702005 -0.8048956 0.1643606
vn 0 -0.9995595 0.02967999
vn 0.9989346 0 0.04614783
vn 0 -0.9974977 0.07069883
vn 0.9940273 -2.411908E-05 0.1091315
vn 0.9504328 0.003018805 0.3109155
vn 0.9448885 0 0.3273921
vn 0.4901826 -0.8275667 0.2735952
vn 0.4472617 -0.8663237 0.2223518
vn 0.4177615 -0.906211 -0.06524535
vn 0 -0.9761965 0.2168883
vn 0 -0.9984245 -0.056112
vn 0.451247 -0.8912004 -0.04624004
vn 0.08070026 -0.8028104 -0.5907478
vn 0.7448266 -0.5618863 -0.3598849
vn 0.8586338 0 0.5125896
vn 0.4942728 0 0.8693068
vn 0.2349699 0 0.9720026
vn 0.1608743 -0.9862092 -0.03886993
vn 0.5206873 0 -0.8537475
vn 0.1572406 0 -0.9875603
vn 0.1194437 -0.9928328 0.004026867
vn 0.1539654 0 -0.9880763
vn 0.1539372 0 0.9880806
vn 0.9999915 1.176959E-07 0.004115592
vn 0.9290497 0 -0.3699549
vn 0.339921 0 -0.9404539
vn -0.167731 0 -0.9858328
vn 0.2470672 -0.8021377 -0.5436294
vn 0.6038591 -0.7081474 -0.3658982
vn 0.8578941 0 -0.5138265
vn 0.9696362 0 -0.2445518
vn 0 -0.9404341 -0.3399761
vn 0.9977639 0 -0.06683755
vn 0 -0.9966665 -0.0815836
vn 0.9939237 0 0.1100712
vn 0 -0.9941554 0.107958
vn 0.8833145 -3.262743E-07 0.4687809
vn 0 -0.8781459 0.4783928
vn 0.9889497 0 0.1482515
vn 0 -0.9898362 0.1422121
vn 0.9157553 0 -0.4017366
vn 0 -0.9107329 -0.4129958
vn 0 -1.47931E-07 -1
vn 0 -0.9713726 -0.2375612
vn -0.8833145 -2.330531E-07 0.4687809
vn -0.9939237 0 0.1100712
vn -0.9889497 0 0.1482515
vn -0.9157553 0 -0.4017366
vn -0.6038591 -0.7081474 -0.3658982
vn -0.2470672 -0.8021377 -0.5436294
vn 0.167731 0 -0.9858328
vn -0.8578941 0 -0.5138265
vn -0.9696362 0 -0.2445518
vn -0.9977639 0 -0.06683755
vn -0.08070026 -0.8028104 -0.5907478
vn -0.339921 0 -0.9404539
vn -0.7448266 -0.5618863 -0.3598849
vn -0.451247 -0.8912004 -0.04624004
vn -0.4177615 -0.906211 -0.06524535
vn -0.4901826 -0.8275667 0.2735952
vn -0.4472617 -0.8663237 0.2223518
vn -0.5702005 -0.8048956 0.1643606
vn -0.8586338 0 0.5125896
vn -0.4942728 0 0.8693068
vn -0.2349699 0 0.9720026
vn -0.1608743 -0.9862092 -0.03886992
vn -0.5206873 0 -0.8537475
vn -0.1572406 0 -0.9875603
vn -0.1194437 -0.9928328 0.004026891
vn -0.1539654 0 -0.9880763
vn -0.1539373 0 0.9880806
vn -0.9999915 1.176959E-07 0.004115592
vn 0 -0.9886014 0.1505565
vn -0.983991 0 0.1782184
vn -0.9995117 0 0.03124562
vn -0.9861115 0 -0.166085
vn -0.9997348 0 -0.02302932
vn -0.9843907 0 0.175997
vn -0.9950687 0 0.09918791
vn -0.9986545 0 0.05185755
vn -0.9996474 0 0.02655377
vn -0.9996355 0 0.02699529
vn -0.9989346 0 0.04614783
vn -0.9940273 -2.411908E-05 0.1091315
vn -0.9504328 0.003018805 0.3109155
vn 0 -0.9842445 0.1768127
vn 0 0.9975008 0.07065539
vn 0 0.9995595 0.02968
vn 0 0.9998273 0.01858786
vn 0 0.9998195 0.01899893
vn 0 0.9993756 0.03533198
vn 0 0.9982114 0.05978265
vn 0 0.9960402 0.08890477
vn 0 0.9997662 -0.02162034
vn 0 0.995409 -0.09571291
vn 0 0.999626 0.02734792
vn 0 0.9909425 0.1342867
vn 0.5702005 0.8048956 0.1643606
vn 0.4901826 0.8275667 0.2735952
vn 0.4472617 0.8663237 0.2223518
vn 0.4177615 0.906211 -0.06524535
vn 0 0.9761965 0.2168883
vn 0 0.9984245 -0.056112
vn 0.451247 0.8912004 -0.04624004
vn 0.08070026 0.8028104 -0.5907478
vn 0.7448266 0.5618863 -0.3598849
vn 0.1608743 0.9862092 -0.03886992
vn 0.1194437 0.9928328 0.004026891
vn 0.2470672 0.8021377 -0.5436294
vn 0.6038591 0.7081474 -0.3658982
vn 0 0.9404341 -0.3399761
vn 0 0.9966665 -0.08158359
vn 0 0.9941554 0.107958
vn 0 0.8781455 0.4783936
vn 0 0.989836 0.142213
vn 0 0.910733 -0.4129956
vn 0 -1.47931E-07 -1
vn 0 0.9713726 -0.2375612
vn -0.6038591 0.7081474 -0.3658982
vn -0.2470672 0.8021377 -0.5436294
vn -0.08070026 0.8028104 -0.5907478
vn -0.7448266 0.5618863 -0.3598849
vn -0.451247 0.8912004 -0.04624004
vn -0.4177615 0.906211 -0.06524535
vn -0.4901826 0.8275667 0.2735952
vn -0.4472617 0.8663237 0.2223518
vn -0.5702005 0.8048956 0.1643606
vn -0.1608743 0.9862092 -0.03886993
vn -0.1194437 0.9928328 0.004026867
vn 0 0.9886014 0.1505565
vn -0.9448885 0 0.3273921
vn 0.339921 0 -0.9404539
vn 0.9290497 0 -0.3699549
vn -0.9290497 0 -0.3699549
vn -0.339921 0 -0.9404539
vn -0.9290497 0 -0.3699549
vn 0 0.001070428 0.9999994
vn 0 0.984426 0.1757997
vn 0 0.001070428 0.9999994
g Clymor_H7_Model_Mid_0
f 3/3/3 2/2/2 1/1/1
f 4/4/4 3/3/3 1/1/1
f 5/5/5 1/1/1 2/2/2
f 6/6/6 5/5/5 2/2/2
f 7/7/7 5/5/5 6/6/6
f 8/8/8 7/7/7 6/6/6
f 9/9/9 7/7/7 8/8/8
f 10/10/10 9/9/9 8/8/8
f 11/11/11 9/9/9 10/10/10
f 12/12/12 11/11/11 10/10/10
f 3/3/3 4/4/4 13/13/13
f 4/4/4 14/14/14 13/13/13
f 15/15/15 13/13/13 14/14/14
f 16/16/16 15/15/15 14/14/14
f 17/17/17 15/15/15 16/16/16
f 18/18/18 17/17/17 16/16/16
f 19/19/19 17/17/17 18/18/18
f 20/20/20 11/11/11 12/12/12
f 21/21/21 20/20/20 12/12/12
f 22/22/22 20/20/20 21/21/21
f 23/23/23 22/22/22 21/21/21
f 24/24/24 22/22/22 23/23/23
f 25/25/25 17/17/17 19/19/19
f 25/25/25 19/19/19 26/26/26
f 26/26/26 19/19/19 27/27/27
f 26/26/26 27/27/27 28/28/28
f 28/28/28 27/27/27 29/29/29
f 30/30/30 28/28/28 29/29/29
f 31/31/31 26/26/26 28/28/28
f 31/31/31 28/28/28 32/32/32
f 33/33/33 31/31/31 32/32/32
f 34/34/34 26/26/26 31/31/31
f 34/34/34 25/25/25 26/26/26
f 35/35/35 34/34/34 31/31/31
f 35/35/35 31/31/31 36/36/36
f 31/31/31 37/37/37 36/36/36
f 31/31/31 38/38/38 37/37/37
f 31/31/31 33/33/33 38/38/38
f 38/38/38 39/39/39 37/37/37
f 40/40/40 37/37/37 39/39/39
f 41/41/41 40/40/40 39/39/39
f 42/42/42 36/36/36 37/37/37
f 40/40/40 42/42/42 37/37/37
f 43/43/43 40/40/40 41/41/41
f 43/43/43 42/42/42 40/40/40
f 38/38/38 33/33/33 44/44/44
f 45/45/45 33/33/33 32/32/32
f 45/45/45 32/32/32 46/46/46
f 32/32/32 47/47/47 46/46/46
f 46/46/46 47/47/47 48/48/48
f 49/49/49 46/46/46 48/48/48
f 49/49/49 48/48/48 50/50/50
f 48/48/48 51/51/51 50/50/50
f 50/50/50 51/51/51 52/52/52
f 51/51/51 53/53/53 52/52/52
f 52/52/52 53/53/53 54/54/54
f 53/53/53 55/55/55 54/54/54
f 54/54/54 55/55/55 56/56/56
f 55/55/55 57/57/57 56/56/56
f 56/56/56 57/57/57 58/58/58
f 57/57/57 59/59/59 58/58/58
f 60/60/60 58/58/58 59/59/59
f 59/59/59 61/61/61 60/60/60
f 62/62/62 60/60/60 61/61/61
f 30/30/30 48/48/48 47/47/47
f 63/63/63 51/51/51 48/48/48
f 30/30/30 63/63/63 48/48/48
f 57/57/57 55/55/55 64/64/64
f 55/55/55 65/65/65 64/64/64
f 55/55/55 53/53/53 65/65/65
f 57/57/57 64/64/64 66/66/66
f 59/59/59 57/57/57 66/66/66
f 66/66/66 67/67/67 59/59/59
f 67/67/67 62/62/62 61/61/61
f 61/61/61 59/59/59 67/67/67
f 63/63/63 30/30/30 68/68/68
f 68/68/68 30/30/30 69/69/69
f 69/69/69 70/70/70 68/68/68
f 70/70/70 71/71/71 68/68/68
f 68/68/68 71/71/71 72/72/72
f 51/51/51 68/68/68 72/72/72
f 51/51/51 63/63/63 68/68/68
f 51/51/51 72/72/72 73/73/73
f 53/53/53 73/73/73 65/65/65
f 53/53/53 51/51/51 73/73/73
f 69/69/69 74/74/74 70/70/70
f 74/74/74 75/75/75 70/70/70
f 76/76/76 75/75/75 74/74/74
f 77/77/77 76/76/76 74/74/74
f 78/78/78 77/77/77 74/74/74
f 69/69/69 78/78/78 74/74/74
f 79/79/79 77/77/77 78/78/78
f 80/80/80 79/79/79 78/78/78
f 80/80/80 78/78/78 29/29/29
f 78/78/78 30/30/30 29/29/29
f 30/30/30 78/78/78 69/69/69
f 81/81/81 79/79/79 80/80/80
f 79/79/79 82/82/82 77/77/77
f 82/82/82 83/83/83 77/77/77
f 77/77/77 83/83/83 84/84/84
f 85/85/85 77/77/77 84/84/84
f 86/86/86 77/77/77 85/85/85
f 76/76/76 77/77/77 86/86/86
f 87/87/87 86/86/86 85/85/85
f 85/85/85 88/88/88 87/87/87
f 88/88/88 89/89/89 87/87/87
f 90/90/90 88/88/88 85/85/85
f 84/84/84 90/90/90 85/85/85
f 88/88/88 91/91/91 89/89/89
f 90/90/90 91/91/91 88/88/88
f 92/92/92 81/81/81 80/80/80
f 29/29/29 92/92/92 80/80/80
f 92/92/92 29/29/29 27/27/27
f 19/19/19 92/92/92 27/27/27
f 92/92/92 19/19/19 18/18/18
f 81/81/81 92/92/92 18/18/18
f 93/93/93 81/81/81 18/18/18
f 93/93/93 18/18/18 16/16/16
f 94/94/94 93/93/93 16/16/16
f 94/94/94 16/16/16 14/14/14
f 95/95/95 94/94/94 14/14/14
f 14/14/14 4/4/4 95/95/95
f 4/4/4 96/96/96 95/95/95
f 96/96/96 4/4/4 1/1/1
f 97/97/97 96/96/96 1/1/1
f 1/1/1 5/5/5 97/97/97
f 5/5/5 98/98/98 97/97/97
f 5/5/5 7/7/7 98/98/98
f 7/7/7 99/99/99 98/98/98
f 7/7/7 9/9/9 99/99/99
f 9/9/9 100/100/100 99/99/99
f 9/9/9 11/11/11 100/100/100
f 11/11/11 101/101/101 100/100/100
f 11/11/11 20/20/20 101/101/101
f 20/20/20 102/102/102 101/101/101
f 20/20/20 22/22/22 102/102/102
f 22/22/22 103/103/103 102/102/102
f 22/22/22 104/104/104 103/103/103
f 105/105/105 104/104/104 22/22/22
f 105/105/105 22/22/22 24/24/24
f 104/104/104 106/106/106 103/103/103
f 103/103/103 106/106/106 102/102/102
f 106/106/106 24/24/24 23/23/23
f 106/106/106 23/23/23 21/21/21
f 107/107/107 106/106/106 21/21/21
f 106/106/106 107/107/107 102/102/102
f 102/102/102 107/107/107 101/101/101
f 107/107/107 21/21/21 12/12/12
f 108/108/108 107/107/107 12/12/12
f 101/101/101 108/108/108 100/100/100
f 107/107/107 108/108/108 101/101/101
f 108/108/108 12/12/12 10/10/10
f 109/109/109 108/108/108 10/10/10
f 109/109/109 10/10/10 8/8/8
f 110/110/110 109/109/109 8/8/8
f 110/110/110 8/8/8 6/6/6
f 111/111/111 110/110/110 6/6/6
f 111/111/111 6/6/6 2/2/2
f 112/112/112 111/111/111 2/2/2
f 2/2/2 3/3/3 112/112/112
f 3/3/3 113/113/113 112/112/112
f 113/113/113 3/3/3 13/13/13
f 114/114/114 113/113/113 13/13/13
f 13/13/13 15/15/15 114/114/114
f 15/15/15 115/115/115 114/114/114
f 15/15/15 17/17/17 115/115/115
f 17/17/17 116/116/116 115/115/115
f 17/17/17 117/117/117 116/116/116
f 17/17/17 25/25/25 117/117/117
f 117/117/117 25/25/25 118/118/118
f 117/117/117 118/118/118 119/119/119
f 119/119/119 118/118/118 120/120/120
f 119/119/119 120/120/120 121/121/121
f 120/120/120 122/122/122 121/121/121
f 118/118/118 123/123/123 120/120/120
f 120/120/120 123/123/123 124/124/124
f 123/123/123 125/125/125 124/124/124
f 118/118/118 34/34/34 123/123/123
f 25/25/25 34/34/34 118/118/118
f 34/34/34 35/35/35 123/123/123
f 123/123/123 35/35/35 36/36/36
f 126/126/126 123/123/123 36/36/36
f 38/38/38 123/123/123 126/126/126
f 125/125/125 123/123/123 38/38/38
f 39/39/39 38/38/38 126/126/126
f 126/126/126 127/127/127 39/39/39
f 127/127/127 41/41/41 39/39/39
f 42/42/42 127/127/127 126/126/126
f 36/36/36 42/42/42 126/126/126
f 127/127/127 43/43/43 41/41/41
f 42/42/42 43/43/43 127/127/127
f 125/125/125 38/38/38 44/44/44
f 125/125/125 45/45/45 124/124/124
f 124/124/124 45/45/45 46/46/46
f 128/128/128 124/124/124 46/46/46
f 128/128/128 46/46/46 129/129/129
f 46/46/46 49/49/49 129/129/129
f 129/129/129 49/49/49 50/50/50
f 130/130/130 129/129/129 50/50/50
f 130/130/130 50/50/50 52/52/52
f 131/131/131 130/130/130 52/52/52
f 131/131/131 52/52/52 54/54/54
f 132/132/132 131/131/131 54/54/54
f 132/132/132 54/54/54 56/56/56
f 133/133/133 132/132/132 56/56/56
f 133/133/133 56/56/56 58/58/58
f 134/134/134 133/133/133 58/58/58
f 58/58/58 60/60/60 134/134/134
f 135/135/135 134/134/134 60/60/60
f 60/60/60 136/136/136 135/135/135
f 129/129/129 122/122/122 128/128/128
f 130/130/130 137/137/137 129/129/129
f 137/137/137 122/122/122 129/129/129
f 132/132/132 133/133/133 64/64/64
f 65/65/65 132/132/132 64/64/64
f 131/131/131 132/132/132 65/65/65
f 133/133/133 134/134/134 66/66/66
f 64/64/64 133/133/133 66/66/66
f 67/67/67 66/66/66 134/134/134
f 136/136/136 67/67/67 135/135/135
f 134/134/134 135/135/135 67/67/67
f 122/122/122 137/137/137 138/138/138
f 122/122/122 138/138/138 139/139/139
f 70/70/70 139/139/139 138/138/138
f 71/71/71 70/70/70 138/138/138
f 71/71/71 138/138/138 72/72/72
f 138/138/138 130/130/130 72/72/72
f 137/137/137 130/130/130 138/138/138
f 72/72/72 130/130/130 73/73/73
f 73/73/73 131/131/131 65/65/65
f 130/130/130 131/131/131 73/73/73
f 140/140/140 139/139/139 70/70/70
f 75/75/75 140/140/140 70/70/70
f 75/75/75 141/141/141 140/140/140
f 141/141/141 142/142/142 140/140/140
f 142/142/142 143/143/143 140/140/140
f 143/143/143 139/139/139 140/140/140
f 142/142/142 144/144/144 143/143/143
f 144/144/144 145/145/145 143/143/143
f 143/143/143 145/145/145 121/121/121
f 122/122/122 143/143/143 121/121/121
f 143/143/143 122/122/122 139/139/139
f 144/144/144 146/146/146 145/145/145
f 82/82/82 144/144/144 142/142/142
f 83/83/83 82/82/82 142/142/142
f 83/83/83 142/142/142 84/84/84
f 142/142/142 147/147/147 84/84/84
f 142/142/142 86/86/86 147/147/147
f 142/142/142 141/141/141 86/86/86
f 86/86/86 87/87/87 147/147/147
f 148/148/148 147/147/147 87/87/87
f 89/89/89 148/148/148 87/87/87
f 90/90/90 84/84/84 147/147/147
f 148/148/148 90/90/90 147/147/147
f 91/91/91 148/148/148 89/89/89
f 91/91/91 90/90/90 148/148/148
f 149/149/149 121/121/121 145/145/145
f 146/146/146 149/149/149 145/145/145
f 121/121/121 149/149/149 119/119/119
f 149/149/149 117/117/117 119/119/119
f 117/117/117 149/149/149 116/116/116
f 149/149/149 146/146/146 116/116/116
f 146/146/146 93/93/93 116/116/116
f 116/116/116 93/93/93 115/115/115
f 93/93/93 94/94/94 115/115/115
f 115/115/115 94/94/94 114/114/114
f 94/94/94 95/95/95 114/114/114
f 113/113/113 114/114/114 95/95/95
f 96/96/96 113/113/113 95/95/95
f 113/113/113 96/96/96 112/112/112
f 96/96/96 97/97/97 112/112/112
f 111/111/111 112/112/112 97/97/97
f 98/98/98 111/111/111 97/97/97
f 110/110/110 111/111/111 98/98/98
f 99/99/99 110/110/110 98/98/98
f 109/109/109 110/110/110 99/99/99
f 100/100/100 109/109/109 99/99/99
f 108/108/108 109/109/109 100/100/100
f 93/93/93 150/150/150 81/81/81
f 81/81/81 150/150/150 79/79/79
f 150/150/150 82/82/82 79/79/79
f 82/82/82 150/150/150 144/144/144
f 150/150/150 146/146/146 144/144/144
f 150/150/150 93/93/93 146/146/146
f 152/152/152 33/33/33 151/151/151
f 125/125/125 152/152/152 151/151/151
f 28/28/28 47/47/47 32/32/32
f 28/28/28 30/30/30 47/47/47
f 76/76/76 86/86/86 153/153/153
f 86/86/86 141/141/141 153/153/153
f 76/76/76 155/155/155 154/154/154
f 155/155/155 141/141/141 154/154/154
f 157/157/157 156/156/156 24/24/24
f 156/156/156 157/157/157 104/104/104
f 106/106/106 157/157/157 24/24/24
f 106/106/106 104/104/104 157/157/157
f 158/158/158 105/105/105 24/24/24
f 158/158/158 104/104/104 105/105/105
f 128/128/128 120/120/120 124/124/124
f 122/122/122 120/120/120 128/128/128
