g Equip_Annulus
v 0.4208505 1.591846 -0.1841241
v 0.3991557 1.590553 -0.2034057
v 0.3798896 1.611361 -0.1832925
v 0.4016646 1.612689 -0.1638803
v 0.3566754 1.601566 -0.1957387
v 0.3758898 1.580969 -0.2156207
v 0.3354694 1.584298 -0.1992149
v 0.3543065 1.564273 -0.2185932
v 0.318742 1.561552 -0.1936385
v 0.3367015 1.542624 -0.2120658
v 0.3077332 1.536123 -0.180696
v 0.3242833 1.518837 -0.1976789
v 0.3026717 1.511242 -0.1631604
v 0.3174606 1.495946 -0.1783687
v 0.3032614 1.490113 -0.1439895
v 0.3163021 1.476758 -0.1574512
v 0.418294 1.605587 -0.1409506
v 0.4373643 1.584808 -0.1612794
v 0.4267697 1.591027 -0.1184575
v 0.4456353 1.570483 -0.1387241
v 0.425618 1.570745 -0.09982318
v 0.4440239 1.550784 -0.1196769
v 0.4152883 1.547037 -0.08719306
v 0.4328113 1.528175 -0.1061016
v 0.3979495 1.52256 -0.08122958
v 0.4141203 1.505331 -0.09863077
v 0.3767923 1.500099 -0.08144016
v 0.3912944 1.484845 -0.09696461
v 0.3551293 1.482315 -0.08680355
v 0.3679854 1.468988 -0.1004688
v 0.3032614 1.490113 -0.1439895
v 0.3163021 1.476758 -0.1574512
v 0.3119301 1.473117 -0.157287
v 0.2997612 1.486487 -0.1442393
v 0.2982024 1.48163 -0.1454754
v 0.3074068 1.471517 -0.1553445
v 0.2997636 1.473346 -0.1500567
v 0.3551293 1.482315 -0.08680355
v 0.3545158 1.478255 -0.08387077
v 0.3668692 1.464857 -0.09671494
v 0.3679854 1.468988 -0.1004688
v 0.3549151 1.473104 -0.08294781
v 0.3642592 1.46297 -0.09266298
v 0.3584819 1.464518 -0.08531796
v 0.4016646 1.612689 -0.1638803
v 0.3798896 1.611361 -0.1832925
v 0.3810985 1.616077 -0.1868508
v 0.4045869 1.617455 -0.1658809
v 0.3561626 1.605652 -0.2002529
v 0.3566754 1.601566 -0.1957387
v 0.3335256 1.587223 -0.2038969
v 0.3354694 1.584298 -0.1992149
v 0.3158174 1.562914 -0.1977283
v 0.318742 1.561552 -0.1936385
v 0.3042863 1.535712 -0.1836484
v 0.3077332 1.536123 -0.180696
v 0.2990691 1.509089 -0.1647381
v 0.3026717 1.511242 -0.1631604
v 0.2997612 1.486487 -0.1442393
v 0.3032614 1.490113 -0.1439895
v 0.4225619 1.609844 -0.1411362
v 0.418294 1.605587 -0.1409506
v 0.4317115 1.594294 -0.1169578
v 0.4267697 1.591027 -0.1184575
v 0.4304169 1.572657 -0.09707115
v 0.425618 1.570745 -0.09982318
v 0.4191892 1.547372 -0.08375754
v 0.4152883 1.547037 -0.08719306
v 0.4004363 1.521257 -0.07763997
v 0.3979495 1.52256 -0.08122958
v 0.3776741 1.497272 -0.07807365
v 0.3767923 1.500099 -0.08144016
v 0.3545158 1.478255 -0.08387077
v 0.3551293 1.482315 -0.08680355
v 0.4178825 1.613021 -0.1785447
v 0.4045869 1.617455 -0.1658809
v 0.3810985 1.616077 -0.1868508
v 0.3918347 1.611562 -0.2018432
v 0.3561626 1.605652 -0.2002529
v 0.3642933 1.600222 -0.2166025
v 0.3335256 1.587223 -0.2038969
v 0.3393322 1.580258 -0.2202129
v 0.3158174 1.562914 -0.1977283
v 0.319688 1.554119 -0.2125414
v 0.3042863 1.535712 -0.1836484
v 0.3065646 1.525132 -0.1957982
v 0.2990691 1.509089 -0.1647381
v 0.3000406 1.49702 -0.1736612
v 0.2982024 1.48163 -0.1454754
v 0.2997612 1.486487 -0.1442393
v 0.2997636 1.473346 -0.1500567
v 0.4225619 1.609844 -0.1411362
v 0.4378683 1.604641 -0.1510898
v 0.4317115 1.594294 -0.1169578
v 0.447955 1.587644 -0.1243628
v 0.4304169 1.572657 -0.09707115
v 0.4461737 1.564196 -0.1024167
v 0.4191892 1.547372 -0.08375754
v 0.4330136 1.537082 -0.08759626
v 0.4004363 1.521257 -0.07763997
v 0.4112274 1.509397 -0.08040404
v 0.3776741 1.497272 -0.07807365
v 0.3849472 1.484255 -0.08004904
v 0.3549151 1.473104 -0.08294781
v 0.3545158 1.478255 -0.08387077
v 0.3584819 1.464518 -0.08531796
v 0.4241651 1.597202 -0.1864001
v 0.4005537 1.595836 -0.2074555
v 0.3991557 1.590553 -0.2034057
v 0.4208505 1.591846 -0.1841241
v 0.3758898 1.580969 -0.2156207
v 0.3753799 1.585506 -0.2207843
v 0.3543065 1.564273 -0.2185932
v 0.3521991 1.567482 -0.2239634
v 0.3367015 1.542624 -0.2120658
v 0.3334495 1.54411 -0.2167277
v 0.3242833 1.518837 -0.1976789
v 0.3203306 1.518443 -0.2009405
v 0.3174606 1.495946 -0.1783687
v 0.3131607 1.493769 -0.1798995
v 0.3163021 1.476758 -0.1574512
v 0.3119301 1.473117 -0.157287
v 0.4373643 1.584808 -0.1612794
v 0.4422128 1.589573 -0.1615251
v 0.4456353 1.570483 -0.1387241
v 0.4512777 1.574095 -0.1371046
v 0.4440239 1.550784 -0.1196769
v 0.4495216 1.55285 -0.1166622
v 0.4328113 1.528175 -0.1061016
v 0.4372578 1.528503 -0.1022758
v 0.4141203 1.505331 -0.09863077
v 0.41686 1.503931 -0.09451373
v 0.3912944 1.484845 -0.09696461
v 0.3920525 1.481908 -0.09291881
v 0.3679854 1.468988 -0.1004688
v 0.3668692 1.464857 -0.09671494
v 0.4241651 1.597202 -0.1864001
v 0.4178825 1.613021 -0.1785447
v 0.3918347 1.611562 -0.2018432
v 0.4005537 1.595836 -0.2074555
v 0.3642933 1.600222 -0.2166025
v 0.3753799 1.585506 -0.2207843
v 0.3393322 1.580258 -0.2202129
v 0.3521991 1.567482 -0.2239634
v 0.3334495 1.54411 -0.2167277
v 0.319688 1.554119 -0.2125414
v 0.3203306 1.518443 -0.2009405
v 0.3065646 1.525132 -0.1957982
v 0.3131607 1.493769 -0.1798995
v 0.3000406 1.49702 -0.1736612
v 0.3074068 1.471517 -0.1553445
v 0.2997636 1.473346 -0.1500567
v 0.3119301 1.473117 -0.157287
v 0.4378683 1.604641 -0.1510898
v 0.4422128 1.589573 -0.1615251
v 0.447955 1.587644 -0.1243628
v 0.4512777 1.574095 -0.1371046
v 0.4461737 1.564196 -0.1024167
v 0.4495216 1.55285 -0.1166622
v 0.4372578 1.528503 -0.1022758
v 0.4330136 1.537082 -0.08759626
v 0.41686 1.503931 -0.09451373
v 0.4112274 1.509397 -0.08040404
v 0.3920525 1.481908 -0.09291881
v 0.3849472 1.484255 -0.08004904
v 0.3642592 1.46297 -0.09266298
v 0.3584819 1.464518 -0.08531796
v 0.3668692 1.464857 -0.09671494
vt 0.210034 0.229386
vt 0.210034 0.209159
vt 0.184286 0.209763
vt 0.184286 0.229386
vt 0.184286 0.188421
vt 0.210034 0.18874
vt 0.184286 0.165452
vt 0.210034 0.166742
vt 0.184286 0.141178
vt 0.210034 0.142271
vt 0.184286 0.115129
vt 0.210034 0.116044
vt 0.184286 0.089584
vt 0.210034 0.090242
vt 0.184286 0.06719
vt 0.210034 0.06719
vt 0.184286 0.209763
vt 0.210034 0.209159
vt 0.184286 0.188421
vt 0.210034 0.18874
vt 0.184286 0.165452
vt 0.210034 0.166742
vt 0.184286 0.141178
vt 0.210034 0.142271
vt 0.184286 0.115129
vt 0.210034 0.116044
vt 0.184286 0.089584
vt 0.210034 0.090242
vt 0.184286 0.06719
vt 0.210034 0.06719
vt 0.199107 0.24869
vt 0.216496 0.24869
vt 0.216204 0.244796
vt 0.199358 0.244796
vt 0.20141 0.241508
vt 0.214152 0.241508
vt 0.207781 0.238219
vt 0.199107 0.24869
vt 0.199358 0.244796
vt 0.216204 0.244796
vt 0.216496 0.24869
vt 0.20141 0.241508
vt 0.214152 0.241508
vt 0.207781 0.238219
vt 0.27647 0.561267
vt 0.27647 0.536099
vt 0.271597 0.536099
vt 0.271597 0.561267
vt 0.271597 0.510023
vt 0.27647 0.510023
vt 0.271597 0.481827
vt 0.27647 0.481827
vt 0.271597 0.450808
vt 0.27647 0.450808
vt 0.271597 0.417447
vt 0.27647 0.417447
vt 0.271597 0.384761
vt 0.27647 0.384761
vt 0.271597 0.351568
vt 0.27647 0.35481
vt 0.271597 0.536099
vt 0.27647 0.536099
vt 0.271597 0.510023
vt 0.27647 0.510023
vt 0.271597 0.481827
vt 0.27647 0.481827
vt 0.271597 0.450808
vt 0.27647 0.450808
vt 0.271597 0.417447
vt 0.27647 0.417447
vt 0.271597 0.384761
vt 0.27647 0.384761
vt 0.271597 0.351568
vt 0.27647 0.35481
vt 0.255101 0.561267
vt 0.271597 0.561267
vt 0.271597 0.536099
vt 0.255101 0.536099
vt 0.271597 0.510023
vt 0.255101 0.510023
vt 0.271597 0.481827
vt 0.255101 0.481827
vt 0.271597 0.450808
vt 0.255101 0.450808
vt 0.271597 0.417447
vt 0.255101 0.417447
vt 0.271597 0.384761
vt 0.255101 0.384761
vt 0.264254 0.348038
vt 0.271597 0.351568
vt 0.255101 0.34464
vt 0.271597 0.536099
vt 0.255101 0.536099
vt 0.271597 0.510023
vt 0.255101 0.510023
vt 0.271597 0.481827
vt 0.255101 0.481827
vt 0.271597 0.450808
vt 0.255101 0.450808
vt 0.271597 0.417447
vt 0.255101 0.417447
vt 0.271597 0.384761
vt 0.255101 0.384761
vt 0.264254 0.348038
vt 0.271597 0.351568
vt 0.255101 0.34464
vt 0.237904 0.561267
vt 0.237904 0.536099
vt 0.232542 0.536099
vt 0.232542 0.561267
vt 0.232542 0.510023
vt 0.237904 0.510023
vt 0.232542 0.481827
vt 0.237904 0.481827
vt 0.232542 0.450808
vt 0.237904 0.450808
vt 0.232542 0.417447
vt 0.237904 0.417447
vt 0.232542 0.384761
vt 0.237904 0.384761
vt 0.232542 0.355411
vt 0.237904 0.351664
vt 0.232542 0.536099
vt 0.237904 0.536099
vt 0.232542 0.510023
vt 0.237904 0.510023
vt 0.232542 0.481827
vt 0.237904 0.481827
vt 0.232542 0.450808
vt 0.237904 0.450808
vt 0.232542 0.417447
vt 0.237904 0.417447
vt 0.232542 0.384761
vt 0.237904 0.384761
vt 0.232542 0.355411
vt 0.237904 0.351664
vt 0.237904 0.561267
vt 0.255101 0.561267
vt 0.255101 0.536099
vt 0.237904 0.536099
vt 0.255101 0.510023
vt 0.237904 0.510023
vt 0.255101 0.481827
vt 0.237904 0.481827
vt 0.237904 0.450808
vt 0.255101 0.450808
vt 0.237904 0.417447
vt 0.255101 0.417447
vt 0.237904 0.384761
vt 0.255101 0.384761
vt 0.245018 0.348143
vt 0.255101 0.34464
vt 0.237904 0.351664
vt 0.255101 0.536099
vt 0.237904 0.536099
vt 0.255101 0.510023
vt 0.237904 0.510023
vt 0.255101 0.481827
vt 0.237904 0.481827
vt 0.237904 0.450808
vt 0.255101 0.450808
vt 0.237904 0.417447
vt 0.255101 0.417447
vt 0.237904 0.384761
vt 0.255101 0.384761
vt 0.245018 0.348143
vt 0.255101 0.34464
vt 0.237904 0.351664
vn -0.4996139 -0.7946743 0.3447879
vn -0.2252465 -0.7768606 0.5880065
vn -0.2252074 -0.7768509 0.5880342
vn -0.4996133 -0.7946744 0.3447886
vn 0.1094885 -0.6356019 0.7642137
vn 0.1096083 -0.6355306 0.7642558
vn 0.4356678 -0.3798935 0.8160114
vn 0.4359911 -0.3795685 0.8159899
vn 0.6573795 -0.1029655 0.746492
vn 0.657588 -0.1026334 0.7463541
vn 0.7698874 0.1218225 0.6264445
vn 0.7699126 0.1218901 0.6264002
vn 0.8169215 0.3005939 0.4922221
vn 0.8168871 0.3003595 0.4924222
vn 0.8243516 0.3932474 0.4071865
vn 0.8243516 0.3932474 0.4071865
vn -0.707664 -0.7043177 0.05610857
vn -0.7076424 -0.7043362 0.05614759
vn -0.8266424 -0.4948632 -0.2679044
vn -0.8266616 -0.494771 -0.2680156
vn -0.8086103 -0.1928302 -0.5558471
vn -0.8085111 -0.1924715 -0.5561156
vn -0.679324 0.09799414 -0.7272661
vn -0.6791214 0.09832712 -0.7274104
vn -0.5188801 0.3155766 -0.7944651
vn -0.5188254 0.3156392 -0.7944761
vn -0.3576234 0.4771774 -0.8027498
vn -0.3578559 0.4769726 -0.8027679
vn -0.2606075 0.5563624 -0.789015
vn -0.2606075 0.5563624 -0.789015
vn 0.3921913 -0.4343734 0.8108673
vn 0.3921912 -0.4343734 0.8108672
vn 0.4178852 -0.4105608 0.8104393
vn 0.4171941 -0.4112142 0.810464
vn 0.4722911 -0.3567231 0.8060334
vn 0.4722911 -0.3567231 0.8060333
vn 0.4722979 -0.3567214 0.8060301
vn -0.8154886 -0.2528086 -0.5206402
vn -0.8093171 -0.2268196 -0.5418105
vn -0.8091314 -0.2260903 -0.5423924
vn -0.8154886 -0.2528086 -0.5206402
vn -0.7917631 -0.1666864 -0.5876452
vn -0.791763 -0.1666863 -0.5876452
vn -0.7917622 -0.1666896 -0.5876456
vn -0.5582491 0.5869636 0.5863715
vn -0.5593568 0.5851969 0.5870814
vn -0.5593816 0.5851575 0.5870971
vn -0.5582491 0.5869636 0.5863715
vn -0.5626853 0.5800343 0.5890208
vn -0.5628331 0.5798074 0.589103
vn -0.5677907 0.5720923 0.5918818
vn -0.5684577 0.57104 0.5922577
vn -0.5742682 0.5616052 0.595664
vn -0.5751546 0.5601231 0.596204
vn -0.5813067 0.5493852 0.6002153
vn -0.5815291 0.5489801 0.6003706
vn -0.5875524 0.5375156 0.6048629
vn -0.5868678 0.5388781 0.6043149
vn -0.5897937 0.5330227 0.6066549
vn -0.5897937 0.5330227 0.6066549
vn -0.5593272 0.585142 0.5871643
vn -0.5593041 0.5851814 0.587147
vn -0.5622603 0.5799703 0.5894894
vn -0.562388 0.5797402 0.5895938
vn -0.5666933 0.5719277 0.5930914
vn -0.567275 0.5708632 0.5935606
vn -0.5725154 0.5613451 0.5975932
vn -0.5733417 0.5598541 0.5981995
vn -0.5793943 0.5491006 0.6023212
vn -0.5796254 0.5486966 0.6024669
vn -0.5862398 0.537326 0.6063033
vn -0.5854424 0.5386701 0.605881
vn -0.588853 0.5328929 0.6076819
vn -0.5888529 0.5328928 0.6076819
vn 0.239006 0.9673023 -0.08486742
vn 0.2390057 0.9673023 -0.08486776
vn -0.01382288 0.954905 -0.2965894
vn -0.02137356 0.95328 -0.3013312
vn -0.334473 0.8313547 -0.4438213
vn -0.3426816 0.8267142 -0.4462207
vn -0.6460515 0.5908386 -0.4832465
vn -0.6476888 0.5891592 -0.4831052
vn -0.8477523 0.3302855 -0.4150031
vn -0.8493996 0.3275783 -0.4137787
vn -0.9462374 0.1390006 -0.2920849
vn -0.9503639 0.129526 -0.2828983
vn -0.9838234 0.03727622 -0.1752195
vn -0.9861603 0.02260898 -0.1642459
vn -0.9977033 -0.0405473 -0.05425829
vn -0.9320452 0.2273431 0.2821472
vn -0.9851517 -0.1153018 -0.127207
vn 0.4190196 0.8898287 0.1806302
vn 0.4226697 0.8865194 0.1882381
vn 0.513347 0.7038925 0.4909279
vn 0.5142137 0.6978888 0.4985334
vn 0.4867172 0.4205379 0.7656724
vn 0.4861779 0.4186927 0.7670251
vn 0.363016 0.1482575 0.9199125
vn 0.3612717 0.1455662 0.9210284
vn 0.2057422 -0.03418786 0.9780088
vn 0.1949789 -0.04266522 0.979879
vn 0.07293807 -0.1215975 0.989896
vn 0.05990792 -0.1346569 0.9890797
vn -0.05816622 -0.1817949 0.9816146
vn -0.3466271 0.1393369 0.9275963
vn 0.00499638 -0.2641567 0.9644669
vn 0.5546285 -0.5928353 -0.5838951
vn 0.553477 -0.5946293 -0.583163
vn 0.5535023 -0.5945904 -0.5831788
vn 0.5546284 -0.5928353 -0.5838951
vn 0.5499625 -0.5999093 -0.5810767
vn 0.5501134 -0.599686 -0.5811642
vn 0.5441303 -0.6084537 -0.5776732
vn 0.5448306 -0.6074361 -0.5780839
vn 0.5369734 -0.6188894 -0.5732672
vn 0.5379345 -0.617485 -0.5738804
vn 0.5299373 -0.6293367 -0.5684204
vn 0.5301868 -0.6289601 -0.5686045
vn 0.5238451 -0.638638 -0.5636734
vn 0.5230482 -0.6398795 -0.5630051
vn 0.5204151 -0.6439544 -0.5607948
vn 0.5204151 -0.6439543 -0.5607949
vn 0.5535622 -0.5946053 -0.5831068
vn 0.5535387 -0.5946445 -0.583089
vn 0.5504074 -0.5999793 -0.580583
vn 0.550539 -0.5997535 -0.5806915
vn 0.5453034 -0.6086249 -0.5763853
vn 0.5459177 -0.607595 -0.5768901
vn 0.53879 -0.6191562 -0.5712712
vn 0.5396887 -0.6177422 -0.5719535
vn 0.5318527 -0.6296228 -0.5663108
vn 0.5321108 -0.6292474 -0.5664855
vn 0.5252801 -0.6388488 -0.562097
vn 0.5243695 -0.6400716 -0.5615559
vn 0.5213628 -0.6440841 -0.5597647
vn 0.5213627 -0.6440841 -0.5597647
vn 0.664609 0.5255359 -0.5311373
vn 0.6646085 0.5255359 -0.5311378
vn 0.4134778 0.4998614 -0.7610352
vn 0.4205458 0.5020389 -0.7557103
vn 0.1111502 0.3494574 -0.9303361
vn 0.1192125 0.3548203 -0.9273031
vn -0.1872336 0.09965894 -0.977247
vn -0.1850022 0.1019702 -0.9774335
vn -0.3892897 -0.1595872 -0.9071854
vn -0.3912618 -0.1629865 -0.9057316
vn -0.472798 -0.3693068 -0.8000466
vn -0.4746824 -0.381562 -0.7931501
vn -0.478282 -0.5069252 -0.7171285
vn -0.4818309 -0.5203766 -0.7050157
vn -0.4573409 -0.6241398 -0.6334736
vn -0.5511658 -0.5858839 -0.5941013
vn -0.02912999 -0.7372876 -0.6749506
vn 0.8609297 0.4325892 -0.2677062
vn 0.8567285 0.4364606 -0.2748061
vn 0.9753458 0.2195354 0.02246729
vn 0.9739362 0.2263219 0.01505743
vn 0.9562509 -0.07225196 0.2834853
vn 0.9569826 -0.06971532 0.2816454
vn 0.8308957 -0.34303 0.4381126
vn 0.8287976 -0.3464089 0.4394262
vn 0.6882824 -0.5438627 0.480084
vn 0.6796408 -0.5551025 0.4795306
vn 0.5875177 -0.6671587 0.4579545
vn 0.5733998 -0.6790203 0.4584146
vn 0.4915801 -0.7668038 0.412748
vn 0.4479466 -0.7360957 0.5074514
vn 0.5628058 -0.8262883 -0.02229943
g Equip_Annulus_0
f 3/3/3 2/2/2 1/1/1
f 4/4/4 3/3/3 1/1/1
f 3/3/3 5/5/5 2/2/2
f 5/5/5 6/6/6 2/2/2
f 5/5/5 7/7/7 6/6/6
f 7/7/7 8/8/8 6/6/6
f 7/7/7 9/9/9 8/8/8
f 9/9/9 10/10/10 8/8/8
f 9/9/9 11/11/11 10/10/10
f 11/11/11 12/12/12 10/10/10
f 11/11/11 13/13/13 12/12/12
f 13/13/13 14/14/14 12/12/12
f 13/13/13 15/15/15 14/14/14
f 15/15/15 16/16/16 14/14/14
f 17/17/17 4/4/4 1/1/1
f 18/18/18 17/17/17 1/1/1
f 19/19/19 17/17/17 18/18/18
f 20/20/20 19/19/19 18/18/18
f 21/21/21 19/19/19 20/20/20
f 22/22/22 21/21/21 20/20/20
f 23/23/23 21/21/21 22/22/22
f 24/24/24 23/23/23 22/22/22
f 25/25/25 23/23/23 24/24/24
f 26/26/26 25/25/25 24/24/24
f 27/27/27 25/25/25 26/26/26
f 28/28/28 27/27/27 26/26/26
f 29/29/29 27/27/27 28/28/28
f 30/30/30 29/29/29 28/28/28
f 33/33/33 32/32/32 31/31/31
f 34/34/34 33/33/33 31/31/31
f 34/34/34 35/35/35 33/33/33
f 35/35/35 36/36/36 33/33/33
f 37/37/37 36/36/36 35/35/35
f 40/40/40 39/39/39 38/38/38
f 41/41/41 40/40/40 38/38/38
f 42/42/42 39/39/39 40/40/40
f 43/43/43 42/42/42 40/40/40
f 43/43/43 44/44/44 42/42/42
g Equip_Annulus_1
f 47/47/47 46/46/46 45/45/45
f 48/48/48 47/47/47 45/45/45
f 47/47/47 49/49/49 46/46/46
f 49/49/49 50/50/50 46/46/46
f 49/49/49 51/51/51 50/50/50
f 51/51/51 52/52/52 50/50/50
f 51/51/51 53/53/53 52/52/52
f 53/53/53 54/54/54 52/52/52
f 53/53/53 55/55/55 54/54/54
f 55/55/55 56/56/56 54/54/54
f 55/55/55 57/57/57 56/56/56
f 57/57/57 58/58/58 56/56/56
f 57/57/57 59/59/59 58/58/58
f 59/59/59 60/60/60 58/58/58
f 61/61/61 48/48/48 45/45/45
f 62/62/62 61/61/61 45/45/45
f 63/63/63 61/61/61 62/62/62
f 64/64/64 63/63/63 62/62/62
f 65/65/65 63/63/63 64/64/64
f 66/66/66 65/65/65 64/64/64
f 67/67/67 65/65/65 66/66/66
f 68/68/68 67/67/67 66/66/66
f 69/69/69 67/67/67 68/68/68
f 70/70/70 69/69/69 68/68/68
f 71/71/71 69/69/69 70/70/70
f 72/72/72 71/71/71 70/70/70
f 73/73/73 71/71/71 72/72/72
f 74/74/74 73/73/73 72/72/72
f 77/77/77 76/76/76 75/75/75
f 78/78/78 77/77/77 75/75/75
f 79/79/79 77/77/77 78/78/78
f 80/80/80 79/79/79 78/78/78
f 81/81/81 79/79/79 80/80/80
f 82/82/82 81/81/81 80/80/80
f 83/83/83 81/81/81 82/82/82
f 84/84/84 83/83/83 82/82/82
f 85/85/85 83/83/83 84/84/84
f 86/86/86 85/85/85 84/84/84
f 87/87/87 85/85/85 86/86/86
f 88/88/88 87/87/87 86/86/86
f 88/88/88 89/89/89 87/87/87
f 89/89/89 90/90/90 87/87/87
f 91/91/91 89/89/89 88/88/88
f 76/76/76 92/92/92 75/75/75
f 92/92/92 93/93/93 75/75/75
f 92/92/92 94/94/94 93/93/93
f 94/94/94 95/95/95 93/93/93
f 94/94/94 96/96/96 95/95/95
f 96/96/96 97/97/97 95/95/95
f 96/96/96 98/98/98 97/97/97
f 98/98/98 99/99/99 97/97/97
f 98/98/98 100/100/100 99/99/99
f 100/100/100 101/101/101 99/99/99
f 100/100/100 102/102/102 101/101/101
f 102/102/102 103/103/103 101/101/101
f 104/104/104 103/103/103 102/102/102
f 105/105/105 104/104/104 102/102/102
f 104/104/104 106/106/106 103/103/103
f 109/109/109 108/108/108 107/107/107
f 110/110/110 109/109/109 107/107/107
f 109/109/109 111/111/111 108/108/108
f 111/111/111 112/112/112 108/108/108
f 111/111/111 113/113/113 112/112/112
f 113/113/113 114/114/114 112/112/112
f 113/113/113 115/115/115 114/114/114
f 115/115/115 116/116/116 114/114/114
f 115/115/115 117/117/117 116/116/116
f 117/117/117 118/118/118 116/116/116
f 117/117/117 119/119/119 118/118/118
f 119/119/119 120/120/120 118/118/118
f 119/119/119 121/121/121 120/120/120
f 121/121/121 122/122/122 120/120/120
f 123/123/123 110/110/110 107/107/107
f 124/124/124 123/123/123 107/107/107
f 125/125/125 123/123/123 124/124/124
f 126/126/126 125/125/125 124/124/124
f 127/127/127 125/125/125 126/126/126
f 128/128/128 127/127/127 126/126/126
f 129/129/129 127/127/127 128/128/128
f 130/130/130 129/129/129 128/128/128
f 131/131/131 129/129/129 130/130/130
f 132/132/132 131/131/131 130/130/130
f 133/133/133 131/131/131 132/132/132
f 134/134/134 133/133/133 132/132/132
f 135/135/135 133/133/133 134/134/134
f 136/136/136 135/135/135 134/134/134
f 139/139/139 138/138/138 137/137/137
f 140/140/140 139/139/139 137/137/137
f 141/141/141 139/139/139 140/140/140
f 142/142/142 141/141/141 140/140/140
f 143/143/143 141/141/141 142/142/142
f 144/144/144 143/143/143 142/142/142
f 144/144/144 145/145/145 143/143/143
f 145/145/145 146/146/146 143/143/143
f 145/145/145 147/147/147 146/146/146
f 147/147/147 148/148/148 146/146/146
f 147/147/147 149/149/149 148/148/148
f 149/149/149 150/150/150 148/148/148
f 149/149/149 151/151/151 150/150/150
f 151/151/151 152/152/152 150/150/150
f 153/153/153 151/151/151 149/149/149
f 138/138/138 154/154/154 137/137/137
f 154/154/154 155/155/155 137/137/137
f 154/154/154 156/156/156 155/155/155
f 156/156/156 157/157/157 155/155/155
f 156/156/156 158/158/158 157/157/157
f 158/158/158 159/159/159 157/157/157
f 160/160/160 159/159/159 158/158/158
f 161/161/161 160/160/160 158/158/158
f 162/162/162 160/160/160 161/161/161
f 163/163/163 162/162/162 161/161/161
f 164/164/164 162/162/162 163/163/163
f 165/165/165 164/164/164 163/163/163
f 166/166/166 164/164/164 165/165/165
f 167/167/167 166/166/166 165/165/165
f 166/166/166 168/168/168 164/164/164
