g EventItem_Cube_06_I
v -0.04914192 -0.04914192 0.04373065
v -0.04914192 0.04914192 0.04373065
v 0.04914188 0.04914192 0.04373065
v 0.04914188 -0.04914192 0.04373065
v -0.04914192 0.04914192 0.04373065
v -0.04914192 0.04914192 -0.04373066
v 0.04914188 0.04914192 -0.04373066
v 0.04914188 0.04914192 0.04373065
v -0.04914192 0.04914192 -0.04373066
v -0.04914192 -0.04914192 -0.04373066
v 0.04914188 -0.04914192 -0.04373066
v 0.04914188 0.04914192 -0.04373066
v -0.04914192 -0.04914192 -0.04373066
v -0.04914192 -0.04914192 0.04373065
v 0.04914188 -0.04914192 0.04373065
v 0.04914188 -0.04914192 -0.04373066
v 0.04914188 -0.04914192 0.04373065
v 0.04914188 0.04914192 0.04373065
v 0.04914188 0.04914192 -0.04373066
v 0.04914188 -0.04914192 -0.04373066
v -0.04914192 -0.04914192 -0.04373066
v -0.04914192 0.04914192 -0.04373066
v -0.04914192 0.04914192 0.04373065
v -0.04914192 -0.04914192 0.04373065
vt 0.4979619 0.5014265
vt 0.4979619 0.9738637
vt 0.9780026 0.9738637
vt 0.9780026 0.5014266
vt 0.02215922 0.5014265
vt 0.02215922 0.9738637
vt 0.4979619 0.9738637
vt 0.4979619 0.5014265
vt 0.02215922 0.5014265
vt 0.02215922 0.02430135
vt 0.4979619 0.02430132
vt 0.4979619 0.5014265
vt 0.4979619 0.5014265
vt 0.4979619 0.9738637
vt 0.9780027 0.9738637
vt 0.9780025 0.5014266
vt 0.4979619 0.02430132
vt 0.4979619 0.5014265
vt 0.9780026 0.5014265
vt 0.9780026 0.02430132
vt 0.4979619 0.02430132
vt 0.4979619 0.5014265
vt 0.02215922 0.5014265
vt 0.02215922 0.02430132
vn 0 0 1
vn 0 0 1
vn 0 0 1
vn 0 0 1
vn 0 1 0
vn 0 1 0
vn 0 1 0
vn 0 1 0
vn 0 0 -1
vn 0 0 -1
vn 0 0 -1
vn 0 0 -1
vn 0 -1 0
vn 0 -1 0
vn 0 -1 0
vn 0 -1 0
vn 1 0 0
vn 1 0 0
vn 1 0 0
vn 1 0 0
vn -1 0 0
vn -1 0 0
vn -1 0 0
vn -1 0 0
g EventItem_Cube_06_I_0
f 3/3/3 2/2/2 1/1/1
f 4/4/4 3/3/3 1/1/1
f 7/7/7 6/6/6 5/5/5
f 8/8/8 7/7/7 5/5/5
f 11/11/11 10/10/10 9/9/9
f 12/12/12 11/11/11 9/9/9
f 15/15/15 14/14/14 13/13/13
f 16/16/16 15/15/15 13/13/13
f 19/19/19 18/18/18 17/17/17
f 20/20/20 19/19/19 17/17/17
f 23/23/23 22/22/22 21/21/21
f 24/24/24 23/23/23 21/21/21
