g Eye_L
v 0 0.1545702 0.1123018
v 0.02303648 0.153869 0.110144
v 0.02303648 0.1180811 0.1158122
v 0 0.1180811 0.1180811
v 0.02303648 0.08229317 0.110144
v 0 0.08159205 0.1123018
v 0.04518768 0.1180811 0.1090927
v 0.04518768 0.1517926 0.1037534
v 0.04518768 0.0843696 0.1037534
v 0.06560234 0.1180811 0.09818085
v 0.06560234 0.1484207 0.09337555
v 0.06560234 0.08774155 0.09337555
v 0.08349594 0.1180811 0.08349594
v 0.08349594 0.1438828 0.07940933
v 0.08349594 0.09227943 0.07940933
vt -0.005194902 1.01867
vt 0.2126092 1.019257
vt 0.2126092 0.5009671
vt -0.005194902 0.5009674
vt 0.2126092 -0.01731837
vt -0.005194902 -0.01673198
vt 0.4681504 0.5009701
vt 0.4681504 1.005776
vt 0.4681504 -0.003845215
vt 0.7341644 0.5009654
vt 0.7341644 0.9902229
vt 0.7341644 0.01171845
vt 1.00229 0.5009715
vt 1.00229 0.9716654
vt 1.00229 0.03026304
vn -1.16829E-07 0.309017 0.9510565
vn 0.1913109 0.3033092 0.9334901
vn 0.1913118 0 0.9815293
vn -1.509042E-07 0 1
vn 0.1913117 -0.3033092 0.9334899
vn 0 -0.3090171 0.9510565
vn 0.375486 0 0.9268281
vn 0.3754859 0.2864055 0.881466
vn 0.3754858 -0.2864056 0.881466
vn 0.5456257 0 0.838029
vn 0.5351425 0.247871 0.8075781
vn 0.5456259 -0.2589652 0.7970127
vn 0.6953084 0 0.7187114
vn 0.7049842 0.1994176 0.6806101
vn 0.6953087 -0.2220941 0.6835349
g Eye_L_0
f 3/3/3 2/2/2 1/1/1
f 4/4/4 3/3/3 1/1/1
f 5/5/5 3/3/3 4/4/4
f 6/6/6 5/5/5 4/4/4
f 3/3/3 7/7/7 2/2/2
f 7/7/7 8/8/8 2/2/2
f 9/9/9 7/7/7 3/3/3
f 5/5/5 9/9/9 3/3/3
f 7/7/7 10/10/10 8/8/8
f 10/10/10 11/11/11 8/8/8
f 12/12/12 10/10/10 7/7/7
f 9/9/9 12/12/12 7/7/7
f 10/10/10 13/13/13 11/11/11
f 13/13/13 14/14/14 11/11/11
f 15/15/15 13/13/13 10/10/10
f 12/12/12 15/15/15 10/10/10
