g Eye_R
v -0.06451945 1.500412 0.05272299
v -0.06492906 1.482178 0.05191934
v -0.07100844 1.480802 0.03591568
v -0.07191546 1.498063 0.03691735
v -0.07694209 1.477151 0.01811529
v -0.07191546 1.498063 0.03691735
v -0.079037 1.494092 0.01731014
v -0.03672151 1.430308 0.06741699
v -0.03778638 1.437285 0.06417585
v -0.0266064 1.439824 0.06661031
v -0.02543487 1.431764 0.07106342
v -0.03711042 1.45561 0.06828492
v -0.0266064 1.439824 0.06661031
v -0.03711042 1.45561 0.06828492
v -0.02069692 1.447706 0.06938426
v -0.01952531 1.456256 0.07066803
v -0.03718887 1.468638 0.0705492
v -0.03778638 1.437285 0.06417585
v -0.05077829 1.454599 0.06123041
v -0.04793099 1.438074 0.06009217
v -0.04741333 1.429537 0.06269177
v -0.03672151 1.430308 0.06741699
v -0.05253622 1.467443 0.06199506
v -0.03718887 1.468638 0.0705492
v -0.03896928 1.482864 0.0807876
v -0.05375411 1.482682 0.0670834
v -0.05165433 1.501468 0.06890778
v -0.04741333 1.429537 0.06269177
v -0.05490849 1.429161 0.05419487
v -0.05482078 1.44028 0.05421441
v -0.06198848 1.432002 0.04049209
v -0.06249231 1.44329 0.04466661
v -0.06617559 1.440857 0.02884031
v -0.06094561 1.454489 0.05078837
v -0.06249231 1.44329 0.04466661
v -0.06749209 1.454002 0.04050233
v -0.06401763 1.466631 0.04975735
v -0.06959309 1.465083 0.03556298
v -0.07100844 1.480802 0.03591568
v -0.06401763 1.466631 0.04975735
v -0.06492906 1.482178 0.05191934
v -0.06959309 1.465083 0.03556298
v -0.07694209 1.477151 0.01811529
v -0.07291184 1.462857 0.01891538
v -0.06094561 1.454489 0.05078837
v -0.05077829 1.454599 0.06123041
v -0.05253622 1.467443 0.06199506
v -0.06492906 1.482178 0.05191934
v -0.06451945 1.500412 0.05272299
v -0.04793099 1.438074 0.06009217
v -0.07010638 1.452055 0.02246728
v -0.07291184 1.462857 0.01891538
v -0.06749209 1.454002 0.04050233
v -0.06617559 1.440857 0.02884031
v -0.07010638 1.452055 0.02246728
v -0.02183016 1.468569 0.07860309
v -0.01300897 1.46843 0.08515259
v -0.01037659 1.454717 0.07862943
v -0.01952531 1.456256 0.07066803
v -0.02069692 1.447706 0.06938426
v -0.01037659 1.454717 0.07862943
v -0.008754425 1.443991 0.07732292
v -0.01751107 1.440992 0.07164332
v -0.01619676 1.482629 0.08888528
v -0.02183016 1.468569 0.07860309
v -0.01800236 1.502463 0.08920799
v -0.01619676 1.482629 0.08888528
v -0.03857048 1.502077 0.07989535
v -0.02183016 1.468569 0.07860309
v -0.03718887 1.468638 0.0705492
v -0.01952531 1.456256 0.07066803
v -0.05165433 1.501468 0.06890778
v -0.03857048 1.502077 0.07989535
v -0.05375411 1.482682 0.0670834
v -0.06451945 1.500412 0.05272299
v -0.008754425 1.443991 0.07732292
v -0.008396149 1.434964 0.0781775
v -0.01603623 1.433293 0.07396296
v -0.01751107 1.440992 0.07164332
v -0.0266064 1.439824 0.06661031
v -0.01751107 1.440992 0.07164332
v -0.01603623 1.433293 0.07396296
v -0.02543487 1.431764 0.07106342
v -0.0266064 1.439824 0.06661031
v -0.02069692 1.447706 0.06938426
v -0.01751107 1.440992 0.07164332
vt 0.3513374 0.8207043
vt 0.36527 0.6654294
vt 0.2224967 0.6277707
vt 0.173376 0.7562605
vt 0.08328208 0.5711417
vt 0.173376 0.7562605
vt 0.01244818 0.6953912
vt 0.6717303 0.1282195
vt 0.6672498 0.1930059
vt 0.7820336 0.2091765
vt 0.8056959 0.1502893
vt 0.6736836 0.3824587
vt 0.7820336 0.2091765
vt 0.6736836 0.3824587
vt 0.8518524 0.2973196
vt 0.863009 0.3887682
vt 0.6748993 0.5184669
vt 0.6672498 0.1930059
vt 0.526688 0.3652703
vt 0.5621289 0.1977985
vt 0.5770547 0.107191
vt 0.6717303 0.1282195
vt 0.5082577 0.5092355
vt 0.6748993 0.5184669
vt 0.67149 0.6772801
vt 0.5025157 0.6718168
vt 0.5057126 0.8441751
vt 0.5770547 0.107191
vt 0.4842853 0.09382369
vt 0.4824025 0.2234668
vt 0.3886823 0.1238714
vt 0.3859102 0.2541275
vt 0.2925823 0.2142757
vt 0.410982 0.3628144
vt 0.3859102 0.2541275
vt 0.3339088 0.3623237
vt 0.3952142 0.5002035
vt 0.2922469 0.4811216
vt 0.2224967 0.6277707
vt 0.3952142 0.5002035
vt 0.36527 0.6654294
vt 0.2922469 0.4811216
vt 0.08328208 0.5711417
vt 0.1361384 0.4334222
vt 0.410982 0.3628144
vt 0.526688 0.3652703
vt 0.5082577 0.5092355
vt 0.36527 0.6654294
vt 0.3513374 0.8207043
vt 0.5621289 0.1977985
vt 0.1987872 0.3101331
vt 0.1361384 0.4334222
vt 0.3339088 0.3623237
vt 0.2925823 0.2142757
vt 0.1987872 0.3101331
vt 0.8355315 0.5231124
vt 0.9604598 0.502856
vt 0.9672163 0.3691928
vt 0.863009 0.3887682
vt 0.8518524 0.2973196
vt 0.9672163 0.3691928
vt 0.9890708 0.2592743
vt 0.8890936 0.2426095
vt 0.8971403 0.6682755
vt 0.8355315 0.5231124
vt 0.9014979 0.8617709
vt 0.8971403 0.6682755
vt 0.6586293 0.8624407
vt 0.8355315 0.5231124
vt 0.6748993 0.5184669
vt 0.863009 0.3887682
vt 0.5057126 0.8441751
vt 0.6586293 0.8624407
vt 0.5025157 0.6718168
vt 0.3513374 0.8207043
vt 0.9890708 0.2592743
vt 0.9840148 0.1747539
vt 0.9017805 0.1725308
vt 0.8890936 0.2426095
vt 0.7820336 0.2091765
vt 0.8890936 0.2426095
vt 0.9017805 0.1725308
vt 0.8056959 0.1502893
vt 0.7820336 0.2091765
vt 0.8518524 0.2973196
vt 0.8890936 0.2426095
vn -0.8576481 -0.009805394 0.5141435
vn -0.8587244 -0.08733491 0.5049406
vn -0.932662 -0.09445407 0.3481668
vn -0.9267016 -0.05528591 0.3717089
vn -0.9415076 -0.1279212 0.3117684
vn -0.9267016 -0.05528591 0.3717089
vn -0.935357 -0.08407077 0.3435685
vn -0.3348807 0.3527614 0.8737358
vn -0.3386759 0.1068707 0.934814
vn -0.3090133 0.09552842 0.9462479
vn -0.3647051 0.3453175 0.8647231
vn -0.2923713 -0.1655854 0.9418601
vn -0.3090133 0.09552842 0.9462479
vn -0.2923713 -0.1655854 0.9418601
vn -0.403323 -0.09495582 0.9101175
vn -0.4449416 -0.2675135 0.8546716
vn -0.3685527 -0.4238127 0.8273764
vn -0.3386759 0.1068707 0.934814
vn -0.5803456 -0.1461172 0.8011547
vn -0.5695541 0.01280048 0.8218542
vn -0.5298794 0.2022843 0.8235951
vn -0.3348807 0.3527614 0.8737358
vn -0.6333861 -0.2219853 0.7413127
vn -0.3685527 -0.4238127 0.8273764
vn -0.500398 -0.2349946 0.8332943
vn -0.7268167 -0.1203377 0.6762073
vn -0.718384 0.02681584 0.6951298
vn -0.5298794 0.2022843 0.8235951
vn -0.7997391 0.04430965 0.5987103
vn -0.7669125 -0.09371357 0.6348723
vn -0.9087436 -0.1330927 0.3955646
vn -0.8716357 -0.2161665 0.4399129
vn -0.9455329 -0.2395279 0.2204406
vn -0.7859344 -0.1436368 0.6013947
vn -0.8716357 -0.2161665 0.4399129
vn -0.9207103 -0.1776144 0.3474848
vn -0.8399824 -0.1270806 0.5275226
vn -0.9430353 -0.1292253 0.30657
vn -0.932662 -0.09445407 0.3481668
vn -0.8399824 -0.1270806 0.5275226
vn -0.8587244 -0.08733491 0.5049406
vn -0.9430353 -0.1292253 0.30657
vn -0.9415076 -0.1279212 0.3117684
vn -0.9586445 -0.1578146 0.2368445
vn -0.7859344 -0.1436368 0.6013947
vn -0.5803456 -0.1461172 0.8011547
vn -0.6333861 -0.2219853 0.7413127
vn -0.8587244 -0.08733491 0.5049406
vn -0.8576481 -0.009805394 0.5141435
vn -0.5695541 0.01280048 0.8218542
vn -0.9605222 -0.1987941 0.1946227
vn -0.9586445 -0.1578146 0.2368445
vn -0.9207103 -0.1776144 0.3474848
vn -0.9455329 -0.2395279 0.2204406
vn -0.9605222 -0.1987941 0.1946227
vn -0.4420772 -0.4981047 0.7459622
vn -0.4817217 -0.4623381 0.7444379
vn -0.6052604 -0.2787084 0.7456416
vn -0.4449416 -0.2675135 0.8546716
vn -0.403323 -0.09495582 0.9101175
vn -0.6052604 -0.2787084 0.7456416
vn -0.5605122 -0.02079775 0.8278849
vn -0.5111087 0.08834033 0.8549643
vn -0.3877484 -0.2417872 0.8894887
vn -0.4420772 -0.4981047 0.7459622
vn -0.3727576 0.0001048409 0.9279287
vn -0.3877484 -0.2417872 0.8894887
vn -0.513179 0.02448448 0.8579323
vn -0.4420772 -0.4981047 0.7459622
vn -0.3685527 -0.4238127 0.8273764
vn -0.4449416 -0.2675135 0.8546716
vn -0.718384 0.02681584 0.6951298
vn -0.513179 0.02448448 0.8579323
vn -0.7268167 -0.1203377 0.6762073
vn -0.8576481 -0.009805394 0.5141435
vn -0.5605122 -0.02079775 0.8278849
vn -0.5348737 0.100583 0.8389239
vn -0.4813887 0.1947502 0.8545977
vn -0.5111087 0.08834033 0.8549643
vn -0.3090133 0.09552842 0.9462479
vn -0.5111087 0.08834033 0.8549643
vn -0.4813887 0.1947502 0.8545977
vn -0.3647051 0.3453175 0.8647231
vn -0.3090133 0.09552842 0.9462479
vn -0.403323 -0.09495582 0.9101175
vn -0.5111087 0.08834033 0.8549643
g Eye_R_0
f 3/3/3 2/2/2 1/1/1
f 4/4/4 3/3/3 1/1/1
f 3/3/3 6/6/6 5/5/5
f 6/6/6 7/7/7 5/5/5
f 10/10/10 9/9/9 8/8/8
f 11/11/11 10/10/10 8/8/8
f 9/9/9 13/13/13 12/12/12
f 10/10/10 15/15/15 14/14/14
f 15/15/15 16/16/16 14/14/14
f 17/17/17 14/14/14 16/16/16
f 14/14/14 19/19/19 18/18/18
f 19/19/19 20/20/20 18/18/18
f 20/20/20 21/21/21 18/18/18
f 21/21/21 22/22/22 18/18/18
f 19/19/19 12/12/12 23/23/23
f 12/12/12 24/24/24 23/23/23
f 23/23/23 24/24/24 25/25/25
f 25/25/25 26/26/26 23/23/23
f 27/27/27 26/26/26 25/25/25
f 29/29/29 28/28/28 20/20/20
f 30/30/30 29/29/29 20/20/20
f 30/30/30 31/31/31 29/29/29
f 30/30/30 32/32/32 31/31/31
f 32/32/32 33/33/33 31/31/31
f 35/35/35 30/30/30 34/34/34
f 36/36/36 35/35/35 34/34/34
f 34/34/34 37/37/37 36/36/36
f 37/37/37 38/38/38 36/36/36
f 38/38/38 40/40/40 39/39/39
f 40/40/40 41/41/41 39/39/39
f 39/39/39 43/43/43 42/42/42
f 43/43/43 44/44/44 42/42/42
f 46/46/46 45/45/45 30/30/30
f 47/47/47 37/37/37 45/45/45
f 46/46/46 47/47/47 45/45/45
f 40/40/40 47/47/47 48/48/48
f 47/47/47 26/26/26 48/48/48
f 49/49/49 48/48/48 26/26/26
f 50/50/50 46/46/46 30/30/30
f 42/42/42 52/52/52 51/51/51
f 53/53/53 42/42/42 51/51/51
f 53/53/53 55/55/55 54/54/54
f 32/32/32 53/53/53 54/54/54
f 58/58/58 57/57/57 56/56/56
f 59/59/59 58/58/58 56/56/56
f 61/61/61 59/59/59 60/60/60
f 62/62/62 61/61/61 60/60/60
f 63/63/63 62/62/62 60/60/60
f 65/65/65 57/57/57 64/64/64
f 25/25/25 65/65/65 64/64/64
f 25/25/25 67/67/67 66/66/66
f 68/68/68 25/25/25 66/66/66
f 70/70/70 69/69/69 25/25/25
f 71/71/71 69/69/69 70/70/70
f 73/73/73 72/72/72 25/25/25
f 72/72/72 75/75/75 74/74/74
f 78/78/78 77/77/77 76/76/76
f 79/79/79 78/78/78 76/76/76
f 82/82/82 81/81/81 80/80/80
f 83/83/83 82/82/82 80/80/80
f 86/86/86 85/85/85 84/84/84
