g Eye_L
v 0.06451946 1.500412 0.05272299
v 0.07191547 1.498063 0.03691735
v 0.07100845 1.480802 0.03591568
v 0.06492905 1.482178 0.05191934
v 0.0769421 1.477151 0.01811529
v 0.07191547 1.498063 0.03691735
v 0.079037 1.494092 0.01731014
v 0.03718887 1.468638 0.0705492
v 0.01952531 1.456256 0.07066803
v 0.02183016 1.468569 0.07860308
v 0.03896927 1.482864 0.0807876
v 0.01800235 1.502463 0.08920799
v 0.03857048 1.502077 0.07989535
v 0.01619676 1.482629 0.08888528
v 0.01619676 1.482629 0.08888528
v 0.02183016 1.468569 0.07860308
v 0.01300896 1.46843 0.08515259
v 0.02183016 1.468569 0.07860308
v 0.01037658 1.454717 0.07862943
v 0.01952531 1.456256 0.07066803
v 0.02069691 1.447706 0.06938427
v 0.01037658 1.454717 0.07862943
v 0.008754425 1.443991 0.07732292
v 0.01751106 1.440992 0.0716433
v 0.03857048 1.502077 0.07989535
v 0.05165432 1.501468 0.06890777
v 0.06451946 1.500412 0.05272299
v 0.05375412 1.482682 0.0670834
v 0.03672151 1.430308 0.06741699
v 0.02543487 1.431764 0.07106343
v 0.02660639 1.439824 0.06661031
v 0.03778639 1.437285 0.06417585
v 0.0371104 1.45561 0.06828492
v 0.02660639 1.439824 0.06661031
v 0.05253624 1.467443 0.06199506
v 0.0507783 1.454599 0.06123041
v 0.03718887 1.468638 0.0705492
v 0.05375412 1.482682 0.0670834
v 0.05165432 1.501468 0.06890777
v 0.06492905 1.482178 0.05191934
v 0.05253624 1.467443 0.06199506
v 0.06401764 1.466631 0.04975735
v 0.06451946 1.500412 0.05272299
v 0.07100845 1.480802 0.03591568
v 0.06959309 1.465083 0.03556298
v 0.06492905 1.482178 0.05191934
v 0.03778639 1.437285 0.06417585
v 0.0371104 1.45561 0.06828492
v 0.04793099 1.438074 0.06009217
v 0.04741333 1.429537 0.06269177
v 0.03672151 1.430308 0.06741699
v 0.01952531 1.456256 0.07066803
v 0.03718887 1.468638 0.0705492
v 0.02069691 1.447706 0.06938427
v 0.05482078 1.44028 0.05421441
v 0.05490848 1.429161 0.05419486
v 0.04741333 1.429537 0.06269177
v 0.06198848 1.432002 0.0404921
v 0.06249229 1.44329 0.04466662
v 0.06617557 1.440857 0.02884031
v 0.06094562 1.454489 0.05078838
v 0.06249229 1.44329 0.04466662
v 0.06749211 1.454002 0.04050233
v 0.06401764 1.466631 0.04975735
v 0.06094562 1.454489 0.05078838
v 0.0507783 1.454599 0.06123041
v 0.04793099 1.438074 0.06009217
v 0.06617557 1.440857 0.02884031
v 0.06749211 1.454002 0.04050233
v 0.07010639 1.452055 0.02246728
v 0.07010639 1.452055 0.02246728
v 0.06959309 1.465083 0.03556298
v 0.07291184 1.462857 0.01891539
v 0.0769421 1.477151 0.01811529
v 0.07291184 1.462857 0.01891539
v 0.008754425 1.443991 0.07732292
v 0.01751106 1.440992 0.0716433
v 0.01603622 1.433293 0.07396296
v 0.008396149 1.434964 0.0781775
v 0.02660639 1.439824 0.06661031
v 0.02543487 1.431764 0.07106343
v 0.01603622 1.433293 0.07396296
v 0.01751106 1.440992 0.0716433
v 0.02660639 1.439824 0.06661031
v 0.01751106 1.440992 0.0716433
v 0.02069691 1.447706 0.06938427
vt 0.6476284 0.8175493
vt 0.8247041 0.7534266
vt 0.7758279 0.6255763
vt 0.6337653 0.6630471
vt 0.9143496 0.569229
vt 0.8247041 0.7534266
vt 0.9848308 0.6928598
vt 0.325677 0.5168165
vt 0.1385034 0.3877631
vt 0.1658443 0.5214387
vt 0.3290693 0.6748391
vt 0.1002063 0.8584116
vt 0.3418659 0.8590778
vt 0.1045423 0.6658792
vt 0.1045423 0.6658792
vt 0.1658443 0.5214387
vt 0.0415379 0.501283
vt 0.1658443 0.5214387
vt 0.03481499 0.3682851
vt 0.1385034 0.3877631
vt 0.1496046 0.2967697
vt 0.03481499 0.3682851
vt 0.01306915 0.2589137
vt 0.1125488 0.2423318
vt 0.3418659 0.8590778
vt 0.4940216 0.8409031
vt 0.6476284 0.8175493
vt 0.4972025 0.669403
vt 0.3288302 0.1285112
vt 0.1955314 0.1504712
vt 0.2190759 0.2090653
vt 0.3332883 0.1929751
vt 0.3268866 0.381485
vt 0.2190759 0.2090653
vt 0.4914892 0.5076311
vt 0.4731506 0.364382
vt 0.325677 0.5168165
vt 0.4972025 0.669403
vt 0.4940216 0.8409031
vt 0.6337653 0.6630471
vt 0.4914892 0.5076311
vt 0.60397 0.4986437
vt 0.6476284 0.8175493
vt 0.7758279 0.6255763
vt 0.7064248 0.4796567
vt 0.6337653 0.6630471
vt 0.3332883 0.1929751
vt 0.3268866 0.381485
vt 0.437886 0.1977439
vt 0.4230345 0.1075875
vt 0.3288302 0.1285112
vt 0.1385034 0.3877631
vt 0.325677 0.5168165
vt 0.1496046 0.2967697
vt 0.5172157 0.2232844
vt 0.5153422 0.09428664
vt 0.4230345 0.1075875
vt 0.6104694 0.1241847
vt 0.6132278 0.2537926
vt 0.7060911 0.214139
vt 0.5882806 0.3619385
vt 0.6132278 0.2537926
vt 0.6649703 0.3614503
vt 0.60397 0.4986437
vt 0.5882806 0.3619385
vt 0.4731506 0.364382
vt 0.437886 0.1977439
vt 0.7060911 0.214139
vt 0.6649703 0.3614503
vt 0.7994193 0.3095195
vt 0.7994193 0.3095195
vt 0.7064248 0.4796567
vt 0.8617561 0.4321948
vt 0.9143496 0.569229
vt 0.8617561 0.4321948
vt 0.01306915 0.2589137
vt 0.1125488 0.2423318
vt 0.09992505 0.172602
vt 0.01809997 0.1748141
vt 0.2190759 0.2090653
vt 0.1955314 0.1504712
vt 0.09992505 0.172602
vt 0.1125488 0.2423318
vt 0.2190759 0.2090653
vt 0.1125488 0.2423318
vt 0.1496046 0.2967697
vn 0.857648 -0.009805929 0.5141437
vn 0.9267016 -0.05528642 0.3717091
vn 0.9326619 -0.09445431 0.3481669
vn 0.8587244 -0.08733519 0.5049405
vn 0.9415076 -0.1279214 0.3117684
vn 0.9267016 -0.05528642 0.3717091
vn 0.9353571 -0.08407079 0.3435683
vn 0.3685525 -0.4238126 0.8273765
vn 0.4449413 -0.2675133 0.8546718
vn 0.442077 -0.4981047 0.7459622
vn 0.5003979 -0.2349945 0.8332943
vn 0.3727576 0.0001048376 0.9279288
vn 0.5131792 0.02448433 0.8579322
vn 0.3877484 -0.2417873 0.8894887
vn 0.3877484 -0.2417873 0.8894887
vn 0.442077 -0.4981047 0.7459622
vn 0.4817217 -0.4623381 0.7444378
vn 0.442077 -0.4981047 0.7459622
vn 0.6052602 -0.2787086 0.7456417
vn 0.4449413 -0.2675133 0.8546718
vn 0.4033237 -0.09495612 0.9101172
vn 0.6052602 -0.2787086 0.7456417
vn 0.5605128 -0.02079788 0.8278846
vn 0.5111077 0.08834062 0.8549648
vn 0.5131792 0.02448433 0.8579322
vn 0.7183836 0.02681631 0.6951301
vn 0.857648 -0.009805929 0.5141437
vn 0.7268166 -0.1203374 0.6762075
vn 0.3348821 0.3527593 0.8737361
vn 0.3647044 0.3453158 0.8647241
vn 0.3090123 0.09552446 0.9462487
vn 0.3386761 0.1068709 0.934814
vn 0.2923707 -0.1655858 0.9418603
vn 0.3090123 0.09552446 0.9462487
vn 0.6333861 -0.2219852 0.7413127
vn 0.5803453 -0.1461173 0.8011549
vn 0.3685525 -0.4238126 0.8273765
vn 0.7268166 -0.1203374 0.6762075
vn 0.7183836 0.02681631 0.6951301
vn 0.8587244 -0.08733519 0.5049405
vn 0.6333861 -0.2219852 0.7413127
vn 0.8399826 -0.1270801 0.5275224
vn 0.857648 -0.009805929 0.5141437
vn 0.9326619 -0.09445431 0.3481669
vn 0.9430354 -0.1292248 0.3065701
vn 0.8587244 -0.08733519 0.5049405
vn 0.3386761 0.1068709 0.934814
vn 0.2923707 -0.1655858 0.9418603
vn 0.5695541 0.01280003 0.8218542
vn 0.5298796 0.2022837 0.8235952
vn 0.3348821 0.3527593 0.8737361
vn 0.4449413 -0.2675133 0.8546718
vn 0.3685525 -0.4238126 0.8273765
vn 0.4033237 -0.09495612 0.9101172
vn 0.7669125 -0.09371416 0.6348724
vn 0.7997389 0.04430838 0.5987107
vn 0.5298796 0.2022837 0.8235952
vn 0.9087439 -0.1330914 0.3955642
vn 0.8716359 -0.2161666 0.4399124
vn 0.9455326 -0.2395288 0.2204407
vn 0.7859346 -0.1436372 0.6013943
vn 0.8716359 -0.2161666 0.4399124
vn 0.9207104 -0.1776147 0.3474844
vn 0.8399826 -0.1270801 0.5275224
vn 0.7859346 -0.1436372 0.6013943
vn 0.5803453 -0.1461173 0.8011549
vn 0.5695541 0.01280003 0.8218542
vn 0.9455326 -0.2395288 0.2204407
vn 0.9207104 -0.1776147 0.3474844
vn 0.9605221 -0.1987941 0.1946229
vn 0.9605221 -0.1987941 0.1946229
vn 0.9430354 -0.1292248 0.3065701
vn 0.9586445 -0.1578142 0.2368447
vn 0.9415076 -0.1279214 0.3117684
vn 0.9586445 -0.1578142 0.2368447
vn 0.5605128 -0.02079788 0.8278846
vn 0.5111077 0.08834062 0.8549648
vn 0.4813877 0.1947502 0.8545983
vn 0.5348746 0.1005833 0.8389233
vn 0.3090123 0.09552446 0.9462487
vn 0.3647044 0.3453158 0.8647241
vn 0.4813877 0.1947502 0.8545983
vn 0.5111077 0.08834062 0.8549648
vn 0.3090123 0.09552446 0.9462487
vn 0.5111077 0.08834062 0.8549648
vn 0.4033237 -0.09495612 0.9101172
g Eye_L_0
f 3/3/3 2/2/2 1/1/1
f 4/4/4 3/3/3 1/1/1
f 6/6/6 3/3/3 5/5/5
f 7/7/7 6/6/6 5/5/5
f 10/10/10 9/9/9 8/8/8
f 10/10/10 8/8/8 11/11/11
f 11/11/11 13/13/13 12/12/12
f 14/14/14 11/11/11 12/12/12
f 16/16/16 11/11/11 15/15/15
f 17/17/17 16/16/16 15/15/15
f 17/17/17 19/19/19 18/18/18
f 19/19/19 20/20/20 18/18/18
f 20/20/20 22/22/22 21/21/21
f 22/22/22 23/23/23 21/21/21
f 23/23/23 24/24/24 21/21/21
f 11/11/11 26/26/26 25/25/25
f 28/28/28 27/27/27 26/26/26
f 31/31/31 30/30/30 29/29/29
f 32/32/32 31/31/31 29/29/29
f 34/34/34 32/32/32 33/33/33
f 33/33/33 36/36/36 35/35/35
f 37/37/37 33/33/33 35/35/35
f 11/11/11 37/37/37 35/35/35
f 11/11/11 35/35/35 38/38/38
f 38/38/38 39/39/39 11/11/11
f 38/38/38 41/41/41 40/40/40
f 41/41/41 42/42/42 40/40/40
f 40/40/40 43/43/43 38/38/38
f 42/42/42 45/45/45 44/44/44
f 46/46/46 42/42/42 44/44/44
f 36/36/36 48/48/48 47/47/47
f 49/49/49 36/36/36 47/47/47
f 50/50/50 49/49/49 47/47/47
f 51/51/51 50/50/50 47/47/47
f 48/48/48 53/53/53 52/52/52
f 52/52/52 54/54/54 48/48/48
f 54/54/54 31/31/31 48/48/48
f 56/56/56 55/55/55 49/49/49
f 57/57/57 56/56/56 49/49/49
f 58/58/58 55/55/55 56/56/56
f 59/59/59 55/55/55 58/58/58
f 60/60/60 59/59/59 58/58/58
f 55/55/55 62/62/62 61/61/61
f 62/62/62 63/63/63 61/61/61
f 64/64/64 61/61/61 63/63/63
f 45/45/45 64/64/64 63/63/63
f 64/64/64 41/41/41 65/65/65
f 41/41/41 66/66/66 65/65/65
f 65/65/65 66/66/66 55/55/55
f 66/66/66 67/67/67 55/55/55
f 69/69/69 59/59/59 68/68/68
f 70/70/70 69/69/69 68/68/68
f 72/72/72 69/69/69 71/71/71
f 73/73/73 72/72/72 71/71/71
f 74/74/74 44/44/44 72/72/72
f 75/75/75 74/74/74 72/72/72
f 78/78/78 77/77/77 76/76/76
f 79/79/79 78/78/78 76/76/76
f 82/82/82 81/81/81 80/80/80
f 83/83/83 82/82/82 80/80/80
f 86/86/86 85/85/85 84/84/84
