g Eye_L
v 0.06576792 1.57182 0.07919042
v 0.07330702 1.569426 0.0646111
v 0.07238249 1.551831 0.06757116
v 0.06618544 1.553233 0.08087224
v 0.06525641 1.537386 0.08320348
v 0.07093973 1.535808 0.07249547
v 0.05265385 1.572897 0.09218907
v 0.05479428 1.553747 0.09579686
v 0.05355282 1.538213 0.09354711
v 0.06879809 1.524512 0.07429555
v 0.06212492 1.525009 0.08244985
v 0.06370219 1.513601 0.07781163
v 0.05588171 1.510526 0.08617573
v 0.05176087 1.525121 0.09139165
v 0.07843096 1.548109 0.05084248
v 0.07434424 1.533538 0.0541187
v 0.08056639 1.565378 0.04698705
v 0.03931683 1.573517 0.1033892
v 0.03972332 1.553932 0.1074263
v 0.0183507 1.573911 0.1123928
v 0.01651016 1.553694 0.1156807
v 0.02225256 1.539361 0.1073438
v 0.01326069 1.538441 0.112015
v 0.01057737 1.525241 0.1053574
v 0.01990313 1.52681 0.09871861
v 0.03790848 1.539431 0.101482
v 0.03782852 1.526151 0.09691349
v 0.0210974 1.518094 0.09753148
v 0.008923817 1.514308 0.1043128
v 0.0178499 1.511251 0.09836568
v 0.01634653 1.503409 0.100996
v 0.008558617 1.505201 0.1056038
v 0.02712122 1.51006 0.0949561
v 0.02599015 1.501822 0.09790974
v 0.03859259 1.507447 0.09310521
v 0.04890246 1.508261 0.09042455
v 0.02712122 1.51006 0.0949561
v 0.03777739 1.500247 0.09453755
v 0.04871832 1.499477 0.09103383
v 0.05627738 1.499518 0.0846114
v 0.06325461 1.502617 0.07404378
v 0.06745749 1.511129 0.06391256
v 0.07146292 1.522528 0.05730565
vt 0.7587765 0.920763
vt 0.9658241 0.8457869
vt 0.908675 0.6962966
vt 0.7425668 0.7297465
vt 0.7077286 0.5478796
vt 0.8275248 0.5256789
vt 0.5791703 0.9480698
vt 0.5828897 0.739168
vt 0.5762093 0.558388
vt 0.7790537 0.3874646
vt 0.6893836 0.3880356
vt 0.7185533 0.2615849
vt 0.6062902 0.2259129
vt 0.5547669 0.3908927
vt 0.9919806 0.6633244
vt 0.9919806 0.4701835
vt 0.9919804 0.8276283
vt 0.4012609 0.9693207
vt 0.3862984 0.7455244
vt 0.1186979 0.9685416
vt 0.1237678 0.7434212
vt 0.1954458 0.5745328
vt 0.05009937 0.5509655
vt 0.04223847 0.3954565
vt 0.1634773 0.4182312
vt 0.3823318 0.5691282
vt 0.3837461 0.4108905
vt 0.1764575 0.3118363
vt 0.01681209 0.2675729
vt 0.1331296 0.2481843
vt 0.118369 0.166652
vt 0.02269441 0.1692385
vt 0.2576874 0.209287
vt 0.2301577 0.1407753
vt 0.3912315 0.1904735
vt 0.5135334 0.1960495
vt 0.2576874 0.209287
vt 0.3860186 0.1150984
vt 0.496168 0.09063318
vt 0.6040998 0.07508099
vt 0.715328 0.1100397
vt 0.8271345 0.2152196
vt 0.9362595 0.326744
vn 0.8103402 0.1593737 0.5638694
vn 0.9093165 0.08418324 0.4075005
vn 0.9261068 -0.0106164 0.3771121
vn 0.831959 0.04504455 0.5530056
vn 0.7852122 -0.09444646 0.6119818
vn 0.9241467 -0.09761252 0.3693571
vn 0.6685495 0.219825 0.7104355
vn 0.6658525 0.0008261533 0.746083
vn 0.5778791 -0.1968067 0.7920372
vn 0.896399 -0.2003321 0.3953933
vn 0.7179202 -0.1629539 0.6767841
vn 0.8449708 -0.2025723 0.4949635
vn 0.6861029 -0.1067176 0.7196347
vn 0.498248 -0.1806667 0.8480026
vn 0.9685925 -0.09833219 0.2283841
vn 0.9599552 -0.1920367 0.2039801
vn 0.9665262 -0.01999624 0.2557877
vn 0.4909353 0.251845 0.8340004
vn 0.4710172 -0.07665369 0.8787872
vn 0.3346414 0.2499291 0.9085981
vn 0.3487182 -0.08248321 0.933591
vn 0.3777594 -0.4594949 0.8038422
vn 0.4921797 -0.3931081 0.7766757
vn 0.6021996 -0.2972284 0.7409527
vn 0.3720393 -0.2967457 0.8795048
vn 0.3515635 -0.3489564 0.8686959
vn 0.2290508 -0.2290821 0.9460746
vn 0.3341775 -0.1252075 0.9341566
vn 0.6375805 -0.04656313 0.7689753
vn 0.4524076 0.05235729 0.890273
vn 0.4638211 0.2440436 0.8516529
vn 0.6430412 0.1981155 0.7397624
vn 0.2417174 0.03400385 0.9697507
vn 0.3239517 0.2461361 0.9134946
vn 0.2519552 0.01577207 0.9676104
vn 0.4543705 -0.04777361 0.8895308
vn 0.2417174 0.03400385 0.9697507
vn 0.3080452 0.1505529 0.9393838
vn 0.501096 -0.0002434715 0.8653917
vn 0.7814593 -0.1303417 0.6101905
vn 0.9007922 -0.2733498 0.3374216
vn 0.9440705 -0.2867173 0.1628623
vn 0.9545256 -0.2518259 0.159576
g Eye_L_0
f 3/3/3 2/2/2 1/1/1
f 4/4/4 3/3/3 1/1/1
f 4/4/4 5/5/5 3/3/3
f 5/5/5 6/6/6 3/3/3
f 4/4/4 1/1/1 7/7/7
f 8/8/8 4/4/4 7/7/7
f 9/9/9 5/5/5 4/4/4
f 8/8/8 9/9/9 4/4/4
f 6/6/6 5/5/5 10/10/10
f 5/5/5 11/11/11 10/10/10
f 5/5/5 9/9/9 11/11/11
f 12/12/12 10/10/10 11/11/11
f 13/13/13 12/12/12 11/11/11
f 9/9/9 14/14/14 11/11/11
f 11/11/11 14/14/14 13/13/13
f 15/15/15 3/3/3 6/6/6
f 2/2/2 3/3/3 15/15/15
f 16/16/16 15/15/15 6/6/6
f 17/17/17 2/2/2 15/15/15
f 8/8/8 7/7/7 18/18/18
f 19/19/19 8/8/8 18/18/18
f 19/19/19 18/18/18 20/20/20
f 21/21/21 19/19/19 20/20/20
f 22/22/22 19/19/19 21/21/21
f 23/23/23 22/22/22 21/21/21
f 23/23/23 24/24/24 22/22/22
f 24/24/24 25/25/25 22/22/22
f 22/22/22 25/25/25 26/26/26
f 22/22/22 26/26/26 19/19/19
f 27/27/27 26/26/26 25/25/25
f 25/25/25 24/24/24 28/28/28
f 25/25/25 28/28/28 27/27/27
f 24/24/24 29/29/29 28/28/28
f 29/29/29 30/30/30 28/28/28
f 31/31/31 30/30/30 29/29/29
f 32/32/32 31/31/31 29/29/29
f 30/30/30 31/31/31 33/33/33
f 28/28/28 30/30/30 33/33/33
f 31/31/31 34/34/34 33/33/33
f 19/19/19 26/26/26 8/8/8
f 26/26/26 9/9/9 8/8/8
f 26/26/26 27/27/27 9/9/9
f 27/27/27 14/14/14 9/9/9
f 14/14/14 27/27/27 35/35/35
f 36/36/36 14/14/14 35/35/35
f 37/37/37 35/35/35 27/27/27
f 28/28/28 37/37/37 27/27/27
f 37/37/37 34/34/34 38/38/38
f 35/35/35 37/37/37 38/38/38
f 39/39/39 36/36/36 35/35/35
f 38/38/38 39/39/39 35/35/35
f 39/39/39 40/40/40 36/36/36
f 40/40/40 13/13/13 36/36/36
f 14/14/14 36/36/36 13/13/13
f 41/41/41 13/13/13 40/40/40
f 12/12/12 13/13/13 41/41/41
f 42/42/42 12/12/12 41/41/41
f 10/10/10 12/12/12 42/42/42
f 43/43/43 10/10/10 42/42/42
f 6/6/6 10/10/10 43/43/43
f 16/16/16 6/6/6 43/43/43
