g Eye_L
v -0.01804676 0.4978561 0.1297813
v -0.01360939 0.4780281 0.1277632
v -0.03800008 0.4750379 0.1195221
v -0.04348092 0.4864942 0.1193697
v -0.01229609 0.4581884 0.1269917
v -0.03800008 0.4582002 0.1184943
v 0 0.4780282 0.1299833
v 0 0.4978561 0.1331877
v 0 0.5176842 0.1355318
v -0.03038302 0.5174599 0.1318991
v -0.03038302 0.5470877 0.1344073
v 0 0.5470877 0.1375433
v 0 0.5765039 0.1375948
v -0.03038302 0.576504 0.1338556
v -0.05638083 0.5470876 0.1291879
v -0.05638083 0.5765039 0.1289948
v -0.07789333 0.5470877 0.1220231
v -0.07789333 0.576504 0.122703
v -0.09940588 0.576504 0.1120183
v -0.09940588 0.5470877 0.1113489
v -0.1152347 0.5470877 0.1014378
v -0.1159603 0.5765039 0.1001569
v -0.1348646 0.5765039 0.07244842
v -0.1356135 0.5470877 0.07244842
v -0.05711215 0.5317775 0.1263674
v -0.0572492 0.4995548 0.117033
v -0.0779476 0.5342885 0.1197847
v -0.07534409 0.5038991 0.1115308
v -0.09775085 0.5335818 0.1099299
v -0.1150339 0.5329167 0.1007882
v -0.09609512 0.5200872 0.1078959
v -0.1137262 0.5187584 0.09880485
v -0.1343735 0.5323799 0.07244842
v -0.1462398 0.5157718 0.03434616
v -0.149707 0.5470877 0.03434616
v -0.1313911 0.5157838 0.07244842
v -0.1291273 0.4978561 0.06886429
v -0.1143918 0.4968642 0.0866687
v -0.12639 0.4780281 0.06886429
v -0.11759 0.476748 0.08223766
v -0.1140376 0.4589866 0.08364116
v -0.1241171 0.4600991 0.06886429
v -0.1115871 0.4439427 0.08633049
v -0.1224614 0.4405135 0.06886429
v -0.1177584 0.4242655 0.07716057
v -0.1100589 0.432027 0.08967087
v -0.095139 0.4368924 0.0968
v -0.1041444 0.4458601 0.0910754
v -0.10744 0.4600878 0.0891819
v -0.09029213 0.4586427 0.1011937
v -0.1087484 0.4232841 0.09169014
v -0.1059478 0.4124288 0.09349384
v -0.09722314 0.4124288 0.1028124
v -0.09846529 0.4234355 0.1010144
v -0.1140369 0.4124288 0.08017612
v -0.1083898 0.4761019 0.08971947
v -0.1078722 0.4874517 0.09102871
v -0.09007066 0.4772976 0.1015372
v -0.07324505 0.4585501 0.109621
v -0.07364918 0.4770952 0.1098854
v -0.09290059 0.5015234 0.1026127
v -0.05668988 0.4762367 0.1144798
v -0.05736915 0.4585241 0.1144079
v -0.0574352 0.4343088 0.1126179
v -0.07136202 0.4328056 0.1073291
v -0.07267744 0.4231086 0.1131252
v -0.05863754 0.4230762 0.118904
v -0.04556502 0.4230291 0.1239008
v -0.04457122 0.4397281 0.118389
v -0.02575013 0.4230889 0.1310035
v -0.02878083 0.4383343 0.1254347
v -0.05817252 0.4123231 0.1205295
v -0.04578131 0.4122302 0.1246462
v -0.01072913 0.4385929 0.1304103
v -0.009432023 0.4238618 0.1368916
v -0.02947976 0.4121231 0.1297526
v -0.01209741 0.4121213 0.1350735
v 0 0.4385463 0.1334738
v 0 0.4261235 0.1425619
v 0 0.4121738 0.1385079
v -0.07199613 0.4124028 0.1154157
v -0.08530397 0.4124288 0.1095805
v -0.0869421 0.4231086 0.1068165
v -0.08481006 0.4338437 0.1019243
v 0 0.4582002 0.1289286
v -0.1502544 0.5765039 0.03434616
v -0.1344545 0.4581884 0.03434616
v -0.1394076 0.4780162 0.03434616
v -0.14322 0.4978441 0.03434616
v -0.1286841 0.4383603 0.03434616
v -0.1260068 0.4255253 0.03434616
v -0.1211911 0.4241809 0.06342998
v -0.1187638 0.4126803 0.05960983
v -0.1201398 0.4119391 0.03434616
vt 0.8397064 0.495688
vt 0.8616747 0.397484
vt 0.7409225 0.3826738
vt 0.7137882 0.439415
vt 0.8681767 0.29922
vt 0.7409225 0.2992793
vt 0.9290516 0.397484
vt 0.9290516 0.495688
vt 0.9290516 0.5938926
vt 0.7786328 0.5927829
vt 0.7786328 0.7395241
vt 0.9290516 0.7395241
vt 0.9290516 0.8465593
vt 0.7786328 0.8465593
vt 0.6499239 0.7395241
vt 0.6499239 0.8465593
vt 0.5434204 0.7395241
vt 0.5434204 0.8465593
vt 0.4369169 0.8465593
vt 0.4369169 0.7395241
vt 0.358553 0.7395241
vt 0.3549599 0.8465593
vt 0.2409735 0.8276029
vt 0.2371136 0.721751
vt 0.6463032 0.6636949
vt 0.6456248 0.5041015
vt 0.5431521 0.6761312
vt 0.5560413 0.5256184
vt 0.445111 0.6726316
vt 0.3595472 0.6693375
vt 0.4533085 0.6057954
vt 0.3660204 0.5992138
vt 0.2409018 0.6440853
vt 0.105484 0.5439006
vt 0.09109524 0.6916351
vt 0.2573095 0.562688
vt 0.2654733 0.4743366
vt 0.3627249 0.4907755
vt 0.2825691 0.380779
vt 0.3468922 0.3911434
vt 0.3644795 0.3031742
vt 0.2951193 0.2933162
vt 0.376611 0.2286641
vt 0.306603 0.1993852
vt 0.3460586 0.1312064
vt 0.3841775 0.169648
vt 0.4580416 0.1937452
vt 0.413458 0.2381608
vt 0.3971423 0.308628
vt 0.4820375 0.3014706
vt 0.3906643 0.1263456
vt 0.4045298 0.07258126
vt 0.4477241 0.07258126
vt 0.4415738 0.1270956
vt 0.3644824 0.07258126
vt 0.3924404 0.3879432
vt 0.3950021 0.4441572
vt 0.4831337 0.3938653
vt 0.5664335 0.3010124
vt 0.5644323 0.3928631
vt 0.4691235 0.5138519
vt 0.6483937 0.388611
vt 0.6450309 0.3008838
vt 0.6447037 0.1809493
vt 0.5757558 0.1735043
vt 0.5692433 0.1254765
vt 0.6387515 0.1253158
vt 0.7034704 0.1250822
vt 0.7083903 0.2077899
vt 0.8015689 0.1253789
vt 0.7865649 0.2008868
vt 0.6410536 0.07205799
vt 0.7023996 0.07159725
vt 0.8759344 0.2021676
vt 0.882356 0.1292071
vt 0.7831044 0.07106663
vt 0.8691603 0.07105812
vt 0.9290516 0.2019371
vt 0.9290516 0.1404087
vt 0.9290516 0.071318
vt 0.5726162 0.07245225
vt 0.5067321 0.07258126
vt 0.4986225 0.1254765
vt 0.5091771 0.1786459
vt 0.9290516 0.2992793
vt 0.08958702 0.8020744
vt 0.1617493 0.2444458
vt 0.1408558 0.3454484
vt 0.121436 0.4471558
vt 0.1845603 0.1521359
vt 0.206296 0.08591872
vt 0.3055207 0.114994
vt 0.310783 0.04891693
vt 0.2404265 0.007333881
vn -0.234194 -0.1821471 0.9549742
vn -0.2532549 -0.1060177 0.9615728
vn -0.2908817 -0.08818226 0.9526866
vn -0.3027427 -0.1958922 0.9327235
vn -0.2633016 0.0578201 0.9629793
vn -0.2930385 0.01922015 0.9559075
vn -0.1667148 -0.1049058 0.9804085
vn -0.1537551 -0.152064 0.976338
vn -0.1210206 -0.1032575 0.9872649
vn -0.2107537 -0.1560457 0.9650039
vn -0.1529865 -0.03743019 0.9875191
vn -0.111363 -0.03377478 0.9932057
vn -0.11242 0.008447634 0.9936249
vn -0.1487563 0.01030528 0.9888202
vn -0.2465918 -0.04832226 0.9679139
vn -0.2404865 0.003075974 0.9706476
vn -0.3753359 -0.05861095 0.9250339
vn -0.3746304 -0.01443024 0.927062
vn -0.4960464 -0.01065667 0.8682306
vn -0.4880133 -0.04576067 0.8716358
vn -0.731318 -0.01712594 0.6818216
vn -0.7418674 0.009051466 0.6704856
vn -0.8877148 0.007646145 0.4603302
vn -0.8955073 -0.02784038 0.4441752
vn -0.2905348 -0.1943144 0.9369266
vn -0.3114842 -0.2095106 0.9268672
vn -0.3613189 -0.2243653 0.9050464
vn -0.3619477 -0.205548 0.9092546
vn -0.4550763 -0.1489207 0.8779112
vn -0.7151728 -0.1164891 0.6891722
vn -0.4044349 -0.2597708 0.8768988
vn -0.6863649 -0.2349637 0.6882551
vn -0.892565 -0.106264 0.4382188
vn -0.9260904 -0.1345007 0.3525141
vn -0.9351203 -0.03948496 0.3521234
vn -0.8566441 -0.1927258 0.4785579
vn -0.8764542 -0.1698765 0.4505219
vn -0.727185 -0.2096598 0.6536396
vn -0.8957512 -0.1380712 0.4225707
vn -0.7689966 -0.07854508 0.6344092
vn -0.7737036 -0.06563451 0.6301386
vn -0.9177319 -0.1514703 0.3671851
vn -0.7665569 0.01117237 0.6420793
vn -0.937903 -0.1280409 0.3224026
vn -0.9081357 -0.1136292 0.4029614
vn -0.7258894 0.1091995 0.6790877
vn -0.5073295 0.1260589 0.8524822
vn -0.5546782 0.01658087 0.8318997
vn -0.5810524 -0.03250569 0.8132167
vn -0.4922268 -0.04508033 0.8692989
vn -0.7454936 0.03990813 0.665317
vn -0.7765202 -0.07004414 0.626187
vn -0.5774947 0.06361414 0.8139122
vn -0.5402685 0.2031661 0.8165987
vn -0.899043 -0.1885446 0.395187
vn -0.586708 -0.05218576 0.8081154
vn -0.5869601 -0.06959424 0.8066191
vn -0.4897215 -0.05760249 0.869974
vn -0.3679462 -0.05453792 0.9282463
vn -0.3695262 -0.05891242 0.9273509
vn -0.4457685 -0.2125778 0.8695408
vn -0.2681102 -0.05551953 0.9617872
vn -0.2812276 -0.0319318 0.9591097
vn -0.3488517 0.1366783 0.9271578
vn -0.3700756 0.1048945 0.9230608
vn -0.3617697 0.3387309 0.8685529
vn -0.3757193 0.3033324 0.8756852
vn -0.3587988 0.2221337 0.906598
vn -0.3444983 0.1567218 0.9256129
vn -0.3205556 0.1785701 0.9302456
vn -0.3163212 0.2288644 0.9206313
vn -0.347192 0.1238628 0.9295782
vn -0.3262576 0.06201934 0.9432442
vn -0.2896008 0.251629 0.9234794
vn -0.3516664 0.1592446 0.9224814
vn -0.3181233 0.007078794 0.948023
vn -0.3340693 -0.0855874 0.9386546
vn -0.2990433 0.3079932 0.9031685
vn -0.4043553 0.1887725 0.8949087
vn -0.3681605 -0.1707127 0.9139557
vn -0.3767893 0.1586379 0.9126137
vn -0.425198 0.1513804 0.8923512
vn -0.3927106 0.3025581 0.8684682
vn -0.4065948 0.1143324 0.9064264
vn -0.1835085 0.06329493 0.9809783
vn -0.9326265 0.003194481 0.3608291
vn -0.9431153 -0.1790879 0.2801091
vn -0.9251608 -0.1640451 0.3422962
vn -0.9175833 -0.1618392 0.3631102
vn -0.9618595 -0.1732106 0.2117181
vn -0.9624448 -0.2300799 0.1440943
vn -0.9595518 -0.2242541 0.1702072
vn -0.9417886 -0.3065059 0.1381611
vn -0.9395617 -0.3263863 0.1034212
g Eye_L_0
f 3/3/3 2/2/2 1/1/1
f 4/4/4 3/3/3 1/1/1
f 5/5/5 2/2/2 3/3/3
f 6/6/6 5/5/5 3/3/3
f 1/1/1 2/2/2 7/7/7
f 7/7/7 2/2/2 5/5/5
f 8/8/8 1/1/1 7/7/7
f 1/1/1 8/8/8 9/9/9
f 10/10/10 1/1/1 9/9/9
f 4/4/4 1/1/1 10/10/10
f 10/10/10 9/9/9 11/11/11
f 9/9/9 12/12/12 11/11/11
f 12/12/12 13/13/13 11/11/11
f 13/13/13 14/14/14 11/11/11
f 15/15/15 11/11/11 14/14/14
f 16/16/16 15/15/15 14/14/14
f 17/17/17 15/15/15 16/16/16
f 18/18/18 17/17/17 16/16/16
f 17/17/17 18/18/18 19/19/19
f 20/20/20 17/17/17 19/19/19
f 20/20/20 19/19/19 21/21/21
f 19/19/19 22/22/22 21/21/21
f 21/21/21 22/22/22 23/23/23
f 24/24/24 21/21/21 23/23/23
f 11/11/11 15/15/15 25/25/25
f 10/10/10 11/11/11 25/25/25
f 25/25/25 15/15/15 17/17/17
f 25/25/25 26/26/26 10/10/10
f 25/25/25 27/27/27 26/26/26
f 27/27/27 25/25/25 17/17/17
f 27/27/27 17/17/17 20/20/20
f 27/27/27 28/28/28 26/26/26
f 29/29/29 27/27/27 20/20/20
f 30/30/30 21/21/21 24/24/24
f 20/20/20 21/21/21 30/30/30
f 29/29/29 20/20/20 30/30/30
f 29/29/29 30/30/30 31/31/31
f 27/27/27 31/31/31 28/28/28
f 27/27/27 29/29/29 31/31/31
f 30/30/30 32/32/32 31/31/31
f 33/33/33 30/30/30 24/24/24
f 34/34/34 33/33/33 24/24/24
f 35/35/35 34/34/34 24/24/24
f 35/35/35 24/24/24 23/23/23
f 36/36/36 32/32/32 30/30/30
f 33/33/33 36/36/36 30/30/30
f 36/36/36 33/33/33 34/34/34
f 36/36/36 37/37/37 32/32/32
f 37/37/37 38/38/38 32/32/32
f 37/37/37 39/39/39 38/38/38
f 39/39/39 40/40/40 38/38/38
f 41/41/41 40/40/40 39/39/39
f 42/42/42 41/41/41 39/39/39
f 43/43/43 41/41/41 42/42/42
f 44/44/44 43/43/43 42/42/42
f 43/43/43 44/44/44 45/45/45
f 46/46/46 43/43/43 45/45/45
f 43/43/43 46/46/46 47/47/47
f 48/48/48 43/43/43 47/47/47
f 49/49/49 48/48/48 47/47/47
f 49/49/49 41/41/41 43/43/43
f 48/48/48 49/49/49 43/43/43
f 50/50/50 49/49/49 47/47/47
f 47/47/47 46/46/46 51/51/51
f 51/51/51 46/46/46 45/45/45
f 52/52/52 51/51/51 45/45/45
f 51/51/51 52/52/52 53/53/53
f 54/54/54 51/51/51 53/53/53
f 54/54/54 47/47/47 51/51/51
f 55/55/55 52/52/52 45/45/45
f 41/41/41 49/49/49 56/56/56
f 56/56/56 49/49/49 50/50/50
f 40/40/40 41/41/41 56/56/56
f 40/40/40 56/56/56 38/38/38
f 56/56/56 57/57/57 38/38/38
f 58/58/58 57/57/57 56/56/56
f 58/58/58 56/56/56 50/50/50
f 58/58/58 50/50/50 59/59/59
f 60/60/60 58/58/58 59/59/59
f 58/58/58 60/60/60 61/61/61
f 38/38/38 57/57/57 61/61/61
f 57/57/57 58/58/58 61/61/61
f 38/38/38 61/61/61 32/32/32
f 60/60/60 28/28/28 61/61/61
f 31/31/31 61/61/61 28/28/28
f 61/61/61 31/31/31 32/32/32
f 60/60/60 62/62/62 28/28/28
f 62/62/62 60/60/60 59/59/59
f 62/62/62 26/26/26 28/28/28
f 63/63/63 62/62/62 59/59/59
f 63/63/63 59/59/59 64/64/64
f 59/59/59 65/65/65 64/64/64
f 64/64/64 65/65/65 66/66/66
f 67/67/67 64/64/64 66/66/66
f 67/67/67 68/68/68 64/64/64
f 68/68/68 69/69/69 64/64/64
f 69/69/69 68/68/68 70/70/70
f 71/71/71 69/69/69 70/70/70
f 68/68/68 67/67/67 72/72/72
f 73/73/73 68/68/68 72/72/72
f 71/71/71 70/70/70 74/74/74
f 70/70/70 75/75/75 74/74/74
f 75/75/75 70/70/70 76/76/76
f 76/76/76 70/70/70 68/68/68
f 73/73/73 76/76/76 68/68/68
f 77/77/77 75/75/75 76/76/76
f 74/74/74 75/75/75 78/78/78
f 75/75/75 79/79/79 78/78/78
f 80/80/80 79/79/79 75/75/75
f 77/77/77 80/80/80 75/75/75
f 74/74/74 5/5/5 71/71/71
f 5/5/5 74/74/74 78/78/78
f 5/5/5 6/6/6 71/71/71
f 71/71/71 6/6/6 69/69/69
f 72/72/72 67/67/67 81/81/81
f 67/67/67 66/66/66 81/81/81
f 81/81/81 66/66/66 82/82/82
f 66/66/66 83/83/83 82/82/82
f 82/82/82 83/83/83 54/54/54
f 53/53/53 82/82/82 54/54/54
f 83/83/83 66/66/66 65/65/65
f 84/84/84 83/83/83 65/65/65
f 54/54/54 83/83/83 84/84/84
f 47/47/47 54/54/54 84/84/84
f 50/50/50 84/84/84 65/65/65
f 50/50/50 47/47/47 84/84/84
f 59/59/59 50/50/50 65/65/65
f 85/85/85 7/7/7 5/5/5
f 85/85/85 5/5/5 78/78/78
f 26/26/26 4/4/4 10/10/10
f 4/4/4 26/26/26 62/62/62
f 62/62/62 3/3/3 4/4/4
f 6/6/6 3/3/3 62/62/62
f 63/63/63 6/6/6 62/62/62
f 63/63/63 64/64/64 6/6/6
f 64/64/64 69/69/69 6/6/6
f 86/86/86 35/35/35 23/23/23
f 39/39/39 88/88/88 87/87/87
f 42/42/42 39/39/39 87/87/87
f 88/88/88 39/39/39 37/37/37
f 89/89/89 88/88/88 37/37/37
f 42/42/42 87/87/87 90/90/90
f 44/44/44 42/42/42 90/90/90
f 89/89/89 37/37/37 36/36/36
f 34/34/34 89/89/89 36/36/36
f 44/44/44 90/90/90 91/91/91
f 92/92/92 44/44/44 91/91/91
f 92/92/92 45/45/45 44/44/44
f 55/55/55 45/45/45 92/92/92
f 93/93/93 55/55/55 92/92/92
f 92/92/92 91/91/91 94/94/94
f 93/93/93 92/92/92 94/94/94
