g Eye_R
v -0.06712463 1.419387 0.03731331
v -0.06411007 1.399728 0.03525057
v -0.0740599 1.399297 0.02134305
v -0.07906334 1.417936 0.02088925
v -0.06039528 1.383672 0.03094463
v -0.06921101 1.382177 0.02073366
v -0.05355747 1.420441 0.05032931
v -0.05098461 1.400049 0.04455964
v -0.04831108 1.383152 0.03690708
v -0.06598854 1.370217 0.02085505
v -0.05773434 1.369758 0.02904967
v -0.04682629 1.368799 0.03428175
v -0.08352333 1.398315 0.003025136
v -0.07884636 1.380738 0.004584546
v -0.08737701 1.415706 0.0006654739
v -0.03770242 1.421049 0.05875607
v -0.03702134 1.400406 0.05216006
v -0.02052319 1.421434 0.06403802
v -0.01901239 1.400634 0.05769206
v -0.02693139 1.386357 0.04620235
v -0.03666989 1.381342 0.04053565
v -0.02621293 1.378584 0.04321758
v -0.03669911 1.368173 0.03802215
v -0.01359853 1.373802 0.04802381
v -0.01600045 1.386139 0.04995181
v -0.02256947 1.371001 0.04253656
v -0.01135156 1.364589 0.04826038
v -0.0368905 1.357643 0.03617926
v -0.04587086 1.357187 0.03219838
v -0.02541799 1.363726 0.04089149
v -0.04542439 1.347721 0.03383565
v -0.05636063 1.34698 0.02804007
v -0.05567933 1.358772 0.02719227
v -0.03684178 1.349001 0.03778514
v -0.02912385 1.35993 0.03955492
v -0.02706788 1.350864 0.04200375
v -0.01755716 1.353457 0.0460591
v -0.01012964 1.35628 0.05019536
v -0.01960286 1.362516 0.04355251
v -0.06451302 1.345875 0.02154099
v -0.06450298 1.362268 0.02095922
v -0.0718893 1.358172 0.008640351
v -0.06781769 1.344162 0.01165606
v -0.07544441 1.370031 0.006407437
vt 0.3614001 0.9116908
vt 0.3946186 0.6873347
vt 0.2619975 0.6807502
vt 0.1999011 0.8970858
vt 0.4337735 0.5118791
vt 0.3259071 0.49576
vt 0.5147549 0.9172907
vt 0.5343707 0.6905569
vt 0.5631621 0.5059459
vt 0.3602371 0.3650611
vt 0.4613416 0.3598514
vt 0.5787716 0.3491401
vt 0.08791288 0.6410326
vt 0.1629871 0.4636863
vt 0.01158556 0.8406726
vt 0.6796167 0.9196464
vt 0.687183 0.6941597
vt 0.8723656 0.9234719
vt 0.8890908 0.6962433
vt 0.7995003 0.5404819
vt 0.6907592 0.4859178
vt 0.8073962 0.4555586
vt 0.6900424 0.3420857
vt 0.9499378 0.403055
vt 0.9229293 0.5378575
vt 0.8482444 0.3726506
vt 0.9752913 0.3023711
vt 0.6875021 0.2270731
vt 0.5885428 0.222288
vt 0.8159549 0.2932583
vt 0.5926501 0.1188519
vt 0.4738317 0.1110313
vt 0.4824301 0.2398106
vt 0.6876296 0.1326806
vt 0.7742177 0.2518811
vt 0.7970059 0.1528132
vt 0.9045208 0.1809146
vt 0.9890201 0.2115863
vt 0.8815647 0.2799092
vt 0.397279 0.1047929
vt 0.3750191 0.2782107
vt 0.2528964 0.2254536
vt 0.3198228 0.06940371
vt 0.2026433 0.3525464
vn -0.7077349 -0.2134741 0.6734539
vn -0.6749591 -0.2641394 0.6889562
vn -0.8268712 -0.2136784 0.5202168
vn -0.8457836 -0.187975 0.499315
vn -0.610198 -0.2903799 0.7371146
vn -0.7968005 -0.2305564 0.5585272
vn -0.5276799 -0.2652803 0.8069575
vn -0.4913063 -0.3340902 0.8043643
vn -0.4179269 -0.3449875 0.8404289
vn -0.7730842 -0.1866247 0.6062278
vn -0.5621473 -0.2065509 0.800829
vn -0.4001512 -0.1966656 0.8950986
vn -0.8703682 -0.1995106 0.4501717
vn -0.8407326 -0.2120064 0.4982188
vn -0.8864748 -0.1847857 0.4242838
vn -0.3516116 -0.2969465 0.8878018
vn -0.3518426 -0.3618464 0.8632925
vn -0.2754747 -0.2997991 0.9133642
vn -0.2723857 -0.3553824 0.8941529
vn -0.2925918 -0.4345246 0.8518089
vn -0.3409565 -0.3634204 0.8669915
vn -0.3451565 -0.2631641 0.9008949
vn -0.3323793 -0.172187 0.9272948
vn -0.4242668 -0.2220271 0.8778961
vn -0.3464168 -0.3661703 0.8636635
vn -0.3762333 -0.1721788 0.9103861
vn -0.5095274 0.04692358 0.8591741
vn -0.3937017 -0.0001957771 0.9192383
vn -0.4336775 -0.03693875 0.9003107
vn -0.3355359 -0.07702917 0.9388728
vn -0.4403703 0.1255487 0.8889946
vn -0.5369154 0.07817534 0.8400062
vn -0.541631 -0.04898737 0.8391877
vn -0.4210083 0.1514398 0.8943254
vn -0.3859043 0.04428089 0.9214755
vn -0.4210978 0.1517167 0.8942363
vn -0.4649385 0.1361422 0.8748128
vn -0.5158967 0.1198551 0.8482248
vn -0.4636154 0.08731112 0.8817242
vn -0.7947595 -0.01799964 0.6066576
vn -0.7762504 -0.09704026 0.6229114
vn -0.8636479 -0.1039043 0.4932709
vn -0.8921236 -0.06630113 0.4469001
vn -0.8271954 -0.1791722 0.5325834
g Eye_R_0
f 3/3/3 2/2/2 1/1/1
f 4/4/4 3/3/3 1/1/1
f 5/5/5 2/2/2 3/3/3
f 6/6/6 5/5/5 3/3/3
f 1/1/1 2/2/2 7/7/7
f 2/2/2 8/8/8 7/7/7
f 9/9/9 8/8/8 2/2/2
f 5/5/5 9/9/9 2/2/2
f 5/5/5 6/6/6 10/10/10
f 11/11/11 5/5/5 10/10/10
f 9/9/9 5/5/5 11/11/11
f 12/12/12 9/9/9 11/11/11
f 3/3/3 13/13/13 6/6/6
f 3/3/3 4/4/4 13/13/13
f 13/13/13 14/14/14 6/6/6
f 4/4/4 15/15/15 13/13/13
f 7/7/7 8/8/8 16/16/16
f 8/8/8 17/17/17 16/16/16
f 16/16/16 17/17/17 18/18/18
f 17/17/17 19/19/19 18/18/18
f 17/17/17 20/20/20 19/19/19
f 21/21/21 20/20/20 17/17/17
f 21/21/21 17/17/17 8/8/8
f 9/9/9 21/21/21 8/8/8
f 22/22/22 20/20/20 21/21/21
f 21/21/21 23/23/23 22/22/22
f 23/23/23 21/21/21 9/9/9
f 12/12/12 23/23/23 9/9/9
f 22/22/22 24/24/24 20/20/20
f 24/24/24 25/25/25 20/20/20
f 20/20/20 25/25/25 19/19/19
f 24/24/24 22/22/22 26/26/26
f 26/26/26 22/22/22 23/23/23
f 27/27/27 24/24/24 26/26/26
f 23/23/23 12/12/12 28/28/28
f 12/12/12 29/29/29 28/28/28
f 30/30/30 26/26/26 23/23/23
f 23/23/23 28/28/28 30/30/30
f 29/29/29 31/31/31 28/28/28
f 32/32/32 31/31/31 29/29/29
f 33/33/33 32/32/32 29/29/29
f 29/29/29 12/12/12 33/33/33
f 31/31/31 34/34/34 28/28/28
f 35/35/35 28/28/28 34/34/34
f 28/28/28 35/35/35 30/30/30
f 36/36/36 35/35/35 34/34/34
f 36/36/36 37/37/37 35/35/35
f 37/37/37 38/38/38 27/27/27
f 39/39/39 37/37/37 27/27/27
f 37/37/37 39/39/39 35/35/35
f 39/39/39 30/30/30 35/35/35
f 27/27/27 26/26/26 39/39/39
f 39/39/39 26/26/26 30/30/30
f 12/12/12 11/11/11 33/33/33
f 32/32/32 33/33/33 40/40/40
f 33/33/33 41/41/41 40/40/40
f 41/41/41 33/33/33 11/11/11
f 40/40/40 41/41/41 42/42/42
f 43/43/43 40/40/40 42/42/42
f 41/41/41 10/10/10 42/42/42
f 10/10/10 41/41/41 11/11/11
f 10/10/10 44/44/44 42/42/42
f 10/10/10 6/6/6 44/44/44
f 6/6/6 14/14/14 44/44/44
