g Eye_L
v 0.0682793 1.708434 0.07054
v 0.07928982 1.705495 0.05140426
v 0.07756603 1.685439 0.05461426
v 0.06682581 1.686166 0.07089401
v 0.06479256 1.670099 0.07002655
v 0.07502454 1.669132 0.05848679
v 0.05503835 1.707812 0.0857576
v 0.05532444 1.68605 0.08539825
v 0.05407096 1.670971 0.08225998
v 0.07020625 1.658816 0.0606337
v 0.06181003 1.658649 0.06907013
v 0.06640804 1.649364 0.06132736
v 0.05819964 1.64807 0.0708992
v 0.05226168 1.657347 0.08147522
v 0.03969724 1.707344 0.09775054
v 0.04010767 1.685825 0.09465393
v 0.01852826 1.706933 0.105601
v 0.01666992 1.685173 0.1046579
v 0.02246788 1.671448 0.09541336
v 0.013389 1.670373 0.09923736
v 0.01120097 1.657264 0.09377273
v 0.02142113 1.658745 0.0895404
v 0.03827526 1.671319 0.0886943
v 0.03819452 1.658064 0.08644073
v 0.02024411 1.650497 0.08787247
v 0.009603292 1.646231 0.09476471
v 0.01663557 1.640979 0.0924411
v 0.03956066 1.643575 0.08412597
v 0.04990686 1.644821 0.07973816
v 0.02407219 1.64636 0.08660599
v 0.03866327 1.636397 0.08488708
v 0.02624161 1.639099 0.08858719
v 0.04961729 1.634517 0.07985504
v 0.05858066 1.63348 0.06986572
v 0.06545159 1.635935 0.05827209
v 0.07112539 1.644294 0.0489624
v 0.07553311 1.654325 0.04095734
v 0.07899208 1.663161 0.03759308
vt 0.7492979 0.9656169
vt 0.8907671 0.9270343
vt 0.8779068 0.6826767
vt 0.7364361 0.6955379
vt 0.7107146 0.4891908
vt 0.839323 0.4762081
vt 0.5821054 0.952756
vt 0.5821054 0.6955379
vt 0.5692439 0.5021732
vt 0.7750182 0.3463823
vt 0.6721318 0.3463823
vt 0.7364361 0.2295388
vt 0.6206882 0.2035737
vt 0.5448072 0.3333996
vt 0.3891919 0.952756
vt 0.3891919 0.6955376
vt 0.1191113 0.9398953
vt 0.09338939 0.6826767
vt 0.1705551 0.5151559
vt 0.05480683 0.4891908
vt 0.01622403 0.3333996
vt 0.1448331 0.3463823
vt 0.3634691 0.5021731
vt 0.3634691 0.3333996
vt 0.131972 0.2425215
vt 0.003363371 0.1905911
vt 0.09338939 0.1256781
vt 0.3891919 0.1516435
vt 0.517801 0.1710488
vt 0.189796 0.1758478
vt 0.3763306 0.06076507
vt 0.2091383 0.09279612
vt 0.517801 0.04778258
vt 0.633549 0.03480021
vt 0.7364361 0.06076507
vt 0.8405528 0.1455107
vt 0.9404321 0.258238
vt 0.9994655 0.3679194
vn 0.8049436 0.01408307 0.5931842
vn 0.9035484 -0.03917805 0.4266913
vn 0.9061444 -0.06593608 0.4177975
vn 0.7955682 -0.06373093 0.6025028
vn 0.7572098 -0.1562295 0.6342126
vn 0.8747153 -0.1721831 0.4530189
vn 0.6770633 0.02518131 0.7354939
vn 0.6426021 -0.1390659 0.7534741
vn 0.5984262 -0.201776 0.7753532
vn 0.8257149 -0.2400752 0.5104495
vn 0.7416461 -0.1963528 0.6414099
vn 0.8380754 -0.1715332 0.517886
vn 0.7568886 -0.1136577 0.643585
vn 0.579129 -0.1722785 0.7968248
vn 0.4770976 0.01359241 0.8787452
vn 0.4428712 -0.2160296 0.8701703
vn 0.3229247 0.005529559 0.9464085
vn 0.3222573 -0.2325356 0.9176478
vn 0.373648 -0.4068834 0.8335665
vn 0.4071986 -0.4047313 0.8187685
vn 0.4599159 -0.2206363 0.8601145
vn 0.3035553 -0.289097 0.9078971
vn 0.34945 -0.2801171 0.8941024
vn 0.2552203 -0.1543852 0.9544777
vn 0.3511315 -0.04822005 0.9350837
vn 0.5244871 0.1525431 0.8376418
vn 0.4375662 0.2355127 0.8677958
vn 0.3065293 -0.01603969 0.9517261
vn 0.5808609 -0.08745238 0.8092915
vn 0.3011618 0.08137211 0.9500948
vn 0.3704176 0.1054154 0.9228643
vn 0.3484936 0.2259824 0.9096615
vn 0.5973161 0.005280698 0.8019885
vn 0.7969064 -0.04459154 0.6024549
vn 0.9055334 -0.1530242 0.3957181
vn 0.9304325 -0.2064687 0.3027639
vn 0.9350407 -0.2584254 0.2427245
vn 0.9513947 -0.2277503 0.2073109
g Eye_L_0
f 3/3/3 2/2/2 1/1/1
f 4/4/4 3/3/3 1/1/1
f 4/4/4 5/5/5 3/3/3
f 5/5/5 6/6/6 3/3/3
f 4/4/4 1/1/1 7/7/7
f 8/8/8 4/4/4 7/7/7
f 9/9/9 5/5/5 4/4/4
f 8/8/8 9/9/9 4/4/4
f 6/6/6 5/5/5 10/10/10
f 5/5/5 11/11/11 10/10/10
f 5/5/5 9/9/9 11/11/11
f 12/12/12 10/10/10 11/11/11
f 13/13/13 12/12/12 11/11/11
f 9/9/9 14/14/14 11/11/11
f 11/11/11 14/14/14 13/13/13
f 8/8/8 7/7/7 15/15/15
f 16/16/16 8/8/8 15/15/15
f 16/16/16 15/15/15 17/17/17
f 18/18/18 16/16/16 17/17/17
f 19/19/19 16/16/16 18/18/18
f 20/20/20 19/19/19 18/18/18
f 20/20/20 21/21/21 19/19/19
f 21/21/21 22/22/22 19/19/19
f 19/19/19 22/22/22 23/23/23
f 19/19/19 23/23/23 16/16/16
f 23/23/23 9/9/9 8/8/8
f 16/16/16 23/23/23 8/8/8
f 24/24/24 23/23/23 22/22/22
f 24/24/24 14/14/14 9/9/9
f 23/23/23 24/24/24 9/9/9
f 22/22/22 21/21/21 25/25/25
f 21/21/21 26/26/26 25/25/25
f 26/26/26 27/27/27 25/25/25
f 14/14/14 24/24/24 28/28/28
f 29/29/29 14/14/14 28/28/28
f 30/30/30 28/28/28 24/24/24
f 22/22/22 30/30/30 24/24/24
f 25/25/25 27/27/27 30/30/30
f 25/25/25 30/30/30 22/22/22
f 28/28/28 30/30/30 31/31/31
f 30/30/30 32/32/32 31/31/31
f 27/27/27 32/32/32 30/30/30
f 33/33/33 29/29/29 28/28/28
f 31/31/31 33/33/33 28/28/28
f 33/33/33 34/34/34 29/29/29
f 34/34/34 13/13/13 29/29/29
f 14/14/14 29/29/29 13/13/13
f 13/13/13 34/34/34 12/12/12
f 12/12/12 34/34/34 35/35/35
f 36/36/36 12/12/12 35/35/35
f 10/10/10 12/12/12 36/36/36
f 37/37/37 10/10/10 36/36/36
f 6/6/6 10/10/10 37/37/37
f 38/38/38 6/6/6 37/37/37
