g Eye_R
v 0.01804676 0.4978561 0.1297814
v 0.04348092 0.4864942 0.1193698
v 0.03800008 0.475038 0.1195223
v 0.01360939 0.4780281 0.1277634
v 0.01229609 0.4581884 0.1269919
v 0.03800008 0.4582002 0.1184944
v 3.119354E-17 0.4780281 0.1299834
v 3.264996E-17 0.4978561 0.1331878
v 3.401087E-17 0.5176841 0.1355319
v 0.03038302 0.5174599 0.1318992
v 0.03038302 0.5470877 0.1344074
v 3.586641E-17 0.5470877 0.1375434
v 3.750504E-17 0.576504 0.1375949
v 0.03038302 0.5765039 0.1338558
v 0.05638083 0.5470876 0.129188
v 0.05638083 0.5765039 0.128995
v 0.07789333 0.5470877 0.1220233
v 0.07789333 0.576504 0.1227032
v 0.09940588 0.576504 0.1120184
v 0.09940588 0.5470877 0.1113491
v 0.1152347 0.5470877 0.1014379
v 0.1159603 0.5765039 0.1001571
v 0.05711215 0.5317775 0.1263676
v 0.0572492 0.4995548 0.1170331
v 0.0779476 0.5342885 0.1197848
v 0.07534409 0.5038992 0.111531
v 0.09775085 0.5335818 0.1099301
v 0.1150339 0.5329167 0.1007883
v 0.09609512 0.5200872 0.107896
v 0.1137262 0.5187585 0.098805
v 0.09290059 0.5015234 0.1026129
v 0.1137262 0.5187585 0.098805
v 0.1143918 0.4968642 0.08666881
v 0.05668988 0.4762367 0.11448
v 0.07364918 0.4770952 0.1098855
v 0.09007066 0.4772977 0.1015374
v 0.07324505 0.4585502 0.1096212
v 0.09029213 0.4586427 0.1011938
v 0.05736915 0.4585241 0.114408
v 0.0574352 0.4343088 0.1126181
v 0.07136202 0.4328056 0.1073292
v 0.07267744 0.4231087 0.1131253
v 0.05863754 0.4230762 0.1189042
v 0.04556502 0.423029 0.1239009
v 0.04457122 0.4397281 0.1183891
v 0.02878084 0.4383343 0.1254348
v 0.02575014 0.4230889 0.1310037
v 0.05817252 0.4123231 0.1205296
v 0.04578131 0.4122301 0.1246464
v 0.02947978 0.412123 0.1297527
v 0.07199613 0.4124027 0.1154158
v 0.08530397 0.4124288 0.1095806
v 0.0869421 0.4231086 0.1068166
v 0.09846529 0.4234355 0.1010145
v 0.09722314 0.4124288 0.1028126
v 0.08481006 0.4338437 0.1019244
v 0.095139 0.4368924 0.09680016
v 0.10744 0.4600878 0.08918201
v 0.1041444 0.4458601 0.09107555
v 0.1115871 0.4439427 0.08633064
v 0.1100589 0.432027 0.08967098
v 0.1140376 0.4589866 0.08364132
v 0.1083898 0.4761019 0.08971962
v 0.11759 0.476748 0.08223782
v 0.1078722 0.4874518 0.09102886
v 0.09846529 0.4234355 0.1010145
v 0.1087484 0.4232841 0.09169029
v 0.1100589 0.432027 0.08967098
v 0.1177584 0.4242655 0.07716068
v 0.1059478 0.4124288 0.09349398
v 0.1140369 0.4124288 0.08017628
v 0.1177584 0.4242655 0.07716068
v 0.1115871 0.4439427 0.08633064
v 0.1224614 0.4405135 0.06886444
v 0.1241171 0.4600991 0.06886444
v 0.1140376 0.4589866 0.08364132
v 0.12639 0.4780281 0.06886444
v 0.11759 0.476748 0.08223782
v 0.1143918 0.4968642 0.08666881
v 0.1291273 0.4978561 0.06886444
v 0.1313911 0.5157838 0.07244857
v 0.1344545 0.4581884 0.03434631
v 0.1394076 0.4780162 0.03434631
v 0.1291273 0.4978561 0.06886444
v 0.14322 0.4978441 0.03434631
v 0.1286841 0.4383603 0.03434631
v 0.1260068 0.4255253 0.03434631
v 0.1211911 0.4241809 0.0634301
v 0.1201398 0.4119391 0.03434631
v 0.1187638 0.4126803 0.05960995
v 0.1140369 0.4124288 0.08017628
v 0.1177584 0.4242655 0.07716068
v 0.1224614 0.4405135 0.06886444
v 0.1150339 0.5329167 0.1007883
v 0.1313911 0.5157838 0.07244857
v 0.1343735 0.5323799 0.07244857
v 0.1356135 0.5470877 0.07244857
v 0.1152347 0.5470877 0.1014379
v 0.1462398 0.5157718 0.03434631
v 0.149707 0.5470877 0.03434631
v 0.1313911 0.5157838 0.07244857
v 0.1291273 0.4978561 0.06886444
v 0.1348646 0.5765039 0.07244857
v 0.1356135 0.5470877 0.07244857
v 0.1159603 0.5765039 0.1001571
v 0.149707 0.5470877 0.03434631
v 0.1502544 0.5765039 0.03434631
v 2.938939E-17 0.4385463 0.1334739
v 0.01072913 0.4385929 0.1304104
v 0.009432023 0.4238618 0.1368917
v 2.970878E-17 0.4261235 0.1425621
v 0.01209741 0.4121213 0.1350736
v 2.938939E-17 0.4385463 0.1334739
v 2.997578E-17 0.4582002 0.1289287
v 2.970878E-17 0.4261235 0.1425621
v 2.848433E-17 0.4121737 0.138508
vt 0.8397064 0.495688
vt 0.7137882 0.439415
vt 0.7409225 0.3826738
vt 0.8616747 0.397484
vt 0.8681767 0.29922
vt 0.7409225 0.2992793
vt 0.9290516 0.397484
vt 0.9290516 0.495688
vt 0.9290516 0.5938926
vt 0.7786328 0.5927829
vt 0.7786328 0.7395241
vt 0.9290516 0.7395241
vt 0.9290516 0.8465593
vt 0.7786328 0.8465593
vt 0.6499239 0.7395241
vt 0.6499239 0.8465593
vt 0.5434204 0.7395241
vt 0.5434204 0.8465593
vt 0.4369169 0.8465593
vt 0.4369169 0.7395241
vt 0.358553 0.7395241
vt 0.35496 0.8465593
vt 0.6463032 0.6636949
vt 0.6456248 0.5041015
vt 0.5431521 0.6761312
vt 0.5560413 0.5256184
vt 0.445111 0.6726316
vt 0.3595473 0.6693375
vt 0.4533085 0.6057954
vt 0.3660204 0.5992138
vt 0.4691235 0.5138519
vt 0.3660204 0.5992138
vt 0.3627249 0.4907755
vt 0.6483937 0.388611
vt 0.5644323 0.3928631
vt 0.4831337 0.3938653
vt 0.5664335 0.3010124
vt 0.4820375 0.3014706
vt 0.6450309 0.3008838
vt 0.6447037 0.1809493
vt 0.5757558 0.1735043
vt 0.5692433 0.1254765
vt 0.6387515 0.1253158
vt 0.7034704 0.1250822
vt 0.7083903 0.2077899
vt 0.788514 0.1998266
vt 0.8014978 0.1254892
vt 0.6410536 0.07205799
vt 0.7023996 0.07159725
vt 0.7831909 0.07105304
vt 0.5726162 0.07245225
vt 0.5067321 0.07258126
vt 0.4986225 0.1254765
vt 0.4415738 0.1270956
vt 0.4477241 0.07258126
vt 0.5091771 0.1786459
vt 0.4580416 0.1937452
vt 0.3971423 0.308628
vt 0.413458 0.2381608
vt 0.376611 0.2286641
vt 0.3841775 0.169648
vt 0.3644795 0.3031742
vt 0.3924404 0.3879432
vt 0.3468922 0.3911434
vt 0.3950021 0.4441572
vt 0.4415738 0.1270956
vt 0.3906643 0.1263456
vt 0.3841775 0.169648
vt 0.3460586 0.1312064
vt 0.4045298 0.07258126
vt 0.3644824 0.07258126
vt 0.3460586 0.1312064
vt 0.376611 0.2286641
vt 0.3066031 0.1993852
vt 0.2951193 0.2933162
vt 0.3644795 0.3031742
vt 0.2825691 0.380779
vt 0.3468922 0.3911434
vt 0.3627249 0.4907755
vt 0.2654732 0.4743366
vt 0.2573094 0.562688
vt 0.1617493 0.2444458
vt 0.1408558 0.3454484
vt 0.2654732 0.4743366
vt 0.121436 0.4471558
vt 0.1845603 0.1521359
vt 0.206296 0.08591872
vt 0.3055207 0.114994
vt 0.2404264 0.007333881
vt 0.310783 0.04891693
vt 0.3644824 0.07258126
vt 0.3460586 0.1312064
vt 0.3066031 0.1993852
vt 0.3595473 0.6693375
vt 0.2573094 0.562688
vt 0.2409018 0.6440853
vt 0.2371135 0.721751
vt 0.358553 0.7395241
vt 0.105484 0.5439006
vt 0.09109521 0.6916351
vt 0.2573094 0.562688
vt 0.2654732 0.4743366
vt 0.2409735 0.8276029
vt 0.2371135 0.721751
vt 0.35496 0.8465593
vt 0.09109521 0.6916351
vt 0.08958703 0.8020744
vt 0.9290516 0.2019371
vt 0.8759344 0.2021676
vt 0.882356 0.1292071
vt 0.9290516 0.1404087
vt 0.8691603 0.07105812
vt 0.9290516 0.2019371
vt 0.9290516 0.2992793
vt 0.9290516 0.1404087
vt 0.9290516 0.071318
vn 0.2241013 -0.1738654 0.9589314
vn 0.2907638 -0.1635355 0.9427155
vn 0.283528 -0.08819517 0.9548997
vn 0.236156 -0.1046557 0.9660629
vn 0.2450443 0.06206594 0.9675232
vn 0.2977314 0.02637272 0.9542854
vn 0.1659288 -0.09976991 0.9810777
vn 0.1569991 -0.1513209 0.9759371
vn 0.1256869 -0.115021 0.9853796
vn 0.2223679 -0.1674749 0.9604711
vn 0.1602234 -0.04149938 0.986208
vn 0.1113667 -0.03364825 0.9932095
vn 0.1124203 0.008447768 0.9936249
vn 0.1515535 0.01044827 0.9883938
vn 0.2570654 -0.06587499 0.9641462
vn 0.2448468 0.002257173 0.9695592
vn 0.3743388 -0.0847989 0.9234065
vn 0.3722992 -0.01422909 0.9280037
vn 0.5019438 -0.009501372 0.8648481
vn 0.4861678 -0.06617109 0.8713565
vn 0.68589 -0.03517577 0.7268546
vn 0.7061711 0.007530315 0.7080011
vn 0.2940728 -0.1914338 0.9364157
vn 0.3061645 -0.1917428 0.9324688
vn 0.3719221 -0.2044558 0.9054677
vn 0.3640361 -0.1959224 0.9105449
vn 0.4534607 -0.1525576 0.8781227
vn 0.6628491 -0.1220523 0.7387383
vn 0.4261918 -0.2651788 0.8648935
vn 0.6269669 -0.2506887 0.7376094
vn 0.466556 -0.2147051 0.8580369
vn 0.6269669 -0.2506887 0.7376094
vn 0.6833298 -0.1820408 0.7070513
vn 0.2663713 -0.05997995 0.9620025
vn 0.3658949 -0.05185951 0.9292102
vn 0.501475 -0.05373974 0.8635015
vn 0.3644881 -0.05021829 0.929853
vn 0.4960573 -0.04427597 0.8671601
vn 0.2795692 -0.02937843 0.959676
vn 0.3604146 0.2192034 0.9066704
vn 0.3643849 0.2261776 0.9033644
vn 0.3627619 0.330638 0.8712533
vn 0.3714532 0.2854411 0.8834851
vn 0.3583319 0.2021565 0.9114445
vn 0.3571581 0.1754919 0.9174098
vn 0.325432 0.2325844 0.9165143
vn 0.3201443 0.1479476 0.9357452
vn 0.3465586 0.1225883 0.9299834
vn 0.3275449 0.06748051 0.9424228
vn 0.3180798 0.006443718 0.948042
vn 0.3767208 0.1585984 0.9126489
vn 0.4272595 0.1499867 0.8916016
vn 0.3964785 0.2935188 0.8698571
vn 0.5433799 0.1937055 0.8168333
vn 0.5771648 0.06379984 0.8141317
vn 0.4001291 0.1992559 0.8945355
vn 0.4941806 0.1387558 0.8582146
vn 0.5902728 -0.02972105 0.8066564
vn 0.5504552 0.03342654 0.8341953
vn 0.7152296 0.02669745 0.6983794
vn 0.7124712 0.1097303 0.6930686
vn 0.7357439 -0.05621928 0.6749223
vn 0.5919155 -0.05913386 0.8038278
vn 0.742827 -0.07827143 0.6648922
vn 0.5831932 -0.0724052 0.8091002
vn 0.5433799 0.1937055 0.8168333
vn 0.7556936 0.03549156 0.653963
vn 0.7124712 0.1097303 0.6930686
vn 0.9125377 -0.1236526 0.3898525
vn 0.7675856 -0.06275115 0.6378672
vn 0.8955427 -0.1843507 0.4049916
vn 0.9125377 -0.1236526 0.3898525
vn 0.7152296 0.02669745 0.6983794
vn 0.9277541 -0.1074117 0.3574004
vn 0.8978043 -0.1345559 0.4193355
vn 0.7357439 -0.05621928 0.6749223
vn 0.877764 -0.1253051 0.4624164
vn 0.742827 -0.07827143 0.6648922
vn 0.6833298 -0.1820408 0.7070513
vn 0.8646998 -0.1636374 0.4748863
vn 0.8582966 -0.1907287 0.4763923
vn 0.9430093 -0.1790802 0.2804707
vn 0.9253221 -0.1644398 0.3416702
vn 0.8646998 -0.1636374 0.4748863
vn 0.9175295 -0.1620569 0.363149
vn 0.9636362 -0.1715723 0.2048613
vn 0.9604331 -0.2409819 0.1396277
vn 0.9565852 -0.2240936 0.1863516
vn 0.9395614 -0.3263868 0.1034214
vn 0.9422715 -0.298034 0.1526441
vn 0.8955427 -0.1843507 0.4049916
vn 0.9125377 -0.1236526 0.3898525
vn 0.9277541 -0.1074117 0.3574004
vn 0.6628491 -0.1220523 0.7387383
vn 0.8582966 -0.1907287 0.4763923
vn 0.8816459 -0.1124431 0.4583199
vn 0.8862759 -0.03386245 0.4619181
vn 0.68589 -0.03517577 0.7268546
vn 0.9243401 -0.1412979 0.3544437
vn 0.9353321 -0.04560162 0.3508197
vn 0.8582966 -0.1907287 0.4763923
vn 0.8646998 -0.1636374 0.4748863
vn 0.8830404 0.00805169 0.4692279
vn 0.8862759 -0.03386245 0.4619181
vn 0.7061711 0.007530315 0.7080011
vn 0.9353321 -0.04560162 0.3508197
vn 0.9326261 0.003194438 0.36083
vn 0.3143094 0.3286653 0.8906114
vn 0.2956401 0.2778313 0.9140059
vn 0.4062187 0.177066 0.8964564
vn 0.4097803 0.1738537 0.8954635
vn 0.3370088 -0.09561696 0.9366336
vn 0.3143094 0.3286653 0.8906114
vn 0.1847933 0.06937615 0.9803256
vn 0.4097803 0.1738537 0.8954635
vn 0.2619298 -0.2693312 0.9267434
g Eye_R_0
f 3/3/3 2/2/2 1/1/1
f 4/4/4 3/3/3 1/1/1
f 4/4/4 5/5/5 3/3/3
f 5/5/5 6/6/6 3/3/3
f 4/4/4 1/1/1 7/7/7
f 4/4/4 7/7/7 5/5/5
f 1/1/1 8/8/8 7/7/7
f 8/8/8 1/1/1 9/9/9
f 1/1/1 10/10/10 9/9/9
f 1/1/1 2/2/2 10/10/10
f 9/9/9 10/10/10 11/11/11
f 12/12/12 9/9/9 11/11/11
f 13/13/13 12/12/12 11/11/11
f 14/14/14 13/13/13 11/11/11
f 11/11/11 15/15/15 14/14/14
f 15/15/15 16/16/16 14/14/14
f 15/15/15 17/17/17 16/16/16
f 17/17/17 18/18/18 16/16/16
f 18/18/18 17/17/17 19/19/19
f 17/17/17 20/20/20 19/19/19
f 19/19/19 20/20/20 21/21/21
f 22/22/22 19/19/19 21/21/21
f 11/11/11 10/10/10 23/23/23
f 15/15/15 11/11/11 23/23/23
f 15/15/15 23/23/23 17/17/17
f 24/24/24 23/23/23 10/10/10
f 25/25/25 23/23/23 24/24/24
f 23/23/23 25/25/25 17/17/17
f 17/17/17 25/25/25 20/20/20
f 26/26/26 25/25/25 24/24/24
f 25/25/25 27/27/27 20/20/20
f 20/20/20 27/27/27 28/28/28
f 21/21/21 20/20/20 28/28/28
f 28/28/28 27/27/27 29/29/29
f 29/29/29 27/27/27 25/25/25
f 29/29/29 25/25/25 26/26/26
f 30/30/30 28/28/28 29/29/29
f 31/31/31 29/29/29 26/26/26
f 29/29/29 31/31/31 32/32/32
f 31/31/31 33/33/33 32/32/32
f 24/24/24 34/34/34 26/26/26
f 34/34/34 35/35/35 26/26/26
f 26/26/26 35/35/35 31/31/31
f 35/35/35 36/36/36 31/31/31
f 36/36/36 35/35/35 37/37/37
f 35/35/35 34/34/34 37/37/37
f 38/38/38 36/36/36 37/37/37
f 34/34/34 39/39/39 37/37/37
f 37/37/37 39/39/39 40/40/40
f 41/41/41 37/37/37 40/40/40
f 38/38/38 37/37/37 41/41/41
f 41/41/41 40/40/40 42/42/42
f 40/40/40 43/43/43 42/42/42
f 44/44/44 43/43/43 40/40/40
f 45/45/45 44/44/44 40/40/40
f 45/45/45 46/46/46 44/44/44
f 46/46/46 47/47/47 44/44/44
f 43/43/43 44/44/44 48/48/48
f 44/44/44 49/49/49 48/48/48
f 44/44/44 47/47/47 49/49/49
f 47/47/47 50/50/50 49/49/49
f 6/6/6 46/46/46 45/45/45
f 40/40/40 39/39/39 6/6/6
f 45/45/45 40/40/40 6/6/6
f 43/43/43 48/48/48 51/51/51
f 42/42/42 43/43/43 51/51/51
f 42/42/42 51/51/51 52/52/52
f 53/53/53 42/42/42 52/52/52
f 42/42/42 53/53/53 41/41/41
f 53/53/53 52/52/52 54/54/54
f 52/52/52 55/55/55 54/54/54
f 53/53/53 56/56/56 41/41/41
f 53/53/53 54/54/54 56/56/56
f 54/54/54 57/57/57 56/56/56
f 57/57/57 38/38/38 56/56/56
f 58/58/58 38/38/38 57/57/57
f 59/59/59 58/58/58 57/57/57
f 60/60/60 59/59/59 57/57/57
f 58/58/58 59/59/59 60/60/60
f 61/61/61 60/60/60 57/57/57
f 62/62/62 58/58/58 60/60/60
f 58/58/58 62/62/62 63/63/63
f 58/58/58 63/63/63 38/38/38
f 62/62/62 64/64/64 63/63/63
f 63/63/63 64/64/64 33/33/33
f 65/65/65 63/63/63 33/33/33
f 65/65/65 36/36/36 63/63/63
f 63/63/63 36/36/36 38/38/38
f 56/56/56 38/38/38 41/41/41
f 65/65/65 33/33/33 31/31/31
f 36/36/36 65/65/65 31/31/31
f 67/67/67 66/66/66 55/55/55
f 57/57/57 66/66/66 67/67/67
f 68/68/68 57/57/57 67/67/67
f 68/68/68 67/67/67 69/69/69
f 67/67/67 70/70/70 69/69/69
f 70/70/70 67/67/67 55/55/55
f 70/70/70 71/71/71 69/69/69
f 73/73/73 68/68/68 72/72/72
f 74/74/74 73/73/73 72/72/72
f 73/73/73 74/74/74 75/75/75
f 76/76/76 73/73/73 75/75/75
f 76/76/76 75/75/75 77/77/77
f 78/78/78 76/76/76 77/77/77
f 78/78/78 77/77/77 79/79/79
f 77/77/77 80/80/80 79/79/79
f 79/79/79 80/80/80 30/30/30
f 80/80/80 81/81/81 30/30/30
f 77/77/77 75/75/75 82/82/82
f 83/83/83 77/77/77 82/82/82
f 77/77/77 83/83/83 84/84/84
f 83/83/83 85/85/85 84/84/84
f 75/75/75 74/74/74 86/86/86
f 82/82/82 75/75/75 86/86/86
f 86/86/86 74/74/74 87/87/87
f 74/74/74 88/88/88 87/87/87
f 87/87/87 88/88/88 89/89/89
f 88/88/88 90/90/90 89/89/89
f 91/91/91 90/90/90 88/88/88
f 92/92/92 91/91/91 88/88/88
f 92/92/92 88/88/88 93/93/93
f 30/30/30 95/95/95 94/94/94
f 95/95/95 96/96/96 94/94/94
f 94/94/94 96/96/96 97/97/97
f 98/98/98 94/94/94 97/97/97
f 96/96/96 99/99/99 97/97/97
f 99/99/99 100/100/100 97/97/97
f 85/85/85 99/99/99 101/101/101
f 96/96/96 101/101/101 99/99/99
f 102/102/102 85/85/85 101/101/101
f 98/98/98 104/104/104 103/103/103
f 105/105/105 98/98/98 103/103/103
f 104/104/104 106/106/106 103/103/103
f 106/106/106 107/107/107 103/103/103
f 110/110/110 109/109/109 108/108/108
f 111/111/111 110/110/110 108/108/108
f 111/111/111 112/112/112 110/110/110
f 109/109/109 110/110/110 46/46/46
f 109/109/109 46/46/46 6/6/6
f 5/5/5 109/109/109 6/6/6
f 109/109/109 5/5/5 113/113/113
f 5/5/5 114/114/114 113/113/113
f 7/7/7 114/114/114 5/5/5
f 110/110/110 47/47/47 46/46/46
f 110/110/110 112/112/112 47/47/47
f 112/112/112 50/50/50 47/47/47
f 6/6/6 39/39/39 34/34/34
f 3/3/3 6/6/6 34/34/34
f 3/3/3 34/34/34 2/2/2
f 24/24/24 2/2/2 34/34/34
f 2/2/2 24/24/24 10/10/10
f 116/116/116 112/112/112 115/115/115
