g Eye_L
v 0.06711419 1.419387 0.03731331
v 0.0790529 1.417936 0.02088925
v 0.07404946 1.399297 0.02134305
v 0.06409967 1.399728 0.03525057
v 0.06038484 1.383672 0.03094463
v 0.06920056 1.382177 0.02073366
v 0.05354703 1.420441 0.05032931
v 0.05097417 1.400049 0.04455964
v 0.04830064 1.383152 0.03690708
v 0.06597814 1.370217 0.02085505
v 0.0577239 1.369758 0.02904967
v 0.04681585 1.368799 0.03428175
v 0.08351284 1.398315 0.003025136
v 0.07883591 1.380738 0.004584546
v 0.0873666 1.415706 0.0006654739
v 0.03769197 1.421049 0.05875607
v 0.0370109 1.400406 0.05216006
v 0.02051275 1.421434 0.06403802
v 0.01900194 1.400634 0.05769206
v 0.02692095 1.386357 0.04620235
v 0.03665945 1.381342 0.04053565
v 0.02620249 1.378584 0.04321758
v 0.03668867 1.368173 0.03802215
v 0.01358809 1.373802 0.04802381
v 0.01599001 1.386139 0.04995181
v 0.02255903 1.371001 0.04253656
v 0.01134112 1.364589 0.04826038
v 0.03688005 1.357643 0.03617926
v 0.04586042 1.357187 0.03219838
v 0.02540754 1.363726 0.04089149
v 0.04541383 1.347721 0.03383565
v 0.05635019 1.34698 0.02804007
v 0.05566888 1.358772 0.02719227
v 0.03683134 1.349001 0.03778514
v 0.02911341 1.35993 0.03955492
v 0.0270574 1.350864 0.04200375
v 0.01754671 1.353457 0.0460591
v 0.01959242 1.362516 0.04355251
v 0.01011915 1.35628 0.05019536
v 0.06450254 1.345875 0.02154099
v 0.06449255 1.362268 0.02095922
v 0.0718789 1.358172 0.008640351
v 0.06780724 1.344162 0.01165606
v 0.07543401 1.370031 0.006407437
vt 0.6407706 0.9081228
vt 0.8022404 0.8931975
vt 0.7397149 0.6769854
vt 0.6071071 0.6838329
vt 0.5676044 0.5084555
vt 0.6754385 0.4921225
vt 0.4874271 0.9140267
vt 0.4673617 0.6873324
vt 0.4382041 0.5027788
vt 0.6408493 0.3614918
vt 0.5397347 0.3564827
vt 0.4222836 0.3460043
vt 0.9137205 0.6369228
vt 0.8382946 0.4597256
vt 0.9904436 0.8364111
vt 0.3225703 0.9167097
vt 0.3145568 0.6912382
vt 0.1298293 0.9209173
vt 0.1126534 0.6937222
vt 0.2019348 0.5377835
vt 0.3105677 0.4830039
vt 0.1938706 0.452876
vt 0.3109992 0.3391707
vt 0.05122501 0.4006552
vt 0.07850099 0.5354038
vt 0.1528579 0.3700492
vt 0.02567196 0.3000218
vt 0.3133112 0.2241532
vt 0.4122609 0.2191719
vt 0.18499 0.2905931
vt 0.4079484 0.115744
vt 0.5267512 0.1076878
vt 0.5184082 0.236484
vt 0.3129965 0.129761
vt 0.226645 0.2491331
vt 0.2036604 0.1501107
vt 0.09620148 0.1784253
vt 0.1193537 0.2773742
vt 0.0117631 0.2092645
vt 0.6032913 0.1012977
vt 0.6258951 0.2746711
vt 0.7479129 0.2216715
vt 0.6806772 0.06575483
vt 0.798418 0.3486646
vn 0.7077348 -0.2134733 0.6734542
vn 0.8457837 -0.1879755 0.4993146
vn 0.8268715 -0.2136787 0.5202162
vn 0.6749588 -0.2641391 0.6889566
vn 0.610197 -0.2903802 0.7371153
vn 0.7968014 -0.2305558 0.5585263
vn 0.5276796 -0.2652802 0.8069577
vn 0.4913058 -0.3340901 0.8043646
vn 0.4179266 -0.3449875 0.840429
vn 0.7730847 -0.1866242 0.6062272
vn 0.5621464 -0.2065507 0.8008297
vn 0.4001508 -0.1966656 0.8950989
vn 0.8703687 -0.1995114 0.4501705
vn 0.8407339 -0.2120052 0.498217
vn 0.8864748 -0.1847876 0.4242829
vn 0.3516118 -0.2969465 0.8878018
vn 0.3518427 -0.3618464 0.8632925
vn 0.2754746 -0.2997989 0.9133644
vn 0.2723856 -0.3553823 0.8941529
vn 0.2925918 -0.4345251 0.8518086
vn 0.3409568 -0.3634208 0.8669912
vn 0.3451567 -0.2631644 0.9008948
vn 0.33238 -0.1721874 0.9272945
vn 0.4242675 -0.2220272 0.8778957
vn 0.3464172 -0.3661711 0.8636631
vn 0.3762328 -0.1721789 0.9103864
vn 0.5095279 0.04692342 0.8591738
vn 0.3937007 -0.0001970182 0.9192387
vn 0.4336759 -0.03693976 0.9003115
vn 0.3355388 -0.07702893 0.9388718
vn 0.4403687 0.1255455 0.8889959
vn 0.5369131 0.07817367 0.8400078
vn 0.5416292 -0.04898802 0.8391889
vn 0.4210068 0.1514372 0.8943266
vn 0.3859048 0.04428041 0.9214754
vn 0.4210963 0.1517154 0.8942373
vn 0.4649396 0.1361418 0.8748123
vn 0.4636161 0.08731094 0.8817238
vn 0.5158976 0.1198548 0.8482243
vn 0.7947577 -0.01800109 0.6066598
vn 0.7762492 -0.09704158 0.6229126
vn 0.8636464 -0.1039057 0.4932733
vn 0.8921211 -0.06630278 0.4469048
vn 0.8271967 -0.1791708 0.532582
g Eye_L_0
f 3/3/3 2/2/2 1/1/1
f 4/4/4 3/3/3 1/1/1
f 4/4/4 5/5/5 3/3/3
f 5/5/5 6/6/6 3/3/3
f 4/4/4 1/1/1 7/7/7
f 8/8/8 4/4/4 7/7/7
f 9/9/9 5/5/5 4/4/4
f 8/8/8 9/9/9 4/4/4
f 6/6/6 5/5/5 10/10/10
f 5/5/5 11/11/11 10/10/10
f 5/5/5 9/9/9 11/11/11
f 9/9/9 12/12/12 11/11/11
f 13/13/13 3/3/3 6/6/6
f 2/2/2 3/3/3 13/13/13
f 14/14/14 13/13/13 6/6/6
f 15/15/15 2/2/2 13/13/13
f 8/8/8 7/7/7 16/16/16
f 17/17/17 8/8/8 16/16/16
f 17/17/17 16/16/16 18/18/18
f 19/19/19 17/17/17 18/18/18
f 20/20/20 17/17/17 19/19/19
f 20/20/20 21/21/21 17/17/17
f 21/21/21 9/9/9 8/8/8
f 17/17/17 21/21/21 8/8/8
f 20/20/20 22/22/22 21/21/21
f 23/23/23 21/21/21 22/22/22
f 23/23/23 12/12/12 9/9/9
f 21/21/21 23/23/23 9/9/9
f 24/24/24 22/22/22 20/20/20
f 25/25/25 24/24/24 20/20/20
f 25/25/25 20/20/20 19/19/19
f 22/22/22 24/24/24 26/26/26
f 22/22/22 26/26/26 23/23/23
f 24/24/24 27/27/27 26/26/26
f 12/12/12 23/23/23 28/28/28
f 29/29/29 12/12/12 28/28/28
f 26/26/26 30/30/30 23/23/23
f 28/28/28 23/23/23 30/30/30
f 31/31/31 29/29/29 28/28/28
f 31/31/31 32/32/32 29/29/29
f 32/32/32 33/33/33 29/29/29
f 12/12/12 29/29/29 33/33/33
f 34/34/34 31/31/31 28/28/28
f 28/28/28 35/35/35 34/34/34
f 35/35/35 28/28/28 30/30/30
f 35/35/35 36/36/36 34/34/34
f 37/37/37 36/36/36 35/35/35
f 37/37/37 38/38/38 27/27/27
f 38/38/38 37/37/37 35/35/35
f 30/30/30 38/38/38 35/35/35
f 26/26/26 27/27/27 38/38/38
f 26/26/26 38/38/38 30/30/30
f 39/39/39 37/37/37 27/27/27
f 11/11/11 12/12/12 33/33/33
f 33/33/33 32/32/32 40/40/40
f 41/41/41 33/33/33 40/40/40
f 33/33/33 41/41/41 11/11/11
f 41/41/41 40/40/40 42/42/42
f 40/40/40 43/43/43 42/42/42
f 10/10/10 41/41/41 42/42/42
f 41/41/41 10/10/10 11/11/11
f 44/44/44 10/10/10 42/42/42
f 6/6/6 10/10/10 44/44/44
f 14/14/14 6/6/6 44/44/44
