g Face
v 6.626397E-07 -0.09076553 1.430691
v 0.01271631 -0.08820221 1.43522
v 0.01389056 -0.07841567 1.434533
v 6.620036E-07 -0.08294743 1.430233
v 6.788098E-07 -0.09822707 1.442351
v 0.0116262 -0.09689787 1.446408
v 6.939227E-07 -0.1055705 1.453249
v 0.01144054 -0.1040161 1.456124
v 7.122874E-07 -0.1139442 1.466492
v 0.01137055 -0.1103947 1.466622
v 0.003458601 -0.1235375 1.481453
v 0.008213792 -0.1200904 1.48249
v 0.01837839 -0.1137519 1.485233
v 0.03470516 -0.1069674 1.480648
v 0.0375794 -0.1054751 1.498849
v 0.01834041 -0.1107515 1.4998
v 0.03992257 -0.09944492 1.517477
v 0.06577391 -0.0882288 1.517635
v 0.06905673 -0.08959138 1.539209
v 0.04253102 -0.1012729 1.539185
v 0.01943924 -0.1074205 1.51768
v 0.02128391 -0.109312 1.537647
v 0.04498948 -0.1100814 1.565687
v 0.02280447 -0.1177508 1.563552
v 8.093004E-07 -0.1152834 1.536446
v 8.427946E-07 -0.1213505 1.560598
v 0.07016794 -0.09577862 1.56408
v 0.08244311 -0.07997739 1.55983
v 0.0811128 -0.07621003 1.536613
v 0.007968938 -0.1156698 1.500972
v 7.847162E-07 -0.1134862 1.518719
v 7.615081E-07 -0.1191778 1.501984
v 8.846303E-07 -0.1206751 1.590765
v 0.02249486 -0.117232 1.591228
v 9.314973E-07 -0.1132727 1.62456
v 0.02147589 -0.1117876 1.624661
v 0.04605967 -0.1067403 1.622579
v 0.04617258 -0.1117121 1.591469
v 0.06377504 -0.09053242 1.618087
v 0.0665175 -0.09970269 1.590358
v 0.08066087 -0.08176418 1.58264
v 0.08284067 -0.06150064 1.596725
v 0.08773229 -0.05822705 1.564193
v 0.08057555 -0.02641445 1.580392
v 0.07913873 -0.02440398 1.558636
v 0.0839461 -0.05433184 1.532306
v 0.07887008 -0.02459101 1.535451
v 0.07681345 -0.02622468 1.511099
v 0.07391354 -0.05389014 1.496746
v 0.07053041 -0.07916007 1.495955
v 0.05865629 -0.08322535 1.473002
v 0.05016957 -0.09742898 1.476915
v 0.05960042 -0.05866785 1.470244
v 0.04752747 -0.08400125 1.458376
v 0.04683144 -0.06407228 1.4561
v 0.03141344 -0.08588488 1.445495
v 0.03114976 -0.07122937 1.443673
v 0.03964868 -0.09621365 1.461387
v 0.0307 -0.1035835 1.465445
v 0.02623496 -0.09681201 1.452817
v 0.0203137 -0.1036027 1.459279
v 0.05899195 -0.09485551 1.498389
v 0.02813876 -0.05318528 1.446287
v 0.01380723 -0.06135069 1.437863
v 0.01257173 -0.04806638 1.443982
v 6.662932E-07 -0.06685286 1.433326
v 6.752297E-07 -0.05187941 1.43977
v 0.02512383 -0.04413905 1.448535
v 0.04089749 -0.04490117 1.45762
v 0.05380268 -0.03900091 1.471385
v 0.06587912 -0.03354118 1.487476
v 0.06221868 -0.02765712 1.486423
v 0.05021911 -0.03291967 1.471298
v 0.03865977 -0.03936476 1.458002
v 0.07308812 -0.02892896 1.501667
v 0.00951475 -0.1195399 1.490009
v 0.003267823 -0.1238965 1.493263
v 7.506986E-07 -0.1252547 1.49419
v 7.443373E-07 -0.1311576 1.489602
v 0.002914849 -0.1295498 1.48917
v 7.324902E-07 -0.1247253 1.48106
v -0.007967418 -0.1156698 1.500973
v -0.003266325 -0.1238965 1.493263
v -0.01943767 -0.1074205 1.51768
v -0.01833889 -0.1107515 1.4998
v -0.02128229 -0.109312 1.537647
v -0.0425294 -0.1012729 1.539185
v -0.03992101 -0.09944492 1.517478
v -0.0690551 -0.08959138 1.539209
v -0.06577235 -0.0882288 1.517635
v -0.02280278 -0.1177508 1.563553
v -0.04498778 -0.1100814 1.565687
v -0.07016625 -0.09577862 1.564081
v -0.08244143 -0.07997739 1.55983
v -0.08111119 -0.07621003 1.536613
v -0.02249309 -0.117232 1.591229
v -0.02147402 -0.1117876 1.624661
v -0.04605781 -0.1067403 1.622579
v -0.0461708 -0.1117121 1.591469
v -0.0637732 -0.09053242 1.618087
v -0.06651574 -0.09970269 1.590359
v -0.08065913 -0.08176418 1.58264
v -0.08283889 -0.06150064 1.596725
v -0.08773059 -0.05822705 1.564193
v -0.0805738 -0.02641445 1.580392
v -0.08394449 -0.05433184 1.532306
v -0.07913705 -0.02440398 1.558636
v -0.07886846 -0.02459101 1.535451
v -0.0768119 -0.02622468 1.511099
v -0.07391203 -0.05389014 1.496747
v -0.07052891 -0.07916007 1.495955
v -0.05865485 -0.08322535 1.473002
v -0.05959899 -0.05866785 1.470245
v -0.04752607 -0.08400125 1.458377
v -0.04683004 -0.06407228 1.4561
v -0.03141207 -0.08588488 1.445495
v -0.03114839 -0.07122937 1.443673
v -0.03964727 -0.09621365 1.461387
v -0.02623357 -0.09681201 1.452817
v -0.03069858 -0.1035835 1.465445
v -0.0203123 -0.1036027 1.45928
v -0.01136912 -0.1103947 1.466622
v -0.05016811 -0.09742898 1.476915
v -0.05899043 -0.09485551 1.49839
v -0.0347037 -0.1069674 1.480648
v -0.01837692 -0.1137519 1.485233
v -0.03757789 -0.1054751 1.498849
v -0.009513261 -0.1195399 1.490009
v -0.008212323 -0.1200904 1.48249
v -0.003457135 -0.1235375 1.481453
v -0.01143915 -0.1040161 1.456124
v -0.01162483 -0.09689787 1.446408
v -0.01271497 -0.08820221 1.43522
v -0.01388922 -0.07841567 1.434533
v 6.620036E-07 -0.08294743 1.430233
v -0.002913361 -0.1295498 1.48917
v -0.01380589 -0.06135069 1.437863
v -0.02813739 -0.05318528 1.446287
v -0.0408961 -0.04490117 1.45762
v -0.05380125 -0.03900091 1.471385
v -0.06587764 -0.03354118 1.487476
v -0.0622172 -0.02765712 1.486423
v -0.05021767 -0.03291967 1.471298
v -0.03865837 -0.03936476 1.458002
v -0.02512246 -0.04413905 1.448535
v -0.01257037 -0.04806638 1.443982
v 6.662932E-07 -0.06685286 1.433326
v 6.752297E-07 -0.05187941 1.43977
v -0.0730866 -0.02892896 1.501667
vt 0.4296454 0.7311917
vt 0.44397 0.7391143
vt 0.4509413 0.7376283
vt 0.4384237 0.7294172
vt 0.4296412 0.7466203
vt 0.4418172 0.7510213
vt 0.4296388 0.7583753
vt 0.4412606 0.7608735
vt 0.4296357 0.7695274
vt 0.4411553 0.7696965
vt 0.4331045 0.7854302
vt 0.4367023 0.7853372
vt 0.4475924 0.7867208
vt 0.4650111 0.7856601
vt 0.4678685 0.8032371
vt 0.4485133 0.8032181
vt 0.471301 0.8217437
vt 0.4975803 0.8222478
vt 0.5017613 0.8441283
vt 0.4742658 0.8435815
vt 0.4501686 0.8211011
vt 0.4519896 0.8418877
vt 0.4756965 0.8710048
vt 0.4525802 0.8688057
vt 0.4296195 0.8409004
vt 0.4296137 0.8655382
vt 0.5029763 0.869161
vt 0.5207769 0.8637962
vt 0.5182267 0.8408284
vt 0.4378918 0.8045075
vt 0.4296244 0.8199767
vt 0.4296277 0.8063746
vt 0.4296063 0.8953646
vt 0.454008 0.8955703
vt 0.4296002 0.9213142
vt 0.4530905 0.9213246
vt 0.4796129 0.9189506
vt 0.4798058 0.8955912
vt 0.5033787 0.9122456
vt 0.5015484 0.8944523
vt 0.5243255 0.8861414
vt 0.5383697 0.8934911
vt 0.5413935 0.8649449
vt 0.5604833 0.8728105
vt 0.563493 0.8496466
vt 0.5371148 0.8333761
vt 0.5617574 0.8280596
vt 0.5498838 0.7993463
vt 0.527989 0.7949874
vt 0.50585 0.8020895
vt 0.4958004 0.7786076
vt 0.4828329 0.7836496
vt 0.5123806 0.771506
vt 0.4797172 0.765492
vt 0.493442 0.7610696
vt 0.4631482 0.7529866
vt 0.4725874 0.7487081
vt 0.4697158 0.7682265
vt 0.4603091 0.769957
vt 0.4557667 0.7596239
vt 0.4497393 0.7648675
vt 0.4893513 0.8033721
vt 0.4899215 0.747029
vt 0.4667617 0.73513
vt 0.485291 0.7356054
vt 0.4533429 0.726153
vt 0.471615 0.7272086
vt 0.5131965 0.7416098
vt 0.5091261 0.7586879
vt 0.5297425 0.7699314
vt 0.5433644 0.7786369
vt 0.5581955 0.7766415
vt 0.5572215 0.7697497
vt 0.5351477 0.7553471
vt 0.5470295 0.7902784
vt 0.4373249 0.7961519
vt 0.4332768 0.7976984
vt 0.4296294 0.7978124
vt 0.4296302 0.7928204
vt 0.4332225 0.7924313
vt 0.4296327 0.7855502
vt 0.4213641 0.8045039
vt 0.4259819 0.7976964
vt 0.4090796 0.8210922
vt 0.4107431 0.8032101
vt 0.4072484 0.8418775
vt 0.3849714 0.8435617
vt 0.3879462 0.8217252
vt 0.3574754 0.8440962
vt 0.3616669 0.8222178
vt 0.4066451 0.8687954
vt 0.3835277 0.8709844
vt 0.3562488 0.8691284
vt 0.3384502 0.863756
vt 0.3410117 0.8407891
vt 0.4052046 0.8955596
vt 0.4061099 0.9213142
vt 0.3795888 0.9189283
vt 0.379407 0.895569
vt 0.3558257 0.912213
vt 0.3576647 0.8944204
vt 0.3348914 0.8860996
vt 0.3208441 0.8934428
vt 0.317834 0.8648954
vt 0.2987397 0.8727527
vt 0.3221275 0.8333286
vt 0.2957415 0.8495871
vt 0.2974867 0.828001
vt 0.3093743 0.7992929
vt 0.3312714 0.7949439
vt 0.353407 0.8020555
vt 0.3634678 0.7785785
vt 0.3468908 0.7714694
vt 0.3795568 0.7654697
vt 0.3658341 0.7610412
vt 0.3961325 0.7529717
vt 0.3866948 0.7486891
vt 0.3895575 0.7682094
vt 0.4035109 0.7596125
vt 0.3989634 0.7699437
vt 0.4095351 0.7648585
vt 0.4181171 0.7696914
vt 0.376433 0.7836259
vt 0.3699047 0.8033457
vt 0.3942537 0.7856445
vt 0.4116719 0.7867128
vt 0.391388 0.8032201
vt 0.421935 0.7961485
vt 0.4225633 0.7853341
vt 0.4261608 0.7854288
vt 0.4180164 0.7608685
vt 0.4174642 0.751016
vt 0.4153166 0.739108
vt 0.4083464 0.7376192
vt 0.420868 0.7294132
vt 0.4260389 0.7924296
vt 0.3925272 0.7351137
vt 0.3693614 0.7470022
vt 0.3501519 0.758653
vt 0.3295299 0.7698873
vt 0.3159035 0.7785865
vt 0.301073 0.7765847
vt 0.3020505 0.7696933
vt 0.324131 0.7553002
vt 0.3460893 0.7415732
vt 0.3739974 0.7355806
vt 0.4059504 0.7261423
vt 0.3876779 0.72719
vt 0.3122329 0.7902268
vn 0 -0.5055457 -0.8627998
vn 0.4045643 -0.449746 -0.7962765
vn 0.373505 0.04624757 -0.9264746
vn 0 0.05378069 -0.9985528
vn 0 -0.8218175 -0.5697508
vn 0.29825 -0.7640414 -0.5720906
vn 0 -0.8350894 -0.5501143
vn 0.2465736 -0.8072587 -0.5362226
vn -2.35977E-06 -0.8229547 -0.5681069
vn 0.3511218 -0.8390245 -0.4156337
vn 0.4242803 -0.7505437 -0.5066265
vn 0.6438894 -0.7363186 -0.2079456
vn 0.4680909 -0.8814198 -0.06316601
vn 0.394906 -0.906927 -0.1467403
vn 0.3670537 -0.9191663 0.1428455
vn 0.3881554 -0.9033782 0.1823271
vn 0.3647014 -0.9280668 0.07539733
vn 0.6264189 -0.7772661 -0.05879392
vn 0.58151 -0.7920772 -0.1856336
vn 0.3836684 -0.8990479 -0.2109774
vn 0.3523123 -0.9337955 0.06246692
vn 0.3058761 -0.9293357 -0.2068213
vn 0.3908191 -0.9036938 -0.1749227
vn 0.2547943 -0.9550405 -0.1515833
vn 0 -0.9798587 -0.1996921
vn 0 -0.9912299 -0.1321491
vn 0.6645589 -0.7404149 -0.1007333
vn 0.9203798 -0.3852882 -0.06673879
vn 0.8592384 -0.4839269 -0.1659038
vn 0.4652982 -0.8300878 0.30733
vn 0 -0.9876455 0.1567044
vn 3.065653E-06 -0.8839633 0.4675563
vn 0 -0.9943666 0.1059953
vn 0.1895427 -0.9780489 0.08656818
vn 0 -0.9819247 0.189272
vn 0.1622507 -0.9712878 0.1739959
vn 0.419438 -0.88741 0.1912464
vn 0.4074362 -0.9104191 0.07164328
vn 0.7837314 -0.5564394 0.2759353
vn 0.6925105 -0.7133739 0.1073635
vn 0.8914145 -0.4315948 0.1382246
vn 0.9679419 -0.1315436 0.2139736
vn 0.999786 -0.01052719 0.01781007
vn 0.9799612 0.1899874 0.05984035
vn 0.973376 0.2237117 -0.04992129
vn 0.9881597 -0.03870045 -0.1484684
vn 0.9797496 0.1532792 -0.1288269
vn 0.9493847 0.1030177 -0.2967421
vn 0.9180009 0.0440736 -0.3941215
vn 0.8483865 -0.4645891 -0.253766
vn 0.8087205 -0.3289151 -0.487633
vn 0.6233907 -0.7161704 -0.3138216
vn 0.8006858 0.06358985 -0.5957
vn 0.6759925 -0.3308965 -0.6584387
vn 0.6669949 0.08169142 -0.7405703
vn 0.5259607 -0.3821192 -0.7598357
vn 0.5297499 0.05803061 -0.8461663
vn 0.5127701 -0.6816117 -0.5219888
vn 0.373035 -0.8390769 -0.3959733
vn 0.3718771 -0.7107915 -0.5970619
vn 0.2738807 -0.8095998 -0.51917
vn 0.6049036 -0.7949937 -0.04556944
vn 0.4289573 0.2807616 -0.8585852
vn 0.2664624 0.2932033 -0.9181664
vn 0.2062005 0.3948465 -0.8953087
vn 0 0.3043481 -0.9525608
vn 0 0.411958 -0.9112028
vn 0.3734316 0.3541186 -0.8574082
vn 0.5819854 0.2813943 -0.7629614
vn 0.7002017 0.2768106 -0.6580983
vn 0.7968611 0.2172752 -0.563741
vn 0.6797104 0.3501103 -0.6445281
vn 0.6509658 0.3400133 -0.6787006
vn 0.5545695 0.3264146 -0.7654451
vn 0.892024 0.1156341 -0.436946
vn 0.6467057 -0.739396 0.1872573
vn 0.5977519 -0.6547454 0.4626028
vn 0 -0.7112575 0.7029315
vn 0 -0.9933991 0.114709
vn 0.6479347 -0.7604591 -0.04338765
vn 0 -0.8017536 -0.5976546
vn -0.4652956 -0.8300891 0.3073305
vn -0.5977499 -0.6547467 0.4626031
vn -0.352312 -0.9337955 0.06246815
vn -0.388155 -0.9033783 0.1823279
vn -0.3058768 -0.9293356 -0.2068205
vn -0.3836685 -0.8990481 -0.2109764
vn -0.3647014 -0.9280668 0.07539832
vn -0.5815105 -0.7920772 -0.1856322
vn -0.6264192 -0.777266 -0.05879219
vn -0.2547947 -0.9550405 -0.1515826
vn -0.3908191 -0.903694 -0.1749217
vn -0.6645591 -0.740415 -0.1007316
vn -0.9203801 -0.385288 -0.06673642
vn -0.8592392 -0.4839264 -0.1659014
vn -0.1895423 -0.9780489 0.08656872
vn -0.16225 -0.9712879 0.1739964
vn -0.4194379 -0.8874098 0.1912475
vn -0.4074361 -0.910419 0.07164438
vn -0.7837306 -0.5564398 0.2759368
vn -0.6925103 -0.7133738 0.1073653
vn -0.891414 -0.4315952 0.1382267
vn -0.9679413 -0.1315444 0.2139758
vn -0.9997859 -0.01052734 0.01781278
vn -0.979961 0.1899873 0.05984325
vn -0.98816 -0.03870027 -0.1484656
vn -0.9733763 0.2237115 -0.04991837
vn -0.97975 0.1532785 -0.1288243
vn -0.9493858 0.1030158 -0.2967393
vn -0.9180021 0.04407248 -0.394119
vn -0.8483874 -0.4645887 -0.2537639
vn -0.8087223 -0.3289146 -0.4876305
vn -0.8006891 0.06358939 -0.5956957
vn -0.6759942 -0.3308984 -0.658436
vn -0.6669987 0.08168965 -0.740567
vn -0.5259629 -0.3821221 -0.7598327
vn -0.529752 0.05802767 -0.8461652
vn -0.5127705 -0.6816121 -0.5219878
vn -0.371879 -0.7107924 -0.5970596
vn -0.3730351 -0.8390773 -0.3959724
vn -0.2738813 -0.8096007 -0.5191684
vn -0.351124 -0.8390238 -0.4156333
vn -0.6233912 -0.7161707 -0.31382
vn -0.6049038 -0.7949938 -0.04556786
vn -0.3949061 -0.9069271 -0.1467392
vn -0.4680915 -0.8814196 -0.06316527
vn -0.3670537 -0.9191662 0.1428465
vn -0.646705 -0.7393966 0.1872576
vn -0.6438904 -0.736318 -0.2079448
vn -0.4242818 -0.7505432 -0.5066259
vn -0.2465765 -0.8072596 -0.5362201
vn -0.2982526 -0.7640426 -0.5720877
vn -0.4045667 -0.4497474 -0.7962745
vn -0.3735064 0.04624628 -0.9264741
vn 0 0.05378069 -0.9985528
vn -0.6479347 -0.7604592 -0.04338624
vn -0.2664627 0.2932035 -0.9181663
vn -0.4289574 0.2807639 -0.8585845
vn -0.5819872 0.2813986 -0.7629585
vn -0.7002041 0.2768119 -0.6580952
vn -0.7968628 0.2172732 -0.5637393
vn -0.6797112 0.3501109 -0.6445271
vn -0.6509653 0.3400181 -0.6786986
vn -0.5545685 0.3264231 -0.7654422
vn -0.3734314 0.3541228 -0.8574066
vn -0.2062006 0.3948467 -0.8953085
vn 0 0.3043481 -0.9525608
vn 0 0.411958 -0.9112028
vn -0.8920258 0.1156313 -0.4369434
g Face_0
f 3/3/3 2/2/2 1/1/1
f 4/4/4 3/3/3 1/1/1
f 1/1/1 2/2/2 5/5/5
f 2/2/2 6/6/6 5/5/5
f 5/5/5 6/6/6 7/7/7
f 6/6/6 8/8/8 7/7/7
f 7/7/7 8/8/8 9/9/9
f 8/8/8 10/10/10 9/9/9
f 9/9/9 10/10/10 11/11/11
f 10/10/10 12/12/12 11/11/11
f 12/12/12 10/10/10 13/13/13
f 13/13/13 10/10/10 14/14/14
f 14/14/14 15/15/15 13/13/13
f 15/15/15 16/16/16 13/13/13
f 16/16/16 15/15/15 17/17/17
f 17/17/17 15/15/15 18/18/18
f 17/17/17 18/18/18 19/19/19
f 20/20/20 17/17/17 19/19/19
f 21/21/21 17/17/17 20/20/20
f 21/21/21 16/16/16 17/17/17
f 22/22/22 21/21/21 20/20/20
f 22/22/22 20/20/20 23/23/23
f 24/24/24 22/22/22 23/23/23
f 25/25/25 22/22/22 24/24/24
f 21/21/21 22/22/22 25/25/25
f 26/26/26 25/25/25 24/24/24
f 20/20/20 19/19/19 27/27/27
f 23/23/23 20/20/20 27/27/27
f 27/27/27 19/19/19 28/28/28
f 19/19/19 29/29/29 28/28/28
f 29/29/29 19/19/19 18/18/18
f 16/16/16 21/21/21 30/30/30
f 31/31/31 21/21/21 25/25/25
f 30/30/30 21/21/21 31/31/31
f 32/32/32 30/30/30 31/31/31
f 33/33/33 26/26/26 24/24/24
f 34/34/34 33/33/33 24/24/24
f 33/33/33 34/34/34 35/35/35
f 34/34/34 36/36/36 35/35/35
f 37/37/37 36/36/36 34/34/34
f 38/38/38 37/37/37 34/34/34
f 38/38/38 34/34/34 24/24/24
f 23/23/23 38/38/38 24/24/24
f 39/39/39 37/37/37 38/38/38
f 40/40/40 39/39/39 38/38/38
f 23/23/23 27/27/27 40/40/40
f 38/38/38 23/23/23 40/40/40
f 40/40/40 27/27/27 41/41/41
f 40/40/40 41/41/41 39/39/39
f 28/28/28 41/41/41 27/27/27
f 41/41/41 42/42/42 39/39/39
f 43/43/43 42/42/42 41/41/41
f 44/44/44 42/42/42 43/43/43
f 44/44/44 43/43/43 45/45/45
f 45/45/45 43/43/43 46/46/46
f 43/43/43 28/28/28 46/46/46
f 43/43/43 41/41/41 28/28/28
f 47/47/47 45/45/45 46/46/46
f 48/48/48 47/47/47 46/46/46
f 49/49/49 48/48/48 46/46/46
f 46/46/46 29/29/29 49/49/49
f 28/28/28 29/29/29 46/46/46
f 29/29/29 50/50/50 49/49/49
f 50/50/50 51/51/51 49/49/49
f 50/50/50 52/52/52 51/51/51
f 51/51/51 53/53/53 49/49/49
f 51/51/51 54/54/54 53/53/53
f 51/51/51 52/52/52 54/54/54
f 54/54/54 55/55/55 53/53/53
f 54/54/54 56/56/56 55/55/55
f 56/56/56 57/57/57 55/55/55
f 56/56/56 54/54/54 58/58/58
f 52/52/52 58/58/58 54/54/54
f 58/58/58 52/52/52 59/59/59
f 60/60/60 56/56/56 58/58/58
f 60/60/60 58/58/58 59/59/59
f 61/61/61 60/60/60 59/59/59
f 10/10/10 61/61/61 59/59/59
f 29/29/29 18/18/18 50/50/50
f 18/18/18 62/62/62 50/50/50
f 50/50/50 62/62/62 52/52/52
f 15/15/15 62/62/62 18/18/18
f 14/14/14 52/52/52 62/62/62
f 10/10/10 59/59/59 14/14/14
f 52/52/52 14/14/14 59/59/59
f 14/14/14 62/62/62 15/15/15
f 3/3/3 57/57/57 56/56/56
f 2/2/2 3/3/3 56/56/56
f 2/2/2 56/56/56 60/60/60
f 6/6/6 2/2/2 60/60/60
f 6/6/6 60/60/60 61/61/61
f 8/8/8 6/6/6 61/61/61
f 8/8/8 61/61/61 10/10/10
f 57/57/57 63/63/63 55/55/55
f 64/64/64 63/63/63 57/57/57
f 3/3/3 64/64/64 57/57/57
f 64/64/64 65/65/65 63/63/63
f 65/65/65 64/64/64 66/66/66
f 67/67/67 65/65/65 66/66/66
f 65/65/65 68/68/68 63/63/63
f 63/63/63 68/68/68 69/69/69
f 63/63/63 69/69/69 55/55/55
f 55/55/55 69/69/69 53/53/53
f 69/69/69 70/70/70 53/53/53
f 70/70/70 71/71/71 53/53/53
f 71/71/71 49/49/49 53/53/53
f 71/71/71 70/70/70 72/72/72
f 70/70/70 73/73/73 72/72/72
f 73/73/73 70/70/70 69/69/69
f 74/74/74 73/73/73 69/69/69
f 68/68/68 74/74/74 69/69/69
f 4/4/4 66/66/66 64/64/64
f 3/3/3 4/4/4 64/64/64
f 75/75/75 49/49/49 71/71/71
f 48/48/48 49/49/49 75/75/75
f 30/30/30 76/76/76 13/13/13
f 16/16/16 30/30/30 13/13/13
f 76/76/76 30/30/30 77/77/77
f 77/77/77 30/30/30 78/78/78
f 30/30/30 32/32/32 78/78/78
f 77/77/77 78/78/78 79/79/79
f 80/80/80 77/77/77 79/79/79
f 77/77/77 80/80/80 76/76/76
f 80/80/80 12/12/12 76/76/76
f 76/76/76 12/12/12 13/13/13
f 11/11/11 12/12/12 80/80/80
f 11/11/11 80/80/80 79/79/79
f 81/81/81 11/11/11 79/79/79
f 81/81/81 9/9/9 11/11/11
f 32/32/32 82/82/82 78/78/78
f 82/82/82 32/32/32 31/31/31
f 82/82/82 83/83/83 78/78/78
f 78/78/78 83/83/83 79/79/79
f 84/84/84 82/82/82 31/31/31
f 84/84/84 85/85/85 82/82/82
f 84/84/84 31/31/31 25/25/25
f 86/86/86 84/84/84 25/25/25
f 84/84/84 86/86/86 87/87/87
f 88/88/88 84/84/84 87/87/87
f 85/85/85 84/84/84 88/88/88
f 88/88/88 87/87/87 89/89/89
f 90/90/90 88/88/88 89/89/89
f 86/86/86 25/25/25 91/91/91
f 25/25/25 26/26/26 91/91/91
f 86/86/86 91/91/91 92/92/92
f 87/87/87 86/86/86 92/92/92
f 87/87/87 92/92/92 93/93/93
f 89/89/89 87/87/87 93/93/93
f 89/89/89 93/93/93 94/94/94
f 95/95/95 89/89/89 94/94/94
f 89/89/89 95/95/95 90/90/90
f 26/26/26 33/33/33 91/91/91
f 33/33/33 96/96/96 91/91/91
f 96/96/96 33/33/33 35/35/35
f 97/97/97 96/96/96 35/35/35
f 97/97/97 98/98/98 96/96/96
f 98/98/98 99/99/99 96/96/96
f 99/99/99 92/92/92 91/91/91
f 96/96/96 99/99/99 91/91/91
f 98/98/98 100/100/100 99/99/99
f 100/100/100 101/101/101 99/99/99
f 92/92/92 99/99/99 101/101/101
f 93/93/93 92/92/92 101/101/101
f 93/93/93 101/101/101 102/102/102
f 102/102/102 101/101/101 100/100/100
f 102/102/102 94/94/94 93/93/93
f 103/103/103 102/102/102 100/100/100
f 103/103/103 104/104/104 102/102/102
f 102/102/102 104/104/104 94/94/94
f 103/103/103 105/105/105 104/104/104
f 94/94/94 104/104/104 106/106/106
f 95/95/95 94/94/94 106/106/106
f 104/104/104 107/107/107 106/106/106
f 104/104/104 105/105/105 107/107/107
f 107/107/107 108/108/108 106/106/106
f 108/108/108 109/109/109 106/106/106
f 109/109/109 110/110/110 106/106/106
f 95/95/95 106/106/106 110/110/110
f 111/111/111 95/95/95 110/110/110
f 112/112/112 111/111/111 110/110/110
f 113/113/113 112/112/112 110/110/110
f 114/114/114 112/112/112 113/113/113
f 115/115/115 114/114/114 113/113/113
f 116/116/116 114/114/114 115/115/115
f 117/117/117 116/116/116 115/115/115
f 114/114/114 116/116/116 118/118/118
f 116/116/116 119/119/119 118/118/118
f 118/118/118 119/119/119 120/120/120
f 119/119/119 121/121/121 120/120/120
f 121/121/121 122/122/122 120/120/120
f 123/123/123 112/112/112 114/114/114
f 118/118/118 123/123/123 114/114/114
f 123/123/123 118/118/118 120/120/120
f 123/123/123 111/111/111 112/112/112
f 123/123/123 124/124/124 111/111/111
f 125/125/125 123/123/123 120/120/120
f 120/120/120 122/122/122 125/125/125
f 124/124/124 123/123/123 125/125/125
f 122/122/122 126/126/126 125/125/125
f 124/124/124 90/90/90 111/111/111
f 124/124/124 127/127/127 90/90/90
f 124/124/124 125/125/125 127/127/127
f 127/127/127 125/125/125 126/126/126
f 127/127/127 88/88/88 90/90/90
f 85/85/85 127/127/127 126/126/126
f 127/127/127 85/85/85 88/88/88
f 82/82/82 85/85/85 126/126/126
f 128/128/128 82/82/82 126/126/126
f 122/122/122 129/129/129 126/126/126
f 129/129/129 128/128/128 126/126/126
f 129/129/129 122/122/122 130/130/130
f 82/82/82 128/128/128 83/83/83
f 122/122/122 9/9/9 130/130/130
f 122/122/122 131/131/131 9/9/9
f 131/131/131 7/7/7 9/9/9
f 131/131/131 132/132/132 7/7/7
f 132/132/132 5/5/5 7/7/7
f 132/132/132 133/133/133 5/5/5
f 133/133/133 1/1/1 5/5/5
f 133/133/133 134/134/134 1/1/1
f 134/134/134 135/135/135 1/1/1
f 9/9/9 81/81/81 130/130/130
f 136/136/136 83/83/83 128/128/128
f 129/129/129 136/136/136 128/128/128
f 129/129/129 130/130/130 136/136/136
f 83/83/83 136/136/136 79/79/79
f 130/130/130 81/81/81 79/79/79
f 136/136/136 130/130/130 79/79/79
f 134/134/134 133/133/133 116/116/116
f 117/117/117 134/134/134 116/116/116
f 133/133/133 132/132/132 119/119/119
f 116/116/116 133/133/133 119/119/119
f 132/132/132 131/131/131 121/121/121
f 119/119/119 132/132/132 121/121/121
f 121/121/121 131/131/131 122/122/122
f 137/137/137 134/134/134 117/117/117
f 135/135/135 134/134/134 137/137/137
f 138/138/138 137/137/137 117/117/117
f 138/138/138 117/117/117 115/115/115
f 139/139/139 138/138/138 115/115/115
f 139/139/139 115/115/115 113/113/113
f 140/140/140 139/139/139 113/113/113
f 141/141/141 140/140/140 113/113/113
f 110/110/110 141/141/141 113/113/113
f 140/140/140 141/141/141 142/142/142
f 143/143/143 140/140/140 142/142/142
f 140/140/140 143/143/143 139/139/139
f 143/143/143 144/144/144 139/139/139
f 145/145/145 138/138/138 139/139/139
f 144/144/144 145/145/145 139/139/139
f 146/146/146 137/137/137 138/138/138
f 145/145/145 146/146/146 138/138/138
f 137/137/137 146/146/146 147/147/147
f 146/146/146 148/148/148 147/147/147
f 147/147/147 135/135/135 137/137/137
f 110/110/110 149/149/149 141/141/141
f 110/110/110 109/109/109 149/149/149
f 90/90/90 95/95/95 111/111/111
