g Item_Stele
v -0.1973276 0.2353773 -0.1655904
v -0.2747938 0.172988 -0.06366927
v -0.2289599 0.03822066 0.03715867
v -0.1098735 0.2105418 -0.1797023
v -0.1122672 0.01942742 -0.005508875
v -0.2747938 0.172988 -0.06366927
v -0.1973276 0.2353773 -0.1655904
v -0.2749405 0.2972877 -0.12325
v -0.2749405 0.2972877 -0.12325
v -0.1973276 0.2353773 -0.1655904
v -0.08803256 0.3052438 -0.2371883
v -0.1098735 0.2105418 -0.1797023
v -0.08803256 0.3052438 -0.2371883
v -0.1973276 0.2353773 -0.1655904
v -0.1098735 0.2105418 -0.1797023
v -0.1973276 0.2353773 -0.1655904
v -0.2289599 0.03822066 0.03715867
v -0.2282898 0.3861313 -0.006347192
v -0.2342067 0.3620557 -0.07663406
v -0.1528713 0.4078436 -0.1373555
v -0.2747938 0.172988 -0.06366927
v -0.2749405 0.2972877 -0.12325
v -0.277544 0.2892182 -0.04679488
v -0.2342067 0.3620557 -0.07663406
v -0.2749405 0.2972877 -0.12325
v -0.1241322 0.3851057 -0.2033745
v -0.2381624 0.220753 0.08109178
v -0.277544 0.2892182 -0.04679488
v -0.2374844 0.3640937 0.007393042
v -0.277544 0.2892182 -0.04679488
v -0.2289599 0.03822066 0.03715867
v -0.2747938 0.172988 -0.06366927
v -0.277544 0.2892182 -0.04679488
v -0.2342067 0.3620557 -0.07663406
v -0.2282898 0.3861313 -0.006347192
v -0.2749405 0.2972877 -0.12325
v -0.08803256 0.3052438 -0.2371883
v -0.1241322 0.3851057 -0.2033745
v -0.2342067 0.3620557 -0.07663406
v -0.1241322 0.3851057 -0.2033745
v -0.1528713 0.4078436 -0.1373555
v -0.1241322 0.3851057 -0.2033745
v -0.02527655 0.3635373 -0.2417053
v -0.06068074 0.4136586 -0.1946996
v -0.06068074 0.4136586 -0.1946996
v -0.02527655 0.3635373 -0.2417053
v 0.02237455 0.4270315 -0.2099878
v -0.05255547 0.2874642 -0.2246878
v -0.08803256 0.3052438 -0.2371883
v -0.1098735 0.2105418 -0.1797023
v -0.02527655 0.3635373 -0.2417053
v -0.08803256 0.3052438 -0.2371883
v -0.05255547 0.2874642 -0.2246878
v 0.1136313 0.3356133 -0.1940132
v 0.02237455 0.4270315 -0.2099878
v -0.02527655 0.3635373 -0.2417053
v -0.05255547 0.2874642 -0.2246878
v -0.1098735 0.2105418 -0.1797023
v -0.03340622 0.1701364 -0.2022514
v -0.09267157 0.0778404 -0.119297
v -0.03340622 0.1701364 -0.2022514
v -0.1098735 0.2105418 -0.1797023
v -0.09267157 0.0778404 -0.119297
v -0.1098735 0.2105418 -0.1797023
v -0.1122672 0.01942742 -0.005508875
v -0.07003736 0.002099503 0.06019181
v -0.2289599 0.03822066 0.03715867
v -0.1404515 0.02809199 0.07958237
v 0.07660802 0.1520791 -0.1868123
v -0.03340622 0.1701364 -0.2022514
v 0.01135757 0.06881739 -0.1090126
v -0.09267157 0.0778404 -0.119297
v -0.2125356 0.08065173 0.06269242
v -0.2381624 0.220753 0.08109178
v -0.1854309 0.1453702 0.1057759
v -0.1651807 0.4183805 -0.03961715
v -0.1528713 0.4078436 -0.1373555
v -0.05931792 0.455832 -0.1602919
v -0.08024165 0.4612077 -0.08409957
v -0.2282898 0.3861313 -0.006347192
v 0.02237455 0.4270315 -0.2099878
v 0.1136313 0.3356133 -0.1940132
v 0.119659 0.3755891 -0.09317855
v 0.05176998 0.433798 -0.1050365
v 0.1025753 0.2853705 -0.1844786
v 0.153206 0.2581427 -0.09640029
v 0.1136313 0.3356133 -0.1940132
v 0.1408625 0.1220474 0.0312407
v 0.119659 0.3755891 -0.09317855
v 0.153206 0.2581427 -0.09640029
v 0.143581 0.2146615 -0.1404329
v 0.01135757 0.06881739 -0.1090126
v 0.1617909 0.1612741 -0.07632492
v -0.07003736 0.002099503 0.06019181
v -0.1404515 0.02809199 0.07958237
v -0.005476767 0.0699986 0.09672929
v 0.02122056 0.08755824 0.08064622
v 0.0294758 0.1142275 0.0647789
v 0.1091131 0.02973317 0.03349045
v 0.1091131 0.02973317 0.03349045
v 0.0294758 0.1142275 0.0647789
v 0.1408625 0.1220474 0.0312407
v 0.1619532 0.1615745 -0.07555282
v 0.1091131 0.02973317 0.03349045
v 0.1408625 0.1220474 0.0312407
v 0.1619532 0.1615745 -0.07555282
v 0.153206 0.2581427 -0.09640029
v 0.143581 0.2146615 -0.1404329
v 0.1617909 0.1612741 -0.07632492
v 0.07660802 0.1520791 -0.1868123
v 0.01135757 0.06881739 -0.1090126
v 0.143581 0.2146615 -0.1404329
v 0.07660802 0.1520791 -0.1868123
v 0.143581 0.2146615 -0.1404329
v 0.1025753 0.2853705 -0.1844786
v -0.1528713 0.4078436 -0.1373555
v -0.1241322 0.3851057 -0.2033745
v -0.06068074 0.4136586 -0.1946996
v -0.05931792 0.455832 -0.1602919
v -0.02527655 0.3635373 -0.2417053
v -0.1241322 0.3851057 -0.2033745
v -0.08803256 0.3052438 -0.2371883
v 0.143581 0.2146615 -0.1404329
v 0.153206 0.2581427 -0.09640029
v 0.1025753 0.2853705 -0.1844786
v 0.02237455 0.4270315 -0.2099878
v -0.05931792 0.455832 -0.1602919
v -0.06068074 0.4136586 -0.1946996
v 0.01135757 0.06881739 -0.1090126
v -0.008228747 0.01617766 0.004213721
v 0.1021254 0.01158067 -0.01551193
v 0.1021254 0.01158067 -0.01551193
v 0.1617909 0.1612741 -0.07632492
v 0.01135757 0.06881739 -0.1090126
v 0.1025753 0.2853705 -0.1844786
v -0.05255547 0.2874642 -0.2246878
v -0.03340622 0.1701364 -0.2022514
v 0.07660802 0.1520791 -0.1868123
v -0.1404515 0.02809199 0.07958237
v -0.2289599 0.03822066 0.03715867
v -0.2125356 0.08065173 0.06269242
v 0.01135757 0.06881739 -0.1090126
v -0.09267157 0.0778404 -0.119297
v -0.1122672 0.01942742 -0.005508875
v 0.01135757 0.06881739 -0.1090126
v -0.1122672 0.01942742 -0.005508875
v -0.008228747 0.01617766 0.004213721
v -0.2125356 0.08065173 0.06269242
v -0.2289599 0.03822066 0.03715867
v -0.277544 0.2892182 -0.04679488
v -0.2381624 0.220753 0.08109178
v -0.05931792 0.455832 -0.1602919
v 0.02237455 0.4270315 -0.2099878
v -0.02539076 0.4768894 -0.1066832
v -0.05207321 0.4753241 -0.09880721
v -0.05931792 0.455832 -0.1602919
v -0.02539076 0.4768894 -0.1066832
v -0.05617754 0.4443222 -0.08181838
v -0.05931792 0.455832 -0.1602919
v -0.05207321 0.4753241 -0.09880721
v -0.08024165 0.4612077 -0.08409957
v -0.05931792 0.455832 -0.1602919
v -0.05617754 0.4443222 -0.08181838
v -0.2374844 0.3640937 0.007393042
v -0.277544 0.2892182 -0.04679488
v -0.2282898 0.3861313 -0.006347192
v -0.02539076 0.4768894 -0.1066832
v 0.02237455 0.4270315 -0.2099878
v 0.05176998 0.433798 -0.1050365
v 0.1136313 0.3356133 -0.1940132
v 0.153206 0.2581427 -0.09640029
v 0.119659 0.3755891 -0.09317855
v -0.1404515 0.02809199 0.07958237
v -0.2125356 0.08065173 0.06269242
v -0.114853 0.117762 0.1012267
v -0.005476767 0.0699986 0.09672929
v -0.07003736 0.002099503 0.06019181
v -0.005476767 0.0699986 0.09672929
v 0.02122056 0.08755824 0.08064622
v -0.008228747 0.01617766 0.004213721
v 0.1408625 0.1220474 0.0312407
v 0.153206 0.2581427 -0.09640029
v 0.1619532 0.1615745 -0.07555282
v -0.2342067 0.3620557 -0.07663406
v -0.277544 0.2892182 -0.04679488
v -0.2749405 0.2972877 -0.12325
v -0.008228747 0.01617766 0.004213721
v 0.02122056 0.08755824 0.08064622
v 0.1091131 0.02973317 0.03349045
v -0.008228747 0.01617766 0.004213721
v -0.1122672 0.01942742 -0.005508875
v -0.07003736 0.002099503 0.06019181
v -0.114853 0.117762 0.1012267
v -0.2125356 0.08065173 0.06269242
v -0.1854309 0.1453702 0.1057759
v -0.07003736 0.002099503 0.06019181
v -0.1122672 0.01942742 -0.005508875
v -0.2289599 0.03822066 0.03715867
v 0.1617909 0.1612741 -0.07632492
v 0.1021254 0.01158067 -0.01551193
v 0.1091131 0.02973317 0.03349045
v 0.1619532 0.1615745 -0.07555282
v -0.008228747 0.01617766 0.004213721
v 0.1091131 0.02973317 0.03349045
v 0.1021254 0.01158067 -0.01551193
v -0.05617754 0.4443222 -0.08181838
v -0.05207321 0.4753241 -0.09880721
v -0.02539076 0.4768894 -0.1066832
v 0.1408625 0.1220474 0.0312407
v 0.05176998 0.433798 -0.1050365
v 0.119659 0.3755891 -0.09317855
v 0.0294758 0.1142275 0.0647789
v -0.1651807 0.4183805 -0.03961715
v -0.08024165 0.4612077 -0.08409957
v -0.2374844 0.3640937 0.007393042
v -0.2282898 0.3861313 -0.006347192
v 0.02122056 0.08755824 0.08064622
v -0.005476767 0.0699986 0.09672929
v -0.2381624 0.220753 0.08109178
v -0.114853 0.117762 0.1012267
v -0.1854309 0.1453702 0.1057759
v 0.1136313 0.3356133 -0.1940132
v -0.02527655 0.3635373 -0.2417053
v 0.1025753 0.2853705 -0.1844786
v -0.02527655 0.3635373 -0.2417053
v -0.05255547 0.2874642 -0.2246878
v 0.1025753 0.2853705 -0.1844786
vt 0.3525769 0.6551154
vt 0.353709 0.5967025
vt 0.2931139 0.529394
vt 0.3220481 0.6695314
vt 0.2533961 0.5690497
vt 0.353709 0.5967025
vt 0.3525769 0.6551154
vt 0.3964896 0.641472
vt 0.3964896 0.641472
vt 0.3525769 0.6551154
vt 0.3426271 0.7147562
vt 0.3220481 0.6695314
vt 0.3426271 0.7147562
vt 0.3525769 0.6551154
vt 0.3220481 0.6695314
vt 0.3525769 0.6551154
vt 0.2931139 0.529394
vt 0.6126761 0.6603574
vt 0.4844458 0.669659
vt 0.4573177 0.7510583
vt 0.353709 0.5967025
vt 0.3964896 0.641472
vt 0.434359 0.5970334
vt 0.4844458 0.669659
vt 0.3964896 0.641472
vt 0.3909863 0.7390799
vt 0.4555956 0.4080237
vt 0.434359 0.5970334
vt 0.6043206 0.6182241
vt 0.434359 0.5970334
vt 0.2931139 0.529394
vt 0.353709 0.5967025
vt 0.434359 0.5970334
vt 0.4844458 0.669659
vt 0.6126761 0.6603574
vt 0.3964896 0.641472
vt 0.3426271 0.7147562
vt 0.3909863 0.7390799
vt 0.4844458 0.669659
vt 0.3909863 0.7390799
vt 0.4573177 0.7510583
vt 0.3909863 0.7390799
vt 0.3451878 0.757694
vt 0.3924485 0.7951288
vt 0.3924485 0.7951288
vt 0.3451878 0.757694
vt 0.3520675 0.8273726
vt 0.3273671 0.7192371
vt 0.3426271 0.7147562
vt 0.3220481 0.6695314
vt 0.3451878 0.757694
vt 0.3426271 0.7147562
vt 0.3273671 0.7192371
vt 0.2733453 0.8145345
vt 0.3520675 0.8273726
vt 0.3451878 0.757694
vt 0.3273671 0.7192371
vt 0.3220481 0.6695314
vt 0.2907839 0.6809179
vt 0.2733724 0.6336871
vt 0.2907839 0.6809179
vt 0.3220481 0.6695314
vt 0.2733724 0.6336871
vt 0.3220481 0.6695314
vt 0.2533961 0.5690497
vt 0.2110121 0.5277184
vt 0.2931139 0.529394
vt 0.2474727 0.4945819
vt 0.2542968 0.701759
vt 0.2907839 0.6809179
vt 0.2355077 0.6490059
vt 0.2733724 0.6336871
vt 0.3076519 0.4839562
vt 0.4555956 0.4080237
vt 0.3067694 0.3324547
vt 0.6127924 0.7754785
vt 0.4573177 0.7510583
vt 0.4324813 0.8591216
vt 0.5513586 0.910269
vt 0.6126761 0.6603574
vt 0.3520675 0.8273726
vt 0.2733453 0.8145345
vt 0.2128099 0.9592555
vt 0.3193927 0.9894892
vt 0.2610422 0.781848
vt 0.1775314 0.8198915
vt 0.2733453 0.8145345
vt 0.03321087 0.7120255
vt 0.2128099 0.9592555
vt 0.1775314 0.8198915
vt 0.2088662 0.756408
vt 0.2355077 0.6490059
vt 0.1520974 0.7384834
vt 0.2110121 0.5277184
vt 0.2474727 0.4945819
vt 0.07207052 0.4723999
vt 0.04583271 0.5172423
vt 0.0111772 0.549262
vt 0.1110358 0.6202875
vt 0.1110358 0.6202875
vt 0.0111772 0.549262
vt 0.03321087 0.7120255
vt 0.1512331 0.7388284
vt 0.1110358 0.6202875
vt 0.03321087 0.7120255
vt 0.1512331 0.7388284
vt 0.1775314 0.8198915
vt 0.2088662 0.756408
vt 0.1520974 0.7384834
vt 0.2542968 0.701759
vt 0.2355077 0.6490059
vt 0.2088662 0.756408
vt 0.2542968 0.701759
vt 0.2088662 0.756408
vt 0.2610422 0.781848
vt 0.4573177 0.7510583
vt 0.3909863 0.7390799
vt 0.3924485 0.7951288
vt 0.4324813 0.8591216
vt 0.3451878 0.757694
vt 0.3909863 0.7390799
vt 0.3426271 0.7147562
vt 0.2088662 0.756408
vt 0.1775314 0.8198915
vt 0.2610422 0.781848
vt 0.3520675 0.8273726
vt 0.4324813 0.8591216
vt 0.3924485 0.7951288
vt 0.2355077 0.6490059
vt 0.191307 0.5830713
vt 0.158628 0.630321
vt 0.158628 0.630321
vt 0.1520974 0.7384834
vt 0.2355077 0.6490059
vt 0.2610422 0.781848
vt 0.3273671 0.7192371
vt 0.2907839 0.6809179
vt 0.2542968 0.701759
vt 0.2474727 0.4945819
vt 0.2931139 0.529394
vt 0.3076519 0.4839562
vt 0.2355077 0.6490059
vt 0.2733724 0.6336871
vt 0.2533961 0.5690497
vt 0.2355077 0.6490059
vt 0.2533961 0.5690497
vt 0.191307 0.5830713
vt 0.3076519 0.4839562
vt 0.2931139 0.529394
vt 0.434359 0.5970334
vt 0.4555956 0.4080237
vt 0.4324813 0.8591216
vt 0.3520675 0.8273726
vt 0.4312485 0.9818673
vt 0.4751771 0.9710807
vt 0.4324813 0.8591216
vt 0.4312485 0.9818673
vt 0.5270404 0.9496101
vt 0.4324813 0.8591216
vt 0.4751771 0.9710807
vt 0.5513586 0.910269
vt 0.4324813 0.8591216
vt 0.5270404 0.9496101
vt 0.6043206 0.6182241
vt 0.434359 0.5970334
vt 0.6126761 0.6603574
vt 0.4312485 0.9818673
vt 0.3520675 0.8273726
vt 0.3193927 0.9894892
vt 0.2733453 0.8145345
vt 0.1775314 0.8198915
vt 0.2128099 0.9592555
vt 0.2474727 0.4945819
vt 0.3076519 0.4839562
vt 0.1847569 0.3500101
vt 0.07207052 0.4723999
vt 0.2110121 0.5277184
vt 0.07207052 0.4723999
vt 0.04583271 0.5172423
vt 0.191307 0.5830713
vt 0.03321087 0.7120255
vt 0.1775314 0.8198915
vt 0.1512331 0.7388284
vt 0.4844458 0.669659
vt 0.434359 0.5970334
vt 0.3964896 0.641472
vt 0.191307 0.5830713
vt 0.04583271 0.5172423
vt 0.1110358 0.6202875
vt 0.191307 0.5830713
vt 0.2533961 0.5690497
vt 0.2110121 0.5277184
vt 0.1847569 0.3500101
vt 0.3076519 0.4839562
vt 0.3067694 0.3324547
vt 0.2110121 0.5277184
vt 0.2533961 0.5690497
vt 0.2931139 0.529394
vt 0.1520974 0.7384834
vt 0.158628 0.630321
vt 0.1110358 0.6202875
vt 0.1512331 0.7388284
vt 0.191307 0.5830713
vt 0.1110358 0.6202875
vt 0.158628 0.630321
vt 0.7580049 0.548324
vt 0.7668254 0.5930845
vt 0.8023512 0.5967982
vt 0.9839255 0.09618014
vt 0.8998904 0.5391315
vt 0.9834939 0.4592385
vt 0.8354809 0.07883619
vt 0.6107466 0.5050779
vt 0.7279597 0.5712603
vt 0.5090115 0.4231205
vt 0.5235997 0.455284
vt 0.8216313 0.04007116
vt 0.7843404 0.0133782
vt 0.492474 0.2171749
vt 0.6446267 0.07598977
vt 0.5541208 0.1117762
vt 0.2733453 0.8145345
vt 0.3451878 0.757694
vt 0.2610422 0.781848
vt 0.3451878 0.757694
vt 0.3273671 0.7192371
vt 0.2610422 0.781848
vn -0.377912 -0.6335979 -0.6750824
vn -0.377912 -0.6335979 -0.6750824
vn -0.377912 -0.6335979 -0.6750823
vn -0.3545352 -0.6274448 -0.693266
vn -0.3545352 -0.6274448 -0.6932661
vn -0.6419145 -0.3320475 -0.6911513
vn -0.6419145 -0.3320475 -0.6911513
vn -0.6419145 -0.3320474 -0.6911513
vn -0.5173843 -0.06505616 -0.8532767
vn -0.5173842 -0.06505615 -0.8532767
vn -0.5173843 -0.06505615 -0.8532767
vn -0.2662455 -0.4545594 -0.8499936
vn -0.2662455 -0.4545594 -0.8499936
vn -0.2662455 -0.4545594 -0.8499936
vn -0.2987221 -0.6604771 -0.6888651
vn -0.2987221 -0.6604771 -0.6888651
vn -0.2987221 -0.6604771 -0.6888651
vn -0.5959737 0.7737258 -0.2148575
vn -0.5959737 0.7737259 -0.2148574
vn -0.5959737 0.7737258 -0.2148574
vn -0.9991831 -0.01842018 -0.03596971
vn -0.9991831 -0.01842018 -0.03596971
vn -0.9991831 -0.01842018 -0.03596971
vn -0.6115028 0.6780751 -0.4077724
vn -0.6115029 0.6780751 -0.4077724
vn -0.6115029 0.6780751 -0.4077724
vn -0.9001567 0.2025241 0.3856188
vn -0.9001567 0.2025242 0.3856188
vn -0.9001567 0.2025241 0.3856188
vn -0.9402612 -0.0706012 0.3330531
vn -0.9402612 -0.0706012 0.3330531
vn -0.9402612 -0.0706012 0.3330531
vn -0.8718022 0.4812455 -0.09145282
vn -0.8718022 0.4812456 -0.09145282
vn -0.8718022 0.4812455 -0.09145281
vn -0.520381 0.1225881 -0.8450892
vn -0.520381 0.1225881 -0.8450892
vn -0.5203811 0.1225881 -0.8450892
vn -0.6750918 0.5556735 -0.4852608
vn -0.6750917 0.5556736 -0.4852607
vn -0.6750917 0.5556735 -0.4852608
vn -0.1678809 0.6086708 -0.7754585
vn -0.1678809 0.6086708 -0.7754585
vn -0.1678809 0.6086708 -0.7754585
vn -0.236625 0.5704645 -0.7864979
vn -0.236625 0.5704645 -0.7864979
vn -0.236625 0.5704644 -0.7864979
vn 0.03670108 -0.5247232 -0.8504814
vn 0.03670108 -0.5247233 -0.8504814
vn 0.03670108 -0.5247233 -0.8504814
vn 0.1916159 -0.2791948 -0.9409217
vn 0.1916159 -0.2791948 -0.9409217
vn 0.1916159 -0.2791948 -0.9409217
vn 0.3530429 0.1924245 -0.9156056
vn 0.3530429 0.1924245 -0.9156055
vn 0.3530429 0.1924245 -0.9156056
vn -0.3865719 -0.2336988 -0.8921586
vn -0.3865719 -0.2336988 -0.8921586
vn -0.386572 -0.2336988 -0.8921586
vn -0.4528571 -0.4173413 -0.7878748
vn -0.452857 -0.4173413 -0.7878748
vn -0.4528571 -0.4173413 -0.7878748
vn -0.9242024 -0.2508743 -0.2879444
vn -0.9242024 -0.2508743 -0.2879444
vn -0.9242024 -0.2508743 -0.2879443
vn -0.2531732 -0.9166276 0.3093494
vn -0.2531733 -0.9166277 0.3093494
vn -0.2531733 -0.9166277 0.3093494
vn -0.008474139 -0.6791565 -0.7339445
vn -0.008474138 -0.6791565 -0.7339445
vn -0.008474138 -0.6791565 -0.7339445
vn 0.0146329 -0.6735755 -0.7389736
vn -0.6485622 -0.214542 0.7303005
vn -0.6485621 -0.214542 0.7303005
vn -0.6485621 -0.214542 0.7303005
vn -0.49773 0.8499318 -0.1728602
vn -0.49773 0.8499318 -0.1728602
vn -0.49773 0.8499318 -0.1728602
vn -0.49773 0.8499318 -0.1728602
vn -0.5133202 0.843967 -0.155635
vn 0.6840289 0.6770355 -0.2715281
vn 0.6840288 0.6770355 -0.2715281
vn 0.6840289 0.6770355 -0.2715281
vn 0.6840289 0.6770355 -0.2715281
vn 0.7933899 -0.2774096 -0.541827
vn 0.7933899 -0.2774096 -0.541827
vn 0.7933899 -0.2774096 -0.5418269
vn 0.9025567 0.2481516 0.3518696
vn 0.9025567 0.2481516 0.3518696
vn 0.9025567 0.2481516 0.3518696
vn 0.5003561 -0.5901203 -0.6335628
vn 0.5003561 -0.5901203 -0.6335627
vn 0.5003561 -0.5901202 -0.6335628
vn 0.0488191 -0.508897 0.859442
vn 0.04881911 -0.5088971 0.859442
vn 0.0488191 -0.5088969 0.859442
vn 0.5876143 0.2715915 0.7621991
vn 0.5876144 0.2715915 0.762199
vn 0.5876143 0.2715915 0.762199
vn 0.2924225 -0.07734315 0.9531564
vn 0.2924225 -0.07734315 0.9531564
vn 0.2924225 -0.07734315 0.9531564
vn 0.9440186 -0.3230443 0.06686772
vn 0.9440186 -0.3230443 0.06686774
vn 0.9440186 -0.3230443 0.06686772
vn 0.9686633 0.03464549 -0.2459493
vn 0.9686633 0.03464548 -0.2459493
vn 0.9686633 0.03464548 -0.2459493
vn 0.9720777 0.0587608 -0.2271831
vn 0.7218153 -0.6809925 -0.1234172
vn 0.7218153 -0.6809925 -0.1234172
vn 0.7218153 -0.6809925 -0.1234172
vn 0.6332673 -0.1099578 -0.766082
vn 0.6332673 -0.1099579 -0.766082
vn 0.6332673 -0.1099578 -0.766082
vn -0.4008665 0.7157186 -0.5718853
vn -0.4008666 0.7157186 -0.5718853
vn -0.4008666 0.7157186 -0.5718853
vn -0.4008666 0.7157186 -0.5718853
vn -0.3012555 0.2530789 -0.9193456
vn -0.3012555 0.2530789 -0.9193456
vn -0.3012555 0.2530789 -0.9193456
vn 0.8718775 0.2395529 -0.4271347
vn 0.8718775 0.2395528 -0.4271346
vn 0.8718775 0.2395529 -0.4271347
vn -0.2374668 0.6186735 -0.7489009
vn -0.2374667 0.6186735 -0.7489009
vn -0.2374668 0.6186735 -0.7489009
vn -0.1149678 -0.8930297 -0.4350635
vn -0.1149677 -0.8930297 -0.4350635
vn -0.1149677 -0.8930297 -0.4350635
vn 0.4598892 -0.4853829 -0.743576
vn 0.4598892 -0.4853829 -0.743576
vn 0.4598892 -0.485383 -0.743576
vn 0.1985835 -0.08372956 -0.9765009
vn 0.1985834 -0.08372955 -0.9765009
vn 0.1985835 -0.08372956 -0.9765009
vn 0.1985835 -0.08372955 -0.9765009
vn -0.4382926 -0.3327945 0.8349535
vn -0.4382926 -0.3327945 0.8349535
vn -0.4382926 -0.3327945 0.8349535
vn -0.03138388 -0.8869824 -0.4607357
vn -0.03138388 -0.8869824 -0.4607357
vn -0.03138388 -0.8869824 -0.4607356
vn 0.01090412 -0.9074594 -0.4199983
vn 0.01090412 -0.9074594 -0.4199983
vn 0.01090412 -0.9074594 -0.4199982
vn -0.9390507 -0.1244715 0.3204538
vn -0.9390507 -0.1244716 0.3204539
vn -0.9390507 -0.1244715 0.3204538
vn -0.9390507 -0.1244715 0.3204539
vn 0.07473338 0.9111676 -0.4052019
vn 0.07473338 0.9111676 -0.4052019
vn 0.07473338 0.9111676 -0.405202
vn -0.1395534 0.9485351 -0.2842639
vn -0.1395534 0.9485351 -0.2842639
vn -0.1395534 0.9485351 -0.2842639
vn -0.9842137 0.1651577 0.06361027
vn -0.9842137 0.1651577 0.06361027
vn -0.9842137 0.1651577 0.06361027
vn 0.5654424 0.819005 0.09749673
vn 0.5654424 0.819005 0.09749674
vn 0.5654425 0.819005 0.09749673
vn -0.901603 0.42532 0.07883419
vn -0.901603 0.42532 0.07883419
vn -0.901603 0.42532 0.07883419
vn 0.4817797 0.8554259 -0.1900916
vn 0.4817797 0.8554259 -0.1900916
vn 0.4817798 0.8554259 -0.1900916
vn 0.9470485 0.2750566 -0.1656591
vn 0.9470485 0.2750566 -0.1656591
vn 0.9470485 0.2750566 -0.1656591
vn -0.1686761 -0.1855137 0.9680563
vn -0.1686761 -0.1855137 0.9680563
vn -0.1686761 -0.1855137 0.9680563
vn -0.1686761 -0.1855137 0.9680563
vn 0.5782346 -0.7125762 0.397341
vn 0.5782346 -0.7125763 0.397341
vn 0.5782346 -0.7125762 0.397341
vn 0.5782346 -0.7125762 0.397341
vn 0.960472 0.1390609 0.2411545
vn 0.960472 0.1390609 0.2411545
vn 0.960472 0.1390609 0.2411545
vn -0.8544482 0.5189019 0.02567142
vn -0.8544483 0.5189019 0.02567142
vn -0.8544482 0.5189019 0.02567142
vn -0.09225515 -0.7097515 0.6983852
vn -0.09225514 -0.7097515 0.6983852
vn -0.09225514 -0.7097515 0.6983852
vn -0.006785757 -0.9679804 -0.2509339
vn -0.006785756 -0.9679804 -0.2509339
vn -0.006785756 -0.9679804 -0.2509339
vn -0.1431882 -0.5061849 0.8504552
vn -0.1431882 -0.5061849 0.8504552
vn -0.1431882 -0.5061849 0.8504552
vn -0.2024702 -0.9711498 -0.1259914
vn -0.2024702 -0.9711498 -0.1259914
vn -0.2024702 -0.9711498 -0.1259914
vn 0.9293035 -0.3693012 0.003419648
vn 0.9293035 -0.3693012 0.003419648
vn 0.9293035 -0.3693012 0.003419648
vn 0.9293035 -0.3693012 0.003419649
vn 0.02247652 -0.93853 0.3444651
vn 0.02247652 -0.93853 0.3444651
vn 0.02247652 -0.93853 0.3444651
vn 0.2295709 0.4441841 0.8660241
vn 0.2295709 0.444184 0.8660241
vn 0.2295709 0.4441841 0.8660241
vn 0.2295771 0.4441789 0.8660251
vn 0.229577 0.4441788 0.8660251
vn 0.2295771 0.4441789 0.8660251
vn 0.2295766 0.4441785 0.8660254
vn 0.2295772 0.4441775 0.8660258
vn 0.2295772 0.4441776 0.8660258
vn 0.229579 0.4441804 0.8660238
vn 0.2295783 0.4441739 0.8660274
vn 0.2295685 0.4441748 0.8660295
vn 0.229579 0.4441804 0.8660238
vn 0.229579 0.4441804 0.8660238
vn 0.229579 0.4441804 0.8660238
vn 0.2295698 0.4441703 0.8660314
vn 0.2725363 -0.2369364 -0.9325155
vn 0.2725362 -0.2369364 -0.9325155
vn 0.2725362 -0.2369364 -0.9325155
vn 0.2362711 -0.2920404 -0.9267623
vn 0.2362711 -0.2920405 -0.9267623
vn 0.2362711 -0.2920404 -0.9267623
g Item_Stele_0
f 3/3/3 2/2/2 1/1/1
f 5/5/5 3/3/3 4/4/4
f 8/8/8 7/7/7 6/6/6
f 11/11/11 10/10/10 9/9/9
f 14/14/14 13/13/13 12/12/12
f 17/17/17 16/16/16 15/15/15
f 20/20/20 19/19/19 18/18/18
f 23/23/23 22/22/22 21/21/21
f 26/26/26 25/25/25 24/24/24
f 29/29/29 28/28/28 27/27/27
f 32/32/32 31/31/31 30/30/30
f 35/35/35 34/34/34 33/33/33
f 38/38/38 37/37/37 36/36/36
f 41/41/41 40/40/40 39/39/39
f 44/44/44 43/43/43 42/42/42
f 47/47/47 46/46/46 45/45/45
f 50/50/50 49/49/49 48/48/48
f 53/53/53 52/52/52 51/51/51
f 56/56/56 55/55/55 54/54/54
f 59/59/59 58/58/58 57/57/57
f 62/62/62 61/61/61 60/60/60
f 65/65/65 64/64/64 63/63/63
f 68/68/68 67/67/67 66/66/66
f 71/71/71 70/70/70 69/69/69
f 72/72/72 70/70/70 71/71/71
f 75/75/75 74/74/74 73/73/73
f 78/78/78 77/77/77 76/76/76
f 79/79/79 78/78/78 76/76/76
f 76/76/76 77/77/77 80/80/80
f 83/83/83 82/82/82 81/81/81
f 84/84/84 83/83/83 81/81/81
f 87/87/87 86/86/86 85/85/85
f 90/90/90 89/89/89 88/88/88
f 93/93/93 92/92/92 91/91/91
f 96/96/96 95/95/95 94/94/94
f 99/99/99 98/98/98 97/97/97
f 102/102/102 101/101/101 100/100/100
f 105/105/105 104/104/104 103/103/103
f 108/108/108 107/107/107 106/106/106
f 106/106/106 109/109/109 108/108/108
f 112/112/112 111/111/111 110/110/110
f 115/115/115 114/114/114 113/113/113
f 118/118/118 117/117/117 116/116/116
f 119/119/119 118/118/118 116/116/116
f 122/122/122 121/121/121 120/120/120
f 125/125/125 124/124/124 123/123/123
f 128/128/128 127/127/127 126/126/126
f 131/131/131 130/130/130 129/129/129
f 134/134/134 133/133/133 132/132/132
f 137/137/137 136/136/136 135/135/135
f 138/138/138 137/137/137 135/135/135
f 141/141/141 140/140/140 139/139/139
f 144/144/144 143/143/143 142/142/142
f 147/147/147 146/146/146 145/145/145
f 150/150/150 149/149/149 148/148/148
f 151/151/151 150/150/150 148/148/148
f 154/154/154 153/153/153 152/152/152
f 157/157/157 156/156/156 155/155/155
f 160/160/160 159/159/159 158/158/158
f 163/163/163 162/162/162 161/161/161
f 166/166/166 165/165/165 164/164/164
f 169/169/169 168/168/168 167/167/167
f 172/172/172 171/171/171 170/170/170
f 175/175/175 174/174/174 173/173/173
f 176/176/176 175/175/175 173/173/173
f 179/179/179 178/178/178 177/177/177
f 180/180/180 179/179/179 177/177/177
f 183/183/183 182/182/182 181/181/181
f 186/186/186 185/185/185 184/184/184
f 189/189/189 188/188/188 187/187/187
f 192/192/192 191/191/191 190/190/190
f 195/195/195 194/194/194 193/193/193
f 198/198/198 197/197/197 196/196/196
f 201/201/201 200/200/200 199/199/199
f 202/202/202 201/201/201 199/199/199
f 205/205/205 204/204/204 203/203/203
f 208/208/208 207/207/207 206/206/206
f 208/208/208 206/206/206 209/209/209
f 208/208/208 209/209/209 210/210/210
f 209/209/209 211/211/211 210/210/210
f 206/206/206 212/212/212 209/209/209
f 206/206/206 213/213/213 212/212/212
f 206/206/206 214/214/214 213/213/213
f 213/213/213 215/215/215 212/212/212
f 213/213/213 216/216/216 215/215/215
f 215/215/215 217/217/217 212/212/212
f 215/215/215 218/218/218 217/217/217
f 215/215/215 219/219/219 218/218/218
f 219/219/219 220/220/220 218/218/218
f 219/219/219 221/221/221 220/220/220
f 224/224/224 223/223/223 222/222/222
f 227/227/227 226/226/226 225/225/225
