g Light02
v 0.06274974 1.8295 -0.08893095
v 0.1025878 1.8295 -0.04909284
v 0.1084496 1.839317 -0.0579514
v 0.06978237 1.839317 -0.09661862
v 0.08893095 1.8295 0.06274974
v 0.04909284 1.8295 0.1025878
v 0.0579514 1.839317 0.1084496
v 0.09661862 1.839317 0.06978237
v -0.06274974 1.8295 0.08893095
v -0.1025878 1.8295 0.04909284
v -0.1084496 1.839317 0.0579514
v -0.06978237 1.839317 0.09661862
v -0.08893095 1.8295 -0.06274974
v -0.04909284 1.8295 -0.1025878
v -0.0579514 1.839317 -0.1084496
v -0.09661862 1.839317 -0.06978237
v -0.08104417 1.949889 -0.2505853
v -0.1333074 1.932526 -0.1722877
v -0.0951902 1.88924 -0.1454953
v -0.05464918 1.88924 -0.1860363
v -0.1731455 1.932526 -0.1324496
v -0.2524587 1.949889 -0.07917087
v -0.1875418 1.88924 -0.05314367
v -0.1459159 1.88924 -0.09476957
v -0.2524587 1.949889 -0.07917087
v -0.08104417 1.949889 -0.2505853
v -0.05499948 2.003566 -0.1476631
v -0.1476033 2.003566 -0.0550593
v -0.02341329 2.513693 -0.001866893
v -0.1476033 2.003566 -0.0550593
v -0.05499948 2.003566 -0.1476631
v -0.00181308 2.513693 -0.02346709
v 0.2505853 1.949889 -0.08104417
v 0.1722877 1.932526 -0.1333074
v 0.1454953 1.88924 -0.0951902
v 0.1860363 1.88924 -0.05464918
v 0.1324496 1.932526 -0.1731455
v 0.07917087 1.949889 -0.2524587
v 0.05314367 1.88924 -0.1875418
v 0.09476957 1.88924 -0.1459159
v 0.07917087 1.949889 -0.2524587
v 0.2505853 1.949889 -0.08104417
v 0.1476631 2.003566 -0.05499948
v 0.0550593 2.003566 -0.1476033
v 0.001866893 2.513693 -0.02341329
v 0.0550593 2.003566 -0.1476033
v 0.1476631 2.003566 -0.05499948
v 0.02346709 2.513693 -0.00181308
v -0.2505853 1.949889 0.08104417
v -0.1722877 1.932526 0.1333074
v -0.1454953 1.88924 0.0951902
v -0.1860363 1.88924 0.05464918
v -0.1324496 1.932526 0.1731455
v -0.07917087 1.949889 0.2524587
v -0.05314367 1.88924 0.1875418
v -0.09476957 1.88924 0.1459159
v -0.07917087 1.949889 0.2524587
v -0.2505853 1.949889 0.08104417
v -0.1476631 2.003566 0.05499948
v -0.0550593 2.003566 0.1476033
v -0.001866893 2.513693 0.02341329
v -0.0550593 2.003566 0.1476033
v -0.1476631 2.003566 0.05499948
v -0.02346709 2.513693 0.00181308
v 0.08104417 1.949889 0.2505853
v 0.1333074 1.932526 0.1722877
v 0.0951902 1.88924 0.1454953
v 0.05464918 1.88924 0.1860363
v 0.1731455 1.932526 0.1324496
v 0.2524587 1.949889 0.07917087
v 0.1875418 1.88924 0.05314367
v 0.1459159 1.88924 0.09476957
v 0.2524587 1.949889 0.07917087
v 0.08104417 1.949889 0.2505853
v 0.05499948 2.003566 0.1476631
v 0.1476033 2.003566 0.0550593
v 0.02341329 2.513693 0.001866893
v 0.1476033 2.003566 0.0550593
v 0.05499948 2.003566 0.1476631
v 0.00181308 2.513693 0.02346709
v 0 1.726898 0.5620562
v -0.01502594 1.73883 0.3221878
v 0.01502594 1.73883 0.3221878
v 0.5620562 1.726898 1.248016E-16
v 0.3221878 1.73883 0.01502594
v 0.3221878 1.73883 -0.01502594
v 6.883204E-17 1.726898 -0.5620562
v 0.01502594 1.73883 -0.3221878
v -0.01502594 1.73883 -0.3221878
v -0.5620562 1.726898 -1.248016E-16
v -0.3221878 1.73883 -0.01502594
v -0.3221878 1.73883 0.01502594
v -0.00981336 0.8884426 -0.3878211
v -0.00981336 0.2315624 -0.482479
v 0.00981336 0.2315624 -0.482479
v 0.00981336 0.8884426 -0.3878211
v -0.3878211 0.8884426 0.00981336
v -0.482479 0.2315624 0.00981336
v -0.482479 0.2315624 -0.00981336
v -0.3878211 0.8884426 -0.00981336
v 0.3878211 0.8884426 -0.00981336
v 0.482479 0.2315624 -0.00981336
v 0.482479 0.2315624 0.00981336
v 0.3878211 0.8884426 0.00981336
v 0.00981336 0.8884426 0.3878211
v 0.00981336 0.2315624 0.482479
v -0.00981336 0.2315624 0.482479
v -0.00981336 0.8884426 0.3878211
v 0.2807421 1.721717 -0.1457159
v 0.278314 1.772375 -0.1444525
v 0.1444525 1.772375 -0.2783139
v 0.1459916 1.721717 -0.2804665
v -0.2789947 1.772375 0.1437719
v -0.2506786 1.789861 0.1325966
v -0.1325966 1.789861 0.2506785
v -0.1437719 1.772375 0.2789946
v -0.2814541 1.721717 0.145004
v -0.2789947 1.772375 0.1437719
v -0.1437719 1.772375 0.2789946
v -0.1452796 1.721717 0.2811784
v 0.131811 1.789861 -0.2514641
v 0.1444525 1.772375 -0.2783139
v 0.278314 1.772375 -0.1444525
v 0.2514642 1.789861 -0.131811
vt 0.9160138 0.9624296
vt 0.9457824 0.9624296
vt 0.9448162 0.9545144
vt 0.9158972 0.9545144
vt 0.9160138 0.9624296
vt 0.9457824 0.9624296
vt 0.9448162 0.9545144
vt 0.9158972 0.9545144
vt 0.9160138 0.9624296
vt 0.9457824 0.9624296
vt 0.9448162 0.9545144
vt 0.9158972 0.9545144
vt 0.9160138 0.9624296
vt 0.9457824 0.9624296
vt 0.9448162 0.9545144
vt 0.9158972 0.9545144
vt 0.5422394 0.8792276
vt 0.5157036 0.8867939
vt 0.5176209 0.9056586
vt 0.5339427 0.9056586
vt 0.499614 0.8867939
vt 0.4729382 0.8792276
vt 0.4804403 0.9056587
vt 0.497199 0.9056587
vt 0.4729382 0.8792276
vt 0.5422394 0.8792276
vt 0.5271976 0.8467768
vt 0.4896852 0.846777
vt 0.9778549 0.1560418
vt 0.9757705 0.3114501
vt 0.9855153 0.3114499
vt 0.9801407 0.1560418
vt 0.5422394 0.8792276
vt 0.5157036 0.8867939
vt 0.5176209 0.9056586
vt 0.5339427 0.9056586
vt 0.499614 0.8867939
vt 0.4729382 0.8792276
vt 0.4804403 0.9056587
vt 0.497199 0.9056587
vt 0.4729382 0.8792276
vt 0.5422394 0.8792276
vt 0.5271976 0.8467768
vt 0.4896852 0.846777
vt 0.9778549 0.1560418
vt 0.9757705 0.3114501
vt 0.9855153 0.3114499
vt 0.9801407 0.1560418
vt 0.5422394 0.8792276
vt 0.5157036 0.8867939
vt 0.5176209 0.9056586
vt 0.5339427 0.9056586
vt 0.499614 0.8867939
vt 0.4729382 0.8792276
vt 0.4804403 0.9056587
vt 0.497199 0.9056587
vt 0.4729382 0.8792276
vt 0.5422394 0.8792276
vt 0.5271976 0.8467768
vt 0.4896852 0.846777
vt 0.9778549 0.1560418
vt 0.9757705 0.3114501
vt 0.9855153 0.3114499
vt 0.9801407 0.1560418
vt 0.5422394 0.8792276
vt 0.5157036 0.8867939
vt 0.5176209 0.9056586
vt 0.5339427 0.9056586
vt 0.499614 0.8867939
vt 0.4729382 0.8792276
vt 0.4804403 0.9056587
vt 0.497199 0.9056587
vt 0.4729382 0.8792276
vt 0.5422394 0.8792276
vt 0.5271976 0.8467768
vt 0.4896852 0.846777
vt 0.9778549 0.1560418
vt 0.9757705 0.3114501
vt 0.9855153 0.3114499
vt 0.9801407 0.1560418
vt 0.6566175 0.4856838
vt 0.6471171 0.5547033
vt 0.666118 0.5547034
vt 0.6566175 0.4856838
vt 0.6471171 0.5547033
vt 0.666118 0.5547034
vt 0.6566175 0.4856838
vt 0.6471171 0.5547033
vt 0.666118 0.5547034
vt 0.6566175 0.4856838
vt 0.6471171 0.5547033
vt 0.666118 0.5547034
vt 0.5069267 0.4531977
vt 0.5069267 0.5121055
vt 0.5263049 0.5121055
vt 0.5263049 0.4531977
vt 0.5069267 0.4531977
vt 0.5069267 0.5121055
vt 0.5263049 0.5121055
vt 0.5263049 0.4531977
vt 0.5069267 0.4531977
vt 0.5069267 0.5121055
vt 0.5263049 0.5121055
vt 0.5263049 0.4531977
vt 0.5069267 0.4531977
vt 0.5069267 0.5121055
vt 0.5263049 0.5121055
vt 0.5263049 0.4531977
vt 0.3395982 0.4959489
vt 0.3496467 0.4956799
vt 0.3496467 0.4458448
vt 0.3395983 0.4456633
vt 0.3496467 0.4956799
vt 0.3561721 0.4933523
vt 0.3561721 0.4481723
vt 0.3496467 0.4458448
vt 0.3395982 0.4959489
vt 0.3496467 0.4956799
vt 0.3496467 0.4458448
vt 0.3395983 0.4456633
vt 0.3561721 0.4481723
vt 0.3496467 0.4458448
vt 0.3496467 0.4956799
vt 0.3561721 0.4933523
vn 0.485161 -0.7274922 -0.4851535
vn 0.485161 -0.7274921 -0.4851536
vn 0.485161 -0.7274921 -0.4851535
vn 0.485161 -0.7274921 -0.4851536
vn 0.485159 -0.7274896 0.4851594
vn 0.485159 -0.7274896 0.4851594
vn 0.485159 -0.7274896 0.4851594
vn 0.485159 -0.7274896 0.4851594
vn -0.485161 -0.7274922 0.4851535
vn -0.485161 -0.7274921 0.4851536
vn -0.485161 -0.7274921 0.4851535
vn -0.485161 -0.7274921 0.4851536
vn -0.485159 -0.7274896 -0.4851594
vn -0.485159 -0.7274896 -0.4851594
vn -0.485159 -0.7274896 -0.4851594
vn -0.485159 -0.7274896 -0.4851594
vn -0.4851532 -0.7274957 -0.485156
vn -0.485154 -0.7274938 -0.4851581
vn -0.4851529 -0.7274964 -0.4851552
vn -0.4851529 -0.7274964 -0.4851552
vn -0.4851544 -0.7274945 -0.4851566
vn -0.485154 -0.7274969 -0.4851534
vn -0.4851538 -0.7274979 -0.4851522
vn -0.4851538 -0.7274978 -0.4851522
vn -0.3586865 0.8617939 -0.3586855
vn -0.3586865 0.8617939 -0.3586855
vn -0.3586865 0.8617939 -0.3586855
vn -0.3586865 0.8617939 -0.3586856
vn -0.686655 0.2387651 -0.6866558
vn -0.686655 0.2387651 -0.6866556
vn -0.686655 0.2387651 -0.6866556
vn -0.686655 0.2387651 -0.6866558
vn 0.4851551 -0.727497 -0.4851522
vn 0.4851558 -0.7274957 -0.4851536
vn 0.4851549 -0.7274975 -0.4851516
vn 0.4851549 -0.7274975 -0.4851516
vn 0.4851544 -0.7274958 -0.4851547
vn 0.4851528 -0.7274972 -0.4851542
vn 0.4851522 -0.7274978 -0.485154
vn 0.4851522 -0.7274978 -0.485154
vn 0.3586862 0.8617931 -0.3586876
vn 0.3586863 0.8617931 -0.3586876
vn 0.3586862 0.8617931 -0.3586876
vn 0.3586862 0.8617931 -0.3586876
vn 0.6866556 0.2387652 -0.6866552
vn 0.6866556 0.2387652 -0.6866552
vn 0.6866556 0.2387652 -0.6866552
vn 0.6866555 0.2387652 -0.6866552
vn -0.4851551 -0.727497 0.4851522
vn -0.4851558 -0.7274957 0.4851536
vn -0.4851549 -0.7274975 0.4851516
vn -0.4851549 -0.7274975 0.4851516
vn -0.4851544 -0.7274958 0.4851547
vn -0.4851528 -0.7274972 0.4851542
vn -0.4851522 -0.7274978 0.485154
vn -0.4851522 -0.7274978 0.485154
vn -0.3586862 0.8617931 0.3586876
vn -0.3586863 0.8617931 0.3586876
vn -0.3586862 0.8617931 0.3586876
vn -0.3586862 0.8617931 0.3586876
vn -0.6866556 0.2387652 0.6866552
vn -0.6866556 0.2387652 0.6866552
vn -0.6866556 0.2387652 0.6866552
vn -0.6866555 0.2387652 0.6866552
vn 0.4851532 -0.7274957 0.485156
vn 0.485154 -0.7274938 0.4851581
vn 0.4851529 -0.7274964 0.4851552
vn 0.4851529 -0.7274964 0.4851552
vn 0.4851544 -0.7274945 0.4851566
vn 0.485154 -0.7274969 0.4851534
vn 0.4851538 -0.7274979 0.4851522
vn 0.4851538 -0.7274978 0.4851522
vn 0.3586865 0.8617939 0.3586855
vn 0.3586865 0.8617939 0.3586855
vn 0.3586865 0.8617939 0.3586855
vn 0.3586865 0.8617939 0.3586856
vn 0.686655 0.2387651 0.6866558
vn 0.686655 0.2387651 0.6866556
vn 0.686655 0.2387651 0.6866556
vn 0.686655 0.2387651 0.6866558
vn 0 0.998765 0.04968284
vn 0 0.998765 0.04968284
vn 0 0.998765 0.04968284
vn 0.04968342 0.998765 0
vn 0.04968342 0.998765 0
vn 0.04968342 0.998765 0
vn 0 0.998765 -0.04968284
vn 0 0.998765 -0.04968284
vn 0 0.998765 -0.04968284
vn -0.04968342 0.998765 0
vn -0.04968342 0.998765 0
vn -0.04968342 0.998765 0
vn 0 0.142629 -0.9897763
vn 0 0.142629 -0.9897763
vn 0 0.142629 -0.9897763
vn 0 0.142629 -0.9897763
vn -0.9897763 0.1426289 0
vn -0.9897763 0.1426289 0
vn -0.9897763 0.1426289 0
vn -0.9897763 0.1426289 0
vn 0.9897763 0.1426289 0
vn 0.9897763 0.1426289 0
vn 0.9897763 0.1426289 0
vn 0.9897763 0.1426289 0
vn 0 0.142629 0.9897763
vn 0 0.142629 0.9897763
vn 0 0.142629 0.9897763
vn 0 0.142629 0.9897763
vn 0.706169 0.05145966 -0.7061708
vn 0.706169 0.05145965 -0.7061708
vn 0.706169 0.05145966 -0.7061708
vn 0.706169 0.05145966 -0.7061708
vn -0.375276 0.8475466 0.3752768
vn -0.375276 0.8475466 0.3752768
vn -0.375276 0.8475466 0.3752768
vn -0.375276 0.8475466 0.3752768
vn -0.706171 0.0514598 0.7061688
vn -0.706171 0.0514598 0.7061688
vn -0.706171 0.0514598 0.7061689
vn -0.706171 0.0514598 0.7061689
vn 0.3752762 0.8475465 -0.3752768
vn 0.3752761 0.8475466 -0.3752768
vn 0.3752761 0.8475465 -0.3752768
vn 0.3752761 0.8475466 -0.3752768
g Light02_0
f 3/3/3 2/2/2 1/1/1
f 4/4/4 3/3/3 1/1/1
f 7/7/7 6/6/6 5/5/5
f 8/8/8 7/7/7 5/5/5
f 11/11/11 10/10/10 9/9/9
f 12/12/12 11/11/11 9/9/9
f 15/15/15 14/14/14 13/13/13
f 16/16/16 15/15/15 13/13/13
f 19/19/19 18/18/18 17/17/17
f 20/20/20 19/19/19 17/17/17
f 18/18/18 21/21/21 17/17/17
f 21/21/21 22/22/22 17/17/17
f 23/23/23 22/22/22 21/21/21
f 24/24/24 23/23/23 21/21/21
f 27/27/27 26/26/26 25/25/25
f 28/28/28 27/27/27 25/25/25
f 31/31/31 30/30/30 29/29/29
f 32/32/32 31/31/31 29/29/29
f 35/35/35 34/34/34 33/33/33
f 36/36/36 35/35/35 33/33/33
f 34/34/34 37/37/37 33/33/33
f 37/37/37 38/38/38 33/33/33
f 39/39/39 38/38/38 37/37/37
f 40/40/40 39/39/39 37/37/37
f 43/43/43 42/42/42 41/41/41
f 44/44/44 43/43/43 41/41/41
f 47/47/47 46/46/46 45/45/45
f 48/48/48 47/47/47 45/45/45
f 51/51/51 50/50/50 49/49/49
f 52/52/52 51/51/51 49/49/49
f 50/50/50 53/53/53 49/49/49
f 53/53/53 54/54/54 49/49/49
f 55/55/55 54/54/54 53/53/53
f 56/56/56 55/55/55 53/53/53
f 59/59/59 58/58/58 57/57/57
f 60/60/60 59/59/59 57/57/57
f 63/63/63 62/62/62 61/61/61
f 64/64/64 63/63/63 61/61/61
f 67/67/67 66/66/66 65/65/65
f 68/68/68 67/67/67 65/65/65
f 66/66/66 69/69/69 65/65/65
f 69/69/69 70/70/70 65/65/65
f 71/71/71 70/70/70 69/69/69
f 72/72/72 71/71/71 69/69/69
f 75/75/75 74/74/74 73/73/73
f 76/76/76 75/75/75 73/73/73
f 79/79/79 78/78/78 77/77/77
f 80/80/80 79/79/79 77/77/77
f 83/83/83 82/82/82 81/81/81
f 86/86/86 85/85/85 84/84/84
f 89/89/89 88/88/88 87/87/87
f 92/92/92 91/91/91 90/90/90
f 95/95/95 94/94/94 93/93/93
f 96/96/96 95/95/95 93/93/93
f 99/99/99 98/98/98 97/97/97
f 100/100/100 99/99/99 97/97/97
f 103/103/103 102/102/102 101/101/101
f 104/104/104 103/103/103 101/101/101
f 107/107/107 106/106/106 105/105/105
f 108/108/108 107/107/107 105/105/105
f 111/111/111 110/110/110 109/109/109
f 112/112/112 111/111/111 109/109/109
f 115/115/115 114/114/114 113/113/113
f 116/116/116 115/115/115 113/113/113
f 119/119/119 118/118/118 117/117/117
f 120/120/120 119/119/119 117/117/117
f 123/123/123 122/122/122 121/121/121
f 124/124/124 123/123/123 121/121/121
