g MC_050_Shield
v 0.3973157 1.276814 0.3632548
v 0.3722518 1.312945 0.4002475
v 0.4214625 1.425409 0.3253934
v 0.45037 1.368476 0.2851161
v 0.3234066 1.19568 0.4726649
v 0.2797798 1.20872 0.4964544
v 0.276067 1.098579 0.5369513
v 0.2491106 1.110223 0.551753
v 0.2946431 1.077137 0.5158052
v 0.3512657 1.179694 0.4405041
v 0.2105429 1.212112 0.497785
v 0.1897056 1.110663 0.5527064
v 0.1339239 1.211299 0.4901756
v 0.1204625 1.104742 0.5490662
v 0.2411329 1.350765 0.4217378
v 0.1557439 1.355674 0.4123598
v 0.3201895 1.338501 0.4235924
v 0.272154 1.481248 0.3470732
v 0.3613571 1.46516 0.34985
v 0.1781099 1.484265 0.3400333
v 0.2134797 1.616281 0.2530115
v 0.3056692 1.607957 0.2618234
v 0.2489009 1.714866 0.1725021
v 0.3343922 1.710859 0.1789738
v 0.3988199 1.585406 0.2622592
v 0.4145353 1.691514 0.1679518
v 0.4640634 1.528663 0.2325269
v 0.3988199 1.585406 0.2622592
v 0.4436663 1.660563 0.1230659
v 0.4976476 1.608348 0.1116559
v 0.4976382 1.456687 0.1865623
v 0.5070307 1.475361 0.1554771
v 0.3654318 1.817619 0.07453845
v 0.4285401 1.790865 0.06974323
v 0.4145353 1.691514 0.1679518
v 0.4285401 1.790865 0.06974323
v 0.4388829 1.78902 0.02970261
v 0.3055433 1.825018 0.06496312
v 0.2863247 1.811088 0.07675964
v 0.2208744 1.038908 0.5859225
v 0.171728 1.027222 0.5960504
v 0.2587329 1.070098 0.559307
v 0.218117 1.006758 0.5809837
v 0.171728 1.027222 0.5960504
v 0.1694811 0.9929331 0.5934119
v 0.2662225 1.040449 0.5470558
v 0.1204827 1.022249 0.5952919
v 0.1139002 1.029876 0.5904618
v 0.1204827 1.022249 0.5952919
v 0.1041883 0.989856 0.5926136
v 0.08997221 1.008774 0.5782363
v 0.1139002 1.029876 0.5904618
v 0.1204827 1.022249 0.5952919
v 0.1041883 0.989856 0.5926136
v 0.1204625 1.104742 0.5490662
v 0.09517238 1.084414 0.5309482
v 0.1339239 1.211299 0.4901756
v 0.1082731 1.191339 0.4729841
v 0.1557439 1.355674 0.4123598
v 0.1290079 1.335247 0.3953303
v 0.1781099 1.484265 0.3400333
v 0.1502244 1.462145 0.3239589
v 0.2134797 1.616281 0.2530115
v 0.1843945 1.591097 0.2390023
v 0.2489009 1.714866 0.1725021
v 0.2191738 1.686386 0.1611913
v 0.2621324 1.806998 0.04605544
v 0.2863247 1.811088 0.07675964
v 0.3055433 1.825018 0.06496312
v 0.2940738 1.826772 0.02118149
v 0.3654318 1.817619 0.07453845
v 0.3055433 1.825018 0.06496312
v 0.2940738 1.826772 0.02118149
v 0.3661695 1.819966 0.02378868
v 0.4285401 1.790865 0.06974323
v 0.4388829 1.78902 0.02970261
v -0.3973157 1.276814 0.3632548
v -0.45037 1.368476 0.2851161
v -0.4214625 1.425409 0.3253934
v -0.3722518 1.312945 0.4002475
v -0.3234066 1.19568 0.4726649
v -0.2797798 1.20872 0.4964544
v -0.276067 1.098579 0.5369513
v -0.2491106 1.110223 0.551753
v -0.2946431 1.077137 0.5158052
v -0.3512657 1.179694 0.4405041
v -0.2105429 1.212112 0.497785
v -0.1897056 1.110663 0.5527064
v -0.1339239 1.211299 0.4901756
v -0.1204625 1.104742 0.5490662
v -0.2411329 1.350765 0.4217378
v -0.1557439 1.355674 0.4123598
v -0.3201895 1.338501 0.4235924
v -0.272154 1.481248 0.3470732
v -0.3613571 1.46516 0.34985
v -0.1781099 1.484265 0.3400333
v -0.2134797 1.616281 0.2530115
v -0.3056692 1.607957 0.2618234
v -0.2489009 1.714866 0.1725021
v -0.3343922 1.710859 0.1789738
v -0.3988199 1.585406 0.2622592
v -0.4145353 1.691514 0.1679518
v -0.4640634 1.528663 0.2325269
v -0.3988199 1.585406 0.2622592
v -0.4436663 1.660563 0.1230659
v -0.4976476 1.608348 0.1116559
v -0.4976382 1.456687 0.1865623
v -0.5070307 1.475361 0.1554771
v -0.3654318 1.817619 0.07453845
v -0.4285401 1.790865 0.06974323
v -0.4145353 1.691514 0.1679518
v -0.4285401 1.790865 0.06974323
v -0.4388829 1.78902 0.02970261
v -0.3055433 1.825018 0.06496312
v -0.2863247 1.811088 0.07675964
v -0.171728 1.027222 0.5960504
v -0.2208744 1.038908 0.5859225
v -0.2587329 1.070098 0.559307
v -0.218117 1.006758 0.5809837
v -0.171728 1.027222 0.5960504
v -0.1694811 0.9929331 0.5934119
v -0.2662225 1.040449 0.5470558
v -0.1204827 1.022249 0.5952919
v -0.1139002 1.029876 0.5904618
v -0.1204827 1.022249 0.5952919
v -0.1041883 0.989856 0.5926136
v -0.08997221 1.008774 0.5782363
v -0.1041883 0.989856 0.5926136
v -0.1204827 1.022249 0.5952919
v -0.1139002 1.029876 0.5904618
v -0.1204625 1.104742 0.5490662
v -0.09517238 1.084414 0.5309482
v -0.1339239 1.211299 0.4901756
v -0.1082731 1.191339 0.4729841
v -0.1557439 1.355674 0.4123598
v -0.1290079 1.335247 0.3953303
v -0.1781099 1.484265 0.3400333
v -0.1502244 1.462145 0.3239589
v -0.2134797 1.616281 0.2530115
v -0.1843945 1.591097 0.2390023
v -0.2489009 1.714866 0.1725021
v -0.2191738 1.686386 0.1611913
v -0.2621324 1.806998 0.04605544
v -0.2863247 1.811088 0.07675964
v -0.3055433 1.825018 0.06496312
v -0.2940738 1.826772 0.02118149
v -0.3654318 1.817619 0.07453845
v -0.3661695 1.819966 0.02378868
v -0.2940738 1.826772 0.02118149
v -0.3055433 1.825018 0.06496312
v -0.4285401 1.790865 0.06974323
v -0.4388829 1.78902 0.02970261
vt 0.7936003 0.1705694
vt 0.7716103 0.1747693
vt 0.7810667 0.2289984
vt 0.808714 0.219978
vt 0.7621927 0.118847
vt 0.7424654 0.116032
vt 0.7509422 0.07150058
vt 0.7383327 0.07122003
vt 0.7644259 0.06856127
vt 0.7798094 0.1206523
vt 0.7159457 0.112158
vt 0.7160999 0.06716552
vt 0.686474 0.1078984
vt 0.6903035 0.06080422
vt 0.7166541 0.1743422
vt 0.6834791 0.1719678
vt 0.7474669 0.1753715
vt 0.7183788 0.2330598
vt 0.7526538 0.2330063
vt 0.6824546 0.2295798
vt 0.6864618 0.2918142
vt 0.7220424 0.2923587
vt 0.6933472 0.3424031
vt 0.7264093 0.3437072
vt 0.7582021 0.29037
vt 0.7584656 0.3446557
vt 0.7919137 0.2829382
vt 0.7582021 0.29037
vt 0.7823353 0.3490206
vt 0.8099236 0.337489
vt 0.8256997 0.2724836
vt 0.8315187 0.2864774
vt 0.7311195 0.4016174
vt 0.7578547 0.3981614
vt 0.7584656 0.3446557
vt 0.7578547 0.3981614
vt 0.767835 0.4109097
vt 0.7083704 0.4039629
vt 0.7017916 0.3964969
vt 0.733184 0.04016079
vt 0.7162457 0.03106712
vt 0.7454688 0.05712827
vt 0.7367439 0.0280828
vt 0.7162457 0.03106712
vt 0.7182409 0.01776156
vt 0.7547667 0.04826693
vt 0.6976688 0.02593237
vt 0.6946625 0.02865599
vt 0.6976688 0.02593237
vt 0.6925563 0.01287709
vt 0.6841163 0.0209351
vt 0.6946625 0.02865599
vt 0.6976688 0.02593237
vt 0.6925563 0.01287709
vt 0.6903035 0.06080422
vt 0.6771893 0.0549731
vt 0.686474 0.1078984
vt 0.6733649 0.1022681
vt 0.6834791 0.1719678
vt 0.6699542 0.166297
vt 0.6824546 0.2295798
vt 0.668438 0.2238474
vt 0.6864618 0.2918142
vt 0.6717083 0.2857627
vt 0.6933472 0.3424031
vt 0.6776757 0.3363616
vt 0.6880885 0.4042199
vt 0.7017916 0.3964969
vt 0.7083704 0.4039629
vt 0.700868 0.4208347
vt 0.7311195 0.4016174
vt 0.7083704 0.4039629
vt 0.700868 0.4208347
vt 0.7333832 0.4221766
vt 0.7578547 0.3981614
vt 0.767835 0.4109097
vt 0.7936003 0.1705694
vt 0.808714 0.219978
vt 0.7810667 0.2289984
vt 0.7716103 0.1747693
vt 0.7621927 0.118847
vt 0.7424654 0.116032
vt 0.7509422 0.07150058
vt 0.7383327 0.07122003
vt 0.7644259 0.06856127
vt 0.7798094 0.1206523
vt 0.7159457 0.112158
vt 0.7160999 0.06716552
vt 0.686474 0.1078984
vt 0.6903035 0.06080422
vt 0.7166541 0.1743422
vt 0.6834791 0.1719678
vt 0.7474669 0.1753715
vt 0.7183788 0.2330598
vt 0.7526538 0.2330063
vt 0.6824546 0.2295798
vt 0.6864618 0.2918142
vt 0.7220424 0.2923587
vt 0.6933472 0.3424031
vt 0.7264093 0.3437072
vt 0.7582021 0.29037
vt 0.7584656 0.3446557
vt 0.7919137 0.2829382
vt 0.7582021 0.29037
vt 0.7823353 0.3490206
vt 0.8099236 0.337489
vt 0.8256997 0.2724836
vt 0.8315187 0.2864774
vt 0.7311195 0.4016174
vt 0.7578547 0.3981614
vt 0.7584656 0.3446557
vt 0.7578547 0.3981614
vt 0.767835 0.4109097
vt 0.7083704 0.4039629
vt 0.7017916 0.3964969
vt 0.7162457 0.03106712
vt 0.733184 0.04016079
vt 0.7454688 0.05712827
vt 0.7367439 0.0280828
vt 0.7162457 0.03106712
vt 0.7182409 0.01776156
vt 0.7547667 0.04826693
vt 0.6976688 0.02593237
vt 0.6946625 0.02865599
vt 0.6976688 0.02593237
vt 0.6925563 0.01287709
vt 0.6841163 0.0209351
vt 0.6925563 0.01287709
vt 0.6976688 0.02593237
vt 0.6946625 0.02865599
vt 0.6903035 0.06080422
vt 0.6771893 0.0549731
vt 0.686474 0.1078984
vt 0.6733649 0.1022681
vt 0.6834791 0.1719678
vt 0.6699542 0.166297
vt 0.6824546 0.2295798
vt 0.668438 0.2238474
vt 0.6864618 0.2918142
vt 0.6717083 0.2857627
vt 0.6933472 0.3424031
vt 0.6776757 0.3363616
vt 0.6880885 0.4042199
vt 0.7017916 0.3964969
vt 0.7083704 0.4039629
vt 0.700868 0.4208347
vt 0.7311195 0.4016174
vt 0.7333832 0.4221766
vt 0.700868 0.4208347
vt 0.7083704 0.4039629
vt 0.7578547 0.3981614
vt 0.767835 0.4109097
vn 0.8195015 0.02555927 0.5725069
vn 0.6730925 0.1780942 0.7177945
vn 0.7173518 0.2122144 0.6636049
vn 0.8488239 0.05413959 0.5258962
vn 0.658586 0.1785832 0.7310079
vn 0.2393618 0.4134784 0.8784882
vn 0.6693724 0.1501878 0.7275879
vn 0.1905665 0.4198246 0.8873734
vn 0.7699099 0.03218346 0.6373406
vn 0.7979942 0.04771839 0.600773
vn -0.02739531 0.4834089 0.8749659
vn -0.03160948 0.4753963 0.8792037
vn -0.08334543 0.4882255 0.8687286
vn -0.08303189 0.4853193 0.8703855
vn -0.01007459 0.4892373 0.8720925
vn -0.0679854 0.4943999 0.8665718
vn 0.2586084 0.4156114 0.8720028
vn 0.01622442 0.5288792 0.848542
vn 0.3090652 0.4555189 0.8348541
vn -0.04694761 0.5303438 0.8464818
vn -0.03070278 0.5910366 0.8060603
vn 0.0580167 0.5894761 0.8056997
vn -0.02565706 0.6669444 0.7446656
vn 0.102619 0.6550572 0.7485783
vn 0.144703 0.5788997 0.8024563
vn 0.2379863 0.6251019 0.7433775
vn 0.7608633 0.3281483 0.5598265
vn 0.6487025 0.4462906 0.6164494
vn 0.7559472 0.4424166 0.4825053
vn 0.7343155 0.4636295 0.4958109
vn 0.8859818 0.131368 0.4447233
vn 0.9072526 0.1862059 0.3771206
vn 0.1186029 0.6834156 0.7203308
vn 0.2846966 0.6397138 0.7139426
vn 0.8817185 0.2466117 0.4021879
vn 0.9346342 0.2221372 0.2776941
vn 0.9495723 0.2067109 0.2357604
vn -0.02940122 0.7050903 0.7085078
vn -0.02940122 0.7050903 0.7085078
vn 0.2470596 0.2323563 0.9407296
vn -0.03761837 0.467567 0.8831568
vn 0.6434439 0.02735174 0.7650044
vn 0.4185356 -0.1436887 0.8967617
vn 0.1331423 -0.1055258 0.9854631
vn 0.0962973 -0.09830955 0.9904857
vn 0.7000816 -0.1042539 0.7064112
vn -0.07521082 0.4803522 0.873845
vn -0.07521082 0.4803522 0.873845
vn -0.007980553 -0.07727496 0.9969779
vn -0.007980553 -0.07727496 0.9969779
vn -0.6738051 0.3570156 0.6469362
vn -0.6810976 0.3684788 0.6327159
vn -0.5381556 0.1749268 0.8244933
vn -0.5381556 0.1749268 0.8244933
vn -0.7105005 0.402064 0.5775236
vn -0.7080231 0.4020006 0.580602
vn -0.7047918 0.4117236 0.577713
vn -0.707926 0.408725 0.5760074
vn -0.6945214 0.4306521 0.5763496
vn -0.6966461 0.4251308 0.5778824
vn -0.6935316 0.490129 0.5280034
vn -0.6927781 0.4706448 0.5463992
vn -0.7021872 0.5581038 0.4421011
vn -0.6985009 0.5376588 0.4722496
vn -0.6862209 0.6139949 0.3900143
vn -0.6951634 0.6002847 0.3954822
vn -0.6335744 0.692894 0.3442111
vn -0.6424186 0.6806421 0.3521717
vn -0.4445189 0.8763883 0.1853283
vn -0.4445189 0.8763883 0.1853282
vn 0.2595845 0.9647539 0.04319452
vn 0.1040929 0.994075 0.03129924
vn 0.1040929 0.994075 0.03129924
vn 0.250569 0.9671645 0.04252119
vn 0.3900935 0.919266 0.05269799
vn 0.3900936 0.919266 0.052698
vn -0.8195017 0.02555918 0.5725065
vn -0.8488242 0.05413999 0.5258958
vn -0.7173517 0.2122148 0.6636048
vn -0.6730926 0.1780945 0.7177944
vn -0.6585864 0.1785837 0.7310073
vn -0.2393615 0.4134793 0.8784879
vn -0.6693731 0.150188 0.7275873
vn -0.1905667 0.4198255 0.887373
vn -0.7699104 0.03218329 0.6373399
vn -0.7979941 0.0477181 0.6007731
vn 0.02739576 0.4834092 0.8749657
vn 0.03160969 0.475397 0.8792034
vn 0.08334593 0.4882257 0.8687285
vn 0.08303195 0.48532 0.8703851
vn 0.01007488 0.4892373 0.8720925
vn 0.06798581 0.4944001 0.8665717
vn -0.2586081 0.4156116 0.8720028
vn -0.01622432 0.5288796 0.8485417
vn -0.309065 0.4555193 0.8348539
vn 0.04694805 0.5303443 0.8464814
vn 0.03070336 0.5910378 0.8060593
vn -0.05801656 0.589477 0.805699
vn 0.02565763 0.6669456 0.7446645
vn -0.1026189 0.6550577 0.7485778
vn -0.1447032 0.5789002 0.8024559
vn -0.2379868 0.6251019 0.7433774
vn -0.7608634 0.3281486 0.5598262
vn -0.6487027 0.4462911 0.6164487
vn -0.7559471 0.442417 0.4825051
vn -0.7343153 0.4636295 0.4958111
vn -0.8859816 0.1313683 0.4447234
vn -0.9072526 0.1862058 0.377121
vn -0.1186027 0.6834156 0.7203308
vn -0.2846968 0.6397135 0.7139428
vn -0.8817183 0.2466132 0.4021875
vn -0.934634 0.2221382 0.2776938
vn -0.9495722 0.2067117 0.2357602
vn 0.02940162 0.7050904 0.7085076
vn 0.02940162 0.7050904 0.7085076
vn 0.03761814 0.4675677 0.8831565
vn -0.2470589 0.2323572 0.9407296
vn -0.6434444 0.02735254 0.765004
vn -0.4185358 -0.1436882 0.8967617
vn -0.1331422 -0.1055255 0.9854631
vn -0.09629734 -0.09830931 0.9904858
vn -0.7000824 -0.1042535 0.7064105
vn 0.07521019 0.480353 0.8738446
vn 0.07521018 0.4803529 0.8738446
vn 0.007980647 -0.0772749 0.9969779
vn 0.007980647 -0.07727491 0.9969779
vn 0.6738058 0.357016 0.6469353
vn 0.538156 0.1749275 0.8244929
vn 0.538156 0.1749275 0.8244928
vn 0.6810982 0.3684789 0.6327151
vn 0.7104998 0.4020642 0.5775244
vn 0.7080227 0.4020009 0.5806023
vn 0.7047907 0.411724 0.577714
vn 0.7079248 0.4087255 0.5760086
vn 0.6945216 0.4306524 0.576349
vn 0.6966458 0.4251312 0.5778824
vn 0.6935318 0.4901292 0.5280029
vn 0.6927785 0.470645 0.5463983
vn 0.7021865 0.5581041 0.4421018
vn 0.6985004 0.537659 0.47225
vn 0.6862201 0.6139954 0.3900149
vn 0.6951625 0.600285 0.3954831
vn 0.6335736 0.6928949 0.3442109
vn 0.642418 0.6806425 0.3521717
vn 0.4445179 0.8763892 0.1853265
vn 0.4445179 0.8763892 0.1853265
vn -0.2595862 0.9647535 0.04319367
vn -0.2505707 0.967164 0.04252049
vn -0.1040951 0.9940747 0.03130105
vn -0.1040951 0.9940747 0.03130105
vn -0.3900949 0.9192656 0.05269486
vn -0.3900949 0.9192656 0.05269486
g MC_050_Shield_0
f 3/3/3 2/2/2 1/1/1
f 4/4/4 3/3/3 1/1/1
f 2/2/2 5/5/5 1/1/1
f 6/6/6 5/5/5 2/2/2
f 5/5/5 6/6/6 7/7/7
f 6/6/6 8/8/8 7/7/7
f 5/5/5 7/7/7 9/9/9
f 10/10/10 5/5/5 9/9/9
f 5/5/5 10/10/10 1/1/1
f 6/6/6 11/11/11 8/8/8
f 11/11/11 12/12/12 8/8/8
f 11/11/11 13/13/13 12/12/12
f 13/13/13 14/14/14 12/12/12
f 13/13/13 11/11/11 15/15/15
f 16/16/16 13/13/13 15/15/15
f 17/17/17 6/6/6 2/2/2
f 11/11/11 6/6/6 17/17/17
f 15/15/15 11/11/11 17/17/17
f 17/17/17 2/2/2 3/3/3
f 18/18/18 15/15/15 17/17/17
f 16/16/16 15/15/15 18/18/18
f 19/19/19 18/18/18 17/17/17
f 20/20/20 16/16/16 18/18/18
f 20/20/20 18/18/18 21/21/21
f 18/18/18 22/22/22 21/21/21
f 18/18/18 19/19/19 22/22/22
f 21/21/21 22/22/22 23/23/23
f 22/22/22 24/24/24 23/23/23
f 22/22/22 25/25/25 24/24/24
f 19/19/19 25/25/25 22/22/22
f 25/25/25 26/26/26 24/24/24
f 19/19/19 17/17/17 3/3/3
f 3/3/3 27/27/27 19/19/19
f 27/27/27 28/28/28 19/19/19
f 28/28/28 27/27/27 29/29/29
f 27/27/27 30/30/30 29/29/29
f 27/27/27 31/31/31 30/30/30
f 31/31/31 32/32/32 30/30/30
f 4/4/4 31/31/31 27/27/27
f 3/3/3 4/4/4 27/27/27
f 24/24/24 26/26/26 33/33/33
f 26/26/26 34/34/34 33/33/33
f 35/35/35 28/28/28 29/29/29
f 35/35/35 29/29/29 36/36/36
f 37/37/37 36/36/36 29/29/29
f 24/24/24 33/33/33 38/38/38
f 38/38/38 23/23/23 24/24/24
f 38/38/38 39/39/39 23/23/23
f 41/41/41 40/40/40 8/8/8
f 12/12/12 41/41/41 8/8/8
f 8/8/8 40/40/40 42/42/42
f 40/40/40 43/43/43 42/42/42
f 40/40/40 44/44/44 43/43/43
f 44/44/44 45/45/45 43/43/43
f 43/43/43 46/46/46 42/42/42
f 42/42/42 46/46/46 7/7/7
f 8/8/8 42/42/42 7/7/7
f 46/46/46 9/9/9 7/7/7
f 41/41/41 12/12/12 14/14/14
f 14/14/14 47/47/47 41/41/41
f 14/14/14 48/48/48 47/47/47
f 44/44/44 49/49/49 45/45/45
f 49/49/49 50/50/50 45/45/45
f 53/53/53 52/52/52 51/51/51
f 54/54/54 53/53/53 51/51/51
f 51/51/51 52/52/52 55/55/55
f 56/56/56 51/51/51 55/55/55
f 56/56/56 55/55/55 57/57/57
f 58/58/58 56/56/56 57/57/57
f 58/58/58 57/57/57 59/59/59
f 60/60/60 58/58/58 59/59/59
f 60/60/60 59/59/59 61/61/61
f 62/62/62 60/60/60 61/61/61
f 62/62/62 61/61/61 63/63/63
f 64/64/64 62/62/62 63/63/63
f 64/64/64 63/63/63 65/65/65
f 66/66/66 64/64/64 65/65/65
f 66/66/66 65/65/65 67/67/67
f 65/65/65 68/68/68 67/67/67
f 67/67/67 68/68/68 69/69/69
f 70/70/70 67/67/67 69/69/69
f 73/73/73 72/72/72 71/71/71
f 74/74/74 73/73/73 71/71/71
f 74/74/74 71/71/71 75/75/75
f 76/76/76 74/74/74 75/75/75
f 79/79/79 78/78/78 77/77/77
f 80/80/80 79/79/79 77/77/77
f 81/81/81 80/80/80 77/77/77
f 81/81/81 82/82/82 80/80/80
f 82/82/82 81/81/81 83/83/83
f 84/84/84 82/82/82 83/83/83
f 83/83/83 81/81/81 85/85/85
f 81/81/81 86/86/86 85/85/85
f 86/86/86 81/81/81 77/77/77
f 87/87/87 82/82/82 84/84/84
f 88/88/88 87/87/87 84/84/84
f 89/89/89 87/87/87 88/88/88
f 90/90/90 89/89/89 88/88/88
f 87/87/87 89/89/89 91/91/91
f 89/89/89 92/92/92 91/91/91
f 82/82/82 93/93/93 80/80/80
f 87/87/87 91/91/91 93/93/93
f 82/82/82 87/87/87 93/93/93
f 80/80/80 93/93/93 79/79/79
f 91/91/91 94/94/94 93/93/93
f 91/91/91 92/92/92 94/94/94
f 94/94/94 95/95/95 93/93/93
f 92/92/92 96/96/96 94/94/94
f 94/94/94 96/96/96 97/97/97
f 98/98/98 94/94/94 97/97/97
f 95/95/95 94/94/94 98/98/98
f 98/98/98 97/97/97 99/99/99
f 100/100/100 98/98/98 99/99/99
f 101/101/101 98/98/98 100/100/100
f 101/101/101 95/95/95 98/98/98
f 102/102/102 101/101/101 100/100/100
f 93/93/93 95/95/95 79/79/79
f 103/103/103 79/79/79 95/95/95
f 104/104/104 103/103/103 95/95/95
f 103/103/103 104/104/104 105/105/105
f 106/106/106 103/103/103 105/105/105
f 107/107/107 103/103/103 106/106/106
f 108/108/108 107/107/107 106/106/106
f 78/78/78 79/79/79 103/103/103
f 107/107/107 78/78/78 103/103/103
f 102/102/102 100/100/100 109/109/109
f 110/110/110 102/102/102 109/109/109
f 104/104/104 111/111/111 105/105/105
f 105/105/105 111/111/111 112/112/112
f 112/112/112 113/113/113 105/105/105
f 114/114/114 109/109/109 100/100/100
f 115/115/115 114/114/114 100/100/100
f 100/100/100 99/99/99 115/115/115
f 116/116/116 88/88/88 84/84/84
f 117/117/117 116/116/116 84/84/84
f 117/117/117 84/84/84 118/118/118
f 119/119/119 117/117/117 118/118/118
f 120/120/120 117/117/117 119/119/119
f 121/121/121 120/120/120 119/119/119
f 122/122/122 119/119/119 118/118/118
f 122/122/122 118/118/118 83/83/83
f 118/118/118 84/84/84 83/83/83
f 85/85/85 122/122/122 83/83/83
f 88/88/88 116/116/116 123/123/123
f 90/90/90 88/88/88 123/123/123
f 123/123/123 124/124/124 90/90/90
f 125/125/125 120/120/120 121/121/121
f 126/126/126 125/125/125 121/121/121
f 129/129/129 128/128/128 127/127/127
f 130/130/130 129/129/129 127/127/127
f 130/130/130 127/127/127 131/131/131
f 127/127/127 132/132/132 131/131/131
f 131/131/131 132/132/132 133/133/133
f 132/132/132 134/134/134 133/133/133
f 133/133/133 134/134/134 135/135/135
f 134/134/134 136/136/136 135/135/135
f 135/135/135 136/136/136 137/137/137
f 136/136/136 138/138/138 137/137/137
f 137/137/137 138/138/138 139/139/139
f 138/138/138 140/140/140 139/139/139
f 139/139/139 140/140/140 141/141/141
f 140/140/140 142/142/142 141/141/141
f 141/141/141 142/142/142 143/143/143
f 144/144/144 141/141/141 143/143/143
f 144/144/144 143/143/143 145/145/145
f 143/143/143 146/146/146 145/145/145
f 149/149/149 148/148/148 147/147/147
f 150/150/150 149/149/149 147/147/147
f 147/147/147 148/148/148 151/151/151
f 148/148/148 152/152/152 151/151/151
