g Model
v 0.4391567 0.4391567 0.7319279
v 0.2927711 0.4391567 0.8783134
v -0.2927712 0.4391567 0.8783134
v -0.4391567 0.4391567 0.7319279
v 0.4391567 0.4391567 0.1463856
v -0.4391567 0.4391567 0.1463856
v -0.2927712 0.4391567 4.891035E-09
v 0.2927711 0.4391567 4.891035E-09
v 0.4391567 0.2927711 0.8783134
v 0.2927711 0.4391567 0.8783134
v 0.4391567 0.4391567 0.7319279
v -0.4391567 0.2927711 -1.507682E-09
v -0.2927712 0.4391567 4.891035E-09
v -0.4391567 0.4391567 0.1463856
v 0.4391567 0.4391567 0.1463856
v 0.2927711 0.4391567 4.891035E-09
v 0.4391567 0.2927711 -1.507682E-09
v -0.4391567 0.4391567 0.7319279
v -0.2927712 0.4391567 0.8783134
v -0.4391567 0.2927711 0.8783134
v 0.4391567 0.2927711 -1.507682E-09
v 0.2927711 0.4391567 4.891035E-09
v -0.2927712 0.4391567 4.891035E-09
v -0.4391567 0.2927711 -1.507682E-09
v -0.4391567 -0.2927711 -1.279743E-08
v 0.4391567 -0.2927711 -1.279743E-08
v -0.2927712 -0.4391567 -1.919615E-08
v 0.2927711 -0.4391567 -1.919615E-08
v 0.4391567 0.4391567 0.7319279
v 0.4391567 0.4391567 0.1463856
v 0.4391567 0.2927711 -1.507682E-09
v 0.4391567 0.2927711 0.8783134
v 0.4391567 -0.2927711 -1.279743E-08
v 0.4391567 -0.2927712 0.8783134
v 0.4391567 -0.4391567 0.7319279
v 0.4391567 -0.4391567 0.1463856
v -0.2927712 0.4391567 0.8783134
v 0.2927711 0.4391567 0.8783134
v 0.4391567 0.2927711 0.8783134
v -0.4391567 0.2927711 0.8783134
v 0.4391567 -0.2927712 0.8783134
v -0.4391567 -0.2927712 0.8783134
v -0.2927712 -0.4391567 0.8783134
v 0.2927711 -0.4391567 0.8783134
v -0.4391567 0.2927711 -1.507682E-09
v -0.4391567 0.4391567 0.1463856
v -0.4391567 0.4391567 0.7319279
v -0.4391567 0.2927711 0.8783134
v -0.4391567 -0.2927712 0.8783134
v -0.4391567 -0.2927711 -1.279743E-08
v -0.4391567 -0.4391567 0.7319279
v -0.4391567 -0.4391567 0.1463856
v 0.4391567 -0.4391567 0.7319279
v -0.4391567 -0.4391567 0.7319279
v -0.2927712 -0.4391567 0.8783134
v 0.2927711 -0.4391567 0.8783134
v 0.4391567 -0.4391567 0.1463856
v -0.4391567 -0.4391567 0.1463856
v -0.2927712 -0.4391567 -1.919615E-08
v 0.2927711 -0.4391567 -1.919615E-08
v 0.4391567 -0.2927712 0.8783134
v 0.4391567 -0.4391567 0.7319279
v 0.2927711 -0.4391567 0.8783134
v -0.4391567 -0.2927711 -1.279743E-08
v -0.4391567 -0.4391567 0.1463856
v -0.2927712 -0.4391567 -1.919615E-08
v 0.4391567 -0.4391567 0.1463856
v 0.4391567 -0.2927711 -1.279743E-08
v 0.2927711 -0.4391567 -1.919615E-08
v -0.4391567 -0.4391567 0.7319279
v -0.4391567 -0.2927712 0.8783134
v -0.2927712 -0.4391567 0.8783134
vt 0.985523 0.8064393
vt 0.9084331 0.9608738
vt 0.6014311 0.9608738
vt 0.5246127 0.8064393
vt 0.985523 0.1887011
vt 0.5246127 0.1887011
vt 0.6014311 0.03426555
vt 0.9084331 0.03426555
vt 0.4480181 0.9861328
vt 0.5566557 0.9861332
vt 0.502337 0.8363891
vt 0.4480181 0.01438595
vt 0.5574346 0.01438595
vt 0.502337 0.1667979
vt 0.502337 0.1667979
vt 0.4480181 0.01438595
vt 0.5574346 0.01438595
vt 0.502337 0.8363891
vt 0.5566558 0.9861332
vt 0.4480183 0.9861328
vt 0.4771188 0.1864683
vt 0.4003004 0.03203374
vt 0.09302673 0.03203374
vt 0.01620832 0.1864683
vt 0.01620832 0.8042063
vt 0.4771188 0.8042063
vt 0.09302673 0.9586412
vt 0.4003004 0.9586412
vt 0.985523 0.8064383
vt 0.985523 0.1887001
vt 0.9084331 0.03426558
vt 0.9084331 0.9608738
vt 0.6014311 0.03426558
vt 0.6014311 0.9608738
vt 0.5246127 0.8064383
vt 0.5246127 0.1887001
vt 0.4771188 0.8042069
vt 0.4771188 0.186468
vt 0.4003004 0.03203374
vt 0.4003004 0.9586414
vt 0.09302673 0.03203374
vt 0.09302673 0.9586414
vt 0.01620826 0.8042069
vt 0.01620826 0.186468
vt 0.9084331 0.03426558
vt 0.985523 0.1887011
vt 0.985523 0.8064393
vt 0.9084331 0.9608738
vt 0.6014311 0.9608738
vt 0.6014311 0.03426558
vt 0.5246127 0.8064393
vt 0.5246127 0.1887011
vt 0.985523 0.8064382
vt 0.5246127 0.8064382
vt 0.6014311 0.9608734
vt 0.9087048 0.9608734
vt 0.985523 0.1887001
vt 0.5246127 0.1887001
vt 0.6014311 0.03426558
vt 0.9087048 0.03426558
vt 0.5566557 0.9861332
vt 0.502337 0.8363891
vt 0.4480183 0.9861328
vt 0.5574346 0.01438596
vt 0.5023369 0.1667982
vt 0.4480183 0.01438595
vt 0.502337 0.1667979
vt 0.5574346 0.0143856
vt 0.4480181 0.01438595
vt 0.502337 0.8363891
vt 0.4480181 0.9861328
vt 0.5566557 0.9861332
vn 0 1 0
vn 0 1 0
vn 0 1 0
vn 0 1 0
vn 0 1 0
vn 0 1 0
vn 0 1 0
vn 0 1 0
vn 0.5771595 0.5773503 0.577541
vn 0.5773503 0.5771595 0.577541
vn 0.5772231 0.5772231 0.5776046
vn -0.5772244 0.5774152 -0.577411
vn -0.5774153 0.5772245 -0.577411
vn -0.5772866 0.5772866 -0.5774775
vn 0.5772866 0.5772866 -0.5774775
vn 0.5774153 0.5772245 -0.577411
vn 0.5772245 0.5774153 -0.577411
vn -0.5772231 0.5772231 0.5776046
vn -0.5773503 0.5771595 0.577541
vn -0.5771595 0.5773503 0.577541
vn 0 0 -1
vn 0 0 -1
vn 0 0 -1
vn 0 0 -1
vn 0 0 -1
vn 0 0 -1
vn 0 0 -1
vn 0 0 -1
vn 1 0 0
vn 1 0 0
vn 1 0 0
vn 1 0 0
vn 1 0 0
vn 1 0 0
vn 1 0 0
vn 1 0 0
vn 0 0 1
vn 0 0 1
vn 0 0 1
vn 0 0 1
vn 0 0 1
vn 0 0 1
vn 0 0 1
vn 0 0 1
vn -1 0 0
vn -1 0 0
vn -1 0 0
vn -1 0 0
vn -1 0 0
vn -1 0 0
vn -1 0 0
vn -1 0 0
vn 0 -1 0
vn 0 -1 0
vn 0 -1 0
vn 0 -1 0
vn 0 -1 0
vn 0 -1 0
vn 0 -1 0
vn 0 -1 0
vn 0.5771595 -0.5773503 0.577541
vn 0.5772231 -0.5772231 0.5776046
vn 0.5773503 -0.5771595 0.577541
vn -0.5772245 -0.5774153 -0.577411
vn -0.5772866 -0.5772866 -0.5774775
vn -0.5774153 -0.5772245 -0.577411
vn 0.5772866 -0.5772866 -0.5774775
vn 0.5772245 -0.5774153 -0.577411
vn 0.5774153 -0.5772245 -0.577411
vn -0.5772231 -0.5772231 0.5776046
vn -0.5771595 -0.5773503 0.577541
vn -0.5773503 -0.5771595 0.577541
g Model_0
f 3/3/3 2/2/2 1/1/1
f 4/4/4 3/3/3 1/1/1
f 4/4/4 1/1/1 5/5/5
f 6/6/6 4/4/4 5/5/5
f 6/6/6 5/5/5 7/7/7
f 5/5/5 8/8/8 7/7/7
f 11/11/11 10/10/10 9/9/9
f 14/14/14 13/13/13 12/12/12
f 17/17/17 16/16/16 15/15/15
f 20/20/20 19/19/19 18/18/18
f 23/23/23 22/22/22 21/21/21
f 24/24/24 23/23/23 21/21/21
f 25/25/25 24/24/24 21/21/21
f 26/26/26 25/25/25 21/21/21
f 27/27/27 25/25/25 26/26/26
f 28/28/28 27/27/27 26/26/26
f 31/31/31 30/30/30 29/29/29
f 32/32/32 31/31/31 29/29/29
f 33/33/33 31/31/31 32/32/32
f 34/34/34 33/33/33 32/32/32
f 33/33/33 34/34/34 35/35/35
f 36/36/36 33/33/33 35/35/35
f 39/39/39 38/38/38 37/37/37
f 40/40/40 39/39/39 37/37/37
f 41/41/41 39/39/39 40/40/40
f 42/42/42 41/41/41 40/40/40
f 41/41/41 42/42/42 43/43/43
f 44/44/44 41/41/41 43/43/43
f 47/47/47 46/46/46 45/45/45
f 48/48/48 47/47/47 45/45/45
f 49/49/49 48/48/48 45/45/45
f 50/50/50 49/49/49 45/45/45
f 51/51/51 49/49/49 50/50/50
f 52/52/52 51/51/51 50/50/50
f 55/55/55 54/54/54 53/53/53
f 56/56/56 55/55/55 53/53/53
f 53/53/53 54/54/54 57/57/57
f 54/54/54 58/58/58 57/57/57
f 57/57/57 58/58/58 59/59/59
f 60/60/60 57/57/57 59/59/59
f 63/63/63 62/62/62 61/61/61
f 66/66/66 65/65/65 64/64/64
f 69/69/69 68/68/68 67/67/67
f 72/72/72 71/71/71 70/70/70
