g Model
v 0.4391567 0.7319279 -0.4391567
v 0.2927711 0.8783134 -0.4391567
v -0.2927711 0.8783134 -0.4391567
v -0.4391566 0.7319279 -0.4391567
v 0.4391567 0.1463856 -0.4391567
v -0.4391566 0.1463856 -0.4391567
v -0.2927711 -1E-08 -0.4391567
v 0.2927711 -1E-08 -0.4391567
v 0.4391567 0.8783134 -0.2927712
v 0.2927711 0.8783134 -0.4391567
v 0.4391567 0.7319279 -0.4391567
v -0.4391566 -1E-08 -0.2927711
v -0.2927711 -1E-08 -0.4391567
v -0.4391566 0.1463856 -0.4391567
v 0.4391567 0.1463856 -0.4391567
v 0.2927711 -1E-08 -0.4391567
v 0.4391567 -1E-08 -0.2927711
v -0.4391566 0.7319279 -0.4391567
v -0.2927711 0.8783134 -0.4391567
v -0.4391567 0.8783134 -0.2927712
v 0.4391567 -1E-08 -0.2927711
v 0.2927711 -1E-08 -0.4391567
v -0.2927711 -1E-08 -0.4391567
v -0.4391566 -1E-08 -0.2927711
v 0.4391567 0.8783134 0.2927711
v 0.4391567 0.7319279 0.4391567
v 0.2927711 0.8783134 0.4391567
v -0.4391566 0 0.2927711
v -0.4391566 0.1463856 0.4391567
v -0.2927711 0 0.4391567
v 0.4391567 -1E-08 -0.2927711
v -0.4391566 -1E-08 -0.2927711
v -0.4391566 0 0.2927711
v 0.4391567 0 0.2927711
v 0.4391567 0.1463856 0.4391567
v 0.4391567 0 0.2927711
v 0.2927711 0 0.4391567
v -0.4391566 0.7319279 0.4391567
v -0.4391567 0.8783134 0.2927711
v -0.2927711 0.8783134 0.4391567
v 0.4391567 0 0.2927711
v -0.4391566 0 0.2927711
v -0.2927711 0 0.4391567
v 0.2927711 0 0.4391567
v -0.3512436 0.8655526 0.3512436
v -0.2848825 0.8655526 0.4176046
v -0.2927711 0.8783134 0.4391567
v -0.4391567 0.8783134 0.2927711
v -0.4176046 0.8655526 0.2848825
v -0.2927711 0.8783134 -0.4391567
v -0.2848825 0.8655526 -0.4176047
v -0.3512436 0.8655526 -0.3512436
v -0.4391567 0.8783134 -0.2927712
v -0.4176046 0.8655526 -0.2848826
v -0.4391567 0.8783134 -0.2927712
v -0.4176046 0.8655526 -0.2848826
v -0.4176046 0.8655526 0.2848825
v -0.4391567 0.8783134 0.2927711
v -0.2927711 0.8783134 0.4391567
v -0.2848825 0.8655526 0.4176046
v 0.2848825 0.8655526 0.4176046
v 0.2927711 0.8783134 0.4391567
v 0.2927711 0.8783134 -0.4391567
v 0.2848825 0.8655526 -0.4176047
v -0.2848825 0.8655526 -0.4176047
v -0.2927711 0.8783134 -0.4391567
v 0.4391567 0.8783134 0.2927711
v 0.4176046 0.8655526 0.2848825
v 0.4176046 0.8655526 -0.2848826
v 0.4391567 0.8783134 -0.2927712
v 0.3512436 0.8655526 -0.3512436
v 0.2848825 0.8655526 -0.4176047
v 0.2927711 0.8783134 -0.4391567
v 0.4391567 0.8783134 -0.2927712
v 0.4176046 0.8655526 -0.2848826
v 0.2927711 0.8783134 0.4391567
v 0.2848825 0.8655526 0.4176046
v 0.3512436 0.8655526 0.3512436
v 0.4391567 0.8783134 0.2927711
v 0.4176046 0.8655526 0.2848825
v -0.3512436 0.8655526 0.3512436
v -0.3512436 0.04843825 0.3512438
v -0.2848826 0.04843825 0.417605
v -0.2848825 0.8655526 0.4176046
v -0.4176046 0.8655526 0.2848825
v -0.4176047 0.04843825 0.2848826
v -0.2848825 0.8655526 -0.4176047
v -0.2848825 0.04843825 -0.417605
v -0.3512436 0.04843825 -0.3512438
v -0.3512436 0.8655526 -0.3512436
v -0.4176046 0.8655526 -0.2848826
v -0.4176046 0.04843825 -0.2848825
v -0.4176046 0.8655526 -0.2848826
v -0.4176046 0.04843825 -0.2848825
v -0.4176047 0.04843825 0.2848826
v -0.4176046 0.8655526 0.2848825
v -0.2848825 0.8655526 0.4176046
v -0.2848826 0.04843825 0.417605
v 0.2848825 0.04843825 0.4176049
v 0.2848825 0.8655526 0.4176046
v 0.2848825 0.8655526 -0.4176047
v 0.2848826 0.04843825 -0.4176052
v -0.2848825 0.04843825 -0.417605
v -0.2848825 0.8655526 -0.4176047
v 0.4176046 0.8655526 0.2848825
v 0.4176046 0.04843825 0.2848825
v 0.4176047 0.04843825 -0.2848827
v 0.4176046 0.8655526 -0.2848826
v 0.3512436 0.8655526 -0.3512436
v 0.3512436 0.04843825 -0.3512439
v 0.2848826 0.04843825 -0.4176052
v 0.2848825 0.8655526 -0.4176047
v 0.4176046 0.8655526 -0.2848826
v 0.4176047 0.04843825 -0.2848827
v 0.2848825 0.8655526 0.4176046
v 0.2848825 0.04843825 0.4176049
v 0.3512436 0.04843825 0.3512437
v 0.3512436 0.8655526 0.3512436
v 0.4176046 0.8655526 0.2848825
v 0.4176046 0.04843825 0.2848825
v 0.4176046 0.04843825 0.2848825
v -0.4176047 0.04843825 0.2848826
v -0.4176046 0.04843825 -0.2848825
v 0.4176047 0.04843825 -0.2848827
v 0.3512436 0.04843825 -0.3512439
v -0.3512436 0.04843825 -0.3512438
v 0.2848826 0.04843825 -0.4176052
v -0.2848825 0.04843825 -0.417605
v -0.3512436 0.04843825 0.3512438
v 0.3512436 0.04843825 0.3512437
v -0.2848826 0.04843825 0.417605
v 0.2848825 0.04843825 0.4176049
v -0.4391566 -1E-08 -0.2927711
v -0.4391566 0.1463856 -0.4391567
v -0.4391566 0.7319279 -0.4391567
v -0.4391567 0.8783134 -0.2927712
v -0.4391567 0.8783134 0.2927711
v -0.4391566 0 0.2927711
v -0.4391566 0.7319279 0.4391567
v -0.4391566 0.1463856 0.4391567
v 0.4391567 0.7319279 0.4391567
v -0.4391566 0.7319279 0.4391567
v -0.2927711 0.8783134 0.4391567
v 0.2927711 0.8783134 0.4391567
v 0.4391567 0.1463856 0.4391567
v -0.4391566 0.1463856 0.4391567
v -0.2927711 0 0.4391567
v 0.2927711 0 0.4391567
v 0.4391567 0.7319279 -0.4391567
v 0.4391567 0.1463856 -0.4391567
v 0.4391567 -1E-08 -0.2927711
v 0.4391567 0.8783134 -0.2927712
v 0.4391567 0 0.2927711
v 0.4391567 0.8783134 0.2927711
v 0.4391567 0.7319279 0.4391567
v 0.4391567 0.1463856 0.4391567
vt 0.985523 0.806439
vt 0.908705 0.960874
vt 0.601703 0.960874
vt 0.524613 0.806439
vt 0.985523 0.188701
vt 0.524613 0.188701
vt 0.601703 0.034266
vt 0.908705 0.034266
vt 0.448018 0.986133
vt 0.556656 0.986133
vt 0.502337 0.836389
vt 0.448018 0.014386
vt 0.557435 0.014386
vt 0.502337 0.166798
vt 0.502337 0.166798
vt 0.448018 0.014386
vt 0.557435 0.014386
vt 0.502337 0.836389
vt 0.556656 0.986133
vt 0.448018 0.986133
vt 0.477119 0.186468
vt 0.4003 0.032034
vt 0.093027 0.032034
vt 0.016265 0.186468
vt 0.556656 0.986133
vt 0.502337 0.836389
vt 0.448018 0.986133
vt 0.557435 0.014386
vt 0.502337 0.166798
vt 0.448018 0.014386
vt 0.477119 0.804207
vt 0.016265 0.804207
vt 0.016265 0.186469
vt 0.477119 0.186469
vt 0.502337 0.166798
vt 0.557435 0.014386
vt 0.448018 0.014386
vt 0.502337 0.836389
vt 0.448018 0.986133
vt 0.556656 0.986133
vt 0.477119 0.804206
vt 0.016265 0.804206
vt 0.093027 0.958641
vt 0.4003 0.958641
vt 0.233376 0.958136
vt 0.255271 0.958136
vt 0.257525 0.963164
vt 0.209226 0.963164
vt 0.21148 0.958136
vt 0.25705 0.963164
vt 0.254796 0.958136
vt 0.2329 0.958136
vt 0.208751 0.963164
vt 0.211005 0.958136
vt 0.174732 0.963164
vt 0.176573 0.958136
vt 0.309502 0.958136
vt 0.311342 0.963164
vt 0.175272 0.963164
vt 0.177112 0.958136
vt 0.310041 0.958136
vt 0.311882 0.963164
vt 0.311882 0.963164
vt 0.310041 0.958136
vt 0.177112 0.958136
vt 0.175272 0.963164
vt 0.311342 0.963164
vt 0.309502 0.958136
vt 0.176573 0.958136
vt 0.174732 0.963164
vt 0.23334 0.958136
vt 0.211444 0.958136
vt 0.20919 0.963164
vt 0.257489 0.963164
vt 0.255235 0.958136
vt 0.208715 0.963164
vt 0.210969 0.958136
vt 0.232864 0.958136
vt 0.257014 0.963164
vt 0.25476 0.958136
vt 0.008470698 0.9668646
vt 0.008470698 0.9089601
vt 0.01200939 0.9089601
vt 0.01200939 0.9668646
vt 0.01200939 0.9666338
vt 0.01200939 0.9092138
vt 0.01200939 0.9666338
vt 0.01200939 0.9092138
vt 0.008470698 0.9092138
vt 0.008470698 0.9666338
vt 0.01200939 0.9668646
vt 0.01200939 0.9089601
vt 0.03813093 0.9667943
vt 0.03813093 0.9090602
vt 0.02173936 0.9090602
vt 0.02173936 0.9667943
vt 0.03813093 0.9667943
vt 0.03813093 0.9090602
vt 0.02173936 0.9090602
vt 0.02173936 0.9667943
vt 0.03813093 0.9667943
vt 0.03813093 0.9090602
vt 0.02173936 0.9090602
vt 0.02173936 0.9667943
vt 0.03813093 0.9667943
vt 0.03813093 0.9090602
vt 0.02173936 0.9090602
vt 0.02173936 0.9667943
vt 0.008470698 0.9668646
vt 0.008470698 0.9089601
vt 0.01200939 0.9089601
vt 0.01200939 0.9668646
vt 0.01200939 0.9666338
vt 0.01200939 0.9092138
vt 0.01200939 0.9666338
vt 0.01200939 0.9092138
vt 0.008470698 0.9092138
vt 0.008470698 0.9666338
vt 0.01200939 0.9668646
vt 0.01200939 0.9089601
vt 0.4624678 0.2030825
vt 0.0299862 0.2030825
vt 0.0299862 0.7931001
vt 0.4624678 0.7931001
vt 0.4281056 0.8618195
vt 0.06434938 0.8618195
vt 0.3937424 0.93054
vt 0.09871161 0.93054
vt 0.06434938 0.1343631
vt 0.4281056 0.1343631
vt 0.09871161 0.06564257
vt 0.3937424 0.06564355
vt 0.601703 0.034266
vt 0.524613 0.188701
vt 0.524613 0.806439
vt 0.601703 0.960874
vt 0.908705 0.960874
vt 0.908705 0.034266
vt 0.985523 0.806439
vt 0.985523 0.188701
vt 0.524613 0.806438
vt 0.985523 0.806438
vt 0.908705 0.960873
vt 0.601703 0.960873
vt 0.524613 0.1887
vt 0.985523 0.1887
vt 0.908705 0.034266
vt 0.601703 0.034266
vt 0.985523 0.806438
vt 0.985523 0.1887
vt 0.908705 0.034266
vt 0.908705 0.960874
vt 0.601703 0.034266
vt 0.601703 0.960874
vt 0.524613 0.806438
vt 0.524613 0.1887
vn -0.06987799 0.511462 -0.85646
vn 0.285711 0.7140129 -0.6391829
vn -0.4113081 0.7478372 -0.5211192
vn -0.02190901 0.4610582 -0.8870994
vn 0.101437 -0.27713 -0.955463
vn -0.101437 -0.27713 -0.955463
vn -0.1477839 -0.4916748 -0.8581467
vn 0.1477839 -0.4916748 -0.8581467
vn 0.5707 0.8202331 -0.038976
vn -0.135347 0.9906577 0.016686
vn 0.5127301 0.187672 -0.837787
vn -0.6984001 -0.6983991 -0.1564481
vn -0.2505631 -0.6845502 -0.6845502
vn -0.5127301 -0.187672 -0.837787
vn 0.5127301 -0.187672 -0.837787
vn 0.2505631 -0.6845502 -0.6845502
vn 0.6983997 -0.6983997 -0.1564479
vn -0.5127301 0.187672 -0.837787
vn -0.04645399 0.9775857 -0.205349
vn -0.3201719 0.9386397 0.12824
vn 0.6983997 -0.6983997 -0.1564479
vn 0.2505631 -0.6845502 -0.6845502
vn -0.2505631 -0.6845502 -0.6845502
vn -0.6984001 -0.6983991 -0.1564481
vn 0.3201719 0.9386397 -0.12824
vn 0.5127301 0.187672 0.837787
vn 0.046453 0.977586 0.205348
vn -0.6983997 -0.6983997 0.1564479
vn -0.5127301 -0.187672 0.837787
vn -0.2505631 -0.6845502 0.6845502
vn 0.6983997 -0.6983997 -0.1564479
vn -0.6984001 -0.6983991 -0.1564481
vn -0.6983997 -0.6983997 0.1564479
vn 0.6983997 -0.6983997 0.1564479
vn 0.5127301 -0.187672 0.837787
vn 0.6983997 -0.6983997 0.1564479
vn 0.2505631 -0.6845502 0.6845502
vn -0.5127301 0.187672 0.837787
vn -0.5707 0.8202331 0.038976
vn 0.135347 0.9906577 -0.016686
vn 0.6983997 -0.6983997 0.1564479
vn -0.6983997 -0.6983997 0.1564479
vn -0.2505631 -0.6845502 0.6845502
vn 0.2505631 -0.6845502 0.6845502
vn 0.6477161 0.4011581 -0.6477161
vn 0.3463719 0.4324279 -0.8324858
vn 0.135347 0.9906577 -0.016686
vn -0.5707 0.8202331 0.038976
vn 0.8324857 0.4324289 -0.3463709
vn -0.04645399 0.9775857 -0.205349
vn 0.3463721 0.432429 0.8324851
vn 0.6477168 0.4011589 0.6477148
vn -0.3201719 0.9386397 0.12824
vn 0.8324857 0.4324289 0.3463709
vn -0.3201719 0.9386397 0.12824
vn 0.8324857 0.4324289 0.3463709
vn 0.8324857 0.4324289 -0.3463709
vn -0.5707 0.8202331 0.038976
vn 0.135347 0.9906577 -0.016686
vn 0.3463719 0.4324279 -0.8324858
vn -0.3463719 0.4324279 -0.8324858
vn 0.046453 0.977586 0.205348
vn -0.135347 0.9906577 0.016686
vn -0.3463719 0.4324279 0.8324858
vn 0.3463721 0.432429 0.8324851
vn -0.04645399 0.9775857 -0.205349
vn 0.3201719 0.9386397 -0.12824
vn -0.8324857 0.4324289 -0.3463709
vn -0.8324857 0.4324289 0.3463709
vn 0.5707 0.8202331 -0.038976
vn -0.6477161 0.4011581 0.6477161
vn -0.3463719 0.4324279 0.8324858
vn -0.135347 0.9906577 0.016686
vn 0.5707 0.8202331 -0.038976
vn -0.8324857 0.4324289 0.3463709
vn 0.046453 0.977586 0.205348
vn -0.3463719 0.4324279 -0.8324858
vn -0.6477162 0.4011591 -0.6477152
vn 0.3201719 0.9386397 -0.12824
vn -0.8324857 0.4324289 -0.3463709
vn 0.6477161 0.4011581 -0.6477161
vn 0.5000007 0.7071065 -0.4999996
vn 0.336557 0.475963 -0.81252
vn 0.3463719 0.4324279 -0.8324858
vn 0.8324857 0.4324289 -0.3463709
vn 0.6269429 0.7345099 -0.2596879
vn 0.3463721 0.432429 0.8324851
vn 0.336557 0.475963 0.81252
vn 0.5000007 0.7071065 0.4999996
vn 0.6477168 0.4011589 0.6477148
vn 0.8324857 0.4324289 0.3463709
vn 0.6269433 0.7345094 0.2596881
vn 0.8324857 0.4324289 0.3463709
vn 0.6269433 0.7345094 0.2596881
vn 0.6269429 0.7345099 -0.2596879
vn 0.8324857 0.4324289 -0.3463709
vn 0.3463719 0.4324279 -0.8324858
vn 0.336557 0.475963 -0.81252
vn -0.336557 0.475963 -0.81252
vn -0.3463719 0.4324279 -0.8324858
vn -0.3463719 0.4324279 0.8324858
vn -0.336557 0.475963 0.81252
vn 0.336557 0.475963 0.81252
vn 0.3463721 0.432429 0.8324851
vn -0.8324857 0.4324289 -0.3463709
vn -0.6269429 0.7345099 -0.2596879
vn -0.6269433 0.7345094 0.2596881
vn -0.8324857 0.4324289 0.3463709
vn -0.6477161 0.4011581 0.6477161
vn -0.5000007 0.7071065 0.4999996
vn -0.336557 0.475963 0.81252
vn -0.3463719 0.4324279 0.8324858
vn -0.8324857 0.4324289 0.3463709
vn -0.6269433 0.7345094 0.2596881
vn -0.3463719 0.4324279 -0.8324858
vn -0.336557 0.475963 -0.81252
vn -0.4999999 0.7071069 -0.4999999
vn -0.6477162 0.4011591 -0.6477152
vn -0.8324857 0.4324289 -0.3463709
vn -0.6269429 0.7345099 -0.2596879
vn -0.6269429 0.7345099 -0.2596879
vn 0.6269429 0.7345099 -0.2596879
vn 0.6269433 0.7345094 0.2596881
vn -0.6269433 0.7345094 0.2596881
vn -0.5000007 0.7071065 0.4999996
vn 0.5000007 0.7071065 0.4999996
vn -0.336557 0.475963 0.81252
vn 0.336557 0.475963 0.81252
vn 0.5000007 0.7071065 -0.4999996
vn -0.4999999 0.7071069 -0.4999999
vn 0.336557 0.475963 -0.81252
vn -0.336557 0.475963 -0.81252
vn -0.9400386 0.03227099 -0.3395379
vn -0.7348711 -0.3098921 -0.6032672
vn -0.6276209 0.5658809 -0.5346689
vn -0.8711848 0.151326 -0.4670519
vn -0.7867902 0.2198641 0.5767331
vn -0.9265663 -0.03423601 0.3745701
vn -0.7078567 0.4132828 0.5728317
vn -0.7348711 -0.3098921 0.6032672
vn 0.021909 0.461059 0.887099
vn 0.06987799 0.511462 0.85646
vn -0.2857112 0.7140134 0.6391823
vn 0.4113081 0.7478372 0.5211192
vn 0.101437 -0.27713 0.955463
vn -0.101437 -0.27713 0.955463
vn -0.1477839 -0.4916748 0.8581467
vn 0.1477839 -0.4916748 0.8581467
vn 0.7078567 0.4132828 -0.5728317
vn 0.7348711 -0.3098921 -0.6032672
vn 0.9265663 -0.03423701 -0.3745701
vn 0.7867903 0.2198631 -0.5767332
vn 0.9400386 0.03227099 0.3395379
vn 0.8711848 0.151326 0.4670519
vn 0.6276209 0.5658809 0.5346689
vn 0.7348711 -0.3098921 0.6032672
g Model_0
f 3/3/3 2/2/2 1/1/1
f 4/4/4 3/3/3 1/1/1
f 4/4/4 1/1/1 5/5/5
f 6/6/6 4/4/4 5/5/5
f 6/6/6 5/5/5 7/7/7
f 5/5/5 8/8/8 7/7/7
f 11/11/11 10/10/10 9/9/9
f 14/14/14 13/13/13 12/12/12
f 17/17/17 16/16/16 15/15/15
f 20/20/20 19/19/19 18/18/18
f 23/23/23 22/22/22 21/21/21
f 24/24/24 23/23/23 21/21/21
f 27/27/27 26/26/26 25/25/25
f 30/30/30 29/29/29 28/28/28
f 33/33/33 32/32/32 31/31/31
f 34/34/34 33/33/33 31/31/31
f 37/37/37 36/36/36 35/35/35
f 40/40/40 39/39/39 38/38/38
f 43/43/43 42/42/42 41/41/41
f 44/44/44 43/43/43 41/41/41
f 47/47/47 46/46/46 45/45/45
f 47/47/47 45/45/45 48/48/48
f 45/45/45 49/49/49 48/48/48
f 52/52/52 51/51/51 50/50/50
f 53/53/53 52/52/52 50/50/50
f 53/53/53 54/54/54 52/52/52
f 57/57/57 56/56/56 55/55/55
f 58/58/58 57/57/57 55/55/55
f 61/61/61 60/60/60 59/59/59
f 62/62/62 61/61/61 59/59/59
f 65/65/65 64/64/64 63/63/63
f 66/66/66 65/65/65 63/63/63
f 69/69/69 68/68/68 67/67/67
f 70/70/70 69/69/69 67/67/67
f 73/73/73 72/72/72 71/71/71
f 73/73/73 71/71/71 74/74/74
f 71/71/71 75/75/75 74/74/74
f 78/78/78 77/77/77 76/76/76
f 79/79/79 78/78/78 76/76/76
f 79/79/79 80/80/80 78/78/78
f 83/83/83 82/82/82 81/81/81
f 84/84/84 83/83/83 81/81/81
f 81/81/81 82/82/82 85/85/85
f 82/82/82 86/86/86 85/85/85
f 89/89/89 88/88/88 87/87/87
f 90/90/90 89/89/89 87/87/87
f 90/90/90 91/91/91 89/89/89
f 91/91/91 92/92/92 89/89/89
f 95/95/95 94/94/94 93/93/93
f 96/96/96 95/95/95 93/93/93
f 99/99/99 98/98/98 97/97/97
f 100/100/100 99/99/99 97/97/97
f 103/103/103 102/102/102 101/101/101
f 104/104/104 103/103/103 101/101/101
f 107/107/107 106/106/106 105/105/105
f 108/108/108 107/107/107 105/105/105
f 111/111/111 110/110/110 109/109/109
f 112/112/112 111/111/111 109/109/109
f 109/109/109 110/110/110 113/113/113
f 110/110/110 114/114/114 113/113/113
f 117/117/117 116/116/116 115/115/115
f 118/118/118 117/117/117 115/115/115
f 118/118/118 119/119/119 117/117/117
f 119/119/119 120/120/120 117/117/117
f 123/123/123 122/122/122 121/121/121
f 124/124/124 123/123/123 121/121/121
f 123/123/123 124/124/124 125/125/125
f 126/126/126 123/123/123 125/125/125
f 126/126/126 125/125/125 127/127/127
f 128/128/128 126/126/126 127/127/127
f 121/121/121 122/122/122 129/129/129
f 130/130/130 121/121/121 129/129/129
f 130/130/130 129/129/129 131/131/131
f 132/132/132 130/130/130 131/131/131
f 135/135/135 134/134/134 133/133/133
f 136/136/136 135/135/135 133/133/133
f 137/137/137 136/136/136 133/133/133
f 138/138/138 137/137/137 133/133/133
f 139/139/139 137/137/137 138/138/138
f 140/140/140 139/139/139 138/138/138
f 143/143/143 142/142/142 141/141/141
f 144/144/144 143/143/143 141/141/141
f 141/141/141 142/142/142 145/145/145
f 142/142/142 146/146/146 145/145/145
f 145/145/145 146/146/146 147/147/147
f 148/148/148 145/145/145 147/147/147
f 151/151/151 150/150/150 149/149/149
f 152/152/152 151/151/151 149/149/149
f 153/153/153 151/151/151 152/152/152
f 154/154/154 153/153/153 152/152/152
f 153/153/153 154/154/154 155/155/155
f 156/156/156 153/153/153 155/155/155
