g Mouth
v -1.201217E-13 1.558044 0.1027746
v 0.005574747 1.559669 0.1005422
v -1.283514E-13 1.553825 0.09994764
v 0.006235257 1.553697 0.09768955
v -0.005574747 1.559669 0.1005422
v -0.006235257 1.553697 0.09768955
v -0.01554543 1.553156 0.09314039
v -1.332424E-13 1.547099 0.09835529
v -0.006895367 1.547045 0.09571631
v -1.469728E-13 1.542779 0.09358193
v -0.007401712 1.543012 0.09150213
v -1.544479E-13 1.537524 0.09104242
v -0.007383171 1.538305 0.08923372
v -1.720119E-13 1.529619 0.08498953
v 0.007383171 1.538305 0.08923372
v 0.006707231 1.530101 0.08368901
v 0.005532182 1.516457 0.07631568
v 0.0132407 1.521961 0.07289003
v 0.01361563 1.531494 0.07972886
v 0.02394068 1.530022 0.06889474
v 0.02211131 1.535487 0.07761022
v 0.0328715 1.541814 0.07420523
v 0.03501217 1.537522 0.06510187
v -1.916696E-13 1.514406 0.07834611
v 0.02894799 1.54551 0.08048848
v 0.01842116 1.540912 0.08486655
v -0.005532182 1.516457 0.07631568
v -0.006707231 1.530101 0.08368901
v -0.0132407 1.521961 0.07289003
v -0.01361563 1.531494 0.07972886
v -0.02394068 1.530022 0.06889474
v -0.02211131 1.535487 0.07761022
v -0.0328715 1.541814 0.07420523
v -0.03501217 1.537522 0.06510187
v -0.02894799 1.54551 0.08048848
v -0.01842116 1.540912 0.08486655
v -0.02330551 1.549269 0.08616388
v -0.016155 1.544237 0.08808605
v -0.01353006 1.546503 0.09182347
v 0.01554543 1.553156 0.09314039
v 0.006895367 1.547045 0.09571631
v 0.007401712 1.543012 0.09150213
v 0.01353006 1.546503 0.09182347
v 0.02330551 1.549269 0.08616388
v 0.016155 1.544237 0.08808605
vt 0.5003276 0.6447577
vt 0.5765282 0.6673732
vt 0.5003276 0.5967207
vt 0.5877202 0.5950183
vt 0.4241269 0.6673732
vt 0.412935 0.5950183
vt 0.2875167 0.5914276
vt 0.5001174 0.5251051
vt 0.4046036 0.5235718
vt 0.5003276 0.4624411
vt 0.4011011 0.4668618
vt 0.49996 0.3892675
vt 0.4004681 0.4019448
vt 0.5003276 0.2949383
vt 0.6020213 0.4015351
vt 0.5979429 0.3059446
vt 0.5937902 0.1411758
vt 0.6949719 0.1930608
vt 0.6813757 0.3197819
vt 0.8523911 0.2802773
vt 0.8068209 0.3851945
vt 0.9371232 0.4522227
vt 1.002456 0.3671715
vt 0.5003276 0.1282451
vt 0.8887241 0.5024227
vt 0.7578133 0.4497442
vt 0.406865 0.1411759
vt 0.4027696 0.3059817
vt 0.3056834 0.1930608
vt 0.3231942 0.3200594
vt 0.1482641 0.2802775
vt 0.1933922 0.3816581
vt 0.0617637 0.4517807
vt -0.001800895 0.3671716
vt 0.111931 0.5024227
vt 0.2428417 0.4497442
vt 0.187182 0.5530646
vt 0.2822579 0.4842525
vt 0.3220492 0.5157726
vt 0.7131386 0.5914276
vt 0.5959934 0.5237644
vt 0.5995542 0.4668618
vt 0.67632 0.515373
vt 0.8134731 0.5530646
vt 0.7218345 0.4842525
vn 0 -0.5567024 0.830712
vn 0.3739574 -0.3963822 0.838473
vn 0 -0.3490352 0.9371096
vn 0.3740313 -0.2971699 0.8785161
vn -0.3739574 -0.3963822 0.838473
vn -0.3740329 -0.2971704 0.8785153
vn -0.4812244 -0.3018135 0.8230016
vn -4.044675E-07 -0.478643 0.8780096
vn -0.3580772 -0.4374692 0.8248644
vn 0 -0.6047049 0.7964497
vn -0.3095714 -0.542604 0.7808626
vn 0 -0.5463548 0.8375539
vn -0.3537704 -0.52788 0.7721329
vn 7.457327E-07 -0.5201558 0.8540714
vn 0.3537705 -0.5278802 0.7721327
vn 0.3850815 -0.5063366 0.7715798
vn 0.4924971 -0.4088435 0.7683056
vn 0.5898441 -0.4595975 0.6639684
vn 0.5007421 -0.555101 0.6641689
vn 0.567323 -0.6145084 0.5482008
vn 0.5035911 -0.6263294 0.5950693
vn 0.5663186 -0.623895 0.5385519
vn 0.6012176 -0.6589287 0.4520514
vn 0 -0.4001973 0.916429
vn 0.5166274 -0.5104881 0.687385
vn 0.463074 -0.5282267 0.7117156
vn -0.4924985 -0.4088443 0.7683044
vn -0.3850825 -0.5063369 0.7715792
vn -0.5898451 -0.4595984 0.663967
vn -0.5007426 -0.5551018 0.6641678
vn -0.5673233 -0.6145094 0.5481994
vn -0.5035918 -0.626331 0.5950671
vn -0.5663187 -0.6238953 0.5385515
vn -0.6012176 -0.6589287 0.4520514
vn -0.5166273 -0.5104879 0.6873851
vn -0.4630739 -0.5282266 0.7117157
vn -0.5105684 -0.3972425 0.7625734
vn -0.4611038 -0.4813615 0.7454357
vn -0.4673683 -0.4499034 0.7610215
vn 0.4812266 -0.3018151 0.8229998
vn 0.3580762 -0.4374701 0.8248645
vn 0.3095713 -0.5426047 0.7808622
vn 0.4673698 -0.4499054 0.7610195
vn 0.5105687 -0.3972422 0.7625734
vn 0.4611016 -0.4813602 0.745438
g Mouth_0
f 3/3/3 2/2/2 1/1/1
f 3/3/3 4/4/4 2/2/2
f 3/3/3 1/1/1 5/5/5
f 3/3/3 5/5/5 6/6/6
f 6/6/6 5/5/5 7/7/7
f 6/6/6 8/8/8 3/3/3
f 4/4/4 3/3/3 8/8/8
f 6/6/6 9/9/9 8/8/8
f 9/9/9 6/6/6 7/7/7
f 10/10/10 8/8/8 9/9/9
f 10/10/10 9/9/9 11/11/11
f 12/12/12 10/10/10 11/11/11
f 12/12/12 11/11/11 13/13/13
f 13/13/13 14/14/14 12/12/12
f 14/14/14 15/15/15 12/12/12
f 14/14/14 16/16/16 15/15/15
f 14/14/14 17/17/17 16/16/16
f 18/18/18 16/16/16 17/17/17
f 18/18/18 19/19/19 16/16/16
f 15/15/15 16/16/16 19/19/19
f 20/20/20 19/19/19 18/18/18
f 20/20/20 21/21/21 19/19/19
f 20/20/20 22/22/22 21/21/21
f 20/20/20 23/23/23 22/22/22
f 14/14/14 24/24/24 17/17/17
f 21/21/21 22/22/22 25/25/25
f 21/21/21 25/25/25 26/26/26
f 19/19/19 26/26/26 15/15/15
f 19/19/19 21/21/21 26/26/26
f 14/14/14 27/27/27 24/24/24
f 14/14/14 28/28/28 27/27/27
f 13/13/13 28/28/28 14/14/14
f 28/28/28 29/29/29 27/27/27
f 28/28/28 30/30/30 29/29/29
f 30/30/30 31/31/31 29/29/29
f 30/30/30 32/32/32 31/31/31
f 31/31/31 32/32/32 33/33/33
f 31/31/31 33/33/33 34/34/34
f 28/28/28 13/13/13 30/30/30
f 32/32/32 35/35/35 33/33/33
f 32/32/32 36/36/36 35/35/35
f 30/30/30 36/36/36 32/32/32
f 30/30/30 13/13/13 36/36/36
f 37/37/37 35/35/35 36/36/36
f 37/37/37 36/36/36 38/38/38
f 13/13/13 38/38/38 36/36/36
f 37/37/37 38/38/38 39/39/39
f 11/11/11 39/39/39 38/38/38
f 13/13/13 11/11/11 38/38/38
f 11/11/11 9/9/9 39/39/39
f 9/9/9 7/7/7 39/39/39
f 39/39/39 7/7/7 37/37/37
f 2/2/2 4/4/4 40/40/40
f 40/40/40 4/4/4 41/41/41
f 4/4/4 8/8/8 41/41/41
f 10/10/10 41/41/41 8/8/8
f 10/10/10 42/42/42 41/41/41
f 42/42/42 43/43/43 41/41/41
f 40/40/40 41/41/41 43/43/43
f 44/44/44 40/40/40 43/43/43
f 42/42/42 45/45/45 43/43/43
f 43/43/43 45/45/45 44/44/44
f 44/44/44 45/45/45 26/26/26
f 44/44/44 26/26/26 25/25/25
f 12/12/12 42/42/42 10/10/10
f 12/12/12 15/15/15 42/42/42
f 15/15/15 45/45/45 42/42/42
f 15/15/15 26/26/26 45/45/45
