g Mouth
v 0.01647269 1.472105 0.1080778
v 0.006607169 1.471418 0.1125603
v 0.007280674 1.479254 0.1160966
v 0.01891453 1.479376 0.1059703
v 0.01166002 1.482548 0.112616
v -9.376147E-22 1.471124 0.1144872
v -9.396835E-22 1.477705 0.1178809
v 0.02469698 1.468129 0.1015819
v 0.0294709 1.475602 0.09967498
v 0.0143371 1.464362 0.1070927
v 0.01711869 1.461356 0.1041937
v 0.007843189 1.458919 0.1069409
v 0.007306649 1.464325 0.1099174
v -9.334794E-22 1.458304 0.1083759
v -9.353447E-22 1.464342 0.1116444
v -9.318084E-22 1.453101 0.1058607
v 0.007952976 1.454027 0.1040128
v 0.006428013 1.445992 0.09873382
v -9.298518E-22 1.445505 0.09990845
v 0.005582218 1.435651 0.0939357
v -9.262205E-22 1.434742 0.09553161
v 0.0306848 1.463439 0.09565033
v 0.03851677 1.471586 0.09299713
v 0.0437516 1.467765 0.08503448
v 0.03339706 1.459052 0.09003998
v 0.01442373 1.447727 0.09717407
v 0.01503805 1.440592 0.08815476
v 0.02267492 1.452062 0.09435455
v 0.02556379 1.446551 0.08283081
v 0.02050123 1.457444 0.1000267
v -0.01647269 1.472105 0.1080778
v -0.007280674 1.479254 0.1160966
v -0.006607169 1.471418 0.1125603
v -0.01891453 1.479376 0.1059703
v -0.01166002 1.482548 0.112616
v -9.376147E-22 1.471124 0.1144872
v -9.396835E-22 1.477705 0.1178809
v -9.353447E-22 1.464342 0.1116444
v -0.007306649 1.464325 0.1099174
v -9.334794E-22 1.458304 0.1083759
v -0.007843189 1.458919 0.1069409
v -9.318084E-22 1.453101 0.1058607
v -0.007952976 1.454027 0.1040128
v -0.0143371 1.464362 0.1070927
v -0.006428013 1.445992 0.09873382
v -0.01442373 1.447727 0.09717407
v -9.298518E-22 1.445505 0.09990845
v -0.005582218 1.435651 0.0939357
v -9.262205E-22 1.434742 0.09553161
v -0.01711869 1.461356 0.1041937
v -0.02469698 1.468129 0.1015819
v -0.0294709 1.475602 0.09967498
v -0.01503805 1.440592 0.08815476
v -0.02267492 1.452062 0.09435455
v -0.0306848 1.463439 0.09565033
v -0.03851677 1.471586 0.09299713
v -0.02050123 1.457444 0.1000267
v -0.03339706 1.459052 0.09003998
v -0.0437516 1.467765 0.08503448
v -0.02556379 1.446551 0.08283081
vt 0.776934 0.6645858
vt 0.6113788 0.6575537
vt 0.6226814 0.7724985
vt 0.8179109 0.782984
vt 0.7143466 0.8398207
vt 0.5005028 0.6547282
vt 0.5005028 0.7511901
vt 0.9149472 0.5965998
vt 0.9265298 0.7164627
vt 0.7410964 0.5380486
vt 0.7877747 0.4883479
vt 0.6321209 0.4497344
vt 0.6231172 0.5392938
vt 0.5005028 0.440238
vt 0.5005028 0.5408196
vt 0.5005028 0.336074
vt 0.6339631 0.3540882
vt 0.6329206 0.2421371
vt 0.5005028 0.2331746
vt 0.6300017 0.1121682
vt 0.5005028 0.07548499
vt 0.920375 0.5365422
vt 0.9508553 0.6654202
vt 0.9753772 0.6162654
vt 0.9804522 0.480184
vt 0.7696428 0.2867921
vt 0.785705 0.184189
vt 0.8927634 0.3651946
vt 0.9275508 0.2854849
vt 0.8286628 0.4326715
vt 0.2240714 0.6645858
vt 0.3783241 0.7724985
vt 0.3896267 0.6575537
vt 0.1830946 0.782984
vt 0.2866589 0.8398207
vt 0.5005028 0.6547282
vt 0.5005028 0.7511901
vt 0.5005028 0.5408196
vt 0.3778883 0.5392938
vt 0.5005028 0.440238
vt 0.3688846 0.4497344
vt 0.5005028 0.336074
vt 0.3670424 0.3540882
vt 0.2599092 0.5380486
vt 0.3680849 0.2421371
vt 0.2313626 0.2867921
vt 0.5005028 0.2331746
vt 0.3710038 0.1121682
vt 0.5005028 0.07548499
vt 0.2132308 0.4883479
vt 0.08605841 0.5965998
vt 0.0744758 0.7164627
vt 0.2153006 0.184189
vt 0.1082421 0.3651946
vt 0.08063063 0.5365422
vt 0.05015031 0.6654202
vt 0.1723428 0.4326715
vt 0.02055326 0.480184
vt 0.02562824 0.6162654
vt 0.07345486 0.2854849
vn 0.5332439 -0.1618328 0.8303379
vn 0.3794746 -0.2942378 0.8771677
vn 0.5487226 -0.4456439 0.7073224
vn 0.5759181 0.005301783 0.8174902
vn 0.7754104 -0.04095446 0.6301281
vn 0 -0.315914 0.9487878
vn 0 -0.677331 0.7356784
vn 0.5058373 -0.2216358 0.8336703
vn 0.5787921 -0.1074564 0.8083643
vn 0.3878588 -0.3318133 0.8599218
vn 0.3789685 -0.3890432 0.8396596
vn 0.3187467 -0.5072749 0.8006701
vn 0.3616463 -0.340376 0.8679609
vn 0 -0.552533 0.833491
vn 0 -0.3499914 0.9367529
vn 0 -0.5359077 0.8442765
vn 0.3081293 -0.5077778 0.8044987
vn 0.3409691 -0.5160916 0.7857413
vn 0 -0.496812 0.8678582
vn 0.4434076 -0.6461834 0.6211576
vn 0 -0.6645133 0.7472765
vn 0.5255155 -0.225118 0.8204605
vn 0.6214027 -0.263707 0.7377787
vn 0.7274708 -0.4854685 0.4848779
vn 0.4498202 -0.3566506 0.8188176
vn 0.4127851 -0.5538568 0.7230844
vn 0.574903 -0.5373986 0.6170003
vn 0.4526407 -0.4121976 0.7907019
vn 0.5885827 -0.687436 0.4254434
vn 0.4005747 -0.4586476 0.7932101
vn -0.533244 -0.1618327 0.8303379
vn -0.5487226 -0.4456439 0.7073224
vn -0.3794746 -0.2942378 0.8771677
vn -0.5759181 0.005301703 0.8174902
vn -0.7355229 0.03993012 0.6763221
vn 0 -0.315914 0.9487878
vn 0 -0.677331 0.7356784
vn 0 -0.3499914 0.9367529
vn -0.3616463 -0.340376 0.8679609
vn 0 -0.552533 0.833491
vn -0.3187467 -0.5072749 0.8006701
vn 0 -0.5359077 0.8442765
vn -0.3081293 -0.5077778 0.8044987
vn -0.3871495 -0.3005995 0.8716394
vn -0.3409691 -0.5160916 0.7857413
vn -0.4128687 -0.5580186 0.7198296
vn 0 -0.496812 0.8678582
vn -0.4434076 -0.6461834 0.6211576
vn 0 -0.6645133 0.7472765
vn -0.3868107 -0.3874834 0.8367999
vn -0.4307742 -0.2733965 0.8600512
vn -0.5454684 -0.1389617 0.8265312
vn -0.6104456 -0.6491073 0.4538897
vn -0.3690276 -0.6108987 0.7004437
vn -0.5703227 -0.3177328 0.7574813
vn -0.6200276 -0.2679432 0.7374091
vn -0.4005747 -0.4586476 0.7932101
vn -0.5683051 -0.5357124 0.6245331
vn -0.7274709 -0.4854683 0.4848779
vn -0.6148463 -0.7113158 0.3405787
g Mouth_0
f 3/3/3 2/2/2 1/1/1
f 3/3/3 1/1/1 4/4/4
f 5/5/5 3/3/3 4/4/4
f 6/6/6 2/2/2 3/3/3
f 7/7/7 6/6/6 3/3/3
f 4/4/4 1/1/1 8/8/8
f 9/9/9 4/4/4 8/8/8
f 8/8/8 1/1/1 10/10/10
f 1/1/1 2/2/2 10/10/10
f 11/11/11 8/8/8 10/10/10
f 12/12/12 11/11/11 10/10/10
f 13/13/13 12/12/12 10/10/10
f 2/2/2 13/13/13 10/10/10
f 14/14/14 12/12/12 13/13/13
f 15/15/15 14/14/14 13/13/13
f 2/2/2 6/6/6 15/15/15
f 13/13/13 2/2/2 15/15/15
f 14/14/14 16/16/16 12/12/12
f 16/16/16 17/17/17 12/12/12
f 12/12/12 17/17/17 11/11/11
f 18/18/18 17/17/17 16/16/16
f 19/19/19 18/18/18 16/16/16
f 18/18/18 19/19/19 20/20/20
f 19/19/19 21/21/21 20/20/20
f 9/9/9 8/8/8 22/22/22
f 23/23/23 9/9/9 22/22/22
f 24/24/24 23/23/23 22/22/22
f 22/22/22 25/25/25 24/24/24
f 17/17/17 18/18/18 26/26/26
f 26/26/26 18/18/18 20/20/20
f 20/20/20 27/27/27 26/26/26
f 28/28/28 25/25/25 22/22/22
f 28/28/28 26/26/26 27/27/27
f 25/25/25 28/28/28 29/29/29
f 27/27/27 29/29/29 28/28/28
f 30/30/30 28/28/28 22/22/22
f 30/30/30 17/17/17 26/26/26
f 26/26/26 28/28/28 30/30/30
f 22/22/22 8/8/8 30/30/30
f 8/8/8 11/11/11 30/30/30
f 17/17/17 30/30/30 11/11/11
f 33/33/33 32/32/32 31/31/31
f 31/31/31 32/32/32 34/34/34
f 32/32/32 35/35/35 34/34/34
f 33/33/33 36/36/36 32/32/32
f 36/36/36 37/37/37 32/32/32
f 36/36/36 33/33/33 38/38/38
f 33/33/33 39/39/39 38/38/38
f 40/40/40 38/38/38 39/39/39
f 41/41/41 40/40/40 39/39/39
f 42/42/42 40/40/40 41/41/41
f 43/43/43 42/42/42 41/41/41
f 33/33/33 31/31/31 44/44/44
f 39/39/39 33/33/33 44/44/44
f 41/41/41 39/39/39 44/44/44
f 43/43/43 45/45/45 42/42/42
f 45/45/45 43/43/43 46/46/46
f 45/45/45 47/47/47 42/42/42
f 48/48/48 45/45/45 46/46/46
f 47/47/47 45/45/45 48/48/48
f 49/49/49 47/47/47 48/48/48
f 50/50/50 41/41/41 44/44/44
f 43/43/43 41/41/41 50/50/50
f 44/44/44 31/31/31 50/50/50
f 31/31/31 51/51/51 50/50/50
f 31/31/31 34/34/34 51/51/51
f 34/34/34 52/52/52 51/51/51
f 46/46/46 53/53/53 48/48/48
f 53/53/53 46/46/46 54/54/54
f 51/51/51 52/52/52 55/55/55
f 52/52/52 56/56/56 55/55/55
f 57/57/57 43/43/43 50/50/50
f 57/57/57 54/54/54 46/46/46
f 51/51/51 55/55/55 57/57/57
f 50/50/50 51/51/51 57/57/57
f 54/54/54 57/57/57 55/55/55
f 58/58/58 54/54/54 55/55/55
f 59/59/59 58/58/58 55/55/55
f 55/55/55 56/56/56 59/59/59
f 60/60/60 54/54/54 58/58/58
f 54/54/54 60/60/60 53/53/53
f 46/46/46 43/43/43 57/57/57
