g Mouth
v 0.02575015 0.4230889 0.1310037
v 0.02878084 0.4383343 0.1254348
v 0.04556503 0.423029 0.1239009
v 0.01072915 0.4385929 0.1304104
v 0.009432038 0.4238618 0.1368918
v 0.02947978 0.412123 0.1297527
v 0.01209741 0.4121213 0.1350736
v 0.01270264 0.4016217 0.1311835
v 1.010557E-08 0.4017228 0.1336444
v 1.010557E-08 0.4121737 0.138508
v 0.03144763 0.4016109 0.1262729
v 1.010557E-08 0.4385462 0.1334739
v 1.010557E-08 0.4261234 0.1425621
v 0.04578133 0.4122301 0.1246464
v 0.05817253 0.4123231 0.1205296
v 0.0569001 0.4022231 0.1186738
v 0.0452367 0.4019343 0.1222973
v 0.05442987 0.3948527 0.1160577
v 0.04391775 0.3945554 0.1192621
v 0.07199612 0.4124027 0.1154158
v 0.07070536 0.4027784 0.1140934
v 0.06750874 0.3948527 0.1113343
v 1.010557E-08 0.3939755 0.1286985
v 0.0111902 0.3940202 0.1268099
v 0.03101854 0.3943898 0.1225842
v 0.0291289 0.386815 0.117556
v 0.01125352 0.385118 0.1203145
v 0.01109587 0.3767478 0.1139584
v 0.02580124 0.3780223 0.1120216
v 1.010557E-08 0.3843864 0.1212193
v 1.010557E-08 0.3762839 0.1147317
v 0.01109587 0.3767478 0.1139584
v 0.009701913 0.3674302 0.1037497
v 0.02269902 0.3691335 0.1027344
v 1.010557E-08 0.3668651 0.1041921
v 0.009701913 0.3674302 0.1037497
v 0.03828051 0.3794424 0.1098709
v 0.04158492 0.3876204 0.1149516
v 0.05193149 0.3879112 0.1119945
v 0.04932107 0.3804168 0.1071555
v 0.0645728 0.3881544 0.1079876
v 0.06071602 0.381382 0.1033149
v 0.04932107 0.3804168 0.1071555
v 0.0571805 0.3768419 0.09924465
v 0.04574962 0.3735592 0.1004981
v 0.04574962 0.3735592 0.1004981
v 0.03480418 0.3714166 0.1015394
v 0.02580124 0.3780223 0.1120216
v 0.02269902 0.3691335 0.1027344
v -0.02575014 0.4230889 0.1310037
v -0.04556501 0.423029 0.1239009
v -0.02878083 0.4383343 0.1254348
v -0.01072912 0.4385929 0.1304104
v -0.009432022 0.4238618 0.1368918
v -0.02947976 0.412123 0.1297527
v -0.0120974 0.4121213 0.1350736
v -0.01270262 0.4016217 0.1311835
v 1.010557E-08 0.4017228 0.1336444
v 1.010557E-08 0.4121737 0.138508
v -0.03144762 0.4016109 0.1262729
v 1.010557E-08 0.4385462 0.1334739
v 1.010557E-08 0.4261234 0.1425621
v -0.0120974 0.4121213 0.1350736
v -0.04578131 0.4122301 0.1246464
v 1.010557E-08 0.3939755 0.1286985
v -0.01119019 0.3940202 0.1268099
v -0.03101853 0.3943898 0.1225842
v -0.02912888 0.386815 0.117556
v -0.0112535 0.385118 0.1203145
v -0.01109586 0.3767478 0.1139584
v -0.02580122 0.3780223 0.1120216
v 1.010557E-08 0.3843864 0.1212193
v 1.010557E-08 0.3762839 0.1147317
v -0.01109586 0.3767478 0.1139584
v -0.009701892 0.3674302 0.1037497
v -0.02269902 0.3691335 0.1027344
v 1.010557E-08 0.3668651 0.1041921
v -0.009701892 0.3674302 0.1037497
v -0.03828049 0.3794424 0.1098709
v -0.04158492 0.3876204 0.1149516
v -0.05193147 0.3879112 0.1119945
v -0.04932106 0.3804168 0.1071555
v -0.04391773 0.3945554 0.1192621
v -0.04523668 0.4019343 0.1222973
v -0.05442986 0.3948527 0.1160577
v -0.05690008 0.4022231 0.1186738
v -0.05817252 0.4123231 0.1205296
v -0.07199612 0.4124027 0.1154158
v -0.07070536 0.4027784 0.1140934
v -0.06750873 0.3948527 0.1113343
v -0.0645728 0.3881544 0.1079876
v -0.06071601 0.381382 0.1033149
v -0.04932106 0.3804168 0.1071555
v -0.05718048 0.3768419 0.09924465
v -0.0457496 0.3735592 0.1004981
v -0.0457496 0.3735592 0.1004981
v -0.03480417 0.3714166 0.1015394
v -0.02580122 0.3780223 0.1120216
v -0.02269902 0.3691335 0.1027344
v 1.010557E-08 0.4261234 0.1425621
vt 0.6809478 0.7451313
vt 0.7023656 0.8529171
vt 0.8209813 0.7447077
vt 0.5747927 0.8547452
vt 0.565626 0.7505959
vt 0.7073053 0.6676017
vt 0.5844626 0.6675895
vt 0.5887395 0.5933574
vt 0.498969 0.5940723
vt 0.498969 0.6679606
vt 0.7212123 0.5932807
vt 0.498969 0.8544164
vt 0.498969 0.7665859
vt 0.8225098 0.6683592
vt 0.9100797 0.6690169
vt 0.9010869 0.5976092
vt 0.818661 0.5955669
vt 0.8836302 0.5454999
vt 0.8093396 0.5433977
vt 1.007772 0.6695797
vt 0.9986506 0.6015347
vt 0.9760597 0.5454999
vt 0.498969 0.5392981
vt 0.5780511 0.5396144
vt 0.7181801 0.542227
vt 0.7048257 0.4886729
vt 0.5784985 0.4766755
vt 0.5773848 0.4174975
vt 0.6813086 0.4265084
vt 0.498969 0.4715025
vt 0.498969 0.4142173
vt 0.5773848 0.4174975
vt 0.5675334 0.3516216
vt 0.6593853 0.3636642
vt 0.498969 0.3476265
vt 0.5675334 0.3516216
vt 0.769501 0.436548
vt 0.7928535 0.4943668
vt 0.8659736 0.4964236
vt 0.8475256 0.4434376
vt 0.9553112 0.4981425
vt 0.9280547 0.4502614
vt 0.8475256 0.4434376
vt 0.9030689 0.4181625
vt 0.8222858 0.3949544
vt 0.8222858 0.3949544
vt 0.7449332 0.379806
vt 0.6813086 0.4265084
vt 0.6593853 0.3636642
vt 0.3169903 0.7451313
vt 0.1769568 0.7447077
vt 0.2955721 0.8529171
vt 0.4231454 0.8547452
vt 0.432312 0.7505959
vt 0.2906327 0.6676017
vt 0.4134757 0.6675895
vt 0.4091983 0.5933574
vt 0.498969 0.5940723
vt 0.498969 0.6679606
vt 0.2767259 0.5932807
vt 0.498969 0.8544164
vt 0.498969 0.7665859
vt 0.4134757 0.6675895
vt 0.1754285 0.6683592
vt 0.498969 0.5392981
vt 0.4198868 0.5396144
vt 0.2797582 0.542227
vt 0.2931125 0.4886729
vt 0.4194394 0.4766755
vt 0.4205538 0.4174975
vt 0.3166295 0.4265084
vt 0.498969 0.4715025
vt 0.498969 0.4142173
vt 0.4205538 0.4174975
vt 0.4304049 0.3516216
vt 0.3385529 0.3636642
vt 0.498969 0.3476265
vt 0.4304049 0.3516216
vt 0.228437 0.436548
vt 0.2050844 0.4943668
vt 0.1319645 0.4964236
vt 0.1504125 0.4434376
vt 0.1885985 0.5433977
vt 0.1792772 0.5955669
vt 0.114308 0.5454999
vt 0.09685117 0.5976092
vt 0.08785862 0.6690169
vt -0.009834275 0.6695797
vt -0.000712201 0.6015347
vt 0.02187863 0.5454999
vt 0.04262754 0.4981425
vt 0.0698835 0.4502614
vt 0.1504125 0.4434376
vt 0.09486939 0.4181625
vt 0.1756524 0.3949544
vt 0.1756524 0.3949544
vt 0.2530048 0.379806
vt 0.3166295 0.4265084
vt 0.3385529 0.3636642
vt 0.498969 0.7665859
vn 0.3161092 0.1433943 0.9378236
vn 0.3087837 0.2956754 0.9040071
vn 0.3212369 0.1012653 0.941569
vn 0.3411082 0.3753409 0.8618377
vn 0.3621053 0.1274593 0.9233818
vn 0.2971235 -0.1333786 0.9454775
vn 0.2886471 -0.2170692 0.9325041
vn 0.2103985 -0.4184837 0.8835179
vn 0 -0.4523883 0.891821
vn 0.02949755 -0.3035552 0.9523571
vn 0.2507907 -0.363665 0.8971353
vn 0 0.4817847 0.8762896
vn -0.004183818 0.1868789 0.982374
vn 0.3080726 -0.08878805 0.9472107
vn 0.3174981 -0.1551571 0.9354792
vn 0.30607 -0.3102071 0.9000515
vn 0.2792866 -0.3246719 0.9036521
vn 0.2778502 -0.4806067 0.831755
vn 0.2466954 -0.4939655 0.8337502
vn 0.32886 -0.1917388 0.9247093
vn 0.3208011 -0.2901515 0.901609
vn 0.2929101 -0.4702967 0.832481
vn 0 -0.5647923 0.8252331
vn 0.1624202 -0.5485513 0.8201897
vn 0.2107527 -0.5170629 0.8295959
vn 0.1900928 -0.5767007 0.794532
vn 0.1398481 -0.5934587 0.7926219
vn 0.1225665 -0.6732438 0.7291915
vn 0.1805785 -0.6649632 0.7247173
vn 0 -0.6090801 0.7931087
vn 0 -0.6820649 0.7312917
vn 0.1225665 -0.6732438 0.7291915
vn 0.1098273 -0.7417171 0.6616597
vn 0.1697979 -0.7412557 0.649391
vn 0 -0.7447063 0.6673924
vn 0.1098273 -0.7417171 0.6616597
vn 0.2140928 -0.6625257 0.7177911
vn 0.2251323 -0.5733203 0.7877939
vn 0.25931 -0.5770716 0.7744331
vn 0.2528161 -0.6725292 0.695549
vn 0.2740657 -0.5732194 0.7722095
vn 0.2742062 -0.6694218 0.690424
vn 0.2528161 -0.6725292 0.695549
vn 0.2744011 -0.7442423 0.6089397
vn 0.2355035 -0.7429203 0.626584
vn 0.2355035 -0.7429203 0.626584
vn 0.2046885 -0.7424825 0.6378263
vn 0.1805785 -0.6649632 0.7247173
vn 0.1697979 -0.7412557 0.649391
vn -0.3161092 0.1433942 0.9378236
vn -0.3212369 0.1012654 0.941569
vn -0.3087836 0.2956754 0.9040071
vn -0.3411081 0.375341 0.8618377
vn -0.4062172 0.177066 0.896457
vn -0.2971235 -0.1333785 0.9454775
vn -0.2882358 -0.2174634 0.9325394
vn -0.2103985 -0.4184837 0.8835179
vn 0 -0.4523883 0.891821
vn 0.02949755 -0.3035552 0.9523571
vn -0.2507907 -0.3636649 0.8971354
vn 0 0.4817847 0.8762896
vn -0.004183818 0.1868789 0.982374
vn -0.2882358 -0.2174634 0.9325394
vn -0.3080726 -0.088788 0.9472106
vn 0 -0.5647923 0.8252331
vn -0.1624202 -0.5485514 0.8201896
vn -0.2107528 -0.5170628 0.8295959
vn -0.1900928 -0.5767008 0.7945319
vn -0.1398481 -0.5934587 0.7926219
vn -0.1225665 -0.6732438 0.7291915
vn -0.1805785 -0.6649634 0.7247173
vn 0 -0.6090801 0.7931087
vn 0 -0.6820649 0.7312917
vn -0.1225665 -0.6732438 0.7291915
vn -0.1098273 -0.7417171 0.6616598
vn -0.1697979 -0.7412556 0.649391
vn 0 -0.7447063 0.6673924
vn -0.1098273 -0.7417171 0.6616598
vn -0.2140929 -0.6625256 0.7177911
vn -0.2251323 -0.5733203 0.7877939
vn -0.2593099 -0.5770717 0.7744331
vn -0.2528161 -0.6725293 0.695549
vn -0.2466954 -0.4939655 0.8337502
vn -0.2792866 -0.3246718 0.9036522
vn -0.2778502 -0.4806066 0.8317551
vn -0.3060699 -0.310207 0.9000516
vn -0.3174979 -0.1551572 0.9354792
vn -0.3288595 -0.191739 0.9247095
vn -0.3208008 -0.2901515 0.9016091
vn -0.2929099 -0.4702966 0.8324812
vn -0.2740655 -0.5732194 0.7722096
vn -0.274206 -0.6694219 0.690424
vn -0.2528161 -0.6725293 0.695549
vn -0.274401 -0.7442424 0.6089395
vn -0.2355035 -0.7429204 0.626584
vn -0.2355035 -0.7429204 0.626584
vn -0.2046886 -0.7424824 0.6378264
vn -0.1805785 -0.6649634 0.7247173
vn -0.1697979 -0.7412556 0.649391
vn -0.004183818 0.1868789 0.982374
g Mouth_0
f 3/3/3 2/2/2 1/1/1
f 1/1/1 2/2/2 4/4/4
f 5/5/5 1/1/1 4/4/4
f 1/1/1 5/5/5 6/6/6
f 1/1/1 6/6/6 3/3/3
f 5/5/5 7/7/7 6/6/6
f 7/7/7 8/8/8 6/6/6
f 8/8/8 7/7/7 9/9/9
f 7/7/7 10/10/10 9/9/9
f 10/10/10 7/7/7 5/5/5
f 8/8/8 11/11/11 6/6/6
f 5/5/5 4/4/4 12/12/12
f 13/13/13 5/5/5 12/12/12
f 13/13/13 10/10/10 5/5/5
f 6/6/6 14/14/14 3/3/3
f 3/3/3 14/14/14 15/15/15
f 15/15/15 14/14/14 16/16/16
f 14/14/14 17/17/17 16/16/16
f 6/6/6 11/11/11 17/17/17
f 14/14/14 6/6/6 17/17/17
f 16/16/16 17/17/17 18/18/18
f 17/17/17 19/19/19 18/18/18
f 15/15/15 16/16/16 20/20/20
f 16/16/16 21/21/21 20/20/20
f 16/16/16 18/18/18 21/21/21
f 18/18/18 22/22/22 21/21/21
f 8/8/8 9/9/9 23/23/23
f 24/24/24 8/8/8 23/23/23
f 24/24/24 25/25/25 11/11/11
f 17/17/17 11/11/11 25/25/25
f 19/19/19 17/17/17 25/25/25
f 8/8/8 24/24/24 11/11/11
f 25/25/25 24/24/24 26/26/26
f 19/19/19 25/25/25 26/26/26
f 24/24/24 27/27/27 26/26/26
f 26/26/26 27/27/27 28/28/28
f 29/29/29 26/26/26 28/28/28
f 24/24/24 23/23/23 30/30/30
f 27/27/27 24/24/24 30/30/30
f 27/27/27 30/30/30 31/31/31
f 32/32/32 27/27/27 31/31/31
f 28/28/28 33/33/33 29/29/29
f 33/33/33 34/34/34 29/29/29
f 31/31/31 35/35/35 32/32/32
f 35/35/35 36/36/36 32/32/32
f 26/26/26 29/29/29 37/37/37
f 38/38/38 26/26/26 37/37/37
f 38/38/38 37/37/37 39/39/39
f 37/37/37 40/40/40 39/39/39
f 38/38/38 19/19/19 26/26/26
f 19/19/19 38/38/38 39/39/39
f 18/18/18 19/19/19 39/39/39
f 18/18/18 39/39/39 22/22/22
f 39/39/39 41/41/41 22/22/22
f 42/42/42 41/41/41 39/39/39
f 43/43/43 42/42/42 39/39/39
f 44/44/44 42/42/42 43/43/43
f 45/45/45 44/44/44 43/43/43
f 46/46/46 43/43/43 37/37/37
f 47/47/47 46/46/46 37/37/37
f 47/47/47 37/37/37 48/48/48
f 49/49/49 47/47/47 48/48/48
f 52/52/52 51/51/51 50/50/50
f 52/52/52 50/50/50 53/53/53
f 50/50/50 54/54/54 53/53/53
f 54/54/54 50/50/50 55/55/55
f 55/55/55 50/50/50 51/51/51
f 56/56/56 54/54/54 55/55/55
f 57/57/57 56/56/56 55/55/55
f 56/56/56 57/57/57 58/58/58
f 59/59/59 56/56/56 58/58/58
f 60/60/60 57/57/57 55/55/55
f 53/53/53 54/54/54 61/61/61
f 54/54/54 62/62/62 61/61/61
f 63/63/63 62/62/62 54/54/54
f 64/64/64 55/55/55 51/51/51
f 58/58/58 57/57/57 65/65/65
f 57/57/57 66/66/66 65/65/65
f 66/66/66 57/57/57 60/60/60
f 67/67/67 66/66/66 60/60/60
f 66/66/66 67/67/67 68/68/68
f 69/69/69 66/66/66 68/68/68
f 69/69/69 68/68/68 70/70/70
f 68/68/68 71/71/71 70/70/70
f 66/66/66 69/69/69 72/72/72
f 65/65/65 66/66/66 72/72/72
f 72/72/72 69/69/69 73/73/73
f 69/69/69 74/74/74 73/73/73
f 75/75/75 70/70/70 71/71/71
f 76/76/76 75/75/75 71/71/71
f 77/77/77 73/73/73 74/74/74
f 78/78/78 77/77/77 74/74/74
f 71/71/71 68/68/68 79/79/79
f 68/68/68 80/80/80 79/79/79
f 79/79/79 80/80/80 81/81/81
f 82/82/82 79/79/79 81/81/81
f 83/83/83 80/80/80 68/68/68
f 80/80/80 83/83/83 81/81/81
f 67/67/67 83/83/83 68/68/68
f 84/84/84 83/83/83 67/67/67
f 83/83/83 84/84/84 85/85/85
f 83/83/83 85/85/85 81/81/81
f 84/84/84 86/86/86 85/85/85
f 84/84/84 64/64/64 86/86/86
f 64/64/64 87/87/87 86/86/86
f 86/86/86 87/87/87 88/88/88
f 89/89/89 86/86/86 88/88/88
f 85/85/85 86/86/86 89/89/89
f 90/90/90 85/85/85 89/89/89
f 81/81/81 85/85/85 90/90/90
f 60/60/60 84/84/84 67/67/67
f 91/91/91 81/81/81 90/90/90
f 91/91/91 92/92/92 81/81/81
f 92/92/92 93/93/93 81/81/81
f 92/92/92 94/94/94 93/93/93
f 94/94/94 95/95/95 93/93/93
f 55/55/55 64/64/64 84/84/84
f 60/60/60 55/55/55 84/84/84
f 64/64/64 51/51/51 87/87/87
f 93/93/93 96/96/96 79/79/79
f 96/96/96 97/97/97 79/79/79
f 79/79/79 97/97/97 98/98/98
f 97/97/97 99/99/99 98/98/98
f 59/59/59 100/100/100 56/56/56
