g Mouth
v 0.01531051 1.402942 0.08022167
v 0.005720987 1.404125 0.08580776
v 0.006978483 1.409023 0.08751011
v 0.01193493 1.397536 0.080382
v 0.005720987 1.404125 0.08580776
v 0.005785646 1.39907 0.0850936
v 0.01531051 1.402942 0.08022167
v 0.02239582 1.399494 0.07476259
v 0.01411571 1.39441 0.07765982
v 0.01792082 1.38999 0.07301693
v 0.02239582 1.399494 0.07476259
v 0.02763063 1.395096 0.06919337
v 0.01193493 1.397536 0.080382
v 0.006125917 1.39493 0.08199423
v 0.01411571 1.39441 0.07765982
v 0.01792082 1.38999 0.07301693
v 0.006274137 1.388473 0.077254
v 0.006125917 1.39493 0.08199423
v 0.01301943 1.380652 0.07013451
v 0.006274137 1.388473 0.077254
v 0 1.387408 0.07876285
v 0 1.394199 0.0831192
v 0.01301943 1.380652 0.07013451
v 0.005684509 1.379216 0.07222749
v 0 1.387408 0.07876285
v 0 1.378434 0.07331797
v 0.005785646 1.39907 0.0850936
v 0.006125917 1.39493 0.08199423
v 0 1.398872 0.08697851
v 0.005720987 1.404125 0.08580776
v 0 1.403685 0.08763607
v 0.006978483 1.409023 0.08751011
v 0 1.407353 0.08904703
v 0.02763063 1.395096 0.06919337
v 0.03082374 1.390635 0.06266417
v 0.02097244 1.384685 0.06642462
v 0.01792082 1.38999 0.07301693
v 0.01301943 1.380652 0.07013451
v -0.01531051 1.402942 0.08022167
v -0.006978483 1.409023 0.08751011
v -0.005720987 1.404125 0.08580776
v -0.01193493 1.397536 0.080382
v -0.005720987 1.404125 0.08580776
v -0.005785646 1.39907 0.0850936
v -0.01411571 1.39441 0.07765982
v -0.02239582 1.399494 0.07476258
v -0.01531051 1.402942 0.08022167
v -0.01792082 1.38999 0.07301693
v -0.02239582 1.399494 0.07476258
v -0.02763062 1.395096 0.06919336
v -0.01193493 1.397536 0.080382
v -0.006125917 1.39493 0.08199423
v -0.01411571 1.39441 0.07765982
v -0.006125917 1.39493 0.08199423
v -0.006274137 1.388473 0.077254
v -0.01792082 1.38999 0.07301693
v -0.01301943 1.380652 0.07013451
v 0 1.394199 0.0831192
v 0 1.387408 0.07876285
v -0.006274137 1.388473 0.077254
v -0.01301943 1.380652 0.07013451
v -0.005684509 1.379216 0.07222749
v 0 1.387408 0.07876285
v 0 1.378434 0.07331797
v -0.005785646 1.39907 0.0850936
v 0 1.398872 0.08697851
v -0.006125917 1.39493 0.08199423
v -0.005720987 1.404125 0.08580776
v 0 1.403685 0.08763607
v -0.006978483 1.409023 0.08751011
v 0 1.407353 0.08904703
v -0.02763062 1.395096 0.06919336
v -0.01792082 1.38999 0.07301693
v -0.02097244 1.384685 0.06642461
v -0.03082374 1.390635 0.06266417
v -0.01301943 1.380652 0.07013451
vt 0.7427668 0.6370242
vt 0.5961916 0.6312925
vt 0.6061983 0.7249819
vt 0.7110378 0.5521953
vt 0.5961916 0.6312925
vt 0.6065841 0.5722774
vt 0.7427668 0.6370242
vt 0.8649576 0.5816102
vt 0.7335247 0.507614
vt 0.7885651 0.4489707
vt 0.8649576 0.5816102
vt 0.9249813 0.5326586
vt 0.7110378 0.5521953
vt 0.6111616 0.5133893
vt 0.7335247 0.507614
vt 0.7885651 0.4489707
vt 0.6161867 0.4213201
vt 0.6111616 0.5133893
vt 0.7224808 0.3214037
vt 0.6161867 0.4213201
vt 0.4980266 0.3950953
vt 0.4980266 0.501179
vt 0.7224808 0.3214037
vt 0.6050476 0.2868137
vt 0.4980266 0.3950953
vt 0.4980266 0.2587188
vt 0.6065841 0.5722774
vt 0.6111616 0.5133893
vt 0.4980266 0.573503
vt 0.5961916 0.6312925
vt 0.4980266 0.6290147
vt 0.6061983 0.7249819
vt 0.4980266 0.686689
vt 0.9249813 0.5326586
vt 0.9860721 0.486722
vt 0.8453171 0.3929964
vt 0.7885651 0.4489707
vt 0.7224808 0.3214037
vt 0.2532865 0.6370242
vt 0.389855 0.7249819
vt 0.3998618 0.6312925
vt 0.2850156 0.5521953
vt 0.3998618 0.6312925
vt 0.3894692 0.5722774
vt 0.2625284 0.507614
vt 0.1310957 0.5816102
vt 0.2532865 0.6370242
vt 0.2074881 0.4489707
vt 0.1310957 0.5816102
vt 0.07107195 0.5326586
vt 0.2850156 0.5521953
vt 0.3848917 0.5133893
vt 0.2625284 0.507614
vt 0.3848917 0.5133893
vt 0.3798666 0.4213201
vt 0.2074881 0.4489707
vt 0.2874395 0.3214037
vt 0.4980266 0.501179
vt 0.4980266 0.3950953
vt 0.3798666 0.4213201
vt 0.2874395 0.3214037
vt 0.3910056 0.2868137
vt 0.4980266 0.3950953
vt 0.4980266 0.2587188
vt 0.3894692 0.5722774
vt 0.4980266 0.573503
vt 0.3848917 0.5133893
vt 0.3998618 0.6312925
vt 0.4980266 0.6290147
vt 0.389855 0.7249819
vt 0.4980266 0.686689
vt 0.07107195 0.5326586
vt 0.2074881 0.4489707
vt 0.1507362 0.3929964
vt 0.009981244 0.486722
vt 0.2874395 0.3214037
vn 0.4923918 -0.2855722 0.8221915
vn 0.3839297 -0.2822694 0.8791597
vn 0.3581488 -0.3788707 0.8533384
vn 0.4745701 -0.3487428 0.8081842
vn 0.3839297 -0.2822694 0.8791597
vn 0.3792779 -0.3515184 0.8559107
vn 0.4923918 -0.2855722 0.8221915
vn 0.501765 -0.3586994 0.7871256
vn 0.4389384 -0.4337034 0.7869145
vn 0.4793309 -0.4649146 0.7443765
vn 0.501765 -0.3586994 0.7871256
vn 0.5353942 -0.4746844 0.6985899
vn 0.4745701 -0.3487428 0.8081842
vn 0.3256219 -0.5337954 0.7804056
vn 0.4389384 -0.4337034 0.7869145
vn 0.4793309 -0.4649146 0.7443765
vn 0.3111761 -0.5020688 0.8069054
vn 0.3256219 -0.5337954 0.7804056
vn 0.4109659 -0.470783 0.7806858
vn 0.3111761 -0.5020688 0.8069054
vn 0 -0.5323793 0.8465059
vn 0 -0.5894327 0.8078175
vn 0.4109659 -0.470783 0.7806858
vn 0.2848068 -0.4814393 0.8289157
vn 0 -0.5323793 0.8465059
vn 0 -0.5187011 0.8549557
vn 0.3792779 -0.3515184 0.8559107
vn 0.3256219 -0.5337954 0.7804056
vn 0 -0.3753459 0.9268848
vn 0.3839297 -0.2822694 0.8791597
vn 0 -0.2612354 0.9652751
vn 0.3581488 -0.3788707 0.8533384
vn 0 -0.3812623 0.9244669
vn 0.5353942 -0.4746844 0.6985899
vn 0.5487612 -0.5241206 0.6512747
vn 0.5538719 -0.5136158 0.655305
vn 0.4793309 -0.4649146 0.7443765
vn 0.4109659 -0.470783 0.7806858
vn -0.492392 -0.2855721 0.8221914
vn -0.3581488 -0.3788707 0.8533384
vn -0.3839297 -0.2822694 0.8791597
vn -0.4745703 -0.3487428 0.8081841
vn -0.3839297 -0.2822694 0.8791597
vn -0.3792779 -0.3515185 0.8559107
vn -0.4389387 -0.4337033 0.7869144
vn -0.5017656 -0.358699 0.7871253
vn -0.492392 -0.2855721 0.8221914
vn -0.4793313 -0.4649144 0.7443764
vn -0.5017656 -0.358699 0.7871253
vn -0.5353945 -0.474684 0.6985899
vn -0.4745703 -0.3487428 0.8081841
vn -0.3256219 -0.5337954 0.7804056
vn -0.4389387 -0.4337033 0.7869144
vn -0.3256219 -0.5337954 0.7804056
vn -0.3111761 -0.5020688 0.8069054
vn -0.4793313 -0.4649144 0.7443764
vn -0.4109661 -0.4707831 0.7806857
vn 0 -0.5894327 0.8078175
vn 0 -0.5323793 0.8465059
vn -0.3111761 -0.5020688 0.8069054
vn -0.4109661 -0.4707831 0.7806857
vn -0.2848068 -0.4814393 0.8289157
vn 0 -0.5323793 0.8465059
vn 0 -0.5187011 0.8549557
vn -0.3792779 -0.3515185 0.8559107
vn 0 -0.3753459 0.9268848
vn -0.3256219 -0.5337954 0.7804056
vn -0.3839297 -0.2822694 0.8791597
vn 0 -0.2612354 0.9652751
vn -0.3581488 -0.3788707 0.8533384
vn 0 -0.3812623 0.9244669
vn -0.5353945 -0.474684 0.6985899
vn -0.4793313 -0.4649144 0.7443764
vn -0.5538722 -0.5136156 0.6553048
vn -0.5487613 -0.5241202 0.6512749
vn -0.4109661 -0.4707831 0.7806857
g Mouth_0
f 3/3/3 2/2/2 1/1/1
f 1/1/1 5/5/5 4/4/4
f 5/5/5 6/6/6 4/4/4
f 8/8/8 7/7/7 4/4/4
f 9/9/9 8/8/8 4/4/4
f 11/11/11 9/9/9 10/10/10
f 12/12/12 11/11/11 10/10/10
f 6/6/6 14/14/14 13/13/13
f 14/14/14 15/15/15 13/13/13
f 17/17/17 16/16/16 15/15/15
f 18/18/18 17/17/17 15/15/15
f 17/17/17 19/19/19 16/16/16
f 21/21/21 20/20/20 18/18/18
f 22/22/22 21/21/21 18/18/18
f 20/20/20 24/24/24 23/23/23
f 17/17/17 25/25/25 24/24/24
f 24/24/24 25/25/25 26/26/26
f 22/22/22 28/28/28 27/27/27
f 29/29/29 22/22/22 27/27/27
f 27/27/27 30/30/30 29/29/29
f 30/30/30 31/31/31 29/29/29
f 31/31/31 30/30/30 32/32/32
f 33/33/33 31/31/31 32/32/32
f 36/36/36 35/35/35 34/34/34
f 37/37/37 36/36/36 34/34/34
f 38/38/38 36/36/36 37/37/37
f 41/41/41 40/40/40 39/39/39
f 43/43/43 39/39/39 42/42/42
f 44/44/44 43/43/43 42/42/42
f 46/46/46 45/45/45 42/42/42
f 47/47/47 46/46/46 42/42/42
f 45/45/45 49/49/49 48/48/48
f 49/49/49 50/50/50 48/48/48
f 52/52/52 44/44/44 51/51/51
f 53/53/53 52/52/52 51/51/51
f 55/55/55 54/54/54 53/53/53
f 56/56/56 55/55/55 53/53/53
f 57/57/57 55/55/55 56/56/56
f 59/59/59 58/58/58 54/54/54
f 60/60/60 59/59/59 54/54/54
f 62/62/62 60/60/60 61/61/61
f 55/55/55 62/62/62 63/63/63
f 63/63/63 62/62/62 64/64/64
f 58/58/58 66/66/66 65/65/65
f 67/67/67 58/58/58 65/65/65
f 68/68/68 65/65/65 66/66/66
f 69/69/69 68/68/68 66/66/66
f 68/68/68 69/69/69 70/70/70
f 69/69/69 71/71/71 70/70/70
f 74/74/74 73/73/73 72/72/72
f 75/75/75 74/74/74 72/72/72
f 74/74/74 76/76/76 73/73/73
