g Mouth
v 0.01207857 1.322048 0.05332478
v 0.005455039 1.322818 0.05694935
v 0.005714934 1.329951 0.05905074
v 0.01142187 1.333287 0.05643843
v 0.02116667 1.328601 0.04765072
v 0.01873339 1.32006 0.04761583
v -5.240847E-06 1.322913 0.05893446
v -5.240847E-06 1.328068 0.0614198
v 0.02419474 1.317289 0.04356155
v 0.02889265 1.325037 0.04327762
v 0.005444472 1.31822 0.0563813
v -5.240847E-06 1.318083 0.05794127
v -5.240847E-06 1.314173 0.0531336
v 0.005438407 1.314395 0.05200676
v -5.278994E-06 1.307318 0.0500191
v 0.005467094 1.30786 0.04886094
v -5.278994E-06 1.303195 0.04637048
v 0.005451224 1.303951 0.04513675
v 0.01202463 1.314311 0.04894346
v 0.01205317 1.316787 0.05169725
v 0.005440657 1.298944 0.04150693
v 0.01299524 1.300238 0.03889755
v 0.005671218 1.292341 0.0377904
v 0.01367972 1.294867 0.03415301
v -5.240846E-06 1.298175 0.04347846
v -5.240846E-06 1.291474 0.03973912
v 0.01255209 1.305566 0.04287984
v 0.02091307 1.308815 0.04066831
v 0.01220537 1.309736 0.04703813
v 0.01933127 1.312956 0.04425209
v 0.02229277 1.303285 0.03617239
v 0.02866167 1.313589 0.03941812
v 0.0331088 1.309468 0.03351007
v 0.01720656 1.314209 0.04640081
v 0.03579 1.306329 0.02787518
v 0.02376871 1.299241 0.03133027
v -0.01208902 1.322048 0.05332478
v -0.01143232 1.333287 0.05643843
v -0.005725378 1.329951 0.05905074
v -0.005465483 1.322818 0.05694935
v -0.02117711 1.328601 0.04765072
v -0.01874383 1.32006 0.04761583
v -0.02420518 1.317289 0.04356155
v -0.02890309 1.325037 0.04327762
v -0.005454916 1.31822 0.0563813
v -0.005448851 1.314395 0.05200676
v -0.005477576 1.30786 0.04886094
v -0.005461706 1.303951 0.04513675
v -0.01203508 1.314311 0.04894346
v -0.01206365 1.316787 0.05169725
v -0.005451101 1.298944 0.04150693
v -0.01300569 1.300238 0.03889755
v -0.005681662 1.292341 0.0377904
v -0.01369016 1.294867 0.03415301
v -0.01256257 1.305566 0.04287984
v -0.02092351 1.308815 0.04066831
v -0.01221582 1.309736 0.04703813
v -0.01934171 1.312956 0.04425209
v -0.02230321 1.303285 0.03617239
v -0.02867211 1.313589 0.03941812
v -0.03311925 1.309468 0.03351007
v -0.017217 1.314209 0.04640081
v -0.03580045 1.306329 0.02787518
v -0.02377919 1.299241 0.03133027
vt 0.688945 0.6058304
vt 0.591448 0.6159179
vt 0.592294 0.7208652
vt 0.6784706 0.7703902
vt 0.8271 0.7017108
vt 0.7901418 0.5765104
vt 0.5029743 0.6183273
vt 0.5029743 0.6938882
vt 0.873329 0.5401127
vt 0.9443794 0.6513771
vt 0.5898596 0.5436931
vt 0.5029743 0.5423366
vt 0.5029743 0.4925048
vt 0.5828953 0.4953054
vt 0.5029743 0.3897457
vt 0.588958 0.3970143
vt 0.5029743 0.3293147
vt 0.5863173 0.3369557
vt 0.6919711 0.4991772
vt 0.6925478 0.5240663
vt 0.5931365 0.2514156
vt 0.7169588 0.2912168
vt 0.6072975 0.1595459
vt 0.7448347 0.2085272
vt 0.5029743 0.2221869
vt 0.5029743 0.1231201
vt 0.6961159 0.3750958
vt 0.8235064 0.4249437
vt 0.6912783 0.4252998
vt 0.7966484 0.4762812
vt 0.8687503 0.3709379
vt 0.9412596 0.4952108
vt 0.9600755 0.4591862
vt 0.7671504 0.4829429
vt 0.9696358 0.4002758
vt 0.90502 0.2952946
vt 0.3162431 0.6062002
vt 0.327044 0.7707386
vt 0.4131222 0.721043
vt 0.41376 0.6160942
vt 0.1782786 0.7023543
vt 0.2149885 0.5770807
vt 0.1317292 0.5408483
vt 0.06089962 0.6522533
vt 0.4152051 0.5438662
vt 0.4220734 0.4954648
vt 0.4158158 0.3971861
vt 0.4183375 0.3371224
vt 0.3136196 0.4995373
vt 0.3124782 0.5244433
vt 0.4113486 0.2515959
vt 0.2876055 0.2916426
vt 0.3970054 0.1597545
vt 0.2595657 0.2090086
vt 0.3086147 0.3754801
vt 0.1813233 0.4255806
vt 0.3135518 0.4256744
vt 0.2082831 0.4768648
vt 0.1359724 0.3716645
vt 0.06370971 0.496081
vt 0.04480818 0.4602214
vt 0.2377943 0.483468
vt 0.03514537 0.4014247
vt 0.09955275 0.2960935
vn 0.5650889 -0.2032729 0.7995965
vn 0.4368121 -0.2327858 0.8689108
vn 0.4517674 -0.2599007 0.8534389
vn 0.5541885 -0.2012306 0.8077013
vn 0.5580804 -0.18259 0.8094487
vn 0.5517244 -0.2169389 0.8053184
vn -7.390393E-07 -0.2855003 0.9583787
vn -6.07062E-07 -0.3574801 0.9339207
vn 0.4596152 -0.3010902 0.8355229
vn 0.4625912 -0.189267 0.8661335
vn 0.3539982 -0.4550318 0.8170871
vn -6.23438E-07 -0.5062057 0.8624128
vn -6.871114E-07 -0.5996347 0.8002739
vn 0.2711907 -0.5670225 0.7777795
vn -1.515805E-06 -0.5343482 0.8452644
vn 0.3012911 -0.5251226 0.7959083
vn -9.011158E-07 -0.6109182 0.7916937
vn 0.3263857 -0.5892853 0.7390638
vn 0.3612151 -0.5093793 0.7810611
vn 0.4869015 -0.4289371 0.7608809
vn 0.3711825 -0.5042374 0.7797232
vn 0.4061754 -0.541791 0.7358561
vn 0.3969593 -0.4812267 0.7815652
vn 0.4251441 -0.5546939 0.7152393
vn 7.934162E-07 -0.5119943 0.8589888
vn 4.607343E-07 -0.4838608 0.875145
vn 0.3957424 -0.5571024 0.7300855
vn 0.4365185 -0.5078189 0.7426786
vn 0.4063506 -0.5083757 0.759232
vn 0.4559211 -0.450588 0.7675327
vn 0.4525782 -0.562601 0.6918476
vn 0.4505345 -0.4909682 0.7456332
vn 0.4924882 -0.5675818 0.6597774
vn 0.5030522 -0.3473719 0.791373
vn 0.5129104 -0.5994259 0.6145011
vn 0.4764653 -0.5992435 0.6433412
vn -0.5650892 -0.2032723 0.7995965
vn -0.5541889 -0.2012307 0.807701
vn -0.4517684 -0.2599005 0.8534384
vn -0.4368125 -0.2327851 0.8689108
vn -0.5580797 -0.1825897 0.8094493
vn -0.5517241 -0.2169381 0.8053188
vn -0.4596125 -0.3010882 0.8355252
vn -0.4625892 -0.1892662 0.8661348
vn -0.3539983 -0.4550333 0.8170862
vn -0.2711926 -0.5670249 0.7777772
vn -0.3012951 -0.5251241 0.7959057
vn -0.3263879 -0.5892866 0.7390618
vn -0.3612197 -0.5093861 0.7810544
vn -0.486901 -0.4289375 0.7608811
vn -0.371183 -0.504237 0.7797232
vn -0.4061743 -0.5417896 0.7358577
vn -0.3969589 -0.4812245 0.7815667
vn -0.4251425 -0.5546919 0.7152417
vn -0.3957415 -0.5571002 0.7300877
vn -0.4365168 -0.5078162 0.7426815
vn -0.4063528 -0.508376 0.7592307
vn -0.4559189 -0.4505846 0.767536
vn -0.4525784 -0.562601 0.6918474
vn -0.450534 -0.4909674 0.7456341
vn -0.492492 -0.5675853 0.6597714
vn -0.5030543 -0.3473727 0.7913713
vn -0.5129161 -0.5994311 0.6144911
vn -0.4764675 -0.5992457 0.6433376
g Mouth_0
f 3/3/3 2/2/2 1/1/1
f 4/4/4 3/3/3 1/1/1
f 4/4/4 1/1/1 5/5/5
f 1/1/1 6/6/6 5/5/5
f 7/7/7 2/2/2 3/3/3
f 8/8/8 7/7/7 3/3/3
f 5/5/5 6/6/6 9/9/9
f 10/10/10 5/5/5 9/9/9
f 2/2/2 7/7/7 11/11/11
f 7/7/7 12/12/12 11/11/11
f 11/11/11 12/12/12 13/13/13
f 14/14/14 11/11/11 13/13/13
f 13/13/13 15/15/15 14/14/14
f 15/15/15 16/16/16 14/14/14
f 16/16/16 15/15/15 17/17/17
f 18/18/18 16/16/16 17/17/17
f 11/11/11 14/14/14 19/19/19
f 14/14/14 16/16/16 19/19/19
f 20/20/20 11/11/11 19/19/19
f 21/21/21 18/18/18 17/17/17
f 18/18/18 21/21/21 22/22/22
f 22/22/22 21/21/21 23/23/23
f 24/24/24 22/22/22 23/23/23
f 21/21/21 25/25/25 23/23/23
f 25/25/25 21/21/21 17/17/17
f 25/25/25 26/26/26 23/23/23
f 27/27/27 18/18/18 22/22/22
f 27/27/27 22/22/22 28/28/28
f 29/29/29 27/27/27 28/28/28
f 29/29/29 16/16/16 18/18/18
f 27/27/27 29/29/29 18/18/18
f 16/16/16 29/29/29 19/19/19
f 30/30/30 29/29/29 28/28/28
f 29/29/29 30/30/30 19/19/19
f 22/22/22 31/31/31 28/28/28
f 28/28/28 31/31/31 32/32/32
f 31/31/31 33/33/33 32/32/32
f 30/30/30 34/34/34 19/19/19
f 19/19/19 34/34/34 20/20/20
f 34/34/34 30/30/30 9/9/9
f 9/9/9 30/30/30 28/28/28
f 32/32/32 9/9/9 28/28/28
f 6/6/6 34/34/34 9/9/9
f 20/20/20 34/34/34 6/6/6
f 1/1/1 20/20/20 6/6/6
f 1/1/1 2/2/2 20/20/20
f 2/2/2 11/11/11 20/20/20
f 33/33/33 31/31/31 35/35/35
f 31/31/31 36/36/36 35/35/35
f 31/31/31 22/22/22 36/36/36
f 22/22/22 24/24/24 36/36/36
f 39/39/39 38/38/38 37/37/37
f 40/40/40 39/39/39 37/37/37
f 37/37/37 38/38/38 41/41/41
f 42/42/42 37/37/37 41/41/41
f 40/40/40 7/7/7 39/39/39
f 7/7/7 8/8/8 39/39/39
f 42/42/42 41/41/41 43/43/43
f 41/41/41 44/44/44 43/43/43
f 7/7/7 40/40/40 45/45/45
f 12/12/12 7/7/7 45/45/45
f 12/12/12 45/45/45 13/13/13
f 45/45/45 46/46/46 13/13/13
f 15/15/15 13/13/13 46/46/46
f 47/47/47 15/15/15 46/46/46
f 15/15/15 47/47/47 17/17/17
f 47/47/47 48/48/48 17/17/17
f 46/46/46 45/45/45 49/49/49
f 47/47/47 46/46/46 49/49/49
f 45/45/45 50/50/50 49/49/49
f 48/48/48 51/51/51 17/17/17
f 51/51/51 48/48/48 52/52/52
f 51/51/51 52/52/52 53/53/53
f 52/52/52 54/54/54 53/53/53
f 25/25/25 51/51/51 53/53/53
f 51/51/51 25/25/25 17/17/17
f 26/26/26 25/25/25 53/53/53
f 48/48/48 55/55/55 52/52/52
f 52/52/52 55/55/55 56/56/56
f 55/55/55 57/57/57 56/56/56
f 57/57/57 55/55/55 48/48/48
f 47/47/47 57/57/57 48/48/48
f 57/57/57 47/47/47 49/49/49
f 57/57/57 58/58/58 56/56/56
f 58/58/58 57/57/57 49/49/49
f 59/59/59 52/52/52 56/56/56
f 59/59/59 56/56/56 60/60/60
f 61/61/61 59/59/59 60/60/60
f 62/62/62 58/58/58 49/49/49
f 62/62/62 49/49/49 50/50/50
f 58/58/58 62/62/62 43/43/43
f 43/43/43 60/60/60 56/56/56
f 58/58/58 43/43/43 56/56/56
f 62/62/62 42/42/42 43/43/43
f 62/62/62 50/50/50 42/42/42
f 50/50/50 37/37/37 42/42/42
f 40/40/40 37/37/37 50/50/50
f 45/45/45 40/40/40 50/50/50
f 59/59/59 61/61/61 63/63/63
f 64/64/64 59/59/59 63/63/63
f 52/52/52 59/59/59 64/64/64
f 54/54/54 52/52/52 64/64/64
