g Object002
v -0.4986801 -0.004855401 0.005151291
v -0.4986801 -0.004855397 -0.005700378
v 0.3119818 -0.001823144 -0.001411438
v 0.3119818 -0.001823144 0.002476654
v 0.3119818 0.001823142 -0.001411438
v -0.4986801 0.004855401 -0.005700378
v -0.4986801 0.004855401 0.005151291
v 0.3119818 0.001823142 0.002476654
v 0.2843652 -0.004855401 -0.004691391
v 0.2850645 -0.004855401 0.005686035
v 0.2843652 0.004855401 -0.004691391
v 0.2850645 0.004855401 0.005686035
v -0.4499242 -4.768371E-09 0.02789658
v -0.4499242 7.152557E-09 -0.02791733
v -0.4767633 0 -3.013611E-05
v -0.3104647 0 0.0002487183
v -0.4635414 0 -0.02101341
v -0.4635414 -4.768371E-09 0.02095322
v -0.4499242 -0.02789651 -1.525879E-07
v -0.4499242 0.02791739 0
v -0.4767633 3.014564E-05 0
v -0.3104647 -0.0002486372 0
v -0.4635414 0.02101356 1.525879E-07
v -0.4635414 -0.02095297 -1.525879E-07
v -0.4986801 -0.004855397 -0.005700378
v -0.4986801 -0.004855401 0.005151291
v 0.3119818 0.001823142 -0.001411438
v 0.2843652 0.004855401 -0.004691391
v 0.2843652 -0.004855401 -0.004691391
v 0.3119818 0.001823142 0.002476654
v 0.3119818 0.001823142 -0.001411438
v 0.3119818 -0.001823144 -0.001411438
v -0.4986801 -0.004855401 0.005151291
v -0.4986801 0.004855401 0.005151291
v 0.2850645 0.004855401 0.005686035
v 0.2850645 -0.004855401 0.005686035
v 0.3119818 -0.001823144 0.002476654
v 0.3119818 -0.001823144 -0.001411438
v -0.4986801 0.004855401 0.005151291
v -0.4986801 0.004855401 -0.005700378
v -0.4986801 0.004855401 -0.005700378
v -0.4986801 -0.004855397 -0.005700378
v 0.3119818 0.001823142 0.002476654
v 0.3119818 -0.001823144 0.002476654
vt 0.004445713 0.439451
vt 0.004445214 0.4370647
vt 0.1875 0.4345703
vt 0.1982422 0.4414063
vt 0.1914063 0.4375
vt 0.03546467 0.4415751
vt 0.03546467 0.440396
vt 0.1914063 0.4389648
vt 0.1855469 0.4365234
vt 0.1860352 0.4389648
vt 0.1855469 0.4375
vt 0.1860352 0.4399414
vt 0.1870117 0.4155273
vt 0.1870117 0.4130859
vt 0.1870117 0.4140625
vt 0.1943359 0.4145508
vt 0.1870117 0.4135742
vt 0.1870117 0.4150391
vt 0.1870117 0.4155273
vt 0.1870117 0.4130859
vt 0.1870117 0.4140625
vt 0.1943359 0.4145508
vt 0.1870117 0.4135742
vt 0.1870117 0.4150391
vt 0.03067049 0.4415751
vt 0.03067049 0.440396
vt 0.1875 0.4355469
vt 0.1821289 0.4355469
vt 0.1821289 0.4345703
vt 0.1982422 0.4404297
vt 0.1977539 0.4404297
vt 0.1977539 0.4414063
vt 0.004430648 0.4345415
vt 0.004430648 0.4357404
vt 0.1826172 0.4355469
vt 0.1826172 0.4345703
vt 0.1914063 0.4389648
vt 0.1914063 0.4375
vt 0.004445713 0.439451
vt 0.0044463 0.4370715
vt 0.004430652 0.4357404
vt 0.004430652 0.4345415
vt 0.1875 0.4355469
vt 0.1875 0.4345703
vn 0 -1 -2.24522E-07
vn 0 -1 -2.24522E-07
vn 0.1179387 0 -0.9930209
vn 0.7272723 0 0.686349
vn 0.1105304 0.993858 -0.005417721
vn -1 0 0
vn -1 0 0
vn 0.1105304 0.993858 -0.005417721
vn 0.05072238 -0.9987097 -0.002486314
vn 0.05565944 -0.9984461 -0.002728297
vn 0.05072243 0.9987097 -0.002486194
vn 0.05565949 0.9984461 -0.002728188
vn 0 -1 0
vn 1.129555E-07 -1 -8.132231E-07
vn 0 -1 -1.135539E-07
vn 0 -1 -2.120245E-07
vn 0 -1 -1.897661E-07
vn 0 -1 -1.857934E-07
vn 7.878327E-07 1.545041E-06 -1
vn -3.192189E-06 -1.580561E-05 -1
vn 0 7.27188E-06 -1
vn -3.645267E-07 2.803911E-06 -1
vn -7.355603E-07 1.880837E-06 -1
vn 1.926596E-07 5.945431E-06 -1
vn -1 0 0
vn -1 0 0
vn 0.1179387 0 -0.9930209
vn 0.05762346 0 -0.9983384
vn 0.05762346 0 -0.9983384
vn 0.7272723 0 0.686349
vn 1 0 0
vn 1 0 0
vn -0.0006822939 0 0.9999998
vn -0.0006822939 0 0.9999998
vn 0.05676727 0 0.9983875
vn 0.05676727 0 0.9983875
vn 0.1105303 -0.993858 -0.005417716
vn 0.1105303 -0.993858 -0.005417717
vn 0 1 0
vn 0 1 0
vn 0.001288542 0 -0.9999992
vn 0.001288542 0 -0.9999992
vn 0.7272723 0 0.686349
vn 0.7272723 0 0.686349
g Object002_0
f 9/9/9 10/10/10 1/1/1
f 2/2/2 9/9/9 1/1/1
f 37/37/37 10/10/10 9/9/9
f 38/38/38 37/37/37 9/9/9
f 12/12/12 8/8/8 5/5/5
f 11/11/11 12/12/12 5/5/5
f 39/39/39 12/12/12 11/11/11
f 40/40/40 39/39/39 11/11/11
f 7/7/7 6/6/6 25/25/25
f 26/26/26 7/7/7 25/25/25
f 28/28/28 27/27/27 3/3/3
f 29/29/29 28/28/28 3/3/3
f 41/41/41 28/28/28 29/29/29
f 42/42/42 41/41/41 29/29/29
f 31/31/31 30/30/30 4/4/4
f 32/32/32 31/31/31 4/4/4
f 35/35/35 34/34/34 33/33/33
f 36/36/36 35/35/35 33/33/33
f 43/43/43 35/35/35 36/36/36
f 44/44/44 43/43/43 36/36/36
f 18/18/18 16/16/16 13/13/13
f 15/15/15 16/16/16 18/18/18
f 17/17/17 16/16/16 15/15/15
f 14/14/14 16/16/16 17/17/17
f 24/24/24 22/22/22 19/19/19
f 21/21/21 22/22/22 24/24/24
f 23/23/23 22/22/22 21/21/21
f 20/20/20 22/22/22 23/23/23
