g Part
v 0.5053947 0.07932236 3.123297
v -9.689331E-08 0.1408952 2.756106
v 0.5941273 0.07932238 2.94915
v 0.3671907 0.07932238 3.261501
v 0.1930432 0.07932238 3.350234
v -9.689331E-08 0.07932238 3.380808
v -0.1930434 0.07932238 3.350234
v -0.3671907 0.07932238 3.261501
v -0.5053947 0.07932236 3.123297
v -0.5941275 0.07932238 2.94915
v -0.6247024 0.07932238 2.756106
v -0.5941275 0.07932238 2.563062
v -0.5053947 0.07932238 2.388916
v -0.3671907 0.07932238 2.250711
v -0.1930434 0.07932238 2.161979
v -9.689331E-08 0.07932238 2.131404
v 0.1930432 0.07932238 2.161979
v 0.3671907 0.07932238 2.250711
v 0.5053947 0.07932238 2.388916
v 0.5941264 0.07932238 2.563062
v 0.6247022 0.07932238 2.756106
v -0.5441244 2.80044E-07 3.151436
v -0.6396565 2.80044E-07 2.963943
v -0.6725746 2.80044E-07 2.756106
v -0.6396565 2.80044E-07 2.548269
v -0.5441244 2.800441E-07 2.360777
v -0.3953295 2.80044E-07 2.211982
v -0.207837 2.80044E-07 2.11645
v -9.689331E-08 2.80044E-07 2.083531
v 0.2078368 2.80044E-07 2.11645
v 0.3953293 2.80044E-07 2.211982
v 0.5441241 2.800441E-07 2.360777
v 0.6396562 2.80044E-07 2.54827
v 0.6725745 2.80044E-07 2.756106
v 0.639657 2.80044E-07 2.963943
v 0.5441248 2.80044E-07 3.151436
v 0.3953293 2.80044E-07 3.300231
v 0.2078368 2.80044E-07 3.395763
v -9.689331E-08 2.80044E-07 3.428681
v -0.207837 2.80044E-07 3.395763
v -0.3953295 2.80044E-07 3.300231
v -0.5053947 -0.07932185 3.123297
v -0.5941275 -0.07932183 2.94915
v -9.689331E-08 -0.1408946 2.756106
v -0.3671907 -0.07932183 3.261501
v -0.1930434 -0.07932183 3.350234
v -9.689331E-08 -0.07932183 3.380808
v 0.1930432 -0.07932183 3.350234
v 0.3671907 -0.07932183 3.261501
v 0.5053947 -0.07932185 3.123297
v 0.5941273 -0.07932183 2.94915
v -0.6247024 -0.07932185 2.756106
v -0.5941275 -0.07932184 2.563063
v -0.5053947 -0.07932183 2.388916
v -0.3671907 -0.07932183 2.250712
v -0.1930434 -0.07932183 2.161979
v -9.689331E-08 -0.07932183 2.131404
v 0.1930432 -0.07932183 2.161979
v 0.3671907 -0.07932183 2.250712
v 0.5053947 -0.07932183 2.388916
v 0.5941264 -0.07932184 2.563063
v 0.6247022 -0.07932185 2.756106
v 0.05107818 0.05107846 -0.0007546051
v 0.05107818 0.05107847 2.137068
v -9.689331E-08 0.07223579 2.137068
v -9.689331E-08 0.0722357 -0.0007546051
v -0.05107838 0.05107847 2.137068
v -0.05107838 0.05107846 -0.0007546051
v -0.07223532 2.800441E-07 2.137068
v -0.07223532 2.800441E-07 -0.0007546051
v -0.05107838 -0.0510779 2.137068
v -0.05107838 -0.05107791 -0.0007546051
v -9.689331E-08 -0.07223515 2.137068
v -9.689331E-08 -0.07223515 -0.0007546051
v 0.05107818 -0.0510779 2.137068
v 0.05107818 -0.05107791 -0.0007546051
v 0.07223512 2.800441E-07 2.137068
v 0.07223512 2.800441E-07 -0.0007546051
v -0.05107838 -0.05107791 -0.0007546051
v -0.05107838 0.05107846 -0.0007546051
v -0.07223532 2.800441E-07 -0.0007546051
v -9.689331E-08 0.0722357 -0.0007546051
v -9.689331E-08 -0.07223515 -0.0007546051
v 0.05107818 0.05107846 -0.0007546051
v 0.05107818 -0.05107791 -0.0007546051
v 0.07223512 2.800441E-07 -0.0007546051
vt 0.5625473 0.325817
vt 0.4748687 0.2621147
vt 0.577941 0.295605
vt 0.5385709 0.3497933
vt 0.5083588 0.3651871
vt 0.4748687 0.3704915
vt 0.4413783 0.3651872
vt 0.4111664 0.3497933
vt 0.3871899 0.3258169
vt 0.3717961 0.295605
vt 0.3664918 0.2621147
vt 0.3717961 0.2286244
vt 0.3871899 0.1984125
vt 0.4111664 0.1744361
vt 0.4413783 0.1590423
vt 0.4748687 0.153738
vt 0.5083588 0.1590423
vt 0.5385709 0.1744361
vt 0.5625471 0.1984125
vt 0.577941 0.2286245
vt 0.5832453 0.2621147
vt 0.3737738 0.3355644
vt 0.3560246 0.3007295
vt 0.3499085 0.2621147
vt 0.3560246 0.2234999
vt 0.3737738 0.188665
vt 0.4014189 0.1610199
vt 0.4362539 0.1432706
vt 0.4748687 0.1371547
vt 0.5134833 0.1432706
vt 0.5483183 0.1610199
vt 0.5759634 0.188665
vt 0.5937127 0.2234999
vt 0.5998285 0.2621147
vt 0.5937127 0.3007295
vt 0.5759634 0.3355644
vt 0.5483183 0.3632095
vt 0.5134833 0.3809588
vt 0.4748687 0.3870748
vt 0.4362539 0.3809588
vt 0.4014189 0.3632095
vt 0.3871899 0.3258169
vt 0.3717961 0.295605
vt 0.4748685 0.2621147
vt 0.4111664 0.3497933
vt 0.4413783 0.3651871
vt 0.4748687 0.3704915
vt 0.5083588 0.3651871
vt 0.5385709 0.3497933
vt 0.5625473 0.325817
vt 0.577941 0.295605
vt 0.3664918 0.2621147
vt 0.3717961 0.2286244
vt 0.3871899 0.1984125
vt 0.4111664 0.1744361
vt 0.4413783 0.1590423
vt 0.4748687 0.153738
vt 0.5083588 0.1590423
vt 0.5385709 0.1744361
vt 0.5625471 0.1984125
vt 0.577941 0.2286244
vt 0.5832454 0.2621147
vt 0.9801344 0.5134712
vt 0.9801292 0.9817524
vt 0.9680199 0.9817518
vt 0.9680242 0.5134715
vt 0.9559118 0.9817523
vt 0.9559142 0.5134715
vt 0.943803 0.9817523
vt 0.943804 0.5134715
vt 0.9559142 0.9817513
vt 0.9559142 0.5134715
vt 0.9680228 0.9817516
vt 0.9680242 0.5134715
vt 0.980132 0.981752
vt 0.9801344 0.5134715
vt 0.9922406 0.9817523
vt 0.9922444 0.5134715
vt 0.5900655 0.4103392
vt 0.5900655 0.3640949
vt 0.5804879 0.387217
vt 0.6131876 0.3545173
vt 0.6131876 0.4199167
vt 0.6363096 0.3640949
vt 0.6363096 0.4103392
vt 0.6458873 0.387217
vn 0.2623261 0.9459704 0.1905913
vn 0 1 0
vn 0.3083832 0.9459704 0.1001995
vn 0.1905909 0.9459704 0.2623264
vn 0.1002 0.9459702 0.3083833
vn 0 0.9459704 0.3242533
vn -0.1001999 0.9459703 0.3083832
vn -0.1905911 0.9459704 0.2623264
vn -0.2623265 0.9459703 0.1905913
vn -0.3083836 0.9459701 0.1001998
vn -0.3242534 0.9459703 0
vn -0.3083838 0.9459701 -0.1001998
vn -0.2623264 0.9459703 -0.1905913
vn -0.1905911 0.9459704 -0.2623265
vn -0.1001998 0.9459704 -0.3083831
vn 0 0.9459703 -0.3242534
vn 0.1001998 0.9459704 -0.3083831
vn 0.1905911 0.9459704 -0.2623265
vn 0.262327 0.9459701 -0.1905912
vn 0.3083832 0.9459704 -0.1001997
vn 0.3242533 0.9459703 -6.646763E-07
vn -0.8090169 0 0.5877853
vn -0.9510565 3.376613E-07 0.3090171
vn -1 0 0
vn -0.9510564 -4.15583E-07 -0.3090173
vn -0.8090165 -7.012968E-07 -0.5877859
vn -0.5877846 -9.090882E-07 -0.8090175
vn -0.3090174 -1.103893E-06 -0.9510564
vn 0 -1.116881E-06 -1
vn 0.3090174 -1.11688E-06 -0.9510564
vn 0.5877845 -9.350622E-07 -0.8090175
vn 0.8090172 -6.883099E-07 -0.587785
vn 0.9510566 -4.2857E-07 -0.3090167
vn 1 0 -1.72402E-06
vn 0.9510569 4.285705E-07 0.309016
vn 0.8090166 0 0.5877858
vn 0.5877841 -1.155839E-06 0.8090178
vn 0.3090174 -2.27272E-06 0.9510564
vn 0 -2.363632E-06 1
vn -0.3090175 -2.259734E-06 0.9510564
vn -0.5877847 -1.103893E-06 0.8090174
vn -0.2623265 -0.9459702 0.1905916
vn -0.3083836 -0.9459701 0.1001998
vn 0 -1 0
vn -0.190591 -0.9459704 0.2623263
vn -0.1001996 -0.9459704 0.308383
vn 0 -0.9459704 0.3242531
vn 0.1001996 -0.9459704 0.3083831
vn 0.1905907 -0.9459704 0.2623263
vn 0.2623261 -0.9459704 0.1905915
vn 0.3083834 -0.9459703 0.1001995
vn -0.3242536 -0.9459702 0
vn -0.3083836 -0.9459702 -0.1001997
vn -0.2623263 -0.9459704 -0.1905913
vn -0.1905913 -0.9459703 -0.2623265
vn -0.1001998 -0.9459704 -0.3083831
vn 0 -0.9459702 -0.3242534
vn 0.1001998 -0.9459704 -0.3083831
vn 0.1905912 -0.9459703 -0.2623264
vn 0.2623269 -0.9459702 -0.1905912
vn 0.308383 -0.9459704 -0.1001997
vn 0.3242534 -0.9459702 -6.258315E-07
vn 0.7071084 0.7071051 0
vn 0.7071081 0.7071055 0
vn 0 1 0
vn 0 1 0
vn -0.7071081 0.7071055 0
vn -0.7071084 0.7071051 0
vn -1 -4.447969E-07 0
vn -1 0 0
vn -0.7071083 -0.7071053 0
vn -0.7071082 -0.7071053 0
vn 0 -1 0
vn 0 -1 0
vn 0.7071083 -0.7071053 0
vn 0.7071082 -0.7071053 0
vn 1 -4.447969E-07 0
vn 1 0 0
vn 0 0 -1
vn 0 0 -1
vn 0 0 -1
vn 0 0 -1
vn 0 0 -1
vn 0 0 -1
vn 0 0 -1
vn 0 0 -1
g Part_0
f 3/3/3 2/2/2 1/1/1
f 1/1/1 2/2/2 4/4/4
f 4/4/4 2/2/2 5/5/5
f 5/5/5 2/2/2 6/6/6
f 6/6/6 2/2/2 7/7/7
f 7/7/7 2/2/2 8/8/8
f 8/8/8 2/2/2 9/9/9
f 9/9/9 2/2/2 10/10/10
f 10/10/10 2/2/2 11/11/11
f 11/11/11 2/2/2 12/12/12
f 12/12/12 2/2/2 13/13/13
f 13/13/13 2/2/2 14/14/14
f 14/14/14 2/2/2 15/15/15
f 15/15/15 2/2/2 16/16/16
f 16/16/16 2/2/2 17/17/17
f 17/17/17 2/2/2 18/18/18
f 18/18/18 2/2/2 19/19/19
f 19/19/19 2/2/2 20/20/20
f 20/20/20 2/2/2 21/21/21
f 21/21/21 2/2/2 3/3/3
f 9/9/9 22/22/22 8/8/8
f 23/23/23 22/22/22 9/9/9
f 10/10/10 23/23/23 9/9/9
f 24/24/24 23/23/23 10/10/10
f 11/11/11 24/24/24 10/10/10
f 25/25/25 24/24/24 11/11/11
f 12/12/12 25/25/25 11/11/11
f 26/26/26 25/25/25 12/12/12
f 13/13/13 26/26/26 12/12/12
f 27/27/27 26/26/26 13/13/13
f 14/14/14 27/27/27 13/13/13
f 28/28/28 27/27/27 14/14/14
f 15/15/15 28/28/28 14/14/14
f 29/29/29 28/28/28 15/15/15
f 16/16/16 29/29/29 15/15/15
f 30/30/30 29/29/29 16/16/16
f 17/17/17 30/30/30 16/16/16
f 31/31/31 30/30/30 17/17/17
f 18/18/18 31/31/31 17/17/17
f 32/32/32 31/31/31 18/18/18
f 19/19/19 32/32/32 18/18/18
f 33/33/33 32/32/32 19/19/19
f 20/20/20 33/33/33 19/19/19
f 34/34/34 33/33/33 20/20/20
f 21/21/21 34/34/34 20/20/20
f 35/35/35 34/34/34 21/21/21
f 3/3/3 35/35/35 21/21/21
f 36/36/36 35/35/35 3/3/3
f 1/1/1 36/36/36 3/3/3
f 37/37/37 36/36/36 1/1/1
f 4/4/4 37/37/37 1/1/1
f 38/38/38 37/37/37 4/4/4
f 5/5/5 38/38/38 4/4/4
f 39/39/39 38/38/38 5/5/5
f 6/6/6 39/39/39 5/5/5
f 40/40/40 39/39/39 6/6/6
f 7/7/7 40/40/40 6/6/6
f 41/41/41 40/40/40 7/7/7
f 8/8/8 41/41/41 7/7/7
f 22/22/22 41/41/41 8/8/8
f 22/22/22 42/42/42 41/41/41
f 43/43/43 42/42/42 22/22/22
f 44/44/44 42/42/42 43/43/43
f 44/44/44 45/45/45 42/42/42
f 42/42/42 45/45/45 41/41/41
f 41/41/41 45/45/45 40/40/40
f 44/44/44 46/46/46 45/45/45
f 45/45/45 46/46/46 40/40/40
f 40/40/40 46/46/46 39/39/39
f 44/44/44 47/47/47 46/46/46
f 46/46/46 47/47/47 39/39/39
f 39/39/39 47/47/47 38/38/38
f 44/44/44 48/48/48 47/47/47
f 47/47/47 48/48/48 38/38/38
f 44/44/44 49/49/49 48/48/48
f 44/44/44 50/50/50 49/49/49
f 44/44/44 51/51/51 50/50/50
f 44/44/44 43/43/43 52/52/52
f 44/44/44 52/52/52 53/53/53
f 44/44/44 53/53/53 54/54/54
f 44/44/44 54/54/54 55/55/55
f 44/44/44 55/55/55 56/56/56
f 44/44/44 56/56/56 57/57/57
f 44/44/44 57/57/57 58/58/58
f 44/44/44 58/58/58 59/59/59
f 44/44/44 59/59/59 60/60/60
f 44/44/44 60/60/60 61/61/61
f 44/44/44 61/61/61 62/62/62
f 44/44/44 62/62/62 51/51/51
f 48/48/48 49/49/49 37/37/37
f 38/38/38 48/48/48 37/37/37
f 51/51/51 62/62/62 34/34/34
f 35/35/35 51/51/51 34/34/34
f 50/50/50 51/51/51 35/35/35
f 36/36/36 50/50/50 35/35/35
f 49/49/49 50/50/50 36/36/36
f 37/37/37 49/49/49 36/36/36
f 62/62/62 61/61/61 33/33/33
f 34/34/34 62/62/62 33/33/33
f 61/61/61 60/60/60 32/32/32
f 33/33/33 61/61/61 32/32/32
f 60/60/60 59/59/59 31/31/31
f 32/32/32 60/60/60 31/31/31
f 31/31/31 59/59/59 30/30/30
f 59/59/59 58/58/58 30/30/30
f 30/30/30 58/58/58 29/29/29
f 58/58/58 57/57/57 29/29/29
f 29/29/29 57/57/57 28/28/28
f 57/57/57 56/56/56 28/28/28
f 28/28/28 56/56/56 27/27/27
f 56/56/56 55/55/55 27/27/27
f 27/27/27 55/55/55 26/26/26
f 55/55/55 54/54/54 26/26/26
f 26/26/26 54/54/54 25/25/25
f 54/54/54 53/53/53 25/25/25
f 25/25/25 53/53/53 24/24/24
f 53/53/53 52/52/52 24/24/24
f 24/24/24 52/52/52 23/23/23
f 52/52/52 43/43/43 23/23/23
f 23/23/23 43/43/43 22/22/22
f 65/65/65 64/64/64 63/63/63
f 66/66/66 65/65/65 63/63/63
f 67/67/67 65/65/65 66/66/66
f 68/68/68 67/67/67 66/66/66
f 69/69/69 67/67/67 68/68/68
f 70/70/70 69/69/69 68/68/68
f 71/71/71 69/69/69 70/70/70
f 72/72/72 71/71/71 70/70/70
f 73/73/73 71/71/71 72/72/72
f 74/74/74 73/73/73 72/72/72
f 75/75/75 73/73/73 74/74/74
f 76/76/76 75/75/75 74/74/74
f 77/77/77 75/75/75 76/76/76
f 78/78/78 77/77/77 76/76/76
f 64/64/64 77/77/77 78/78/78
f 63/63/63 64/64/64 78/78/78
f 81/81/81 80/80/80 79/79/79
f 80/80/80 82/82/82 79/79/79
f 82/82/82 83/83/83 79/79/79
f 83/83/83 82/82/82 84/84/84
f 85/85/85 83/83/83 84/84/84
f 85/85/85 84/84/84 86/86/86
