g Platform_Blktek
v -4.074427 -7.873048 4.074427
v -4.483543 -5.38584 4.483543
v -2.426478 -5.38584 5.858031
v -2.205064 -7.873048 5.323493
v -2.059936E-06 -5.38584 6.340688
v -1.20163E-06 -7.873048 5.762108
v 2.426476 -5.38584 5.858033
v 2.205062 -7.873048 5.323493
v 4.483544 -5.38584 4.483543
v 4.074427 -7.873048 4.074426
v 5.858033 -5.38584 2.426475
v 5.323494 -7.873048 2.205061
v 6.340688 -5.38584 -3.318787E-06
v 5.762108 -7.873048 -2.155304E-06
v 5.85803 -5.38584 -2.42648
v 5.323492 -7.873048 -2.205066
v 4.483543 -5.38584 -4.483543
v 4.074427 -7.873048 -4.074428
v -2.973694 -2.43971 7.179128
v -1.754761E-06 -2.439711 7.770633
v -2.422333E-06 0.2984615 11.22288
v -4.294811 0.2984615 10.36859
v -5.494667 -2.43971 5.494668
v -7.935772 0.2984615 7.935774
v 4.294807 0.2984616 10.36859
v 2.973691 -2.439711 7.17913
v 7.935776 0.2984615 7.935775
v 5.494668 -2.43971 5.494667
v 10.36859 0.2984616 4.294807
v 7.179129 -2.439711 2.973691
v 11.22288 0.2984615 -5.195737E-06
v 7.770633 -2.439711 -3.633499E-06
v 10.36858 0.2984615 -4.294815
v 7.179126 -2.43971 -2.973697
v 7.935772 0.2984615 -7.935774
v 5.494667 -2.43971 -5.494668
v 5.077853 -9.223974 2.103313
v 3.88642 -9.223974 3.88642
v 5.496228 -9.223974 -2.593994E-06
v 5.077851 -9.223974 -2.103319
v 3.88642 -9.223974 -3.886421
v 2.205062 -7.873048 5.323493
v -3.237794E-08 -7.873048 3.814698E-08
v -1.20163E-06 -7.873048 5.762108
v -2.205064 -7.873048 5.323493
v -4.074427 -7.873048 4.074427
v 4.074427 -7.873048 4.074426
v -3.023371E-08 -9.223974 2.861024E-08
v 3.88642 -9.223974 3.88642
v 5.077853 -9.223974 2.103313
v 5.496228 -9.223974 -2.593994E-06
v 5.077851 -9.223974 -2.103319
v 3.88642 -9.223974 -3.886421
v -4.074427 -7.873048 4.074427
v -5.323493 -7.873048 2.205064
v -5.85803 -5.38584 2.426479
v -4.483543 -5.38584 4.483543
v -6.340688 -5.38584 2.861023E-06
v -5.762108 -7.873048 1.926422E-06
v -5.858033 -5.38584 -2.426475
v -5.323494 -7.873048 -2.205062
v -4.483544 -5.38584 -4.483543
v -4.074427 -7.873048 -4.074427
v -2.426476 -5.38584 -5.858032
v -2.205062 -7.873048 -5.323493
v 2.527237E-06 -5.38584 -6.340688
v 1.430511E-06 -7.873048 -5.762108
v 2.426479 -5.38584 -5.85803
v 2.205065 -7.873048 -5.323492
v 4.483543 -5.38584 -4.483543
v 4.074427 -7.873048 -4.074428
v -5.494667 -2.43971 5.494668
v -7.770633 -2.439711 2.737045E-06
v -7.179128 -2.43971 2.973695
v -10.36859 0.2984615 4.294812
v -7.935772 0.2984615 7.935774
v -11.22288 0.2984615 3.85046E-06
v -10.36859 0.2984615 -4.294806
v -7.17913 -2.439711 -2.97369
v -7.935776 0.2984615 -7.935775
v -5.494668 -2.43971 -5.494667
v -4.294808 0.2984615 -10.36859
v -2.973691 -2.439711 -7.179129
v 3.77655E-06 0.2984615 -11.22288
v 2.651215E-06 -2.439711 -7.770633
v 4.294814 0.2984615 -10.36858
v 2.973696 -2.43971 -7.179127
v 7.935772 0.2984615 -7.935774
v 5.494667 -2.43971 -5.494668
v -3.88642 -9.223974 -3.88642
v -2.103314 -9.223974 -5.077853
v 1.897812E-06 -9.223974 -5.496229
v 2.103318 -9.223974 -5.077851
v 3.88642 -9.223974 -3.886421
v -5.323494 -7.873048 -2.205062
v -5.762108 -7.873048 1.926422E-06
v -3.237794E-08 -7.873048 3.814698E-08
v -5.323493 -7.873048 2.205064
v -4.074427 -7.873048 4.074427
v -4.074427 -7.873048 -4.074427
v -3.023371E-08 -9.223974 2.861024E-08
v -3.88642 -9.223974 -3.88642
v -2.103314 -9.223974 -5.077853
v 1.897812E-06 -9.223974 -5.496229
v 2.103318 -9.223974 -5.077851
v 3.88642 -9.223974 -3.886421
vt 0.7016874 0.6215757
vt 0.6816579 0.646176
vt 0.7062126 0.6661316
vt 0.7237145 0.6387073
vt 0.7339788 0.6819379
vt 0.7467191 0.6520439
vt 0.7645916 0.6919627
vt 0.7710587 0.6603312
vt 0.796936 0.6951756
vt 0.7959583 0.66328
vt 0.82946 0.6913247
vt 0.8227394 0.6592172
vt 0.8607745 0.6817707
vt 0.8492451 0.6510071
vt 0.8896813 0.6671938
vt 0.8743508 0.638488
vt 0.9155708 0.6487945
vt 0.8982229 0.6230875
vt 0.682265 0.7005498
vt 0.7172133 0.720376
vt 0.6939566 0.7715835
vt 0.6475572 0.7448409
vt 0.6533872 0.6741464
vt 0.6086885 0.7061926
vt 0.7442994 0.7875488
vt 0.7560398 0.7326946
vt 0.796461 0.7928621
vt 0.7967852 0.7367775
vt 0.8484143 0.7878054
vt 0.837522 0.7326417
vt 0.8985677 0.7729452
vt 0.876571 0.7210448
vt 0.945494 0.7479946
vt 0.9122406 0.7025836
vt 0.9856775 0.7109355
vt 0.9422199 0.6774973
vt 0.8184747 0.6420678
vt 0.7923898 0.6466659
vt 0.8429282 0.6345955
vt 0.8661443 0.6230452
vt 0.8888032 0.6086659
vt 0.03463745 0.1534627
vt 0.007281225 0.1421305
vt 0.02821885 0.1630684
vt 0.01861262 0.1694862
vt 0.007281338 0.1717399
vt 0.03689146 0.142132
vt 0.007281757 0.1351888
vt 0.03552562 0.1351901
vt 0.03337573 0.1243811
vt 0.02725316 0.1152179
vt 0.0180902 0.1090944
vt 0.007281731 0.106944
vt 0.7016874 0.6215757
vt 0.7237145 0.6387073
vt 0.7062126 0.6661316
vt 0.6816579 0.646176
vt 0.7339788 0.6819379
vt 0.7467191 0.6520439
vt 0.7645916 0.6919627
vt 0.7710587 0.6603312
vt 0.796936 0.6951756
vt 0.7959583 0.66328
vt 0.82946 0.6913247
vt 0.8227394 0.6592172
vt 0.8607745 0.6817707
vt 0.8492451 0.6510071
vt 0.8896813 0.6671938
vt 0.8743508 0.638488
vt 0.9155708 0.6487945
vt 0.8982229 0.6230875
vt 0.6533872 0.6741464
vt 0.7172133 0.720376
vt 0.682265 0.7005498
vt 0.6475572 0.7448409
vt 0.6086885 0.7061926
vt 0.6939566 0.7715835
vt 0.7442994 0.7875488
vt 0.7560398 0.7326946
vt 0.796461 0.7928621
vt 0.7967852 0.7367775
vt 0.8484143 0.7878054
vt 0.837522 0.7326417
vt 0.8985677 0.7729452
vt 0.876571 0.7210448
vt 0.945494 0.7479946
vt 0.9122406 0.7025836
vt 0.9856775 0.7109355
vt 0.9422199 0.6774973
vt 0.7923898 0.6466659
vt 0.8184747 0.6420678
vt 0.8429282 0.6345955
vt 0.8661443 0.6230452
vt 0.8888032 0.6086659
vt 0.03463745 0.1534627
vt 0.02821885 0.1630684
vt 0.007281225 0.1421305
vt 0.01861262 0.1694862
vt 0.007281338 0.1717399
vt 0.03689146 0.142132
vt 0.007281757 0.1351888
vt 0.03552562 0.1351901
vt 0.03337573 0.1243811
vt 0.02725316 0.1152179
vt 0.0180902 0.1090944
vt 0.007281731 0.106944
vn -0.4591269 -0.7605293 0.459127
vn -0.6600676 -0.3586384 0.6600676
vn -0.3572261 -0.3586384 0.8624199
vn -0.2484774 -0.7605296 0.5998781
vn -3.527435E-07 -0.3586385 0.9334765
vn 0 -0.7605295 0.6493034
vn 0.357226 -0.3586385 0.8624199
vn 0.2484774 -0.7605295 0.5998782
vn 0.6600677 -0.3586383 0.6600675
vn 0.3334038 -0.4872966 0.8070836
vn 0.86242 -0.3586384 0.3572258
vn 0.9021095 -0.2158067 0.3736655
vn 0.9334765 -0.3586385 -5.685394E-07
vn 0.9764361 -0.2158066 -4.814952E-07
vn 0.8624198 -0.3586383 -0.3572263
vn 0.9021094 -0.2158064 -0.373666
vn 0.6600676 -0.3586384 -0.6600676
vn 0.6904445 -0.2158063 -0.6904448
vn -0.2782018 -0.6866628 0.6716383
vn -2.474654E-07 -0.6866627 0.7269762
vn -1.893157E-07 -0.7834772 0.6214204
vn -0.2378073 -0.7834772 0.5741175
vn -0.5140498 -0.6866628 0.5140498
vn -0.4394106 -0.7834773 0.4394106
vn 0.2378072 -0.7834773 0.5741177
vn 0.2782016 -0.6866627 0.6716384
vn 0.4394104 -0.7834775 0.4394104
vn 0.5140497 -0.6866629 0.5140496
vn 0.5741175 -0.7834774 0.2378071
vn 0.6716384 -0.6866629 0.2782016
vn 0.6214203 -0.7834774 -3.356052E-07
vn 0.7269759 -0.6866629 -4.067251E-07
vn 0.5741175 -0.7834773 -0.2378076
vn 0.6716383 -0.6866628 -0.2782021
vn 0.4394106 -0.7834773 -0.4394106
vn 0.5140498 -0.6866627 -0.5140497
vn 0.4313553 -0.8843125 0.1786732
vn -0.3448241 -0.5535039 0.7581093
vn 0.4668955 -0.8843125 0
vn 0.4313551 -0.8843125 -0.1786732
vn 0.3301449 -0.8843125 -0.3301452
vn 0.2484774 -0.7605295 0.5998782
vn -0.5426612 -0.6411219 0.5426615
vn 0 -0.7605295 0.6493034
vn -0.2484774 -0.7605296 0.5998781
vn -0.4591269 -0.7605293 0.459127
vn 0.3334038 -0.4872966 0.8070836
vn -0.5629479 -0.6051272 0.5629482
vn -0.3448241 -0.5535039 0.7581093
vn 0.4313553 -0.8843125 0.1786732
vn 0.4668955 -0.8843125 0
vn 0.4313551 -0.8843125 -0.1786732
vn 0.3301449 -0.8843125 -0.3301452
vn -0.4591269 -0.7605293 0.459127
vn -0.599878 -0.7605295 0.2484776
vn -0.8624198 -0.3586384 0.3572262
vn -0.6600676 -0.3586384 0.6600676
vn -0.9334765 -0.3586386 4.274422E-07
vn -0.6493034 -0.7605295 3.067143E-07
vn -0.86242 -0.3586385 -0.3572258
vn -0.5998781 -0.7605296 -0.2484774
vn -0.6600676 -0.3586384 -0.6600676
vn -0.8070836 -0.4872966 -0.3334037
vn -0.3572258 -0.3586385 -0.8624199
vn -0.3736657 -0.2158066 -0.9021094
vn 4.440417E-07 -0.3586386 -0.9334765
vn 4.226073E-07 -0.2158065 -0.9764361
vn 0.3572261 -0.3586384 -0.8624198
vn 0.3736657 -0.2158063 -0.9021095
vn 0.6600676 -0.3586384 -0.6600676
vn 0.6904445 -0.2158063 -0.6904448
vn -0.5140498 -0.6866628 0.5140498
vn -0.7269761 -0.6866629 2.89118E-07
vn -0.6716383 -0.6866627 0.2782019
vn -0.5741175 -0.7834774 0.2378074
vn -0.4394106 -0.7834773 0.4394106
vn -0.6214204 -0.7834772 2.409472E-07
vn -0.5741175 -0.7834774 -0.2378071
vn -0.6716385 -0.6866628 -0.2782015
vn -0.4394104 -0.7834775 -0.4394103
vn -0.5140497 -0.6866629 -0.5140495
vn -0.2378071 -0.7834774 -0.5741175
vn -0.2782015 -0.6866629 -0.6716384
vn 2.409472E-07 -0.7834773 -0.6214203
vn 2.842175E-07 -0.6866629 -0.7269761
vn 0.2378074 -0.7834772 -0.5741175
vn 0.2782018 -0.6866628 -0.6716383
vn 0.4394106 -0.7834773 -0.4394106
vn 0.5140498 -0.6866627 -0.5140497
vn -0.7581092 -0.5535037 0.3448246
vn -0.1786731 -0.8843125 -0.4313551
vn 2.289059E-07 -0.8843125 -0.4668956
vn 0.1786731 -0.8843124 -0.4313554
vn 0.3301449 -0.8843125 -0.3301452
vn -0.5998781 -0.7605296 -0.2484774
vn -0.6493034 -0.7605295 3.067143E-07
vn -0.5426612 -0.6411219 0.5426615
vn -0.599878 -0.7605295 0.2484776
vn -0.4591269 -0.7605293 0.459127
vn -0.8070836 -0.4872966 -0.3334037
vn -0.5629479 -0.6051272 0.5629482
vn -0.7581092 -0.5535037 0.3448246
vn -0.1786731 -0.8843125 -0.4313551
vn 2.289059E-07 -0.8843125 -0.4668956
vn 0.1786731 -0.8843124 -0.4313554
vn 0.3301449 -0.8843125 -0.3301452
g Platform_Blktek_0
f 3/3/3 2/2/2 1/1/1
f 4/4/4 3/3/3 1/1/1
f 5/5/5 3/3/3 4/4/4
f 6/6/6 5/5/5 4/4/4
f 7/7/7 5/5/5 6/6/6
f 8/8/8 7/7/7 6/6/6
f 9/9/9 7/7/7 8/8/8
f 10/10/10 9/9/9 8/8/8
f 11/11/11 9/9/9 10/10/10
f 12/12/12 11/11/11 10/10/10
f 13/13/13 11/11/11 12/12/12
f 14/14/14 13/13/13 12/12/12
f 15/15/15 13/13/13 14/14/14
f 16/16/16 15/15/15 14/14/14
f 17/17/17 15/15/15 16/16/16
f 18/18/18 17/17/17 16/16/16
f 19/19/19 3/3/3 5/5/5
f 20/20/20 19/19/19 5/5/5
f 20/20/20 5/5/5 7/7/7
f 20/20/20 21/21/21 19/19/19
f 21/21/21 22/22/22 19/19/19
f 19/19/19 22/22/22 23/23/23
f 22/22/22 24/24/24 23/23/23
f 25/25/25 21/21/21 20/20/20
f 26/26/26 25/25/25 20/20/20
f 27/27/27 25/25/25 26/26/26
f 28/28/28 27/27/27 26/26/26
f 29/29/29 27/27/27 28/28/28
f 30/30/30 29/29/29 28/28/28
f 31/31/31 29/29/29 30/30/30
f 32/32/32 31/31/31 30/30/30
f 33/33/33 31/31/31 32/32/32
f 34/34/34 33/33/33 32/32/32
f 35/35/35 33/33/33 34/34/34
f 36/36/36 35/35/35 34/34/34
f 28/28/28 26/26/26 9/9/9
f 26/26/26 7/7/7 9/9/9
f 26/26/26 20/20/20 7/7/7
f 28/28/28 9/9/9 11/11/11
f 30/30/30 28/28/28 11/11/11
f 30/30/30 11/11/11 13/13/13
f 32/32/32 30/30/30 13/13/13
f 32/32/32 13/13/13 15/15/15
f 34/34/34 32/32/32 15/15/15
f 34/34/34 15/15/15 17/17/17
f 36/36/36 34/34/34 17/17/17
f 23/23/23 2/2/2 3/3/3
f 19/19/19 23/23/23 3/3/3
f 38/38/38 37/37/37 12/12/12
f 10/10/10 38/38/38 12/12/12
f 12/12/12 37/37/37 14/14/14
f 37/37/37 39/39/39 14/14/14
f 14/14/14 39/39/39 16/16/16
f 39/39/39 40/40/40 16/16/16
f 16/16/16 40/40/40 18/18/18
f 40/40/40 41/41/41 18/18/18
f 44/44/44 43/43/43 42/42/42
f 45/45/45 43/43/43 44/44/44
f 46/46/46 43/43/43 45/45/45
f 47/47/47 42/42/42 43/43/43
f 47/47/47 43/43/43 48/48/48
f 49/49/49 47/47/47 48/48/48
f 50/50/50 49/49/49 48/48/48
f 51/51/51 50/50/50 48/48/48
f 52/52/52 51/51/51 48/48/48
f 52/52/52 48/48/48 53/53/53
f 56/56/56 55/55/55 54/54/54
f 57/57/57 56/56/56 54/54/54
f 56/56/56 58/58/58 55/55/55
f 58/58/58 59/59/59 55/55/55
f 58/58/58 60/60/60 59/59/59
f 60/60/60 61/61/61 59/59/59
f 60/60/60 62/62/62 61/61/61
f 62/62/62 63/63/63 61/61/61
f 62/62/62 64/64/64 63/63/63
f 64/64/64 65/65/65 63/63/63
f 64/64/64 66/66/66 65/65/65
f 66/66/66 67/67/67 65/65/65
f 66/66/66 68/68/68 67/67/67
f 68/68/68 69/69/69 67/67/67
f 68/68/68 70/70/70 69/69/69
f 70/70/70 71/71/71 69/69/69
f 57/57/57 72/72/72 56/56/56
f 58/58/58 73/73/73 60/60/60
f 74/74/74 73/73/73 58/58/58
f 75/75/75 74/74/74 72/72/72
f 76/76/76 75/75/75 72/72/72
f 77/77/77 73/73/73 74/74/74
f 75/75/75 77/77/77 74/74/74
f 77/77/77 78/78/78 73/73/73
f 78/78/78 79/79/79 73/73/73
f 78/78/78 80/80/80 79/79/79
f 80/80/80 81/81/81 79/79/79
f 80/80/80 82/82/82 81/81/81
f 82/82/82 83/83/83 81/81/81
f 82/82/82 84/84/84 83/83/83
f 84/84/84 85/85/85 83/83/83
f 84/84/84 86/86/86 85/85/85
f 86/86/86 87/87/87 85/85/85
f 86/86/86 88/88/88 87/87/87
f 88/88/88 89/89/89 87/87/87
f 79/79/79 81/81/81 62/62/62
f 60/60/60 79/79/79 62/62/62
f 73/73/73 79/79/79 60/60/60
f 81/81/81 83/83/83 64/64/64
f 62/62/62 81/81/81 64/64/64
f 83/83/83 85/85/85 66/66/66
f 64/64/64 83/83/83 66/66/66
f 85/85/85 87/87/87 68/68/68
f 66/66/66 85/85/85 68/68/68
f 87/87/87 89/89/89 70/70/70
f 68/68/68 87/87/87 70/70/70
f 72/72/72 74/74/74 56/56/56
f 56/56/56 74/74/74 58/58/58
f 90/90/90 63/63/63 65/65/65
f 91/91/91 90/90/90 65/65/65
f 91/91/91 65/65/65 67/67/67
f 92/92/92 91/91/91 67/67/67
f 92/92/92 67/67/67 69/69/69
f 93/93/93 92/92/92 69/69/69
f 93/93/93 69/69/69 71/71/71
f 94/94/94 93/93/93 71/71/71
f 97/97/97 96/96/96 95/95/95
f 97/97/97 98/98/98 96/96/96
f 97/97/97 99/99/99 98/98/98
f 95/95/95 100/100/100 97/97/97
f 97/97/97 100/100/100 101/101/101
f 100/100/100 102/102/102 101/101/101
f 102/102/102 103/103/103 101/101/101
f 103/103/103 104/104/104 101/101/101
f 104/104/104 105/105/105 101/101/101
f 101/101/101 105/105/105 106/106/106
