g polySurface48
v -0.04782032 0.0364748 -0.01347359
v 0.04782024 0.0364748 -0.01347359
v 0.04782024 0.1279024 -0.01347359
v -0.04782032 0.1279024 -0.01347359
v 0.04782024 0.223543 -0.01347359
v -0.04782032 0.223543 -0.01347359
v -0.1323121 0.1279024 -0.01347359
v -0.1323121 0.223543 -0.01347359
v 0.132312 0.223543 -0.01347359
v 0.132312 0.1279024 -0.01347359
v 0.04782024 0.3149706 -0.01347359
v -0.04782032 0.3149706 -0.01347359
v -0.04782032 0.0364748 0.01347366
v -0.04782032 0.1279024 0.01347366
v 0.04782024 0.1279024 0.01347366
v 0.04782024 0.0364748 0.01347366
v 0.04782024 0.223543 0.01347366
v -0.04782032 0.223543 0.01347366
v -0.1323121 0.1279024 0.01347366
v -0.1323121 0.223543 0.01347366
v 0.132312 0.223543 0.01347366
v 0.132312 0.1279024 0.01347366
v 0.04782024 0.3149706 0.01347366
v -0.04782032 0.3149706 0.01347366
v -0.04782032 0.0364748 0.01347366
v 0.04782024 0.0364748 0.01347366
v 0.04782024 0.0364748 -0.01347359
v -0.04782032 0.0364748 -0.01347359
v 0.04782024 0.0364748 0.01347366
v 0.04782024 0.1279024 0.01347366
v 0.04782024 0.1279024 -0.01347359
v 0.04782024 0.0364748 -0.01347359
v -0.04782032 0.1279024 0.01347366
v -0.04782032 0.0364748 0.01347366
v -0.04782032 0.0364748 -0.01347359
v -0.04782032 0.1279024 -0.01347359
v -0.1323121 0.1279024 0.01347366
v -0.04782032 0.1279024 0.01347366
v -0.04782032 0.1279024 -0.01347359
v -0.1323121 0.1279024 -0.01347359
v -0.04782032 0.223543 0.01347366
v -0.1323121 0.223543 0.01347366
v -0.1323121 0.223543 -0.01347359
v -0.04782032 0.223543 -0.01347359
v -0.1323121 0.223543 0.01347366
v -0.1323121 0.1279024 0.01347366
v -0.1323121 0.1279024 -0.01347359
v -0.1323121 0.223543 -0.01347359
v 0.04782024 0.1279024 0.01347366
v 0.132312 0.1279024 0.01347366
v 0.132312 0.1279024 -0.01347359
v 0.04782024 0.1279024 -0.01347359
v 0.132312 0.1279024 0.01347366
v 0.132312 0.223543 0.01347366
v 0.132312 0.223543 -0.01347359
v 0.132312 0.1279024 -0.01347359
v 0.132312 0.223543 0.01347366
v 0.04782024 0.223543 0.01347366
v 0.04782024 0.223543 -0.01347359
v 0.132312 0.223543 -0.01347359
v 0.04782024 0.223543 0.01347366
v 0.04782024 0.3149706 0.01347366
v 0.04782024 0.3149706 -0.01347359
v 0.04782024 0.223543 -0.01347359
v 0.04782024 0.3149706 0.01347366
v -0.04782032 0.3149706 0.01347366
v -0.04782032 0.3149706 -0.01347359
v 0.04782024 0.3149706 -0.01347359
v -0.04782032 0.3149706 0.01347366
v -0.04782032 0.223543 0.01347366
v -0.04782032 0.223543 -0.01347359
v -0.04782032 0.3149706 -0.01347359
vt 0.3383839 0.01463907
vt 0.1704816 0.01463907
vt 0.1704816 0.1751455
vt 0.3383839 0.1751455
vt 0.1704816 0.3430479
vt 0.3383839 0.3430479
vt 0.4867344 0.1751455
vt 0.4867344 0.3430479
vt 0.02215144 0.3430479
vt 0.02215144 0.1751455
vt 0.1704816 0.5035539
vt 0.3383839 0.5035539
vt 0.1704814 0.01470418
vt 0.1704814 0.1752104
vt 0.3383835 0.1752104
vt 0.3383835 0.01470418
vt 0.3383835 0.343113
vt 0.1704814 0.343113
vt 0.02215147 0.1752104
vt 0.02215147 0.343113
vt 0.4867344 0.343113
vt 0.4867344 0.1752104
vt 0.3383835 0.5036192
vt 0.1704814 0.5036192
vt 0.1689325 0.8054357
vt 0.1689324 0.9732648
vt 0.2162396 0.9732648
vt 0.2162396 0.8053755
vt 0.01982796 0.4996252
vt 0.01982784 0.6601332
vt 0.06713533 0.6601332
vt 0.06713521 0.4996254
vt 0.01982784 0.6601332
vt 0.0198282 0.4996254
vt 0.06713557 0.4996254
vt 0.06713533 0.6601332
vt 0.01982778 0.8084669
vt 0.01982784 0.6601332
vt 0.06713533 0.6601332
vt 0.06713524 0.8084669
vt 0.09108782 0.6475016
vt 0.09108752 0.4991722
vt 0.1383947 0.4991722
vt 0.1383948 0.6475015
vt 0.01982802 0.9763699
vt 0.01982778 0.8084669
vt 0.06713524 0.8084669
vt 0.06713533 0.9763701
vt 0.01982784 0.6601332
vt 0.01982778 0.8084669
vt 0.06713524 0.8084669
vt 0.06713533 0.6601332
vt 0.01982778 0.8084669
vt 0.01982802 0.9763699
vt 0.06713533 0.9763701
vt 0.06713524 0.8084669
vt 0.09108752 0.4991722
vt 0.09108782 0.6475018
vt 0.1383948 0.6475016
vt 0.1383947 0.4991722
vt 0.09108782 0.6475018
vt 0.09108752 0.8080074
vt 0.1383952 0.8080076
vt 0.1383948 0.6475016
vt 0.09108761 0.9759068
vt 0.09108752 0.8080075
vt 0.1383952 0.8080076
vt 0.1383952 0.9759173
vt 0.09108752 0.8080075
vt 0.09108782 0.6475016
vt 0.1383948 0.6475015
vt 0.1383952 0.8080076
vn 0 0 -1
vn 0 0 -1
vn 0 0 -1
vn 0 0 -1
vn 0 0 -1
vn 0 0 -1
vn 0 0 -1
vn 0 0 -1
vn 0 0 -1
vn 0 0 -1
vn 0 0 -1
vn 0 0 -1
vn 0 0 1
vn 0 0 1
vn 0 0 1
vn 0 0 1
vn 0 0 1
vn 0 0 1
vn 0 0 1
vn 0 0 1
vn 0 0 1
vn 0 0 1
vn 0 0 1
vn 0 0 1
vn 0 -1 0
vn 0 -1 0
vn 0 -1 0
vn 0 -1 0
vn 1 0 0
vn 1 0 0
vn 1 0 0
vn 1 0 0
vn -1 0 0
vn -1 0 0
vn -1 0 0
vn -1 0 0
vn 0 -1 0
vn 0 -1 0
vn 0 -1 0
vn 0 -1 0
vn 0 1 0
vn 0 1 0
vn 0 1 0
vn 0 1 0
vn -1 0 0
vn -1 0 0
vn -1 0 0
vn -1 0 0
vn 0 -1 0
vn 0 -1 0
vn 0 -1 0
vn 0 -1 0
vn 1 0 0
vn 1 0 0
vn 1 0 0
vn 1 0 0
vn 0 1 0
vn 0 1 0
vn 0 1 0
vn 0 1 0
vn 1 0 0
vn 1 0 0
vn 1 0 0
vn 1 0 0
vn 0 1 0
vn 0 1 0
vn 0 1 0
vn 0 1 0
vn -1 0 0
vn -1 0 0
vn -1 0 0
vn -1 0 0
g polySurface48_0
f 3/3/3 2/2/2 1/1/1
f 4/4/4 3/3/3 1/1/1
f 5/5/5 3/3/3 4/4/4
f 6/6/6 5/5/5 4/4/4
f 6/6/6 4/4/4 7/7/7
f 8/8/8 6/6/6 7/7/7
f 5/5/5 9/9/9 3/3/3
f 9/9/9 10/10/10 3/3/3
f 11/11/11 5/5/5 6/6/6
f 12/12/12 11/11/11 6/6/6
f 15/15/15 14/14/14 13/13/13
f 16/16/16 15/15/15 13/13/13
f 15/15/15 17/17/17 14/14/14
f 17/17/17 18/18/18 14/14/14
f 14/14/14 18/18/18 19/19/19
f 18/18/18 20/20/20 19/19/19
f 21/21/21 17/17/17 15/15/15
f 22/22/22 21/21/21 15/15/15
f 17/17/17 23/23/23 18/18/18
f 23/23/23 24/24/24 18/18/18
f 27/27/27 26/26/26 25/25/25
f 28/28/28 27/27/27 25/25/25
f 31/31/31 30/30/30 29/29/29
f 32/32/32 31/31/31 29/29/29
f 35/35/35 34/34/34 33/33/33
f 36/36/36 35/35/35 33/33/33
f 39/39/39 38/38/38 37/37/37
f 40/40/40 39/39/39 37/37/37
f 43/43/43 42/42/42 41/41/41
f 44/44/44 43/43/43 41/41/41
f 47/47/47 46/46/46 45/45/45
f 48/48/48 47/47/47 45/45/45
f 51/51/51 50/50/50 49/49/49
f 52/52/52 51/51/51 49/49/49
f 55/55/55 54/54/54 53/53/53
f 56/56/56 55/55/55 53/53/53
f 59/59/59 58/58/58 57/57/57
f 60/60/60 59/59/59 57/57/57
f 63/63/63 62/62/62 61/61/61
f 64/64/64 63/63/63 61/61/61
f 67/67/67 66/66/66 65/65/65
f 68/68/68 67/67/67 65/65/65
f 71/71/71 70/70/70 69/69/69
f 72/72/72 71/71/71 69/69/69
