g Q_kiana_Eye_R
v 1.907349E-08 0.5880047 0.1201196
v 1.907349E-08 0.5221835 0.1213959
v -0.04563177 0.5221835 0.1125814
v -0.0503314 0.5877257 0.1102346
v -0.09445322 0.5863195 0.09105469
v -0.09274609 0.5221835 0.09415081
v -0.1166904 0.5194151 0.06971516
v -0.1178486 0.5833042 0.06870605
v -0.1133587 0.4733327 0.06584641
v -0.09108128 0.4736867 0.0882032
v -0.04393167 0.4739909 0.1065464
v 1.907349E-08 0.4779686 0.1154687
v -0.1105506 0.4470827 0.06544434
v -0.08840027 0.4460518 0.08578193
v -0.1323356 0.5802889 0.04179485
v -0.1317263 0.5166467 0.04071689
v -0.1267278 0.4729788 0.03892712
v -0.04286912 0.4474508 0.1036569
v 1.907349E-08 0.4486828 0.1127845
v -0.04223159 0.4314764 0.1066386
v 1.907349E-08 0.4337537 0.1145697
v -0.08705974 0.4294412 0.08794105
v -0.0704617 0.4136238 0.09989814
v -0.09187492 0.4136707 0.08647289
v -0.1098315 0.415867 0.06577706
v -0.1105529 0.4300856 0.06603675
v -0.122325 0.4324715 0.03976829
v -0.1197152 0.419003 0.03858959
v -0.1237926 0.4484064 0.03948788
vt 0.9190274 0.9110574
vt 0.9190274 0.6151529
vt 0.7140544 0.6151529
vt 0.7140544 0.9110574
vt 0.4777205 0.9110574
vt 0.4820136 0.6151529
vt 0.3459948 0.5973653
vt 0.3364595 0.9004011
vt 0.3502847 0.3739304
vt 0.4824948 0.3791449
vt 0.7140502 0.3841811
vt 0.9190274 0.403882
vt 0.349785 0.2459802
vt 0.474765 0.2425636
vt 0.1951984 0.8897449
vt 0.209976 0.5795771
vt 0.2180748 0.3687159
vt 0.7139688 0.2567732
vt 0.9190274 0.2718375
vt 0.7169701 0.1777418
vt 0.9190274 0.1926109
vt 0.4744753 0.1610947
vt 0.5944946 0.08550236
vt 0.478324 0.08612338
vt 0.358958 0.1007878
vt 0.3472764 0.163775
vt 0.2243608 0.1731783
vt 0.2299799 0.1078945
vt 0.2226787 0.2500061
vn -0.1912812 0.02022194 0.981327
vn -0.1897348 -0.05427266 0.9803342
vn -0.2796032 -0.05424212 0.9585822
vn -0.2914532 0.02018187 0.9563721
vn -0.5513636 0.01381696 0.8341506
vn -0.5446461 -0.0517444 0.8370681
vn -0.8026366 -0.05711662 0.5937274
vn -0.7985545 -0.002299906 0.6019181
vn -0.8042915 -0.108307 0.5842813
vn -0.5430651 -0.1174128 0.8314412
vn -0.2773499 -0.1184835 0.9534352
vn -0.1915933 -0.1163112 0.9745582
vn -0.803703 -0.05237975 0.5927207
vn -0.5401043 -0.02529428 0.8412179
vn -0.8836821 -0.01250047 0.4679206
vn -0.8847078 -0.06424571 0.4616974
vn -0.8865442 -0.1050394 0.4505619
vn -0.2906108 0.01774248 0.9566768
vn -0.1999676 0.0203217 0.9795917
vn -0.3056729 0.1680992 0.9371802
vn -0.2002133 0.1453279 0.968914
vn -0.5514225 0.09503278 0.8287955
vn -0.4219772 0.221728 0.8790745
vn -0.640375 0.06851944 0.765
vn -0.8318816 -0.03089666 0.5540925
vn -0.8225372 -0.0190354 0.5683925
vn -0.9139879 -0.07603195 0.398554
vn -0.9235806 -0.1298604 0.3607424
vn -0.8960958 -0.06645957 0.438857
g Q_kiana_Eye_R_0
f 3/3/3 2/2/2 1/1/1
f 4/4/4 3/3/3 1/1/1
f 4/4/4 5/5/5 3/3/3
f 5/5/5 6/6/6 3/3/3
f 7/7/7 6/6/6 5/5/5
f 8/8/8 7/7/7 5/5/5
f 7/7/7 9/9/9 6/6/6
f 9/9/9 10/10/10 6/6/6
f 3/3/3 6/6/6 10/10/10
f 2/2/2 3/3/3 11/11/11
f 11/11/11 3/3/3 10/10/10
f 12/12/12 2/2/2 11/11/11
f 9/9/9 13/13/13 10/10/10
f 13/13/13 14/14/14 10/10/10
f 8/8/8 15/15/15 7/7/7
f 15/15/15 16/16/16 7/7/7
f 7/7/7 16/16/16 9/9/9
f 16/16/16 17/17/17 9/9/9
f 9/9/9 17/17/17 13/13/13
f 12/12/12 11/11/11 18/18/18
f 10/10/10 14/14/14 18/18/18
f 11/11/11 10/10/10 18/18/18
f 19/19/19 12/12/12 18/18/18
f 19/19/19 18/18/18 20/20/20
f 21/21/21 19/19/19 20/20/20
f 20/20/20 18/18/18 22/22/22
f 18/18/18 14/14/14 22/22/22
f 22/22/22 14/14/14 13/13/13
f 22/22/22 23/23/23 20/20/20
f 22/22/22 24/24/24 23/23/23
f 25/25/25 24/24/24 22/22/22
f 26/26/26 25/25/25 22/22/22
f 26/26/26 22/22/22 13/13/13
f 26/26/26 27/27/27 25/25/25
f 27/27/27 28/28/28 25/25/25
f 29/29/29 27/27/27 26/26/26
f 13/13/13 29/29/29 26/26/26
f 17/17/17 29/29/29 13/13/13
