g Q_kiana_M2
v -4.872032E-09 0.4070153 0.1199726
v 1.187936E-10 0.4192586 0.1189742
v 0.04311719 0.4151849 0.1109822
v 0.04162607 0.4035204 0.1104211
v 4.724825E-12 0.4337537 0.1144616
v 0.04223159 0.4314764 0.1066387
v 0.03942334 0.391322 0.1055204
v 0.06855803 0.402127 0.09891456
v 0.06429035 0.3902865 0.09411388
v 4.923862E-10 0.3946564 0.1152456
v 0.03656455 0.3807896 0.09330557
v 6.430639E-11 0.3815684 0.1021279
v 0.03408979 0.374528 0.07834875
v -4.872032E-09 0.3743822 0.0881831
v -4.872032E-09 0.3670276 0.05605394
v 0.0339283 0.3697368 0.0518829
v 0.05722372 0.3807063 0.08374427
v 0.04877029 0.3737473 0.06645929
v 0.03408979 0.374528 0.07834875
v 0.0704617 0.4136238 0.09989814
v -4.872032E-09 0.4070153 0.1199726
v -0.04162607 0.4035204 0.1104211
v -0.04291283 0.4151794 0.1109821
v 1.187936E-10 0.4192586 0.1189742
v 4.724825E-12 0.4337537 0.1144616
v -0.04223159 0.4314764 0.1066387
v -0.03942334 0.391322 0.1055204
v -0.06855803 0.402127 0.09891456
v -0.06429035 0.3902865 0.09411388
v 4.923862E-10 0.3946564 0.1152456
v -0.03656455 0.3807896 0.09330557
v 6.430639E-11 0.3815684 0.1021279
v -0.03408979 0.374528 0.07834875
v -4.872032E-09 0.3743822 0.0881831
v -4.872032E-09 0.3670276 0.05605394
v -0.0339283 0.3697368 0.0518829
v -0.05722372 0.3807063 0.08374427
v -0.04877029 0.3737473 0.06645929
v -0.03408979 0.374528 0.07834875
v -0.0704617 0.4136238 0.09989814
v -0.06855803 0.402127 0.09891456
vt 0.4985579 0.6345083
vt 0.4985579 0.728884
vt 0.782036 0.6862319
vt 0.7823344 0.6109751
vt 0.4985579 0.8322496
vt 0.7926837 0.8015606
vt 0.782829 0.5295112
vt 0.9713181 0.6063144
vt 0.9761947 0.539833
vt 0.4985579 0.5509195
vt 0.7987586 0.4271758
vt 0.4985579 0.4381402
vt 0.804642 0.3442925
vt 0.4985579 0.3471309
vt 0.4985579 0.2194568
vt 0.806953 0.2290004
vt 0.9853885 0.4451593
vt 0.9807087 0.3496074
vt 0.804642 0.3442925
vt 0.967391 0.6678274
vt 0.4985579 0.6345083
vt 0.2147827 0.613551
vt 0.2150812 0.6862319
vt 0.4985579 0.728884
vt 0.4985579 0.8322496
vt 0.2044334 0.8015606
vt 0.2142882 0.5295112
vt 0.02579891 0.6063144
vt 0.02092229 0.539833
vt 0.4985579 0.5509195
vt 0.1983585 0.4271758
vt 0.4985579 0.4381402
vt 0.1924751 0.3442925
vt 0.4985579 0.3471309
vt 0.4985579 0.2194568
vt 0.1901641 0.2290004
vt 0.01172857 0.4451593
vt 0.01640836 0.3496074
vt 0.1924751 0.3442925
vt 0.02972619 0.6678274
vt 0.02579891 0.6063144
vn -0.0001715926 -0.1765653 0.9842889
vn -0.000263982 0.1502133 0.9886536
vn 0.2954289 0.1038523 0.9497033
vn 0.2826496 -0.2319687 0.9307522
vn -0.0002261474 0.2811 0.9596785
vn 0.2669076 0.2701911 0.9250714
vn 0.2318809 -0.5891345 0.774049
vn 0.3679912 -0.267689 0.8904634
vn 0.3093619 -0.6052534 0.7334599
vn 0 -0.5501412 0.8350717
vn 0.1649908 -0.8435161 0.5111347
vn 0 -0.8230365 0.5679885
vn 0.1185092 -0.9500006 0.2888846
vn 0 -0.944569 0.3283131
vn 0 -0.9792305 0.2027498
vn 0.08552185 -0.9773889 0.1933828
vn 0.2151817 -0.8596424 0.4633701
vn 0.1308671 -0.9599827 0.2476024
vn 0.1185092 -0.9500006 0.2888846
vn 0.3812172 -0.02078865 0.9242518
vn -0.0001715926 -0.1765653 0.9842889
vn -0.2830776 -0.2310546 0.9308495
vn -0.2939098 0.1040113 0.9501572
vn -0.000263982 0.1502133 0.9886536
vn -0.0002261474 0.2811 0.9596785
vn -0.2670448 0.2676048 0.9257833
vn -0.2318808 -0.5891345 0.774049
vn -0.3676167 -0.2659607 0.8911358
vn -0.3093619 -0.6052535 0.7334599
vn 0 -0.5501412 0.8350717
vn -0.1649908 -0.843516 0.5111347
vn 0 -0.8230365 0.5679885
vn -0.1185092 -0.9500006 0.2888846
vn 0 -0.944569 0.3283131
vn 0 -0.9792305 0.2027498
vn -0.08552186 -0.9773889 0.1933827
vn -0.2151817 -0.8596424 0.46337
vn -0.1308671 -0.9599827 0.2476024
vn -0.1185092 -0.9500006 0.2888846
vn -0.3797562 -0.01934292 0.9248844
vn -0.3676167 -0.2659607 0.8911358
g Q_kiana_M2_0
f 3/3/3 2/2/2 1/1/1
f 4/4/4 3/3/3 1/1/1
f 2/2/2 3/3/3 5/5/5
f 3/3/3 6/6/6 5/5/5
f 7/7/7 4/4/4 1/1/1
f 8/8/8 4/4/4 7/7/7
f 9/9/9 8/8/8 7/7/7
f 10/10/10 7/7/7 1/1/1
f 11/11/11 7/7/7 10/10/10
f 7/7/7 11/11/11 9/9/9
f 12/12/12 11/11/11 10/10/10
f 13/13/13 11/11/11 12/12/12
f 14/14/14 13/13/13 12/12/12
f 14/14/14 15/15/15 13/13/13
f 15/15/15 16/16/16 13/13/13
f 11/11/11 17/17/17 9/9/9
f 18/18/18 17/17/17 11/11/11
f 19/19/19 18/18/18 11/11/11
f 19/19/19 16/16/16 18/18/18
f 4/4/4 8/8/8 20/20/20
f 3/3/3 4/4/4 20/20/20
f 3/3/3 20/20/20 6/6/6
f 23/23/23 22/22/22 21/21/21
f 24/24/24 23/23/23 21/21/21
f 23/23/23 24/24/24 25/25/25
f 26/26/26 23/23/23 25/25/25
f 22/22/22 27/27/27 21/21/21
f 22/22/22 28/28/28 27/27/27
f 28/28/28 29/29/29 27/27/27
f 27/27/27 30/30/30 21/21/21
f 27/27/27 31/31/31 30/30/30
f 31/31/31 27/27/27 29/29/29
f 31/31/31 32/32/32 30/30/30
f 31/31/31 33/33/33 32/32/32
f 33/33/33 34/34/34 32/32/32
f 35/35/35 34/34/34 33/33/33
f 36/36/36 35/35/35 33/33/33
f 37/37/37 31/31/31 29/29/29
f 37/37/37 38/38/38 31/31/31
f 38/38/38 39/39/39 31/31/31
f 36/36/36 39/39/39 38/38/38
f 40/40/40 23/23/23 26/26/26
f 22/22/22 23/23/23 40/40/40
f 41/41/41 22/22/22 40/40/40
