g Q_kiana_Eye_L
v -9.536743E-09 0.5880048 0.1201196
v 0.05033141 0.5877258 0.1102346
v 0.04563178 0.5221835 0.1125814
v -9.536743E-09 0.5221835 0.1213959
v 0.09445323 0.5863195 0.09105469
v 0.09274609 0.5221835 0.09415081
v 0.1166904 0.5194151 0.06971512
v 0.1178486 0.5833042 0.06870601
v 0.1133587 0.4733327 0.06584641
v 0.09108128 0.4736867 0.08820324
v 0.04393168 0.4739909 0.1065464
v -9.536743E-09 0.4779686 0.1154687
v 0.1105506 0.4470827 0.06544434
v 0.08840027 0.4460518 0.08578193
v 0.1323356 0.5802889 0.04179485
v 0.1317263 0.5166466 0.04071689
v 0.1267278 0.4729788 0.03892712
v 0.04286912 0.4474508 0.1036569
v -9.536743E-09 0.4486828 0.1127844
v 0.04223159 0.4314764 0.1066386
v -9.536743E-09 0.4337537 0.1145697
v 0.08705975 0.4294412 0.08794105
v 0.0704617 0.4136237 0.09989808
v 0.09187492 0.4136707 0.08647289
v 0.1098315 0.415867 0.06577706
v 0.1105529 0.4300856 0.06603675
v 0.122325 0.4324715 0.03976829
v 0.1197152 0.419003 0.03858959
v 0.1237926 0.4484064 0.03948788
vt 0.9179986 0.9118523
vt 0.7134198 0.9118523
vt 0.7134198 0.6154016
vt 0.9179986 0.6154016
vt 0.4775413 0.9118523
vt 0.4818259 0.6154016
vt 0.3460694 0.597581
vt 0.3365527 0.9011763
vt 0.3503513 0.3737338
vt 0.4823063 0.3789579
vt 0.7134156 0.3840034
vt 0.9179986 0.4037406
vt 0.3498005 0.2456378
vt 0.4747434 0.2422433
vt 0.1955639 0.8905004
vt 0.2103127 0.5797601
vt 0.2183959 0.3685097
vt 0.7136419 0.2564214
vt 0.9179986 0.2714525
vt 0.7151293 0.1778567
vt 0.9179986 0.1920796
vt 0.474628 0.1606844
vt 0.5947303 0.0849032
vt 0.4781994 0.08539113
vt 0.358737 0.1004201
vt 0.3472822 0.1633281
vt 0.2241612 0.1726955
vt 0.2300928 0.1073226
vt 0.2226942 0.2496284
vn 0.1912812 0.02022249 0.9813269
vn 0.2914531 0.02018229 0.9563722
vn 0.2796031 -0.05424189 0.9585822
vn 0.1897348 -0.05427238 0.9803342
vn 0.5513638 0.01381709 0.8341505
vn 0.5446464 -0.05174424 0.837068
vn 0.8026366 -0.05711648 0.5937274
vn 0.7985547 -0.002299914 0.601918
vn 0.8042916 -0.1083071 0.5842813
vn 0.5430652 -0.1174128 0.8314411
vn 0.2773499 -0.1184838 0.9534352
vn 0.1915931 -0.1163115 0.9745582
vn 0.8037031 -0.05237963 0.5927206
vn 0.5401043 -0.02529401 0.8412179
vn 0.8836818 -0.01250046 0.4679211
vn 0.8847076 -0.06424567 0.4616978
vn 0.8865442 -0.1050395 0.450562
vn 0.2906105 0.01774255 0.956677
vn 0.1999673 0.02032175 0.9795918
vn 0.3056727 0.1680994 0.9371802
vn 0.200213 0.1453288 0.9689139
vn 0.5514224 0.09503259 0.8287957
vn 0.421977 0.2217267 0.879075
vn 0.6403748 0.06851853 0.7650002
vn 0.8318817 -0.03089736 0.5540922
vn 0.8225373 -0.01903543 0.5683925
vn 0.9139879 -0.07603196 0.3985538
vn 0.9235806 -0.1298609 0.3607422
vn 0.8960958 -0.06645959 0.438857
g Q_kiana_Eye_L_0
f 3/3/3 2/2/2 1/1/1
f 4/4/4 3/3/3 1/1/1
f 5/5/5 2/2/2 3/3/3
f 6/6/6 5/5/5 3/3/3
f 6/6/6 7/7/7 5/5/5
f 7/7/7 8/8/8 5/5/5
f 9/9/9 7/7/7 6/6/6
f 10/10/10 9/9/9 6/6/6
f 6/6/6 3/3/3 10/10/10
f 3/3/3 4/4/4 11/11/11
f 3/3/3 11/11/11 10/10/10
f 4/4/4 12/12/12 11/11/11
f 13/13/13 9/9/9 10/10/10
f 14/14/14 13/13/13 10/10/10
f 10/10/10 11/11/11 14/14/14
f 15/15/15 8/8/8 7/7/7
f 16/16/16 15/15/15 7/7/7
f 16/16/16 7/7/7 9/9/9
f 17/17/17 16/16/16 9/9/9
f 11/11/11 12/12/12 18/18/18
f 11/11/11 18/18/18 14/14/14
f 12/12/12 19/19/19 18/18/18
f 18/18/18 19/19/19 20/20/20
f 19/19/19 21/21/21 20/20/20
f 18/18/18 20/20/20 22/22/22
f 14/14/14 18/18/18 22/22/22
f 23/23/23 22/22/22 20/20/20
f 24/24/24 22/22/22 23/23/23
f 24/24/24 25/25/25 22/22/22
f 25/25/25 26/26/26 22/22/22
f 26/26/26 13/13/13 14/14/14
f 22/22/22 26/26/26 14/14/14
f 27/27/27 26/26/26 25/25/25
f 28/28/28 27/27/27 25/25/25
f 29/29/29 13/13/13 26/26/26
f 27/27/27 29/29/29 26/26/26
f 17/17/17 9/9/9 29/29/29
f 9/9/9 13/13/13 29/29/29
