g RandomBox_05
v 0.01893944 0.1588443 0.1338141
v 0.01893944 0.003122015 0.1338141
v -0.1332858 0.003122015 0.01725878
v -0.1332858 0.1588443 0.01725878
v -0.1332858 0.1588443 0.01725878
v -0.1332858 0.003122015 0.01725878
v -0.01673042 0.003122015 -0.1349664
v -0.01673042 0.1588443 -0.1349664
v 0.01893944 0.003122015 0.1338141
v 0.01893944 0.1588443 0.1338141
v 0.1354948 0.1588443 -0.01841107
v 0.1354948 0.003122015 -0.01841107
v -0.01673042 0.1588443 -0.1349664
v -0.01673042 0.003122015 -0.1349664
v 0.1354948 0.003122015 -0.01841107
v 0.1354948 0.1588443 -0.01841107
v 0.01893944 0.003122015 0.1338141
v 0.1354948 0.003122015 -0.01841107
v -0.01673042 0.003122015 -0.1349664
v -0.1332858 0.003122015 0.01725878
v 0.1462705 0.1968506 -0.01984839
v 0.02037919 0.1968506 0.1446038
v -0.1440789 0.1968506 0.01868507
v -0.01815191 0.1968506 -0.1457459
v 0.02037919 0.1968506 0.1446038
v 0.02037919 0.1622248 0.1446038
v -0.1440789 0.1622248 0.01868507
v -0.1440789 0.1968506 0.01868507
v -0.1440789 0.1968506 0.01868507
v -0.1440789 0.1622248 0.01868507
v -0.01815191 0.1622248 -0.1457459
v -0.01815191 0.1968506 -0.1457459
v -0.01815191 0.1968506 -0.1457459
v -0.01815191 0.1622248 -0.1457459
v 0.1462705 0.1622248 -0.01984839
v 0.1462705 0.1968506 -0.01984839
v 0.1462705 0.1622248 -0.01984839
v 0.02037919 0.1622248 0.1446038
v 0.02037919 0.1968506 0.1446038
v 0.1462705 0.1968506 -0.01984839
v 0.02037919 0.1622248 0.1446038
v 0.01893944 0.1588443 0.1338141
v -0.1332858 0.1588443 0.01725878
v -0.1440789 0.1622248 0.01868507
v 0.1354948 0.1588443 -0.01841107
v 0.1462705 0.1622248 -0.01984839
v -0.1440789 0.1622248 0.01868507
v -0.1332858 0.1588443 0.01725878
v -0.01673042 0.1588443 -0.1349664
v -0.01815191 0.1622248 -0.1457459
v 0.1354948 0.1588443 -0.01841107
v 0.1462705 0.1622248 -0.01984839
vt 0.4998291 0.4000817
vt 0.4999945 0.0131571
vt 0.02377632 0.0131571
vt 0.02357283 0.4000823
vt 0.9771772 0.4000823
vt 0.9771772 0.0131571
vt 0.500921 0.0131571
vt 0.5009209 0.4000817
vt 0.4999945 0.0131571
vt 0.4998291 0.4000817
vt 0.9771771 0.4000824
vt 0.9771771 0.0131571
vt 0.5009209 0.4000817
vt 0.500921 0.0131571
vt 0.02357292 0.0131571
vt 0.02357292 0.4000824
vt 0.5118464 0.4212203
vt 0.5118464 0.8901952
vt 0.9781433 0.8901952
vt 0.9781429 0.4212203
vt 0.4902047 0.4202361
vt 0.02193223 0.4201332
vt 0.02191015 0.8901131
vt 0.4901068 0.8901457
vt 0.3032806 0.9853832
vt 0.3032805 0.9304357
vt 0.02458057 0.9304357
vt 0.02458069 0.9853832
vt 0.5821604 0.9853832
vt 0.5821576 0.9304357
vt 0.3033973 0.9304357
vt 0.3033972 0.9853832
vt 0.3033972 0.9853832
vt 0.3033973 0.9304357
vt 0.02451825 0.9304357
vt 0.02451813 0.985383
vt 0.5821868 0.9304357
vt 0.3032805 0.9304357
vt 0.3032806 0.9853832
vt 0.5821868 0.985383
vt 0.3032805 0.9304357
vt 0.3032806 0.9220731
vt 0.02458051 0.9220731
vt 0.02458057 0.9304357
vt 0.5821868 0.9220731
vt 0.5821868 0.9304357
vt 0.5821576 0.9304357
vt 0.5821574 0.9220731
vt 0.3033971 0.9220731
vt 0.3033973 0.9304357
vt 0.02451825 0.9220729
vt 0.02451825 0.9304357
vn -0.6079366 0 0.7939856
vn -0.6079366 0 0.7939856
vn -0.6079366 0 0.7939856
vn -0.6079366 0 0.7939856
vn -0.7939857 0 -0.6079365
vn -0.7939857 0 -0.6079365
vn -0.7939857 0 -0.6079365
vn -0.7939857 0 -0.6079365
vn 0.7939857 0 0.6079365
vn 0.7939857 0 0.6079365
vn 0.7939857 0 0.6079365
vn 0.7939857 0 0.6079365
vn 0.6079366 0 -0.7939856
vn 0.6079366 0 -0.7939856
vn 0.6079366 0 -0.7939856
vn 0.6079366 0 -0.7939856
vn 0 -1 0
vn 0 -1 0
vn 0 -1 0
vn 0 -1 0
vn 0 1 0
vn 0 1 0
vn 0 1 0
vn 0 1 0
vn -0.6079272 0 0.7939927
vn -0.6079272 0 0.7939927
vn -0.6079272 0 0.7939927
vn -0.6079272 0 0.7939927
vn -0.793925 0 -0.6080157
vn -0.793925 0 -0.6080157
vn -0.793925 0 -0.6080157
vn -0.793925 0 -0.6080157
vn 0.6079459 0 -0.7939785
vn 0.6079459 0 -0.7939785
vn 0.6079459 0 -0.7939785
vn 0.6079459 0 -0.7939785
vn 0.7940462 0 0.6078574
vn 0.7940462 0 0.6078574
vn 0.7940462 0 0.6078574
vn 0.7940462 0 0.6078574
vn 0.0227282 -0.9851447 0.1702154
vn 0.02254173 -0.9851447 0.1702401
vn -0.1702288 -0.9851447 0.02263003
vn -0.1702478 -0.9851447 0.02248596
vn 0.1702431 -0.9851441 -0.02254432
vn 0.1702199 -0.9851441 -0.0227191
vn -0.1702478 -0.9851447 0.02248596
vn -0.1702288 -0.9851447 0.02263003
vn -0.02265075 -0.9851444 -0.1702278
vn -0.02243347 -0.9851444 -0.1702566
vn 0.1702431 -0.9851441 -0.02254432
vn 0.1702199 -0.9851441 -0.0227191
g RandomBox_05_0
f 3/3/3 2/2/2 1/1/1
f 4/4/4 3/3/3 1/1/1
f 7/7/7 6/6/6 5/5/5
f 8/8/8 7/7/7 5/5/5
f 11/11/11 10/10/10 9/9/9
f 12/12/12 11/11/11 9/9/9
f 15/15/15 14/14/14 13/13/13
f 16/16/16 15/15/15 13/13/13
f 19/19/19 18/18/18 17/17/17
f 20/20/20 19/19/19 17/17/17
f 23/23/23 22/22/22 21/21/21
f 24/24/24 23/23/23 21/21/21
f 27/27/27 26/26/26 25/25/25
f 28/28/28 27/27/27 25/25/25
f 31/31/31 30/30/30 29/29/29
f 32/32/32 31/31/31 29/29/29
f 35/35/35 34/34/34 33/33/33
f 36/36/36 35/35/35 33/33/33
f 39/39/39 38/38/38 37/37/37
f 40/40/40 39/39/39 37/37/37
f 43/43/43 42/42/42 41/41/41
f 44/44/44 43/43/43 41/41/41
f 41/41/41 42/42/42 45/45/45
f 46/46/46 41/41/41 45/45/45
f 49/49/49 48/48/48 47/47/47
f 50/50/50 49/49/49 47/47/47
f 51/51/51 49/49/49 50/50/50
f 52/52/52 51/51/51 50/50/50
