g RO_Launcher_Bomb_Model_02
v 0.1419663 0.4725482 -0.05445077
v 0.04310205 0.4725482 0.1167873
v 0.04310203 1.321425 0.1167873
v 0.1419663 1.321425 -0.05445077
v 0.04310203 1.321425 0.1167873
v 0.04310205 0.4725482 0.1167873
v -0.04310136 0.4725483 0.1167873
v -0.04310135 1.321425 0.1167873
v -0.1419651 0.4725483 -0.05445075
v -0.1419651 1.321425 -0.05445075
v -0.04310135 1.321425 0.1167873
v -0.04310136 0.4725483 0.1167873
v -0.1419651 1.321425 -0.05445075
v -0.1419651 0.4725483 -0.05445075
v -0.09886368 0.4725483 -0.1291046
v -0.0988637 1.321425 -0.1291046
v 0.09886484 0.4725482 -0.1291046
v 0.09886486 1.321425 -0.1291046
v -0.0988637 1.321425 -0.1291046
v -0.09886368 0.4725483 -0.1291046
v 0.09886486 1.321425 -0.1291046
v 0.09886484 0.4725482 -0.1291046
v 0.1419663 0.4725482 -0.05445077
v 0.1419663 1.321425 -0.05445077
v -0.1419651 1.321425 -0.05445075
v -0.1035733 1.376541 -0.05189175
v -0.02612135 1.376541 0.08225863
v -0.04310135 1.321425 0.1167873
v 0.09886486 1.321425 -0.1291046
v 0.07745235 1.37654 -0.09713493
v -0.07745232 1.37654 -0.09713487
v -0.0988637 1.321425 -0.1291046
v 0.04310203 1.321425 0.1167873
v 0.0261211 1.37654 0.08225863
v 0.1035727 1.37654 -0.05189176
v 0.1419663 1.321425 -0.05445077
v -0.04310135 1.321425 0.1167873
v -0.02612135 1.376541 0.08225863
v 0.0261211 1.37654 0.08225863
v 0.04310203 1.321425 0.1167873
v -0.0988637 1.321425 -0.1291046
v -0.07745232 1.37654 -0.09713487
v -0.1035733 1.376541 -0.05189175
v -0.1419651 1.321425 -0.05445075
v 0.1419663 1.321425 -0.05445077
v 0.1035727 1.37654 -0.05189176
v 0.07745235 1.37654 -0.09713493
v 0.09886486 1.321425 -0.1291046
v 0.0261211 1.37654 0.08225863
v -0.02612135 1.376541 0.08225863
v -0.1035733 1.376541 -0.05189175
v -0.07745232 1.37654 -0.09713487
v 0.07745235 1.37654 -0.09713493
v 0.1035727 1.37654 -0.05189176
vt 0.01257924 0.987193
vt 0.1884331 0.9871927
vt 0.188433 0.3243905
vt 0.01257918 0.3243906
vt 0.188433 0.3243905
vt 0.1884331 0.9871927
vt 0.2650998 0.9871931
vt 0.2650998 0.3243907
vt 0.1884331 0.9871927
vt 0.188433 0.3243905
vt 0.01257918 0.3243906
vt 0.01257924 0.987193
vt 0.188433 0.3243905
vt 0.1884331 0.9871927
vt 0.2650998 0.9871931
vt 0.2650998 0.3243907
vt 0.1884331 0.9871927
vt 0.188433 0.3243905
vt 0.01257918 0.3243906
vt 0.01257924 0.987193
vt 0.188433 0.3243905
vt 0.1884331 0.9871927
vt 0.2650998 0.9871931
vt 0.2650998 0.3243907
vt 0.188433 0.3243905
vt 0.188433 0.2625062
vt 0.01257918 0.2625062
vt 0.01257918 0.3243906
vt 0.188433 0.3243905
vt 0.188433 0.2625062
vt 0.01257918 0.2625062
vt 0.01257918 0.3243906
vt 0.188433 0.3243905
vt 0.188433 0.2625062
vt 0.01257918 0.2625062
vt 0.01257918 0.3243906
vt 0.2650998 0.3243907
vt 0.2650998 0.2625062
vt 0.188433 0.2625062
vt 0.188433 0.3243905
vt 0.2650998 0.3243907
vt 0.2650998 0.2625062
vt 0.188433 0.2625062
vt 0.188433 0.3243905
vt 0.2650998 0.3243907
vt 0.2650998 0.2625062
vt 0.188433 0.2625062
vt 0.188433 0.3243905
vt 0.6531247 0.9349657
vt 0.6807522 0.9828177
vt 0.8445873 0.9828177
vt 0.8722146 0.9349662
vt 0.7902964 0.7930797
vt 0.7350423 0.7930809
vn 0.8660256 0 0.4999996
vn 0.8660256 0 0.4999996
vn 0.8660256 0 0.4999996
vn 0.8660256 0 0.4999996
vn 0 0 1
vn 0 0 1
vn 0 0 1
vn 0 0 1
vn -0.8660266 0 0.499998
vn -0.8660266 0 0.499998
vn -0.8660266 0 0.499998
vn -0.8660266 0 0.499998
vn -0.8660254 0 -0.5
vn -0.8660254 0 -0.5
vn -0.8660254 0 -0.5000001
vn -0.8660254 0 -0.5
vn -1.454542E-07 0 -1
vn -1.454542E-07 0 -1
vn -1.454542E-07 0 -1
vn -1.454542E-07 0 -1
vn 0.8660254 0 -0.5
vn 0.8660254 0 -0.5
vn 0.8660254 0 -0.5
vn 0.8660254 0 -0.5
vn -0.7491282 0.5017418 0.4325069
vn -0.7491282 0.5017418 0.4325068
vn -0.7491282 0.5017419 0.4325069
vn -0.7491282 0.5017418 0.4325069
vn -1.018679E-07 0.5017505 -0.8650124
vn -1.018679E-07 0.5017505 -0.8650124
vn -1.018679E-07 0.5017505 -0.8650124
vn -1.018679E-07 0.5017505 -0.8650124
vn 0.7491188 0.5017588 0.4325033
vn 0.7491188 0.5017588 0.4325033
vn 0.7491187 0.5017588 0.4325034
vn 0.7491188 0.5017588 0.4325033
vn 1.694623E-06 0.5308993 0.8474349
vn 1.694623E-06 0.5308994 0.8474348
vn 1.694623E-06 0.5308993 0.8474349
vn 1.694623E-06 0.5308993 0.8474349
vn -0.733906 0.5308874 -0.423722
vn -0.733906 0.5308874 -0.423722
vn -0.733906 0.5308874 -0.423722
vn -0.733906 0.5308874 -0.423722
vn 0.7338991 0.5309051 -0.4237121
vn 0.7338991 0.5309051 -0.4237121
vn 0.7338991 0.5309051 -0.4237121
vn 0.7338991 0.5309051 -0.4237121
vn 6.263E-06 1 -2.235685E-06
vn 6.262999E-06 1 -2.235685E-06
vn 6.262999E-06 1 -2.235685E-06
vn 6.262999E-06 1 -2.235685E-06
vn 1.573309E-06 1 1.403224E-06
vn 1.573309E-06 1 1.403224E-06
g RO_Launcher_Bomb_Model_02_0
f 3/3/3 2/2/2 1/1/1
f 4/4/4 3/3/3 1/1/1
f 7/7/7 6/6/6 5/5/5
f 8/8/8 7/7/7 5/5/5
f 11/11/11 10/10/10 9/9/9
f 12/12/12 11/11/11 9/9/9
f 15/15/15 14/14/14 13/13/13
f 16/16/16 15/15/15 13/13/13
f 19/19/19 18/18/18 17/17/17
f 20/20/20 19/19/19 17/17/17
f 23/23/23 22/22/22 21/21/21
f 24/24/24 23/23/23 21/21/21
f 27/27/27 26/26/26 25/25/25
f 28/28/28 27/27/27 25/25/25
f 31/31/31 30/30/30 29/29/29
f 32/32/32 31/31/31 29/29/29
f 35/35/35 34/34/34 33/33/33
f 36/36/36 35/35/35 33/33/33
f 39/39/39 38/38/38 37/37/37
f 40/40/40 39/39/39 37/37/37
f 43/43/43 42/42/42 41/41/41
f 44/44/44 43/43/43 41/41/41
f 47/47/47 46/46/46 45/45/45
f 48/48/48 47/47/47 45/45/45
f 51/51/51 50/50/50 49/49/49
f 52/52/52 51/51/51 49/49/49
f 53/53/53 52/52/52 49/49/49
f 54/54/54 53/53/53 49/49/49
