g Sword_R
v 0.006935816 -0.7143563 -0.06791907
v 0.006935807 -0.439351 -0.07246962
v 0.006935826 -1.037219 -0.04450846
v 0.006935826 -1.218668 -0.01115102
v 0.006935825 -1.245382 0.006936488
v 0.006935826 -1.258005 0.02541643
v 0.006935826 -1.186628 -0.02378005
v 0.006935822 -0.8681692 -0.06070538
v 0.006935807 -0.3394811 -0.06894409
v 0.006935812 -0.5733923 -0.07184103
v 0.01877228 -0.5727074 -0.04216208
v 0.01877229 -0.7143564 -0.03939811
v 0.01877228 -0.3369631 -0.03319015
v 0.01877228 -0.4391241 -0.04163254
v 0.01685335 -1.036703 -0.02076935
v 0.01877237 -0.8681694 -0.03500746
v 0.01877228 -0.1442763 -0.02711822
v 0.01877228 -0.2325915 -0.02606735
v 0.01236368 -1.212158 0.01364118
v 0.01323717 -1.181944 -0.001116781
v 0.01983421 0.1999493 0.01240363
v 0.01983421 -0.07321201 -0.03630447
v 0.01983421 -0.07918949 0.009734877
v 0.01983421 -0.4388973 -0.004664004
v 0.006935807 -0.1277192 -0.07628296
v 0.01983421 -0.2417369 0.02778137
v 0.01559076 -1.034462 0.01304319
v 0.01983421 0.02970268 0.02567375
v 0.01107363 -1.2354 0.03540394
v 0.006935902 -1.265142 0.04001437
v 0.01983421 0.1684671 0.05119835
v 0.01983422 -0.7143564 -0.00474555
v 0.01823969 -0.8681694 0.001273594
v 0.01983421 -0.1261181 0.02007416
v 0.01983421 -0.1522682 0.0362822
v 0.01983421 -0.2164267 0.01415298
v 0.01983421 -0.3346184 0.01955139
v 0.01983421 -0.3090696 0.00212738
v 0.01983422 -0.5720224 -0.006351542
v 0.01983421 0.04927726 -0.0155677
v 0.01983421 0.2037959 0.0318238
v -0.005962451 0.1999493 0.01240348
v -0.005962453 0.1684671 0.0511982
v -0.00596241 -0.07321201 -0.03630463
v -0.00596241 -0.07918949 0.009734725
v -0.00596241 -0.4388973 -0.004664156
v -0.0059624 -0.7143564 -0.004745703
v -0.004367888 -0.8681694 0.001273441
v -0.005962448 -0.1261181 0.020074
v -0.005962448 -0.1522682 0.03628204
v -0.00596241 -0.2164267 0.01415283
v -0.00596241 -0.2417369 0.02778122
v -0.00596241 -0.3346184 0.01955124
v -0.00596241 -0.3090696 0.002127228
v -0.005962406 -0.5720224 -0.006351695
v -0.001718963 -1.034462 0.01304319
v -0.005962448 0.02970268 0.0256736
v -0.005962451 0.04927726 -0.01556786
v 0.002798251 -1.2354 0.03540394
v -0.005962451 0.2037959 0.03182364
v 0.006935807 -0.2361013 -0.06330886
v -0.004900585 -0.5727074 -0.04216224
v -0.004900579 -0.7143564 -0.03939826
v -0.004900589 -0.3369631 -0.03319031
v -0.004900589 -0.4391241 -0.04163269
v -0.002981704 -1.036703 -0.02076935
v -0.00490065 -0.8681694 -0.03500761
v -0.004900589 -0.1442763 -0.02711838
v -0.004900589 -0.2325915 -0.0260675
v 0.001507972 -1.212158 0.01364118
v 0.0006344831 -1.181944 -0.001116781
v 0.01983422 -0.7143564 -0.00474555
v 0.01983422 -0.5720224 -0.006351542
v 0.01983421 -0.07918949 0.009734877
v 0.01983421 0.02970268 0.02567375
v 0.01983421 0.04927726 -0.0155677
v 0.01983421 -0.07321201 -0.03630447
v 0.01983421 -0.4388973 -0.004664004
v 0.01983421 -0.3346184 0.01955139
v 0.01559076 -1.034462 0.01304319
v 0.01823969 -0.8681694 0.001273594
v 0.01983421 -0.1261181 0.02007416
v 0.006935807 -0.1277192 -0.07628296
v 0.01983421 -0.1522682 0.0362822
v 0.01983421 -0.2164267 0.01415298
v -0.005962448 -0.1522682 0.03628204
v 0.01983421 -0.1522682 0.0362822
v 0.01983421 -0.2417369 0.02778137
v -0.00596241 -0.2164267 0.01415283
v 0.01983421 -0.2164267 0.01415298
v 0.01983421 -0.3346184 0.01955139
v -0.00596241 -0.3346184 0.01955124
v 0.01983421 -0.3090696 0.00212738
v 0.01983421 -0.3090696 0.00212738
v -0.00596241 -0.3090696 0.002127228
v -0.00596241 -0.2417369 0.02778122
v 0.01983421 -0.2417369 0.02778137
v 0.01983421 0.1999493 0.01240363
v 0.01983421 0.2037959 0.0318238
v -0.005962451 0.1999493 0.01240348
v 0.01983421 0.1999493 0.01240363
v 0.01983421 0.1684671 0.05119835
v -0.005962451 0.2037959 0.03182364
v 0.01983421 0.2037959 0.0318238
v -0.005962453 0.1684671 0.0511982
v 0.01983421 0.1684671 0.05119835
v 0.01107363 -1.2354 0.03540394
v 0.006935902 -1.265142 0.04001437
v -0.005962451 0.04927726 -0.01556786
v -0.005962448 0.02970268 0.0256736
v -0.00596241 -0.07918949 0.009734725
v -0.00596241 -0.07321201 -0.03630463
v -0.004367888 -0.8681694 0.001273441
v -0.001718963 -1.034462 0.01304319
v -0.0059624 -0.7143564 -0.004745703
v -0.00596241 -0.3090696 0.002127228
v -0.00596241 -0.3346184 0.01955124
v 0.002798251 -1.2354 0.03540394
v -0.005962451 0.2037959 0.03182364
v -0.005962453 0.1684671 0.0511982
v -0.005962451 0.1999493 0.01240348
v -0.005962406 -0.5720224 -0.006351695
v -0.00596241 -0.4388973 -0.004664156
v -0.005962448 -0.1261181 0.020074
v -0.005962448 -0.1522682 0.03628204
v -0.00596241 -0.2164267 0.01415283
v -0.00596241 -0.2417369 0.02778122
vt 0.9367728 0.7003484
vt 0.9367728 0.573098
vt 0.9367728 0.8455476
vt 0.9400994 0.9378043
vt 0.9478347 0.9509771
vt 0.959357 0.9598516
vt 0.9367728 0.9235919
vt 0.9367728 0.7822017
vt 0.9369015 0.5266829
vt 0.9367728 0.6329231
vt 0.9499653 0.6326297
vt 0.9499653 0.7005911
vt 0.9547455 0.5247506
vt 0.950542 0.572394
vt 0.9499653 0.8458812
vt 0.9499653 0.7824621
vt 0.9482954 0.43522
vt 0.9540055 0.4760443
vt 0.9546313 0.9374516
vt 0.9499653 0.923479
vt 0.9382331 0.2206838
vt 0.9380896 0.4029413
vt 0.9666616 0.402813
vt 0.9675058 0.5715908
vt 0.9246385 0.4303905
vt 0.9768462 0.4786727
vt 0.9672731 0.8465025
vt 0.9629524 0.3281504
vt 0.9668596 0.9503654
vt 0.966833 0.9645147
vt 0.96259 0.2322873
vt 0.9672137 0.7008967
vt 0.9675269 0.7828798
vt 0.9699419 0.4246169
vt 0.9764193 0.4363768
vt 0.9722812 0.4667364
vt 0.9770565 0.5242473
vt 0.9715217 0.5111941
vt 0.9672519 0.6324353
vt 0.9380784 0.3197373
vt 0.9455464 0.2204164
vt 0.916075 0.2093978
vt 0.9957274 0.2277014
vt 0.9151908 0.3919285
vt 0.9957188 0.3973889
vt 0.9956869 0.5732548
vt 0.9956895 0.7013318
vt 0.9949609 0.7827334
vt 0.9957126 0.4189177
vt 0.9957051 0.433028
vt 0.9956987 0.4641544
vt 0.9956937 0.477337
vt 0.9956878 0.5245642
vt 0.99569 0.5103822
vt 0.9956875 0.6334277
vt 0.9940779 0.8461446
vt 0.9957238 0.3232835
vt 0.9155936 0.3090375
vt 0.9912033 0.9497284
vt 0.9957294 0.2062357
vt 0.9355143 0.4793577
vt 0.9499653 0.6326297
vt 0.9499653 0.7005911
vt 0.9547455 0.5247506
vt 0.950542 0.572394
vt 0.9499653 0.8458812
vt 0.9499653 0.7824621
vt 0.9482954 0.43522
vt 0.9540055 0.4760443
vt 0.9546313 0.9374516
vt 0.9499653 0.923479
vt 0.983858 0.7013318
vt 0.9838561 0.6334277
vt 0.9838873 0.3973889
vt 0.9838923 0.3232835
vt 0.9274515 0.3090948
vt 0.9270487 0.3919879
vt 0.9838555 0.5732548
vt 0.9838562 0.5245642
vt 0.9861413 0.8461446
vt 0.9845932 0.7828415
vt 0.9838811 0.4189177
vt 0.9209685 0.421496
vt 0.9838735 0.433028
vt 0.9838672 0.4641544
vt 0.9957051 0.433028
vt 0.9838735 0.433028
vt 0.9838623 0.477337
vt 0.9956987 0.4641544
vt 0.9838672 0.4641544
vt 0.9838562 0.5245642
vt 0.9956878 0.5245642
vt 0.9838583 0.5103822
vt 0.9838583 0.5103822
vt 0.99569 0.5103822
vt 0.9956937 0.477337
vt 0.9838623 0.477337
vt 0.9279324 0.2094551
vt 0.983898 0.2062347
vt 0.9957318 0.1978175
vt 0.9839002 0.1978154
vt 0.9838959 0.2277014
vt 0.9957294 0.2062357
vt 0.983898 0.2062347
vt 0.9957274 0.2277014
vt 0.9838959 0.2277014
vt 0.9874089 0.9497823
vt 0.9893066 0.9637522
vt 0.9380784 0.3197373
vt 0.9629524 0.3281504
vt 0.9666616 0.402813
vt 0.9380896 0.4029413
vt 0.9675269 0.7828798
vt 0.9672731 0.8465025
vt 0.9672137 0.7008967
vt 0.9715217 0.5111941
vt 0.9770565 0.5242473
vt 0.9668596 0.9503654
vt 0.9455464 0.2204164
vt 0.96259 0.2322873
vt 0.9382331 0.2206838
vt 0.9672519 0.6324353
vt 0.9675058 0.5715908
vt 0.9699419 0.4246169
vt 0.9764193 0.4363768
vt 0.9722812 0.4667364
vt 0.9768462 0.4786727
vn 0 -0.03073193 -0.9995277
vn -2.74069E-07 0.02779683 -0.9996136
vn 0 -0.1311292 -0.9913653
vn -5.649249E-07 -0.5484991 -0.8361511
vn -1.837696E-06 -0.7437335 -0.6684763
vn -5.746017E-06 -0.8666947 -0.498839
vn 0 -0.2865058 -0.9580785
vn 0 -0.06895574 -0.9976197
vn -3.531464E-07 0.0600962 -0.9981925
vn -1.546669E-07 -0.01225458 -0.9999249
vn 0.9788864 -0.002349935 -0.2043914
vn 0.9780923 -0.007628924 -0.2080322
vn 0.9847351 0.01010519 -0.1737663
vn 0.9808582 0.006241211 -0.1946232
vn 0.9845953 -0.03299 -0.1717085
vn 0.9787624 -0.01913472 -0.2041027
vn 0.9907505 -0.0167539 -0.1346582
vn 0.9882476 -7.276476E-05 -0.1528618
vn 0.9941974 -0.07625351 -0.07587398
vn 0.9896628 -0.05490816 -0.1324868
vn 1 0 0
vn 0.9982657 -0.01392069 -0.05719868
vn 0.9999681 -0.005828123 -0.005469169
vn 0.9996526 0.002134488 -0.02627116
vn -2.130952E-06 -0.1285231 -0.9917065
vn 0.9997206 -0.001798207 -0.02357126
vn 0.9994119 -0.0152356 0.03072218
vn 1 0 0
vn 0.9902267 -0.1145183 -0.07960305
vn 7.446388E-07 -0.8983976 -0.4391832
vn 1 0 0
vn 0.9998223 -0.002988885 -0.01861445
vn 0.9999143 -0.0086361 0.009837948
vn 0.9998402 -0.01095944 -0.01412478
vn 0.9998021 -0.002714761 -0.01971003
vn 0.9997712 -0.003305757 -0.02113461
vn 0.9997529 -0.003742963 -0.02191476
vn 0.9997365 -0.001869511 -0.02288062
vn 0.9995606 -0.000106064 -0.0296423
vn 1 0 0
vn 1 0 0
vn 5.837965E-06 0.1825252 -0.9832011
vn -5.183928E-06 0.4808456 0.8768053
vn 5.482E-06 0.3756931 -0.9267441
vn -5.908896E-06 0.03574931 0.9993608
vn -5.874862E-06 -0.1201338 0.9927577
vn -6.106161E-06 0.02514917 0.9996837
vn -5.065737E-06 0.05472656 0.9985014
vn -5.49141E-06 0.3763524 0.9264766
vn -5.046841E-06 0.5268223 0.8499755
vn -5.583394E-06 -0.3260644 0.9453475
vn -5.208503E-06 0.4740948 0.8804738
vn -5.767037E-06 -0.226199 0.9740811
vn -4.871464E-06 0.5634336 0.8261613
vn -5.915233E-06 -0.0006964234 0.9999998
vn -1.92967E-06 0.09037416 0.9959079
vn -5.831898E-06 -0.1628956 0.9866433
vn 5.835443E-06 0.1747278 -0.9846168
vn 0 0.1308043 0.9914082
vn 1.149592E-06 0.9809427 -0.1942971
vn -5.6105E-07 0.002338617 -0.9999973
vn -0.9788868 -0.002349995 -0.2043897
vn -0.9780926 -0.007628934 -0.2080305
vn -0.9847354 0.01010514 -0.1737648
vn -0.9808586 0.006241072 -0.1946216
vn -0.9845957 -0.03298973 -0.1717062
vn -0.9787627 -0.01913459 -0.2041013
vn -0.9907506 -0.01675332 -0.1346571
vn -0.9882478 -7.287032E-05 -0.1528603
vn -0.9941978 -0.07625345 -0.07586976
vn -0.9896631 -0.05490786 -0.132484
vn -6.106161E-06 0.02514917 0.9996837
vn -5.915232E-06 -0.0006964233 0.9999998
vn -5.908897E-06 0.03574933 0.9993608
vn -5.831898E-06 -0.1628956 0.9866433
vn 5.835443E-06 0.1747278 -0.9846168
vn 5.482001E-06 0.3756922 -0.9267445
vn -5.874863E-06 -0.1201339 0.9927577
vn -5.767037E-06 -0.226199 0.9740811
vn -1.92967E-06 0.09037416 0.9959079
vn -5.065737E-06 0.05472656 0.9985014
vn -5.491409E-06 0.3763528 0.9264764
vn 4.769644E-06 0.5914257 -0.8063595
vn -5.046841E-06 0.5268223 0.8499755
vn -5.583393E-06 -0.3260644 0.9453475
vn -5.583393E-06 -0.3260644 0.9453475
vn -5.583393E-06 -0.3260645 0.9453475
vn -5.208502E-06 0.4740948 0.8804738
vn -5.208502E-06 0.4740948 0.8804738
vn -5.208503E-06 0.4740948 0.8804738
vn -4.871464E-06 0.5634336 0.8261613
vn -4.871464E-06 0.5634335 0.8261613
vn -4.871464E-06 0.5634335 0.8261613
vn -5.489855E-06 -0.3560368 0.934472
vn -5.489855E-06 -0.3560367 0.934472
vn -5.489855E-06 -0.3560368 0.934472
vn -5.489855E-06 -0.3560367 0.934472
vn 5.837966E-06 0.1825252 -0.9832011
vn 1.149592E-06 0.9809427 -0.1942972
vn 1.149592E-06 0.9809427 -0.1942972
vn 1.149592E-06 0.9809427 -0.1942971
vn -5.183928E-06 0.4808456 0.8768053
vn -5.183928E-06 0.4808456 0.8768053
vn -5.183928E-06 0.4808456 0.8768053
vn -5.816823E-06 -0.1809069 0.9835002
vn -5.816824E-06 -0.1809069 0.9835002
vn 0 0.1308043 0.9914082
vn 0 0.1531851 0.9881976
vn -1 -1.486108E-07 0
vn -1 -2.020971E-07 0
vn -0.9999681 -0.005827513 -0.005468842
vn -0.9982658 -0.01391994 -0.0571981
vn -0.9999143 -0.008635774 0.009840953
vn -0.9994117 -0.015235 0.03072684
vn -0.9998223 -0.002988836 -0.01861147
vn -0.9997365 -0.001869309 -0.02287815
vn -0.9997529 -0.003742561 -0.02191241
vn -0.9902275 -0.1145158 -0.07959674
vn -1 0 0
vn -1 0 0
vn -1 0 0
vn -0.9995607 -0.0001061212 -0.0296391
vn -0.9996526 0.002134233 -0.02626833
vn -0.9998402 -0.01095834 -0.0141238
vn -0.9998021 -0.00271475 -0.01970838
vn -0.9997712 -0.003305518 -0.02113254
vn -0.9997206 -0.001798014 -0.02356872
g Sword_R_0
f 12/12/12 1/1/1 10/10/10
f 11/11/11 12/12/12 10/10/10
f 11/11/11 10/10/10 2/2/2
f 14/14/14 11/11/11 2/2/2
f 14/14/14 2/2/2 9/9/9
f 13/13/13 14/14/14 9/9/9
f 13/13/13 9/9/9 61/61/61
f 18/18/18 13/13/13 61/61/61
f 18/18/18 61/61/61 25/25/25
f 17/17/17 18/18/18 25/25/25
f 17/17/17 25/25/25 22/22/22
f 32/32/32 12/12/12 11/11/11
f 12/12/12 32/32/32 33/33/33
f 16/16/16 12/12/12 33/33/33
f 1/1/1 12/12/12 16/16/16
f 15/15/15 16/16/16 33/33/33
f 27/27/27 15/15/15 33/33/33
f 20/20/20 15/15/15 27/27/27
f 19/19/19 20/20/20 27/27/27
f 27/27/27 29/29/29 19/19/19
f 4/4/4 19/19/19 29/29/29
f 5/5/5 4/4/4 29/29/29
f 6/6/6 5/5/5 29/29/29
f 30/30/30 6/6/6 29/29/29
f 15/15/15 20/20/20 7/7/7
f 7/7/7 20/20/20 19/19/19
f 4/4/4 7/7/7 19/19/19
f 3/3/3 15/15/15 7/7/7
f 8/8/8 16/16/16 15/15/15
f 3/3/3 8/8/8 15/15/15
f 8/8/8 1/1/1 16/16/16
f 4/4/4 5/5/5 118/118/118
f 5/5/5 6/6/6 118/118/118
f 6/6/6 30/30/30 118/118/118
f 70/70/70 4/4/4 118/118/118
f 7/7/7 4/4/4 70/70/70
f 70/70/70 118/118/118 114/114/114
f 114/114/114 71/71/71 70/70/70
f 71/71/71 7/7/7 70/70/70
f 114/114/114 66/66/66 71/71/71
f 66/66/66 3/3/3 7/7/7
f 71/71/71 66/66/66 7/7/7
f 8/8/8 3/3/3 66/66/66
f 66/66/66 114/114/114 113/113/113
f 67/67/67 66/66/66 113/113/113
f 67/67/67 8/8/8 66/66/66
f 1/1/1 8/8/8 67/67/67
f 63/63/63 67/67/67 113/113/113
f 63/63/63 1/1/1 67/67/67
f 1/1/1 63/63/63 10/10/10
f 63/63/63 62/62/62 10/10/10
f 115/115/115 63/63/63 113/113/113
f 63/63/63 115/115/115 62/62/62
f 10/10/10 62/62/62 2/2/2
f 62/62/62 65/65/65 2/2/2
f 2/2/2 65/65/65 9/9/9
f 65/65/65 64/64/64 9/9/9
f 9/9/9 64/64/64 61/61/61
f 64/64/64 69/69/69 61/61/61
f 61/61/61 69/69/69 25/25/25
f 69/69/69 68/68/68 25/25/25
f 25/25/25 68/68/68 112/112/112
f 115/115/115 122/122/122 62/62/62
f 62/62/62 122/122/122 65/65/65
f 65/65/65 123/123/123 64/64/64
f 122/122/122 123/123/123 65/65/65
f 123/123/123 117/117/117 64/64/64
f 64/64/64 117/117/117 116/116/116
f 64/64/64 116/116/116 69/69/69
f 69/69/69 126/126/126 68/68/68
f 126/126/126 125/125/125 68/68/68
f 125/125/125 124/124/124 68/68/68
f 68/68/68 124/124/124 112/112/112
f 127/127/127 126/126/126 69/69/69
f 116/116/116 127/127/127 69/69/69
f 124/124/124 111/111/111 112/112/112
f 112/112/112 111/111/111 109/109/109
f 111/111/111 110/110/110 109/109/109
f 109/109/109 110/110/110 120/120/120
f 121/121/121 109/109/109 120/120/120
f 121/121/121 120/120/120 119/119/119
f 23/23/23 22/22/22 40/40/40
f 28/28/28 23/23/23 40/40/40
f 23/23/23 34/34/34 22/22/22
f 34/34/34 17/17/17 22/22/22
f 34/34/34 35/35/35 17/17/17
f 35/35/35 36/36/36 17/17/17
f 36/36/36 18/18/18 17/17/17
f 36/36/36 26/26/26 18/18/18
f 26/26/26 38/38/38 18/18/18
f 38/38/38 13/13/13 18/18/18
f 37/37/37 13/13/13 38/38/38
f 37/37/37 24/24/24 13/13/13
f 24/24/24 14/14/14 13/13/13
f 24/24/24 39/39/39 14/14/14
f 39/39/39 11/11/11 14/14/14
f 39/39/39 32/32/32 11/11/11
f 28/28/28 40/40/40 31/31/31
f 40/40/40 21/21/21 31/31/31
f 31/31/31 21/21/21 41/41/41
f 55/55/55 47/47/47 72/72/72
f 73/73/73 55/55/55 72/72/72
f 72/72/72 47/47/47 81/81/81
f 47/47/47 48/48/48 81/81/81
f 81/81/81 48/48/48 80/80/80
f 48/48/48 56/56/56 80/80/80
f 46/46/46 55/55/55 73/73/73
f 78/78/78 46/46/46 73/73/73
f 53/53/53 46/46/46 78/78/78
f 79/79/79 53/53/53 78/78/78
f 80/80/80 56/56/56 107/107/107
f 56/56/56 59/59/59 107/107/107
f 59/59/59 108/108/108 107/107/107
f 57/57/57 45/45/45 74/74/74
f 75/75/75 57/57/57 74/74/74
f 74/74/74 45/45/45 82/82/82
f 45/45/45 49/49/49 82/82/82
f 82/82/82 49/49/49 84/84/84
f 49/49/49 50/50/50 84/84/84
f 105/105/105 57/57/57 75/75/75
f 106/106/106 105/105/105 75/75/75
f 44/44/44 58/58/58 76/76/76
f 77/77/77 44/44/44 76/76/76
f 83/83/83 44/44/44 77/77/77
f 76/76/76 58/58/58 98/98/98
f 58/58/58 42/42/42 98/98/98
f 86/86/86 51/51/51 85/85/85
f 87/87/87 86/86/86 85/85/85
f 89/89/89 52/52/52 88/88/88
f 90/90/90 89/89/89 88/88/88
f 54/54/54 92/92/92 91/91/91
f 93/93/93 54/54/54 91/91/91
f 96/96/96 95/95/95 94/94/94
f 97/97/97 96/96/96 94/94/94
f 100/100/100 60/60/60 99/99/99
f 101/101/101 100/100/100 99/99/99
f 103/103/103 43/43/43 102/102/102
f 104/104/104 103/103/103 102/102/102
