g Sword_L
v -0.1217859 0.08651185 0.7018902
v -0.0701144 0.08364633 0.4317597
v -0.1837275 0.07185488 1.019281
v -0.2199676 0.04346956 1.197935
v -0.2262353 0.02614837 1.224421
v -0.2298994 0.008056359 1.237074
v -0.2130917 0.0552031 1.166295
v -0.1510165 0.08345819 0.8530415
v -0.05171582 0.07744106 0.3337321
v -0.09518737 0.0866283 0.563403
v -0.0855607 0.0562166 0.5653697
v -0.1122052 0.05727357 0.7045135
v -0.04217661 0.04092083 0.3339832
v -0.06065517 0.05209184 0.4341923
v -0.1755925 0.04750045 1.02097
v -0.1412361 0.0570356 0.8556256
v -0.006627169 0.0296768 0.1448406
v -0.02319192 0.03100646 0.2315846
v -0.2151873 0.01820362 1.192908
v -0.2076459 0.03205131 1.163196
v 0.05589243 -0.0190812 -0.1924551
v 0.008332482 0.0368548 0.07512455
v 0.003959741 -0.008903846 0.0816344
v -0.06218723 0.01514235 0.4346831
v -0.01165603 0.07905936 0.1256707
v -0.02766801 -0.02252697 0.2415138
v -0.1788031 0.01379997 1.019002
v 0.02316491 -0.02773307 -0.02508095
v -0.2223304 -0.002790506 1.215792
v -0.2322644 -0.006311474 1.244285
v 0.04726982 -0.05692736 -0.160999
v -0.1136158 0.02264014 0.7051948
v -0.1443244 0.02088455 0.8560296
v -0.005534239 -0.01795272 0.127864
v -0.01156352 -0.03341453 0.1537698
v -0.02197802 -0.009615486 0.2164687
v -0.04442892 -0.01181766 0.3326132
v -0.0384259 0.004873154 0.3072811
v -0.08692531 0.02040976 0.5653944
v 0.02973715 0.01287407 -0.04487709
v 0.05523697 -0.0385544 -0.1959627
v 0.03061524 -0.01735601 -0.1973085
v 0.02199264 -0.05520218 -0.1658524
v -0.01694467 0.03857998 0.07027107
v -0.02131741 -0.007178664 0.07678097
v -0.08746438 0.01686753 0.4298296
v -0.138893 0.02436533 0.7003414
v -0.1664767 0.02239648 0.8517761
v -0.03081142 -0.01622754 0.1230106
v -0.0368407 -0.03168935 0.1489163
v -0.04725517 -0.007890303 0.2116152
v -0.05294516 -0.02080178 0.2366604
v -0.06970607 -0.01009247 0.3277598
v -0.06370306 0.006598337 0.3024276
v -0.1122025 0.02213494 0.560541
v -0.1957642 0.01495748 1.015745
v -0.002112284 -0.02600789 -0.02993439
v 0.004459953 0.01459926 -0.04973053
v -0.2304392 -0.002237129 1.214235
v 0.02995978 -0.03682921 -0.2008161
v -0.03281112 0.0690371 0.232287
v -0.1087569 0.05779977 0.5609158
v -0.1354014 0.05885673 0.7000597
v -0.06537277 0.04250399 0.3295293
v -0.08385134 0.053675 0.4297385
v -0.1950281 0.04882683 1.017238
v -0.1644324 0.05861877 0.8511718
v -0.02982333 0.03125996 0.1403868
v -0.04638808 0.03258962 0.2271308
v -0.2258244 0.01892955 1.190866
v -0.2199948 0.03289405 1.160825
v -0.1136158 0.02264014 0.7051948
v -0.08692531 0.02040976 0.5653944
v 0.003959741 -0.008903846 0.0816344
v 0.02316491 -0.02773307 -0.02508095
v 0.02973715 0.01287407 -0.04487709
v 0.008332482 0.0368548 0.07512455
v -0.06218723 0.01514235 0.4346831
v -0.04442892 -0.01181766 0.3326132
v -0.1788031 0.01379997 1.019002
v -0.1443244 0.02088455 0.8560296
v -0.005534239 -0.01795272 0.127864
v -0.01165603 0.07905936 0.1256707
v -0.01156352 -0.03341453 0.1537698
v -0.02197802 -0.009615486 0.2164687
v -0.01156352 -0.03341453 0.1537698
v -0.0368407 -0.03168935 0.1489163
v -0.02766801 -0.02252697 0.2415138
v -0.02197802 -0.009615486 0.2164687
v -0.04725517 -0.007890303 0.2116152
v -0.04442892 -0.01181766 0.3326132
v -0.0384259 0.004873154 0.3072811
v -0.06970607 -0.01009247 0.3277598
v -0.0384259 0.004873154 0.3072811
v -0.02766801 -0.02252697 0.2415138
v -0.05294516 -0.02080178 0.2366604
v -0.06370306 0.006598337 0.3024276
v 0.05589243 -0.0190812 -0.1924551
v 0.05523697 -0.0385544 -0.1959627
v 0.05589243 -0.0190812 -0.1924551
v 0.03061524 -0.01735601 -0.1973085
v 0.04726982 -0.05692736 -0.160999
v 0.05523697 -0.0385544 -0.1959627
v 0.02995978 -0.03682921 -0.2008161
v 0.04726982 -0.05692736 -0.160999
v 0.02199264 -0.05520218 -0.1658524
v -0.2223304 -0.002790506 1.215792
v -0.2322644 -0.006311474 1.244285
v 0.004459953 0.01459926 -0.04973053
v -0.01694467 0.03857998 0.07027107
v -0.02131741 -0.007178664 0.07678097
v -0.002112284 -0.02600789 -0.02993439
v -0.1664767 0.02239648 0.8517761
v -0.1957642 0.01495748 1.015745
v -0.138893 0.02436533 0.7003414
v -0.06370306 0.006598337 0.3024276
v -0.06970607 -0.01009247 0.3277598
v -0.2304392 -0.002237129 1.214235
v 0.02995978 -0.03682921 -0.2008161
v 0.03061524 -0.01735601 -0.1973085
v 0.02199264 -0.05520218 -0.1658524
v -0.1122025 0.02213494 0.560541
v -0.08746438 0.01686753 0.4298296
v -0.0368407 -0.03168935 0.1489163
v -0.03081142 -0.01622754 0.1230106
v -0.04725517 -0.007890303 0.2116152
v -0.05294516 -0.02080178 0.2366604
vt 0.9367728 0.7003484
vt 0.9367728 0.573098
vt 0.9367728 0.8455476
vt 0.9400994 0.9378043
vt 0.9478347 0.9509771
vt 0.959357 0.9598516
vt 0.9367728 0.9235919
vt 0.9367728 0.7822017
vt 0.9369015 0.5266829
vt 0.9367728 0.6329231
vt 0.9499653 0.6326297
vt 0.9499653 0.7005911
vt 0.9547455 0.5247506
vt 0.950542 0.572394
vt 0.9499653 0.8458812
vt 0.9499653 0.7824621
vt 0.9482954 0.43522
vt 0.9540055 0.4760443
vt 0.9546313 0.9374516
vt 0.9499653 0.923479
vt 0.9382331 0.2206838
vt 0.9380896 0.4029413
vt 0.9666616 0.402813
vt 0.9675058 0.5715908
vt 0.9246385 0.4303905
vt 0.9768462 0.4786727
vt 0.9672731 0.8465025
vt 0.9629524 0.3281504
vt 0.9668596 0.9503654
vt 0.966833 0.9645147
vt 0.96259 0.2322873
vt 0.9672137 0.7008967
vt 0.9675269 0.7828798
vt 0.9699419 0.4246169
vt 0.9764193 0.4363768
vt 0.9722812 0.4667364
vt 0.9770565 0.5242473
vt 0.9715217 0.5111941
vt 0.9672519 0.6324353
vt 0.9380784 0.3197373
vt 0.9455464 0.2204164
vt 0.916075 0.2093978
vt 0.9957274 0.2277014
vt 0.9151908 0.3919285
vt 0.9957188 0.3973889
vt 0.9956869 0.5732548
vt 0.9956895 0.7013318
vt 0.9949609 0.7827334
vt 0.9957126 0.4189177
vt 0.9957051 0.433028
vt 0.9956987 0.4641544
vt 0.9956937 0.477337
vt 0.9956878 0.5245642
vt 0.99569 0.5103822
vt 0.9956875 0.6334277
vt 0.9940779 0.8461446
vt 0.9957238 0.3232835
vt 0.9155936 0.3090375
vt 0.9912033 0.9497284
vt 0.9957294 0.2062357
vt 0.9355143 0.4793577
vt 0.9499653 0.6326297
vt 0.9499653 0.7005911
vt 0.9547455 0.5247506
vt 0.950542 0.572394
vt 0.9499653 0.8458812
vt 0.9499653 0.7824621
vt 0.9482954 0.43522
vt 0.9540055 0.4760443
vt 0.9546313 0.9374516
vt 0.9499653 0.923479
vt 0.983858 0.7013318
vt 0.9838561 0.6334277
vt 0.9838873 0.3973889
vt 0.9838923 0.3232835
vt 0.9274515 0.3090948
vt 0.9270487 0.3919879
vt 0.9838555 0.5732548
vt 0.9838562 0.5245642
vt 0.9861413 0.8461446
vt 0.9845932 0.7828415
vt 0.9838811 0.4189177
vt 0.9209685 0.421496
vt 0.9838735 0.433028
vt 0.9838672 0.4641544
vt 0.9838735 0.433028
vt 0.9957051 0.433028
vt 0.9838623 0.477337
vt 0.9838672 0.4641544
vt 0.9956987 0.4641544
vt 0.9838562 0.5245642
vt 0.9838583 0.5103822
vt 0.9956878 0.5245642
vt 0.9838583 0.5103822
vt 0.9838623 0.477337
vt 0.9956937 0.477337
vt 0.99569 0.5103822
vt 0.9279324 0.2094551
vt 0.983898 0.2062347
vt 0.9839002 0.1978154
vt 0.9957318 0.1978175
vt 0.9838959 0.2277014
vt 0.983898 0.2062347
vt 0.9957294 0.2062357
vt 0.9838959 0.2277014
vt 0.9957274 0.2277014
vt 0.9874089 0.9497823
vt 0.9893066 0.9637522
vt 0.9380784 0.3197373
vt 0.9380896 0.4029413
vt 0.9666616 0.402813
vt 0.9629524 0.3281504
vt 0.9675269 0.7828798
vt 0.9672731 0.8465025
vt 0.9672137 0.7008967
vt 0.9715217 0.5111941
vt 0.9770565 0.5242473
vt 0.9668596 0.9503654
vt 0.9455464 0.2204164
vt 0.9382331 0.2206838
vt 0.96259 0.2322873
vt 0.9672519 0.6324353
vt 0.9675058 0.5715908
vt 0.9764193 0.4363768
vt 0.9699419 0.4246169
vt 0.9722812 0.4667364
vt 0.9768462 0.4786727
vn 0.06496336 0.9977546 0.01629107
vn 0.07589759 0.9962646 -0.04118802
vn 0.04563971 0.9923166 0.114999
vn -0.04327153 0.8487436 0.5270311
vn -0.09158849 0.6867605 0.7210905
vn -0.126553 0.5208761 0.8441993
vn 0.01427313 0.9632998 0.268048
vn 0.0576912 0.9968808 0.05385507
vn 0.0818282 0.9939776 -0.07288764
vn 0.06844135 0.9976534 -0.001860115
vn 0.9731933 0.1384645 0.1836363
vn 0.971687 0.1422908 0.1886205
vn 0.9790836 0.1071926 0.1729308
vn 0.9760386 0.1283586 0.1757061
vn 0.9707543 0.1063096 0.2152544
vn 0.9699174 0.1386366 0.2001004
vn 0.9771963 0.06850696 0.2009828
vn 0.9791462 0.08638161 0.1838772
vn 0.965306 0.01124701 0.260879
vn 0.9688528 0.06744108 0.2382772
vn 0.9798629 -0.06687069 0.1881409
vn 0.9796101 -0.009329937 0.2006909
vn 0.9791301 -0.06125664 0.1937827
vn 0.9817793 -0.0407016 0.1856144
vn 0.0461477 0.992587 0.1124346
vn 0.9809206 -0.04329328 0.1895269
vn 0.9742686 -0.09706294 0.2034193
vn 0.9798629 -0.06687064 0.1881411
vn 0.9545339 0.01626214 0.2976584
vn -0.136684 0.4622312 0.876162
vn 0.9798629 -0.06687067 0.1881409
vn 0.9804474 -0.04821204 0.1907842
vn 0.9774705 -0.07644446 0.1967426
vn 0.978659 -0.05247675 0.1986775
vn 0.9805562 -0.04712535 0.1904958
vn 0.9805164 -0.04568646 0.1910506
vn 0.980472 -0.04489512 0.1914658
vn 0.9808741 -0.04398122 0.1896095
vn 0.9815093 -0.03727295 0.1877506
vn 0.9798629 -0.06687064 0.188141
vn 0.9798629 -0.06687072 0.1881409
vn 0.1036343 0.9757285 -0.1929088
vn 0.02775897 -0.8874701 -0.4600286
vn 0.1357099 0.9142176 -0.3818234
vn -0.06402045 -0.9977229 -0.02122159
vn -0.09266042 -0.98694 0.1317706
vn -0.06602281 -0.9977596 -0.01080748
vn -0.06041535 -0.9973767 -0.03986998
vn 0.004733997 -0.9341988 -0.3567215
vn 0.03824204 -0.8619478 -0.5055526
vn -0.1277586 -0.9341087 0.3333446
vn 0.02623906 -0.8909475 -0.4533477
vn -0.1111441 -0.9654563 0.2356717
vn 0.04676291 -0.8391815 -0.5418373
vn -0.07087095 -0.9973789 0.01457844
vn -0.05357258 -0.99575 -0.07491296
vn -0.1002125 -0.9796902 0.1736796
vn 0.1022786 0.9773503 -0.1852711
vn -0.04570323 -0.9923507 -0.1146792
vn 0.1969096 0.1673782 -0.9660286
vn 0.07117144 0.9973327 -0.01619223
vn -0.9451561 0.2693797 -0.1847011
vn -0.945106 0.2731002 -0.1794181
vn -0.9507275 0.2388902 -0.1976074
vn -0.946175 0.2595376 -0.1933731
vn -0.958783 0.2379882 -0.1552314
vn -0.948189 0.2695358 -0.1681905
vn -0.964403 0.2010098 -0.1718195
vn -0.9575483 0.2185492 -0.1879825
vn -0.983049 0.1442082 -0.1132193
vn -0.9706153 0.1997972 -0.1341152
vn -0.06602281 -0.9977596 -0.0108075
vn -0.07087095 -0.9973789 0.01457844
vn -0.0640204 -0.9977229 -0.02122187
vn -0.1002125 -0.9796902 0.1736795
vn 0.1022786 0.9773503 -0.1852711
vn 0.1357099 0.9142177 -0.3818232
vn -0.0926604 -0.98694 0.1317706
vn -0.1111441 -0.9654563 0.2356717
vn -0.05357257 -0.99575 -0.07491297
vn -0.06041534 -0.9973767 -0.03987003
vn 0.004734118 -0.9341986 -0.356722
vn 0.1674766 0.7883375 -0.5920097
vn 0.03824204 -0.8619478 -0.5055526
vn -0.1277586 -0.9341087 0.3333447
vn -0.1277586 -0.9341087 0.3333446
vn -0.1277586 -0.9341087 0.3333447
vn 0.02623906 -0.8909475 -0.4533477
vn 0.02623906 -0.8909475 -0.4533477
vn 0.02623906 -0.8909475 -0.4533477
vn 0.04676291 -0.8391815 -0.5418373
vn 0.0467629 -0.8391815 -0.5418373
vn 0.0467629 -0.8391815 -0.5418373
vn -0.1325859 -0.9224544 0.3626276
vn -0.1325859 -0.9224545 0.3626276
vn -0.1325859 -0.9224544 0.3626276
vn -0.1325859 -0.9224545 0.3626276
vn 0.1036343 0.9757285 -0.1929088
vn 0.1969096 0.1673782 -0.9660286
vn 0.1969095 0.1673782 -0.9660286
vn 0.1969096 0.1673782 -0.9660286
vn 0.02775897 -0.8874701 -0.4600286
vn 0.02775897 -0.8874701 -0.4600286
vn 0.02775897 -0.8874701 -0.4600286
vn -0.1033533 -0.9760703 0.1913238
vn -0.1033533 -0.9760703 0.1913238
vn -0.04570324 -0.9923507 -0.1146792
vn -0.04129718 -0.9897509 -0.1367027
vn -0.9798629 0.06687056 -0.188141
vn -0.9767169 0.1241786 -0.1749397
vn -0.9805329 0.07247989 -0.1824882
vn -0.9798629 0.06687058 -0.1881409
vn -0.9820875 0.05728186 -0.1795075
vn -0.9843047 0.03659459 -0.1726419
vn -0.9789304 0.08550195 -0.1854311
vn -0.9783354 0.08972176 -0.1865736
vn -0.9787696 0.08881003 -0.1847237
vn -0.9860395 0.1486901 -0.07494895
vn -0.9798629 0.06687067 -0.1881407
vn -0.9798629 0.06687057 -0.1881409
vn -0.9798629 0.06687051 -0.188141
vn -0.9773557 0.0964059 -0.188366
vn -0.9772659 0.09298976 -0.1905366
vn -0.9787818 0.08658739 -0.1857116
vn -0.9807534 0.08124185 -0.1775457
vn -0.9787611 0.08802174 -0.1851454
vn -0.9782577 0.09040762 -0.1866503
g Sword_L_0
f 12/12/12 11/11/11 10/10/10
f 1/1/1 12/12/12 10/10/10
f 10/10/10 11/11/11 2/2/2
f 11/11/11 14/14/14 2/2/2
f 2/2/2 14/14/14 9/9/9
f 14/14/14 13/13/13 9/9/9
f 9/9/9 13/13/13 61/61/61
f 13/13/13 18/18/18 61/61/61
f 61/61/61 18/18/18 25/25/25
f 18/18/18 17/17/17 25/25/25
f 25/25/25 17/17/17 22/22/22
f 12/12/12 32/32/32 11/11/11
f 32/32/32 12/12/12 33/33/33
f 12/12/12 16/16/16 33/33/33
f 12/12/12 1/1/1 16/16/16
f 16/16/16 15/15/15 33/33/33
f 15/15/15 27/27/27 33/33/33
f 27/27/27 15/15/15 19/19/19
f 19/19/19 29/29/29 27/27/27
f 15/15/15 20/20/20 19/19/19
f 19/19/19 4/4/4 29/29/29
f 4/4/4 5/5/5 29/29/29
f 5/5/5 6/6/6 29/29/29
f 6/6/6 30/30/30 29/29/29
f 20/20/20 15/15/15 7/7/7
f 7/7/7 4/4/4 19/19/19
f 20/20/20 7/7/7 19/19/19
f 15/15/15 3/3/3 7/7/7
f 8/8/8 3/3/3 15/15/15
f 16/16/16 8/8/8 15/15/15
f 1/1/1 8/8/8 16/16/16
f 5/5/5 4/4/4 118/118/118
f 6/6/6 5/5/5 118/118/118
f 30/30/30 6/6/6 118/118/118
f 4/4/4 70/70/70 118/118/118
f 4/4/4 7/7/7 70/70/70
f 114/114/114 118/118/118 70/70/70
f 70/70/70 66/66/66 114/114/114
f 3/3/3 66/66/66 7/7/7
f 3/3/3 8/8/8 66/66/66
f 114/114/114 66/66/66 113/113/113
f 66/66/66 67/67/67 113/113/113
f 8/8/8 67/67/67 66/66/66
f 8/8/8 1/1/1 67/67/67
f 67/67/67 63/63/63 113/113/113
f 1/1/1 63/63/63 67/67/67
f 63/63/63 1/1/1 10/10/10
f 62/62/62 63/63/63 10/10/10
f 63/63/63 115/115/115 113/113/113
f 115/115/115 63/63/63 62/62/62
f 62/62/62 10/10/10 2/2/2
f 65/65/65 62/62/62 2/2/2
f 65/65/65 2/2/2 9/9/9
f 64/64/64 65/65/65 9/9/9
f 64/64/64 9/9/9 61/61/61
f 69/69/69 64/64/64 61/61/61
f 69/69/69 61/61/61 25/25/25
f 68/68/68 69/69/69 25/25/25
f 68/68/68 25/25/25 110/110/110
f 122/122/122 115/115/115 62/62/62
f 122/122/122 62/62/62 65/65/65
f 123/123/123 65/65/65 64/64/64
f 123/123/123 122/122/122 65/65/65
f 117/117/117 123/123/123 64/64/64
f 117/117/117 64/64/64 116/116/116
f 116/116/116 64/64/64 69/69/69
f 126/126/126 69/69/69 68/68/68
f 124/124/124 126/126/126 68/68/68
f 125/125/125 124/124/124 68/68/68
f 125/125/125 68/68/68 110/110/110
f 126/126/126 127/127/127 69/69/69
f 127/127/127 116/116/116 69/69/69
f 111/111/111 125/125/125 110/110/110
f 111/111/111 110/110/110 109/109/109
f 112/112/112 111/111/111 109/109/109
f 112/112/112 109/109/109 121/121/121
f 109/109/109 120/120/120 121/121/121
f 121/121/121 120/120/120 119/119/119
f 23/23/23 28/28/28 40/40/40
f 22/22/22 23/23/23 40/40/40
f 34/34/34 23/23/23 22/22/22
f 17/17/17 34/34/34 22/22/22
f 35/35/35 34/34/34 17/17/17
f 36/36/36 35/35/35 17/17/17
f 18/18/18 36/36/36 17/17/17
f 26/26/26 36/36/36 18/18/18
f 38/38/38 26/26/26 18/18/18
f 13/13/13 38/38/38 18/18/18
f 13/13/13 37/37/37 38/38/38
f 24/24/24 37/37/37 13/13/13
f 14/14/14 24/24/24 13/13/13
f 39/39/39 24/24/24 14/14/14
f 11/11/11 39/39/39 14/14/14
f 32/32/32 39/39/39 11/11/11
f 21/21/21 31/31/31 41/41/41
f 21/21/21 40/40/40 31/31/31
f 40/40/40 28/28/28 31/31/31
f 55/55/55 73/73/73 72/72/72
f 47/47/47 55/55/55 72/72/72
f 47/47/47 72/72/72 81/81/81
f 48/48/48 47/47/47 81/81/81
f 48/48/48 81/81/81 80/80/80
f 56/56/56 48/48/48 80/80/80
f 55/55/55 46/46/46 73/73/73
f 46/46/46 78/78/78 73/73/73
f 46/46/46 53/53/53 78/78/78
f 53/53/53 79/79/79 78/78/78
f 56/56/56 80/80/80 107/107/107
f 59/59/59 56/56/56 107/107/107
f 108/108/108 59/59/59 107/107/107
f 57/57/57 75/75/75 74/74/74
f 45/45/45 57/57/57 74/74/74
f 45/45/45 74/74/74 82/82/82
f 49/49/49 45/45/45 82/82/82
f 49/49/49 82/82/82 84/84/84
f 50/50/50 49/49/49 84/84/84
f 57/57/57 106/106/106 75/75/75
f 106/106/106 105/105/105 75/75/75
f 44/44/44 77/77/77 76/76/76
f 58/58/58 44/44/44 76/76/76
f 44/44/44 83/83/83 77/77/77
f 58/58/58 76/76/76 98/98/98
f 42/42/42 58/58/58 98/98/98
f 87/87/87 86/86/86 85/85/85
f 51/51/51 87/87/87 85/85/85
f 90/90/90 89/89/89 88/88/88
f 52/52/52 90/90/90 88/88/88
f 54/54/54 92/92/92 91/91/91
f 93/93/93 54/54/54 91/91/91
f 96/96/96 95/95/95 94/94/94
f 97/97/97 96/96/96 94/94/94
f 101/101/101 100/100/100 99/99/99
f 60/60/60 101/101/101 99/99/99
f 104/104/104 103/103/103 102/102/102
f 43/43/43 104/104/104 102/102/102
f 70/70/70 71/71/71 66/66/66
f 66/66/66 71/71/71 7/7/7
f 7/7/7 71/71/71 70/70/70
